<?xml version="1.0" encoding="utf-8" standalone="no"?>
<!DOCTYPE svg PUBLIC "-//W3C//DTD SVG 1.1//EN"
  "http://www.w3.org/Graphics/SVG/1.1/DTD/svg11.dtd">
<svg xmlns:xlink="http://www.w3.org/1999/xlink" width="720pt" height="576pt" viewBox="0 0 720 576" xmlns="http://www.w3.org/2000/svg" version="1.1">
 <metadata>
  <rdf:RDF xmlns:dc="http://purl.org/dc/elements/1.1/" xmlns:cc="http://creativecommons.org/ns#" xmlns:rdf="http://www.w3.org/1999/02/22-rdf-syntax-ns#">
   <cc:Work>
    <dc:type rdf:resource="http://purl.org/dc/dcmitype/StillImage"/>
    <dc:date>2022-11-19T14:38:59.969352</dc:date>
    <dc:format>image/svg+xml</dc:format>
    <dc:creator>
     <cc:Agent>
      <dc:title>Matplotlib v3.5.2, https://matplotlib.org/</dc:title>
     </cc:Agent>
    </dc:creator>
    <dc:contributor>
     <cc:Agent>
      <dc:title>T. Dunn</dc:title>
     </cc:Agent>
    </dc:contributor>
   </cc:Work>
  </rdf:RDF>
 </metadata>
 <defs>
  <style type="text/css">*{stroke-linejoin: round; stroke-linecap: butt}</style>
 </defs>
 <g id="figure_1">
  <g id="patch_1">
   <path d="M 0 576 
L 720 576 
L 720 0 
L 0 0 
L 0 576 
z
" style="fill: none"/>
  </g>
  <g id="axes_1">
   <g id="patch_2">
    <path d="M 50.565625 252.24375 
L 357.78125 252.24375 
L 357.78125 25.918125 
L 50.565625 25.918125 
z
" style="fill: #ffffff"/>
   </g>
   <g id="patch_3">
    <path d="M 64.529972 252.24375 
L 64.529972 252.24375 
L 77.829349 252.24375 
L 77.829349 251.187141 
L 91.128727 251.187141 
L 91.128727 246.960706 
L 104.428105 246.960706 
L 104.428105 219.488874 
L 117.727482 219.488874 
L 117.727482 197.300088 
L 131.02686 197.300088 
L 131.02686 164.545212 
L 144.326238 164.545212 
L 144.326238 132.846945 
L 157.625616 132.846945 
L 157.625616 62.054149 
L 170.924993 62.054149 
L 170.924993 36.695536 
L 184.224371 36.695536 
L 184.224371 176.16791 
L 197.523749 176.16791 
L 197.523749 194.130261 
L 210.823126 194.130261 
L 210.823126 241.677661 
L 224.122504 241.677661 
L 224.122504 250.130532 
L 237.421882 250.130532 
L 237.421882 251.187141 
L 250.721259 251.187141 
L 250.721259 252.24375 
L 264.020637 252.24375 
L 264.020637 252.24375 
L 277.320015 252.24375 
L 277.320015 252.24375 
L 290.619393 252.24375 
L 290.619393 252.24375 
L 303.91877 252.24375 
L 303.91877 252.24375 
L 317.218148 252.24375 
L 317.218148 252.24375 
L 330.517526 252.24375 
L 330.517526 252.24375 
L 343.816903 252.24375 
L 343.816903 252.24375 
L 330.517526 252.24375 
L 330.517526 252.24375 
L 317.218148 252.24375 
L 317.218148 252.24375 
L 303.91877 252.24375 
L 303.91877 252.24375 
L 290.619393 252.24375 
L 290.619393 252.24375 
L 277.320015 252.24375 
L 277.320015 252.24375 
L 264.020637 252.24375 
L 264.020637 252.24375 
L 250.721259 252.24375 
L 250.721259 252.24375 
L 237.421882 252.24375 
L 237.421882 251.187141 
L 224.122504 251.187141 
L 224.122504 245.904097 
L 210.823126 245.904097 
L 210.823126 199.413305 
L 197.523749 199.413305 
L 197.523749 184.620781 
L 184.224371 184.620781 
L 184.224371 58.884322 
L 170.924993 58.884322 
L 170.924993 93.752416 
L 157.625616 93.752416 
L 157.625616 148.696078 
L 144.326238 148.696078 
L 144.326238 183.564172 
L 131.02686 183.564172 
L 131.02686 204.69635 
L 117.727482 204.69635 
L 117.727482 226.885137 
L 104.428105 226.885137 
L 104.428105 248.017314 
L 91.128727 248.017314 
L 91.128727 251.187141 
L 77.829349 251.187141 
L 77.829349 252.24375 
z
" clip-path="url(#p0de64b582b)" style="fill: #2ca02c"/>
   </g>
   <g id="patch_4">
    <path d="M 64.529972 252.24375 
L 64.529972 252.24375 
L 77.829349 252.24375 
L 77.829349 251.187141 
L 91.128727 251.187141 
L 91.128727 248.017314 
L 104.428105 248.017314 
L 104.428105 226.885137 
L 117.727482 226.885137 
L 117.727482 204.69635 
L 131.02686 204.69635 
L 131.02686 183.564172 
L 144.326238 183.564172 
L 144.326238 148.696078 
L 157.625616 148.696078 
L 157.625616 93.752416 
L 170.924993 93.752416 
L 170.924993 58.884322 
L 184.224371 58.884322 
L 184.224371 184.620781 
L 197.523749 184.620781 
L 197.523749 199.413305 
L 210.823126 199.413305 
L 210.823126 245.904097 
L 224.122504 245.904097 
L 224.122504 251.187141 
L 237.421882 251.187141 
L 237.421882 252.24375 
L 250.721259 252.24375 
L 250.721259 252.24375 
L 264.020637 252.24375 
L 264.020637 252.24375 
L 277.320015 252.24375 
L 277.320015 252.24375 
L 290.619393 252.24375 
L 290.619393 252.24375 
L 303.91877 252.24375 
L 303.91877 252.24375 
L 317.218148 252.24375 
L 317.218148 252.24375 
L 330.517526 252.24375 
L 330.517526 252.24375 
L 343.816903 252.24375 
L 343.816903 252.24375 
L 330.517526 252.24375 
L 330.517526 252.24375 
L 317.218148 252.24375 
L 317.218148 252.24375 
L 303.91877 252.24375 
L 303.91877 252.24375 
L 290.619393 252.24375 
L 290.619393 252.24375 
L 277.320015 252.24375 
L 277.320015 252.24375 
L 264.020637 252.24375 
L 264.020637 252.24375 
L 250.721259 252.24375 
L 250.721259 252.24375 
L 237.421882 252.24375 
L 237.421882 251.187141 
L 224.122504 251.187141 
L 224.122504 245.904097 
L 210.823126 245.904097 
L 210.823126 199.413305 
L 197.523749 199.413305 
L 197.523749 184.620781 
L 184.224371 184.620781 
L 184.224371 58.884322 
L 170.924993 58.884322 
L 170.924993 93.752416 
L 157.625616 93.752416 
L 157.625616 149.752687 
L 144.326238 149.752687 
L 144.326238 184.620781 
L 131.02686 184.620781 
L 131.02686 204.69635 
L 117.727482 204.69635 
L 117.727482 226.885137 
L 104.428105 226.885137 
L 104.428105 248.017314 
L 91.128727 248.017314 
L 91.128727 251.187141 
L 77.829349 251.187141 
L 77.829349 252.24375 
z
" clip-path="url(#p0de64b582b)" style="fill: #ff7f0e"/>
   </g>
   <g id="patch_5">
    <path d="M 64.529972 252.24375 
L 64.529972 252.24375 
L 77.829349 252.24375 
L 77.829349 251.187141 
L 91.128727 251.187141 
L 91.128727 248.017314 
L 104.428105 248.017314 
L 104.428105 226.885137 
L 117.727482 226.885137 
L 117.727482 204.69635 
L 131.02686 204.69635 
L 131.02686 184.620781 
L 144.326238 184.620781 
L 144.326238 149.752687 
L 157.625616 149.752687 
L 157.625616 93.752416 
L 170.924993 93.752416 
L 170.924993 58.884322 
L 184.224371 58.884322 
L 184.224371 184.620781 
L 197.523749 184.620781 
L 197.523749 199.413305 
L 210.823126 199.413305 
L 210.823126 245.904097 
L 224.122504 245.904097 
L 224.122504 251.187141 
L 237.421882 251.187141 
L 237.421882 252.24375 
L 250.721259 252.24375 
L 250.721259 252.24375 
L 264.020637 252.24375 
L 264.020637 252.24375 
L 277.320015 252.24375 
L 277.320015 252.24375 
L 290.619393 252.24375 
L 290.619393 252.24375 
L 303.91877 252.24375 
L 303.91877 252.24375 
L 317.218148 252.24375 
L 317.218148 252.24375 
L 330.517526 252.24375 
L 330.517526 252.24375 
L 343.816903 252.24375 
L 343.816903 252.24375 
L 330.517526 252.24375 
L 330.517526 252.24375 
L 317.218148 252.24375 
L 317.218148 252.24375 
L 303.91877 252.24375 
L 303.91877 252.24375 
L 290.619393 252.24375 
L 290.619393 252.24375 
L 277.320015 252.24375 
L 277.320015 252.24375 
L 264.020637 252.24375 
L 264.020637 252.24375 
L 250.721259 252.24375 
L 250.721259 252.24375 
L 237.421882 252.24375 
L 237.421882 252.24375 
L 224.122504 252.24375 
L 224.122504 252.24375 
L 210.823126 252.24375 
L 210.823126 252.24375 
L 197.523749 252.24375 
L 197.523749 252.24375 
L 184.224371 252.24375 
L 184.224371 252.24375 
L 170.924993 252.24375 
L 170.924993 252.24375 
L 157.625616 252.24375 
L 157.625616 252.24375 
L 144.326238 252.24375 
L 144.326238 252.24375 
L 131.02686 252.24375 
L 131.02686 252.24375 
L 117.727482 252.24375 
L 117.727482 252.24375 
L 104.428105 252.24375 
L 104.428105 252.24375 
L 91.128727 252.24375 
L 91.128727 252.24375 
L 77.829349 252.24375 
L 77.829349 252.24375 
z
" clip-path="url(#p0de64b582b)" style="fill: #1f77b4"/>
   </g>
   <g id="matplotlib.axis_1">
    <g id="xtick_1">
     <g id="line2d_1">
      <defs>
       <path id="m7346511d8a" d="M 0 0 
L 0 3.5 
" style="stroke: #000000; stroke-width: 0.8"/>
      </defs>
      <g>
       <use xlink:href="#m7346511d8a" x="71.17966" y="252.24375" style="stroke: #000000; stroke-width: 0.8"/>
      </g>
     </g>
     <g id="text_1">
      <!-- 0.0 -->
      <g transform="translate(63.228098 266.842187)scale(0.1 -0.1)">
       <defs>
        <path id="DejaVuSans-30" d="M 2034 4250 
Q 1547 4250 1301 3770 
Q 1056 3291 1056 2328 
Q 1056 1369 1301 889 
Q 1547 409 2034 409 
Q 2525 409 2770 889 
Q 3016 1369 3016 2328 
Q 3016 3291 2770 3770 
Q 2525 4250 2034 4250 
z
M 2034 4750 
Q 2819 4750 3233 4129 
Q 3647 3509 3647 2328 
Q 3647 1150 3233 529 
Q 2819 -91 2034 -91 
Q 1250 -91 836 529 
Q 422 1150 422 2328 
Q 422 3509 836 4129 
Q 1250 4750 2034 4750 
z
" transform="scale(0.015625)"/>
        <path id="DejaVuSans-2e" d="M 684 794 
L 1344 794 
L 1344 0 
L 684 0 
L 684 794 
z
" transform="scale(0.015625)"/>
       </defs>
       <use xlink:href="#DejaVuSans-30"/>
       <use xlink:href="#DejaVuSans-2e" x="63.623047"/>
       <use xlink:href="#DejaVuSans-30" x="95.410156"/>
      </g>
     </g>
    </g>
    <g id="xtick_2">
     <g id="line2d_2">
      <g>
       <use xlink:href="#m7346511d8a" x="124.377171" y="252.24375" style="stroke: #000000; stroke-width: 0.8"/>
      </g>
     </g>
     <g id="text_2">
      <!-- 0.2 -->
      <g transform="translate(116.425609 266.842187)scale(0.1 -0.1)">
       <defs>
        <path id="DejaVuSans-32" d="M 1228 531 
L 3431 531 
L 3431 0 
L 469 0 
L 469 531 
Q 828 903 1448 1529 
Q 2069 2156 2228 2338 
Q 2531 2678 2651 2914 
Q 2772 3150 2772 3378 
Q 2772 3750 2511 3984 
Q 2250 4219 1831 4219 
Q 1534 4219 1204 4116 
Q 875 4013 500 3803 
L 500 4441 
Q 881 4594 1212 4672 
Q 1544 4750 1819 4750 
Q 2544 4750 2975 4387 
Q 3406 4025 3406 3419 
Q 3406 3131 3298 2873 
Q 3191 2616 2906 2266 
Q 2828 2175 2409 1742 
Q 1991 1309 1228 531 
z
" transform="scale(0.015625)"/>
       </defs>
       <use xlink:href="#DejaVuSans-30"/>
       <use xlink:href="#DejaVuSans-2e" x="63.623047"/>
       <use xlink:href="#DejaVuSans-32" x="95.410156"/>
      </g>
     </g>
    </g>
    <g id="xtick_3">
     <g id="line2d_3">
      <g>
       <use xlink:href="#m7346511d8a" x="177.574682" y="252.24375" style="stroke: #000000; stroke-width: 0.8"/>
      </g>
     </g>
     <g id="text_3">
      <!-- 0.4 -->
      <g transform="translate(169.62312 266.842187)scale(0.1 -0.1)">
       <defs>
        <path id="DejaVuSans-34" d="M 2419 4116 
L 825 1625 
L 2419 1625 
L 2419 4116 
z
M 2253 4666 
L 3047 4666 
L 3047 1625 
L 3713 1625 
L 3713 1100 
L 3047 1100 
L 3047 0 
L 2419 0 
L 2419 1100 
L 313 1100 
L 313 1709 
L 2253 4666 
z
" transform="scale(0.015625)"/>
       </defs>
       <use xlink:href="#DejaVuSans-30"/>
       <use xlink:href="#DejaVuSans-2e" x="63.623047"/>
       <use xlink:href="#DejaVuSans-34" x="95.410156"/>
      </g>
     </g>
    </g>
    <g id="xtick_4">
     <g id="line2d_4">
      <g>
       <use xlink:href="#m7346511d8a" x="230.772193" y="252.24375" style="stroke: #000000; stroke-width: 0.8"/>
      </g>
     </g>
     <g id="text_4">
      <!-- 0.6 -->
      <g transform="translate(222.82063 266.842187)scale(0.1 -0.1)">
       <defs>
        <path id="DejaVuSans-36" d="M 2113 2584 
Q 1688 2584 1439 2293 
Q 1191 2003 1191 1497 
Q 1191 994 1439 701 
Q 1688 409 2113 409 
Q 2538 409 2786 701 
Q 3034 994 3034 1497 
Q 3034 2003 2786 2293 
Q 2538 2584 2113 2584 
z
M 3366 4563 
L 3366 3988 
Q 3128 4100 2886 4159 
Q 2644 4219 2406 4219 
Q 1781 4219 1451 3797 
Q 1122 3375 1075 2522 
Q 1259 2794 1537 2939 
Q 1816 3084 2150 3084 
Q 2853 3084 3261 2657 
Q 3669 2231 3669 1497 
Q 3669 778 3244 343 
Q 2819 -91 2113 -91 
Q 1303 -91 875 529 
Q 447 1150 447 2328 
Q 447 3434 972 4092 
Q 1497 4750 2381 4750 
Q 2619 4750 2861 4703 
Q 3103 4656 3366 4563 
z
" transform="scale(0.015625)"/>
       </defs>
       <use xlink:href="#DejaVuSans-30"/>
       <use xlink:href="#DejaVuSans-2e" x="63.623047"/>
       <use xlink:href="#DejaVuSans-36" x="95.410156"/>
      </g>
     </g>
    </g>
    <g id="xtick_5">
     <g id="line2d_5">
      <g>
       <use xlink:href="#m7346511d8a" x="283.969704" y="252.24375" style="stroke: #000000; stroke-width: 0.8"/>
      </g>
     </g>
     <g id="text_5">
      <!-- 0.8 -->
      <g transform="translate(276.018141 266.842187)scale(0.1 -0.1)">
       <defs>
        <path id="DejaVuSans-38" d="M 2034 2216 
Q 1584 2216 1326 1975 
Q 1069 1734 1069 1313 
Q 1069 891 1326 650 
Q 1584 409 2034 409 
Q 2484 409 2743 651 
Q 3003 894 3003 1313 
Q 3003 1734 2745 1975 
Q 2488 2216 2034 2216 
z
M 1403 2484 
Q 997 2584 770 2862 
Q 544 3141 544 3541 
Q 544 4100 942 4425 
Q 1341 4750 2034 4750 
Q 2731 4750 3128 4425 
Q 3525 4100 3525 3541 
Q 3525 3141 3298 2862 
Q 3072 2584 2669 2484 
Q 3125 2378 3379 2068 
Q 3634 1759 3634 1313 
Q 3634 634 3220 271 
Q 2806 -91 2034 -91 
Q 1263 -91 848 271 
Q 434 634 434 1313 
Q 434 1759 690 2068 
Q 947 2378 1403 2484 
z
M 1172 3481 
Q 1172 3119 1398 2916 
Q 1625 2713 2034 2713 
Q 2441 2713 2670 2916 
Q 2900 3119 2900 3481 
Q 2900 3844 2670 4047 
Q 2441 4250 2034 4250 
Q 1625 4250 1398 4047 
Q 1172 3844 1172 3481 
z
" transform="scale(0.015625)"/>
       </defs>
       <use xlink:href="#DejaVuSans-30"/>
       <use xlink:href="#DejaVuSans-2e" x="63.623047"/>
       <use xlink:href="#DejaVuSans-38" x="95.410156"/>
      </g>
     </g>
    </g>
    <g id="xtick_6">
     <g id="line2d_6">
      <g>
       <use xlink:href="#m7346511d8a" x="337.167215" y="252.24375" style="stroke: #000000; stroke-width: 0.8"/>
      </g>
     </g>
     <g id="text_6">
      <!-- 1.0 -->
      <g transform="translate(329.215652 266.842187)scale(0.1 -0.1)">
       <defs>
        <path id="DejaVuSans-31" d="M 794 531 
L 1825 531 
L 1825 4091 
L 703 3866 
L 703 4441 
L 1819 4666 
L 2450 4666 
L 2450 531 
L 3481 531 
L 3481 0 
L 794 0 
L 794 531 
z
" transform="scale(0.015625)"/>
       </defs>
       <use xlink:href="#DejaVuSans-31"/>
       <use xlink:href="#DejaVuSans-2e" x="63.623047"/>
       <use xlink:href="#DejaVuSans-30" x="95.410156"/>
      </g>
     </g>
    </g>
    <g id="text_7">
     <!-- Attack Stun Probability -->
     <g transform="translate(147.132812 280.520312)scale(0.1 -0.1)">
      <defs>
       <path id="DejaVuSans-41" d="M 2188 4044 
L 1331 1722 
L 3047 1722 
L 2188 4044 
z
M 1831 4666 
L 2547 4666 
L 4325 0 
L 3669 0 
L 3244 1197 
L 1141 1197 
L 716 0 
L 50 0 
L 1831 4666 
z
" transform="scale(0.015625)"/>
       <path id="DejaVuSans-74" d="M 1172 4494 
L 1172 3500 
L 2356 3500 
L 2356 3053 
L 1172 3053 
L 1172 1153 
Q 1172 725 1289 603 
Q 1406 481 1766 481 
L 2356 481 
L 2356 0 
L 1766 0 
Q 1100 0 847 248 
Q 594 497 594 1153 
L 594 3053 
L 172 3053 
L 172 3500 
L 594 3500 
L 594 4494 
L 1172 4494 
z
" transform="scale(0.015625)"/>
       <path id="DejaVuSans-61" d="M 2194 1759 
Q 1497 1759 1228 1600 
Q 959 1441 959 1056 
Q 959 750 1161 570 
Q 1363 391 1709 391 
Q 2188 391 2477 730 
Q 2766 1069 2766 1631 
L 2766 1759 
L 2194 1759 
z
M 3341 1997 
L 3341 0 
L 2766 0 
L 2766 531 
Q 2569 213 2275 61 
Q 1981 -91 1556 -91 
Q 1019 -91 701 211 
Q 384 513 384 1019 
Q 384 1609 779 1909 
Q 1175 2209 1959 2209 
L 2766 2209 
L 2766 2266 
Q 2766 2663 2505 2880 
Q 2244 3097 1772 3097 
Q 1472 3097 1187 3025 
Q 903 2953 641 2809 
L 641 3341 
Q 956 3463 1253 3523 
Q 1550 3584 1831 3584 
Q 2591 3584 2966 3190 
Q 3341 2797 3341 1997 
z
" transform="scale(0.015625)"/>
       <path id="DejaVuSans-63" d="M 3122 3366 
L 3122 2828 
Q 2878 2963 2633 3030 
Q 2388 3097 2138 3097 
Q 1578 3097 1268 2742 
Q 959 2388 959 1747 
Q 959 1106 1268 751 
Q 1578 397 2138 397 
Q 2388 397 2633 464 
Q 2878 531 3122 666 
L 3122 134 
Q 2881 22 2623 -34 
Q 2366 -91 2075 -91 
Q 1284 -91 818 406 
Q 353 903 353 1747 
Q 353 2603 823 3093 
Q 1294 3584 2113 3584 
Q 2378 3584 2631 3529 
Q 2884 3475 3122 3366 
z
" transform="scale(0.015625)"/>
       <path id="DejaVuSans-6b" d="M 581 4863 
L 1159 4863 
L 1159 1991 
L 2875 3500 
L 3609 3500 
L 1753 1863 
L 3688 0 
L 2938 0 
L 1159 1709 
L 1159 0 
L 581 0 
L 581 4863 
z
" transform="scale(0.015625)"/>
       <path id="DejaVuSans-20" transform="scale(0.015625)"/>
       <path id="DejaVuSans-53" d="M 3425 4513 
L 3425 3897 
Q 3066 4069 2747 4153 
Q 2428 4238 2131 4238 
Q 1616 4238 1336 4038 
Q 1056 3838 1056 3469 
Q 1056 3159 1242 3001 
Q 1428 2844 1947 2747 
L 2328 2669 
Q 3034 2534 3370 2195 
Q 3706 1856 3706 1288 
Q 3706 609 3251 259 
Q 2797 -91 1919 -91 
Q 1588 -91 1214 -16 
Q 841 59 441 206 
L 441 856 
Q 825 641 1194 531 
Q 1563 422 1919 422 
Q 2459 422 2753 634 
Q 3047 847 3047 1241 
Q 3047 1584 2836 1778 
Q 2625 1972 2144 2069 
L 1759 2144 
Q 1053 2284 737 2584 
Q 422 2884 422 3419 
Q 422 4038 858 4394 
Q 1294 4750 2059 4750 
Q 2388 4750 2728 4690 
Q 3069 4631 3425 4513 
z
" transform="scale(0.015625)"/>
       <path id="DejaVuSans-75" d="M 544 1381 
L 544 3500 
L 1119 3500 
L 1119 1403 
Q 1119 906 1312 657 
Q 1506 409 1894 409 
Q 2359 409 2629 706 
Q 2900 1003 2900 1516 
L 2900 3500 
L 3475 3500 
L 3475 0 
L 2900 0 
L 2900 538 
Q 2691 219 2414 64 
Q 2138 -91 1772 -91 
Q 1169 -91 856 284 
Q 544 659 544 1381 
z
M 1991 3584 
L 1991 3584 
z
" transform="scale(0.015625)"/>
       <path id="DejaVuSans-6e" d="M 3513 2113 
L 3513 0 
L 2938 0 
L 2938 2094 
Q 2938 2591 2744 2837 
Q 2550 3084 2163 3084 
Q 1697 3084 1428 2787 
Q 1159 2491 1159 1978 
L 1159 0 
L 581 0 
L 581 3500 
L 1159 3500 
L 1159 2956 
Q 1366 3272 1645 3428 
Q 1925 3584 2291 3584 
Q 2894 3584 3203 3211 
Q 3513 2838 3513 2113 
z
" transform="scale(0.015625)"/>
       <path id="DejaVuSans-50" d="M 1259 4147 
L 1259 2394 
L 2053 2394 
Q 2494 2394 2734 2622 
Q 2975 2850 2975 3272 
Q 2975 3691 2734 3919 
Q 2494 4147 2053 4147 
L 1259 4147 
z
M 628 4666 
L 2053 4666 
Q 2838 4666 3239 4311 
Q 3641 3956 3641 3272 
Q 3641 2581 3239 2228 
Q 2838 1875 2053 1875 
L 1259 1875 
L 1259 0 
L 628 0 
L 628 4666 
z
" transform="scale(0.015625)"/>
       <path id="DejaVuSans-72" d="M 2631 2963 
Q 2534 3019 2420 3045 
Q 2306 3072 2169 3072 
Q 1681 3072 1420 2755 
Q 1159 2438 1159 1844 
L 1159 0 
L 581 0 
L 581 3500 
L 1159 3500 
L 1159 2956 
Q 1341 3275 1631 3429 
Q 1922 3584 2338 3584 
Q 2397 3584 2469 3576 
Q 2541 3569 2628 3553 
L 2631 2963 
z
" transform="scale(0.015625)"/>
       <path id="DejaVuSans-6f" d="M 1959 3097 
Q 1497 3097 1228 2736 
Q 959 2375 959 1747 
Q 959 1119 1226 758 
Q 1494 397 1959 397 
Q 2419 397 2687 759 
Q 2956 1122 2956 1747 
Q 2956 2369 2687 2733 
Q 2419 3097 1959 3097 
z
M 1959 3584 
Q 2709 3584 3137 3096 
Q 3566 2609 3566 1747 
Q 3566 888 3137 398 
Q 2709 -91 1959 -91 
Q 1206 -91 779 398 
Q 353 888 353 1747 
Q 353 2609 779 3096 
Q 1206 3584 1959 3584 
z
" transform="scale(0.015625)"/>
       <path id="DejaVuSans-62" d="M 3116 1747 
Q 3116 2381 2855 2742 
Q 2594 3103 2138 3103 
Q 1681 3103 1420 2742 
Q 1159 2381 1159 1747 
Q 1159 1113 1420 752 
Q 1681 391 2138 391 
Q 2594 391 2855 752 
Q 3116 1113 3116 1747 
z
M 1159 2969 
Q 1341 3281 1617 3432 
Q 1894 3584 2278 3584 
Q 2916 3584 3314 3078 
Q 3713 2572 3713 1747 
Q 3713 922 3314 415 
Q 2916 -91 2278 -91 
Q 1894 -91 1617 61 
Q 1341 213 1159 525 
L 1159 0 
L 581 0 
L 581 4863 
L 1159 4863 
L 1159 2969 
z
" transform="scale(0.015625)"/>
       <path id="DejaVuSans-69" d="M 603 3500 
L 1178 3500 
L 1178 0 
L 603 0 
L 603 3500 
z
M 603 4863 
L 1178 4863 
L 1178 4134 
L 603 4134 
L 603 4863 
z
" transform="scale(0.015625)"/>
       <path id="DejaVuSans-6c" d="M 603 4863 
L 1178 4863 
L 1178 0 
L 603 0 
L 603 4863 
z
" transform="scale(0.015625)"/>
       <path id="DejaVuSans-79" d="M 2059 -325 
Q 1816 -950 1584 -1140 
Q 1353 -1331 966 -1331 
L 506 -1331 
L 506 -850 
L 844 -850 
Q 1081 -850 1212 -737 
Q 1344 -625 1503 -206 
L 1606 56 
L 191 3500 
L 800 3500 
L 1894 763 
L 2988 3500 
L 3597 3500 
L 2059 -325 
z
" transform="scale(0.015625)"/>
      </defs>
      <use xlink:href="#DejaVuSans-41"/>
      <use xlink:href="#DejaVuSans-74" x="66.658203"/>
      <use xlink:href="#DejaVuSans-74" x="105.867188"/>
      <use xlink:href="#DejaVuSans-61" x="145.076172"/>
      <use xlink:href="#DejaVuSans-63" x="206.355469"/>
      <use xlink:href="#DejaVuSans-6b" x="261.335938"/>
      <use xlink:href="#DejaVuSans-20" x="319.246094"/>
      <use xlink:href="#DejaVuSans-53" x="351.033203"/>
      <use xlink:href="#DejaVuSans-74" x="414.509766"/>
      <use xlink:href="#DejaVuSans-75" x="453.71875"/>
      <use xlink:href="#DejaVuSans-6e" x="517.097656"/>
      <use xlink:href="#DejaVuSans-20" x="580.476562"/>
      <use xlink:href="#DejaVuSans-50" x="612.263672"/>
      <use xlink:href="#DejaVuSans-72" x="670.816406"/>
      <use xlink:href="#DejaVuSans-6f" x="709.679688"/>
      <use xlink:href="#DejaVuSans-62" x="770.861328"/>
      <use xlink:href="#DejaVuSans-61" x="834.337891"/>
      <use xlink:href="#DejaVuSans-62" x="895.617188"/>
      <use xlink:href="#DejaVuSans-69" x="959.09375"/>
      <use xlink:href="#DejaVuSans-6c" x="986.876953"/>
      <use xlink:href="#DejaVuSans-69" x="1014.660156"/>
      <use xlink:href="#DejaVuSans-74" x="1042.443359"/>
      <use xlink:href="#DejaVuSans-79" x="1081.652344"/>
     </g>
    </g>
   </g>
   <g id="matplotlib.axis_2">
    <g id="ytick_1">
     <g id="line2d_7">
      <defs>
       <path id="m9621059793" d="M 0 0 
L -3.5 0 
" style="stroke: #000000; stroke-width: 0.8"/>
      </defs>
      <g>
       <use xlink:href="#m9621059793" x="50.565625" y="252.24375" style="stroke: #000000; stroke-width: 0.8"/>
      </g>
     </g>
     <g id="text_8">
      <!-- 0 -->
      <g transform="translate(37.203125 256.042969)scale(0.1 -0.1)">
       <use xlink:href="#DejaVuSans-30"/>
      </g>
     </g>
    </g>
    <g id="ytick_2">
     <g id="line2d_8">
      <g>
       <use xlink:href="#m9621059793" x="50.565625" y="231.111572" style="stroke: #000000; stroke-width: 0.8"/>
      </g>
     </g>
     <g id="text_9">
      <!-- 20 -->
      <g transform="translate(30.840625 234.910791)scale(0.1 -0.1)">
       <use xlink:href="#DejaVuSans-32"/>
       <use xlink:href="#DejaVuSans-30" x="63.623047"/>
      </g>
     </g>
    </g>
    <g id="ytick_3">
     <g id="line2d_9">
      <g>
       <use xlink:href="#m9621059793" x="50.565625" y="209.979394" style="stroke: #000000; stroke-width: 0.8"/>
      </g>
     </g>
     <g id="text_10">
      <!-- 40 -->
      <g transform="translate(30.840625 213.778613)scale(0.1 -0.1)">
       <use xlink:href="#DejaVuSans-34"/>
       <use xlink:href="#DejaVuSans-30" x="63.623047"/>
      </g>
     </g>
    </g>
    <g id="ytick_4">
     <g id="line2d_10">
      <g>
       <use xlink:href="#m9621059793" x="50.565625" y="188.847216" style="stroke: #000000; stroke-width: 0.8"/>
      </g>
     </g>
     <g id="text_11">
      <!-- 60 -->
      <g transform="translate(30.840625 192.646435)scale(0.1 -0.1)">
       <use xlink:href="#DejaVuSans-36"/>
       <use xlink:href="#DejaVuSans-30" x="63.623047"/>
      </g>
     </g>
    </g>
    <g id="ytick_5">
     <g id="line2d_11">
      <g>
       <use xlink:href="#m9621059793" x="50.565625" y="167.715039" style="stroke: #000000; stroke-width: 0.8"/>
      </g>
     </g>
     <g id="text_12">
      <!-- 80 -->
      <g transform="translate(30.840625 171.514257)scale(0.1 -0.1)">
       <use xlink:href="#DejaVuSans-38"/>
       <use xlink:href="#DejaVuSans-30" x="63.623047"/>
      </g>
     </g>
    </g>
    <g id="ytick_6">
     <g id="line2d_12">
      <g>
       <use xlink:href="#m9621059793" x="50.565625" y="146.582861" style="stroke: #000000; stroke-width: 0.8"/>
      </g>
     </g>
     <g id="text_13">
      <!-- 100 -->
      <g transform="translate(24.478125 150.382079)scale(0.1 -0.1)">
       <use xlink:href="#DejaVuSans-31"/>
       <use xlink:href="#DejaVuSans-30" x="63.623047"/>
       <use xlink:href="#DejaVuSans-30" x="127.246094"/>
      </g>
     </g>
    </g>
    <g id="ytick_7">
     <g id="line2d_13">
      <g>
       <use xlink:href="#m9621059793" x="50.565625" y="125.450683" style="stroke: #000000; stroke-width: 0.8"/>
      </g>
     </g>
     <g id="text_14">
      <!-- 120 -->
      <g transform="translate(24.478125 129.249902)scale(0.1 -0.1)">
       <use xlink:href="#DejaVuSans-31"/>
       <use xlink:href="#DejaVuSans-32" x="63.623047"/>
       <use xlink:href="#DejaVuSans-30" x="127.246094"/>
      </g>
     </g>
    </g>
    <g id="ytick_8">
     <g id="line2d_14">
      <g>
       <use xlink:href="#m9621059793" x="50.565625" y="104.318505" style="stroke: #000000; stroke-width: 0.8"/>
      </g>
     </g>
     <g id="text_15">
      <!-- 140 -->
      <g transform="translate(24.478125 108.117724)scale(0.1 -0.1)">
       <use xlink:href="#DejaVuSans-31"/>
       <use xlink:href="#DejaVuSans-34" x="63.623047"/>
       <use xlink:href="#DejaVuSans-30" x="127.246094"/>
      </g>
     </g>
    </g>
    <g id="ytick_9">
     <g id="line2d_15">
      <g>
       <use xlink:href="#m9621059793" x="50.565625" y="83.186327" style="stroke: #000000; stroke-width: 0.8"/>
      </g>
     </g>
     <g id="text_16">
      <!-- 160 -->
      <g transform="translate(24.478125 86.985546)scale(0.1 -0.1)">
       <use xlink:href="#DejaVuSans-31"/>
       <use xlink:href="#DejaVuSans-36" x="63.623047"/>
       <use xlink:href="#DejaVuSans-30" x="127.246094"/>
      </g>
     </g>
    </g>
    <g id="ytick_10">
     <g id="line2d_16">
      <g>
       <use xlink:href="#m9621059793" x="50.565625" y="62.054149" style="stroke: #000000; stroke-width: 0.8"/>
      </g>
     </g>
     <g id="text_17">
      <!-- 180 -->
      <g transform="translate(24.478125 65.853368)scale(0.1 -0.1)">
       <use xlink:href="#DejaVuSans-31"/>
       <use xlink:href="#DejaVuSans-38" x="63.623047"/>
       <use xlink:href="#DejaVuSans-30" x="127.246094"/>
      </g>
     </g>
    </g>
    <g id="ytick_11">
     <g id="line2d_17">
      <g>
       <use xlink:href="#m9621059793" x="50.565625" y="40.921971" style="stroke: #000000; stroke-width: 0.8"/>
      </g>
     </g>
     <g id="text_18">
      <!-- 200 -->
      <g transform="translate(24.478125 44.72119)scale(0.1 -0.1)">
       <use xlink:href="#DejaVuSans-32"/>
       <use xlink:href="#DejaVuSans-30" x="63.623047"/>
       <use xlink:href="#DejaVuSans-30" x="127.246094"/>
      </g>
     </g>
    </g>
    <g id="text_19">
     <!-- Count -->
     <g transform="translate(18.398437 153.929375)rotate(-90)scale(0.1 -0.1)">
      <defs>
       <path id="DejaVuSans-43" d="M 4122 4306 
L 4122 3641 
Q 3803 3938 3442 4084 
Q 3081 4231 2675 4231 
Q 1875 4231 1450 3742 
Q 1025 3253 1025 2328 
Q 1025 1406 1450 917 
Q 1875 428 2675 428 
Q 3081 428 3442 575 
Q 3803 722 4122 1019 
L 4122 359 
Q 3791 134 3420 21 
Q 3050 -91 2638 -91 
Q 1578 -91 968 557 
Q 359 1206 359 2328 
Q 359 3453 968 4101 
Q 1578 4750 2638 4750 
Q 3056 4750 3426 4639 
Q 3797 4528 4122 4306 
z
" transform="scale(0.015625)"/>
      </defs>
      <use xlink:href="#DejaVuSans-43"/>
      <use xlink:href="#DejaVuSans-6f" x="69.824219"/>
      <use xlink:href="#DejaVuSans-75" x="131.005859"/>
      <use xlink:href="#DejaVuSans-6e" x="194.384766"/>
      <use xlink:href="#DejaVuSans-74" x="257.763672"/>
     </g>
    </g>
   </g>
   <g id="patch_6">
    <path d="M 50.565625 252.24375 
L 50.565625 25.918125 
" style="fill: none; stroke: #000000; stroke-width: 0.8; stroke-linejoin: miter; stroke-linecap: square"/>
   </g>
   <g id="patch_7">
    <path d="M 357.78125 252.24375 
L 357.78125 25.918125 
" style="fill: none; stroke: #000000; stroke-width: 0.8; stroke-linejoin: miter; stroke-linecap: square"/>
   </g>
   <g id="patch_8">
    <path d="M 50.565625 252.24375 
L 357.78125 252.24375 
" style="fill: none; stroke: #000000; stroke-width: 0.8; stroke-linejoin: miter; stroke-linecap: square"/>
   </g>
   <g id="patch_9">
    <path d="M 50.565625 25.918125 
L 357.78125 25.918125 
" style="fill: none; stroke: #000000; stroke-width: 0.8; stroke-linejoin: miter; stroke-linecap: square"/>
   </g>
   <g id="text_20">
    <!-- Level 5, AB 7, DC 14, CR 1-9 -->
    <g transform="translate(118.805625 19.918125)scale(0.12 -0.12)">
     <defs>
      <path id="DejaVuSans-4c" d="M 628 4666 
L 1259 4666 
L 1259 531 
L 3531 531 
L 3531 0 
L 628 0 
L 628 4666 
z
" transform="scale(0.015625)"/>
      <path id="DejaVuSans-65" d="M 3597 1894 
L 3597 1613 
L 953 1613 
Q 991 1019 1311 708 
Q 1631 397 2203 397 
Q 2534 397 2845 478 
Q 3156 559 3463 722 
L 3463 178 
Q 3153 47 2828 -22 
Q 2503 -91 2169 -91 
Q 1331 -91 842 396 
Q 353 884 353 1716 
Q 353 2575 817 3079 
Q 1281 3584 2069 3584 
Q 2775 3584 3186 3129 
Q 3597 2675 3597 1894 
z
M 3022 2063 
Q 3016 2534 2758 2815 
Q 2500 3097 2075 3097 
Q 1594 3097 1305 2825 
Q 1016 2553 972 2059 
L 3022 2063 
z
" transform="scale(0.015625)"/>
      <path id="DejaVuSans-76" d="M 191 3500 
L 800 3500 
L 1894 563 
L 2988 3500 
L 3597 3500 
L 2284 0 
L 1503 0 
L 191 3500 
z
" transform="scale(0.015625)"/>
      <path id="DejaVuSans-35" d="M 691 4666 
L 3169 4666 
L 3169 4134 
L 1269 4134 
L 1269 2991 
Q 1406 3038 1543 3061 
Q 1681 3084 1819 3084 
Q 2600 3084 3056 2656 
Q 3513 2228 3513 1497 
Q 3513 744 3044 326 
Q 2575 -91 1722 -91 
Q 1428 -91 1123 -41 
Q 819 9 494 109 
L 494 744 
Q 775 591 1075 516 
Q 1375 441 1709 441 
Q 2250 441 2565 725 
Q 2881 1009 2881 1497 
Q 2881 1984 2565 2268 
Q 2250 2553 1709 2553 
Q 1456 2553 1204 2497 
Q 953 2441 691 2322 
L 691 4666 
z
" transform="scale(0.015625)"/>
      <path id="DejaVuSans-2c" d="M 750 794 
L 1409 794 
L 1409 256 
L 897 -744 
L 494 -744 
L 750 256 
L 750 794 
z
" transform="scale(0.015625)"/>
      <path id="DejaVuSans-42" d="M 1259 2228 
L 1259 519 
L 2272 519 
Q 2781 519 3026 730 
Q 3272 941 3272 1375 
Q 3272 1813 3026 2020 
Q 2781 2228 2272 2228 
L 1259 2228 
z
M 1259 4147 
L 1259 2741 
L 2194 2741 
Q 2656 2741 2882 2914 
Q 3109 3088 3109 3444 
Q 3109 3797 2882 3972 
Q 2656 4147 2194 4147 
L 1259 4147 
z
M 628 4666 
L 2241 4666 
Q 2963 4666 3353 4366 
Q 3744 4066 3744 3513 
Q 3744 3084 3544 2831 
Q 3344 2578 2956 2516 
Q 3422 2416 3680 2098 
Q 3938 1781 3938 1306 
Q 3938 681 3513 340 
Q 3088 0 2303 0 
L 628 0 
L 628 4666 
z
" transform="scale(0.015625)"/>
      <path id="DejaVuSans-37" d="M 525 4666 
L 3525 4666 
L 3525 4397 
L 1831 0 
L 1172 0 
L 2766 4134 
L 525 4134 
L 525 4666 
z
" transform="scale(0.015625)"/>
      <path id="DejaVuSans-44" d="M 1259 4147 
L 1259 519 
L 2022 519 
Q 2988 519 3436 956 
Q 3884 1394 3884 2338 
Q 3884 3275 3436 3711 
Q 2988 4147 2022 4147 
L 1259 4147 
z
M 628 4666 
L 1925 4666 
Q 3281 4666 3915 4102 
Q 4550 3538 4550 2338 
Q 4550 1131 3912 565 
Q 3275 0 1925 0 
L 628 0 
L 628 4666 
z
" transform="scale(0.015625)"/>
      <path id="DejaVuSans-52" d="M 2841 2188 
Q 3044 2119 3236 1894 
Q 3428 1669 3622 1275 
L 4263 0 
L 3584 0 
L 2988 1197 
Q 2756 1666 2539 1819 
Q 2322 1972 1947 1972 
L 1259 1972 
L 1259 0 
L 628 0 
L 628 4666 
L 2053 4666 
Q 2853 4666 3247 4331 
Q 3641 3997 3641 3322 
Q 3641 2881 3436 2590 
Q 3231 2300 2841 2188 
z
M 1259 4147 
L 1259 2491 
L 2053 2491 
Q 2509 2491 2742 2702 
Q 2975 2913 2975 3322 
Q 2975 3731 2742 3939 
Q 2509 4147 2053 4147 
L 1259 4147 
z
" transform="scale(0.015625)"/>
      <path id="DejaVuSans-2d" d="M 313 2009 
L 1997 2009 
L 1997 1497 
L 313 1497 
L 313 2009 
z
" transform="scale(0.015625)"/>
      <path id="DejaVuSans-39" d="M 703 97 
L 703 672 
Q 941 559 1184 500 
Q 1428 441 1663 441 
Q 2288 441 2617 861 
Q 2947 1281 2994 2138 
Q 2813 1869 2534 1725 
Q 2256 1581 1919 1581 
Q 1219 1581 811 2004 
Q 403 2428 403 3163 
Q 403 3881 828 4315 
Q 1253 4750 1959 4750 
Q 2769 4750 3195 4129 
Q 3622 3509 3622 2328 
Q 3622 1225 3098 567 
Q 2575 -91 1691 -91 
Q 1453 -91 1209 -44 
Q 966 3 703 97 
z
M 1959 2075 
Q 2384 2075 2632 2365 
Q 2881 2656 2881 3163 
Q 2881 3666 2632 3958 
Q 2384 4250 1959 4250 
Q 1534 4250 1286 3958 
Q 1038 3666 1038 3163 
Q 1038 2656 1286 2365 
Q 1534 2075 1959 2075 
z
" transform="scale(0.015625)"/>
     </defs>
     <use xlink:href="#DejaVuSans-4c"/>
     <use xlink:href="#DejaVuSans-65" x="53.962891"/>
     <use xlink:href="#DejaVuSans-76" x="115.486328"/>
     <use xlink:href="#DejaVuSans-65" x="174.666016"/>
     <use xlink:href="#DejaVuSans-6c" x="236.189453"/>
     <use xlink:href="#DejaVuSans-20" x="263.972656"/>
     <use xlink:href="#DejaVuSans-35" x="295.759766"/>
     <use xlink:href="#DejaVuSans-2c" x="359.382812"/>
     <use xlink:href="#DejaVuSans-20" x="391.169922"/>
     <use xlink:href="#DejaVuSans-41" x="422.957031"/>
     <use xlink:href="#DejaVuSans-42" x="491.365234"/>
     <use xlink:href="#DejaVuSans-20" x="559.96875"/>
     <use xlink:href="#DejaVuSans-37" x="591.755859"/>
     <use xlink:href="#DejaVuSans-2c" x="655.378906"/>
     <use xlink:href="#DejaVuSans-20" x="687.166016"/>
     <use xlink:href="#DejaVuSans-44" x="718.953125"/>
     <use xlink:href="#DejaVuSans-43" x="795.955078"/>
     <use xlink:href="#DejaVuSans-20" x="865.779297"/>
     <use xlink:href="#DejaVuSans-31" x="897.566406"/>
     <use xlink:href="#DejaVuSans-34" x="961.189453"/>
     <use xlink:href="#DejaVuSans-2c" x="1024.8125"/>
     <use xlink:href="#DejaVuSans-20" x="1056.599609"/>
     <use xlink:href="#DejaVuSans-43" x="1088.386719"/>
     <use xlink:href="#DejaVuSans-52" x="1158.210938"/>
     <use xlink:href="#DejaVuSans-20" x="1227.693359"/>
     <use xlink:href="#DejaVuSans-31" x="1259.480469"/>
     <use xlink:href="#DejaVuSans-2d" x="1323.103516"/>
     <use xlink:href="#DejaVuSans-39" x="1359.1875"/>
    </g>
   </g>
   <g id="legend_1">
    <g id="patch_10">
     <path d="M 57.565625 77.9525 
L 142.460938 77.9525 
Q 144.460938 77.9525 144.460938 75.9525 
L 144.460938 32.918125 
Q 144.460938 30.918125 142.460938 30.918125 
L 57.565625 30.918125 
Q 55.565625 30.918125 55.565625 32.918125 
L 55.565625 75.9525 
Q 55.565625 77.9525 57.565625 77.9525 
z
" style="fill: #ffffff; opacity: 0.8; stroke: #cccccc; stroke-linejoin: miter"/>
    </g>
    <g id="patch_11">
     <path d="M 59.565625 42.516562 
L 79.565625 42.516562 
L 79.565625 35.516562 
L 59.565625 35.516562 
z
" style="fill: #2ca02c"/>
    </g>
    <g id="text_21">
     <!-- Unique -->
     <g transform="translate(87.565625 42.516562)scale(0.1 -0.1)">
      <defs>
       <path id="DejaVuSans-55" d="M 556 4666 
L 1191 4666 
L 1191 1831 
Q 1191 1081 1462 751 
Q 1734 422 2344 422 
Q 2950 422 3222 751 
Q 3494 1081 3494 1831 
L 3494 4666 
L 4128 4666 
L 4128 1753 
Q 4128 841 3676 375 
Q 3225 -91 2344 -91 
Q 1459 -91 1007 375 
Q 556 841 556 1753 
L 556 4666 
z
" transform="scale(0.015625)"/>
       <path id="DejaVuSans-71" d="M 947 1747 
Q 947 1113 1208 752 
Q 1469 391 1925 391 
Q 2381 391 2643 752 
Q 2906 1113 2906 1747 
Q 2906 2381 2643 2742 
Q 2381 3103 1925 3103 
Q 1469 3103 1208 2742 
Q 947 2381 947 1747 
z
M 2906 525 
Q 2725 213 2448 61 
Q 2172 -91 1784 -91 
Q 1150 -91 751 415 
Q 353 922 353 1747 
Q 353 2572 751 3078 
Q 1150 3584 1784 3584 
Q 2172 3584 2448 3432 
Q 2725 3281 2906 2969 
L 2906 3500 
L 3481 3500 
L 3481 -1331 
L 2906 -1331 
L 2906 525 
z
" transform="scale(0.015625)"/>
      </defs>
      <use xlink:href="#DejaVuSans-55"/>
      <use xlink:href="#DejaVuSans-6e" x="73.193359"/>
      <use xlink:href="#DejaVuSans-69" x="136.572266"/>
      <use xlink:href="#DejaVuSans-71" x="164.355469"/>
      <use xlink:href="#DejaVuSans-75" x="227.832031"/>
      <use xlink:href="#DejaVuSans-65" x="291.210938"/>
     </g>
    </g>
    <g id="patch_12">
     <path d="M 59.565625 57.194687 
L 79.565625 57.194687 
L 79.565625 50.194687 
L 59.565625 50.194687 
z
" style="fill: #ff7f0e"/>
    </g>
    <g id="text_22">
     <!-- Legendary -->
     <g transform="translate(87.565625 57.194687)scale(0.1 -0.1)">
      <defs>
       <path id="DejaVuSans-67" d="M 2906 1791 
Q 2906 2416 2648 2759 
Q 2391 3103 1925 3103 
Q 1463 3103 1205 2759 
Q 947 2416 947 1791 
Q 947 1169 1205 825 
Q 1463 481 1925 481 
Q 2391 481 2648 825 
Q 2906 1169 2906 1791 
z
M 3481 434 
Q 3481 -459 3084 -895 
Q 2688 -1331 1869 -1331 
Q 1566 -1331 1297 -1286 
Q 1028 -1241 775 -1147 
L 775 -588 
Q 1028 -725 1275 -790 
Q 1522 -856 1778 -856 
Q 2344 -856 2625 -561 
Q 2906 -266 2906 331 
L 2906 616 
Q 2728 306 2450 153 
Q 2172 0 1784 0 
Q 1141 0 747 490 
Q 353 981 353 1791 
Q 353 2603 747 3093 
Q 1141 3584 1784 3584 
Q 2172 3584 2450 3431 
Q 2728 3278 2906 2969 
L 2906 3500 
L 3481 3500 
L 3481 434 
z
" transform="scale(0.015625)"/>
       <path id="DejaVuSans-64" d="M 2906 2969 
L 2906 4863 
L 3481 4863 
L 3481 0 
L 2906 0 
L 2906 525 
Q 2725 213 2448 61 
Q 2172 -91 1784 -91 
Q 1150 -91 751 415 
Q 353 922 353 1747 
Q 353 2572 751 3078 
Q 1150 3584 1784 3584 
Q 2172 3584 2448 3432 
Q 2725 3281 2906 2969 
z
M 947 1747 
Q 947 1113 1208 752 
Q 1469 391 1925 391 
Q 2381 391 2643 752 
Q 2906 1113 2906 1747 
Q 2906 2381 2643 2742 
Q 2381 3103 1925 3103 
Q 1469 3103 1208 2742 
Q 947 2381 947 1747 
z
" transform="scale(0.015625)"/>
      </defs>
      <use xlink:href="#DejaVuSans-4c"/>
      <use xlink:href="#DejaVuSans-65" x="53.962891"/>
      <use xlink:href="#DejaVuSans-67" x="115.486328"/>
      <use xlink:href="#DejaVuSans-65" x="178.962891"/>
      <use xlink:href="#DejaVuSans-6e" x="240.486328"/>
      <use xlink:href="#DejaVuSans-64" x="303.865234"/>
      <use xlink:href="#DejaVuSans-61" x="367.341797"/>
      <use xlink:href="#DejaVuSans-72" x="428.621094"/>
      <use xlink:href="#DejaVuSans-79" x="469.734375"/>
     </g>
    </g>
    <g id="patch_13">
     <path d="M 59.565625 71.872812 
L 79.565625 71.872812 
L 79.565625 64.872812 
L 59.565625 64.872812 
z
" style="fill: #1f77b4"/>
    </g>
    <g id="text_23">
     <!-- Generic -->
     <g transform="translate(87.565625 71.872812)scale(0.1 -0.1)">
      <defs>
       <path id="DejaVuSans-47" d="M 3809 666 
L 3809 1919 
L 2778 1919 
L 2778 2438 
L 4434 2438 
L 4434 434 
Q 4069 175 3628 42 
Q 3188 -91 2688 -91 
Q 1594 -91 976 548 
Q 359 1188 359 2328 
Q 359 3472 976 4111 
Q 1594 4750 2688 4750 
Q 3144 4750 3555 4637 
Q 3966 4525 4313 4306 
L 4313 3634 
Q 3963 3931 3569 4081 
Q 3175 4231 2741 4231 
Q 1884 4231 1454 3753 
Q 1025 3275 1025 2328 
Q 1025 1384 1454 906 
Q 1884 428 2741 428 
Q 3075 428 3337 486 
Q 3600 544 3809 666 
z
" transform="scale(0.015625)"/>
      </defs>
      <use xlink:href="#DejaVuSans-47"/>
      <use xlink:href="#DejaVuSans-65" x="77.490234"/>
      <use xlink:href="#DejaVuSans-6e" x="139.013672"/>
      <use xlink:href="#DejaVuSans-65" x="202.392578"/>
      <use xlink:href="#DejaVuSans-72" x="263.916016"/>
      <use xlink:href="#DejaVuSans-69" x="305.029297"/>
      <use xlink:href="#DejaVuSans-63" x="332.8125"/>
     </g>
    </g>
   </g>
  </g>
  <g id="axes_2">
   <g id="patch_14">
    <path d="M 401.984375 252.24375 
L 709.2 252.24375 
L 709.2 25.918125 
L 401.984375 25.918125 
z
" style="fill: #ffffff"/>
   </g>
   <g id="patch_15">
    <path d="M 415.948722 252.24375 
L 415.948722 252.24375 
L 429.248099 252.24375 
L 429.248099 252.24375 
L 442.547477 252.24375 
L 442.547477 228.02485 
L 455.846855 228.02485 
L 455.846855 182.008939 
L 469.146232 182.008939 
L 469.146232 138.414918 
L 482.44561 138.414918 
L 482.44561 121.461687 
L 495.744988 121.461687 
L 495.744988 89.977117 
L 509.044366 89.977117 
L 509.044366 36.695536 
L 522.343743 36.695536 
L 522.343743 51.226876 
L 535.643121 51.226876 
L 535.643121 121.461687 
L 548.942499 121.461687 
L 548.942499 152.946258 
L 562.241876 152.946258 
L 562.241876 201.384059 
L 575.541254 201.384059 
L 575.541254 242.55619 
L 588.840632 242.55619 
L 588.840632 244.97808 
L 602.140009 244.97808 
L 602.140009 249.82186 
L 615.439387 249.82186 
L 615.439387 249.82186 
L 628.738765 249.82186 
L 628.738765 252.24375 
L 642.038143 252.24375 
L 642.038143 252.24375 
L 655.33752 252.24375 
L 655.33752 252.24375 
L 668.636898 252.24375 
L 668.636898 252.24375 
L 681.936276 252.24375 
L 681.936276 252.24375 
L 695.235653 252.24375 
L 695.235653 252.24375 
L 681.936276 252.24375 
L 681.936276 252.24375 
L 668.636898 252.24375 
L 668.636898 252.24375 
L 655.33752 252.24375 
L 655.33752 252.24375 
L 642.038143 252.24375 
L 642.038143 252.24375 
L 628.738765 252.24375 
L 628.738765 249.82186 
L 615.439387 249.82186 
L 615.439387 252.24375 
L 602.140009 252.24375 
L 602.140009 247.39997 
L 588.840632 247.39997 
L 588.840632 244.97808 
L 575.541254 244.97808 
L 575.541254 213.493509 
L 562.241876 213.493509 
L 562.241876 174.743268 
L 548.942499 174.743268 
L 548.942499 150.524368 
L 535.643121 150.524368 
L 535.643121 97.242787 
L 522.343743 97.242787 
L 522.343743 80.289557 
L 509.044366 80.289557 
L 509.044366 106.930347 
L 495.744988 106.930347 
L 495.744988 155.368148 
L 482.44561 155.368148 
L 482.44561 169.899488 
L 469.146232 169.899488 
L 469.146232 191.696499 
L 455.846855 191.696499 
L 455.846855 230.44674 
L 442.547477 230.44674 
L 442.547477 252.24375 
L 429.248099 252.24375 
L 429.248099 252.24375 
z
" clip-path="url(#p364055f931)" style="fill: #2ca02c"/>
   </g>
   <g id="patch_16">
    <path d="M 415.948722 252.24375 
L 415.948722 252.24375 
L 429.248099 252.24375 
L 429.248099 252.24375 
L 442.547477 252.24375 
L 442.547477 230.44674 
L 455.846855 230.44674 
L 455.846855 191.696499 
L 469.146232 191.696499 
L 469.146232 169.899488 
L 482.44561 169.899488 
L 482.44561 155.368148 
L 495.744988 155.368148 
L 495.744988 106.930347 
L 509.044366 106.930347 
L 509.044366 80.289557 
L 522.343743 80.289557 
L 522.343743 97.242787 
L 535.643121 97.242787 
L 535.643121 150.524368 
L 548.942499 150.524368 
L 548.942499 174.743268 
L 562.241876 174.743268 
L 562.241876 213.493509 
L 575.541254 213.493509 
L 575.541254 244.97808 
L 588.840632 244.97808 
L 588.840632 247.39997 
L 602.140009 247.39997 
L 602.140009 252.24375 
L 615.439387 252.24375 
L 615.439387 249.82186 
L 628.738765 249.82186 
L 628.738765 252.24375 
L 642.038143 252.24375 
L 642.038143 252.24375 
L 655.33752 252.24375 
L 655.33752 252.24375 
L 668.636898 252.24375 
L 668.636898 252.24375 
L 681.936276 252.24375 
L 681.936276 252.24375 
L 695.235653 252.24375 
L 695.235653 252.24375 
L 681.936276 252.24375 
L 681.936276 252.24375 
L 668.636898 252.24375 
L 668.636898 252.24375 
L 655.33752 252.24375 
L 655.33752 252.24375 
L 642.038143 252.24375 
L 642.038143 252.24375 
L 628.738765 252.24375 
L 628.738765 249.82186 
L 615.439387 249.82186 
L 615.439387 252.24375 
L 602.140009 252.24375 
L 602.140009 247.39997 
L 588.840632 247.39997 
L 588.840632 244.97808 
L 575.541254 244.97808 
L 575.541254 213.493509 
L 562.241876 213.493509 
L 562.241876 177.165159 
L 548.942499 177.165159 
L 548.942499 155.368148 
L 535.643121 155.368148 
L 535.643121 97.242787 
L 522.343743 97.242787 
L 522.343743 94.820897 
L 509.044366 94.820897 
L 509.044366 116.617907 
L 495.744988 116.617907 
L 495.744988 165.055708 
L 482.44561 165.055708 
L 482.44561 191.696499 
L 469.146232 191.696499 
L 469.146232 211.071619 
L 455.846855 211.071619 
L 455.846855 235.29052 
L 442.547477 235.29052 
L 442.547477 252.24375 
L 429.248099 252.24375 
L 429.248099 252.24375 
z
" clip-path="url(#p364055f931)" style="fill: #ff7f0e"/>
   </g>
   <g id="patch_17">
    <path d="M 415.948722 252.24375 
L 415.948722 252.24375 
L 429.248099 252.24375 
L 429.248099 252.24375 
L 442.547477 252.24375 
L 442.547477 235.29052 
L 455.846855 235.29052 
L 455.846855 211.071619 
L 469.146232 211.071619 
L 469.146232 191.696499 
L 482.44561 191.696499 
L 482.44561 165.055708 
L 495.744988 165.055708 
L 495.744988 116.617907 
L 509.044366 116.617907 
L 509.044366 94.820897 
L 522.343743 94.820897 
L 522.343743 97.242787 
L 535.643121 97.242787 
L 535.643121 155.368148 
L 548.942499 155.368148 
L 548.942499 177.165159 
L 562.241876 177.165159 
L 562.241876 213.493509 
L 575.541254 213.493509 
L 575.541254 244.97808 
L 588.840632 244.97808 
L 588.840632 247.39997 
L 602.140009 247.39997 
L 602.140009 252.24375 
L 615.439387 252.24375 
L 615.439387 249.82186 
L 628.738765 249.82186 
L 628.738765 252.24375 
L 642.038143 252.24375 
L 642.038143 252.24375 
L 655.33752 252.24375 
L 655.33752 252.24375 
L 668.636898 252.24375 
L 668.636898 252.24375 
L 681.936276 252.24375 
L 681.936276 252.24375 
L 695.235653 252.24375 
L 695.235653 252.24375 
L 681.936276 252.24375 
L 681.936276 252.24375 
L 668.636898 252.24375 
L 668.636898 252.24375 
L 655.33752 252.24375 
L 655.33752 252.24375 
L 642.038143 252.24375 
L 642.038143 252.24375 
L 628.738765 252.24375 
L 628.738765 252.24375 
L 615.439387 252.24375 
L 615.439387 252.24375 
L 602.140009 252.24375 
L 602.140009 252.24375 
L 588.840632 252.24375 
L 588.840632 252.24375 
L 575.541254 252.24375 
L 575.541254 252.24375 
L 562.241876 252.24375 
L 562.241876 252.24375 
L 548.942499 252.24375 
L 548.942499 252.24375 
L 535.643121 252.24375 
L 535.643121 252.24375 
L 522.343743 252.24375 
L 522.343743 252.24375 
L 509.044366 252.24375 
L 509.044366 252.24375 
L 495.744988 252.24375 
L 495.744988 252.24375 
L 482.44561 252.24375 
L 482.44561 252.24375 
L 469.146232 252.24375 
L 469.146232 252.24375 
L 455.846855 252.24375 
L 455.846855 252.24375 
L 442.547477 252.24375 
L 442.547477 252.24375 
L 429.248099 252.24375 
L 429.248099 252.24375 
z
" clip-path="url(#p364055f931)" style="fill: #1f77b4"/>
   </g>
   <g id="matplotlib.axis_3">
    <g id="xtick_7">
     <g id="line2d_18">
      <g>
       <use xlink:href="#m7346511d8a" x="422.59841" y="252.24375" style="stroke: #000000; stroke-width: 0.8"/>
      </g>
     </g>
     <g id="text_24">
      <!-- 0.0 -->
      <g transform="translate(414.646848 266.842187)scale(0.1 -0.1)">
       <use xlink:href="#DejaVuSans-30"/>
       <use xlink:href="#DejaVuSans-2e" x="63.623047"/>
       <use xlink:href="#DejaVuSans-30" x="95.410156"/>
      </g>
     </g>
    </g>
    <g id="xtick_8">
     <g id="line2d_19">
      <g>
       <use xlink:href="#m7346511d8a" x="475.795921" y="252.24375" style="stroke: #000000; stroke-width: 0.8"/>
      </g>
     </g>
     <g id="text_25">
      <!-- 0.2 -->
      <g transform="translate(467.844359 266.842187)scale(0.1 -0.1)">
       <use xlink:href="#DejaVuSans-30"/>
       <use xlink:href="#DejaVuSans-2e" x="63.623047"/>
       <use xlink:href="#DejaVuSans-32" x="95.410156"/>
      </g>
     </g>
    </g>
    <g id="xtick_9">
     <g id="line2d_20">
      <g>
       <use xlink:href="#m7346511d8a" x="528.993432" y="252.24375" style="stroke: #000000; stroke-width: 0.8"/>
      </g>
     </g>
     <g id="text_26">
      <!-- 0.4 -->
      <g transform="translate(521.04187 266.842187)scale(0.1 -0.1)">
       <use xlink:href="#DejaVuSans-30"/>
       <use xlink:href="#DejaVuSans-2e" x="63.623047"/>
       <use xlink:href="#DejaVuSans-34" x="95.410156"/>
      </g>
     </g>
    </g>
    <g id="xtick_10">
     <g id="line2d_21">
      <g>
       <use xlink:href="#m7346511d8a" x="582.190943" y="252.24375" style="stroke: #000000; stroke-width: 0.8"/>
      </g>
     </g>
     <g id="text_27">
      <!-- 0.6 -->
      <g transform="translate(574.23938 266.842187)scale(0.1 -0.1)">
       <use xlink:href="#DejaVuSans-30"/>
       <use xlink:href="#DejaVuSans-2e" x="63.623047"/>
       <use xlink:href="#DejaVuSans-36" x="95.410156"/>
      </g>
     </g>
    </g>
    <g id="xtick_11">
     <g id="line2d_22">
      <g>
       <use xlink:href="#m7346511d8a" x="635.388454" y="252.24375" style="stroke: #000000; stroke-width: 0.8"/>
      </g>
     </g>
     <g id="text_28">
      <!-- 0.8 -->
      <g transform="translate(627.436891 266.842187)scale(0.1 -0.1)">
       <use xlink:href="#DejaVuSans-30"/>
       <use xlink:href="#DejaVuSans-2e" x="63.623047"/>
       <use xlink:href="#DejaVuSans-38" x="95.410156"/>
      </g>
     </g>
    </g>
    <g id="xtick_12">
     <g id="line2d_23">
      <g>
       <use xlink:href="#m7346511d8a" x="688.585965" y="252.24375" style="stroke: #000000; stroke-width: 0.8"/>
      </g>
     </g>
     <g id="text_29">
      <!-- 1.0 -->
      <g transform="translate(680.634402 266.842187)scale(0.1 -0.1)">
       <use xlink:href="#DejaVuSans-31"/>
       <use xlink:href="#DejaVuSans-2e" x="63.623047"/>
       <use xlink:href="#DejaVuSans-30" x="95.410156"/>
      </g>
     </g>
    </g>
    <g id="text_30">
     <!-- Attack Stun Probability -->
     <g transform="translate(498.551563 280.520312)scale(0.1 -0.1)">
      <use xlink:href="#DejaVuSans-41"/>
      <use xlink:href="#DejaVuSans-74" x="66.658203"/>
      <use xlink:href="#DejaVuSans-74" x="105.867188"/>
      <use xlink:href="#DejaVuSans-61" x="145.076172"/>
      <use xlink:href="#DejaVuSans-63" x="206.355469"/>
      <use xlink:href="#DejaVuSans-6b" x="261.335938"/>
      <use xlink:href="#DejaVuSans-20" x="319.246094"/>
      <use xlink:href="#DejaVuSans-53" x="351.033203"/>
      <use xlink:href="#DejaVuSans-74" x="414.509766"/>
      <use xlink:href="#DejaVuSans-75" x="453.71875"/>
      <use xlink:href="#DejaVuSans-6e" x="517.097656"/>
      <use xlink:href="#DejaVuSans-20" x="580.476562"/>
      <use xlink:href="#DejaVuSans-50" x="612.263672"/>
      <use xlink:href="#DejaVuSans-72" x="670.816406"/>
      <use xlink:href="#DejaVuSans-6f" x="709.679688"/>
      <use xlink:href="#DejaVuSans-62" x="770.861328"/>
      <use xlink:href="#DejaVuSans-61" x="834.337891"/>
      <use xlink:href="#DejaVuSans-62" x="895.617188"/>
      <use xlink:href="#DejaVuSans-69" x="959.09375"/>
      <use xlink:href="#DejaVuSans-6c" x="986.876953"/>
      <use xlink:href="#DejaVuSans-69" x="1014.660156"/>
      <use xlink:href="#DejaVuSans-74" x="1042.443359"/>
      <use xlink:href="#DejaVuSans-79" x="1081.652344"/>
     </g>
    </g>
   </g>
   <g id="matplotlib.axis_4">
    <g id="ytick_12">
     <g id="line2d_24">
      <g>
       <use xlink:href="#m9621059793" x="401.984375" y="252.24375" style="stroke: #000000; stroke-width: 0.8"/>
      </g>
     </g>
     <g id="text_31">
      <!-- 0 -->
      <g transform="translate(388.621875 256.042969)scale(0.1 -0.1)">
       <use xlink:href="#DejaVuSans-30"/>
      </g>
     </g>
    </g>
    <g id="ytick_13">
     <g id="line2d_25">
      <g>
       <use xlink:href="#m9621059793" x="401.984375" y="228.02485" style="stroke: #000000; stroke-width: 0.8"/>
      </g>
     </g>
     <g id="text_32">
      <!-- 10 -->
      <g transform="translate(382.259375 231.824068)scale(0.1 -0.1)">
       <use xlink:href="#DejaVuSans-31"/>
       <use xlink:href="#DejaVuSans-30" x="63.623047"/>
      </g>
     </g>
    </g>
    <g id="ytick_14">
     <g id="line2d_26">
      <g>
       <use xlink:href="#m9621059793" x="401.984375" y="203.805949" style="stroke: #000000; stroke-width: 0.8"/>
      </g>
     </g>
     <g id="text_33">
      <!-- 20 -->
      <g transform="translate(382.259375 207.605168)scale(0.1 -0.1)">
       <use xlink:href="#DejaVuSans-32"/>
       <use xlink:href="#DejaVuSans-30" x="63.623047"/>
      </g>
     </g>
    </g>
    <g id="ytick_15">
     <g id="line2d_27">
      <g>
       <use xlink:href="#m9621059793" x="401.984375" y="179.587049" style="stroke: #000000; stroke-width: 0.8"/>
      </g>
     </g>
     <g id="text_34">
      <!-- 30 -->
      <g transform="translate(382.259375 183.386267)scale(0.1 -0.1)">
       <defs>
        <path id="DejaVuSans-33" d="M 2597 2516 
Q 3050 2419 3304 2112 
Q 3559 1806 3559 1356 
Q 3559 666 3084 287 
Q 2609 -91 1734 -91 
Q 1441 -91 1130 -33 
Q 819 25 488 141 
L 488 750 
Q 750 597 1062 519 
Q 1375 441 1716 441 
Q 2309 441 2620 675 
Q 2931 909 2931 1356 
Q 2931 1769 2642 2001 
Q 2353 2234 1838 2234 
L 1294 2234 
L 1294 2753 
L 1863 2753 
Q 2328 2753 2575 2939 
Q 2822 3125 2822 3475 
Q 2822 3834 2567 4026 
Q 2313 4219 1838 4219 
Q 1578 4219 1281 4162 
Q 984 4106 628 3988 
L 628 4550 
Q 988 4650 1302 4700 
Q 1616 4750 1894 4750 
Q 2613 4750 3031 4423 
Q 3450 4097 3450 3541 
Q 3450 3153 3228 2886 
Q 3006 2619 2597 2516 
z
" transform="scale(0.015625)"/>
       </defs>
       <use xlink:href="#DejaVuSans-33"/>
       <use xlink:href="#DejaVuSans-30" x="63.623047"/>
      </g>
     </g>
    </g>
    <g id="ytick_16">
     <g id="line2d_28">
      <g>
       <use xlink:href="#m9621059793" x="401.984375" y="155.368148" style="stroke: #000000; stroke-width: 0.8"/>
      </g>
     </g>
     <g id="text_35">
      <!-- 40 -->
      <g transform="translate(382.259375 159.167367)scale(0.1 -0.1)">
       <use xlink:href="#DejaVuSans-34"/>
       <use xlink:href="#DejaVuSans-30" x="63.623047"/>
      </g>
     </g>
    </g>
    <g id="ytick_17">
     <g id="line2d_29">
      <g>
       <use xlink:href="#m9621059793" x="401.984375" y="131.149248" style="stroke: #000000; stroke-width: 0.8"/>
      </g>
     </g>
     <g id="text_36">
      <!-- 50 -->
      <g transform="translate(382.259375 134.948466)scale(0.1 -0.1)">
       <use xlink:href="#DejaVuSans-35"/>
       <use xlink:href="#DejaVuSans-30" x="63.623047"/>
      </g>
     </g>
    </g>
    <g id="ytick_18">
     <g id="line2d_30">
      <g>
       <use xlink:href="#m9621059793" x="401.984375" y="106.930347" style="stroke: #000000; stroke-width: 0.8"/>
      </g>
     </g>
     <g id="text_37">
      <!-- 60 -->
      <g transform="translate(382.259375 110.729566)scale(0.1 -0.1)">
       <use xlink:href="#DejaVuSans-36"/>
       <use xlink:href="#DejaVuSans-30" x="63.623047"/>
      </g>
     </g>
    </g>
    <g id="ytick_19">
     <g id="line2d_31">
      <g>
       <use xlink:href="#m9621059793" x="401.984375" y="82.711447" style="stroke: #000000; stroke-width: 0.8"/>
      </g>
     </g>
     <g id="text_38">
      <!-- 70 -->
      <g transform="translate(382.259375 86.510665)scale(0.1 -0.1)">
       <use xlink:href="#DejaVuSans-37"/>
       <use xlink:href="#DejaVuSans-30" x="63.623047"/>
      </g>
     </g>
    </g>
    <g id="ytick_20">
     <g id="line2d_32">
      <g>
       <use xlink:href="#m9621059793" x="401.984375" y="58.492546" style="stroke: #000000; stroke-width: 0.8"/>
      </g>
     </g>
     <g id="text_39">
      <!-- 80 -->
      <g transform="translate(382.259375 62.291765)scale(0.1 -0.1)">
       <use xlink:href="#DejaVuSans-38"/>
       <use xlink:href="#DejaVuSans-30" x="63.623047"/>
      </g>
     </g>
    </g>
    <g id="ytick_21">
     <g id="line2d_33">
      <g>
       <use xlink:href="#m9621059793" x="401.984375" y="34.273646" style="stroke: #000000; stroke-width: 0.8"/>
      </g>
     </g>
     <g id="text_40">
      <!-- 90 -->
      <g transform="translate(382.259375 38.072864)scale(0.1 -0.1)">
       <use xlink:href="#DejaVuSans-39"/>
       <use xlink:href="#DejaVuSans-30" x="63.623047"/>
      </g>
     </g>
    </g>
    <g id="text_41">
     <!-- Count -->
     <g transform="translate(376.179688 153.929375)rotate(-90)scale(0.1 -0.1)">
      <use xlink:href="#DejaVuSans-43"/>
      <use xlink:href="#DejaVuSans-6f" x="69.824219"/>
      <use xlink:href="#DejaVuSans-75" x="131.005859"/>
      <use xlink:href="#DejaVuSans-6e" x="194.384766"/>
      <use xlink:href="#DejaVuSans-74" x="257.763672"/>
     </g>
    </g>
   </g>
   <g id="patch_18">
    <path d="M 401.984375 252.24375 
L 401.984375 25.918125 
" style="fill: none; stroke: #000000; stroke-width: 0.8; stroke-linejoin: miter; stroke-linecap: square"/>
   </g>
   <g id="patch_19">
    <path d="M 709.2 252.24375 
L 709.2 25.918125 
" style="fill: none; stroke: #000000; stroke-width: 0.8; stroke-linejoin: miter; stroke-linecap: square"/>
   </g>
   <g id="patch_20">
    <path d="M 401.984375 252.24375 
L 709.2 252.24375 
" style="fill: none; stroke: #000000; stroke-width: 0.8; stroke-linejoin: miter; stroke-linecap: square"/>
   </g>
   <g id="patch_21">
    <path d="M 401.984375 25.918125 
L 709.2 25.918125 
" style="fill: none; stroke: #000000; stroke-width: 0.8; stroke-linejoin: miter; stroke-linecap: square"/>
   </g>
   <g id="text_42">
    <!-- Level 10, AB 8, DC 16, CR 5-15 -->
    <g transform="translate(462.589375 19.918125)scale(0.12 -0.12)">
     <use xlink:href="#DejaVuSans-4c"/>
     <use xlink:href="#DejaVuSans-65" x="53.962891"/>
     <use xlink:href="#DejaVuSans-76" x="115.486328"/>
     <use xlink:href="#DejaVuSans-65" x="174.666016"/>
     <use xlink:href="#DejaVuSans-6c" x="236.189453"/>
     <use xlink:href="#DejaVuSans-20" x="263.972656"/>
     <use xlink:href="#DejaVuSans-31" x="295.759766"/>
     <use xlink:href="#DejaVuSans-30" x="359.382812"/>
     <use xlink:href="#DejaVuSans-2c" x="423.005859"/>
     <use xlink:href="#DejaVuSans-20" x="454.792969"/>
     <use xlink:href="#DejaVuSans-41" x="486.580078"/>
     <use xlink:href="#DejaVuSans-42" x="554.988281"/>
     <use xlink:href="#DejaVuSans-20" x="623.591797"/>
     <use xlink:href="#DejaVuSans-38" x="655.378906"/>
     <use xlink:href="#DejaVuSans-2c" x="719.001953"/>
     <use xlink:href="#DejaVuSans-20" x="750.789062"/>
     <use xlink:href="#DejaVuSans-44" x="782.576172"/>
     <use xlink:href="#DejaVuSans-43" x="859.578125"/>
     <use xlink:href="#DejaVuSans-20" x="929.402344"/>
     <use xlink:href="#DejaVuSans-31" x="961.189453"/>
     <use xlink:href="#DejaVuSans-36" x="1024.8125"/>
     <use xlink:href="#DejaVuSans-2c" x="1088.435547"/>
     <use xlink:href="#DejaVuSans-20" x="1120.222656"/>
     <use xlink:href="#DejaVuSans-43" x="1152.009766"/>
     <use xlink:href="#DejaVuSans-52" x="1221.833984"/>
     <use xlink:href="#DejaVuSans-20" x="1291.316406"/>
     <use xlink:href="#DejaVuSans-35" x="1323.103516"/>
     <use xlink:href="#DejaVuSans-2d" x="1386.726562"/>
     <use xlink:href="#DejaVuSans-31" x="1422.810547"/>
     <use xlink:href="#DejaVuSans-35" x="1486.433594"/>
    </g>
   </g>
   <g id="legend_2">
    <g id="patch_22">
     <path d="M 408.984375 77.9525 
L 493.879688 77.9525 
Q 495.879688 77.9525 495.879688 75.9525 
L 495.879688 32.918125 
Q 495.879688 30.918125 493.879688 30.918125 
L 408.984375 30.918125 
Q 406.984375 30.918125 406.984375 32.918125 
L 406.984375 75.9525 
Q 406.984375 77.9525 408.984375 77.9525 
z
" style="fill: #ffffff; opacity: 0.8; stroke: #cccccc; stroke-linejoin: miter"/>
    </g>
    <g id="patch_23">
     <path d="M 410.984375 42.516562 
L 430.984375 42.516562 
L 430.984375 35.516562 
L 410.984375 35.516562 
z
" style="fill: #2ca02c"/>
    </g>
    <g id="text_43">
     <!-- Unique -->
     <g transform="translate(438.984375 42.516562)scale(0.1 -0.1)">
      <use xlink:href="#DejaVuSans-55"/>
      <use xlink:href="#DejaVuSans-6e" x="73.193359"/>
      <use xlink:href="#DejaVuSans-69" x="136.572266"/>
      <use xlink:href="#DejaVuSans-71" x="164.355469"/>
      <use xlink:href="#DejaVuSans-75" x="227.832031"/>
      <use xlink:href="#DejaVuSans-65" x="291.210938"/>
     </g>
    </g>
    <g id="patch_24">
     <path d="M 410.984375 57.194687 
L 430.984375 57.194687 
L 430.984375 50.194687 
L 410.984375 50.194687 
z
" style="fill: #ff7f0e"/>
    </g>
    <g id="text_44">
     <!-- Legendary -->
     <g transform="translate(438.984375 57.194687)scale(0.1 -0.1)">
      <use xlink:href="#DejaVuSans-4c"/>
      <use xlink:href="#DejaVuSans-65" x="53.962891"/>
      <use xlink:href="#DejaVuSans-67" x="115.486328"/>
      <use xlink:href="#DejaVuSans-65" x="178.962891"/>
      <use xlink:href="#DejaVuSans-6e" x="240.486328"/>
      <use xlink:href="#DejaVuSans-64" x="303.865234"/>
      <use xlink:href="#DejaVuSans-61" x="367.341797"/>
      <use xlink:href="#DejaVuSans-72" x="428.621094"/>
      <use xlink:href="#DejaVuSans-79" x="469.734375"/>
     </g>
    </g>
    <g id="patch_25">
     <path d="M 410.984375 71.872812 
L 430.984375 71.872812 
L 430.984375 64.872812 
L 410.984375 64.872812 
z
" style="fill: #1f77b4"/>
    </g>
    <g id="text_45">
     <!-- Generic -->
     <g transform="translate(438.984375 71.872812)scale(0.1 -0.1)">
      <use xlink:href="#DejaVuSans-47"/>
      <use xlink:href="#DejaVuSans-65" x="77.490234"/>
      <use xlink:href="#DejaVuSans-6e" x="139.013672"/>
      <use xlink:href="#DejaVuSans-65" x="202.392578"/>
      <use xlink:href="#DejaVuSans-72" x="263.916016"/>
      <use xlink:href="#DejaVuSans-69" x="305.029297"/>
      <use xlink:href="#DejaVuSans-63" x="332.8125"/>
     </g>
    </g>
   </g>
  </g>
  <g id="axes_3">
   <g id="patch_26">
    <path d="M 50.565625 534.84375 
L 357.78125 534.84375 
L 357.78125 308.518125 
L 50.565625 308.518125 
z
" style="fill: #ffffff"/>
   </g>
   <g id="patch_27">
    <path d="M 64.529972 534.84375 
L 64.529972 534.84375 
L 77.829349 534.84375 
L 77.829349 500.356036 
L 91.128727 500.356036 
L 91.128727 483.112179 
L 104.428105 483.112179 
L 104.428105 452.935429 
L 117.727482 452.935429 
L 117.727482 396.892893 
L 131.02686 396.892893 
L 131.02686 349.472286 
L 144.326238 349.472286 
L 144.326238 379.649036 
L 157.625616 379.649036 
L 157.625616 422.758679 
L 170.924993 422.758679 
L 170.924993 319.295536 
L 184.224371 319.295536 
L 184.224371 457.246393 
L 197.523749 457.246393 
L 197.523749 470.179286 
L 210.823126 470.179286 
L 210.823126 487.423143 
L 224.122504 487.423143 
L 224.122504 513.288929 
L 237.421882 513.288929 
L 237.421882 530.532786 
L 250.721259 530.532786 
L 250.721259 530.532786 
L 264.020637 530.532786 
L 264.020637 534.84375 
L 277.320015 534.84375 
L 277.320015 530.532786 
L 290.619393 530.532786 
L 290.619393 534.84375 
L 303.91877 534.84375 
L 303.91877 534.84375 
L 317.218148 534.84375 
L 317.218148 534.84375 
L 330.517526 534.84375 
L 330.517526 534.84375 
L 343.816903 534.84375 
L 343.816903 534.84375 
L 330.517526 534.84375 
L 330.517526 534.84375 
L 317.218148 534.84375 
L 317.218148 534.84375 
L 303.91877 534.84375 
L 303.91877 534.84375 
L 290.619393 534.84375 
L 290.619393 530.532786 
L 277.320015 530.532786 
L 277.320015 534.84375 
L 264.020637 534.84375 
L 264.020637 534.84375 
L 250.721259 534.84375 
L 250.721259 530.532786 
L 237.421882 530.532786 
L 237.421882 517.599893 
L 224.122504 517.599893 
L 224.122504 504.667 
L 210.823126 504.667 
L 210.823126 496.045071 
L 197.523749 496.045071 
L 197.523749 478.801214 
L 184.224371 478.801214 
L 184.224371 349.472286 
L 170.924993 349.472286 
L 170.924993 448.624464 
L 157.625616 448.624464 
L 157.625616 414.13675 
L 144.326238 414.13675 
L 144.326238 396.892893 
L 131.02686 396.892893 
L 131.02686 440.002536 
L 117.727482 440.002536 
L 117.727482 474.49025 
L 104.428105 474.49025 
L 104.428105 496.045071 
L 91.128727 496.045071 
L 91.128727 508.977964 
L 77.829349 508.977964 
L 77.829349 534.84375 
z
" clip-path="url(#pb8a1e5a0f9)" style="fill: #2ca02c"/>
   </g>
   <g id="patch_28">
    <path d="M 64.529972 534.84375 
L 64.529972 534.84375 
L 77.829349 534.84375 
L 77.829349 508.977964 
L 91.128727 508.977964 
L 91.128727 496.045071 
L 104.428105 496.045071 
L 104.428105 474.49025 
L 117.727482 474.49025 
L 117.727482 440.002536 
L 131.02686 440.002536 
L 131.02686 396.892893 
L 144.326238 396.892893 
L 144.326238 414.13675 
L 157.625616 414.13675 
L 157.625616 448.624464 
L 170.924993 448.624464 
L 170.924993 349.472286 
L 184.224371 349.472286 
L 184.224371 478.801214 
L 197.523749 478.801214 
L 197.523749 496.045071 
L 210.823126 496.045071 
L 210.823126 504.667 
L 224.122504 504.667 
L 224.122504 517.599893 
L 237.421882 517.599893 
L 237.421882 530.532786 
L 250.721259 530.532786 
L 250.721259 534.84375 
L 264.020637 534.84375 
L 264.020637 534.84375 
L 277.320015 534.84375 
L 277.320015 530.532786 
L 290.619393 530.532786 
L 290.619393 534.84375 
L 303.91877 534.84375 
L 303.91877 534.84375 
L 317.218148 534.84375 
L 317.218148 534.84375 
L 330.517526 534.84375 
L 330.517526 534.84375 
L 343.816903 534.84375 
L 343.816903 534.84375 
L 330.517526 534.84375 
L 330.517526 534.84375 
L 317.218148 534.84375 
L 317.218148 534.84375 
L 303.91877 534.84375 
L 303.91877 534.84375 
L 290.619393 534.84375 
L 290.619393 530.532786 
L 277.320015 530.532786 
L 277.320015 534.84375 
L 264.020637 534.84375 
L 264.020637 534.84375 
L 250.721259 534.84375 
L 250.721259 530.532786 
L 237.421882 530.532786 
L 237.421882 517.599893 
L 224.122504 517.599893 
L 224.122504 513.288929 
L 210.823126 513.288929 
L 210.823126 500.356036 
L 197.523749 500.356036 
L 197.523749 496.045071 
L 184.224371 496.045071 
L 184.224371 375.338071 
L 170.924993 375.338071 
L 170.924993 470.179286 
L 157.625616 470.179286 
L 157.625616 452.935429 
L 144.326238 452.935429 
L 144.326238 461.557357 
L 131.02686 461.557357 
L 131.02686 474.49025 
L 117.727482 474.49025 
L 117.727482 487.423143 
L 104.428105 487.423143 
L 104.428105 517.599893 
L 91.128727 517.599893 
L 91.128727 530.532786 
L 77.829349 530.532786 
L 77.829349 534.84375 
z
" clip-path="url(#pb8a1e5a0f9)" style="fill: #ff7f0e"/>
   </g>
   <g id="patch_29">
    <path d="M 64.529972 534.84375 
L 64.529972 534.84375 
L 77.829349 534.84375 
L 77.829349 530.532786 
L 91.128727 530.532786 
L 91.128727 517.599893 
L 104.428105 517.599893 
L 104.428105 487.423143 
L 117.727482 487.423143 
L 117.727482 474.49025 
L 131.02686 474.49025 
L 131.02686 461.557357 
L 144.326238 461.557357 
L 144.326238 452.935429 
L 157.625616 452.935429 
L 157.625616 470.179286 
L 170.924993 470.179286 
L 170.924993 375.338071 
L 184.224371 375.338071 
L 184.224371 496.045071 
L 197.523749 496.045071 
L 197.523749 500.356036 
L 210.823126 500.356036 
L 210.823126 513.288929 
L 224.122504 513.288929 
L 224.122504 517.599893 
L 237.421882 517.599893 
L 237.421882 530.532786 
L 250.721259 530.532786 
L 250.721259 534.84375 
L 264.020637 534.84375 
L 264.020637 534.84375 
L 277.320015 534.84375 
L 277.320015 530.532786 
L 290.619393 530.532786 
L 290.619393 534.84375 
L 303.91877 534.84375 
L 303.91877 534.84375 
L 317.218148 534.84375 
L 317.218148 534.84375 
L 330.517526 534.84375 
L 330.517526 534.84375 
L 343.816903 534.84375 
L 343.816903 534.84375 
L 330.517526 534.84375 
L 330.517526 534.84375 
L 317.218148 534.84375 
L 317.218148 534.84375 
L 303.91877 534.84375 
L 303.91877 534.84375 
L 290.619393 534.84375 
L 290.619393 534.84375 
L 277.320015 534.84375 
L 277.320015 534.84375 
L 264.020637 534.84375 
L 264.020637 534.84375 
L 250.721259 534.84375 
L 250.721259 534.84375 
L 237.421882 534.84375 
L 237.421882 534.84375 
L 224.122504 534.84375 
L 224.122504 534.84375 
L 210.823126 534.84375 
L 210.823126 534.84375 
L 197.523749 534.84375 
L 197.523749 534.84375 
L 184.224371 534.84375 
L 184.224371 534.84375 
L 170.924993 534.84375 
L 170.924993 534.84375 
L 157.625616 534.84375 
L 157.625616 534.84375 
L 144.326238 534.84375 
L 144.326238 534.84375 
L 131.02686 534.84375 
L 131.02686 534.84375 
L 117.727482 534.84375 
L 117.727482 534.84375 
L 104.428105 534.84375 
L 104.428105 534.84375 
L 91.128727 534.84375 
L 91.128727 534.84375 
L 77.829349 534.84375 
L 77.829349 534.84375 
z
" clip-path="url(#pb8a1e5a0f9)" style="fill: #1f77b4"/>
   </g>
   <g id="matplotlib.axis_5">
    <g id="xtick_13">
     <g id="line2d_34">
      <g>
       <use xlink:href="#m7346511d8a" x="71.17966" y="534.84375" style="stroke: #000000; stroke-width: 0.8"/>
      </g>
     </g>
     <g id="text_46">
      <!-- 0.0 -->
      <g transform="translate(63.228098 549.442187)scale(0.1 -0.1)">
       <use xlink:href="#DejaVuSans-30"/>
       <use xlink:href="#DejaVuSans-2e" x="63.623047"/>
       <use xlink:href="#DejaVuSans-30" x="95.410156"/>
      </g>
     </g>
    </g>
    <g id="xtick_14">
     <g id="line2d_35">
      <g>
       <use xlink:href="#m7346511d8a" x="124.377171" y="534.84375" style="stroke: #000000; stroke-width: 0.8"/>
      </g>
     </g>
     <g id="text_47">
      <!-- 0.2 -->
      <g transform="translate(116.425609 549.442187)scale(0.1 -0.1)">
       <use xlink:href="#DejaVuSans-30"/>
       <use xlink:href="#DejaVuSans-2e" x="63.623047"/>
       <use xlink:href="#DejaVuSans-32" x="95.410156"/>
      </g>
     </g>
    </g>
    <g id="xtick_15">
     <g id="line2d_36">
      <g>
       <use xlink:href="#m7346511d8a" x="177.574682" y="534.84375" style="stroke: #000000; stroke-width: 0.8"/>
      </g>
     </g>
     <g id="text_48">
      <!-- 0.4 -->
      <g transform="translate(169.62312 549.442187)scale(0.1 -0.1)">
       <use xlink:href="#DejaVuSans-30"/>
       <use xlink:href="#DejaVuSans-2e" x="63.623047"/>
       <use xlink:href="#DejaVuSans-34" x="95.410156"/>
      </g>
     </g>
    </g>
    <g id="xtick_16">
     <g id="line2d_37">
      <g>
       <use xlink:href="#m7346511d8a" x="230.772193" y="534.84375" style="stroke: #000000; stroke-width: 0.8"/>
      </g>
     </g>
     <g id="text_49">
      <!-- 0.6 -->
      <g transform="translate(222.82063 549.442187)scale(0.1 -0.1)">
       <use xlink:href="#DejaVuSans-30"/>
       <use xlink:href="#DejaVuSans-2e" x="63.623047"/>
       <use xlink:href="#DejaVuSans-36" x="95.410156"/>
      </g>
     </g>
    </g>
    <g id="xtick_17">
     <g id="line2d_38">
      <g>
       <use xlink:href="#m7346511d8a" x="283.969704" y="534.84375" style="stroke: #000000; stroke-width: 0.8"/>
      </g>
     </g>
     <g id="text_50">
      <!-- 0.8 -->
      <g transform="translate(276.018141 549.442187)scale(0.1 -0.1)">
       <use xlink:href="#DejaVuSans-30"/>
       <use xlink:href="#DejaVuSans-2e" x="63.623047"/>
       <use xlink:href="#DejaVuSans-38" x="95.410156"/>
      </g>
     </g>
    </g>
    <g id="xtick_18">
     <g id="line2d_39">
      <g>
       <use xlink:href="#m7346511d8a" x="337.167215" y="534.84375" style="stroke: #000000; stroke-width: 0.8"/>
      </g>
     </g>
     <g id="text_51">
      <!-- 1.0 -->
      <g transform="translate(329.215652 549.442187)scale(0.1 -0.1)">
       <use xlink:href="#DejaVuSans-31"/>
       <use xlink:href="#DejaVuSans-2e" x="63.623047"/>
       <use xlink:href="#DejaVuSans-30" x="95.410156"/>
      </g>
     </g>
    </g>
    <g id="text_52">
     <!-- Attack Stun Probability -->
     <g transform="translate(147.132812 563.120312)scale(0.1 -0.1)">
      <use xlink:href="#DejaVuSans-41"/>
      <use xlink:href="#DejaVuSans-74" x="66.658203"/>
      <use xlink:href="#DejaVuSans-74" x="105.867188"/>
      <use xlink:href="#DejaVuSans-61" x="145.076172"/>
      <use xlink:href="#DejaVuSans-63" x="206.355469"/>
      <use xlink:href="#DejaVuSans-6b" x="261.335938"/>
      <use xlink:href="#DejaVuSans-20" x="319.246094"/>
      <use xlink:href="#DejaVuSans-53" x="351.033203"/>
      <use xlink:href="#DejaVuSans-74" x="414.509766"/>
      <use xlink:href="#DejaVuSans-75" x="453.71875"/>
      <use xlink:href="#DejaVuSans-6e" x="517.097656"/>
      <use xlink:href="#DejaVuSans-20" x="580.476562"/>
      <use xlink:href="#DejaVuSans-50" x="612.263672"/>
      <use xlink:href="#DejaVuSans-72" x="670.816406"/>
      <use xlink:href="#DejaVuSans-6f" x="709.679688"/>
      <use xlink:href="#DejaVuSans-62" x="770.861328"/>
      <use xlink:href="#DejaVuSans-61" x="834.337891"/>
      <use xlink:href="#DejaVuSans-62" x="895.617188"/>
      <use xlink:href="#DejaVuSans-69" x="959.09375"/>
      <use xlink:href="#DejaVuSans-6c" x="986.876953"/>
      <use xlink:href="#DejaVuSans-69" x="1014.660156"/>
      <use xlink:href="#DejaVuSans-74" x="1042.443359"/>
      <use xlink:href="#DejaVuSans-79" x="1081.652344"/>
     </g>
    </g>
   </g>
   <g id="matplotlib.axis_6">
    <g id="ytick_22">
     <g id="line2d_40">
      <g>
       <use xlink:href="#m9621059793" x="50.565625" y="534.84375" style="stroke: #000000; stroke-width: 0.8"/>
      </g>
     </g>
     <g id="text_53">
      <!-- 0 -->
      <g transform="translate(37.203125 538.642969)scale(0.1 -0.1)">
       <use xlink:href="#DejaVuSans-30"/>
      </g>
     </g>
    </g>
    <g id="ytick_23">
     <g id="line2d_41">
      <g>
       <use xlink:href="#m9621059793" x="50.565625" y="491.734107" style="stroke: #000000; stroke-width: 0.8"/>
      </g>
     </g>
     <g id="text_54">
      <!-- 10 -->
      <g transform="translate(30.840625 495.533326)scale(0.1 -0.1)">
       <use xlink:href="#DejaVuSans-31"/>
       <use xlink:href="#DejaVuSans-30" x="63.623047"/>
      </g>
     </g>
    </g>
    <g id="ytick_24">
     <g id="line2d_42">
      <g>
       <use xlink:href="#m9621059793" x="50.565625" y="448.624464" style="stroke: #000000; stroke-width: 0.8"/>
      </g>
     </g>
     <g id="text_55">
      <!-- 20 -->
      <g transform="translate(30.840625 452.423683)scale(0.1 -0.1)">
       <use xlink:href="#DejaVuSans-32"/>
       <use xlink:href="#DejaVuSans-30" x="63.623047"/>
      </g>
     </g>
    </g>
    <g id="ytick_25">
     <g id="line2d_43">
      <g>
       <use xlink:href="#m9621059793" x="50.565625" y="405.514821" style="stroke: #000000; stroke-width: 0.8"/>
      </g>
     </g>
     <g id="text_56">
      <!-- 30 -->
      <g transform="translate(30.840625 409.31404)scale(0.1 -0.1)">
       <use xlink:href="#DejaVuSans-33"/>
       <use xlink:href="#DejaVuSans-30" x="63.623047"/>
      </g>
     </g>
    </g>
    <g id="ytick_26">
     <g id="line2d_44">
      <g>
       <use xlink:href="#m9621059793" x="50.565625" y="362.405179" style="stroke: #000000; stroke-width: 0.8"/>
      </g>
     </g>
     <g id="text_57">
      <!-- 40 -->
      <g transform="translate(30.840625 366.204397)scale(0.1 -0.1)">
       <use xlink:href="#DejaVuSans-34"/>
       <use xlink:href="#DejaVuSans-30" x="63.623047"/>
      </g>
     </g>
    </g>
    <g id="ytick_27">
     <g id="line2d_45">
      <g>
       <use xlink:href="#m9621059793" x="50.565625" y="319.295536" style="stroke: #000000; stroke-width: 0.8"/>
      </g>
     </g>
     <g id="text_58">
      <!-- 50 -->
      <g transform="translate(30.840625 323.094754)scale(0.1 -0.1)">
       <use xlink:href="#DejaVuSans-35"/>
       <use xlink:href="#DejaVuSans-30" x="63.623047"/>
      </g>
     </g>
    </g>
    <g id="text_59">
     <!-- Count -->
     <g transform="translate(24.760937 436.529375)rotate(-90)scale(0.1 -0.1)">
      <use xlink:href="#DejaVuSans-43"/>
      <use xlink:href="#DejaVuSans-6f" x="69.824219"/>
      <use xlink:href="#DejaVuSans-75" x="131.005859"/>
      <use xlink:href="#DejaVuSans-6e" x="194.384766"/>
      <use xlink:href="#DejaVuSans-74" x="257.763672"/>
     </g>
    </g>
   </g>
   <g id="patch_30">
    <path d="M 50.565625 534.84375 
L 50.565625 308.518125 
" style="fill: none; stroke: #000000; stroke-width: 0.8; stroke-linejoin: miter; stroke-linecap: square"/>
   </g>
   <g id="patch_31">
    <path d="M 357.78125 534.84375 
L 357.78125 308.518125 
" style="fill: none; stroke: #000000; stroke-width: 0.8; stroke-linejoin: miter; stroke-linecap: square"/>
   </g>
   <g id="patch_32">
    <path d="M 50.565625 534.84375 
L 357.78125 534.84375 
" style="fill: none; stroke: #000000; stroke-width: 0.8; stroke-linejoin: miter; stroke-linecap: square"/>
   </g>
   <g id="patch_33">
    <path d="M 50.565625 308.518125 
L 357.78125 308.518125 
" style="fill: none; stroke: #000000; stroke-width: 0.8; stroke-linejoin: miter; stroke-linecap: square"/>
   </g>
   <g id="text_60">
    <!-- Level 15, AB 10, DC 17, CR 9-21 -->
    <g transform="translate(107.353125 302.518125)scale(0.12 -0.12)">
     <use xlink:href="#DejaVuSans-4c"/>
     <use xlink:href="#DejaVuSans-65" x="53.962891"/>
     <use xlink:href="#DejaVuSans-76" x="115.486328"/>
     <use xlink:href="#DejaVuSans-65" x="174.666016"/>
     <use xlink:href="#DejaVuSans-6c" x="236.189453"/>
     <use xlink:href="#DejaVuSans-20" x="263.972656"/>
     <use xlink:href="#DejaVuSans-31" x="295.759766"/>
     <use xlink:href="#DejaVuSans-35" x="359.382812"/>
     <use xlink:href="#DejaVuSans-2c" x="423.005859"/>
     <use xlink:href="#DejaVuSans-20" x="454.792969"/>
     <use xlink:href="#DejaVuSans-41" x="486.580078"/>
     <use xlink:href="#DejaVuSans-42" x="554.988281"/>
     <use xlink:href="#DejaVuSans-20" x="623.591797"/>
     <use xlink:href="#DejaVuSans-31" x="655.378906"/>
     <use xlink:href="#DejaVuSans-30" x="719.001953"/>
     <use xlink:href="#DejaVuSans-2c" x="782.625"/>
     <use xlink:href="#DejaVuSans-20" x="814.412109"/>
     <use xlink:href="#DejaVuSans-44" x="846.199219"/>
     <use xlink:href="#DejaVuSans-43" x="923.201172"/>
     <use xlink:href="#DejaVuSans-20" x="993.025391"/>
     <use xlink:href="#DejaVuSans-31" x="1024.8125"/>
     <use xlink:href="#DejaVuSans-37" x="1088.435547"/>
     <use xlink:href="#DejaVuSans-2c" x="1152.058594"/>
     <use xlink:href="#DejaVuSans-20" x="1183.845703"/>
     <use xlink:href="#DejaVuSans-43" x="1215.632812"/>
     <use xlink:href="#DejaVuSans-52" x="1285.457031"/>
     <use xlink:href="#DejaVuSans-20" x="1354.939453"/>
     <use xlink:href="#DejaVuSans-39" x="1386.726562"/>
     <use xlink:href="#DejaVuSans-2d" x="1450.349609"/>
     <use xlink:href="#DejaVuSans-32" x="1486.433594"/>
     <use xlink:href="#DejaVuSans-31" x="1550.056641"/>
    </g>
   </g>
   <g id="legend_3">
    <g id="patch_34">
     <path d="M 57.565625 360.5525 
L 142.460938 360.5525 
Q 144.460938 360.5525 144.460938 358.5525 
L 144.460938 315.518125 
Q 144.460938 313.518125 142.460938 313.518125 
L 57.565625 313.518125 
Q 55.565625 313.518125 55.565625 315.518125 
L 55.565625 358.5525 
Q 55.565625 360.5525 57.565625 360.5525 
z
" style="fill: #ffffff; opacity: 0.8; stroke: #cccccc; stroke-linejoin: miter"/>
    </g>
    <g id="patch_35">
     <path d="M 59.565625 325.116562 
L 79.565625 325.116562 
L 79.565625 318.116562 
L 59.565625 318.116562 
z
" style="fill: #2ca02c"/>
    </g>
    <g id="text_61">
     <!-- Unique -->
     <g transform="translate(87.565625 325.116562)scale(0.1 -0.1)">
      <use xlink:href="#DejaVuSans-55"/>
      <use xlink:href="#DejaVuSans-6e" x="73.193359"/>
      <use xlink:href="#DejaVuSans-69" x="136.572266"/>
      <use xlink:href="#DejaVuSans-71" x="164.355469"/>
      <use xlink:href="#DejaVuSans-75" x="227.832031"/>
      <use xlink:href="#DejaVuSans-65" x="291.210938"/>
     </g>
    </g>
    <g id="patch_36">
     <path d="M 59.565625 339.794688 
L 79.565625 339.794688 
L 79.565625 332.794688 
L 59.565625 332.794688 
z
" style="fill: #ff7f0e"/>
    </g>
    <g id="text_62">
     <!-- Legendary -->
     <g transform="translate(87.565625 339.794688)scale(0.1 -0.1)">
      <use xlink:href="#DejaVuSans-4c"/>
      <use xlink:href="#DejaVuSans-65" x="53.962891"/>
      <use xlink:href="#DejaVuSans-67" x="115.486328"/>
      <use xlink:href="#DejaVuSans-65" x="178.962891"/>
      <use xlink:href="#DejaVuSans-6e" x="240.486328"/>
      <use xlink:href="#DejaVuSans-64" x="303.865234"/>
      <use xlink:href="#DejaVuSans-61" x="367.341797"/>
      <use xlink:href="#DejaVuSans-72" x="428.621094"/>
      <use xlink:href="#DejaVuSans-79" x="469.734375"/>
     </g>
    </g>
    <g id="patch_37">
     <path d="M 59.565625 354.472813 
L 79.565625 354.472813 
L 79.565625 347.472813 
L 59.565625 347.472813 
z
" style="fill: #1f77b4"/>
    </g>
    <g id="text_63">
     <!-- Generic -->
     <g transform="translate(87.565625 354.472813)scale(0.1 -0.1)">
      <use xlink:href="#DejaVuSans-47"/>
      <use xlink:href="#DejaVuSans-65" x="77.490234"/>
      <use xlink:href="#DejaVuSans-6e" x="139.013672"/>
      <use xlink:href="#DejaVuSans-65" x="202.392578"/>
      <use xlink:href="#DejaVuSans-72" x="263.916016"/>
      <use xlink:href="#DejaVuSans-69" x="305.029297"/>
      <use xlink:href="#DejaVuSans-63" x="332.8125"/>
     </g>
    </g>
   </g>
  </g>
  <g id="axes_4">
   <g id="patch_38">
    <path d="M 401.984375 534.84375 
L 709.2 534.84375 
L 709.2 308.518125 
L 401.984375 308.518125 
z
" style="fill: #ffffff"/>
   </g>
   <g id="patch_39">
    <path d="M 415.948722 534.84375 
L 415.948722 534.84375 
L 429.248099 534.84375 
L 429.248099 470.179286 
L 442.547477 470.179286 
L 442.547477 376.77506 
L 455.846855 376.77506 
L 455.846855 412.699762 
L 469.146232 412.699762 
L 469.146232 412.699762 
L 482.44561 412.699762 
L 482.44561 319.295536 
L 495.744988 319.295536 
L 495.744988 326.480476 
L 509.044366 326.480476 
L 509.044366 427.069643 
L 522.343743 427.069643 
L 522.343743 412.699762 
L 535.643121 412.699762 
L 535.643121 484.549167 
L 548.942499 484.549167 
L 548.942499 427.069643 
L 562.241876 427.069643 
L 562.241876 419.884702 
L 575.541254 419.884702 
L 575.541254 527.65881 
L 588.840632 527.65881 
L 588.840632 520.473869 
L 602.140009 520.473869 
L 602.140009 527.65881 
L 615.439387 527.65881 
L 615.439387 534.84375 
L 628.738765 534.84375 
L 628.738765 534.84375 
L 642.038143 534.84375 
L 642.038143 534.84375 
L 655.33752 534.84375 
L 655.33752 534.84375 
L 668.636898 534.84375 
L 668.636898 534.84375 
L 681.936276 534.84375 
L 681.936276 534.84375 
L 695.235653 534.84375 
L 695.235653 534.84375 
L 681.936276 534.84375 
L 681.936276 534.84375 
L 668.636898 534.84375 
L 668.636898 534.84375 
L 655.33752 534.84375 
L 655.33752 534.84375 
L 642.038143 534.84375 
L 642.038143 534.84375 
L 628.738765 534.84375 
L 628.738765 534.84375 
L 615.439387 534.84375 
L 615.439387 527.65881 
L 602.140009 527.65881 
L 602.140009 534.84375 
L 588.840632 534.84375 
L 588.840632 527.65881 
L 575.541254 527.65881 
L 575.541254 455.809405 
L 562.241876 455.809405 
L 562.241876 441.439524 
L 548.942499 441.439524 
L 548.942499 506.103988 
L 535.643121 506.103988 
L 535.643121 455.809405 
L 522.343743 455.809405 
L 522.343743 448.624464 
L 509.044366 448.624464 
L 509.044366 391.14494 
L 495.744988 391.14494 
L 495.744988 405.514821 
L 482.44561 405.514821 
L 482.44561 455.809405 
L 469.146232 455.809405 
L 469.146232 470.179286 
L 455.846855 470.179286 
L 455.846855 491.734107 
L 442.547477 491.734107 
L 442.547477 513.288929 
L 429.248099 513.288929 
L 429.248099 534.84375 
z
" clip-path="url(#p2b6ee4c92a)" style="fill: #2ca02c"/>
   </g>
   <g id="patch_40">
    <path d="M 415.948722 534.84375 
L 415.948722 534.84375 
L 429.248099 534.84375 
L 429.248099 513.288929 
L 442.547477 513.288929 
L 442.547477 491.734107 
L 455.846855 491.734107 
L 455.846855 470.179286 
L 469.146232 470.179286 
L 469.146232 455.809405 
L 482.44561 455.809405 
L 482.44561 405.514821 
L 495.744988 405.514821 
L 495.744988 391.14494 
L 509.044366 391.14494 
L 509.044366 448.624464 
L 522.343743 448.624464 
L 522.343743 455.809405 
L 535.643121 455.809405 
L 535.643121 506.103988 
L 548.942499 506.103988 
L 548.942499 441.439524 
L 562.241876 441.439524 
L 562.241876 455.809405 
L 575.541254 455.809405 
L 575.541254 527.65881 
L 588.840632 527.65881 
L 588.840632 534.84375 
L 602.140009 534.84375 
L 602.140009 527.65881 
L 615.439387 527.65881 
L 615.439387 534.84375 
L 628.738765 534.84375 
L 628.738765 534.84375 
L 642.038143 534.84375 
L 642.038143 534.84375 
L 655.33752 534.84375 
L 655.33752 534.84375 
L 668.636898 534.84375 
L 668.636898 534.84375 
L 681.936276 534.84375 
L 681.936276 534.84375 
L 695.235653 534.84375 
L 695.235653 534.84375 
L 681.936276 534.84375 
L 681.936276 534.84375 
L 668.636898 534.84375 
L 668.636898 534.84375 
L 655.33752 534.84375 
L 655.33752 534.84375 
L 642.038143 534.84375 
L 642.038143 534.84375 
L 628.738765 534.84375 
L 628.738765 534.84375 
L 615.439387 534.84375 
L 615.439387 534.84375 
L 602.140009 534.84375 
L 602.140009 534.84375 
L 588.840632 534.84375 
L 588.840632 534.84375 
L 575.541254 534.84375 
L 575.541254 477.364226 
L 562.241876 477.364226 
L 562.241876 477.364226 
L 548.942499 477.364226 
L 548.942499 506.103988 
L 535.643121 506.103988 
L 535.643121 513.288929 
L 522.343743 513.288929 
L 522.343743 520.473869 
L 509.044366 520.473869 
L 509.044366 462.994345 
L 495.744988 462.994345 
L 495.744988 462.994345 
L 482.44561 462.994345 
L 482.44561 484.549167 
L 469.146232 484.549167 
L 469.146232 513.288929 
L 455.846855 513.288929 
L 455.846855 534.84375 
L 442.547477 534.84375 
L 442.547477 534.84375 
L 429.248099 534.84375 
L 429.248099 534.84375 
z
" clip-path="url(#p2b6ee4c92a)" style="fill: #ff7f0e"/>
   </g>
   <g id="patch_41">
    <path d="M 415.948722 534.84375 
L 415.948722 534.84375 
L 429.248099 534.84375 
L 429.248099 534.84375 
L 442.547477 534.84375 
L 442.547477 534.84375 
L 455.846855 534.84375 
L 455.846855 513.288929 
L 469.146232 513.288929 
L 469.146232 484.549167 
L 482.44561 484.549167 
L 482.44561 462.994345 
L 495.744988 462.994345 
L 495.744988 462.994345 
L 509.044366 462.994345 
L 509.044366 520.473869 
L 522.343743 520.473869 
L 522.343743 513.288929 
L 535.643121 513.288929 
L 535.643121 506.103988 
L 548.942499 506.103988 
L 548.942499 477.364226 
L 562.241876 477.364226 
L 562.241876 477.364226 
L 575.541254 477.364226 
L 575.541254 534.84375 
L 588.840632 534.84375 
L 588.840632 534.84375 
L 602.140009 534.84375 
L 602.140009 534.84375 
L 615.439387 534.84375 
L 615.439387 534.84375 
L 628.738765 534.84375 
L 628.738765 534.84375 
L 642.038143 534.84375 
L 642.038143 534.84375 
L 655.33752 534.84375 
L 655.33752 534.84375 
L 668.636898 534.84375 
L 668.636898 534.84375 
L 681.936276 534.84375 
L 681.936276 534.84375 
L 695.235653 534.84375 
L 695.235653 534.84375 
L 681.936276 534.84375 
L 681.936276 534.84375 
L 668.636898 534.84375 
L 668.636898 534.84375 
L 655.33752 534.84375 
L 655.33752 534.84375 
L 642.038143 534.84375 
L 642.038143 534.84375 
L 628.738765 534.84375 
L 628.738765 534.84375 
L 615.439387 534.84375 
L 615.439387 534.84375 
L 602.140009 534.84375 
L 602.140009 534.84375 
L 588.840632 534.84375 
L 588.840632 534.84375 
L 575.541254 534.84375 
L 575.541254 534.84375 
L 562.241876 534.84375 
L 562.241876 534.84375 
L 548.942499 534.84375 
L 548.942499 534.84375 
L 535.643121 534.84375 
L 535.643121 534.84375 
L 522.343743 534.84375 
L 522.343743 534.84375 
L 509.044366 534.84375 
L 509.044366 534.84375 
L 495.744988 534.84375 
L 495.744988 534.84375 
L 482.44561 534.84375 
L 482.44561 534.84375 
L 469.146232 534.84375 
L 469.146232 534.84375 
L 455.846855 534.84375 
L 455.846855 534.84375 
L 442.547477 534.84375 
L 442.547477 534.84375 
L 429.248099 534.84375 
L 429.248099 534.84375 
z
" clip-path="url(#p2b6ee4c92a)" style="fill: #1f77b4"/>
   </g>
   <g id="matplotlib.axis_7">
    <g id="xtick_19">
     <g id="line2d_46">
      <g>
       <use xlink:href="#m7346511d8a" x="422.59841" y="534.84375" style="stroke: #000000; stroke-width: 0.8"/>
      </g>
     </g>
     <g id="text_64">
      <!-- 0.0 -->
      <g transform="translate(414.646848 549.442187)scale(0.1 -0.1)">
       <use xlink:href="#DejaVuSans-30"/>
       <use xlink:href="#DejaVuSans-2e" x="63.623047"/>
       <use xlink:href="#DejaVuSans-30" x="95.410156"/>
      </g>
     </g>
    </g>
    <g id="xtick_20">
     <g id="line2d_47">
      <g>
       <use xlink:href="#m7346511d8a" x="475.795921" y="534.84375" style="stroke: #000000; stroke-width: 0.8"/>
      </g>
     </g>
     <g id="text_65">
      <!-- 0.2 -->
      <g transform="translate(467.844359 549.442187)scale(0.1 -0.1)">
       <use xlink:href="#DejaVuSans-30"/>
       <use xlink:href="#DejaVuSans-2e" x="63.623047"/>
       <use xlink:href="#DejaVuSans-32" x="95.410156"/>
      </g>
     </g>
    </g>
    <g id="xtick_21">
     <g id="line2d_48">
      <g>
       <use xlink:href="#m7346511d8a" x="528.993432" y="534.84375" style="stroke: #000000; stroke-width: 0.8"/>
      </g>
     </g>
     <g id="text_66">
      <!-- 0.4 -->
      <g transform="translate(521.04187 549.442187)scale(0.1 -0.1)">
       <use xlink:href="#DejaVuSans-30"/>
       <use xlink:href="#DejaVuSans-2e" x="63.623047"/>
       <use xlink:href="#DejaVuSans-34" x="95.410156"/>
      </g>
     </g>
    </g>
    <g id="xtick_22">
     <g id="line2d_49">
      <g>
       <use xlink:href="#m7346511d8a" x="582.190943" y="534.84375" style="stroke: #000000; stroke-width: 0.8"/>
      </g>
     </g>
     <g id="text_67">
      <!-- 0.6 -->
      <g transform="translate(574.23938 549.442187)scale(0.1 -0.1)">
       <use xlink:href="#DejaVuSans-30"/>
       <use xlink:href="#DejaVuSans-2e" x="63.623047"/>
       <use xlink:href="#DejaVuSans-36" x="95.410156"/>
      </g>
     </g>
    </g>
    <g id="xtick_23">
     <g id="line2d_50">
      <g>
       <use xlink:href="#m7346511d8a" x="635.388454" y="534.84375" style="stroke: #000000; stroke-width: 0.8"/>
      </g>
     </g>
     <g id="text_68">
      <!-- 0.8 -->
      <g transform="translate(627.436891 549.442187)scale(0.1 -0.1)">
       <use xlink:href="#DejaVuSans-30"/>
       <use xlink:href="#DejaVuSans-2e" x="63.623047"/>
       <use xlink:href="#DejaVuSans-38" x="95.410156"/>
      </g>
     </g>
    </g>
    <g id="xtick_24">
     <g id="line2d_51">
      <g>
       <use xlink:href="#m7346511d8a" x="688.585965" y="534.84375" style="stroke: #000000; stroke-width: 0.8"/>
      </g>
     </g>
     <g id="text_69">
      <!-- 1.0 -->
      <g transform="translate(680.634402 549.442187)scale(0.1 -0.1)">
       <use xlink:href="#DejaVuSans-31"/>
       <use xlink:href="#DejaVuSans-2e" x="63.623047"/>
       <use xlink:href="#DejaVuSans-30" x="95.410156"/>
      </g>
     </g>
    </g>
    <g id="text_70">
     <!-- Attack Stun Probability -->
     <g transform="translate(498.551563 563.120312)scale(0.1 -0.1)">
      <use xlink:href="#DejaVuSans-41"/>
      <use xlink:href="#DejaVuSans-74" x="66.658203"/>
      <use xlink:href="#DejaVuSans-74" x="105.867188"/>
      <use xlink:href="#DejaVuSans-61" x="145.076172"/>
      <use xlink:href="#DejaVuSans-63" x="206.355469"/>
      <use xlink:href="#DejaVuSans-6b" x="261.335938"/>
      <use xlink:href="#DejaVuSans-20" x="319.246094"/>
      <use xlink:href="#DejaVuSans-53" x="351.033203"/>
      <use xlink:href="#DejaVuSans-74" x="414.509766"/>
      <use xlink:href="#DejaVuSans-75" x="453.71875"/>
      <use xlink:href="#DejaVuSans-6e" x="517.097656"/>
      <use xlink:href="#DejaVuSans-20" x="580.476562"/>
      <use xlink:href="#DejaVuSans-50" x="612.263672"/>
      <use xlink:href="#DejaVuSans-72" x="670.816406"/>
      <use xlink:href="#DejaVuSans-6f" x="709.679688"/>
      <use xlink:href="#DejaVuSans-62" x="770.861328"/>
      <use xlink:href="#DejaVuSans-61" x="834.337891"/>
      <use xlink:href="#DejaVuSans-62" x="895.617188"/>
      <use xlink:href="#DejaVuSans-69" x="959.09375"/>
      <use xlink:href="#DejaVuSans-6c" x="986.876953"/>
      <use xlink:href="#DejaVuSans-69" x="1014.660156"/>
      <use xlink:href="#DejaVuSans-74" x="1042.443359"/>
      <use xlink:href="#DejaVuSans-79" x="1081.652344"/>
     </g>
    </g>
   </g>
   <g id="matplotlib.axis_8">
    <g id="ytick_28">
     <g id="line2d_52">
      <g>
       <use xlink:href="#m9621059793" x="401.984375" y="534.84375" style="stroke: #000000; stroke-width: 0.8"/>
      </g>
     </g>
     <g id="text_71">
      <!-- 0 -->
      <g transform="translate(388.621875 538.642969)scale(0.1 -0.1)">
       <use xlink:href="#DejaVuSans-30"/>
      </g>
     </g>
    </g>
    <g id="ytick_29">
     <g id="line2d_53">
      <g>
       <use xlink:href="#m9621059793" x="401.984375" y="498.919048" style="stroke: #000000; stroke-width: 0.8"/>
      </g>
     </g>
     <g id="text_72">
      <!-- 5 -->
      <g transform="translate(388.621875 502.718266)scale(0.1 -0.1)">
       <use xlink:href="#DejaVuSans-35"/>
      </g>
     </g>
    </g>
    <g id="ytick_30">
     <g id="line2d_54">
      <g>
       <use xlink:href="#m9621059793" x="401.984375" y="462.994345" style="stroke: #000000; stroke-width: 0.8"/>
      </g>
     </g>
     <g id="text_73">
      <!-- 10 -->
      <g transform="translate(382.259375 466.793564)scale(0.1 -0.1)">
       <use xlink:href="#DejaVuSans-31"/>
       <use xlink:href="#DejaVuSans-30" x="63.623047"/>
      </g>
     </g>
    </g>
    <g id="ytick_31">
     <g id="line2d_55">
      <g>
       <use xlink:href="#m9621059793" x="401.984375" y="427.069643" style="stroke: #000000; stroke-width: 0.8"/>
      </g>
     </g>
     <g id="text_74">
      <!-- 15 -->
      <g transform="translate(382.259375 430.868862)scale(0.1 -0.1)">
       <use xlink:href="#DejaVuSans-31"/>
       <use xlink:href="#DejaVuSans-35" x="63.623047"/>
      </g>
     </g>
    </g>
    <g id="ytick_32">
     <g id="line2d_56">
      <g>
       <use xlink:href="#m9621059793" x="401.984375" y="391.14494" style="stroke: #000000; stroke-width: 0.8"/>
      </g>
     </g>
     <g id="text_75">
      <!-- 20 -->
      <g transform="translate(382.259375 394.944159)scale(0.1 -0.1)">
       <use xlink:href="#DejaVuSans-32"/>
       <use xlink:href="#DejaVuSans-30" x="63.623047"/>
      </g>
     </g>
    </g>
    <g id="ytick_33">
     <g id="line2d_57">
      <g>
       <use xlink:href="#m9621059793" x="401.984375" y="355.220238" style="stroke: #000000; stroke-width: 0.8"/>
      </g>
     </g>
     <g id="text_76">
      <!-- 25 -->
      <g transform="translate(382.259375 359.019457)scale(0.1 -0.1)">
       <use xlink:href="#DejaVuSans-32"/>
       <use xlink:href="#DejaVuSans-35" x="63.623047"/>
      </g>
     </g>
    </g>
    <g id="ytick_34">
     <g id="line2d_58">
      <g>
       <use xlink:href="#m9621059793" x="401.984375" y="319.295536" style="stroke: #000000; stroke-width: 0.8"/>
      </g>
     </g>
     <g id="text_77">
      <!-- 30 -->
      <g transform="translate(382.259375 323.094754)scale(0.1 -0.1)">
       <use xlink:href="#DejaVuSans-33"/>
       <use xlink:href="#DejaVuSans-30" x="63.623047"/>
      </g>
     </g>
    </g>
    <g id="text_78">
     <!-- Count -->
     <g transform="translate(376.179688 436.529375)rotate(-90)scale(0.1 -0.1)">
      <use xlink:href="#DejaVuSans-43"/>
      <use xlink:href="#DejaVuSans-6f" x="69.824219"/>
      <use xlink:href="#DejaVuSans-75" x="131.005859"/>
      <use xlink:href="#DejaVuSans-6e" x="194.384766"/>
      <use xlink:href="#DejaVuSans-74" x="257.763672"/>
     </g>
    </g>
   </g>
   <g id="patch_42">
    <path d="M 401.984375 534.84375 
L 401.984375 308.518125 
" style="fill: none; stroke: #000000; stroke-width: 0.8; stroke-linejoin: miter; stroke-linecap: square"/>
   </g>
   <g id="patch_43">
    <path d="M 709.2 534.84375 
L 709.2 308.518125 
" style="fill: none; stroke: #000000; stroke-width: 0.8; stroke-linejoin: miter; stroke-linecap: square"/>
   </g>
   <g id="patch_44">
    <path d="M 401.984375 534.84375 
L 709.2 534.84375 
" style="fill: none; stroke: #000000; stroke-width: 0.8; stroke-linejoin: miter; stroke-linecap: square"/>
   </g>
   <g id="patch_45">
    <path d="M 401.984375 308.518125 
L 709.2 308.518125 
" style="fill: none; stroke: #000000; stroke-width: 0.8; stroke-linejoin: miter; stroke-linecap: square"/>
   </g>
   <g id="text_79">
    <!-- Level 20, AB 11, DC 19, CR 13-27 -->
    <g transform="translate(454.954375 302.518125)scale(0.12 -0.12)">
     <use xlink:href="#DejaVuSans-4c"/>
     <use xlink:href="#DejaVuSans-65" x="53.962891"/>
     <use xlink:href="#DejaVuSans-76" x="115.486328"/>
     <use xlink:href="#DejaVuSans-65" x="174.666016"/>
     <use xlink:href="#DejaVuSans-6c" x="236.189453"/>
     <use xlink:href="#DejaVuSans-20" x="263.972656"/>
     <use xlink:href="#DejaVuSans-32" x="295.759766"/>
     <use xlink:href="#DejaVuSans-30" x="359.382812"/>
     <use xlink:href="#DejaVuSans-2c" x="423.005859"/>
     <use xlink:href="#DejaVuSans-20" x="454.792969"/>
     <use xlink:href="#DejaVuSans-41" x="486.580078"/>
     <use xlink:href="#DejaVuSans-42" x="554.988281"/>
     <use xlink:href="#DejaVuSans-20" x="623.591797"/>
     <use xlink:href="#DejaVuSans-31" x="655.378906"/>
     <use xlink:href="#DejaVuSans-31" x="719.001953"/>
     <use xlink:href="#DejaVuSans-2c" x="782.625"/>
     <use xlink:href="#DejaVuSans-20" x="814.412109"/>
     <use xlink:href="#DejaVuSans-44" x="846.199219"/>
     <use xlink:href="#DejaVuSans-43" x="923.201172"/>
     <use xlink:href="#DejaVuSans-20" x="993.025391"/>
     <use xlink:href="#DejaVuSans-31" x="1024.8125"/>
     <use xlink:href="#DejaVuSans-39" x="1088.435547"/>
     <use xlink:href="#DejaVuSans-2c" x="1152.058594"/>
     <use xlink:href="#DejaVuSans-20" x="1183.845703"/>
     <use xlink:href="#DejaVuSans-43" x="1215.632812"/>
     <use xlink:href="#DejaVuSans-52" x="1285.457031"/>
     <use xlink:href="#DejaVuSans-20" x="1354.939453"/>
     <use xlink:href="#DejaVuSans-31" x="1386.726562"/>
     <use xlink:href="#DejaVuSans-33" x="1450.349609"/>
     <use xlink:href="#DejaVuSans-2d" x="1513.972656"/>
     <use xlink:href="#DejaVuSans-32" x="1550.056641"/>
     <use xlink:href="#DejaVuSans-37" x="1613.679688"/>
    </g>
   </g>
   <g id="legend_4">
    <g id="patch_46">
     <path d="M 408.984375 360.5525 
L 493.879688 360.5525 
Q 495.879688 360.5525 495.879688 358.5525 
L 495.879688 315.518125 
Q 495.879688 313.518125 493.879688 313.518125 
L 408.984375 313.518125 
Q 406.984375 313.518125 406.984375 315.518125 
L 406.984375 358.5525 
Q 406.984375 360.5525 408.984375 360.5525 
z
" style="fill: #ffffff; opacity: 0.8; stroke: #cccccc; stroke-linejoin: miter"/>
    </g>
    <g id="patch_47">
     <path d="M 410.984375 325.116562 
L 430.984375 325.116562 
L 430.984375 318.116562 
L 410.984375 318.116562 
z
" style="fill: #2ca02c"/>
    </g>
    <g id="text_80">
     <!-- Unique -->
     <g transform="translate(438.984375 325.116562)scale(0.1 -0.1)">
      <use xlink:href="#DejaVuSans-55"/>
      <use xlink:href="#DejaVuSans-6e" x="73.193359"/>
      <use xlink:href="#DejaVuSans-69" x="136.572266"/>
      <use xlink:href="#DejaVuSans-71" x="164.355469"/>
      <use xlink:href="#DejaVuSans-75" x="227.832031"/>
      <use xlink:href="#DejaVuSans-65" x="291.210938"/>
     </g>
    </g>
    <g id="patch_48">
     <path d="M 410.984375 339.794688 
L 430.984375 339.794688 
L 430.984375 332.794688 
L 410.984375 332.794688 
z
" style="fill: #ff7f0e"/>
    </g>
    <g id="text_81">
     <!-- Legendary -->
     <g transform="translate(438.984375 339.794688)scale(0.1 -0.1)">
      <use xlink:href="#DejaVuSans-4c"/>
      <use xlink:href="#DejaVuSans-65" x="53.962891"/>
      <use xlink:href="#DejaVuSans-67" x="115.486328"/>
      <use xlink:href="#DejaVuSans-65" x="178.962891"/>
      <use xlink:href="#DejaVuSans-6e" x="240.486328"/>
      <use xlink:href="#DejaVuSans-64" x="303.865234"/>
      <use xlink:href="#DejaVuSans-61" x="367.341797"/>
      <use xlink:href="#DejaVuSans-72" x="428.621094"/>
      <use xlink:href="#DejaVuSans-79" x="469.734375"/>
     </g>
    </g>
    <g id="patch_49">
     <path d="M 410.984375 354.472813 
L 430.984375 354.472813 
L 430.984375 347.472813 
L 410.984375 347.472813 
z
" style="fill: #1f77b4"/>
    </g>
    <g id="text_82">
     <!-- Generic -->
     <g transform="translate(438.984375 354.472813)scale(0.1 -0.1)">
      <use xlink:href="#DejaVuSans-47"/>
      <use xlink:href="#DejaVuSans-65" x="77.490234"/>
      <use xlink:href="#DejaVuSans-6e" x="139.013672"/>
      <use xlink:href="#DejaVuSans-65" x="202.392578"/>
      <use xlink:href="#DejaVuSans-72" x="263.916016"/>
      <use xlink:href="#DejaVuSans-69" x="305.029297"/>
      <use xlink:href="#DejaVuSans-63" x="332.8125"/>
     </g>
    </g>
   </g>
  </g>
 </g>
 <defs>
  <clipPath id="p0de64b582b">
   <rect x="50.565625" y="25.918125" width="307.215625" height="226.325625"/>
  </clipPath>
  <clipPath id="p364055f931">
   <rect x="401.984375" y="25.918125" width="307.215625" height="226.325625"/>
  </clipPath>
  <clipPath id="pb8a1e5a0f9">
   <rect x="50.565625" y="308.518125" width="307.215625" height="226.325625"/>
  </clipPath>
  <clipPath id="p2b6ee4c92a">
   <rect x="401.984375" y="308.518125" width="307.215625" height="226.325625"/>
  </clipPath>
 </defs>
</svg>
