<?xml version="1.0" encoding="utf-8" standalone="no"?>
<!DOCTYPE svg PUBLIC "-//W3C//DTD SVG 1.1//EN"
  "http://www.w3.org/Graphics/SVG/1.1/DTD/svg11.dtd">
<svg xmlns:xlink="http://www.w3.org/1999/xlink" width="720pt" height="576pt" viewBox="0 0 720 576" xmlns="http://www.w3.org/2000/svg" version="1.1">
 <metadata>
  <rdf:RDF xmlns:dc="http://purl.org/dc/elements/1.1/" xmlns:cc="http://creativecommons.org/ns#" xmlns:rdf="http://www.w3.org/1999/02/22-rdf-syntax-ns#">
   <cc:Work>
    <dc:type rdf:resource="http://purl.org/dc/dcmitype/StillImage"/>
    <dc:date>2022-11-19T14:38:57.839794</dc:date>
    <dc:format>image/svg+xml</dc:format>
    <dc:creator>
     <cc:Agent>
      <dc:title>Matplotlib v3.5.2, https://matplotlib.org/</dc:title>
     </cc:Agent>
    </dc:creator>
    <dc:contributor>
     <cc:Agent>
      <dc:title>T. Dunn</dc:title>
     </cc:Agent>
    </dc:contributor>
   </cc:Work>
  </rdf:RDF>
 </metadata>
 <defs>
  <style type="text/css">*{stroke-linejoin: round; stroke-linecap: butt}</style>
 </defs>
 <g id="figure_1">
  <g id="patch_1">
   <path d="M 0 576 
L 720 576 
L 720 0 
L 0 0 
L 0 576 
z
" style="fill: none"/>
  </g>
  <g id="axes_1">
   <g id="patch_2">
    <path d="M 50.565625 252.24375 
L 354.6 252.24375 
L 354.6 25.918125 
L 50.565625 25.918125 
z
" style="fill: #ffffff"/>
   </g>
   <g id="patch_3">
    <path d="M 64.385369 252.24375 
L 64.385369 252.24375 
L 77.547031 252.24375 
L 77.547031 252.24375 
L 90.708692 252.24375 
L 90.708692 252.24375 
L 103.870353 252.24375 
L 103.870353 252.24375 
L 117.032014 252.24375 
L 117.032014 252.24375 
L 130.193676 252.24375 
L 130.193676 252.24375 
L 143.355337 252.24375 
L 143.355337 251.059419 
L 156.516998 251.059419 
L 156.516998 251.059419 
L 169.678659 251.059419 
L 169.678659 240.400442 
L 182.840321 240.400442 
L 182.840321 236.847449 
L 196.001982 236.847449 
L 196.001982 183.552561 
L 209.163643 183.552561 
L 209.163643 171.709252 
L 222.325304 171.709252 
L 222.325304 127.889011 
L 235.486966 127.889011 
L 235.486966 36.695536 
L 248.648627 36.695536 
L 248.648627 113.677041 
L 261.810288 113.677041 
L 261.810288 116.045703 
L 274.971949 116.045703 
L 274.971949 156.312951 
L 288.133611 156.312951 
L 288.133611 215.529494 
L 301.295272 215.529494 
L 301.295272 238.03178 
L 314.456933 238.03178 
L 314.456933 234.478787 
L 327.618594 234.478787 
L 327.618594 252.24375 
L 340.780256 252.24375 
L 340.780256 252.24375 
L 327.618594 252.24375 
L 327.618594 240.400442 
L 314.456933 240.400442 
L 314.456933 242.769103 
L 301.295272 242.769103 
L 301.295272 221.451148 
L 288.133611 221.451148 
L 288.133611 166.971929 
L 274.971949 166.971929 
L 274.971949 133.810665 
L 261.810288 133.810665 
L 261.810288 123.151688 
L 248.648627 123.151688 
L 248.648627 68.672469 
L 235.486966 68.672469 
L 235.486966 150.391297 
L 222.325304 150.391297 
L 222.325304 187.105553 
L 209.163643 187.105553 
L 209.163643 194.211538 
L 196.001982 194.211538 
L 196.001982 239.216111 
L 182.840321 239.216111 
L 182.840321 241.584772 
L 169.678659 241.584772 
L 169.678659 252.24375 
L 156.516998 252.24375 
L 156.516998 251.059419 
L 143.355337 251.059419 
L 143.355337 252.24375 
L 130.193676 252.24375 
L 130.193676 252.24375 
L 117.032014 252.24375 
L 117.032014 252.24375 
L 103.870353 252.24375 
L 103.870353 252.24375 
L 90.708692 252.24375 
L 90.708692 252.24375 
L 77.547031 252.24375 
L 77.547031 252.24375 
z
" clip-path="url(#pe9bae3248b)" style="fill: #2ca02c"/>
   </g>
   <g id="patch_4">
    <path d="M 64.385369 252.24375 
L 64.385369 252.24375 
L 77.547031 252.24375 
L 77.547031 252.24375 
L 90.708692 252.24375 
L 90.708692 252.24375 
L 103.870353 252.24375 
L 103.870353 252.24375 
L 117.032014 252.24375 
L 117.032014 252.24375 
L 130.193676 252.24375 
L 130.193676 252.24375 
L 143.355337 252.24375 
L 143.355337 251.059419 
L 156.516998 251.059419 
L 156.516998 252.24375 
L 169.678659 252.24375 
L 169.678659 241.584772 
L 182.840321 241.584772 
L 182.840321 239.216111 
L 196.001982 239.216111 
L 196.001982 194.211538 
L 209.163643 194.211538 
L 209.163643 187.105553 
L 222.325304 187.105553 
L 222.325304 150.391297 
L 235.486966 150.391297 
L 235.486966 68.672469 
L 248.648627 68.672469 
L 248.648627 123.151688 
L 261.810288 123.151688 
L 261.810288 133.810665 
L 274.971949 133.810665 
L 274.971949 166.971929 
L 288.133611 166.971929 
L 288.133611 221.451148 
L 301.295272 221.451148 
L 301.295272 242.769103 
L 314.456933 242.769103 
L 314.456933 240.400442 
L 327.618594 240.400442 
L 327.618594 252.24375 
L 340.780256 252.24375 
L 340.780256 252.24375 
L 327.618594 252.24375 
L 327.618594 240.400442 
L 314.456933 240.400442 
L 314.456933 242.769103 
L 301.295272 242.769103 
L 301.295272 221.451148 
L 288.133611 221.451148 
L 288.133611 166.971929 
L 274.971949 166.971929 
L 274.971949 133.810665 
L 261.810288 133.810665 
L 261.810288 123.151688 
L 248.648627 123.151688 
L 248.648627 71.04113 
L 235.486966 71.04113 
L 235.486966 150.391297 
L 222.325304 150.391297 
L 222.325304 187.105553 
L 209.163643 187.105553 
L 209.163643 194.211538 
L 196.001982 194.211538 
L 196.001982 239.216111 
L 182.840321 239.216111 
L 182.840321 241.584772 
L 169.678659 241.584772 
L 169.678659 252.24375 
L 156.516998 252.24375 
L 156.516998 251.059419 
L 143.355337 251.059419 
L 143.355337 252.24375 
L 130.193676 252.24375 
L 130.193676 252.24375 
L 117.032014 252.24375 
L 117.032014 252.24375 
L 103.870353 252.24375 
L 103.870353 252.24375 
L 90.708692 252.24375 
L 90.708692 252.24375 
L 77.547031 252.24375 
L 77.547031 252.24375 
z
" clip-path="url(#pe9bae3248b)" style="fill: #ff7f0e"/>
   </g>
   <g id="patch_5">
    <path d="M 64.385369 252.24375 
L 64.385369 252.24375 
L 77.547031 252.24375 
L 77.547031 252.24375 
L 90.708692 252.24375 
L 90.708692 252.24375 
L 103.870353 252.24375 
L 103.870353 252.24375 
L 117.032014 252.24375 
L 117.032014 252.24375 
L 130.193676 252.24375 
L 130.193676 252.24375 
L 143.355337 252.24375 
L 143.355337 251.059419 
L 156.516998 251.059419 
L 156.516998 252.24375 
L 169.678659 252.24375 
L 169.678659 241.584772 
L 182.840321 241.584772 
L 182.840321 239.216111 
L 196.001982 239.216111 
L 196.001982 194.211538 
L 209.163643 194.211538 
L 209.163643 187.105553 
L 222.325304 187.105553 
L 222.325304 150.391297 
L 235.486966 150.391297 
L 235.486966 71.04113 
L 248.648627 71.04113 
L 248.648627 123.151688 
L 261.810288 123.151688 
L 261.810288 133.810665 
L 274.971949 133.810665 
L 274.971949 166.971929 
L 288.133611 166.971929 
L 288.133611 221.451148 
L 301.295272 221.451148 
L 301.295272 242.769103 
L 314.456933 242.769103 
L 314.456933 240.400442 
L 327.618594 240.400442 
L 327.618594 252.24375 
L 340.780256 252.24375 
L 340.780256 252.24375 
L 327.618594 252.24375 
L 327.618594 252.24375 
L 314.456933 252.24375 
L 314.456933 252.24375 
L 301.295272 252.24375 
L 301.295272 252.24375 
L 288.133611 252.24375 
L 288.133611 252.24375 
L 274.971949 252.24375 
L 274.971949 252.24375 
L 261.810288 252.24375 
L 261.810288 252.24375 
L 248.648627 252.24375 
L 248.648627 252.24375 
L 235.486966 252.24375 
L 235.486966 252.24375 
L 222.325304 252.24375 
L 222.325304 252.24375 
L 209.163643 252.24375 
L 209.163643 252.24375 
L 196.001982 252.24375 
L 196.001982 252.24375 
L 182.840321 252.24375 
L 182.840321 252.24375 
L 169.678659 252.24375 
L 169.678659 252.24375 
L 156.516998 252.24375 
L 156.516998 252.24375 
L 143.355337 252.24375 
L 143.355337 252.24375 
L 130.193676 252.24375 
L 130.193676 252.24375 
L 117.032014 252.24375 
L 117.032014 252.24375 
L 103.870353 252.24375 
L 103.870353 252.24375 
L 90.708692 252.24375 
L 90.708692 252.24375 
L 77.547031 252.24375 
L 77.547031 252.24375 
z
" clip-path="url(#pe9bae3248b)" style="fill: #1f77b4"/>
   </g>
   <g id="matplotlib.axis_1">
    <g id="xtick_1">
     <g id="line2d_1">
      <defs>
       <path id="mcba23ba3fa" d="M 0 0 
L 0 3.5 
" style="stroke: #000000; stroke-width: 0.8"/>
      </defs>
      <g>
       <use xlink:href="#mcba23ba3fa" x="70.9662" y="252.24375" style="stroke: #000000; stroke-width: 0.8"/>
      </g>
     </g>
     <g id="text_1">
      <!-- 0.0 -->
      <g transform="translate(63.014637 266.842187)scale(0.1 -0.1)">
       <defs>
        <path id="DejaVuSans-30" d="M 2034 4250 
Q 1547 4250 1301 3770 
Q 1056 3291 1056 2328 
Q 1056 1369 1301 889 
Q 1547 409 2034 409 
Q 2525 409 2770 889 
Q 3016 1369 3016 2328 
Q 3016 3291 2770 3770 
Q 2525 4250 2034 4250 
z
M 2034 4750 
Q 2819 4750 3233 4129 
Q 3647 3509 3647 2328 
Q 3647 1150 3233 529 
Q 2819 -91 2034 -91 
Q 1250 -91 836 529 
Q 422 1150 422 2328 
Q 422 3509 836 4129 
Q 1250 4750 2034 4750 
z
" transform="scale(0.015625)"/>
        <path id="DejaVuSans-2e" d="M 684 794 
L 1344 794 
L 1344 0 
L 684 0 
L 684 794 
z
" transform="scale(0.015625)"/>
       </defs>
       <use xlink:href="#DejaVuSans-30"/>
       <use xlink:href="#DejaVuSans-2e" x="63.623047"/>
       <use xlink:href="#DejaVuSans-30" x="95.410156"/>
      </g>
     </g>
    </g>
    <g id="xtick_2">
     <g id="line2d_2">
      <g>
       <use xlink:href="#mcba23ba3fa" x="123.612845" y="252.24375" style="stroke: #000000; stroke-width: 0.8"/>
      </g>
     </g>
     <g id="text_2">
      <!-- 0.2 -->
      <g transform="translate(115.661282 266.842187)scale(0.1 -0.1)">
       <defs>
        <path id="DejaVuSans-32" d="M 1228 531 
L 3431 531 
L 3431 0 
L 469 0 
L 469 531 
Q 828 903 1448 1529 
Q 2069 2156 2228 2338 
Q 2531 2678 2651 2914 
Q 2772 3150 2772 3378 
Q 2772 3750 2511 3984 
Q 2250 4219 1831 4219 
Q 1534 4219 1204 4116 
Q 875 4013 500 3803 
L 500 4441 
Q 881 4594 1212 4672 
Q 1544 4750 1819 4750 
Q 2544 4750 2975 4387 
Q 3406 4025 3406 3419 
Q 3406 3131 3298 2873 
Q 3191 2616 2906 2266 
Q 2828 2175 2409 1742 
Q 1991 1309 1228 531 
z
" transform="scale(0.015625)"/>
       </defs>
       <use xlink:href="#DejaVuSans-30"/>
       <use xlink:href="#DejaVuSans-2e" x="63.623047"/>
       <use xlink:href="#DejaVuSans-32" x="95.410156"/>
      </g>
     </g>
    </g>
    <g id="xtick_3">
     <g id="line2d_3">
      <g>
       <use xlink:href="#mcba23ba3fa" x="176.25949" y="252.24375" style="stroke: #000000; stroke-width: 0.8"/>
      </g>
     </g>
     <g id="text_3">
      <!-- 0.4 -->
      <g transform="translate(168.307927 266.842187)scale(0.1 -0.1)">
       <defs>
        <path id="DejaVuSans-34" d="M 2419 4116 
L 825 1625 
L 2419 1625 
L 2419 4116 
z
M 2253 4666 
L 3047 4666 
L 3047 1625 
L 3713 1625 
L 3713 1100 
L 3047 1100 
L 3047 0 
L 2419 0 
L 2419 1100 
L 313 1100 
L 313 1709 
L 2253 4666 
z
" transform="scale(0.015625)"/>
       </defs>
       <use xlink:href="#DejaVuSans-30"/>
       <use xlink:href="#DejaVuSans-2e" x="63.623047"/>
       <use xlink:href="#DejaVuSans-34" x="95.410156"/>
      </g>
     </g>
    </g>
    <g id="xtick_4">
     <g id="line2d_4">
      <g>
       <use xlink:href="#mcba23ba3fa" x="228.906135" y="252.24375" style="stroke: #000000; stroke-width: 0.8"/>
      </g>
     </g>
     <g id="text_4">
      <!-- 0.6 -->
      <g transform="translate(220.954573 266.842187)scale(0.1 -0.1)">
       <defs>
        <path id="DejaVuSans-36" d="M 2113 2584 
Q 1688 2584 1439 2293 
Q 1191 2003 1191 1497 
Q 1191 994 1439 701 
Q 1688 409 2113 409 
Q 2538 409 2786 701 
Q 3034 994 3034 1497 
Q 3034 2003 2786 2293 
Q 2538 2584 2113 2584 
z
M 3366 4563 
L 3366 3988 
Q 3128 4100 2886 4159 
Q 2644 4219 2406 4219 
Q 1781 4219 1451 3797 
Q 1122 3375 1075 2522 
Q 1259 2794 1537 2939 
Q 1816 3084 2150 3084 
Q 2853 3084 3261 2657 
Q 3669 2231 3669 1497 
Q 3669 778 3244 343 
Q 2819 -91 2113 -91 
Q 1303 -91 875 529 
Q 447 1150 447 2328 
Q 447 3434 972 4092 
Q 1497 4750 2381 4750 
Q 2619 4750 2861 4703 
Q 3103 4656 3366 4563 
z
" transform="scale(0.015625)"/>
       </defs>
       <use xlink:href="#DejaVuSans-30"/>
       <use xlink:href="#DejaVuSans-2e" x="63.623047"/>
       <use xlink:href="#DejaVuSans-36" x="95.410156"/>
      </g>
     </g>
    </g>
    <g id="xtick_5">
     <g id="line2d_5">
      <g>
       <use xlink:href="#mcba23ba3fa" x="281.55278" y="252.24375" style="stroke: #000000; stroke-width: 0.8"/>
      </g>
     </g>
     <g id="text_5">
      <!-- 0.8 -->
      <g transform="translate(273.601218 266.842187)scale(0.1 -0.1)">
       <defs>
        <path id="DejaVuSans-38" d="M 2034 2216 
Q 1584 2216 1326 1975 
Q 1069 1734 1069 1313 
Q 1069 891 1326 650 
Q 1584 409 2034 409 
Q 2484 409 2743 651 
Q 3003 894 3003 1313 
Q 3003 1734 2745 1975 
Q 2488 2216 2034 2216 
z
M 1403 2484 
Q 997 2584 770 2862 
Q 544 3141 544 3541 
Q 544 4100 942 4425 
Q 1341 4750 2034 4750 
Q 2731 4750 3128 4425 
Q 3525 4100 3525 3541 
Q 3525 3141 3298 2862 
Q 3072 2584 2669 2484 
Q 3125 2378 3379 2068 
Q 3634 1759 3634 1313 
Q 3634 634 3220 271 
Q 2806 -91 2034 -91 
Q 1263 -91 848 271 
Q 434 634 434 1313 
Q 434 1759 690 2068 
Q 947 2378 1403 2484 
z
M 1172 3481 
Q 1172 3119 1398 2916 
Q 1625 2713 2034 2713 
Q 2441 2713 2670 2916 
Q 2900 3119 2900 3481 
Q 2900 3844 2670 4047 
Q 2441 4250 2034 4250 
Q 1625 4250 1398 4047 
Q 1172 3844 1172 3481 
z
" transform="scale(0.015625)"/>
       </defs>
       <use xlink:href="#DejaVuSans-30"/>
       <use xlink:href="#DejaVuSans-2e" x="63.623047"/>
       <use xlink:href="#DejaVuSans-38" x="95.410156"/>
      </g>
     </g>
    </g>
    <g id="xtick_6">
     <g id="line2d_6">
      <g>
       <use xlink:href="#mcba23ba3fa" x="334.199425" y="252.24375" style="stroke: #000000; stroke-width: 0.8"/>
      </g>
     </g>
     <g id="text_6">
      <!-- 1.0 -->
      <g transform="translate(326.247863 266.842187)scale(0.1 -0.1)">
       <defs>
        <path id="DejaVuSans-31" d="M 794 531 
L 1825 531 
L 1825 4091 
L 703 3866 
L 703 4441 
L 1819 4666 
L 2450 4666 
L 2450 531 
L 3481 531 
L 3481 0 
L 794 0 
L 794 531 
z
" transform="scale(0.015625)"/>
       </defs>
       <use xlink:href="#DejaVuSans-31"/>
       <use xlink:href="#DejaVuSans-2e" x="63.623047"/>
       <use xlink:href="#DejaVuSans-30" x="95.410156"/>
      </g>
     </g>
    </g>
    <g id="text_7">
     <!-- Hit Probability -->
     <g transform="translate(167.455469 280.520312)scale(0.1 -0.1)">
      <defs>
       <path id="DejaVuSans-48" d="M 628 4666 
L 1259 4666 
L 1259 2753 
L 3553 2753 
L 3553 4666 
L 4184 4666 
L 4184 0 
L 3553 0 
L 3553 2222 
L 1259 2222 
L 1259 0 
L 628 0 
L 628 4666 
z
" transform="scale(0.015625)"/>
       <path id="DejaVuSans-69" d="M 603 3500 
L 1178 3500 
L 1178 0 
L 603 0 
L 603 3500 
z
M 603 4863 
L 1178 4863 
L 1178 4134 
L 603 4134 
L 603 4863 
z
" transform="scale(0.015625)"/>
       <path id="DejaVuSans-74" d="M 1172 4494 
L 1172 3500 
L 2356 3500 
L 2356 3053 
L 1172 3053 
L 1172 1153 
Q 1172 725 1289 603 
Q 1406 481 1766 481 
L 2356 481 
L 2356 0 
L 1766 0 
Q 1100 0 847 248 
Q 594 497 594 1153 
L 594 3053 
L 172 3053 
L 172 3500 
L 594 3500 
L 594 4494 
L 1172 4494 
z
" transform="scale(0.015625)"/>
       <path id="DejaVuSans-20" transform="scale(0.015625)"/>
       <path id="DejaVuSans-50" d="M 1259 4147 
L 1259 2394 
L 2053 2394 
Q 2494 2394 2734 2622 
Q 2975 2850 2975 3272 
Q 2975 3691 2734 3919 
Q 2494 4147 2053 4147 
L 1259 4147 
z
M 628 4666 
L 2053 4666 
Q 2838 4666 3239 4311 
Q 3641 3956 3641 3272 
Q 3641 2581 3239 2228 
Q 2838 1875 2053 1875 
L 1259 1875 
L 1259 0 
L 628 0 
L 628 4666 
z
" transform="scale(0.015625)"/>
       <path id="DejaVuSans-72" d="M 2631 2963 
Q 2534 3019 2420 3045 
Q 2306 3072 2169 3072 
Q 1681 3072 1420 2755 
Q 1159 2438 1159 1844 
L 1159 0 
L 581 0 
L 581 3500 
L 1159 3500 
L 1159 2956 
Q 1341 3275 1631 3429 
Q 1922 3584 2338 3584 
Q 2397 3584 2469 3576 
Q 2541 3569 2628 3553 
L 2631 2963 
z
" transform="scale(0.015625)"/>
       <path id="DejaVuSans-6f" d="M 1959 3097 
Q 1497 3097 1228 2736 
Q 959 2375 959 1747 
Q 959 1119 1226 758 
Q 1494 397 1959 397 
Q 2419 397 2687 759 
Q 2956 1122 2956 1747 
Q 2956 2369 2687 2733 
Q 2419 3097 1959 3097 
z
M 1959 3584 
Q 2709 3584 3137 3096 
Q 3566 2609 3566 1747 
Q 3566 888 3137 398 
Q 2709 -91 1959 -91 
Q 1206 -91 779 398 
Q 353 888 353 1747 
Q 353 2609 779 3096 
Q 1206 3584 1959 3584 
z
" transform="scale(0.015625)"/>
       <path id="DejaVuSans-62" d="M 3116 1747 
Q 3116 2381 2855 2742 
Q 2594 3103 2138 3103 
Q 1681 3103 1420 2742 
Q 1159 2381 1159 1747 
Q 1159 1113 1420 752 
Q 1681 391 2138 391 
Q 2594 391 2855 752 
Q 3116 1113 3116 1747 
z
M 1159 2969 
Q 1341 3281 1617 3432 
Q 1894 3584 2278 3584 
Q 2916 3584 3314 3078 
Q 3713 2572 3713 1747 
Q 3713 922 3314 415 
Q 2916 -91 2278 -91 
Q 1894 -91 1617 61 
Q 1341 213 1159 525 
L 1159 0 
L 581 0 
L 581 4863 
L 1159 4863 
L 1159 2969 
z
" transform="scale(0.015625)"/>
       <path id="DejaVuSans-61" d="M 2194 1759 
Q 1497 1759 1228 1600 
Q 959 1441 959 1056 
Q 959 750 1161 570 
Q 1363 391 1709 391 
Q 2188 391 2477 730 
Q 2766 1069 2766 1631 
L 2766 1759 
L 2194 1759 
z
M 3341 1997 
L 3341 0 
L 2766 0 
L 2766 531 
Q 2569 213 2275 61 
Q 1981 -91 1556 -91 
Q 1019 -91 701 211 
Q 384 513 384 1019 
Q 384 1609 779 1909 
Q 1175 2209 1959 2209 
L 2766 2209 
L 2766 2266 
Q 2766 2663 2505 2880 
Q 2244 3097 1772 3097 
Q 1472 3097 1187 3025 
Q 903 2953 641 2809 
L 641 3341 
Q 956 3463 1253 3523 
Q 1550 3584 1831 3584 
Q 2591 3584 2966 3190 
Q 3341 2797 3341 1997 
z
" transform="scale(0.015625)"/>
       <path id="DejaVuSans-6c" d="M 603 4863 
L 1178 4863 
L 1178 0 
L 603 0 
L 603 4863 
z
" transform="scale(0.015625)"/>
       <path id="DejaVuSans-79" d="M 2059 -325 
Q 1816 -950 1584 -1140 
Q 1353 -1331 966 -1331 
L 506 -1331 
L 506 -850 
L 844 -850 
Q 1081 -850 1212 -737 
Q 1344 -625 1503 -206 
L 1606 56 
L 191 3500 
L 800 3500 
L 1894 763 
L 2988 3500 
L 3597 3500 
L 2059 -325 
z
" transform="scale(0.015625)"/>
      </defs>
      <use xlink:href="#DejaVuSans-48"/>
      <use xlink:href="#DejaVuSans-69" x="75.195312"/>
      <use xlink:href="#DejaVuSans-74" x="102.978516"/>
      <use xlink:href="#DejaVuSans-20" x="142.1875"/>
      <use xlink:href="#DejaVuSans-50" x="173.974609"/>
      <use xlink:href="#DejaVuSans-72" x="232.527344"/>
      <use xlink:href="#DejaVuSans-6f" x="271.390625"/>
      <use xlink:href="#DejaVuSans-62" x="332.572266"/>
      <use xlink:href="#DejaVuSans-61" x="396.048828"/>
      <use xlink:href="#DejaVuSans-62" x="457.328125"/>
      <use xlink:href="#DejaVuSans-69" x="520.804688"/>
      <use xlink:href="#DejaVuSans-6c" x="548.587891"/>
      <use xlink:href="#DejaVuSans-69" x="576.371094"/>
      <use xlink:href="#DejaVuSans-74" x="604.154297"/>
      <use xlink:href="#DejaVuSans-79" x="643.363281"/>
     </g>
    </g>
   </g>
   <g id="matplotlib.axis_2">
    <g id="ytick_1">
     <g id="line2d_7">
      <defs>
       <path id="me1f93a3ad9" d="M 0 0 
L -3.5 0 
" style="stroke: #000000; stroke-width: 0.8"/>
      </defs>
      <g>
       <use xlink:href="#me1f93a3ad9" x="50.565625" y="252.24375" style="stroke: #000000; stroke-width: 0.8"/>
      </g>
     </g>
     <g id="text_8">
      <!-- 0 -->
      <g transform="translate(37.203125 256.042969)scale(0.1 -0.1)">
       <use xlink:href="#DejaVuSans-30"/>
      </g>
     </g>
    </g>
    <g id="ytick_2">
     <g id="line2d_8">
      <g>
       <use xlink:href="#me1f93a3ad9" x="50.565625" y="228.557133" style="stroke: #000000; stroke-width: 0.8"/>
      </g>
     </g>
     <g id="text_9">
      <!-- 20 -->
      <g transform="translate(30.840625 232.356352)scale(0.1 -0.1)">
       <use xlink:href="#DejaVuSans-32"/>
       <use xlink:href="#DejaVuSans-30" x="63.623047"/>
      </g>
     </g>
    </g>
    <g id="ytick_3">
     <g id="line2d_9">
      <g>
       <use xlink:href="#me1f93a3ad9" x="50.565625" y="204.870516" style="stroke: #000000; stroke-width: 0.8"/>
      </g>
     </g>
     <g id="text_10">
      <!-- 40 -->
      <g transform="translate(30.840625 208.669735)scale(0.1 -0.1)">
       <use xlink:href="#DejaVuSans-34"/>
       <use xlink:href="#DejaVuSans-30" x="63.623047"/>
      </g>
     </g>
    </g>
    <g id="ytick_4">
     <g id="line2d_10">
      <g>
       <use xlink:href="#me1f93a3ad9" x="50.565625" y="181.183899" style="stroke: #000000; stroke-width: 0.8"/>
      </g>
     </g>
     <g id="text_11">
      <!-- 60 -->
      <g transform="translate(30.840625 184.983118)scale(0.1 -0.1)">
       <use xlink:href="#DejaVuSans-36"/>
       <use xlink:href="#DejaVuSans-30" x="63.623047"/>
      </g>
     </g>
    </g>
    <g id="ytick_5">
     <g id="line2d_11">
      <g>
       <use xlink:href="#me1f93a3ad9" x="50.565625" y="157.497282" style="stroke: #000000; stroke-width: 0.8"/>
      </g>
     </g>
     <g id="text_12">
      <!-- 80 -->
      <g transform="translate(30.840625 161.296501)scale(0.1 -0.1)">
       <use xlink:href="#DejaVuSans-38"/>
       <use xlink:href="#DejaVuSans-30" x="63.623047"/>
      </g>
     </g>
    </g>
    <g id="ytick_6">
     <g id="line2d_12">
      <g>
       <use xlink:href="#me1f93a3ad9" x="50.565625" y="133.810665" style="stroke: #000000; stroke-width: 0.8"/>
      </g>
     </g>
     <g id="text_13">
      <!-- 100 -->
      <g transform="translate(24.478125 137.609884)scale(0.1 -0.1)">
       <use xlink:href="#DejaVuSans-31"/>
       <use xlink:href="#DejaVuSans-30" x="63.623047"/>
       <use xlink:href="#DejaVuSans-30" x="127.246094"/>
      </g>
     </g>
    </g>
    <g id="ytick_7">
     <g id="line2d_13">
      <g>
       <use xlink:href="#me1f93a3ad9" x="50.565625" y="110.124048" style="stroke: #000000; stroke-width: 0.8"/>
      </g>
     </g>
     <g id="text_14">
      <!-- 120 -->
      <g transform="translate(24.478125 113.923267)scale(0.1 -0.1)">
       <use xlink:href="#DejaVuSans-31"/>
       <use xlink:href="#DejaVuSans-32" x="63.623047"/>
       <use xlink:href="#DejaVuSans-30" x="127.246094"/>
      </g>
     </g>
    </g>
    <g id="ytick_8">
     <g id="line2d_14">
      <g>
       <use xlink:href="#me1f93a3ad9" x="50.565625" y="86.437431" style="stroke: #000000; stroke-width: 0.8"/>
      </g>
     </g>
     <g id="text_15">
      <!-- 140 -->
      <g transform="translate(24.478125 90.23665)scale(0.1 -0.1)">
       <use xlink:href="#DejaVuSans-31"/>
       <use xlink:href="#DejaVuSans-34" x="63.623047"/>
       <use xlink:href="#DejaVuSans-30" x="127.246094"/>
      </g>
     </g>
    </g>
    <g id="ytick_9">
     <g id="line2d_15">
      <g>
       <use xlink:href="#me1f93a3ad9" x="50.565625" y="62.750814" style="stroke: #000000; stroke-width: 0.8"/>
      </g>
     </g>
     <g id="text_16">
      <!-- 160 -->
      <g transform="translate(24.478125 66.550033)scale(0.1 -0.1)">
       <use xlink:href="#DejaVuSans-31"/>
       <use xlink:href="#DejaVuSans-36" x="63.623047"/>
       <use xlink:href="#DejaVuSans-30" x="127.246094"/>
      </g>
     </g>
    </g>
    <g id="ytick_10">
     <g id="line2d_16">
      <g>
       <use xlink:href="#me1f93a3ad9" x="50.565625" y="39.064197" style="stroke: #000000; stroke-width: 0.8"/>
      </g>
     </g>
     <g id="text_17">
      <!-- 180 -->
      <g transform="translate(24.478125 42.863416)scale(0.1 -0.1)">
       <use xlink:href="#DejaVuSans-31"/>
       <use xlink:href="#DejaVuSans-38" x="63.623047"/>
       <use xlink:href="#DejaVuSans-30" x="127.246094"/>
      </g>
     </g>
    </g>
    <g id="text_18">
     <!-- Count -->
     <g transform="translate(18.398437 153.929375)rotate(-90)scale(0.1 -0.1)">
      <defs>
       <path id="DejaVuSans-43" d="M 4122 4306 
L 4122 3641 
Q 3803 3938 3442 4084 
Q 3081 4231 2675 4231 
Q 1875 4231 1450 3742 
Q 1025 3253 1025 2328 
Q 1025 1406 1450 917 
Q 1875 428 2675 428 
Q 3081 428 3442 575 
Q 3803 722 4122 1019 
L 4122 359 
Q 3791 134 3420 21 
Q 3050 -91 2638 -91 
Q 1578 -91 968 557 
Q 359 1206 359 2328 
Q 359 3453 968 4101 
Q 1578 4750 2638 4750 
Q 3056 4750 3426 4639 
Q 3797 4528 4122 4306 
z
" transform="scale(0.015625)"/>
       <path id="DejaVuSans-75" d="M 544 1381 
L 544 3500 
L 1119 3500 
L 1119 1403 
Q 1119 906 1312 657 
Q 1506 409 1894 409 
Q 2359 409 2629 706 
Q 2900 1003 2900 1516 
L 2900 3500 
L 3475 3500 
L 3475 0 
L 2900 0 
L 2900 538 
Q 2691 219 2414 64 
Q 2138 -91 1772 -91 
Q 1169 -91 856 284 
Q 544 659 544 1381 
z
M 1991 3584 
L 1991 3584 
z
" transform="scale(0.015625)"/>
       <path id="DejaVuSans-6e" d="M 3513 2113 
L 3513 0 
L 2938 0 
L 2938 2094 
Q 2938 2591 2744 2837 
Q 2550 3084 2163 3084 
Q 1697 3084 1428 2787 
Q 1159 2491 1159 1978 
L 1159 0 
L 581 0 
L 581 3500 
L 1159 3500 
L 1159 2956 
Q 1366 3272 1645 3428 
Q 1925 3584 2291 3584 
Q 2894 3584 3203 3211 
Q 3513 2838 3513 2113 
z
" transform="scale(0.015625)"/>
      </defs>
      <use xlink:href="#DejaVuSans-43"/>
      <use xlink:href="#DejaVuSans-6f" x="69.824219"/>
      <use xlink:href="#DejaVuSans-75" x="131.005859"/>
      <use xlink:href="#DejaVuSans-6e" x="194.384766"/>
      <use xlink:href="#DejaVuSans-74" x="257.763672"/>
     </g>
    </g>
   </g>
   <g id="patch_6">
    <path d="M 50.565625 252.24375 
L 50.565625 25.918125 
" style="fill: none; stroke: #000000; stroke-width: 0.8; stroke-linejoin: miter; stroke-linecap: square"/>
   </g>
   <g id="patch_7">
    <path d="M 354.6 252.24375 
L 354.6 25.918125 
" style="fill: none; stroke: #000000; stroke-width: 0.8; stroke-linejoin: miter; stroke-linecap: square"/>
   </g>
   <g id="patch_8">
    <path d="M 50.565625 252.24375 
L 354.6 252.24375 
" style="fill: none; stroke: #000000; stroke-width: 0.8; stroke-linejoin: miter; stroke-linecap: square"/>
   </g>
   <g id="patch_9">
    <path d="M 50.565625 25.918125 
L 354.6 25.918125 
" style="fill: none; stroke: #000000; stroke-width: 0.8; stroke-linejoin: miter; stroke-linecap: square"/>
   </g>
   <g id="text_19">
    <!-- Level 5, AB 7, CR 1-9 -->
    <g transform="translate(139.380313 19.918125)scale(0.12 -0.12)">
     <defs>
      <path id="DejaVuSans-4c" d="M 628 4666 
L 1259 4666 
L 1259 531 
L 3531 531 
L 3531 0 
L 628 0 
L 628 4666 
z
" transform="scale(0.015625)"/>
      <path id="DejaVuSans-65" d="M 3597 1894 
L 3597 1613 
L 953 1613 
Q 991 1019 1311 708 
Q 1631 397 2203 397 
Q 2534 397 2845 478 
Q 3156 559 3463 722 
L 3463 178 
Q 3153 47 2828 -22 
Q 2503 -91 2169 -91 
Q 1331 -91 842 396 
Q 353 884 353 1716 
Q 353 2575 817 3079 
Q 1281 3584 2069 3584 
Q 2775 3584 3186 3129 
Q 3597 2675 3597 1894 
z
M 3022 2063 
Q 3016 2534 2758 2815 
Q 2500 3097 2075 3097 
Q 1594 3097 1305 2825 
Q 1016 2553 972 2059 
L 3022 2063 
z
" transform="scale(0.015625)"/>
      <path id="DejaVuSans-76" d="M 191 3500 
L 800 3500 
L 1894 563 
L 2988 3500 
L 3597 3500 
L 2284 0 
L 1503 0 
L 191 3500 
z
" transform="scale(0.015625)"/>
      <path id="DejaVuSans-35" d="M 691 4666 
L 3169 4666 
L 3169 4134 
L 1269 4134 
L 1269 2991 
Q 1406 3038 1543 3061 
Q 1681 3084 1819 3084 
Q 2600 3084 3056 2656 
Q 3513 2228 3513 1497 
Q 3513 744 3044 326 
Q 2575 -91 1722 -91 
Q 1428 -91 1123 -41 
Q 819 9 494 109 
L 494 744 
Q 775 591 1075 516 
Q 1375 441 1709 441 
Q 2250 441 2565 725 
Q 2881 1009 2881 1497 
Q 2881 1984 2565 2268 
Q 2250 2553 1709 2553 
Q 1456 2553 1204 2497 
Q 953 2441 691 2322 
L 691 4666 
z
" transform="scale(0.015625)"/>
      <path id="DejaVuSans-2c" d="M 750 794 
L 1409 794 
L 1409 256 
L 897 -744 
L 494 -744 
L 750 256 
L 750 794 
z
" transform="scale(0.015625)"/>
      <path id="DejaVuSans-41" d="M 2188 4044 
L 1331 1722 
L 3047 1722 
L 2188 4044 
z
M 1831 4666 
L 2547 4666 
L 4325 0 
L 3669 0 
L 3244 1197 
L 1141 1197 
L 716 0 
L 50 0 
L 1831 4666 
z
" transform="scale(0.015625)"/>
      <path id="DejaVuSans-42" d="M 1259 2228 
L 1259 519 
L 2272 519 
Q 2781 519 3026 730 
Q 3272 941 3272 1375 
Q 3272 1813 3026 2020 
Q 2781 2228 2272 2228 
L 1259 2228 
z
M 1259 4147 
L 1259 2741 
L 2194 2741 
Q 2656 2741 2882 2914 
Q 3109 3088 3109 3444 
Q 3109 3797 2882 3972 
Q 2656 4147 2194 4147 
L 1259 4147 
z
M 628 4666 
L 2241 4666 
Q 2963 4666 3353 4366 
Q 3744 4066 3744 3513 
Q 3744 3084 3544 2831 
Q 3344 2578 2956 2516 
Q 3422 2416 3680 2098 
Q 3938 1781 3938 1306 
Q 3938 681 3513 340 
Q 3088 0 2303 0 
L 628 0 
L 628 4666 
z
" transform="scale(0.015625)"/>
      <path id="DejaVuSans-37" d="M 525 4666 
L 3525 4666 
L 3525 4397 
L 1831 0 
L 1172 0 
L 2766 4134 
L 525 4134 
L 525 4666 
z
" transform="scale(0.015625)"/>
      <path id="DejaVuSans-52" d="M 2841 2188 
Q 3044 2119 3236 1894 
Q 3428 1669 3622 1275 
L 4263 0 
L 3584 0 
L 2988 1197 
Q 2756 1666 2539 1819 
Q 2322 1972 1947 1972 
L 1259 1972 
L 1259 0 
L 628 0 
L 628 4666 
L 2053 4666 
Q 2853 4666 3247 4331 
Q 3641 3997 3641 3322 
Q 3641 2881 3436 2590 
Q 3231 2300 2841 2188 
z
M 1259 4147 
L 1259 2491 
L 2053 2491 
Q 2509 2491 2742 2702 
Q 2975 2913 2975 3322 
Q 2975 3731 2742 3939 
Q 2509 4147 2053 4147 
L 1259 4147 
z
" transform="scale(0.015625)"/>
      <path id="DejaVuSans-2d" d="M 313 2009 
L 1997 2009 
L 1997 1497 
L 313 1497 
L 313 2009 
z
" transform="scale(0.015625)"/>
      <path id="DejaVuSans-39" d="M 703 97 
L 703 672 
Q 941 559 1184 500 
Q 1428 441 1663 441 
Q 2288 441 2617 861 
Q 2947 1281 2994 2138 
Q 2813 1869 2534 1725 
Q 2256 1581 1919 1581 
Q 1219 1581 811 2004 
Q 403 2428 403 3163 
Q 403 3881 828 4315 
Q 1253 4750 1959 4750 
Q 2769 4750 3195 4129 
Q 3622 3509 3622 2328 
Q 3622 1225 3098 567 
Q 2575 -91 1691 -91 
Q 1453 -91 1209 -44 
Q 966 3 703 97 
z
M 1959 2075 
Q 2384 2075 2632 2365 
Q 2881 2656 2881 3163 
Q 2881 3666 2632 3958 
Q 2384 4250 1959 4250 
Q 1534 4250 1286 3958 
Q 1038 3666 1038 3163 
Q 1038 2656 1286 2365 
Q 1534 2075 1959 2075 
z
" transform="scale(0.015625)"/>
     </defs>
     <use xlink:href="#DejaVuSans-4c"/>
     <use xlink:href="#DejaVuSans-65" x="53.962891"/>
     <use xlink:href="#DejaVuSans-76" x="115.486328"/>
     <use xlink:href="#DejaVuSans-65" x="174.666016"/>
     <use xlink:href="#DejaVuSans-6c" x="236.189453"/>
     <use xlink:href="#DejaVuSans-20" x="263.972656"/>
     <use xlink:href="#DejaVuSans-35" x="295.759766"/>
     <use xlink:href="#DejaVuSans-2c" x="359.382812"/>
     <use xlink:href="#DejaVuSans-20" x="391.169922"/>
     <use xlink:href="#DejaVuSans-41" x="422.957031"/>
     <use xlink:href="#DejaVuSans-42" x="491.365234"/>
     <use xlink:href="#DejaVuSans-20" x="559.96875"/>
     <use xlink:href="#DejaVuSans-37" x="591.755859"/>
     <use xlink:href="#DejaVuSans-2c" x="655.378906"/>
     <use xlink:href="#DejaVuSans-20" x="687.166016"/>
     <use xlink:href="#DejaVuSans-43" x="718.953125"/>
     <use xlink:href="#DejaVuSans-52" x="788.777344"/>
     <use xlink:href="#DejaVuSans-20" x="858.259766"/>
     <use xlink:href="#DejaVuSans-31" x="890.046875"/>
     <use xlink:href="#DejaVuSans-2d" x="953.669922"/>
     <use xlink:href="#DejaVuSans-39" x="989.753906"/>
    </g>
   </g>
   <g id="legend_1">
    <g id="patch_10">
     <path d="M 57.565625 77.9525 
L 142.460938 77.9525 
Q 144.460938 77.9525 144.460938 75.9525 
L 144.460938 32.918125 
Q 144.460938 30.918125 142.460938 30.918125 
L 57.565625 30.918125 
Q 55.565625 30.918125 55.565625 32.918125 
L 55.565625 75.9525 
Q 55.565625 77.9525 57.565625 77.9525 
z
" style="fill: #ffffff; opacity: 0.8; stroke: #cccccc; stroke-linejoin: miter"/>
    </g>
    <g id="patch_11">
     <path d="M 59.565625 42.516562 
L 79.565625 42.516562 
L 79.565625 35.516562 
L 59.565625 35.516562 
z
" style="fill: #2ca02c"/>
    </g>
    <g id="text_20">
     <!-- Unique -->
     <g transform="translate(87.565625 42.516562)scale(0.1 -0.1)">
      <defs>
       <path id="DejaVuSans-55" d="M 556 4666 
L 1191 4666 
L 1191 1831 
Q 1191 1081 1462 751 
Q 1734 422 2344 422 
Q 2950 422 3222 751 
Q 3494 1081 3494 1831 
L 3494 4666 
L 4128 4666 
L 4128 1753 
Q 4128 841 3676 375 
Q 3225 -91 2344 -91 
Q 1459 -91 1007 375 
Q 556 841 556 1753 
L 556 4666 
z
" transform="scale(0.015625)"/>
       <path id="DejaVuSans-71" d="M 947 1747 
Q 947 1113 1208 752 
Q 1469 391 1925 391 
Q 2381 391 2643 752 
Q 2906 1113 2906 1747 
Q 2906 2381 2643 2742 
Q 2381 3103 1925 3103 
Q 1469 3103 1208 2742 
Q 947 2381 947 1747 
z
M 2906 525 
Q 2725 213 2448 61 
Q 2172 -91 1784 -91 
Q 1150 -91 751 415 
Q 353 922 353 1747 
Q 353 2572 751 3078 
Q 1150 3584 1784 3584 
Q 2172 3584 2448 3432 
Q 2725 3281 2906 2969 
L 2906 3500 
L 3481 3500 
L 3481 -1331 
L 2906 -1331 
L 2906 525 
z
" transform="scale(0.015625)"/>
      </defs>
      <use xlink:href="#DejaVuSans-55"/>
      <use xlink:href="#DejaVuSans-6e" x="73.193359"/>
      <use xlink:href="#DejaVuSans-69" x="136.572266"/>
      <use xlink:href="#DejaVuSans-71" x="164.355469"/>
      <use xlink:href="#DejaVuSans-75" x="227.832031"/>
      <use xlink:href="#DejaVuSans-65" x="291.210938"/>
     </g>
    </g>
    <g id="patch_12">
     <path d="M 59.565625 57.194687 
L 79.565625 57.194687 
L 79.565625 50.194687 
L 59.565625 50.194687 
z
" style="fill: #ff7f0e"/>
    </g>
    <g id="text_21">
     <!-- Legendary -->
     <g transform="translate(87.565625 57.194687)scale(0.1 -0.1)">
      <defs>
       <path id="DejaVuSans-67" d="M 2906 1791 
Q 2906 2416 2648 2759 
Q 2391 3103 1925 3103 
Q 1463 3103 1205 2759 
Q 947 2416 947 1791 
Q 947 1169 1205 825 
Q 1463 481 1925 481 
Q 2391 481 2648 825 
Q 2906 1169 2906 1791 
z
M 3481 434 
Q 3481 -459 3084 -895 
Q 2688 -1331 1869 -1331 
Q 1566 -1331 1297 -1286 
Q 1028 -1241 775 -1147 
L 775 -588 
Q 1028 -725 1275 -790 
Q 1522 -856 1778 -856 
Q 2344 -856 2625 -561 
Q 2906 -266 2906 331 
L 2906 616 
Q 2728 306 2450 153 
Q 2172 0 1784 0 
Q 1141 0 747 490 
Q 353 981 353 1791 
Q 353 2603 747 3093 
Q 1141 3584 1784 3584 
Q 2172 3584 2450 3431 
Q 2728 3278 2906 2969 
L 2906 3500 
L 3481 3500 
L 3481 434 
z
" transform="scale(0.015625)"/>
       <path id="DejaVuSans-64" d="M 2906 2969 
L 2906 4863 
L 3481 4863 
L 3481 0 
L 2906 0 
L 2906 525 
Q 2725 213 2448 61 
Q 2172 -91 1784 -91 
Q 1150 -91 751 415 
Q 353 922 353 1747 
Q 353 2572 751 3078 
Q 1150 3584 1784 3584 
Q 2172 3584 2448 3432 
Q 2725 3281 2906 2969 
z
M 947 1747 
Q 947 1113 1208 752 
Q 1469 391 1925 391 
Q 2381 391 2643 752 
Q 2906 1113 2906 1747 
Q 2906 2381 2643 2742 
Q 2381 3103 1925 3103 
Q 1469 3103 1208 2742 
Q 947 2381 947 1747 
z
" transform="scale(0.015625)"/>
      </defs>
      <use xlink:href="#DejaVuSans-4c"/>
      <use xlink:href="#DejaVuSans-65" x="53.962891"/>
      <use xlink:href="#DejaVuSans-67" x="115.486328"/>
      <use xlink:href="#DejaVuSans-65" x="178.962891"/>
      <use xlink:href="#DejaVuSans-6e" x="240.486328"/>
      <use xlink:href="#DejaVuSans-64" x="303.865234"/>
      <use xlink:href="#DejaVuSans-61" x="367.341797"/>
      <use xlink:href="#DejaVuSans-72" x="428.621094"/>
      <use xlink:href="#DejaVuSans-79" x="469.734375"/>
     </g>
    </g>
    <g id="patch_13">
     <path d="M 59.565625 71.872812 
L 79.565625 71.872812 
L 79.565625 64.872812 
L 59.565625 64.872812 
z
" style="fill: #1f77b4"/>
    </g>
    <g id="text_22">
     <!-- Generic -->
     <g transform="translate(87.565625 71.872812)scale(0.1 -0.1)">
      <defs>
       <path id="DejaVuSans-47" d="M 3809 666 
L 3809 1919 
L 2778 1919 
L 2778 2438 
L 4434 2438 
L 4434 434 
Q 4069 175 3628 42 
Q 3188 -91 2688 -91 
Q 1594 -91 976 548 
Q 359 1188 359 2328 
Q 359 3472 976 4111 
Q 1594 4750 2688 4750 
Q 3144 4750 3555 4637 
Q 3966 4525 4313 4306 
L 4313 3634 
Q 3963 3931 3569 4081 
Q 3175 4231 2741 4231 
Q 1884 4231 1454 3753 
Q 1025 3275 1025 2328 
Q 1025 1384 1454 906 
Q 1884 428 2741 428 
Q 3075 428 3337 486 
Q 3600 544 3809 666 
z
" transform="scale(0.015625)"/>
       <path id="DejaVuSans-63" d="M 3122 3366 
L 3122 2828 
Q 2878 2963 2633 3030 
Q 2388 3097 2138 3097 
Q 1578 3097 1268 2742 
Q 959 2388 959 1747 
Q 959 1106 1268 751 
Q 1578 397 2138 397 
Q 2388 397 2633 464 
Q 2878 531 3122 666 
L 3122 134 
Q 2881 22 2623 -34 
Q 2366 -91 2075 -91 
Q 1284 -91 818 406 
Q 353 903 353 1747 
Q 353 2603 823 3093 
Q 1294 3584 2113 3584 
Q 2378 3584 2631 3529 
Q 2884 3475 3122 3366 
z
" transform="scale(0.015625)"/>
      </defs>
      <use xlink:href="#DejaVuSans-47"/>
      <use xlink:href="#DejaVuSans-65" x="77.490234"/>
      <use xlink:href="#DejaVuSans-6e" x="139.013672"/>
      <use xlink:href="#DejaVuSans-65" x="202.392578"/>
      <use xlink:href="#DejaVuSans-72" x="263.916016"/>
      <use xlink:href="#DejaVuSans-69" x="305.029297"/>
      <use xlink:href="#DejaVuSans-63" x="332.8125"/>
     </g>
    </g>
   </g>
  </g>
  <g id="axes_2">
   <g id="patch_14">
    <path d="M 405.165625 252.24375 
L 709.2 252.24375 
L 709.2 25.918125 
L 405.165625 25.918125 
z
" style="fill: #ffffff"/>
   </g>
   <g id="patch_15">
    <path d="M 418.985369 252.24375 
L 418.985369 252.24375 
L 432.147031 252.24375 
L 432.147031 252.24375 
L 445.308692 252.24375 
L 445.308692 252.24375 
L 458.470353 252.24375 
L 458.470353 252.24375 
L 471.632014 252.24375 
L 471.632014 252.24375 
L 484.793676 252.24375 
L 484.793676 250.369418 
L 497.955337 250.369418 
L 497.955337 252.24375 
L 511.116998 252.24375 
L 511.116998 250.369418 
L 524.278659 250.369418 
L 524.278659 246.620753 
L 537.440321 246.620753 
L 537.440321 229.751762 
L 550.601982 229.751762 
L 550.601982 207.259775 
L 563.763643 207.259775 
L 563.763643 102.297166 
L 576.925304 102.297166 
L 576.925304 106.045831 
L 590.086966 106.045831 
L 590.086966 111.668828 
L 603.248627 111.668828 
L 603.248627 36.695536 
L 616.410288 36.695536 
L 616.410288 145.406809 
L 629.571949 145.406809 
L 629.571949 203.51111 
L 642.733611 203.51111 
L 642.733611 220.380101 
L 655.895272 220.380101 
L 655.895272 244.746421 
L 669.056933 244.746421 
L 669.056933 231.626095 
L 682.218594 231.626095 
L 682.218594 252.24375 
L 695.380256 252.24375 
L 695.380256 252.24375 
L 682.218594 252.24375 
L 682.218594 240.997756 
L 669.056933 240.997756 
L 669.056933 248.495085 
L 655.895272 248.495085 
L 655.895272 233.500427 
L 642.733611 233.500427 
L 642.733611 216.631436 
L 629.571949 216.631436 
L 629.571949 167.898797 
L 616.410288 167.898797 
L 616.410288 74.182182 
L 603.248627 74.182182 
L 603.248627 143.532477 
L 590.086966 143.532477 
L 590.086966 136.035148 
L 576.925304 136.035148 
L 576.925304 122.914821 
L 563.763643 122.914821 
L 563.763643 214.757104 
L 550.601982 214.757104 
L 550.601982 233.500427 
L 537.440321 233.500427 
L 537.440321 248.495085 
L 524.278659 248.495085 
L 524.278659 250.369418 
L 511.116998 250.369418 
L 511.116998 252.24375 
L 497.955337 252.24375 
L 497.955337 252.24375 
L 484.793676 252.24375 
L 484.793676 252.24375 
L 471.632014 252.24375 
L 471.632014 252.24375 
L 458.470353 252.24375 
L 458.470353 252.24375 
L 445.308692 252.24375 
L 445.308692 252.24375 
L 432.147031 252.24375 
L 432.147031 252.24375 
z
" clip-path="url(#pbbab6bb9fc)" style="fill: #2ca02c"/>
   </g>
   <g id="patch_16">
    <path d="M 418.985369 252.24375 
L 418.985369 252.24375 
L 432.147031 252.24375 
L 432.147031 252.24375 
L 445.308692 252.24375 
L 445.308692 252.24375 
L 458.470353 252.24375 
L 458.470353 252.24375 
L 471.632014 252.24375 
L 471.632014 252.24375 
L 484.793676 252.24375 
L 484.793676 252.24375 
L 497.955337 252.24375 
L 497.955337 252.24375 
L 511.116998 252.24375 
L 511.116998 250.369418 
L 524.278659 250.369418 
L 524.278659 248.495085 
L 537.440321 248.495085 
L 537.440321 233.500427 
L 550.601982 233.500427 
L 550.601982 214.757104 
L 563.763643 214.757104 
L 563.763643 122.914821 
L 576.925304 122.914821 
L 576.925304 136.035148 
L 590.086966 136.035148 
L 590.086966 143.532477 
L 603.248627 143.532477 
L 603.248627 74.182182 
L 616.410288 74.182182 
L 616.410288 167.898797 
L 629.571949 167.898797 
L 629.571949 216.631436 
L 642.733611 216.631436 
L 642.733611 233.500427 
L 655.895272 233.500427 
L 655.895272 248.495085 
L 669.056933 248.495085 
L 669.056933 240.997756 
L 682.218594 240.997756 
L 682.218594 252.24375 
L 695.380256 252.24375 
L 695.380256 252.24375 
L 682.218594 252.24375 
L 682.218594 244.746421 
L 669.056933 244.746421 
L 669.056933 248.495085 
L 655.895272 248.495085 
L 655.895272 233.500427 
L 642.733611 233.500427 
L 642.733611 216.631436 
L 629.571949 216.631436 
L 629.571949 173.521793 
L 616.410288 173.521793 
L 616.410288 76.056514 
L 603.248627 76.056514 
L 603.248627 152.904138 
L 590.086966 152.904138 
L 590.086966 149.155474 
L 576.925304 149.155474 
L 576.925304 145.406809 
L 563.763643 145.406809 
L 563.763643 224.128766 
L 550.601982 224.128766 
L 550.601982 235.374759 
L 537.440321 235.374759 
L 537.440321 248.495085 
L 524.278659 248.495085 
L 524.278659 250.369418 
L 511.116998 250.369418 
L 511.116998 252.24375 
L 497.955337 252.24375 
L 497.955337 252.24375 
L 484.793676 252.24375 
L 484.793676 252.24375 
L 471.632014 252.24375 
L 471.632014 252.24375 
L 458.470353 252.24375 
L 458.470353 252.24375 
L 445.308692 252.24375 
L 445.308692 252.24375 
L 432.147031 252.24375 
L 432.147031 252.24375 
z
" clip-path="url(#pbbab6bb9fc)" style="fill: #ff7f0e"/>
   </g>
   <g id="patch_17">
    <path d="M 418.985369 252.24375 
L 418.985369 252.24375 
L 432.147031 252.24375 
L 432.147031 252.24375 
L 445.308692 252.24375 
L 445.308692 252.24375 
L 458.470353 252.24375 
L 458.470353 252.24375 
L 471.632014 252.24375 
L 471.632014 252.24375 
L 484.793676 252.24375 
L 484.793676 252.24375 
L 497.955337 252.24375 
L 497.955337 252.24375 
L 511.116998 252.24375 
L 511.116998 250.369418 
L 524.278659 250.369418 
L 524.278659 248.495085 
L 537.440321 248.495085 
L 537.440321 235.374759 
L 550.601982 235.374759 
L 550.601982 224.128766 
L 563.763643 224.128766 
L 563.763643 145.406809 
L 576.925304 145.406809 
L 576.925304 149.155474 
L 590.086966 149.155474 
L 590.086966 152.904138 
L 603.248627 152.904138 
L 603.248627 76.056514 
L 616.410288 76.056514 
L 616.410288 173.521793 
L 629.571949 173.521793 
L 629.571949 216.631436 
L 642.733611 216.631436 
L 642.733611 233.500427 
L 655.895272 233.500427 
L 655.895272 248.495085 
L 669.056933 248.495085 
L 669.056933 244.746421 
L 682.218594 244.746421 
L 682.218594 252.24375 
L 695.380256 252.24375 
L 695.380256 252.24375 
L 682.218594 252.24375 
L 682.218594 252.24375 
L 669.056933 252.24375 
L 669.056933 252.24375 
L 655.895272 252.24375 
L 655.895272 252.24375 
L 642.733611 252.24375 
L 642.733611 252.24375 
L 629.571949 252.24375 
L 629.571949 252.24375 
L 616.410288 252.24375 
L 616.410288 252.24375 
L 603.248627 252.24375 
L 603.248627 252.24375 
L 590.086966 252.24375 
L 590.086966 252.24375 
L 576.925304 252.24375 
L 576.925304 252.24375 
L 563.763643 252.24375 
L 563.763643 252.24375 
L 550.601982 252.24375 
L 550.601982 252.24375 
L 537.440321 252.24375 
L 537.440321 252.24375 
L 524.278659 252.24375 
L 524.278659 252.24375 
L 511.116998 252.24375 
L 511.116998 252.24375 
L 497.955337 252.24375 
L 497.955337 252.24375 
L 484.793676 252.24375 
L 484.793676 252.24375 
L 471.632014 252.24375 
L 471.632014 252.24375 
L 458.470353 252.24375 
L 458.470353 252.24375 
L 445.308692 252.24375 
L 445.308692 252.24375 
L 432.147031 252.24375 
L 432.147031 252.24375 
z
" clip-path="url(#pbbab6bb9fc)" style="fill: #1f77b4"/>
   </g>
   <g id="matplotlib.axis_3">
    <g id="xtick_7">
     <g id="line2d_17">
      <g>
       <use xlink:href="#mcba23ba3fa" x="425.5662" y="252.24375" style="stroke: #000000; stroke-width: 0.8"/>
      </g>
     </g>
     <g id="text_23">
      <!-- 0.0 -->
      <g transform="translate(417.614637 266.842187)scale(0.1 -0.1)">
       <use xlink:href="#DejaVuSans-30"/>
       <use xlink:href="#DejaVuSans-2e" x="63.623047"/>
       <use xlink:href="#DejaVuSans-30" x="95.410156"/>
      </g>
     </g>
    </g>
    <g id="xtick_8">
     <g id="line2d_18">
      <g>
       <use xlink:href="#mcba23ba3fa" x="478.212845" y="252.24375" style="stroke: #000000; stroke-width: 0.8"/>
      </g>
     </g>
     <g id="text_24">
      <!-- 0.2 -->
      <g transform="translate(470.261282 266.842187)scale(0.1 -0.1)">
       <use xlink:href="#DejaVuSans-30"/>
       <use xlink:href="#DejaVuSans-2e" x="63.623047"/>
       <use xlink:href="#DejaVuSans-32" x="95.410156"/>
      </g>
     </g>
    </g>
    <g id="xtick_9">
     <g id="line2d_19">
      <g>
       <use xlink:href="#mcba23ba3fa" x="530.85949" y="252.24375" style="stroke: #000000; stroke-width: 0.8"/>
      </g>
     </g>
     <g id="text_25">
      <!-- 0.4 -->
      <g transform="translate(522.907927 266.842187)scale(0.1 -0.1)">
       <use xlink:href="#DejaVuSans-30"/>
       <use xlink:href="#DejaVuSans-2e" x="63.623047"/>
       <use xlink:href="#DejaVuSans-34" x="95.410156"/>
      </g>
     </g>
    </g>
    <g id="xtick_10">
     <g id="line2d_20">
      <g>
       <use xlink:href="#mcba23ba3fa" x="583.506135" y="252.24375" style="stroke: #000000; stroke-width: 0.8"/>
      </g>
     </g>
     <g id="text_26">
      <!-- 0.6 -->
      <g transform="translate(575.554573 266.842187)scale(0.1 -0.1)">
       <use xlink:href="#DejaVuSans-30"/>
       <use xlink:href="#DejaVuSans-2e" x="63.623047"/>
       <use xlink:href="#DejaVuSans-36" x="95.410156"/>
      </g>
     </g>
    </g>
    <g id="xtick_11">
     <g id="line2d_21">
      <g>
       <use xlink:href="#mcba23ba3fa" x="636.15278" y="252.24375" style="stroke: #000000; stroke-width: 0.8"/>
      </g>
     </g>
     <g id="text_27">
      <!-- 0.8 -->
      <g transform="translate(628.201218 266.842187)scale(0.1 -0.1)">
       <use xlink:href="#DejaVuSans-30"/>
       <use xlink:href="#DejaVuSans-2e" x="63.623047"/>
       <use xlink:href="#DejaVuSans-38" x="95.410156"/>
      </g>
     </g>
    </g>
    <g id="xtick_12">
     <g id="line2d_22">
      <g>
       <use xlink:href="#mcba23ba3fa" x="688.799425" y="252.24375" style="stroke: #000000; stroke-width: 0.8"/>
      </g>
     </g>
     <g id="text_28">
      <!-- 1.0 -->
      <g transform="translate(680.847863 266.842187)scale(0.1 -0.1)">
       <use xlink:href="#DejaVuSans-31"/>
       <use xlink:href="#DejaVuSans-2e" x="63.623047"/>
       <use xlink:href="#DejaVuSans-30" x="95.410156"/>
      </g>
     </g>
    </g>
    <g id="text_29">
     <!-- Hit Probability -->
     <g transform="translate(522.055469 280.520312)scale(0.1 -0.1)">
      <use xlink:href="#DejaVuSans-48"/>
      <use xlink:href="#DejaVuSans-69" x="75.195312"/>
      <use xlink:href="#DejaVuSans-74" x="102.978516"/>
      <use xlink:href="#DejaVuSans-20" x="142.1875"/>
      <use xlink:href="#DejaVuSans-50" x="173.974609"/>
      <use xlink:href="#DejaVuSans-72" x="232.527344"/>
      <use xlink:href="#DejaVuSans-6f" x="271.390625"/>
      <use xlink:href="#DejaVuSans-62" x="332.572266"/>
      <use xlink:href="#DejaVuSans-61" x="396.048828"/>
      <use xlink:href="#DejaVuSans-62" x="457.328125"/>
      <use xlink:href="#DejaVuSans-69" x="520.804688"/>
      <use xlink:href="#DejaVuSans-6c" x="548.587891"/>
      <use xlink:href="#DejaVuSans-69" x="576.371094"/>
      <use xlink:href="#DejaVuSans-74" x="604.154297"/>
      <use xlink:href="#DejaVuSans-79" x="643.363281"/>
     </g>
    </g>
   </g>
   <g id="matplotlib.axis_4">
    <g id="ytick_11">
     <g id="line2d_23">
      <g>
       <use xlink:href="#me1f93a3ad9" x="405.165625" y="252.24375" style="stroke: #000000; stroke-width: 0.8"/>
      </g>
     </g>
     <g id="text_30">
      <!-- 0 -->
      <g transform="translate(391.803125 256.042969)scale(0.1 -0.1)">
       <use xlink:href="#DejaVuSans-30"/>
      </g>
     </g>
    </g>
    <g id="ytick_12">
     <g id="line2d_24">
      <g>
       <use xlink:href="#me1f93a3ad9" x="405.165625" y="233.500427" style="stroke: #000000; stroke-width: 0.8"/>
      </g>
     </g>
     <g id="text_31">
      <!-- 10 -->
      <g transform="translate(385.440625 237.299646)scale(0.1 -0.1)">
       <use xlink:href="#DejaVuSans-31"/>
       <use xlink:href="#DejaVuSans-30" x="63.623047"/>
      </g>
     </g>
    </g>
    <g id="ytick_13">
     <g id="line2d_25">
      <g>
       <use xlink:href="#me1f93a3ad9" x="405.165625" y="214.757104" style="stroke: #000000; stroke-width: 0.8"/>
      </g>
     </g>
     <g id="text_32">
      <!-- 20 -->
      <g transform="translate(385.440625 218.556323)scale(0.1 -0.1)">
       <use xlink:href="#DejaVuSans-32"/>
       <use xlink:href="#DejaVuSans-30" x="63.623047"/>
      </g>
     </g>
    </g>
    <g id="ytick_14">
     <g id="line2d_26">
      <g>
       <use xlink:href="#me1f93a3ad9" x="405.165625" y="196.013781" style="stroke: #000000; stroke-width: 0.8"/>
      </g>
     </g>
     <g id="text_33">
      <!-- 30 -->
      <g transform="translate(385.440625 199.813)scale(0.1 -0.1)">
       <defs>
        <path id="DejaVuSans-33" d="M 2597 2516 
Q 3050 2419 3304 2112 
Q 3559 1806 3559 1356 
Q 3559 666 3084 287 
Q 2609 -91 1734 -91 
Q 1441 -91 1130 -33 
Q 819 25 488 141 
L 488 750 
Q 750 597 1062 519 
Q 1375 441 1716 441 
Q 2309 441 2620 675 
Q 2931 909 2931 1356 
Q 2931 1769 2642 2001 
Q 2353 2234 1838 2234 
L 1294 2234 
L 1294 2753 
L 1863 2753 
Q 2328 2753 2575 2939 
Q 2822 3125 2822 3475 
Q 2822 3834 2567 4026 
Q 2313 4219 1838 4219 
Q 1578 4219 1281 4162 
Q 984 4106 628 3988 
L 628 4550 
Q 988 4650 1302 4700 
Q 1616 4750 1894 4750 
Q 2613 4750 3031 4423 
Q 3450 4097 3450 3541 
Q 3450 3153 3228 2886 
Q 3006 2619 2597 2516 
z
" transform="scale(0.015625)"/>
       </defs>
       <use xlink:href="#DejaVuSans-33"/>
       <use xlink:href="#DejaVuSans-30" x="63.623047"/>
      </g>
     </g>
    </g>
    <g id="ytick_15">
     <g id="line2d_27">
      <g>
       <use xlink:href="#me1f93a3ad9" x="405.165625" y="177.270458" style="stroke: #000000; stroke-width: 0.8"/>
      </g>
     </g>
     <g id="text_34">
      <!-- 40 -->
      <g transform="translate(385.440625 181.069677)scale(0.1 -0.1)">
       <use xlink:href="#DejaVuSans-34"/>
       <use xlink:href="#DejaVuSans-30" x="63.623047"/>
      </g>
     </g>
    </g>
    <g id="ytick_16">
     <g id="line2d_28">
      <g>
       <use xlink:href="#me1f93a3ad9" x="405.165625" y="158.527135" style="stroke: #000000; stroke-width: 0.8"/>
      </g>
     </g>
     <g id="text_35">
      <!-- 50 -->
      <g transform="translate(385.440625 162.326354)scale(0.1 -0.1)">
       <use xlink:href="#DejaVuSans-35"/>
       <use xlink:href="#DejaVuSans-30" x="63.623047"/>
      </g>
     </g>
    </g>
    <g id="ytick_17">
     <g id="line2d_29">
      <g>
       <use xlink:href="#me1f93a3ad9" x="405.165625" y="139.783812" style="stroke: #000000; stroke-width: 0.8"/>
      </g>
     </g>
     <g id="text_36">
      <!-- 60 -->
      <g transform="translate(385.440625 143.583031)scale(0.1 -0.1)">
       <use xlink:href="#DejaVuSans-36"/>
       <use xlink:href="#DejaVuSans-30" x="63.623047"/>
      </g>
     </g>
    </g>
    <g id="ytick_18">
     <g id="line2d_30">
      <g>
       <use xlink:href="#me1f93a3ad9" x="405.165625" y="121.040489" style="stroke: #000000; stroke-width: 0.8"/>
      </g>
     </g>
     <g id="text_37">
      <!-- 70 -->
      <g transform="translate(385.440625 124.839708)scale(0.1 -0.1)">
       <use xlink:href="#DejaVuSans-37"/>
       <use xlink:href="#DejaVuSans-30" x="63.623047"/>
      </g>
     </g>
    </g>
    <g id="ytick_19">
     <g id="line2d_31">
      <g>
       <use xlink:href="#me1f93a3ad9" x="405.165625" y="102.297166" style="stroke: #000000; stroke-width: 0.8"/>
      </g>
     </g>
     <g id="text_38">
      <!-- 80 -->
      <g transform="translate(385.440625 106.096385)scale(0.1 -0.1)">
       <use xlink:href="#DejaVuSans-38"/>
       <use xlink:href="#DejaVuSans-30" x="63.623047"/>
      </g>
     </g>
    </g>
    <g id="ytick_20">
     <g id="line2d_32">
      <g>
       <use xlink:href="#me1f93a3ad9" x="405.165625" y="83.553843" style="stroke: #000000; stroke-width: 0.8"/>
      </g>
     </g>
     <g id="text_39">
      <!-- 90 -->
      <g transform="translate(385.440625 87.353062)scale(0.1 -0.1)">
       <use xlink:href="#DejaVuSans-39"/>
       <use xlink:href="#DejaVuSans-30" x="63.623047"/>
      </g>
     </g>
    </g>
    <g id="ytick_21">
     <g id="line2d_33">
      <g>
       <use xlink:href="#me1f93a3ad9" x="405.165625" y="64.81052" style="stroke: #000000; stroke-width: 0.8"/>
      </g>
     </g>
     <g id="text_40">
      <!-- 100 -->
      <g transform="translate(379.078125 68.609739)scale(0.1 -0.1)">
       <use xlink:href="#DejaVuSans-31"/>
       <use xlink:href="#DejaVuSans-30" x="63.623047"/>
       <use xlink:href="#DejaVuSans-30" x="127.246094"/>
      </g>
     </g>
    </g>
    <g id="ytick_22">
     <g id="line2d_34">
      <g>
       <use xlink:href="#me1f93a3ad9" x="405.165625" y="46.067197" style="stroke: #000000; stroke-width: 0.8"/>
      </g>
     </g>
     <g id="text_41">
      <!-- 110 -->
      <g transform="translate(379.078125 49.866416)scale(0.1 -0.1)">
       <use xlink:href="#DejaVuSans-31"/>
       <use xlink:href="#DejaVuSans-31" x="63.623047"/>
       <use xlink:href="#DejaVuSans-30" x="127.246094"/>
      </g>
     </g>
    </g>
    <g id="ytick_23">
     <g id="line2d_35">
      <g>
       <use xlink:href="#me1f93a3ad9" x="405.165625" y="27.323874" style="stroke: #000000; stroke-width: 0.8"/>
      </g>
     </g>
     <g id="text_42">
      <!-- 120 -->
      <g transform="translate(379.078125 31.123093)scale(0.1 -0.1)">
       <use xlink:href="#DejaVuSans-31"/>
       <use xlink:href="#DejaVuSans-32" x="63.623047"/>
       <use xlink:href="#DejaVuSans-30" x="127.246094"/>
      </g>
     </g>
    </g>
    <g id="text_43">
     <!-- Count -->
     <g transform="translate(372.998438 153.929375)rotate(-90)scale(0.1 -0.1)">
      <use xlink:href="#DejaVuSans-43"/>
      <use xlink:href="#DejaVuSans-6f" x="69.824219"/>
      <use xlink:href="#DejaVuSans-75" x="131.005859"/>
      <use xlink:href="#DejaVuSans-6e" x="194.384766"/>
      <use xlink:href="#DejaVuSans-74" x="257.763672"/>
     </g>
    </g>
   </g>
   <g id="patch_18">
    <path d="M 405.165625 252.24375 
L 405.165625 25.918125 
" style="fill: none; stroke: #000000; stroke-width: 0.8; stroke-linejoin: miter; stroke-linecap: square"/>
   </g>
   <g id="patch_19">
    <path d="M 709.2 252.24375 
L 709.2 25.918125 
" style="fill: none; stroke: #000000; stroke-width: 0.8; stroke-linejoin: miter; stroke-linecap: square"/>
   </g>
   <g id="patch_20">
    <path d="M 405.165625 252.24375 
L 709.2 252.24375 
" style="fill: none; stroke: #000000; stroke-width: 0.8; stroke-linejoin: miter; stroke-linecap: square"/>
   </g>
   <g id="patch_21">
    <path d="M 405.165625 25.918125 
L 709.2 25.918125 
" style="fill: none; stroke: #000000; stroke-width: 0.8; stroke-linejoin: miter; stroke-linecap: square"/>
   </g>
   <g id="text_44">
    <!-- Level 10, AB 8, CR 5-15 -->
    <g transform="translate(486.345313 19.918125)scale(0.12 -0.12)">
     <use xlink:href="#DejaVuSans-4c"/>
     <use xlink:href="#DejaVuSans-65" x="53.962891"/>
     <use xlink:href="#DejaVuSans-76" x="115.486328"/>
     <use xlink:href="#DejaVuSans-65" x="174.666016"/>
     <use xlink:href="#DejaVuSans-6c" x="236.189453"/>
     <use xlink:href="#DejaVuSans-20" x="263.972656"/>
     <use xlink:href="#DejaVuSans-31" x="295.759766"/>
     <use xlink:href="#DejaVuSans-30" x="359.382812"/>
     <use xlink:href="#DejaVuSans-2c" x="423.005859"/>
     <use xlink:href="#DejaVuSans-20" x="454.792969"/>
     <use xlink:href="#DejaVuSans-41" x="486.580078"/>
     <use xlink:href="#DejaVuSans-42" x="554.988281"/>
     <use xlink:href="#DejaVuSans-20" x="623.591797"/>
     <use xlink:href="#DejaVuSans-38" x="655.378906"/>
     <use xlink:href="#DejaVuSans-2c" x="719.001953"/>
     <use xlink:href="#DejaVuSans-20" x="750.789062"/>
     <use xlink:href="#DejaVuSans-43" x="782.576172"/>
     <use xlink:href="#DejaVuSans-52" x="852.400391"/>
     <use xlink:href="#DejaVuSans-20" x="921.882812"/>
     <use xlink:href="#DejaVuSans-35" x="953.669922"/>
     <use xlink:href="#DejaVuSans-2d" x="1017.292969"/>
     <use xlink:href="#DejaVuSans-31" x="1053.376953"/>
     <use xlink:href="#DejaVuSans-35" x="1117"/>
    </g>
   </g>
   <g id="legend_2">
    <g id="patch_22">
     <path d="M 412.165625 77.9525 
L 497.060938 77.9525 
Q 499.060938 77.9525 499.060938 75.9525 
L 499.060938 32.918125 
Q 499.060938 30.918125 497.060938 30.918125 
L 412.165625 30.918125 
Q 410.165625 30.918125 410.165625 32.918125 
L 410.165625 75.9525 
Q 410.165625 77.9525 412.165625 77.9525 
z
" style="fill: #ffffff; opacity: 0.8; stroke: #cccccc; stroke-linejoin: miter"/>
    </g>
    <g id="patch_23">
     <path d="M 414.165625 42.516562 
L 434.165625 42.516562 
L 434.165625 35.516562 
L 414.165625 35.516562 
z
" style="fill: #2ca02c"/>
    </g>
    <g id="text_45">
     <!-- Unique -->
     <g transform="translate(442.165625 42.516562)scale(0.1 -0.1)">
      <use xlink:href="#DejaVuSans-55"/>
      <use xlink:href="#DejaVuSans-6e" x="73.193359"/>
      <use xlink:href="#DejaVuSans-69" x="136.572266"/>
      <use xlink:href="#DejaVuSans-71" x="164.355469"/>
      <use xlink:href="#DejaVuSans-75" x="227.832031"/>
      <use xlink:href="#DejaVuSans-65" x="291.210938"/>
     </g>
    </g>
    <g id="patch_24">
     <path d="M 414.165625 57.194687 
L 434.165625 57.194687 
L 434.165625 50.194687 
L 414.165625 50.194687 
z
" style="fill: #ff7f0e"/>
    </g>
    <g id="text_46">
     <!-- Legendary -->
     <g transform="translate(442.165625 57.194687)scale(0.1 -0.1)">
      <use xlink:href="#DejaVuSans-4c"/>
      <use xlink:href="#DejaVuSans-65" x="53.962891"/>
      <use xlink:href="#DejaVuSans-67" x="115.486328"/>
      <use xlink:href="#DejaVuSans-65" x="178.962891"/>
      <use xlink:href="#DejaVuSans-6e" x="240.486328"/>
      <use xlink:href="#DejaVuSans-64" x="303.865234"/>
      <use xlink:href="#DejaVuSans-61" x="367.341797"/>
      <use xlink:href="#DejaVuSans-72" x="428.621094"/>
      <use xlink:href="#DejaVuSans-79" x="469.734375"/>
     </g>
    </g>
    <g id="patch_25">
     <path d="M 414.165625 71.872812 
L 434.165625 71.872812 
L 434.165625 64.872812 
L 414.165625 64.872812 
z
" style="fill: #1f77b4"/>
    </g>
    <g id="text_47">
     <!-- Generic -->
     <g transform="translate(442.165625 71.872812)scale(0.1 -0.1)">
      <use xlink:href="#DejaVuSans-47"/>
      <use xlink:href="#DejaVuSans-65" x="77.490234"/>
      <use xlink:href="#DejaVuSans-6e" x="139.013672"/>
      <use xlink:href="#DejaVuSans-65" x="202.392578"/>
      <use xlink:href="#DejaVuSans-72" x="263.916016"/>
      <use xlink:href="#DejaVuSans-69" x="305.029297"/>
      <use xlink:href="#DejaVuSans-63" x="332.8125"/>
     </g>
    </g>
   </g>
  </g>
  <g id="axes_3">
   <g id="patch_26">
    <path d="M 50.565625 534.84375 
L 354.6 534.84375 
L 354.6 308.518125 
L 50.565625 308.518125 
z
" style="fill: #ffffff"/>
   </g>
   <g id="patch_27">
    <path d="M 64.385369 534.84375 
L 64.385369 534.84375 
L 77.547031 534.84375 
L 77.547031 534.84375 
L 90.708692 534.84375 
L 90.708692 534.84375 
L 103.870353 534.84375 
L 103.870353 534.84375 
L 117.032014 534.84375 
L 117.032014 534.84375 
L 130.193676 534.84375 
L 130.193676 534.84375 
L 143.355337 534.84375 
L 143.355337 534.84375 
L 156.516998 534.84375 
L 156.516998 531.626612 
L 169.678659 531.626612 
L 169.678659 531.626612 
L 182.840321 531.626612 
L 182.840321 521.9752 
L 196.001982 521.9752 
L 196.001982 518.758062 
L 209.163643 518.758062 
L 209.163643 476.935275 
L 222.325304 476.935275 
L 222.325304 428.678212 
L 235.486966 428.678212 
L 235.486966 319.295536 
L 248.648627 319.295536 
L 248.648627 341.815498 
L 261.810288 341.815498 
L 261.810288 415.809662 
L 274.971949 415.809662 
L 274.971949 444.763899 
L 288.133611 444.763899 
L 288.133611 486.586687 
L 301.295272 486.586687 
L 301.295272 528.409475 
L 314.456933 528.409475 
L 314.456933 512.323787 
L 327.618594 512.323787 
L 327.618594 534.84375 
L 340.780256 534.84375 
L 340.780256 534.84375 
L 327.618594 534.84375 
L 327.618594 521.9752 
L 314.456933 521.9752 
L 314.456933 531.626612 
L 301.295272 531.626612 
L 301.295272 505.889512 
L 288.133611 505.889512 
L 288.133611 467.283862 
L 274.971949 467.283862 
L 274.971949 451.198174 
L 261.810288 451.198174 
L 261.810288 393.289699 
L 248.648627 393.289699 
L 248.648627 357.901186 
L 235.486966 357.901186 
L 235.486966 447.981037 
L 222.325304 447.981037 
L 222.325304 486.586687 
L 209.163643 486.586687 
L 209.163643 518.758062 
L 196.001982 518.758062 
L 196.001982 528.409475 
L 182.840321 528.409475 
L 182.840321 534.84375 
L 169.678659 534.84375 
L 169.678659 534.84375 
L 156.516998 534.84375 
L 156.516998 534.84375 
L 143.355337 534.84375 
L 143.355337 534.84375 
L 130.193676 534.84375 
L 130.193676 534.84375 
L 117.032014 534.84375 
L 117.032014 534.84375 
L 103.870353 534.84375 
L 103.870353 534.84375 
L 90.708692 534.84375 
L 90.708692 534.84375 
L 77.547031 534.84375 
L 77.547031 534.84375 
z
" clip-path="url(#pe863482d72)" style="fill: #2ca02c"/>
   </g>
   <g id="patch_28">
    <path d="M 64.385369 534.84375 
L 64.385369 534.84375 
L 77.547031 534.84375 
L 77.547031 534.84375 
L 90.708692 534.84375 
L 90.708692 534.84375 
L 103.870353 534.84375 
L 103.870353 534.84375 
L 117.032014 534.84375 
L 117.032014 534.84375 
L 130.193676 534.84375 
L 130.193676 534.84375 
L 143.355337 534.84375 
L 143.355337 534.84375 
L 156.516998 534.84375 
L 156.516998 534.84375 
L 169.678659 534.84375 
L 169.678659 534.84375 
L 182.840321 534.84375 
L 182.840321 528.409475 
L 196.001982 528.409475 
L 196.001982 518.758062 
L 209.163643 518.758062 
L 209.163643 486.586687 
L 222.325304 486.586687 
L 222.325304 447.981037 
L 235.486966 447.981037 
L 235.486966 357.901186 
L 248.648627 357.901186 
L 248.648627 393.289699 
L 261.810288 393.289699 
L 261.810288 451.198174 
L 274.971949 451.198174 
L 274.971949 467.283862 
L 288.133611 467.283862 
L 288.133611 505.889512 
L 301.295272 505.889512 
L 301.295272 531.626612 
L 314.456933 531.626612 
L 314.456933 521.9752 
L 327.618594 521.9752 
L 327.618594 534.84375 
L 340.780256 534.84375 
L 340.780256 534.84375 
L 327.618594 534.84375 
L 327.618594 531.626612 
L 314.456933 531.626612 
L 314.456933 531.626612 
L 301.295272 531.626612 
L 301.295272 515.540925 
L 288.133611 515.540925 
L 288.133611 470.500999 
L 274.971949 470.500999 
L 274.971949 470.500999 
L 261.810288 470.500999 
L 261.810288 428.678212 
L 248.648627 428.678212 
L 248.648627 402.941111 
L 235.486966 402.941111 
L 235.486966 489.803825 
L 222.325304 489.803825 
L 222.325304 515.540925 
L 209.163643 515.540925 
L 209.163643 525.192337 
L 196.001982 525.192337 
L 196.001982 531.626612 
L 182.840321 531.626612 
L 182.840321 534.84375 
L 169.678659 534.84375 
L 169.678659 534.84375 
L 156.516998 534.84375 
L 156.516998 534.84375 
L 143.355337 534.84375 
L 143.355337 534.84375 
L 130.193676 534.84375 
L 130.193676 534.84375 
L 117.032014 534.84375 
L 117.032014 534.84375 
L 103.870353 534.84375 
L 103.870353 534.84375 
L 90.708692 534.84375 
L 90.708692 534.84375 
L 77.547031 534.84375 
L 77.547031 534.84375 
z
" clip-path="url(#pe863482d72)" style="fill: #ff7f0e"/>
   </g>
   <g id="patch_29">
    <path d="M 64.385369 534.84375 
L 64.385369 534.84375 
L 77.547031 534.84375 
L 77.547031 534.84375 
L 90.708692 534.84375 
L 90.708692 534.84375 
L 103.870353 534.84375 
L 103.870353 534.84375 
L 117.032014 534.84375 
L 117.032014 534.84375 
L 130.193676 534.84375 
L 130.193676 534.84375 
L 143.355337 534.84375 
L 143.355337 534.84375 
L 156.516998 534.84375 
L 156.516998 534.84375 
L 169.678659 534.84375 
L 169.678659 534.84375 
L 182.840321 534.84375 
L 182.840321 531.626612 
L 196.001982 531.626612 
L 196.001982 525.192337 
L 209.163643 525.192337 
L 209.163643 515.540925 
L 222.325304 515.540925 
L 222.325304 489.803825 
L 235.486966 489.803825 
L 235.486966 402.941111 
L 248.648627 402.941111 
L 248.648627 428.678212 
L 261.810288 428.678212 
L 261.810288 470.500999 
L 274.971949 470.500999 
L 274.971949 470.500999 
L 288.133611 470.500999 
L 288.133611 515.540925 
L 301.295272 515.540925 
L 301.295272 531.626612 
L 314.456933 531.626612 
L 314.456933 531.626612 
L 327.618594 531.626612 
L 327.618594 534.84375 
L 340.780256 534.84375 
L 340.780256 534.84375 
L 327.618594 534.84375 
L 327.618594 534.84375 
L 314.456933 534.84375 
L 314.456933 534.84375 
L 301.295272 534.84375 
L 301.295272 534.84375 
L 288.133611 534.84375 
L 288.133611 534.84375 
L 274.971949 534.84375 
L 274.971949 534.84375 
L 261.810288 534.84375 
L 261.810288 534.84375 
L 248.648627 534.84375 
L 248.648627 534.84375 
L 235.486966 534.84375 
L 235.486966 534.84375 
L 222.325304 534.84375 
L 222.325304 534.84375 
L 209.163643 534.84375 
L 209.163643 534.84375 
L 196.001982 534.84375 
L 196.001982 534.84375 
L 182.840321 534.84375 
L 182.840321 534.84375 
L 169.678659 534.84375 
L 169.678659 534.84375 
L 156.516998 534.84375 
L 156.516998 534.84375 
L 143.355337 534.84375 
L 143.355337 534.84375 
L 130.193676 534.84375 
L 130.193676 534.84375 
L 117.032014 534.84375 
L 117.032014 534.84375 
L 103.870353 534.84375 
L 103.870353 534.84375 
L 90.708692 534.84375 
L 90.708692 534.84375 
L 77.547031 534.84375 
L 77.547031 534.84375 
z
" clip-path="url(#pe863482d72)" style="fill: #1f77b4"/>
   </g>
   <g id="matplotlib.axis_5">
    <g id="xtick_13">
     <g id="line2d_36">
      <g>
       <use xlink:href="#mcba23ba3fa" x="70.9662" y="534.84375" style="stroke: #000000; stroke-width: 0.8"/>
      </g>
     </g>
     <g id="text_48">
      <!-- 0.0 -->
      <g transform="translate(63.014637 549.442187)scale(0.1 -0.1)">
       <use xlink:href="#DejaVuSans-30"/>
       <use xlink:href="#DejaVuSans-2e" x="63.623047"/>
       <use xlink:href="#DejaVuSans-30" x="95.410156"/>
      </g>
     </g>
    </g>
    <g id="xtick_14">
     <g id="line2d_37">
      <g>
       <use xlink:href="#mcba23ba3fa" x="123.612845" y="534.84375" style="stroke: #000000; stroke-width: 0.8"/>
      </g>
     </g>
     <g id="text_49">
      <!-- 0.2 -->
      <g transform="translate(115.661282 549.442187)scale(0.1 -0.1)">
       <use xlink:href="#DejaVuSans-30"/>
       <use xlink:href="#DejaVuSans-2e" x="63.623047"/>
       <use xlink:href="#DejaVuSans-32" x="95.410156"/>
      </g>
     </g>
    </g>
    <g id="xtick_15">
     <g id="line2d_38">
      <g>
       <use xlink:href="#mcba23ba3fa" x="176.25949" y="534.84375" style="stroke: #000000; stroke-width: 0.8"/>
      </g>
     </g>
     <g id="text_50">
      <!-- 0.4 -->
      <g transform="translate(168.307927 549.442187)scale(0.1 -0.1)">
       <use xlink:href="#DejaVuSans-30"/>
       <use xlink:href="#DejaVuSans-2e" x="63.623047"/>
       <use xlink:href="#DejaVuSans-34" x="95.410156"/>
      </g>
     </g>
    </g>
    <g id="xtick_16">
     <g id="line2d_39">
      <g>
       <use xlink:href="#mcba23ba3fa" x="228.906135" y="534.84375" style="stroke: #000000; stroke-width: 0.8"/>
      </g>
     </g>
     <g id="text_51">
      <!-- 0.6 -->
      <g transform="translate(220.954573 549.442187)scale(0.1 -0.1)">
       <use xlink:href="#DejaVuSans-30"/>
       <use xlink:href="#DejaVuSans-2e" x="63.623047"/>
       <use xlink:href="#DejaVuSans-36" x="95.410156"/>
      </g>
     </g>
    </g>
    <g id="xtick_17">
     <g id="line2d_40">
      <g>
       <use xlink:href="#mcba23ba3fa" x="281.55278" y="534.84375" style="stroke: #000000; stroke-width: 0.8"/>
      </g>
     </g>
     <g id="text_52">
      <!-- 0.8 -->
      <g transform="translate(273.601218 549.442187)scale(0.1 -0.1)">
       <use xlink:href="#DejaVuSans-30"/>
       <use xlink:href="#DejaVuSans-2e" x="63.623047"/>
       <use xlink:href="#DejaVuSans-38" x="95.410156"/>
      </g>
     </g>
    </g>
    <g id="xtick_18">
     <g id="line2d_41">
      <g>
       <use xlink:href="#mcba23ba3fa" x="334.199425" y="534.84375" style="stroke: #000000; stroke-width: 0.8"/>
      </g>
     </g>
     <g id="text_53">
      <!-- 1.0 -->
      <g transform="translate(326.247863 549.442187)scale(0.1 -0.1)">
       <use xlink:href="#DejaVuSans-31"/>
       <use xlink:href="#DejaVuSans-2e" x="63.623047"/>
       <use xlink:href="#DejaVuSans-30" x="95.410156"/>
      </g>
     </g>
    </g>
    <g id="text_54">
     <!-- Hit Probability -->
     <g transform="translate(167.455469 563.120312)scale(0.1 -0.1)">
      <use xlink:href="#DejaVuSans-48"/>
      <use xlink:href="#DejaVuSans-69" x="75.195312"/>
      <use xlink:href="#DejaVuSans-74" x="102.978516"/>
      <use xlink:href="#DejaVuSans-20" x="142.1875"/>
      <use xlink:href="#DejaVuSans-50" x="173.974609"/>
      <use xlink:href="#DejaVuSans-72" x="232.527344"/>
      <use xlink:href="#DejaVuSans-6f" x="271.390625"/>
      <use xlink:href="#DejaVuSans-62" x="332.572266"/>
      <use xlink:href="#DejaVuSans-61" x="396.048828"/>
      <use xlink:href="#DejaVuSans-62" x="457.328125"/>
      <use xlink:href="#DejaVuSans-69" x="520.804688"/>
      <use xlink:href="#DejaVuSans-6c" x="548.587891"/>
      <use xlink:href="#DejaVuSans-69" x="576.371094"/>
      <use xlink:href="#DejaVuSans-74" x="604.154297"/>
      <use xlink:href="#DejaVuSans-79" x="643.363281"/>
     </g>
    </g>
   </g>
   <g id="matplotlib.axis_6">
    <g id="ytick_24">
     <g id="line2d_42">
      <g>
       <use xlink:href="#me1f93a3ad9" x="50.565625" y="534.84375" style="stroke: #000000; stroke-width: 0.8"/>
      </g>
     </g>
     <g id="text_55">
      <!-- 0 -->
      <g transform="translate(37.203125 538.642969)scale(0.1 -0.1)">
       <use xlink:href="#DejaVuSans-30"/>
      </g>
     </g>
    </g>
    <g id="ytick_25">
     <g id="line2d_43">
      <g>
       <use xlink:href="#me1f93a3ad9" x="50.565625" y="502.672375" style="stroke: #000000; stroke-width: 0.8"/>
      </g>
     </g>
     <g id="text_56">
      <!-- 10 -->
      <g transform="translate(30.840625 506.471593)scale(0.1 -0.1)">
       <use xlink:href="#DejaVuSans-31"/>
       <use xlink:href="#DejaVuSans-30" x="63.623047"/>
      </g>
     </g>
    </g>
    <g id="ytick_26">
     <g id="line2d_44">
      <g>
       <use xlink:href="#me1f93a3ad9" x="50.565625" y="470.500999" style="stroke: #000000; stroke-width: 0.8"/>
      </g>
     </g>
     <g id="text_57">
      <!-- 20 -->
      <g transform="translate(30.840625 474.300218)scale(0.1 -0.1)">
       <use xlink:href="#DejaVuSans-32"/>
       <use xlink:href="#DejaVuSans-30" x="63.623047"/>
      </g>
     </g>
    </g>
    <g id="ytick_27">
     <g id="line2d_45">
      <g>
       <use xlink:href="#me1f93a3ad9" x="50.565625" y="438.329624" style="stroke: #000000; stroke-width: 0.8"/>
      </g>
     </g>
     <g id="text_58">
      <!-- 30 -->
      <g transform="translate(30.840625 442.128843)scale(0.1 -0.1)">
       <use xlink:href="#DejaVuSans-33"/>
       <use xlink:href="#DejaVuSans-30" x="63.623047"/>
      </g>
     </g>
    </g>
    <g id="ytick_28">
     <g id="line2d_46">
      <g>
       <use xlink:href="#me1f93a3ad9" x="50.565625" y="406.158249" style="stroke: #000000; stroke-width: 0.8"/>
      </g>
     </g>
     <g id="text_59">
      <!-- 40 -->
      <g transform="translate(30.840625 409.957468)scale(0.1 -0.1)">
       <use xlink:href="#DejaVuSans-34"/>
       <use xlink:href="#DejaVuSans-30" x="63.623047"/>
      </g>
     </g>
    </g>
    <g id="ytick_29">
     <g id="line2d_47">
      <g>
       <use xlink:href="#me1f93a3ad9" x="50.565625" y="373.986874" style="stroke: #000000; stroke-width: 0.8"/>
      </g>
     </g>
     <g id="text_60">
      <!-- 50 -->
      <g transform="translate(30.840625 377.786092)scale(0.1 -0.1)">
       <use xlink:href="#DejaVuSans-35"/>
       <use xlink:href="#DejaVuSans-30" x="63.623047"/>
      </g>
     </g>
    </g>
    <g id="ytick_30">
     <g id="line2d_48">
      <g>
       <use xlink:href="#me1f93a3ad9" x="50.565625" y="341.815498" style="stroke: #000000; stroke-width: 0.8"/>
      </g>
     </g>
     <g id="text_61">
      <!-- 60 -->
      <g transform="translate(30.840625 345.614717)scale(0.1 -0.1)">
       <use xlink:href="#DejaVuSans-36"/>
       <use xlink:href="#DejaVuSans-30" x="63.623047"/>
      </g>
     </g>
    </g>
    <g id="ytick_31">
     <g id="line2d_49">
      <g>
       <use xlink:href="#me1f93a3ad9" x="50.565625" y="309.644123" style="stroke: #000000; stroke-width: 0.8"/>
      </g>
     </g>
     <g id="text_62">
      <!-- 70 -->
      <g transform="translate(30.840625 313.443342)scale(0.1 -0.1)">
       <use xlink:href="#DejaVuSans-37"/>
       <use xlink:href="#DejaVuSans-30" x="63.623047"/>
      </g>
     </g>
    </g>
    <g id="text_63">
     <!-- Count -->
     <g transform="translate(24.760937 436.529375)rotate(-90)scale(0.1 -0.1)">
      <use xlink:href="#DejaVuSans-43"/>
      <use xlink:href="#DejaVuSans-6f" x="69.824219"/>
      <use xlink:href="#DejaVuSans-75" x="131.005859"/>
      <use xlink:href="#DejaVuSans-6e" x="194.384766"/>
      <use xlink:href="#DejaVuSans-74" x="257.763672"/>
     </g>
    </g>
   </g>
   <g id="patch_30">
    <path d="M 50.565625 534.84375 
L 50.565625 308.518125 
" style="fill: none; stroke: #000000; stroke-width: 0.8; stroke-linejoin: miter; stroke-linecap: square"/>
   </g>
   <g id="patch_31">
    <path d="M 354.6 534.84375 
L 354.6 308.518125 
" style="fill: none; stroke: #000000; stroke-width: 0.8; stroke-linejoin: miter; stroke-linecap: square"/>
   </g>
   <g id="patch_32">
    <path d="M 50.565625 534.84375 
L 354.6 534.84375 
" style="fill: none; stroke: #000000; stroke-width: 0.8; stroke-linejoin: miter; stroke-linecap: square"/>
   </g>
   <g id="patch_33">
    <path d="M 50.565625 308.518125 
L 354.6 308.518125 
" style="fill: none; stroke: #000000; stroke-width: 0.8; stroke-linejoin: miter; stroke-linecap: square"/>
   </g>
   <g id="text_64">
    <!-- Level 15, AB 10, CR 9-21 -->
    <g transform="translate(127.927812 302.518125)scale(0.12 -0.12)">
     <use xlink:href="#DejaVuSans-4c"/>
     <use xlink:href="#DejaVuSans-65" x="53.962891"/>
     <use xlink:href="#DejaVuSans-76" x="115.486328"/>
     <use xlink:href="#DejaVuSans-65" x="174.666016"/>
     <use xlink:href="#DejaVuSans-6c" x="236.189453"/>
     <use xlink:href="#DejaVuSans-20" x="263.972656"/>
     <use xlink:href="#DejaVuSans-31" x="295.759766"/>
     <use xlink:href="#DejaVuSans-35" x="359.382812"/>
     <use xlink:href="#DejaVuSans-2c" x="423.005859"/>
     <use xlink:href="#DejaVuSans-20" x="454.792969"/>
     <use xlink:href="#DejaVuSans-41" x="486.580078"/>
     <use xlink:href="#DejaVuSans-42" x="554.988281"/>
     <use xlink:href="#DejaVuSans-20" x="623.591797"/>
     <use xlink:href="#DejaVuSans-31" x="655.378906"/>
     <use xlink:href="#DejaVuSans-30" x="719.001953"/>
     <use xlink:href="#DejaVuSans-2c" x="782.625"/>
     <use xlink:href="#DejaVuSans-20" x="814.412109"/>
     <use xlink:href="#DejaVuSans-43" x="846.199219"/>
     <use xlink:href="#DejaVuSans-52" x="916.023438"/>
     <use xlink:href="#DejaVuSans-20" x="985.505859"/>
     <use xlink:href="#DejaVuSans-39" x="1017.292969"/>
     <use xlink:href="#DejaVuSans-2d" x="1080.916016"/>
     <use xlink:href="#DejaVuSans-32" x="1117"/>
     <use xlink:href="#DejaVuSans-31" x="1180.623047"/>
    </g>
   </g>
   <g id="legend_3">
    <g id="patch_34">
     <path d="M 57.565625 360.5525 
L 142.460938 360.5525 
Q 144.460938 360.5525 144.460938 358.5525 
L 144.460938 315.518125 
Q 144.460938 313.518125 142.460938 313.518125 
L 57.565625 313.518125 
Q 55.565625 313.518125 55.565625 315.518125 
L 55.565625 358.5525 
Q 55.565625 360.5525 57.565625 360.5525 
z
" style="fill: #ffffff; opacity: 0.8; stroke: #cccccc; stroke-linejoin: miter"/>
    </g>
    <g id="patch_35">
     <path d="M 59.565625 325.116562 
L 79.565625 325.116562 
L 79.565625 318.116562 
L 59.565625 318.116562 
z
" style="fill: #2ca02c"/>
    </g>
    <g id="text_65">
     <!-- Unique -->
     <g transform="translate(87.565625 325.116562)scale(0.1 -0.1)">
      <use xlink:href="#DejaVuSans-55"/>
      <use xlink:href="#DejaVuSans-6e" x="73.193359"/>
      <use xlink:href="#DejaVuSans-69" x="136.572266"/>
      <use xlink:href="#DejaVuSans-71" x="164.355469"/>
      <use xlink:href="#DejaVuSans-75" x="227.832031"/>
      <use xlink:href="#DejaVuSans-65" x="291.210938"/>
     </g>
    </g>
    <g id="patch_36">
     <path d="M 59.565625 339.794688 
L 79.565625 339.794688 
L 79.565625 332.794688 
L 59.565625 332.794688 
z
" style="fill: #ff7f0e"/>
    </g>
    <g id="text_66">
     <!-- Legendary -->
     <g transform="translate(87.565625 339.794688)scale(0.1 -0.1)">
      <use xlink:href="#DejaVuSans-4c"/>
      <use xlink:href="#DejaVuSans-65" x="53.962891"/>
      <use xlink:href="#DejaVuSans-67" x="115.486328"/>
      <use xlink:href="#DejaVuSans-65" x="178.962891"/>
      <use xlink:href="#DejaVuSans-6e" x="240.486328"/>
      <use xlink:href="#DejaVuSans-64" x="303.865234"/>
      <use xlink:href="#DejaVuSans-61" x="367.341797"/>
      <use xlink:href="#DejaVuSans-72" x="428.621094"/>
      <use xlink:href="#DejaVuSans-79" x="469.734375"/>
     </g>
    </g>
    <g id="patch_37">
     <path d="M 59.565625 354.472813 
L 79.565625 354.472813 
L 79.565625 347.472813 
L 59.565625 347.472813 
z
" style="fill: #1f77b4"/>
    </g>
    <g id="text_67">
     <!-- Generic -->
     <g transform="translate(87.565625 354.472813)scale(0.1 -0.1)">
      <use xlink:href="#DejaVuSans-47"/>
      <use xlink:href="#DejaVuSans-65" x="77.490234"/>
      <use xlink:href="#DejaVuSans-6e" x="139.013672"/>
      <use xlink:href="#DejaVuSans-65" x="202.392578"/>
      <use xlink:href="#DejaVuSans-72" x="263.916016"/>
      <use xlink:href="#DejaVuSans-69" x="305.029297"/>
      <use xlink:href="#DejaVuSans-63" x="332.8125"/>
     </g>
    </g>
   </g>
  </g>
  <g id="axes_4">
   <g id="patch_38">
    <path d="M 405.165625 534.84375 
L 709.2 534.84375 
L 709.2 308.518125 
L 405.165625 308.518125 
z
" style="fill: #ffffff"/>
   </g>
   <g id="patch_39">
    <path d="M 418.985369 534.84375 
L 418.985369 534.84375 
L 432.147031 534.84375 
L 432.147031 534.84375 
L 445.308692 534.84375 
L 445.308692 534.84375 
L 458.470353 534.84375 
L 458.470353 534.84375 
L 471.632014 534.84375 
L 471.632014 534.84375 
L 484.793676 534.84375 
L 484.793676 534.84375 
L 497.955337 534.84375 
L 497.955337 534.84375 
L 511.116998 534.84375 
L 511.116998 534.84375 
L 524.278659 534.84375 
L 524.278659 529.944927 
L 537.440321 529.944927 
L 537.440321 525.046104 
L 550.601982 525.046104 
L 550.601982 431.968466 
L 563.763643 431.968466 
L 563.763643 461.361404 
L 576.925304 461.361404 
L 576.925304 422.17082 
L 590.086966 422.17082 
L 590.086966 373.182589 
L 603.248627 373.182589 
L 603.248627 319.295536 
L 616.410288 319.295536 
L 616.410288 402.575528 
L 629.571949 402.575528 
L 629.571949 456.462581 
L 642.733611 456.462581 
L 642.733611 505.450812 
L 655.895272 505.450812 
L 655.895272 510.349635 
L 669.056933 510.349635 
L 669.056933 510.349635 
L 682.218594 510.349635 
L 682.218594 534.84375 
L 695.380256 534.84375 
L 695.380256 534.84375 
L 682.218594 534.84375 
L 682.218594 515.248458 
L 669.056933 515.248458 
L 669.056933 520.147281 
L 655.895272 520.147281 
L 655.895272 515.248458 
L 642.733611 515.248458 
L 642.733611 480.956696 
L 629.571949 480.956696 
L 629.571949 461.361404 
L 616.410288 461.361404 
L 616.410288 378.081412 
L 603.248627 378.081412 
L 603.248627 427.069643 
L 590.086966 427.069643 
L 590.086966 471.15905 
L 576.925304 471.15905 
L 576.925304 505.450812 
L 563.763643 505.450812 
L 563.763643 490.754343 
L 550.601982 490.754343 
L 550.601982 529.944927 
L 537.440321 529.944927 
L 537.440321 534.84375 
L 524.278659 534.84375 
L 524.278659 534.84375 
L 511.116998 534.84375 
L 511.116998 534.84375 
L 497.955337 534.84375 
L 497.955337 534.84375 
L 484.793676 534.84375 
L 484.793676 534.84375 
L 471.632014 534.84375 
L 471.632014 534.84375 
L 458.470353 534.84375 
L 458.470353 534.84375 
L 445.308692 534.84375 
L 445.308692 534.84375 
L 432.147031 534.84375 
L 432.147031 534.84375 
z
" clip-path="url(#pfc634f6a7b)" style="fill: #2ca02c"/>
   </g>
   <g id="patch_40">
    <path d="M 418.985369 534.84375 
L 418.985369 534.84375 
L 432.147031 534.84375 
L 432.147031 534.84375 
L 445.308692 534.84375 
L 445.308692 534.84375 
L 458.470353 534.84375 
L 458.470353 534.84375 
L 471.632014 534.84375 
L 471.632014 534.84375 
L 484.793676 534.84375 
L 484.793676 534.84375 
L 497.955337 534.84375 
L 497.955337 534.84375 
L 511.116998 534.84375 
L 511.116998 534.84375 
L 524.278659 534.84375 
L 524.278659 534.84375 
L 537.440321 534.84375 
L 537.440321 529.944927 
L 550.601982 529.944927 
L 550.601982 490.754343 
L 563.763643 490.754343 
L 563.763643 505.450812 
L 576.925304 505.450812 
L 576.925304 471.15905 
L 590.086966 471.15905 
L 590.086966 427.069643 
L 603.248627 427.069643 
L 603.248627 378.081412 
L 616.410288 378.081412 
L 616.410288 461.361404 
L 629.571949 461.361404 
L 629.571949 480.956696 
L 642.733611 480.956696 
L 642.733611 515.248458 
L 655.895272 515.248458 
L 655.895272 520.147281 
L 669.056933 520.147281 
L 669.056933 515.248458 
L 682.218594 515.248458 
L 682.218594 534.84375 
L 695.380256 534.84375 
L 695.380256 534.84375 
L 682.218594 534.84375 
L 682.218594 529.944927 
L 669.056933 529.944927 
L 669.056933 529.944927 
L 655.895272 529.944927 
L 655.895272 520.147281 
L 642.733611 520.147281 
L 642.733611 510.349635 
L 629.571949 510.349635 
L 629.571949 495.653166 
L 616.410288 495.653166 
L 616.410288 441.766112 
L 603.248627 441.766112 
L 603.248627 495.653166 
L 590.086966 495.653166 
L 590.086966 510.349635 
L 576.925304 510.349635 
L 576.925304 525.046104 
L 563.763643 525.046104 
L 563.763643 525.046104 
L 550.601982 525.046104 
L 550.601982 529.944927 
L 537.440321 529.944927 
L 537.440321 534.84375 
L 524.278659 534.84375 
L 524.278659 534.84375 
L 511.116998 534.84375 
L 511.116998 534.84375 
L 497.955337 534.84375 
L 497.955337 534.84375 
L 484.793676 534.84375 
L 484.793676 534.84375 
L 471.632014 534.84375 
L 471.632014 534.84375 
L 458.470353 534.84375 
L 458.470353 534.84375 
L 445.308692 534.84375 
L 445.308692 534.84375 
L 432.147031 534.84375 
L 432.147031 534.84375 
z
" clip-path="url(#pfc634f6a7b)" style="fill: #ff7f0e"/>
   </g>
   <g id="patch_41">
    <path d="M 418.985369 534.84375 
L 418.985369 534.84375 
L 432.147031 534.84375 
L 432.147031 534.84375 
L 445.308692 534.84375 
L 445.308692 534.84375 
L 458.470353 534.84375 
L 458.470353 534.84375 
L 471.632014 534.84375 
L 471.632014 534.84375 
L 484.793676 534.84375 
L 484.793676 534.84375 
L 497.955337 534.84375 
L 497.955337 534.84375 
L 511.116998 534.84375 
L 511.116998 534.84375 
L 524.278659 534.84375 
L 524.278659 534.84375 
L 537.440321 534.84375 
L 537.440321 529.944927 
L 550.601982 529.944927 
L 550.601982 525.046104 
L 563.763643 525.046104 
L 563.763643 525.046104 
L 576.925304 525.046104 
L 576.925304 510.349635 
L 590.086966 510.349635 
L 590.086966 495.653166 
L 603.248627 495.653166 
L 603.248627 441.766112 
L 616.410288 441.766112 
L 616.410288 495.653166 
L 629.571949 495.653166 
L 629.571949 510.349635 
L 642.733611 510.349635 
L 642.733611 520.147281 
L 655.895272 520.147281 
L 655.895272 529.944927 
L 669.056933 529.944927 
L 669.056933 529.944927 
L 682.218594 529.944927 
L 682.218594 534.84375 
L 695.380256 534.84375 
L 695.380256 534.84375 
L 682.218594 534.84375 
L 682.218594 534.84375 
L 669.056933 534.84375 
L 669.056933 534.84375 
L 655.895272 534.84375 
L 655.895272 534.84375 
L 642.733611 534.84375 
L 642.733611 534.84375 
L 629.571949 534.84375 
L 629.571949 534.84375 
L 616.410288 534.84375 
L 616.410288 534.84375 
L 603.248627 534.84375 
L 603.248627 534.84375 
L 590.086966 534.84375 
L 590.086966 534.84375 
L 576.925304 534.84375 
L 576.925304 534.84375 
L 563.763643 534.84375 
L 563.763643 534.84375 
L 550.601982 534.84375 
L 550.601982 534.84375 
L 537.440321 534.84375 
L 537.440321 534.84375 
L 524.278659 534.84375 
L 524.278659 534.84375 
L 511.116998 534.84375 
L 511.116998 534.84375 
L 497.955337 534.84375 
L 497.955337 534.84375 
L 484.793676 534.84375 
L 484.793676 534.84375 
L 471.632014 534.84375 
L 471.632014 534.84375 
L 458.470353 534.84375 
L 458.470353 534.84375 
L 445.308692 534.84375 
L 445.308692 534.84375 
L 432.147031 534.84375 
L 432.147031 534.84375 
z
" clip-path="url(#pfc634f6a7b)" style="fill: #1f77b4"/>
   </g>
   <g id="matplotlib.axis_7">
    <g id="xtick_19">
     <g id="line2d_50">
      <g>
       <use xlink:href="#mcba23ba3fa" x="425.5662" y="534.84375" style="stroke: #000000; stroke-width: 0.8"/>
      </g>
     </g>
     <g id="text_68">
      <!-- 0.0 -->
      <g transform="translate(417.614637 549.442187)scale(0.1 -0.1)">
       <use xlink:href="#DejaVuSans-30"/>
       <use xlink:href="#DejaVuSans-2e" x="63.623047"/>
       <use xlink:href="#DejaVuSans-30" x="95.410156"/>
      </g>
     </g>
    </g>
    <g id="xtick_20">
     <g id="line2d_51">
      <g>
       <use xlink:href="#mcba23ba3fa" x="478.212845" y="534.84375" style="stroke: #000000; stroke-width: 0.8"/>
      </g>
     </g>
     <g id="text_69">
      <!-- 0.2 -->
      <g transform="translate(470.261282 549.442187)scale(0.1 -0.1)">
       <use xlink:href="#DejaVuSans-30"/>
       <use xlink:href="#DejaVuSans-2e" x="63.623047"/>
       <use xlink:href="#DejaVuSans-32" x="95.410156"/>
      </g>
     </g>
    </g>
    <g id="xtick_21">
     <g id="line2d_52">
      <g>
       <use xlink:href="#mcba23ba3fa" x="530.85949" y="534.84375" style="stroke: #000000; stroke-width: 0.8"/>
      </g>
     </g>
     <g id="text_70">
      <!-- 0.4 -->
      <g transform="translate(522.907927 549.442187)scale(0.1 -0.1)">
       <use xlink:href="#DejaVuSans-30"/>
       <use xlink:href="#DejaVuSans-2e" x="63.623047"/>
       <use xlink:href="#DejaVuSans-34" x="95.410156"/>
      </g>
     </g>
    </g>
    <g id="xtick_22">
     <g id="line2d_53">
      <g>
       <use xlink:href="#mcba23ba3fa" x="583.506135" y="534.84375" style="stroke: #000000; stroke-width: 0.8"/>
      </g>
     </g>
     <g id="text_71">
      <!-- 0.6 -->
      <g transform="translate(575.554573 549.442187)scale(0.1 -0.1)">
       <use xlink:href="#DejaVuSans-30"/>
       <use xlink:href="#DejaVuSans-2e" x="63.623047"/>
       <use xlink:href="#DejaVuSans-36" x="95.410156"/>
      </g>
     </g>
    </g>
    <g id="xtick_23">
     <g id="line2d_54">
      <g>
       <use xlink:href="#mcba23ba3fa" x="636.15278" y="534.84375" style="stroke: #000000; stroke-width: 0.8"/>
      </g>
     </g>
     <g id="text_72">
      <!-- 0.8 -->
      <g transform="translate(628.201218 549.442187)scale(0.1 -0.1)">
       <use xlink:href="#DejaVuSans-30"/>
       <use xlink:href="#DejaVuSans-2e" x="63.623047"/>
       <use xlink:href="#DejaVuSans-38" x="95.410156"/>
      </g>
     </g>
    </g>
    <g id="xtick_24">
     <g id="line2d_55">
      <g>
       <use xlink:href="#mcba23ba3fa" x="688.799425" y="534.84375" style="stroke: #000000; stroke-width: 0.8"/>
      </g>
     </g>
     <g id="text_73">
      <!-- 1.0 -->
      <g transform="translate(680.847863 549.442187)scale(0.1 -0.1)">
       <use xlink:href="#DejaVuSans-31"/>
       <use xlink:href="#DejaVuSans-2e" x="63.623047"/>
       <use xlink:href="#DejaVuSans-30" x="95.410156"/>
      </g>
     </g>
    </g>
    <g id="text_74">
     <!-- Hit Probability -->
     <g transform="translate(522.055469 563.120312)scale(0.1 -0.1)">
      <use xlink:href="#DejaVuSans-48"/>
      <use xlink:href="#DejaVuSans-69" x="75.195312"/>
      <use xlink:href="#DejaVuSans-74" x="102.978516"/>
      <use xlink:href="#DejaVuSans-20" x="142.1875"/>
      <use xlink:href="#DejaVuSans-50" x="173.974609"/>
      <use xlink:href="#DejaVuSans-72" x="232.527344"/>
      <use xlink:href="#DejaVuSans-6f" x="271.390625"/>
      <use xlink:href="#DejaVuSans-62" x="332.572266"/>
      <use xlink:href="#DejaVuSans-61" x="396.048828"/>
      <use xlink:href="#DejaVuSans-62" x="457.328125"/>
      <use xlink:href="#DejaVuSans-69" x="520.804688"/>
      <use xlink:href="#DejaVuSans-6c" x="548.587891"/>
      <use xlink:href="#DejaVuSans-69" x="576.371094"/>
      <use xlink:href="#DejaVuSans-74" x="604.154297"/>
      <use xlink:href="#DejaVuSans-79" x="643.363281"/>
     </g>
    </g>
   </g>
   <g id="matplotlib.axis_8">
    <g id="ytick_32">
     <g id="line2d_56">
      <g>
       <use xlink:href="#me1f93a3ad9" x="405.165625" y="534.84375" style="stroke: #000000; stroke-width: 0.8"/>
      </g>
     </g>
     <g id="text_75">
      <!-- 0 -->
      <g transform="translate(391.803125 538.642969)scale(0.1 -0.1)">
       <use xlink:href="#DejaVuSans-30"/>
      </g>
     </g>
    </g>
    <g id="ytick_33">
     <g id="line2d_57">
      <g>
       <use xlink:href="#me1f93a3ad9" x="405.165625" y="510.349635" style="stroke: #000000; stroke-width: 0.8"/>
      </g>
     </g>
     <g id="text_76">
      <!-- 5 -->
      <g transform="translate(391.803125 514.148853)scale(0.1 -0.1)">
       <use xlink:href="#DejaVuSans-35"/>
      </g>
     </g>
    </g>
    <g id="ytick_34">
     <g id="line2d_58">
      <g>
       <use xlink:href="#me1f93a3ad9" x="405.165625" y="485.855519" style="stroke: #000000; stroke-width: 0.8"/>
      </g>
     </g>
     <g id="text_77">
      <!-- 10 -->
      <g transform="translate(385.440625 489.654738)scale(0.1 -0.1)">
       <use xlink:href="#DejaVuSans-31"/>
       <use xlink:href="#DejaVuSans-30" x="63.623047"/>
      </g>
     </g>
    </g>
    <g id="ytick_35">
     <g id="line2d_59">
      <g>
       <use xlink:href="#me1f93a3ad9" x="405.165625" y="461.361404" style="stroke: #000000; stroke-width: 0.8"/>
      </g>
     </g>
     <g id="text_78">
      <!-- 15 -->
      <g transform="translate(385.440625 465.160623)scale(0.1 -0.1)">
       <use xlink:href="#DejaVuSans-31"/>
       <use xlink:href="#DejaVuSans-35" x="63.623047"/>
      </g>
     </g>
    </g>
    <g id="ytick_36">
     <g id="line2d_60">
      <g>
       <use xlink:href="#me1f93a3ad9" x="405.165625" y="436.867289" style="stroke: #000000; stroke-width: 0.8"/>
      </g>
     </g>
     <g id="text_79">
      <!-- 20 -->
      <g transform="translate(385.440625 440.666508)scale(0.1 -0.1)">
       <use xlink:href="#DejaVuSans-32"/>
       <use xlink:href="#DejaVuSans-30" x="63.623047"/>
      </g>
     </g>
    </g>
    <g id="ytick_37">
     <g id="line2d_61">
      <g>
       <use xlink:href="#me1f93a3ad9" x="405.165625" y="412.373174" style="stroke: #000000; stroke-width: 0.8"/>
      </g>
     </g>
     <g id="text_80">
      <!-- 25 -->
      <g transform="translate(385.440625 416.172392)scale(0.1 -0.1)">
       <use xlink:href="#DejaVuSans-32"/>
       <use xlink:href="#DejaVuSans-35" x="63.623047"/>
      </g>
     </g>
    </g>
    <g id="ytick_38">
     <g id="line2d_62">
      <g>
       <use xlink:href="#me1f93a3ad9" x="405.165625" y="387.879058" style="stroke: #000000; stroke-width: 0.8"/>
      </g>
     </g>
     <g id="text_81">
      <!-- 30 -->
      <g transform="translate(385.440625 391.678277)scale(0.1 -0.1)">
       <use xlink:href="#DejaVuSans-33"/>
       <use xlink:href="#DejaVuSans-30" x="63.623047"/>
      </g>
     </g>
    </g>
    <g id="ytick_39">
     <g id="line2d_63">
      <g>
       <use xlink:href="#me1f93a3ad9" x="405.165625" y="363.384943" style="stroke: #000000; stroke-width: 0.8"/>
      </g>
     </g>
     <g id="text_82">
      <!-- 35 -->
      <g transform="translate(385.440625 367.184162)scale(0.1 -0.1)">
       <use xlink:href="#DejaVuSans-33"/>
       <use xlink:href="#DejaVuSans-35" x="63.623047"/>
      </g>
     </g>
    </g>
    <g id="ytick_40">
     <g id="line2d_64">
      <g>
       <use xlink:href="#me1f93a3ad9" x="405.165625" y="338.890828" style="stroke: #000000; stroke-width: 0.8"/>
      </g>
     </g>
     <g id="text_83">
      <!-- 40 -->
      <g transform="translate(385.440625 342.690047)scale(0.1 -0.1)">
       <use xlink:href="#DejaVuSans-34"/>
       <use xlink:href="#DejaVuSans-30" x="63.623047"/>
      </g>
     </g>
    </g>
    <g id="ytick_41">
     <g id="line2d_65">
      <g>
       <use xlink:href="#me1f93a3ad9" x="405.165625" y="314.396713" style="stroke: #000000; stroke-width: 0.8"/>
      </g>
     </g>
     <g id="text_84">
      <!-- 45 -->
      <g transform="translate(385.440625 318.195931)scale(0.1 -0.1)">
       <use xlink:href="#DejaVuSans-34"/>
       <use xlink:href="#DejaVuSans-35" x="63.623047"/>
      </g>
     </g>
    </g>
    <g id="text_85">
     <!-- Count -->
     <g transform="translate(379.360938 436.529375)rotate(-90)scale(0.1 -0.1)">
      <use xlink:href="#DejaVuSans-43"/>
      <use xlink:href="#DejaVuSans-6f" x="69.824219"/>
      <use xlink:href="#DejaVuSans-75" x="131.005859"/>
      <use xlink:href="#DejaVuSans-6e" x="194.384766"/>
      <use xlink:href="#DejaVuSans-74" x="257.763672"/>
     </g>
    </g>
   </g>
   <g id="patch_42">
    <path d="M 405.165625 534.84375 
L 405.165625 308.518125 
" style="fill: none; stroke: #000000; stroke-width: 0.8; stroke-linejoin: miter; stroke-linecap: square"/>
   </g>
   <g id="patch_43">
    <path d="M 709.2 534.84375 
L 709.2 308.518125 
" style="fill: none; stroke: #000000; stroke-width: 0.8; stroke-linejoin: miter; stroke-linecap: square"/>
   </g>
   <g id="patch_44">
    <path d="M 405.165625 534.84375 
L 709.2 534.84375 
" style="fill: none; stroke: #000000; stroke-width: 0.8; stroke-linejoin: miter; stroke-linecap: square"/>
   </g>
   <g id="patch_45">
    <path d="M 405.165625 308.518125 
L 709.2 308.518125 
" style="fill: none; stroke: #000000; stroke-width: 0.8; stroke-linejoin: miter; stroke-linecap: square"/>
   </g>
   <g id="text_86">
    <!-- Level 20, AB 11, CR 13-27 -->
    <g transform="translate(478.710313 302.518125)scale(0.12 -0.12)">
     <use xlink:href="#DejaVuSans-4c"/>
     <use xlink:href="#DejaVuSans-65" x="53.962891"/>
     <use xlink:href="#DejaVuSans-76" x="115.486328"/>
     <use xlink:href="#DejaVuSans-65" x="174.666016"/>
     <use xlink:href="#DejaVuSans-6c" x="236.189453"/>
     <use xlink:href="#DejaVuSans-20" x="263.972656"/>
     <use xlink:href="#DejaVuSans-32" x="295.759766"/>
     <use xlink:href="#DejaVuSans-30" x="359.382812"/>
     <use xlink:href="#DejaVuSans-2c" x="423.005859"/>
     <use xlink:href="#DejaVuSans-20" x="454.792969"/>
     <use xlink:href="#DejaVuSans-41" x="486.580078"/>
     <use xlink:href="#DejaVuSans-42" x="554.988281"/>
     <use xlink:href="#DejaVuSans-20" x="623.591797"/>
     <use xlink:href="#DejaVuSans-31" x="655.378906"/>
     <use xlink:href="#DejaVuSans-31" x="719.001953"/>
     <use xlink:href="#DejaVuSans-2c" x="782.625"/>
     <use xlink:href="#DejaVuSans-20" x="814.412109"/>
     <use xlink:href="#DejaVuSans-43" x="846.199219"/>
     <use xlink:href="#DejaVuSans-52" x="916.023438"/>
     <use xlink:href="#DejaVuSans-20" x="985.505859"/>
     <use xlink:href="#DejaVuSans-31" x="1017.292969"/>
     <use xlink:href="#DejaVuSans-33" x="1080.916016"/>
     <use xlink:href="#DejaVuSans-2d" x="1144.539062"/>
     <use xlink:href="#DejaVuSans-32" x="1180.623047"/>
     <use xlink:href="#DejaVuSans-37" x="1244.246094"/>
    </g>
   </g>
   <g id="legend_4">
    <g id="patch_46">
     <path d="M 412.165625 360.5525 
L 497.060938 360.5525 
Q 499.060938 360.5525 499.060938 358.5525 
L 499.060938 315.518125 
Q 499.060938 313.518125 497.060938 313.518125 
L 412.165625 313.518125 
Q 410.165625 313.518125 410.165625 315.518125 
L 410.165625 358.5525 
Q 410.165625 360.5525 412.165625 360.5525 
z
" style="fill: #ffffff; opacity: 0.8; stroke: #cccccc; stroke-linejoin: miter"/>
    </g>
    <g id="patch_47">
     <path d="M 414.165625 325.116562 
L 434.165625 325.116562 
L 434.165625 318.116562 
L 414.165625 318.116562 
z
" style="fill: #2ca02c"/>
    </g>
    <g id="text_87">
     <!-- Unique -->
     <g transform="translate(442.165625 325.116562)scale(0.1 -0.1)">
      <use xlink:href="#DejaVuSans-55"/>
      <use xlink:href="#DejaVuSans-6e" x="73.193359"/>
      <use xlink:href="#DejaVuSans-69" x="136.572266"/>
      <use xlink:href="#DejaVuSans-71" x="164.355469"/>
      <use xlink:href="#DejaVuSans-75" x="227.832031"/>
      <use xlink:href="#DejaVuSans-65" x="291.210938"/>
     </g>
    </g>
    <g id="patch_48">
     <path d="M 414.165625 339.794688 
L 434.165625 339.794688 
L 434.165625 332.794688 
L 414.165625 332.794688 
z
" style="fill: #ff7f0e"/>
    </g>
    <g id="text_88">
     <!-- Legendary -->
     <g transform="translate(442.165625 339.794688)scale(0.1 -0.1)">
      <use xlink:href="#DejaVuSans-4c"/>
      <use xlink:href="#DejaVuSans-65" x="53.962891"/>
      <use xlink:href="#DejaVuSans-67" x="115.486328"/>
      <use xlink:href="#DejaVuSans-65" x="178.962891"/>
      <use xlink:href="#DejaVuSans-6e" x="240.486328"/>
      <use xlink:href="#DejaVuSans-64" x="303.865234"/>
      <use xlink:href="#DejaVuSans-61" x="367.341797"/>
      <use xlink:href="#DejaVuSans-72" x="428.621094"/>
      <use xlink:href="#DejaVuSans-79" x="469.734375"/>
     </g>
    </g>
    <g id="patch_49">
     <path d="M 414.165625 354.472813 
L 434.165625 354.472813 
L 434.165625 347.472813 
L 414.165625 347.472813 
z
" style="fill: #1f77b4"/>
    </g>
    <g id="text_89">
     <!-- Generic -->
     <g transform="translate(442.165625 354.472813)scale(0.1 -0.1)">
      <use xlink:href="#DejaVuSans-47"/>
      <use xlink:href="#DejaVuSans-65" x="77.490234"/>
      <use xlink:href="#DejaVuSans-6e" x="139.013672"/>
      <use xlink:href="#DejaVuSans-65" x="202.392578"/>
      <use xlink:href="#DejaVuSans-72" x="263.916016"/>
      <use xlink:href="#DejaVuSans-69" x="305.029297"/>
      <use xlink:href="#DejaVuSans-63" x="332.8125"/>
     </g>
    </g>
   </g>
  </g>
 </g>
 <defs>
  <clipPath id="pe9bae3248b">
   <rect x="50.565625" y="25.918125" width="304.034375" height="226.325625"/>
  </clipPath>
  <clipPath id="pbbab6bb9fc">
   <rect x="405.165625" y="25.918125" width="304.034375" height="226.325625"/>
  </clipPath>
  <clipPath id="pe863482d72">
   <rect x="50.565625" y="308.518125" width="304.034375" height="226.325625"/>
  </clipPath>
  <clipPath id="pfc634f6a7b">
   <rect x="405.165625" y="308.518125" width="304.034375" height="226.325625"/>
  </clipPath>
 </defs>
</svg>
