<?xml version="1.0" encoding="utf-8" standalone="no"?>
<!DOCTYPE svg PUBLIC "-//W3C//DTD SVG 1.1//EN"
  "http://www.w3.org/Graphics/SVG/1.1/DTD/svg11.dtd">
<!-- Created with matplotlib (https://matplotlib.org/) -->
<svg height="576pt" version="1.1" viewBox="0 0 720 576" width="720pt" xmlns="http://www.w3.org/2000/svg" xmlns:xlink="http://www.w3.org/1999/xlink">
 <metadata>
  <rdf:RDF xmlns:cc="http://creativecommons.org/ns#" xmlns:dc="http://purl.org/dc/elements/1.1/" xmlns:rdf="http://www.w3.org/1999/02/22-rdf-syntax-ns#">
   <cc:Work>
    <dc:type rdf:resource="http://purl.org/dc/dcmitype/StillImage"/>
    <dc:date>2021-11-09T21:41:33.591094</dc:date>
    <dc:format>image/svg+xml</dc:format>
    <dc:creator>
     <cc:Agent>
      <dc:title>Matplotlib v3.3.4, https://matplotlib.org/</dc:title>
     </cc:Agent>
    </dc:creator>
    <dc:contributor>
     <cc:Agent>
      <dc:title>T. Dunn</dc:title>
     </cc:Agent>
    </dc:contributor>
   </cc:Work>
  </rdf:RDF>
 </metadata>
 <defs>
  <style type="text/css">*{stroke-linecap:butt;stroke-linejoin:round;}</style>
 </defs>
 <g id="figure_1">
  <g id="patch_1">
   <path d="M 0 576 
L 720 576 
L 720 0 
L 0 0 
z
" style="fill:none;"/>
  </g>
  <g id="axes_1">
   <g id="patch_2">
    <path d="M 50.565625 252.24375 
L 354.6 252.24375 
L 354.6 25.918125 
L 50.565625 25.918125 
z
" style="fill:#ffffff;"/>
   </g>
   <g id="patch_3">
    <path clip-path="url(#pd06b7d67b4)" d="M 64.385369 252.24375 
L 64.385369 252.24375 
L 77.547031 252.24375 
L 77.547031 252.24375 
L 90.708692 252.24375 
L 90.708692 252.24375 
L 103.870353 252.24375 
L 103.870353 154.406263 
L 117.032014 154.406263 
L 117.032014 36.695536 
L 130.193676 36.695536 
L 130.193676 228.293948 
L 143.355337 228.293948 
L 143.355337 232.37051 
L 156.516998 232.37051 
L 156.516998 246.128907 
L 169.678659 246.128907 
L 169.678659 246.128907 
L 182.840321 246.128907 
L 182.840321 252.24375 
L 196.001982 252.24375 
L 196.001982 250.205469 
L 209.163643 250.205469 
L 209.163643 252.24375 
L 222.325304 252.24375 
L 222.325304 252.24375 
L 235.486966 252.24375 
L 235.486966 251.22461 
L 248.648627 251.22461 
L 248.648627 252.24375 
L 261.810288 252.24375 
L 261.810288 252.24375 
L 274.971949 252.24375 
L 274.971949 252.24375 
L 288.133611 252.24375 
L 288.133611 252.24375 
L 301.295272 252.24375 
L 301.295272 252.24375 
L 314.456933 252.24375 
L 314.456933 252.24375 
L 327.618594 252.24375 
L 327.618594 252.24375 
L 340.780256 252.24375 
L 340.780256 252.24375 
L 327.618594 252.24375 
L 327.618594 252.24375 
L 314.456933 252.24375 
L 314.456933 252.24375 
L 301.295272 252.24375 
L 301.295272 252.24375 
L 288.133611 252.24375 
L 288.133611 252.24375 
L 274.971949 252.24375 
L 274.971949 252.24375 
L 261.810288 252.24375 
L 261.810288 252.24375 
L 248.648627 252.24375 
L 248.648627 251.22461 
L 235.486966 251.22461 
L 235.486966 252.24375 
L 222.325304 252.24375 
L 222.325304 252.24375 
L 209.163643 252.24375 
L 209.163643 250.715039 
L 196.001982 250.715039 
L 196.001982 252.24375 
L 182.840321 252.24375 
L 182.840321 246.638477 
L 169.678659 246.638477 
L 169.678659 246.638477 
L 156.516998 246.638477 
L 156.516998 238.994924 
L 143.355337 238.994924 
L 143.355337 231.86094 
L 130.193676 231.86094 
L 130.193676 69.308031 
L 117.032014 69.308031 
L 117.032014 168.164659 
L 103.870353 168.164659 
L 103.870353 252.24375 
L 90.708692 252.24375 
L 90.708692 252.24375 
L 77.547031 252.24375 
L 77.547031 252.24375 
z
" style="fill:#2ca02c;"/>
   </g>
   <g id="patch_4">
    <path clip-path="url(#pd06b7d67b4)" d="M 64.385369 252.24375 
L 64.385369 252.24375 
L 77.547031 252.24375 
L 77.547031 252.24375 
L 90.708692 252.24375 
L 90.708692 252.24375 
L 103.870353 252.24375 
L 103.870353 168.164659 
L 117.032014 168.164659 
L 117.032014 69.308031 
L 130.193676 69.308031 
L 130.193676 231.86094 
L 143.355337 231.86094 
L 143.355337 238.994924 
L 156.516998 238.994924 
L 156.516998 246.638477 
L 169.678659 246.638477 
L 169.678659 246.638477 
L 182.840321 246.638477 
L 182.840321 252.24375 
L 196.001982 252.24375 
L 196.001982 250.715039 
L 209.163643 250.715039 
L 209.163643 252.24375 
L 222.325304 252.24375 
L 222.325304 252.24375 
L 235.486966 252.24375 
L 235.486966 251.22461 
L 248.648627 251.22461 
L 248.648627 252.24375 
L 261.810288 252.24375 
L 261.810288 252.24375 
L 274.971949 252.24375 
L 274.971949 252.24375 
L 288.133611 252.24375 
L 288.133611 252.24375 
L 301.295272 252.24375 
L 301.295272 252.24375 
L 314.456933 252.24375 
L 314.456933 252.24375 
L 327.618594 252.24375 
L 327.618594 252.24375 
L 340.780256 252.24375 
L 340.780256 252.24375 
L 327.618594 252.24375 
L 327.618594 252.24375 
L 314.456933 252.24375 
L 314.456933 252.24375 
L 301.295272 252.24375 
L 301.295272 252.24375 
L 288.133611 252.24375 
L 288.133611 252.24375 
L 274.971949 252.24375 
L 274.971949 252.24375 
L 261.810288 252.24375 
L 261.810288 252.24375 
L 248.648627 252.24375 
L 248.648627 251.22461 
L 235.486966 251.22461 
L 235.486966 252.24375 
L 222.325304 252.24375 
L 222.325304 252.24375 
L 209.163643 252.24375 
L 209.163643 250.715039 
L 196.001982 250.715039 
L 196.001982 252.24375 
L 182.840321 252.24375 
L 182.840321 246.638477 
L 169.678659 246.638477 
L 169.678659 246.638477 
L 156.516998 246.638477 
L 156.516998 238.994924 
L 143.355337 238.994924 
L 143.355337 231.86094 
L 130.193676 231.86094 
L 130.193676 70.327172 
L 117.032014 70.327172 
L 117.032014 168.164659 
L 103.870353 168.164659 
L 103.870353 252.24375 
L 90.708692 252.24375 
L 90.708692 252.24375 
L 77.547031 252.24375 
L 77.547031 252.24375 
z
" style="fill:#ff7f0e;"/>
   </g>
   <g id="patch_5">
    <path clip-path="url(#pd06b7d67b4)" d="M 64.385369 252.24375 
L 64.385369 252.24375 
L 77.547031 252.24375 
L 77.547031 252.24375 
L 90.708692 252.24375 
L 90.708692 252.24375 
L 103.870353 252.24375 
L 103.870353 168.164659 
L 117.032014 168.164659 
L 117.032014 70.327172 
L 130.193676 70.327172 
L 130.193676 231.86094 
L 143.355337 231.86094 
L 143.355337 238.994924 
L 156.516998 238.994924 
L 156.516998 246.638477 
L 169.678659 246.638477 
L 169.678659 246.638477 
L 182.840321 246.638477 
L 182.840321 252.24375 
L 196.001982 252.24375 
L 196.001982 250.715039 
L 209.163643 250.715039 
L 209.163643 252.24375 
L 222.325304 252.24375 
L 222.325304 252.24375 
L 235.486966 252.24375 
L 235.486966 251.22461 
L 248.648627 251.22461 
L 248.648627 252.24375 
L 261.810288 252.24375 
L 261.810288 252.24375 
L 274.971949 252.24375 
L 274.971949 252.24375 
L 288.133611 252.24375 
L 288.133611 252.24375 
L 301.295272 252.24375 
L 301.295272 252.24375 
L 314.456933 252.24375 
L 314.456933 252.24375 
L 327.618594 252.24375 
L 327.618594 252.24375 
L 340.780256 252.24375 
L 340.780256 252.24375 
L 327.618594 252.24375 
L 327.618594 252.24375 
L 314.456933 252.24375 
L 314.456933 252.24375 
L 301.295272 252.24375 
L 301.295272 252.24375 
L 288.133611 252.24375 
L 288.133611 252.24375 
L 274.971949 252.24375 
L 274.971949 252.24375 
L 261.810288 252.24375 
L 261.810288 252.24375 
L 248.648627 252.24375 
L 248.648627 252.24375 
L 235.486966 252.24375 
L 235.486966 252.24375 
L 222.325304 252.24375 
L 222.325304 252.24375 
L 209.163643 252.24375 
L 209.163643 252.24375 
L 196.001982 252.24375 
L 196.001982 252.24375 
L 182.840321 252.24375 
L 182.840321 252.24375 
L 169.678659 252.24375 
L 169.678659 252.24375 
L 156.516998 252.24375 
L 156.516998 252.24375 
L 143.355337 252.24375 
L 143.355337 252.24375 
L 130.193676 252.24375 
L 130.193676 252.24375 
L 117.032014 252.24375 
L 117.032014 252.24375 
L 103.870353 252.24375 
L 103.870353 252.24375 
L 90.708692 252.24375 
L 90.708692 252.24375 
L 77.547031 252.24375 
L 77.547031 252.24375 
z
" style="fill:#1f77b4;"/>
   </g>
   <g id="matplotlib.axis_1">
    <g id="xtick_1">
     <g id="line2d_1">
      <defs>
       <path d="M 0 0 
L 0 3.5 
" id="m7cf37a72fd" style="stroke:#000000;stroke-width:0.8;"/>
      </defs>
      <g>
       <use style="stroke:#000000;stroke-width:0.8;" x="70.9662" xlink:href="#m7cf37a72fd" y="252.24375"/>
      </g>
     </g>
     <g id="text_1">
      <!-- 0 -->
      <g transform="translate(67.78495 266.842187)scale(0.1 -0.1)">
       <defs>
        <path d="M 31.78125 66.40625 
Q 24.171875 66.40625 20.328125 58.90625 
Q 16.5 51.421875 16.5 36.375 
Q 16.5 21.390625 20.328125 13.890625 
Q 24.171875 6.390625 31.78125 6.390625 
Q 39.453125 6.390625 43.28125 13.890625 
Q 47.125 21.390625 47.125 36.375 
Q 47.125 51.421875 43.28125 58.90625 
Q 39.453125 66.40625 31.78125 66.40625 
z
M 31.78125 74.21875 
Q 44.046875 74.21875 50.515625 64.515625 
Q 56.984375 54.828125 56.984375 36.375 
Q 56.984375 17.96875 50.515625 8.265625 
Q 44.046875 -1.421875 31.78125 -1.421875 
Q 19.53125 -1.421875 13.0625 8.265625 
Q 6.59375 17.96875 6.59375 36.375 
Q 6.59375 54.828125 13.0625 64.515625 
Q 19.53125 74.21875 31.78125 74.21875 
z
" id="DejaVuSans-48"/>
       </defs>
       <use xlink:href="#DejaVuSans-48"/>
      </g>
     </g>
    </g>
    <g id="xtick_2">
     <g id="line2d_2">
      <g>
       <use style="stroke:#000000;stroke-width:0.8;" x="123.612845" xlink:href="#m7cf37a72fd" y="252.24375"/>
      </g>
     </g>
     <g id="text_2">
      <!-- 2 -->
      <g transform="translate(120.431595 266.842187)scale(0.1 -0.1)">
       <defs>
        <path d="M 19.1875 8.296875 
L 53.609375 8.296875 
L 53.609375 0 
L 7.328125 0 
L 7.328125 8.296875 
Q 12.9375 14.109375 22.625 23.890625 
Q 32.328125 33.6875 34.8125 36.53125 
Q 39.546875 41.84375 41.421875 45.53125 
Q 43.3125 49.21875 43.3125 52.78125 
Q 43.3125 58.59375 39.234375 62.25 
Q 35.15625 65.921875 28.609375 65.921875 
Q 23.96875 65.921875 18.8125 64.3125 
Q 13.671875 62.703125 7.8125 59.421875 
L 7.8125 69.390625 
Q 13.765625 71.78125 18.9375 73 
Q 24.125 74.21875 28.421875 74.21875 
Q 39.75 74.21875 46.484375 68.546875 
Q 53.21875 62.890625 53.21875 53.421875 
Q 53.21875 48.921875 51.53125 44.890625 
Q 49.859375 40.875 45.40625 35.40625 
Q 44.1875 33.984375 37.640625 27.21875 
Q 31.109375 20.453125 19.1875 8.296875 
z
" id="DejaVuSans-50"/>
       </defs>
       <use xlink:href="#DejaVuSans-50"/>
      </g>
     </g>
    </g>
    <g id="xtick_3">
     <g id="line2d_3">
      <g>
       <use style="stroke:#000000;stroke-width:0.8;" x="176.25949" xlink:href="#m7cf37a72fd" y="252.24375"/>
      </g>
     </g>
     <g id="text_3">
      <!-- 4 -->
      <g transform="translate(173.07824 266.842187)scale(0.1 -0.1)">
       <defs>
        <path d="M 37.796875 64.3125 
L 12.890625 25.390625 
L 37.796875 25.390625 
z
M 35.203125 72.90625 
L 47.609375 72.90625 
L 47.609375 25.390625 
L 58.015625 25.390625 
L 58.015625 17.1875 
L 47.609375 17.1875 
L 47.609375 0 
L 37.796875 0 
L 37.796875 17.1875 
L 4.890625 17.1875 
L 4.890625 26.703125 
z
" id="DejaVuSans-52"/>
       </defs>
       <use xlink:href="#DejaVuSans-52"/>
      </g>
     </g>
    </g>
    <g id="xtick_4">
     <g id="line2d_4">
      <g>
       <use style="stroke:#000000;stroke-width:0.8;" x="228.906135" xlink:href="#m7cf37a72fd" y="252.24375"/>
      </g>
     </g>
     <g id="text_4">
      <!-- 6 -->
      <g transform="translate(225.724885 266.842187)scale(0.1 -0.1)">
       <defs>
        <path d="M 33.015625 40.375 
Q 26.375 40.375 22.484375 35.828125 
Q 18.609375 31.296875 18.609375 23.390625 
Q 18.609375 15.53125 22.484375 10.953125 
Q 26.375 6.390625 33.015625 6.390625 
Q 39.65625 6.390625 43.53125 10.953125 
Q 47.40625 15.53125 47.40625 23.390625 
Q 47.40625 31.296875 43.53125 35.828125 
Q 39.65625 40.375 33.015625 40.375 
z
M 52.59375 71.296875 
L 52.59375 62.3125 
Q 48.875 64.0625 45.09375 64.984375 
Q 41.3125 65.921875 37.59375 65.921875 
Q 27.828125 65.921875 22.671875 59.328125 
Q 17.53125 52.734375 16.796875 39.40625 
Q 19.671875 43.65625 24.015625 45.921875 
Q 28.375 48.1875 33.59375 48.1875 
Q 44.578125 48.1875 50.953125 41.515625 
Q 57.328125 34.859375 57.328125 23.390625 
Q 57.328125 12.15625 50.6875 5.359375 
Q 44.046875 -1.421875 33.015625 -1.421875 
Q 20.359375 -1.421875 13.671875 8.265625 
Q 6.984375 17.96875 6.984375 36.375 
Q 6.984375 53.65625 15.1875 63.9375 
Q 23.390625 74.21875 37.203125 74.21875 
Q 40.921875 74.21875 44.703125 73.484375 
Q 48.484375 72.75 52.59375 71.296875 
z
" id="DejaVuSans-54"/>
       </defs>
       <use xlink:href="#DejaVuSans-54"/>
      </g>
     </g>
    </g>
    <g id="xtick_5">
     <g id="line2d_5">
      <g>
       <use style="stroke:#000000;stroke-width:0.8;" x="281.55278" xlink:href="#m7cf37a72fd" y="252.24375"/>
      </g>
     </g>
     <g id="text_5">
      <!-- 8 -->
      <g transform="translate(278.37153 266.842187)scale(0.1 -0.1)">
       <defs>
        <path d="M 31.78125 34.625 
Q 24.75 34.625 20.71875 30.859375 
Q 16.703125 27.09375 16.703125 20.515625 
Q 16.703125 13.921875 20.71875 10.15625 
Q 24.75 6.390625 31.78125 6.390625 
Q 38.8125 6.390625 42.859375 10.171875 
Q 46.921875 13.96875 46.921875 20.515625 
Q 46.921875 27.09375 42.890625 30.859375 
Q 38.875 34.625 31.78125 34.625 
z
M 21.921875 38.8125 
Q 15.578125 40.375 12.03125 44.71875 
Q 8.5 49.078125 8.5 55.328125 
Q 8.5 64.0625 14.71875 69.140625 
Q 20.953125 74.21875 31.78125 74.21875 
Q 42.671875 74.21875 48.875 69.140625 
Q 55.078125 64.0625 55.078125 55.328125 
Q 55.078125 49.078125 51.53125 44.71875 
Q 48 40.375 41.703125 38.8125 
Q 48.828125 37.15625 52.796875 32.3125 
Q 56.78125 27.484375 56.78125 20.515625 
Q 56.78125 9.90625 50.3125 4.234375 
Q 43.84375 -1.421875 31.78125 -1.421875 
Q 19.734375 -1.421875 13.25 4.234375 
Q 6.78125 9.90625 6.78125 20.515625 
Q 6.78125 27.484375 10.78125 32.3125 
Q 14.796875 37.15625 21.921875 38.8125 
z
M 18.3125 54.390625 
Q 18.3125 48.734375 21.84375 45.5625 
Q 25.390625 42.390625 31.78125 42.390625 
Q 38.140625 42.390625 41.71875 45.5625 
Q 45.3125 48.734375 45.3125 54.390625 
Q 45.3125 60.0625 41.71875 63.234375 
Q 38.140625 66.40625 31.78125 66.40625 
Q 25.390625 66.40625 21.84375 63.234375 
Q 18.3125 60.0625 18.3125 54.390625 
z
" id="DejaVuSans-56"/>
       </defs>
       <use xlink:href="#DejaVuSans-56"/>
      </g>
     </g>
    </g>
    <g id="xtick_6">
     <g id="line2d_6">
      <g>
       <use style="stroke:#000000;stroke-width:0.8;" x="334.199425" xlink:href="#m7cf37a72fd" y="252.24375"/>
      </g>
     </g>
     <g id="text_6">
      <!-- 10 -->
      <g transform="translate(327.836925 266.842187)scale(0.1 -0.1)">
       <defs>
        <path d="M 12.40625 8.296875 
L 28.515625 8.296875 
L 28.515625 63.921875 
L 10.984375 60.40625 
L 10.984375 69.390625 
L 28.421875 72.90625 
L 38.28125 72.90625 
L 38.28125 8.296875 
L 54.390625 8.296875 
L 54.390625 0 
L 12.40625 0 
z
" id="DejaVuSans-49"/>
       </defs>
       <use xlink:href="#DejaVuSans-49"/>
       <use x="63.623047" xlink:href="#DejaVuSans-48"/>
      </g>
     </g>
    </g>
    <g id="text_7">
     <!-- Ki per Stun -->
     <g transform="translate(174.958594 280.520312)scale(0.1 -0.1)">
      <defs>
       <path d="M 9.8125 72.90625 
L 19.671875 72.90625 
L 19.671875 42.09375 
L 52.390625 72.90625 
L 65.09375 72.90625 
L 28.90625 38.921875 
L 67.671875 0 
L 54.6875 0 
L 19.671875 35.109375 
L 19.671875 0 
L 9.8125 0 
z
" id="DejaVuSans-75"/>
       <path d="M 9.421875 54.6875 
L 18.40625 54.6875 
L 18.40625 0 
L 9.421875 0 
z
M 9.421875 75.984375 
L 18.40625 75.984375 
L 18.40625 64.59375 
L 9.421875 64.59375 
z
" id="DejaVuSans-105"/>
       <path id="DejaVuSans-32"/>
       <path d="M 18.109375 8.203125 
L 18.109375 -20.796875 
L 9.078125 -20.796875 
L 9.078125 54.6875 
L 18.109375 54.6875 
L 18.109375 46.390625 
Q 20.953125 51.265625 25.265625 53.625 
Q 29.59375 56 35.59375 56 
Q 45.5625 56 51.78125 48.09375 
Q 58.015625 40.1875 58.015625 27.296875 
Q 58.015625 14.40625 51.78125 6.484375 
Q 45.5625 -1.421875 35.59375 -1.421875 
Q 29.59375 -1.421875 25.265625 0.953125 
Q 20.953125 3.328125 18.109375 8.203125 
z
M 48.6875 27.296875 
Q 48.6875 37.203125 44.609375 42.84375 
Q 40.53125 48.484375 33.40625 48.484375 
Q 26.265625 48.484375 22.1875 42.84375 
Q 18.109375 37.203125 18.109375 27.296875 
Q 18.109375 17.390625 22.1875 11.75 
Q 26.265625 6.109375 33.40625 6.109375 
Q 40.53125 6.109375 44.609375 11.75 
Q 48.6875 17.390625 48.6875 27.296875 
z
" id="DejaVuSans-112"/>
       <path d="M 56.203125 29.59375 
L 56.203125 25.203125 
L 14.890625 25.203125 
Q 15.484375 15.921875 20.484375 11.0625 
Q 25.484375 6.203125 34.421875 6.203125 
Q 39.59375 6.203125 44.453125 7.46875 
Q 49.3125 8.734375 54.109375 11.28125 
L 54.109375 2.78125 
Q 49.265625 0.734375 44.1875 -0.34375 
Q 39.109375 -1.421875 33.890625 -1.421875 
Q 20.796875 -1.421875 13.15625 6.1875 
Q 5.515625 13.8125 5.515625 26.8125 
Q 5.515625 40.234375 12.765625 48.109375 
Q 20.015625 56 32.328125 56 
Q 43.359375 56 49.78125 48.890625 
Q 56.203125 41.796875 56.203125 29.59375 
z
M 47.21875 32.234375 
Q 47.125 39.59375 43.09375 43.984375 
Q 39.0625 48.390625 32.421875 48.390625 
Q 24.90625 48.390625 20.390625 44.140625 
Q 15.875 39.890625 15.1875 32.171875 
z
" id="DejaVuSans-101"/>
       <path d="M 41.109375 46.296875 
Q 39.59375 47.171875 37.8125 47.578125 
Q 36.03125 48 33.890625 48 
Q 26.265625 48 22.1875 43.046875 
Q 18.109375 38.09375 18.109375 28.8125 
L 18.109375 0 
L 9.078125 0 
L 9.078125 54.6875 
L 18.109375 54.6875 
L 18.109375 46.1875 
Q 20.953125 51.171875 25.484375 53.578125 
Q 30.03125 56 36.53125 56 
Q 37.453125 56 38.578125 55.875 
Q 39.703125 55.765625 41.0625 55.515625 
z
" id="DejaVuSans-114"/>
       <path d="M 53.515625 70.515625 
L 53.515625 60.890625 
Q 47.90625 63.578125 42.921875 64.890625 
Q 37.9375 66.21875 33.296875 66.21875 
Q 25.25 66.21875 20.875 63.09375 
Q 16.5 59.96875 16.5 54.203125 
Q 16.5 49.359375 19.40625 46.890625 
Q 22.3125 44.4375 30.421875 42.921875 
L 36.375 41.703125 
Q 47.40625 39.59375 52.65625 34.296875 
Q 57.90625 29 57.90625 20.125 
Q 57.90625 9.515625 50.796875 4.046875 
Q 43.703125 -1.421875 29.984375 -1.421875 
Q 24.8125 -1.421875 18.96875 -0.25 
Q 13.140625 0.921875 6.890625 3.21875 
L 6.890625 13.375 
Q 12.890625 10.015625 18.65625 8.296875 
Q 24.421875 6.59375 29.984375 6.59375 
Q 38.421875 6.59375 43.015625 9.90625 
Q 47.609375 13.234375 47.609375 19.390625 
Q 47.609375 24.75 44.3125 27.78125 
Q 41.015625 30.8125 33.5 32.328125 
L 27.484375 33.5 
Q 16.453125 35.6875 11.515625 40.375 
Q 6.59375 45.0625 6.59375 53.421875 
Q 6.59375 63.09375 13.40625 68.65625 
Q 20.21875 74.21875 32.171875 74.21875 
Q 37.3125 74.21875 42.625 73.28125 
Q 47.953125 72.359375 53.515625 70.515625 
z
" id="DejaVuSans-83"/>
       <path d="M 18.3125 70.21875 
L 18.3125 54.6875 
L 36.8125 54.6875 
L 36.8125 47.703125 
L 18.3125 47.703125 
L 18.3125 18.015625 
Q 18.3125 11.328125 20.140625 9.421875 
Q 21.96875 7.515625 27.59375 7.515625 
L 36.8125 7.515625 
L 36.8125 0 
L 27.59375 0 
Q 17.1875 0 13.234375 3.875 
Q 9.28125 7.765625 9.28125 18.015625 
L 9.28125 47.703125 
L 2.6875 47.703125 
L 2.6875 54.6875 
L 9.28125 54.6875 
L 9.28125 70.21875 
z
" id="DejaVuSans-116"/>
       <path d="M 8.5 21.578125 
L 8.5 54.6875 
L 17.484375 54.6875 
L 17.484375 21.921875 
Q 17.484375 14.15625 20.5 10.265625 
Q 23.53125 6.390625 29.59375 6.390625 
Q 36.859375 6.390625 41.078125 11.03125 
Q 45.3125 15.671875 45.3125 23.6875 
L 45.3125 54.6875 
L 54.296875 54.6875 
L 54.296875 0 
L 45.3125 0 
L 45.3125 8.40625 
Q 42.046875 3.421875 37.71875 1 
Q 33.40625 -1.421875 27.6875 -1.421875 
Q 18.265625 -1.421875 13.375 4.4375 
Q 8.5 10.296875 8.5 21.578125 
z
M 31.109375 56 
z
" id="DejaVuSans-117"/>
       <path d="M 54.890625 33.015625 
L 54.890625 0 
L 45.90625 0 
L 45.90625 32.71875 
Q 45.90625 40.484375 42.875 44.328125 
Q 39.84375 48.1875 33.796875 48.1875 
Q 26.515625 48.1875 22.3125 43.546875 
Q 18.109375 38.921875 18.109375 30.90625 
L 18.109375 0 
L 9.078125 0 
L 9.078125 54.6875 
L 18.109375 54.6875 
L 18.109375 46.1875 
Q 21.34375 51.125 25.703125 53.5625 
Q 30.078125 56 35.796875 56 
Q 45.21875 56 50.046875 50.171875 
Q 54.890625 44.34375 54.890625 33.015625 
z
" id="DejaVuSans-110"/>
      </defs>
      <use xlink:href="#DejaVuSans-75"/>
      <use x="65.576172" xlink:href="#DejaVuSans-105"/>
      <use x="93.359375" xlink:href="#DejaVuSans-32"/>
      <use x="125.146484" xlink:href="#DejaVuSans-112"/>
      <use x="188.623047" xlink:href="#DejaVuSans-101"/>
      <use x="250.146484" xlink:href="#DejaVuSans-114"/>
      <use x="291.259766" xlink:href="#DejaVuSans-32"/>
      <use x="323.046875" xlink:href="#DejaVuSans-83"/>
      <use x="386.523438" xlink:href="#DejaVuSans-116"/>
      <use x="425.732422" xlink:href="#DejaVuSans-117"/>
      <use x="489.111328" xlink:href="#DejaVuSans-110"/>
     </g>
    </g>
   </g>
   <g id="matplotlib.axis_2">
    <g id="ytick_1">
     <g id="line2d_7">
      <defs>
       <path d="M 0 0 
L -3.5 0 
" id="m38651ae3a0" style="stroke:#000000;stroke-width:0.8;"/>
      </defs>
      <g>
       <use style="stroke:#000000;stroke-width:0.8;" x="50.565625" xlink:href="#m38651ae3a0" y="252.24375"/>
      </g>
     </g>
     <g id="text_8">
      <!-- 0 -->
      <g transform="translate(37.203125 256.042969)scale(0.1 -0.1)">
       <use xlink:href="#DejaVuSans-48"/>
      </g>
     </g>
    </g>
    <g id="ytick_2">
     <g id="line2d_8">
      <g>
       <use style="stroke:#000000;stroke-width:0.8;" x="50.565625" xlink:href="#m38651ae3a0" y="226.765238"/>
      </g>
     </g>
     <g id="text_9">
      <!-- 50 -->
      <g transform="translate(30.840625 230.564456)scale(0.1 -0.1)">
       <defs>
        <path d="M 10.796875 72.90625 
L 49.515625 72.90625 
L 49.515625 64.59375 
L 19.828125 64.59375 
L 19.828125 46.734375 
Q 21.96875 47.46875 24.109375 47.828125 
Q 26.265625 48.1875 28.421875 48.1875 
Q 40.625 48.1875 47.75 41.5 
Q 54.890625 34.8125 54.890625 23.390625 
Q 54.890625 11.625 47.5625 5.09375 
Q 40.234375 -1.421875 26.90625 -1.421875 
Q 22.3125 -1.421875 17.546875 -0.640625 
Q 12.796875 0.140625 7.71875 1.703125 
L 7.71875 11.625 
Q 12.109375 9.234375 16.796875 8.0625 
Q 21.484375 6.890625 26.703125 6.890625 
Q 35.15625 6.890625 40.078125 11.328125 
Q 45.015625 15.765625 45.015625 23.390625 
Q 45.015625 31 40.078125 35.4375 
Q 35.15625 39.890625 26.703125 39.890625 
Q 22.75 39.890625 18.8125 39.015625 
Q 14.890625 38.140625 10.796875 36.28125 
z
" id="DejaVuSans-53"/>
       </defs>
       <use xlink:href="#DejaVuSans-53"/>
       <use x="63.623047" xlink:href="#DejaVuSans-48"/>
      </g>
     </g>
    </g>
    <g id="ytick_3">
     <g id="line2d_9">
      <g>
       <use style="stroke:#000000;stroke-width:0.8;" x="50.565625" xlink:href="#m38651ae3a0" y="201.286725"/>
      </g>
     </g>
     <g id="text_10">
      <!-- 100 -->
      <g transform="translate(24.478125 205.085944)scale(0.1 -0.1)">
       <use xlink:href="#DejaVuSans-49"/>
       <use x="63.623047" xlink:href="#DejaVuSans-48"/>
       <use x="127.246094" xlink:href="#DejaVuSans-48"/>
      </g>
     </g>
    </g>
    <g id="ytick_4">
     <g id="line2d_10">
      <g>
       <use style="stroke:#000000;stroke-width:0.8;" x="50.565625" xlink:href="#m38651ae3a0" y="175.808213"/>
      </g>
     </g>
     <g id="text_11">
      <!-- 150 -->
      <g transform="translate(24.478125 179.607432)scale(0.1 -0.1)">
       <use xlink:href="#DejaVuSans-49"/>
       <use x="63.623047" xlink:href="#DejaVuSans-53"/>
       <use x="127.246094" xlink:href="#DejaVuSans-48"/>
      </g>
     </g>
    </g>
    <g id="ytick_5">
     <g id="line2d_11">
      <g>
       <use style="stroke:#000000;stroke-width:0.8;" x="50.565625" xlink:href="#m38651ae3a0" y="150.329701"/>
      </g>
     </g>
     <g id="text_12">
      <!-- 200 -->
      <g transform="translate(24.478125 154.128919)scale(0.1 -0.1)">
       <use xlink:href="#DejaVuSans-50"/>
       <use x="63.623047" xlink:href="#DejaVuSans-48"/>
       <use x="127.246094" xlink:href="#DejaVuSans-48"/>
      </g>
     </g>
    </g>
    <g id="ytick_6">
     <g id="line2d_12">
      <g>
       <use style="stroke:#000000;stroke-width:0.8;" x="50.565625" xlink:href="#m38651ae3a0" y="124.851188"/>
      </g>
     </g>
     <g id="text_13">
      <!-- 250 -->
      <g transform="translate(24.478125 128.650407)scale(0.1 -0.1)">
       <use xlink:href="#DejaVuSans-50"/>
       <use x="63.623047" xlink:href="#DejaVuSans-53"/>
       <use x="127.246094" xlink:href="#DejaVuSans-48"/>
      </g>
     </g>
    </g>
    <g id="ytick_7">
     <g id="line2d_13">
      <g>
       <use style="stroke:#000000;stroke-width:0.8;" x="50.565625" xlink:href="#m38651ae3a0" y="99.372676"/>
      </g>
     </g>
     <g id="text_14">
      <!-- 300 -->
      <g transform="translate(24.478125 103.171895)scale(0.1 -0.1)">
       <defs>
        <path d="M 40.578125 39.3125 
Q 47.65625 37.796875 51.625 33 
Q 55.609375 28.21875 55.609375 21.1875 
Q 55.609375 10.40625 48.1875 4.484375 
Q 40.765625 -1.421875 27.09375 -1.421875 
Q 22.515625 -1.421875 17.65625 -0.515625 
Q 12.796875 0.390625 7.625 2.203125 
L 7.625 11.71875 
Q 11.71875 9.328125 16.59375 8.109375 
Q 21.484375 6.890625 26.8125 6.890625 
Q 36.078125 6.890625 40.9375 10.546875 
Q 45.796875 14.203125 45.796875 21.1875 
Q 45.796875 27.640625 41.28125 31.265625 
Q 36.765625 34.90625 28.71875 34.90625 
L 20.21875 34.90625 
L 20.21875 43.015625 
L 29.109375 43.015625 
Q 36.375 43.015625 40.234375 45.921875 
Q 44.09375 48.828125 44.09375 54.296875 
Q 44.09375 59.90625 40.109375 62.90625 
Q 36.140625 65.921875 28.71875 65.921875 
Q 24.65625 65.921875 20.015625 65.03125 
Q 15.375 64.15625 9.8125 62.3125 
L 9.8125 71.09375 
Q 15.4375 72.65625 20.34375 73.4375 
Q 25.25 74.21875 29.59375 74.21875 
Q 40.828125 74.21875 47.359375 69.109375 
Q 53.90625 64.015625 53.90625 55.328125 
Q 53.90625 49.265625 50.4375 45.09375 
Q 46.96875 40.921875 40.578125 39.3125 
z
" id="DejaVuSans-51"/>
       </defs>
       <use xlink:href="#DejaVuSans-51"/>
       <use x="63.623047" xlink:href="#DejaVuSans-48"/>
       <use x="127.246094" xlink:href="#DejaVuSans-48"/>
      </g>
     </g>
    </g>
    <g id="ytick_8">
     <g id="line2d_14">
      <g>
       <use style="stroke:#000000;stroke-width:0.8;" x="50.565625" xlink:href="#m38651ae3a0" y="73.894164"/>
      </g>
     </g>
     <g id="text_15">
      <!-- 350 -->
      <g transform="translate(24.478125 77.693382)scale(0.1 -0.1)">
       <use xlink:href="#DejaVuSans-51"/>
       <use x="63.623047" xlink:href="#DejaVuSans-53"/>
       <use x="127.246094" xlink:href="#DejaVuSans-48"/>
      </g>
     </g>
    </g>
    <g id="ytick_9">
     <g id="line2d_15">
      <g>
       <use style="stroke:#000000;stroke-width:0.8;" x="50.565625" xlink:href="#m38651ae3a0" y="48.415651"/>
      </g>
     </g>
     <g id="text_16">
      <!-- 400 -->
      <g transform="translate(24.478125 52.21487)scale(0.1 -0.1)">
       <use xlink:href="#DejaVuSans-52"/>
       <use x="63.623047" xlink:href="#DejaVuSans-48"/>
       <use x="127.246094" xlink:href="#DejaVuSans-48"/>
      </g>
     </g>
    </g>
    <g id="text_17">
     <!-- Count -->
     <g transform="translate(18.398437 153.929375)rotate(-90)scale(0.1 -0.1)">
      <defs>
       <path d="M 64.40625 67.28125 
L 64.40625 56.890625 
Q 59.421875 61.53125 53.78125 63.8125 
Q 48.140625 66.109375 41.796875 66.109375 
Q 29.296875 66.109375 22.65625 58.46875 
Q 16.015625 50.828125 16.015625 36.375 
Q 16.015625 21.96875 22.65625 14.328125 
Q 29.296875 6.6875 41.796875 6.6875 
Q 48.140625 6.6875 53.78125 8.984375 
Q 59.421875 11.28125 64.40625 15.921875 
L 64.40625 5.609375 
Q 59.234375 2.09375 53.4375 0.328125 
Q 47.65625 -1.421875 41.21875 -1.421875 
Q 24.65625 -1.421875 15.125 8.703125 
Q 5.609375 18.84375 5.609375 36.375 
Q 5.609375 53.953125 15.125 64.078125 
Q 24.65625 74.21875 41.21875 74.21875 
Q 47.75 74.21875 53.53125 72.484375 
Q 59.328125 70.75 64.40625 67.28125 
z
" id="DejaVuSans-67"/>
       <path d="M 30.609375 48.390625 
Q 23.390625 48.390625 19.1875 42.75 
Q 14.984375 37.109375 14.984375 27.296875 
Q 14.984375 17.484375 19.15625 11.84375 
Q 23.34375 6.203125 30.609375 6.203125 
Q 37.796875 6.203125 41.984375 11.859375 
Q 46.1875 17.53125 46.1875 27.296875 
Q 46.1875 37.015625 41.984375 42.703125 
Q 37.796875 48.390625 30.609375 48.390625 
z
M 30.609375 56 
Q 42.328125 56 49.015625 48.375 
Q 55.71875 40.765625 55.71875 27.296875 
Q 55.71875 13.875 49.015625 6.21875 
Q 42.328125 -1.421875 30.609375 -1.421875 
Q 18.84375 -1.421875 12.171875 6.21875 
Q 5.515625 13.875 5.515625 27.296875 
Q 5.515625 40.765625 12.171875 48.375 
Q 18.84375 56 30.609375 56 
z
" id="DejaVuSans-111"/>
      </defs>
      <use xlink:href="#DejaVuSans-67"/>
      <use x="69.824219" xlink:href="#DejaVuSans-111"/>
      <use x="131.005859" xlink:href="#DejaVuSans-117"/>
      <use x="194.384766" xlink:href="#DejaVuSans-110"/>
      <use x="257.763672" xlink:href="#DejaVuSans-116"/>
     </g>
    </g>
   </g>
   <g id="patch_6">
    <path d="M 50.565625 252.24375 
L 50.565625 25.918125 
" style="fill:none;stroke:#000000;stroke-linecap:square;stroke-linejoin:miter;stroke-width:0.8;"/>
   </g>
   <g id="patch_7">
    <path d="M 354.6 252.24375 
L 354.6 25.918125 
" style="fill:none;stroke:#000000;stroke-linecap:square;stroke-linejoin:miter;stroke-width:0.8;"/>
   </g>
   <g id="patch_8">
    <path d="M 50.565625 252.24375 
L 354.6 252.24375 
" style="fill:none;stroke:#000000;stroke-linecap:square;stroke-linejoin:miter;stroke-width:0.8;"/>
   </g>
   <g id="patch_9">
    <path d="M 50.565625 25.918125 
L 354.6 25.918125 
" style="fill:none;stroke:#000000;stroke-linecap:square;stroke-linejoin:miter;stroke-width:0.8;"/>
   </g>
   <g id="text_18">
    <!-- Level 5, DC 14, CR 1-9 -->
    <g transform="translate(134.974063 19.918125)scale(0.12 -0.12)">
     <defs>
      <path d="M 9.8125 72.90625 
L 19.671875 72.90625 
L 19.671875 8.296875 
L 55.171875 8.296875 
L 55.171875 0 
L 9.8125 0 
z
" id="DejaVuSans-76"/>
      <path d="M 2.984375 54.6875 
L 12.5 54.6875 
L 29.59375 8.796875 
L 46.6875 54.6875 
L 56.203125 54.6875 
L 35.6875 0 
L 23.484375 0 
z
" id="DejaVuSans-118"/>
      <path d="M 9.421875 75.984375 
L 18.40625 75.984375 
L 18.40625 0 
L 9.421875 0 
z
" id="DejaVuSans-108"/>
      <path d="M 11.71875 12.40625 
L 22.015625 12.40625 
L 22.015625 4 
L 14.015625 -11.625 
L 7.71875 -11.625 
L 11.71875 4 
z
" id="DejaVuSans-44"/>
      <path d="M 19.671875 64.796875 
L 19.671875 8.109375 
L 31.59375 8.109375 
Q 46.6875 8.109375 53.6875 14.9375 
Q 60.6875 21.78125 60.6875 36.53125 
Q 60.6875 51.171875 53.6875 57.984375 
Q 46.6875 64.796875 31.59375 64.796875 
z
M 9.8125 72.90625 
L 30.078125 72.90625 
Q 51.265625 72.90625 61.171875 64.09375 
Q 71.09375 55.28125 71.09375 36.53125 
Q 71.09375 17.671875 61.125 8.828125 
Q 51.171875 0 30.078125 0 
L 9.8125 0 
z
" id="DejaVuSans-68"/>
      <path d="M 44.390625 34.1875 
Q 47.5625 33.109375 50.5625 29.59375 
Q 53.5625 26.078125 56.59375 19.921875 
L 66.609375 0 
L 56 0 
L 46.6875 18.703125 
Q 43.0625 26.03125 39.671875 28.421875 
Q 36.28125 30.8125 30.421875 30.8125 
L 19.671875 30.8125 
L 19.671875 0 
L 9.8125 0 
L 9.8125 72.90625 
L 32.078125 72.90625 
Q 44.578125 72.90625 50.734375 67.671875 
Q 56.890625 62.453125 56.890625 51.90625 
Q 56.890625 45.015625 53.6875 40.46875 
Q 50.484375 35.9375 44.390625 34.1875 
z
M 19.671875 64.796875 
L 19.671875 38.921875 
L 32.078125 38.921875 
Q 39.203125 38.921875 42.84375 42.21875 
Q 46.484375 45.515625 46.484375 51.90625 
Q 46.484375 58.296875 42.84375 61.546875 
Q 39.203125 64.796875 32.078125 64.796875 
z
" id="DejaVuSans-82"/>
      <path d="M 4.890625 31.390625 
L 31.203125 31.390625 
L 31.203125 23.390625 
L 4.890625 23.390625 
z
" id="DejaVuSans-45"/>
      <path d="M 10.984375 1.515625 
L 10.984375 10.5 
Q 14.703125 8.734375 18.5 7.8125 
Q 22.3125 6.890625 25.984375 6.890625 
Q 35.75 6.890625 40.890625 13.453125 
Q 46.046875 20.015625 46.78125 33.40625 
Q 43.953125 29.203125 39.59375 26.953125 
Q 35.25 24.703125 29.984375 24.703125 
Q 19.046875 24.703125 12.671875 31.3125 
Q 6.296875 37.9375 6.296875 49.421875 
Q 6.296875 60.640625 12.9375 67.421875 
Q 19.578125 74.21875 30.609375 74.21875 
Q 43.265625 74.21875 49.921875 64.515625 
Q 56.59375 54.828125 56.59375 36.375 
Q 56.59375 19.140625 48.40625 8.859375 
Q 40.234375 -1.421875 26.421875 -1.421875 
Q 22.703125 -1.421875 18.890625 -0.6875 
Q 15.09375 0.046875 10.984375 1.515625 
z
M 30.609375 32.421875 
Q 37.25 32.421875 41.125 36.953125 
Q 45.015625 41.5 45.015625 49.421875 
Q 45.015625 57.28125 41.125 61.84375 
Q 37.25 66.40625 30.609375 66.40625 
Q 23.96875 66.40625 20.09375 61.84375 
Q 16.21875 57.28125 16.21875 49.421875 
Q 16.21875 41.5 20.09375 36.953125 
Q 23.96875 32.421875 30.609375 32.421875 
z
" id="DejaVuSans-57"/>
     </defs>
     <use xlink:href="#DejaVuSans-76"/>
     <use x="53.962891" xlink:href="#DejaVuSans-101"/>
     <use x="115.486328" xlink:href="#DejaVuSans-118"/>
     <use x="174.666016" xlink:href="#DejaVuSans-101"/>
     <use x="236.189453" xlink:href="#DejaVuSans-108"/>
     <use x="263.972656" xlink:href="#DejaVuSans-32"/>
     <use x="295.759766" xlink:href="#DejaVuSans-53"/>
     <use x="359.382812" xlink:href="#DejaVuSans-44"/>
     <use x="391.169922" xlink:href="#DejaVuSans-32"/>
     <use x="422.957031" xlink:href="#DejaVuSans-68"/>
     <use x="499.958984" xlink:href="#DejaVuSans-67"/>
     <use x="569.783203" xlink:href="#DejaVuSans-32"/>
     <use x="601.570312" xlink:href="#DejaVuSans-49"/>
     <use x="665.193359" xlink:href="#DejaVuSans-52"/>
     <use x="728.816406" xlink:href="#DejaVuSans-44"/>
     <use x="760.603516" xlink:href="#DejaVuSans-32"/>
     <use x="792.390625" xlink:href="#DejaVuSans-67"/>
     <use x="862.214844" xlink:href="#DejaVuSans-82"/>
     <use x="931.697266" xlink:href="#DejaVuSans-32"/>
     <use x="963.484375" xlink:href="#DejaVuSans-49"/>
     <use x="1027.107422" xlink:href="#DejaVuSans-45"/>
     <use x="1063.191406" xlink:href="#DejaVuSans-57"/>
    </g>
   </g>
   <g id="legend_1">
    <g id="patch_10">
     <path d="M 262.704687 77.9525 
L 347.6 77.9525 
Q 349.6 77.9525 349.6 75.9525 
L 349.6 32.918125 
Q 349.6 30.918125 347.6 30.918125 
L 262.704687 30.918125 
Q 260.704687 30.918125 260.704687 32.918125 
L 260.704687 75.9525 
Q 260.704687 77.9525 262.704687 77.9525 
z
" style="fill:#ffffff;opacity:0.8;stroke:#cccccc;stroke-linejoin:miter;"/>
    </g>
    <g id="patch_11">
     <path d="M 264.704687 42.516562 
L 284.704687 42.516562 
L 284.704687 35.516562 
L 264.704687 35.516562 
z
" style="fill:#2ca02c;"/>
    </g>
    <g id="text_19">
     <!-- Unique -->
     <g transform="translate(292.704687 42.516562)scale(0.1 -0.1)">
      <defs>
       <path d="M 8.6875 72.90625 
L 18.609375 72.90625 
L 18.609375 28.609375 
Q 18.609375 16.890625 22.84375 11.734375 
Q 27.09375 6.59375 36.625 6.59375 
Q 46.09375 6.59375 50.34375 11.734375 
Q 54.59375 16.890625 54.59375 28.609375 
L 54.59375 72.90625 
L 64.5 72.90625 
L 64.5 27.390625 
Q 64.5 13.140625 57.4375 5.859375 
Q 50.390625 -1.421875 36.625 -1.421875 
Q 22.796875 -1.421875 15.734375 5.859375 
Q 8.6875 13.140625 8.6875 27.390625 
z
" id="DejaVuSans-85"/>
       <path d="M 14.796875 27.296875 
Q 14.796875 17.390625 18.875 11.75 
Q 22.953125 6.109375 30.078125 6.109375 
Q 37.203125 6.109375 41.296875 11.75 
Q 45.40625 17.390625 45.40625 27.296875 
Q 45.40625 37.203125 41.296875 42.84375 
Q 37.203125 48.484375 30.078125 48.484375 
Q 22.953125 48.484375 18.875 42.84375 
Q 14.796875 37.203125 14.796875 27.296875 
z
M 45.40625 8.203125 
Q 42.578125 3.328125 38.25 0.953125 
Q 33.9375 -1.421875 27.875 -1.421875 
Q 17.96875 -1.421875 11.734375 6.484375 
Q 5.515625 14.40625 5.515625 27.296875 
Q 5.515625 40.1875 11.734375 48.09375 
Q 17.96875 56 27.875 56 
Q 33.9375 56 38.25 53.625 
Q 42.578125 51.265625 45.40625 46.390625 
L 45.40625 54.6875 
L 54.390625 54.6875 
L 54.390625 -20.796875 
L 45.40625 -20.796875 
z
" id="DejaVuSans-113"/>
      </defs>
      <use xlink:href="#DejaVuSans-85"/>
      <use x="73.193359" xlink:href="#DejaVuSans-110"/>
      <use x="136.572266" xlink:href="#DejaVuSans-105"/>
      <use x="164.355469" xlink:href="#DejaVuSans-113"/>
      <use x="227.832031" xlink:href="#DejaVuSans-117"/>
      <use x="291.210938" xlink:href="#DejaVuSans-101"/>
     </g>
    </g>
    <g id="patch_12">
     <path d="M 264.704687 57.194687 
L 284.704687 57.194687 
L 284.704687 50.194687 
L 264.704687 50.194687 
z
" style="fill:#ff7f0e;"/>
    </g>
    <g id="text_20">
     <!-- Legendary -->
     <g transform="translate(292.704687 57.194687)scale(0.1 -0.1)">
      <defs>
       <path d="M 45.40625 27.984375 
Q 45.40625 37.75 41.375 43.109375 
Q 37.359375 48.484375 30.078125 48.484375 
Q 22.859375 48.484375 18.828125 43.109375 
Q 14.796875 37.75 14.796875 27.984375 
Q 14.796875 18.265625 18.828125 12.890625 
Q 22.859375 7.515625 30.078125 7.515625 
Q 37.359375 7.515625 41.375 12.890625 
Q 45.40625 18.265625 45.40625 27.984375 
z
M 54.390625 6.78125 
Q 54.390625 -7.171875 48.1875 -13.984375 
Q 42 -20.796875 29.203125 -20.796875 
Q 24.46875 -20.796875 20.265625 -20.09375 
Q 16.0625 -19.390625 12.109375 -17.921875 
L 12.109375 -9.1875 
Q 16.0625 -11.328125 19.921875 -12.34375 
Q 23.78125 -13.375 27.78125 -13.375 
Q 36.625 -13.375 41.015625 -8.765625 
Q 45.40625 -4.15625 45.40625 5.171875 
L 45.40625 9.625 
Q 42.625 4.78125 38.28125 2.390625 
Q 33.9375 0 27.875 0 
Q 17.828125 0 11.671875 7.65625 
Q 5.515625 15.328125 5.515625 27.984375 
Q 5.515625 40.671875 11.671875 48.328125 
Q 17.828125 56 27.875 56 
Q 33.9375 56 38.28125 53.609375 
Q 42.625 51.21875 45.40625 46.390625 
L 45.40625 54.6875 
L 54.390625 54.6875 
z
" id="DejaVuSans-103"/>
       <path d="M 45.40625 46.390625 
L 45.40625 75.984375 
L 54.390625 75.984375 
L 54.390625 0 
L 45.40625 0 
L 45.40625 8.203125 
Q 42.578125 3.328125 38.25 0.953125 
Q 33.9375 -1.421875 27.875 -1.421875 
Q 17.96875 -1.421875 11.734375 6.484375 
Q 5.515625 14.40625 5.515625 27.296875 
Q 5.515625 40.1875 11.734375 48.09375 
Q 17.96875 56 27.875 56 
Q 33.9375 56 38.25 53.625 
Q 42.578125 51.265625 45.40625 46.390625 
z
M 14.796875 27.296875 
Q 14.796875 17.390625 18.875 11.75 
Q 22.953125 6.109375 30.078125 6.109375 
Q 37.203125 6.109375 41.296875 11.75 
Q 45.40625 17.390625 45.40625 27.296875 
Q 45.40625 37.203125 41.296875 42.84375 
Q 37.203125 48.484375 30.078125 48.484375 
Q 22.953125 48.484375 18.875 42.84375 
Q 14.796875 37.203125 14.796875 27.296875 
z
" id="DejaVuSans-100"/>
       <path d="M 34.28125 27.484375 
Q 23.390625 27.484375 19.1875 25 
Q 14.984375 22.515625 14.984375 16.5 
Q 14.984375 11.71875 18.140625 8.90625 
Q 21.296875 6.109375 26.703125 6.109375 
Q 34.1875 6.109375 38.703125 11.40625 
Q 43.21875 16.703125 43.21875 25.484375 
L 43.21875 27.484375 
z
M 52.203125 31.203125 
L 52.203125 0 
L 43.21875 0 
L 43.21875 8.296875 
Q 40.140625 3.328125 35.546875 0.953125 
Q 30.953125 -1.421875 24.3125 -1.421875 
Q 15.921875 -1.421875 10.953125 3.296875 
Q 6 8.015625 6 15.921875 
Q 6 25.140625 12.171875 29.828125 
Q 18.359375 34.515625 30.609375 34.515625 
L 43.21875 34.515625 
L 43.21875 35.40625 
Q 43.21875 41.609375 39.140625 45 
Q 35.0625 48.390625 27.6875 48.390625 
Q 23 48.390625 18.546875 47.265625 
Q 14.109375 46.140625 10.015625 43.890625 
L 10.015625 52.203125 
Q 14.9375 54.109375 19.578125 55.046875 
Q 24.21875 56 28.609375 56 
Q 40.484375 56 46.34375 49.84375 
Q 52.203125 43.703125 52.203125 31.203125 
z
" id="DejaVuSans-97"/>
       <path d="M 32.171875 -5.078125 
Q 28.375 -14.84375 24.75 -17.8125 
Q 21.140625 -20.796875 15.09375 -20.796875 
L 7.90625 -20.796875 
L 7.90625 -13.28125 
L 13.1875 -13.28125 
Q 16.890625 -13.28125 18.9375 -11.515625 
Q 21 -9.765625 23.484375 -3.21875 
L 25.09375 0.875 
L 2.984375 54.6875 
L 12.5 54.6875 
L 29.59375 11.921875 
L 46.6875 54.6875 
L 56.203125 54.6875 
z
" id="DejaVuSans-121"/>
      </defs>
      <use xlink:href="#DejaVuSans-76"/>
      <use x="53.962891" xlink:href="#DejaVuSans-101"/>
      <use x="115.486328" xlink:href="#DejaVuSans-103"/>
      <use x="178.962891" xlink:href="#DejaVuSans-101"/>
      <use x="240.486328" xlink:href="#DejaVuSans-110"/>
      <use x="303.865234" xlink:href="#DejaVuSans-100"/>
      <use x="367.341797" xlink:href="#DejaVuSans-97"/>
      <use x="428.621094" xlink:href="#DejaVuSans-114"/>
      <use x="469.734375" xlink:href="#DejaVuSans-121"/>
     </g>
    </g>
    <g id="patch_13">
     <path d="M 264.704687 71.872812 
L 284.704687 71.872812 
L 284.704687 64.872812 
L 264.704687 64.872812 
z
" style="fill:#1f77b4;"/>
    </g>
    <g id="text_21">
     <!-- Generic -->
     <g transform="translate(292.704687 71.872812)scale(0.1 -0.1)">
      <defs>
       <path d="M 59.515625 10.40625 
L 59.515625 29.984375 
L 43.40625 29.984375 
L 43.40625 38.09375 
L 69.28125 38.09375 
L 69.28125 6.78125 
Q 63.578125 2.734375 56.6875 0.65625 
Q 49.8125 -1.421875 42 -1.421875 
Q 24.90625 -1.421875 15.25 8.5625 
Q 5.609375 18.5625 5.609375 36.375 
Q 5.609375 54.25 15.25 64.234375 
Q 24.90625 74.21875 42 74.21875 
Q 49.125 74.21875 55.546875 72.453125 
Q 61.96875 70.703125 67.390625 67.28125 
L 67.390625 56.78125 
Q 61.921875 61.421875 55.765625 63.765625 
Q 49.609375 66.109375 42.828125 66.109375 
Q 29.4375 66.109375 22.71875 58.640625 
Q 16.015625 51.171875 16.015625 36.375 
Q 16.015625 21.625 22.71875 14.15625 
Q 29.4375 6.6875 42.828125 6.6875 
Q 48.046875 6.6875 52.140625 7.59375 
Q 56.25 8.5 59.515625 10.40625 
z
" id="DejaVuSans-71"/>
       <path d="M 48.78125 52.59375 
L 48.78125 44.1875 
Q 44.96875 46.296875 41.140625 47.34375 
Q 37.3125 48.390625 33.40625 48.390625 
Q 24.65625 48.390625 19.8125 42.84375 
Q 14.984375 37.3125 14.984375 27.296875 
Q 14.984375 17.28125 19.8125 11.734375 
Q 24.65625 6.203125 33.40625 6.203125 
Q 37.3125 6.203125 41.140625 7.25 
Q 44.96875 8.296875 48.78125 10.40625 
L 48.78125 2.09375 
Q 45.015625 0.34375 40.984375 -0.53125 
Q 36.96875 -1.421875 32.421875 -1.421875 
Q 20.0625 -1.421875 12.78125 6.34375 
Q 5.515625 14.109375 5.515625 27.296875 
Q 5.515625 40.671875 12.859375 48.328125 
Q 20.21875 56 33.015625 56 
Q 37.15625 56 41.109375 55.140625 
Q 45.0625 54.296875 48.78125 52.59375 
z
" id="DejaVuSans-99"/>
      </defs>
      <use xlink:href="#DejaVuSans-71"/>
      <use x="77.490234" xlink:href="#DejaVuSans-101"/>
      <use x="139.013672" xlink:href="#DejaVuSans-110"/>
      <use x="202.392578" xlink:href="#DejaVuSans-101"/>
      <use x="263.916016" xlink:href="#DejaVuSans-114"/>
      <use x="305.029297" xlink:href="#DejaVuSans-105"/>
      <use x="332.8125" xlink:href="#DejaVuSans-99"/>
     </g>
    </g>
   </g>
  </g>
  <g id="axes_2">
   <g id="patch_14">
    <path d="M 405.165625 252.24375 
L 709.2 252.24375 
L 709.2 25.918125 
L 405.165625 25.918125 
z
" style="fill:#ffffff;"/>
   </g>
   <g id="patch_15">
    <path clip-path="url(#pd00a3dade2)" d="M 418.985369 252.24375 
L 418.985369 252.24375 
L 432.147031 252.24375 
L 432.147031 252.24375 
L 445.308692 252.24375 
L 445.308692 252.24375 
L 458.470353 252.24375 
L 458.470353 36.695536 
L 471.632014 36.695536 
L 471.632014 61.296147 
L 484.793676 61.296147 
L 484.793676 224.128766 
L 497.955337 224.128766 
L 497.955337 217.100019 
L 511.116998 217.100019 
L 511.116998 229.986054 
L 524.278659 229.986054 
L 524.278659 231.157512 
L 537.440321 231.157512 
L 537.440321 252.24375 
L 550.601982 252.24375 
L 550.601982 240.529173 
L 563.763643 240.529173 
L 563.763643 252.24375 
L 576.925304 252.24375 
L 576.925304 252.24375 
L 590.086966 252.24375 
L 590.086966 249.900835 
L 603.248627 249.900835 
L 603.248627 252.24375 
L 616.410288 252.24375 
L 616.410288 252.24375 
L 629.571949 252.24375 
L 629.571949 252.24375 
L 642.733611 252.24375 
L 642.733611 252.24375 
L 655.895272 252.24375 
L 655.895272 252.24375 
L 669.056933 252.24375 
L 669.056933 252.24375 
L 682.218594 252.24375 
L 682.218594 252.24375 
L 695.380256 252.24375 
L 695.380256 252.24375 
L 682.218594 252.24375 
L 682.218594 252.24375 
L 669.056933 252.24375 
L 669.056933 252.24375 
L 655.895272 252.24375 
L 655.895272 252.24375 
L 642.733611 252.24375 
L 642.733611 252.24375 
L 629.571949 252.24375 
L 629.571949 252.24375 
L 616.410288 252.24375 
L 616.410288 252.24375 
L 603.248627 252.24375 
L 603.248627 251.072292 
L 590.086966 251.072292 
L 590.086966 252.24375 
L 576.925304 252.24375 
L 576.925304 252.24375 
L 563.763643 252.24375 
L 563.763643 241.700631 
L 550.601982 241.700631 
L 550.601982 252.24375 
L 537.440321 252.24375 
L 537.440321 234.671885 
L 524.278659 234.671885 
L 524.278659 235.843342 
L 511.116998 235.843342 
L 511.116998 222.957308 
L 497.955337 222.957308 
L 497.955337 226.471681 
L 484.793676 226.471681 
L 484.793676 108.154455 
L 471.632014 108.154455 
L 471.632014 88.239674 
L 458.470353 88.239674 
L 458.470353 252.24375 
L 445.308692 252.24375 
L 445.308692 252.24375 
L 432.147031 252.24375 
L 432.147031 252.24375 
z
" style="fill:#2ca02c;"/>
   </g>
   <g id="patch_16">
    <path clip-path="url(#pd00a3dade2)" d="M 418.985369 252.24375 
L 418.985369 252.24375 
L 432.147031 252.24375 
L 432.147031 252.24375 
L 445.308692 252.24375 
L 445.308692 252.24375 
L 458.470353 252.24375 
L 458.470353 88.239674 
L 471.632014 88.239674 
L 471.632014 108.154455 
L 484.793676 108.154455 
L 484.793676 226.471681 
L 497.955337 226.471681 
L 497.955337 222.957308 
L 511.116998 222.957308 
L 511.116998 235.843342 
L 524.278659 235.843342 
L 524.278659 234.671885 
L 537.440321 234.671885 
L 537.440321 252.24375 
L 550.601982 252.24375 
L 550.601982 241.700631 
L 563.763643 241.700631 
L 563.763643 252.24375 
L 576.925304 252.24375 
L 576.925304 252.24375 
L 590.086966 252.24375 
L 590.086966 251.072292 
L 603.248627 251.072292 
L 603.248627 252.24375 
L 616.410288 252.24375 
L 616.410288 252.24375 
L 629.571949 252.24375 
L 629.571949 252.24375 
L 642.733611 252.24375 
L 642.733611 252.24375 
L 655.895272 252.24375 
L 655.895272 252.24375 
L 669.056933 252.24375 
L 669.056933 252.24375 
L 682.218594 252.24375 
L 682.218594 252.24375 
L 695.380256 252.24375 
L 695.380256 252.24375 
L 682.218594 252.24375 
L 682.218594 252.24375 
L 669.056933 252.24375 
L 669.056933 252.24375 
L 655.895272 252.24375 
L 655.895272 252.24375 
L 642.733611 252.24375 
L 642.733611 252.24375 
L 629.571949 252.24375 
L 629.571949 252.24375 
L 616.410288 252.24375 
L 616.410288 252.24375 
L 603.248627 252.24375 
L 603.248627 251.072292 
L 590.086966 251.072292 
L 590.086966 252.24375 
L 576.925304 252.24375 
L 576.925304 252.24375 
L 563.763643 252.24375 
L 563.763643 245.215004 
L 550.601982 245.215004 
L 550.601982 252.24375 
L 537.440321 252.24375 
L 537.440321 240.529173 
L 524.278659 240.529173 
L 524.278659 239.357715 
L 511.116998 239.357715 
L 511.116998 228.814596 
L 497.955337 228.814596 
L 497.955337 229.986054 
L 484.793676 229.986054 
L 484.793676 116.354658 
L 471.632014 116.354658 
L 471.632014 92.925505 
L 458.470353 92.925505 
L 458.470353 252.24375 
L 445.308692 252.24375 
L 445.308692 252.24375 
L 432.147031 252.24375 
L 432.147031 252.24375 
z
" style="fill:#ff7f0e;"/>
   </g>
   <g id="patch_17">
    <path clip-path="url(#pd00a3dade2)" d="M 418.985369 252.24375 
L 418.985369 252.24375 
L 432.147031 252.24375 
L 432.147031 252.24375 
L 445.308692 252.24375 
L 445.308692 252.24375 
L 458.470353 252.24375 
L 458.470353 92.925505 
L 471.632014 92.925505 
L 471.632014 116.354658 
L 484.793676 116.354658 
L 484.793676 229.986054 
L 497.955337 229.986054 
L 497.955337 228.814596 
L 511.116998 228.814596 
L 511.116998 239.357715 
L 524.278659 239.357715 
L 524.278659 240.529173 
L 537.440321 240.529173 
L 537.440321 252.24375 
L 550.601982 252.24375 
L 550.601982 245.215004 
L 563.763643 245.215004 
L 563.763643 252.24375 
L 576.925304 252.24375 
L 576.925304 252.24375 
L 590.086966 252.24375 
L 590.086966 251.072292 
L 603.248627 251.072292 
L 603.248627 252.24375 
L 616.410288 252.24375 
L 616.410288 252.24375 
L 629.571949 252.24375 
L 629.571949 252.24375 
L 642.733611 252.24375 
L 642.733611 252.24375 
L 655.895272 252.24375 
L 655.895272 252.24375 
L 669.056933 252.24375 
L 669.056933 252.24375 
L 682.218594 252.24375 
L 682.218594 252.24375 
L 695.380256 252.24375 
L 695.380256 252.24375 
L 682.218594 252.24375 
L 682.218594 252.24375 
L 669.056933 252.24375 
L 669.056933 252.24375 
L 655.895272 252.24375 
L 655.895272 252.24375 
L 642.733611 252.24375 
L 642.733611 252.24375 
L 629.571949 252.24375 
L 629.571949 252.24375 
L 616.410288 252.24375 
L 616.410288 252.24375 
L 603.248627 252.24375 
L 603.248627 252.24375 
L 590.086966 252.24375 
L 590.086966 252.24375 
L 576.925304 252.24375 
L 576.925304 252.24375 
L 563.763643 252.24375 
L 563.763643 252.24375 
L 550.601982 252.24375 
L 550.601982 252.24375 
L 537.440321 252.24375 
L 537.440321 252.24375 
L 524.278659 252.24375 
L 524.278659 252.24375 
L 511.116998 252.24375 
L 511.116998 252.24375 
L 497.955337 252.24375 
L 497.955337 252.24375 
L 484.793676 252.24375 
L 484.793676 252.24375 
L 471.632014 252.24375 
L 471.632014 252.24375 
L 458.470353 252.24375 
L 458.470353 252.24375 
L 445.308692 252.24375 
L 445.308692 252.24375 
L 432.147031 252.24375 
L 432.147031 252.24375 
z
" style="fill:#1f77b4;"/>
   </g>
   <g id="matplotlib.axis_3">
    <g id="xtick_7">
     <g id="line2d_16">
      <g>
       <use style="stroke:#000000;stroke-width:0.8;" x="425.5662" xlink:href="#m7cf37a72fd" y="252.24375"/>
      </g>
     </g>
     <g id="text_22">
      <!-- 0 -->
      <g transform="translate(422.38495 266.842187)scale(0.1 -0.1)">
       <use xlink:href="#DejaVuSans-48"/>
      </g>
     </g>
    </g>
    <g id="xtick_8">
     <g id="line2d_17">
      <g>
       <use style="stroke:#000000;stroke-width:0.8;" x="478.212845" xlink:href="#m7cf37a72fd" y="252.24375"/>
      </g>
     </g>
     <g id="text_23">
      <!-- 2 -->
      <g transform="translate(475.031595 266.842187)scale(0.1 -0.1)">
       <use xlink:href="#DejaVuSans-50"/>
      </g>
     </g>
    </g>
    <g id="xtick_9">
     <g id="line2d_18">
      <g>
       <use style="stroke:#000000;stroke-width:0.8;" x="530.85949" xlink:href="#m7cf37a72fd" y="252.24375"/>
      </g>
     </g>
     <g id="text_24">
      <!-- 4 -->
      <g transform="translate(527.67824 266.842187)scale(0.1 -0.1)">
       <use xlink:href="#DejaVuSans-52"/>
      </g>
     </g>
    </g>
    <g id="xtick_10">
     <g id="line2d_19">
      <g>
       <use style="stroke:#000000;stroke-width:0.8;" x="583.506135" xlink:href="#m7cf37a72fd" y="252.24375"/>
      </g>
     </g>
     <g id="text_25">
      <!-- 6 -->
      <g transform="translate(580.324885 266.842187)scale(0.1 -0.1)">
       <use xlink:href="#DejaVuSans-54"/>
      </g>
     </g>
    </g>
    <g id="xtick_11">
     <g id="line2d_20">
      <g>
       <use style="stroke:#000000;stroke-width:0.8;" x="636.15278" xlink:href="#m7cf37a72fd" y="252.24375"/>
      </g>
     </g>
     <g id="text_26">
      <!-- 8 -->
      <g transform="translate(632.97153 266.842187)scale(0.1 -0.1)">
       <use xlink:href="#DejaVuSans-56"/>
      </g>
     </g>
    </g>
    <g id="xtick_12">
     <g id="line2d_21">
      <g>
       <use style="stroke:#000000;stroke-width:0.8;" x="688.799425" xlink:href="#m7cf37a72fd" y="252.24375"/>
      </g>
     </g>
     <g id="text_27">
      <!-- 10 -->
      <g transform="translate(682.436925 266.842187)scale(0.1 -0.1)">
       <use xlink:href="#DejaVuSans-49"/>
       <use x="63.623047" xlink:href="#DejaVuSans-48"/>
      </g>
     </g>
    </g>
    <g id="text_28">
     <!-- Ki per Stun -->
     <g transform="translate(529.558594 280.520312)scale(0.1 -0.1)">
      <use xlink:href="#DejaVuSans-75"/>
      <use x="65.576172" xlink:href="#DejaVuSans-105"/>
      <use x="93.359375" xlink:href="#DejaVuSans-32"/>
      <use x="125.146484" xlink:href="#DejaVuSans-112"/>
      <use x="188.623047" xlink:href="#DejaVuSans-101"/>
      <use x="250.146484" xlink:href="#DejaVuSans-114"/>
      <use x="291.259766" xlink:href="#DejaVuSans-32"/>
      <use x="323.046875" xlink:href="#DejaVuSans-83"/>
      <use x="386.523438" xlink:href="#DejaVuSans-116"/>
      <use x="425.732422" xlink:href="#DejaVuSans-117"/>
      <use x="489.111328" xlink:href="#DejaVuSans-110"/>
     </g>
    </g>
   </g>
   <g id="matplotlib.axis_4">
    <g id="ytick_10">
     <g id="line2d_22">
      <g>
       <use style="stroke:#000000;stroke-width:0.8;" x="405.165625" xlink:href="#m38651ae3a0" y="252.24375"/>
      </g>
     </g>
     <g id="text_29">
      <!-- 0 -->
      <g transform="translate(391.803125 256.042969)scale(0.1 -0.1)">
       <use xlink:href="#DejaVuSans-48"/>
      </g>
     </g>
    </g>
    <g id="ytick_11">
     <g id="line2d_23">
      <g>
       <use style="stroke:#000000;stroke-width:0.8;" x="405.165625" xlink:href="#m38651ae3a0" y="228.814596"/>
      </g>
     </g>
     <g id="text_30">
      <!-- 20 -->
      <g transform="translate(385.440625 232.613815)scale(0.1 -0.1)">
       <use xlink:href="#DejaVuSans-50"/>
       <use x="63.623047" xlink:href="#DejaVuSans-48"/>
      </g>
     </g>
    </g>
    <g id="ytick_12">
     <g id="line2d_24">
      <g>
       <use style="stroke:#000000;stroke-width:0.8;" x="405.165625" xlink:href="#m38651ae3a0" y="205.385443"/>
      </g>
     </g>
     <g id="text_31">
      <!-- 40 -->
      <g transform="translate(385.440625 209.184661)scale(0.1 -0.1)">
       <use xlink:href="#DejaVuSans-52"/>
       <use x="63.623047" xlink:href="#DejaVuSans-48"/>
      </g>
     </g>
    </g>
    <g id="ytick_13">
     <g id="line2d_25">
      <g>
       <use style="stroke:#000000;stroke-width:0.8;" x="405.165625" xlink:href="#m38651ae3a0" y="181.956289"/>
      </g>
     </g>
     <g id="text_32">
      <!-- 60 -->
      <g transform="translate(385.440625 185.755508)scale(0.1 -0.1)">
       <use xlink:href="#DejaVuSans-54"/>
       <use x="63.623047" xlink:href="#DejaVuSans-48"/>
      </g>
     </g>
    </g>
    <g id="ytick_14">
     <g id="line2d_26">
      <g>
       <use style="stroke:#000000;stroke-width:0.8;" x="405.165625" xlink:href="#m38651ae3a0" y="158.527135"/>
      </g>
     </g>
     <g id="text_33">
      <!-- 80 -->
      <g transform="translate(385.440625 162.326354)scale(0.1 -0.1)">
       <use xlink:href="#DejaVuSans-56"/>
       <use x="63.623047" xlink:href="#DejaVuSans-48"/>
      </g>
     </g>
    </g>
    <g id="ytick_15">
     <g id="line2d_27">
      <g>
       <use style="stroke:#000000;stroke-width:0.8;" x="405.165625" xlink:href="#m38651ae3a0" y="135.097981"/>
      </g>
     </g>
     <g id="text_34">
      <!-- 100 -->
      <g transform="translate(379.078125 138.8972)scale(0.1 -0.1)">
       <use xlink:href="#DejaVuSans-49"/>
       <use x="63.623047" xlink:href="#DejaVuSans-48"/>
       <use x="127.246094" xlink:href="#DejaVuSans-48"/>
      </g>
     </g>
    </g>
    <g id="ytick_16">
     <g id="line2d_28">
      <g>
       <use style="stroke:#000000;stroke-width:0.8;" x="405.165625" xlink:href="#m38651ae3a0" y="111.668828"/>
      </g>
     </g>
     <g id="text_35">
      <!-- 120 -->
      <g transform="translate(379.078125 115.468046)scale(0.1 -0.1)">
       <use xlink:href="#DejaVuSans-49"/>
       <use x="63.623047" xlink:href="#DejaVuSans-50"/>
       <use x="127.246094" xlink:href="#DejaVuSans-48"/>
      </g>
     </g>
    </g>
    <g id="ytick_17">
     <g id="line2d_29">
      <g>
       <use style="stroke:#000000;stroke-width:0.8;" x="405.165625" xlink:href="#m38651ae3a0" y="88.239674"/>
      </g>
     </g>
     <g id="text_36">
      <!-- 140 -->
      <g transform="translate(379.078125 92.038893)scale(0.1 -0.1)">
       <use xlink:href="#DejaVuSans-49"/>
       <use x="63.623047" xlink:href="#DejaVuSans-52"/>
       <use x="127.246094" xlink:href="#DejaVuSans-48"/>
      </g>
     </g>
    </g>
    <g id="ytick_18">
     <g id="line2d_30">
      <g>
       <use style="stroke:#000000;stroke-width:0.8;" x="405.165625" xlink:href="#m38651ae3a0" y="64.81052"/>
      </g>
     </g>
     <g id="text_37">
      <!-- 160 -->
      <g transform="translate(379.078125 68.609739)scale(0.1 -0.1)">
       <use xlink:href="#DejaVuSans-49"/>
       <use x="63.623047" xlink:href="#DejaVuSans-54"/>
       <use x="127.246094" xlink:href="#DejaVuSans-48"/>
      </g>
     </g>
    </g>
    <g id="ytick_19">
     <g id="line2d_31">
      <g>
       <use style="stroke:#000000;stroke-width:0.8;" x="405.165625" xlink:href="#m38651ae3a0" y="41.381366"/>
      </g>
     </g>
     <g id="text_38">
      <!-- 180 -->
      <g transform="translate(379.078125 45.180585)scale(0.1 -0.1)">
       <use xlink:href="#DejaVuSans-49"/>
       <use x="63.623047" xlink:href="#DejaVuSans-56"/>
       <use x="127.246094" xlink:href="#DejaVuSans-48"/>
      </g>
     </g>
    </g>
    <g id="text_39">
     <!-- Count -->
     <g transform="translate(372.998438 153.929375)rotate(-90)scale(0.1 -0.1)">
      <use xlink:href="#DejaVuSans-67"/>
      <use x="69.824219" xlink:href="#DejaVuSans-111"/>
      <use x="131.005859" xlink:href="#DejaVuSans-117"/>
      <use x="194.384766" xlink:href="#DejaVuSans-110"/>
      <use x="257.763672" xlink:href="#DejaVuSans-116"/>
     </g>
    </g>
   </g>
   <g id="patch_18">
    <path d="M 405.165625 252.24375 
L 405.165625 25.918125 
" style="fill:none;stroke:#000000;stroke-linecap:square;stroke-linejoin:miter;stroke-width:0.8;"/>
   </g>
   <g id="patch_19">
    <path d="M 709.2 252.24375 
L 709.2 25.918125 
" style="fill:none;stroke:#000000;stroke-linecap:square;stroke-linejoin:miter;stroke-width:0.8;"/>
   </g>
   <g id="patch_20">
    <path d="M 405.165625 252.24375 
L 709.2 252.24375 
" style="fill:none;stroke:#000000;stroke-linecap:square;stroke-linejoin:miter;stroke-width:0.8;"/>
   </g>
   <g id="patch_21">
    <path d="M 405.165625 25.918125 
L 709.2 25.918125 
" style="fill:none;stroke:#000000;stroke-linecap:square;stroke-linejoin:miter;stroke-width:0.8;"/>
   </g>
   <g id="text_40">
    <!-- Level 10, DC 16, CR 5-15 -->
    <g transform="translate(481.939063 19.918125)scale(0.12 -0.12)">
     <use xlink:href="#DejaVuSans-76"/>
     <use x="53.962891" xlink:href="#DejaVuSans-101"/>
     <use x="115.486328" xlink:href="#DejaVuSans-118"/>
     <use x="174.666016" xlink:href="#DejaVuSans-101"/>
     <use x="236.189453" xlink:href="#DejaVuSans-108"/>
     <use x="263.972656" xlink:href="#DejaVuSans-32"/>
     <use x="295.759766" xlink:href="#DejaVuSans-49"/>
     <use x="359.382812" xlink:href="#DejaVuSans-48"/>
     <use x="423.005859" xlink:href="#DejaVuSans-44"/>
     <use x="454.792969" xlink:href="#DejaVuSans-32"/>
     <use x="486.580078" xlink:href="#DejaVuSans-68"/>
     <use x="563.582031" xlink:href="#DejaVuSans-67"/>
     <use x="633.40625" xlink:href="#DejaVuSans-32"/>
     <use x="665.193359" xlink:href="#DejaVuSans-49"/>
     <use x="728.816406" xlink:href="#DejaVuSans-54"/>
     <use x="792.439453" xlink:href="#DejaVuSans-44"/>
     <use x="824.226562" xlink:href="#DejaVuSans-32"/>
     <use x="856.013672" xlink:href="#DejaVuSans-67"/>
     <use x="925.837891" xlink:href="#DejaVuSans-82"/>
     <use x="995.320312" xlink:href="#DejaVuSans-32"/>
     <use x="1027.107422" xlink:href="#DejaVuSans-53"/>
     <use x="1090.730469" xlink:href="#DejaVuSans-45"/>
     <use x="1126.814453" xlink:href="#DejaVuSans-49"/>
     <use x="1190.4375" xlink:href="#DejaVuSans-53"/>
    </g>
   </g>
   <g id="legend_2">
    <g id="patch_22">
     <path d="M 617.304688 77.9525 
L 702.2 77.9525 
Q 704.2 77.9525 704.2 75.9525 
L 704.2 32.918125 
Q 704.2 30.918125 702.2 30.918125 
L 617.304688 30.918125 
Q 615.304688 30.918125 615.304688 32.918125 
L 615.304688 75.9525 
Q 615.304688 77.9525 617.304688 77.9525 
z
" style="fill:#ffffff;opacity:0.8;stroke:#cccccc;stroke-linejoin:miter;"/>
    </g>
    <g id="patch_23">
     <path d="M 619.304688 42.516562 
L 639.304688 42.516562 
L 639.304688 35.516562 
L 619.304688 35.516562 
z
" style="fill:#2ca02c;"/>
    </g>
    <g id="text_41">
     <!-- Unique -->
     <g transform="translate(647.304688 42.516562)scale(0.1 -0.1)">
      <use xlink:href="#DejaVuSans-85"/>
      <use x="73.193359" xlink:href="#DejaVuSans-110"/>
      <use x="136.572266" xlink:href="#DejaVuSans-105"/>
      <use x="164.355469" xlink:href="#DejaVuSans-113"/>
      <use x="227.832031" xlink:href="#DejaVuSans-117"/>
      <use x="291.210938" xlink:href="#DejaVuSans-101"/>
     </g>
    </g>
    <g id="patch_24">
     <path d="M 619.304688 57.194687 
L 639.304688 57.194687 
L 639.304688 50.194687 
L 619.304688 50.194687 
z
" style="fill:#ff7f0e;"/>
    </g>
    <g id="text_42">
     <!-- Legendary -->
     <g transform="translate(647.304688 57.194687)scale(0.1 -0.1)">
      <use xlink:href="#DejaVuSans-76"/>
      <use x="53.962891" xlink:href="#DejaVuSans-101"/>
      <use x="115.486328" xlink:href="#DejaVuSans-103"/>
      <use x="178.962891" xlink:href="#DejaVuSans-101"/>
      <use x="240.486328" xlink:href="#DejaVuSans-110"/>
      <use x="303.865234" xlink:href="#DejaVuSans-100"/>
      <use x="367.341797" xlink:href="#DejaVuSans-97"/>
      <use x="428.621094" xlink:href="#DejaVuSans-114"/>
      <use x="469.734375" xlink:href="#DejaVuSans-121"/>
     </g>
    </g>
    <g id="patch_25">
     <path d="M 619.304688 71.872812 
L 639.304688 71.872812 
L 639.304688 64.872812 
L 619.304688 64.872812 
z
" style="fill:#1f77b4;"/>
    </g>
    <g id="text_43">
     <!-- Generic -->
     <g transform="translate(647.304688 71.872812)scale(0.1 -0.1)">
      <use xlink:href="#DejaVuSans-71"/>
      <use x="77.490234" xlink:href="#DejaVuSans-101"/>
      <use x="139.013672" xlink:href="#DejaVuSans-110"/>
      <use x="202.392578" xlink:href="#DejaVuSans-101"/>
      <use x="263.916016" xlink:href="#DejaVuSans-114"/>
      <use x="305.029297" xlink:href="#DejaVuSans-105"/>
      <use x="332.8125" xlink:href="#DejaVuSans-99"/>
     </g>
    </g>
   </g>
  </g>
  <g id="axes_3">
   <g id="patch_26">
    <path d="M 50.565625 534.84375 
L 354.6 534.84375 
L 354.6 308.518125 
L 50.565625 308.518125 
z
" style="fill:#ffffff;"/>
   </g>
   <g id="patch_27">
    <path clip-path="url(#p79cda12167)" d="M 64.385369 534.84375 
L 64.385369 534.84375 
L 77.547031 534.84375 
L 77.547031 534.84375 
L 90.708692 534.84375 
L 90.708692 531.891035 
L 103.870353 531.891035 
L 103.870353 319.295536 
L 117.032014 319.295536 
L 117.032014 357.680834 
L 130.193676 357.680834 
L 130.193676 461.025868 
L 143.355337 461.025868 
L 143.355337 469.884014 
L 156.516998 469.884014 
L 156.516998 461.025868 
L 169.678659 461.025868 
L 169.678659 484.647591 
L 182.840321 484.647591 
L 182.840321 534.84375 
L 196.001982 534.84375 
L 196.001982 514.174743 
L 209.163643 514.174743 
L 209.163643 534.84375 
L 222.325304 534.84375 
L 222.325304 534.84375 
L 235.486966 534.84375 
L 235.486966 505.316597 
L 248.648627 505.316597 
L 248.648627 534.84375 
L 261.810288 534.84375 
L 261.810288 534.84375 
L 274.971949 534.84375 
L 274.971949 534.84375 
L 288.133611 534.84375 
L 288.133611 534.84375 
L 301.295272 534.84375 
L 301.295272 534.84375 
L 314.456933 534.84375 
L 314.456933 534.84375 
L 327.618594 534.84375 
L 327.618594 523.032889 
L 340.780256 523.032889 
L 340.780256 525.985604 
L 327.618594 525.985604 
L 327.618594 534.84375 
L 314.456933 534.84375 
L 314.456933 534.84375 
L 301.295272 534.84375 
L 301.295272 534.84375 
L 288.133611 534.84375 
L 288.133611 534.84375 
L 274.971949 534.84375 
L 274.971949 534.84375 
L 261.810288 534.84375 
L 261.810288 534.84375 
L 248.648627 534.84375 
L 248.648627 517.127458 
L 235.486966 517.127458 
L 235.486966 534.84375 
L 222.325304 534.84375 
L 222.325304 534.84375 
L 209.163643 534.84375 
L 209.163643 520.080174 
L 196.001982 520.080174 
L 196.001982 534.84375 
L 182.840321 534.84375 
L 182.840321 499.411167 
L 169.678659 499.411167 
L 169.678659 478.74216 
L 156.516998 478.74216 
L 156.516998 484.647591 
L 143.355337 484.647591 
L 143.355337 478.74216 
L 130.193676 478.74216 
L 130.193676 401.971563 
L 117.032014 401.971563 
L 117.032014 381.302556 
L 103.870353 381.302556 
L 103.870353 531.891035 
L 90.708692 531.891035 
L 90.708692 534.84375 
L 77.547031 534.84375 
L 77.547031 534.84375 
z
" style="fill:#2ca02c;"/>
   </g>
   <g id="patch_28">
    <path clip-path="url(#p79cda12167)" d="M 64.385369 534.84375 
L 64.385369 534.84375 
L 77.547031 534.84375 
L 77.547031 534.84375 
L 90.708692 534.84375 
L 90.708692 531.891035 
L 103.870353 531.891035 
L 103.870353 381.302556 
L 117.032014 381.302556 
L 117.032014 401.971563 
L 130.193676 401.971563 
L 130.193676 478.74216 
L 143.355337 478.74216 
L 143.355337 484.647591 
L 156.516998 484.647591 
L 156.516998 478.74216 
L 169.678659 478.74216 
L 169.678659 499.411167 
L 182.840321 499.411167 
L 182.840321 534.84375 
L 196.001982 534.84375 
L 196.001982 520.080174 
L 209.163643 520.080174 
L 209.163643 534.84375 
L 222.325304 534.84375 
L 222.325304 534.84375 
L 235.486966 534.84375 
L 235.486966 517.127458 
L 248.648627 517.127458 
L 248.648627 534.84375 
L 261.810288 534.84375 
L 261.810288 534.84375 
L 274.971949 534.84375 
L 274.971949 534.84375 
L 288.133611 534.84375 
L 288.133611 534.84375 
L 301.295272 534.84375 
L 301.295272 534.84375 
L 314.456933 534.84375 
L 314.456933 534.84375 
L 327.618594 534.84375 
L 327.618594 525.985604 
L 340.780256 525.985604 
L 340.780256 534.84375 
L 327.618594 534.84375 
L 327.618594 534.84375 
L 314.456933 534.84375 
L 314.456933 534.84375 
L 301.295272 534.84375 
L 301.295272 534.84375 
L 288.133611 534.84375 
L 288.133611 534.84375 
L 274.971949 534.84375 
L 274.971949 534.84375 
L 261.810288 534.84375 
L 261.810288 534.84375 
L 248.648627 534.84375 
L 248.648627 525.985604 
L 235.486966 525.985604 
L 235.486966 534.84375 
L 222.325304 534.84375 
L 222.325304 534.84375 
L 209.163643 534.84375 
L 209.163643 525.985604 
L 196.001982 525.985604 
L 196.001982 534.84375 
L 182.840321 534.84375 
L 182.840321 514.174743 
L 169.678659 514.174743 
L 169.678659 496.458452 
L 156.516998 496.458452 
L 156.516998 499.411167 
L 143.355337 499.411167 
L 143.355337 496.458452 
L 130.193676 496.458452 
L 130.193676 422.64057 
L 117.032014 422.64057 
L 117.032014 407.876994 
L 103.870353 407.876994 
L 103.870353 531.891035 
L 90.708692 531.891035 
L 90.708692 534.84375 
L 77.547031 534.84375 
L 77.547031 534.84375 
z
" style="fill:#ff7f0e;"/>
   </g>
   <g id="patch_29">
    <path clip-path="url(#p79cda12167)" d="M 64.385369 534.84375 
L 64.385369 534.84375 
L 77.547031 534.84375 
L 77.547031 534.84375 
L 90.708692 534.84375 
L 90.708692 531.891035 
L 103.870353 531.891035 
L 103.870353 407.876994 
L 117.032014 407.876994 
L 117.032014 422.64057 
L 130.193676 422.64057 
L 130.193676 496.458452 
L 143.355337 496.458452 
L 143.355337 499.411167 
L 156.516998 499.411167 
L 156.516998 496.458452 
L 169.678659 496.458452 
L 169.678659 514.174743 
L 182.840321 514.174743 
L 182.840321 534.84375 
L 196.001982 534.84375 
L 196.001982 525.985604 
L 209.163643 525.985604 
L 209.163643 534.84375 
L 222.325304 534.84375 
L 222.325304 534.84375 
L 235.486966 534.84375 
L 235.486966 525.985604 
L 248.648627 525.985604 
L 248.648627 534.84375 
L 261.810288 534.84375 
L 261.810288 534.84375 
L 274.971949 534.84375 
L 274.971949 534.84375 
L 288.133611 534.84375 
L 288.133611 534.84375 
L 301.295272 534.84375 
L 301.295272 534.84375 
L 314.456933 534.84375 
L 314.456933 534.84375 
L 327.618594 534.84375 
L 327.618594 534.84375 
L 340.780256 534.84375 
L 340.780256 534.84375 
L 327.618594 534.84375 
L 327.618594 534.84375 
L 314.456933 534.84375 
L 314.456933 534.84375 
L 301.295272 534.84375 
L 301.295272 534.84375 
L 288.133611 534.84375 
L 288.133611 534.84375 
L 274.971949 534.84375 
L 274.971949 534.84375 
L 261.810288 534.84375 
L 261.810288 534.84375 
L 248.648627 534.84375 
L 248.648627 534.84375 
L 235.486966 534.84375 
L 235.486966 534.84375 
L 222.325304 534.84375 
L 222.325304 534.84375 
L 209.163643 534.84375 
L 209.163643 534.84375 
L 196.001982 534.84375 
L 196.001982 534.84375 
L 182.840321 534.84375 
L 182.840321 534.84375 
L 169.678659 534.84375 
L 169.678659 534.84375 
L 156.516998 534.84375 
L 156.516998 534.84375 
L 143.355337 534.84375 
L 143.355337 534.84375 
L 130.193676 534.84375 
L 130.193676 534.84375 
L 117.032014 534.84375 
L 117.032014 534.84375 
L 103.870353 534.84375 
L 103.870353 534.84375 
L 90.708692 534.84375 
L 90.708692 534.84375 
L 77.547031 534.84375 
L 77.547031 534.84375 
z
" style="fill:#1f77b4;"/>
   </g>
   <g id="matplotlib.axis_5">
    <g id="xtick_13">
     <g id="line2d_32">
      <g>
       <use style="stroke:#000000;stroke-width:0.8;" x="70.9662" xlink:href="#m7cf37a72fd" y="534.84375"/>
      </g>
     </g>
     <g id="text_44">
      <!-- 0 -->
      <g transform="translate(67.78495 549.442187)scale(0.1 -0.1)">
       <use xlink:href="#DejaVuSans-48"/>
      </g>
     </g>
    </g>
    <g id="xtick_14">
     <g id="line2d_33">
      <g>
       <use style="stroke:#000000;stroke-width:0.8;" x="123.612845" xlink:href="#m7cf37a72fd" y="534.84375"/>
      </g>
     </g>
     <g id="text_45">
      <!-- 2 -->
      <g transform="translate(120.431595 549.442187)scale(0.1 -0.1)">
       <use xlink:href="#DejaVuSans-50"/>
      </g>
     </g>
    </g>
    <g id="xtick_15">
     <g id="line2d_34">
      <g>
       <use style="stroke:#000000;stroke-width:0.8;" x="176.25949" xlink:href="#m7cf37a72fd" y="534.84375"/>
      </g>
     </g>
     <g id="text_46">
      <!-- 4 -->
      <g transform="translate(173.07824 549.442187)scale(0.1 -0.1)">
       <use xlink:href="#DejaVuSans-52"/>
      </g>
     </g>
    </g>
    <g id="xtick_16">
     <g id="line2d_35">
      <g>
       <use style="stroke:#000000;stroke-width:0.8;" x="228.906135" xlink:href="#m7cf37a72fd" y="534.84375"/>
      </g>
     </g>
     <g id="text_47">
      <!-- 6 -->
      <g transform="translate(225.724885 549.442187)scale(0.1 -0.1)">
       <use xlink:href="#DejaVuSans-54"/>
      </g>
     </g>
    </g>
    <g id="xtick_17">
     <g id="line2d_36">
      <g>
       <use style="stroke:#000000;stroke-width:0.8;" x="281.55278" xlink:href="#m7cf37a72fd" y="534.84375"/>
      </g>
     </g>
     <g id="text_48">
      <!-- 8 -->
      <g transform="translate(278.37153 549.442187)scale(0.1 -0.1)">
       <use xlink:href="#DejaVuSans-56"/>
      </g>
     </g>
    </g>
    <g id="xtick_18">
     <g id="line2d_37">
      <g>
       <use style="stroke:#000000;stroke-width:0.8;" x="334.199425" xlink:href="#m7cf37a72fd" y="534.84375"/>
      </g>
     </g>
     <g id="text_49">
      <!-- 10 -->
      <g transform="translate(327.836925 549.442187)scale(0.1 -0.1)">
       <use xlink:href="#DejaVuSans-49"/>
       <use x="63.623047" xlink:href="#DejaVuSans-48"/>
      </g>
     </g>
    </g>
    <g id="text_50">
     <!-- Ki per Stun -->
     <g transform="translate(174.958594 563.120312)scale(0.1 -0.1)">
      <use xlink:href="#DejaVuSans-75"/>
      <use x="65.576172" xlink:href="#DejaVuSans-105"/>
      <use x="93.359375" xlink:href="#DejaVuSans-32"/>
      <use x="125.146484" xlink:href="#DejaVuSans-112"/>
      <use x="188.623047" xlink:href="#DejaVuSans-101"/>
      <use x="250.146484" xlink:href="#DejaVuSans-114"/>
      <use x="291.259766" xlink:href="#DejaVuSans-32"/>
      <use x="323.046875" xlink:href="#DejaVuSans-83"/>
      <use x="386.523438" xlink:href="#DejaVuSans-116"/>
      <use x="425.732422" xlink:href="#DejaVuSans-117"/>
      <use x="489.111328" xlink:href="#DejaVuSans-110"/>
     </g>
    </g>
   </g>
   <g id="matplotlib.axis_6">
    <g id="ytick_20">
     <g id="line2d_38">
      <g>
       <use style="stroke:#000000;stroke-width:0.8;" x="50.565625" xlink:href="#m38651ae3a0" y="534.84375"/>
      </g>
     </g>
     <g id="text_51">
      <!-- 0 -->
      <g transform="translate(37.203125 538.642969)scale(0.1 -0.1)">
       <use xlink:href="#DejaVuSans-48"/>
      </g>
     </g>
    </g>
    <g id="ytick_21">
     <g id="line2d_39">
      <g>
       <use style="stroke:#000000;stroke-width:0.8;" x="50.565625" xlink:href="#m38651ae3a0" y="505.316597"/>
      </g>
     </g>
     <g id="text_52">
      <!-- 10 -->
      <g transform="translate(30.840625 509.115816)scale(0.1 -0.1)">
       <use xlink:href="#DejaVuSans-49"/>
       <use x="63.623047" xlink:href="#DejaVuSans-48"/>
      </g>
     </g>
    </g>
    <g id="ytick_22">
     <g id="line2d_40">
      <g>
       <use style="stroke:#000000;stroke-width:0.8;" x="50.565625" xlink:href="#m38651ae3a0" y="475.789445"/>
      </g>
     </g>
     <g id="text_53">
      <!-- 20 -->
      <g transform="translate(30.840625 479.588663)scale(0.1 -0.1)">
       <use xlink:href="#DejaVuSans-50"/>
       <use x="63.623047" xlink:href="#DejaVuSans-48"/>
      </g>
     </g>
    </g>
    <g id="ytick_23">
     <g id="line2d_41">
      <g>
       <use style="stroke:#000000;stroke-width:0.8;" x="50.565625" xlink:href="#m38651ae3a0" y="446.262292"/>
      </g>
     </g>
     <g id="text_54">
      <!-- 30 -->
      <g transform="translate(30.840625 450.061511)scale(0.1 -0.1)">
       <use xlink:href="#DejaVuSans-51"/>
       <use x="63.623047" xlink:href="#DejaVuSans-48"/>
      </g>
     </g>
    </g>
    <g id="ytick_24">
     <g id="line2d_42">
      <g>
       <use style="stroke:#000000;stroke-width:0.8;" x="50.565625" xlink:href="#m38651ae3a0" y="416.735139"/>
      </g>
     </g>
     <g id="text_55">
      <!-- 40 -->
      <g transform="translate(30.840625 420.534358)scale(0.1 -0.1)">
       <use xlink:href="#DejaVuSans-52"/>
       <use x="63.623047" xlink:href="#DejaVuSans-48"/>
      </g>
     </g>
    </g>
    <g id="ytick_25">
     <g id="line2d_43">
      <g>
       <use style="stroke:#000000;stroke-width:0.8;" x="50.565625" xlink:href="#m38651ae3a0" y="387.207987"/>
      </g>
     </g>
     <g id="text_56">
      <!-- 50 -->
      <g transform="translate(30.840625 391.007206)scale(0.1 -0.1)">
       <use xlink:href="#DejaVuSans-53"/>
       <use x="63.623047" xlink:href="#DejaVuSans-48"/>
      </g>
     </g>
    </g>
    <g id="ytick_26">
     <g id="line2d_44">
      <g>
       <use style="stroke:#000000;stroke-width:0.8;" x="50.565625" xlink:href="#m38651ae3a0" y="357.680834"/>
      </g>
     </g>
     <g id="text_57">
      <!-- 60 -->
      <g transform="translate(30.840625 361.480053)scale(0.1 -0.1)">
       <use xlink:href="#DejaVuSans-54"/>
       <use x="63.623047" xlink:href="#DejaVuSans-48"/>
      </g>
     </g>
    </g>
    <g id="ytick_27">
     <g id="line2d_45">
      <g>
       <use style="stroke:#000000;stroke-width:0.8;" x="50.565625" xlink:href="#m38651ae3a0" y="328.153682"/>
      </g>
     </g>
     <g id="text_58">
      <!-- 70 -->
      <g transform="translate(30.840625 331.9529)scale(0.1 -0.1)">
       <defs>
        <path d="M 8.203125 72.90625 
L 55.078125 72.90625 
L 55.078125 68.703125 
L 28.609375 0 
L 18.3125 0 
L 43.21875 64.59375 
L 8.203125 64.59375 
z
" id="DejaVuSans-55"/>
       </defs>
       <use xlink:href="#DejaVuSans-55"/>
       <use x="63.623047" xlink:href="#DejaVuSans-48"/>
      </g>
     </g>
    </g>
    <g id="text_59">
     <!-- Count -->
     <g transform="translate(24.760937 436.529375)rotate(-90)scale(0.1 -0.1)">
      <use xlink:href="#DejaVuSans-67"/>
      <use x="69.824219" xlink:href="#DejaVuSans-111"/>
      <use x="131.005859" xlink:href="#DejaVuSans-117"/>
      <use x="194.384766" xlink:href="#DejaVuSans-110"/>
      <use x="257.763672" xlink:href="#DejaVuSans-116"/>
     </g>
    </g>
   </g>
   <g id="patch_30">
    <path d="M 50.565625 534.84375 
L 50.565625 308.518125 
" style="fill:none;stroke:#000000;stroke-linecap:square;stroke-linejoin:miter;stroke-width:0.8;"/>
   </g>
   <g id="patch_31">
    <path d="M 354.6 534.84375 
L 354.6 308.518125 
" style="fill:none;stroke:#000000;stroke-linecap:square;stroke-linejoin:miter;stroke-width:0.8;"/>
   </g>
   <g id="patch_32">
    <path d="M 50.565625 534.84375 
L 354.6 534.84375 
" style="fill:none;stroke:#000000;stroke-linecap:square;stroke-linejoin:miter;stroke-width:0.8;"/>
   </g>
   <g id="patch_33">
    <path d="M 50.565625 308.518125 
L 354.6 308.518125 
" style="fill:none;stroke:#000000;stroke-linecap:square;stroke-linejoin:miter;stroke-width:0.8;"/>
   </g>
   <g id="text_60">
    <!-- Level 15, DC 17, CR 9-21 -->
    <g transform="translate(127.339062 302.518125)scale(0.12 -0.12)">
     <use xlink:href="#DejaVuSans-76"/>
     <use x="53.962891" xlink:href="#DejaVuSans-101"/>
     <use x="115.486328" xlink:href="#DejaVuSans-118"/>
     <use x="174.666016" xlink:href="#DejaVuSans-101"/>
     <use x="236.189453" xlink:href="#DejaVuSans-108"/>
     <use x="263.972656" xlink:href="#DejaVuSans-32"/>
     <use x="295.759766" xlink:href="#DejaVuSans-49"/>
     <use x="359.382812" xlink:href="#DejaVuSans-53"/>
     <use x="423.005859" xlink:href="#DejaVuSans-44"/>
     <use x="454.792969" xlink:href="#DejaVuSans-32"/>
     <use x="486.580078" xlink:href="#DejaVuSans-68"/>
     <use x="563.582031" xlink:href="#DejaVuSans-67"/>
     <use x="633.40625" xlink:href="#DejaVuSans-32"/>
     <use x="665.193359" xlink:href="#DejaVuSans-49"/>
     <use x="728.816406" xlink:href="#DejaVuSans-55"/>
     <use x="792.439453" xlink:href="#DejaVuSans-44"/>
     <use x="824.226562" xlink:href="#DejaVuSans-32"/>
     <use x="856.013672" xlink:href="#DejaVuSans-67"/>
     <use x="925.837891" xlink:href="#DejaVuSans-82"/>
     <use x="995.320312" xlink:href="#DejaVuSans-32"/>
     <use x="1027.107422" xlink:href="#DejaVuSans-57"/>
     <use x="1090.730469" xlink:href="#DejaVuSans-45"/>
     <use x="1126.814453" xlink:href="#DejaVuSans-50"/>
     <use x="1190.4375" xlink:href="#DejaVuSans-49"/>
    </g>
   </g>
   <g id="legend_3">
    <g id="patch_34">
     <path d="M 262.704687 360.5525 
L 347.6 360.5525 
Q 349.6 360.5525 349.6 358.5525 
L 349.6 315.518125 
Q 349.6 313.518125 347.6 313.518125 
L 262.704687 313.518125 
Q 260.704687 313.518125 260.704687 315.518125 
L 260.704687 358.5525 
Q 260.704687 360.5525 262.704687 360.5525 
z
" style="fill:#ffffff;opacity:0.8;stroke:#cccccc;stroke-linejoin:miter;"/>
    </g>
    <g id="patch_35">
     <path d="M 264.704687 325.116562 
L 284.704687 325.116562 
L 284.704687 318.116562 
L 264.704687 318.116562 
z
" style="fill:#2ca02c;"/>
    </g>
    <g id="text_61">
     <!-- Unique -->
     <g transform="translate(292.704687 325.116562)scale(0.1 -0.1)">
      <use xlink:href="#DejaVuSans-85"/>
      <use x="73.193359" xlink:href="#DejaVuSans-110"/>
      <use x="136.572266" xlink:href="#DejaVuSans-105"/>
      <use x="164.355469" xlink:href="#DejaVuSans-113"/>
      <use x="227.832031" xlink:href="#DejaVuSans-117"/>
      <use x="291.210938" xlink:href="#DejaVuSans-101"/>
     </g>
    </g>
    <g id="patch_36">
     <path d="M 264.704687 339.794688 
L 284.704687 339.794688 
L 284.704687 332.794688 
L 264.704687 332.794688 
z
" style="fill:#ff7f0e;"/>
    </g>
    <g id="text_62">
     <!-- Legendary -->
     <g transform="translate(292.704687 339.794688)scale(0.1 -0.1)">
      <use xlink:href="#DejaVuSans-76"/>
      <use x="53.962891" xlink:href="#DejaVuSans-101"/>
      <use x="115.486328" xlink:href="#DejaVuSans-103"/>
      <use x="178.962891" xlink:href="#DejaVuSans-101"/>
      <use x="240.486328" xlink:href="#DejaVuSans-110"/>
      <use x="303.865234" xlink:href="#DejaVuSans-100"/>
      <use x="367.341797" xlink:href="#DejaVuSans-97"/>
      <use x="428.621094" xlink:href="#DejaVuSans-114"/>
      <use x="469.734375" xlink:href="#DejaVuSans-121"/>
     </g>
    </g>
    <g id="patch_37">
     <path d="M 264.704687 354.472813 
L 284.704687 354.472813 
L 284.704687 347.472813 
L 264.704687 347.472813 
z
" style="fill:#1f77b4;"/>
    </g>
    <g id="text_63">
     <!-- Generic -->
     <g transform="translate(292.704687 354.472813)scale(0.1 -0.1)">
      <use xlink:href="#DejaVuSans-71"/>
      <use x="77.490234" xlink:href="#DejaVuSans-101"/>
      <use x="139.013672" xlink:href="#DejaVuSans-110"/>
      <use x="202.392578" xlink:href="#DejaVuSans-101"/>
      <use x="263.916016" xlink:href="#DejaVuSans-114"/>
      <use x="305.029297" xlink:href="#DejaVuSans-105"/>
      <use x="332.8125" xlink:href="#DejaVuSans-99"/>
     </g>
    </g>
   </g>
  </g>
  <g id="axes_4">
   <g id="patch_38">
    <path d="M 405.165625 534.84375 
L 709.2 534.84375 
L 709.2 308.518125 
L 405.165625 308.518125 
z
" style="fill:#ffffff;"/>
   </g>
   <g id="patch_39">
    <path clip-path="url(#pea51579e15)" d="M 418.985369 534.84375 
L 418.985369 534.84375 
L 432.147031 534.84375 
L 432.147031 534.84375 
L 445.308692 534.84375 
L 445.308692 513.288929 
L 458.470353 513.288929 
L 458.470353 319.295536 
L 471.632014 319.295536 
L 471.632014 383.96 
L 484.793676 383.96 
L 484.793676 427.069643 
L 497.955337 427.069643 
L 497.955337 437.847054 
L 511.116998 437.847054 
L 511.116998 475.567991 
L 524.278659 475.567991 
L 524.278659 470.179286 
L 537.440321 470.179286 
L 537.440321 534.84375 
L 550.601982 534.84375 
L 550.601982 486.345402 
L 563.763643 486.345402 
L 563.763643 534.84375 
L 576.925304 534.84375 
L 576.925304 534.84375 
L 590.086966 534.84375 
L 590.086966 475.567991 
L 603.248627 475.567991 
L 603.248627 534.84375 
L 616.410288 534.84375 
L 616.410288 534.84375 
L 629.571949 534.84375 
L 629.571949 534.84375 
L 642.733611 534.84375 
L 642.733611 534.84375 
L 655.895272 534.84375 
L 655.895272 534.84375 
L 669.056933 534.84375 
L 669.056933 534.84375 
L 682.218594 534.84375 
L 682.218594 497.122813 
L 695.380256 497.122813 
L 695.380256 518.677634 
L 682.218594 518.677634 
L 682.218594 534.84375 
L 669.056933 534.84375 
L 669.056933 534.84375 
L 655.895272 534.84375 
L 655.895272 534.84375 
L 642.733611 534.84375 
L 642.733611 534.84375 
L 629.571949 534.84375 
L 629.571949 534.84375 
L 616.410288 534.84375 
L 616.410288 534.84375 
L 603.248627 534.84375 
L 603.248627 524.066339 
L 590.086966 524.066339 
L 590.086966 534.84375 
L 576.925304 534.84375 
L 576.925304 534.84375 
L 563.763643 534.84375 
L 563.763643 507.900223 
L 550.601982 507.900223 
L 550.601982 534.84375 
L 537.440321 534.84375 
L 537.440321 502.511518 
L 524.278659 502.511518 
L 524.278659 502.511518 
L 511.116998 502.511518 
L 511.116998 475.567991 
L 497.955337 475.567991 
L 497.955337 448.624464 
L 484.793676 448.624464 
L 484.793676 421.680938 
L 471.632014 421.680938 
L 471.632014 394.737411 
L 458.470353 394.737411 
L 458.470353 529.455045 
L 445.308692 529.455045 
L 445.308692 534.84375 
L 432.147031 534.84375 
L 432.147031 534.84375 
z
" style="fill:#2ca02c;"/>
   </g>
   <g id="patch_40">
    <path clip-path="url(#pea51579e15)" d="M 418.985369 534.84375 
L 418.985369 534.84375 
L 432.147031 534.84375 
L 432.147031 534.84375 
L 445.308692 534.84375 
L 445.308692 529.455045 
L 458.470353 529.455045 
L 458.470353 394.737411 
L 471.632014 394.737411 
L 471.632014 421.680938 
L 484.793676 421.680938 
L 484.793676 448.624464 
L 497.955337 448.624464 
L 497.955337 475.567991 
L 511.116998 475.567991 
L 511.116998 502.511518 
L 524.278659 502.511518 
L 524.278659 502.511518 
L 537.440321 502.511518 
L 537.440321 534.84375 
L 550.601982 534.84375 
L 550.601982 507.900223 
L 563.763643 507.900223 
L 563.763643 534.84375 
L 576.925304 534.84375 
L 576.925304 534.84375 
L 590.086966 534.84375 
L 590.086966 524.066339 
L 603.248627 524.066339 
L 603.248627 534.84375 
L 616.410288 534.84375 
L 616.410288 534.84375 
L 629.571949 534.84375 
L 629.571949 534.84375 
L 642.733611 534.84375 
L 642.733611 534.84375 
L 655.895272 534.84375 
L 655.895272 534.84375 
L 669.056933 534.84375 
L 669.056933 534.84375 
L 682.218594 534.84375 
L 682.218594 518.677634 
L 695.380256 518.677634 
L 695.380256 534.84375 
L 682.218594 534.84375 
L 682.218594 534.84375 
L 669.056933 534.84375 
L 669.056933 534.84375 
L 655.895272 534.84375 
L 655.895272 534.84375 
L 642.733611 534.84375 
L 642.733611 534.84375 
L 629.571949 534.84375 
L 629.571949 534.84375 
L 616.410288 534.84375 
L 616.410288 534.84375 
L 603.248627 534.84375 
L 603.248627 534.84375 
L 590.086966 534.84375 
L 590.086966 534.84375 
L 576.925304 534.84375 
L 576.925304 534.84375 
L 563.763643 534.84375 
L 563.763643 534.84375 
L 550.601982 534.84375 
L 550.601982 534.84375 
L 537.440321 534.84375 
L 537.440321 518.677634 
L 524.278659 518.677634 
L 524.278659 518.677634 
L 511.116998 518.677634 
L 511.116998 502.511518 
L 497.955337 502.511518 
L 497.955337 491.734107 
L 484.793676 491.734107 
L 484.793676 486.345402 
L 471.632014 486.345402 
L 471.632014 443.235759 
L 458.470353 443.235759 
L 458.470353 529.455045 
L 445.308692 529.455045 
L 445.308692 534.84375 
L 432.147031 534.84375 
L 432.147031 534.84375 
z
" style="fill:#ff7f0e;"/>
   </g>
   <g id="patch_41">
    <path clip-path="url(#pea51579e15)" d="M 418.985369 534.84375 
L 418.985369 534.84375 
L 432.147031 534.84375 
L 432.147031 534.84375 
L 445.308692 534.84375 
L 445.308692 529.455045 
L 458.470353 529.455045 
L 458.470353 443.235759 
L 471.632014 443.235759 
L 471.632014 486.345402 
L 484.793676 486.345402 
L 484.793676 491.734107 
L 497.955337 491.734107 
L 497.955337 502.511518 
L 511.116998 502.511518 
L 511.116998 518.677634 
L 524.278659 518.677634 
L 524.278659 518.677634 
L 537.440321 518.677634 
L 537.440321 534.84375 
L 550.601982 534.84375 
L 550.601982 534.84375 
L 563.763643 534.84375 
L 563.763643 534.84375 
L 576.925304 534.84375 
L 576.925304 534.84375 
L 590.086966 534.84375 
L 590.086966 534.84375 
L 603.248627 534.84375 
L 603.248627 534.84375 
L 616.410288 534.84375 
L 616.410288 534.84375 
L 629.571949 534.84375 
L 629.571949 534.84375 
L 642.733611 534.84375 
L 642.733611 534.84375 
L 655.895272 534.84375 
L 655.895272 534.84375 
L 669.056933 534.84375 
L 669.056933 534.84375 
L 682.218594 534.84375 
L 682.218594 534.84375 
L 695.380256 534.84375 
L 695.380256 534.84375 
L 682.218594 534.84375 
L 682.218594 534.84375 
L 669.056933 534.84375 
L 669.056933 534.84375 
L 655.895272 534.84375 
L 655.895272 534.84375 
L 642.733611 534.84375 
L 642.733611 534.84375 
L 629.571949 534.84375 
L 629.571949 534.84375 
L 616.410288 534.84375 
L 616.410288 534.84375 
L 603.248627 534.84375 
L 603.248627 534.84375 
L 590.086966 534.84375 
L 590.086966 534.84375 
L 576.925304 534.84375 
L 576.925304 534.84375 
L 563.763643 534.84375 
L 563.763643 534.84375 
L 550.601982 534.84375 
L 550.601982 534.84375 
L 537.440321 534.84375 
L 537.440321 534.84375 
L 524.278659 534.84375 
L 524.278659 534.84375 
L 511.116998 534.84375 
L 511.116998 534.84375 
L 497.955337 534.84375 
L 497.955337 534.84375 
L 484.793676 534.84375 
L 484.793676 534.84375 
L 471.632014 534.84375 
L 471.632014 534.84375 
L 458.470353 534.84375 
L 458.470353 534.84375 
L 445.308692 534.84375 
L 445.308692 534.84375 
L 432.147031 534.84375 
L 432.147031 534.84375 
z
" style="fill:#1f77b4;"/>
   </g>
   <g id="matplotlib.axis_7">
    <g id="xtick_19">
     <g id="line2d_46">
      <g>
       <use style="stroke:#000000;stroke-width:0.8;" x="425.5662" xlink:href="#m7cf37a72fd" y="534.84375"/>
      </g>
     </g>
     <g id="text_64">
      <!-- 0 -->
      <g transform="translate(422.38495 549.442187)scale(0.1 -0.1)">
       <use xlink:href="#DejaVuSans-48"/>
      </g>
     </g>
    </g>
    <g id="xtick_20">
     <g id="line2d_47">
      <g>
       <use style="stroke:#000000;stroke-width:0.8;" x="478.212845" xlink:href="#m7cf37a72fd" y="534.84375"/>
      </g>
     </g>
     <g id="text_65">
      <!-- 2 -->
      <g transform="translate(475.031595 549.442187)scale(0.1 -0.1)">
       <use xlink:href="#DejaVuSans-50"/>
      </g>
     </g>
    </g>
    <g id="xtick_21">
     <g id="line2d_48">
      <g>
       <use style="stroke:#000000;stroke-width:0.8;" x="530.85949" xlink:href="#m7cf37a72fd" y="534.84375"/>
      </g>
     </g>
     <g id="text_66">
      <!-- 4 -->
      <g transform="translate(527.67824 549.442187)scale(0.1 -0.1)">
       <use xlink:href="#DejaVuSans-52"/>
      </g>
     </g>
    </g>
    <g id="xtick_22">
     <g id="line2d_49">
      <g>
       <use style="stroke:#000000;stroke-width:0.8;" x="583.506135" xlink:href="#m7cf37a72fd" y="534.84375"/>
      </g>
     </g>
     <g id="text_67">
      <!-- 6 -->
      <g transform="translate(580.324885 549.442187)scale(0.1 -0.1)">
       <use xlink:href="#DejaVuSans-54"/>
      </g>
     </g>
    </g>
    <g id="xtick_23">
     <g id="line2d_50">
      <g>
       <use style="stroke:#000000;stroke-width:0.8;" x="636.15278" xlink:href="#m7cf37a72fd" y="534.84375"/>
      </g>
     </g>
     <g id="text_68">
      <!-- 8 -->
      <g transform="translate(632.97153 549.442187)scale(0.1 -0.1)">
       <use xlink:href="#DejaVuSans-56"/>
      </g>
     </g>
    </g>
    <g id="xtick_24">
     <g id="line2d_51">
      <g>
       <use style="stroke:#000000;stroke-width:0.8;" x="688.799425" xlink:href="#m7cf37a72fd" y="534.84375"/>
      </g>
     </g>
     <g id="text_69">
      <!-- 10 -->
      <g transform="translate(682.436925 549.442187)scale(0.1 -0.1)">
       <use xlink:href="#DejaVuSans-49"/>
       <use x="63.623047" xlink:href="#DejaVuSans-48"/>
      </g>
     </g>
    </g>
    <g id="text_70">
     <!-- Ki per Stun -->
     <g transform="translate(529.558594 563.120312)scale(0.1 -0.1)">
      <use xlink:href="#DejaVuSans-75"/>
      <use x="65.576172" xlink:href="#DejaVuSans-105"/>
      <use x="93.359375" xlink:href="#DejaVuSans-32"/>
      <use x="125.146484" xlink:href="#DejaVuSans-112"/>
      <use x="188.623047" xlink:href="#DejaVuSans-101"/>
      <use x="250.146484" xlink:href="#DejaVuSans-114"/>
      <use x="291.259766" xlink:href="#DejaVuSans-32"/>
      <use x="323.046875" xlink:href="#DejaVuSans-83"/>
      <use x="386.523438" xlink:href="#DejaVuSans-116"/>
      <use x="425.732422" xlink:href="#DejaVuSans-117"/>
      <use x="489.111328" xlink:href="#DejaVuSans-110"/>
     </g>
    </g>
   </g>
   <g id="matplotlib.axis_8">
    <g id="ytick_28">
     <g id="line2d_52">
      <g>
       <use style="stroke:#000000;stroke-width:0.8;" x="405.165625" xlink:href="#m38651ae3a0" y="534.84375"/>
      </g>
     </g>
     <g id="text_71">
      <!-- 0 -->
      <g transform="translate(391.803125 538.642969)scale(0.1 -0.1)">
       <use xlink:href="#DejaVuSans-48"/>
      </g>
     </g>
    </g>
    <g id="ytick_29">
     <g id="line2d_53">
      <g>
       <use style="stroke:#000000;stroke-width:0.8;" x="405.165625" xlink:href="#m38651ae3a0" y="507.900223"/>
      </g>
     </g>
     <g id="text_72">
      <!-- 5 -->
      <g transform="translate(391.803125 511.699442)scale(0.1 -0.1)">
       <use xlink:href="#DejaVuSans-53"/>
      </g>
     </g>
    </g>
    <g id="ytick_30">
     <g id="line2d_54">
      <g>
       <use style="stroke:#000000;stroke-width:0.8;" x="405.165625" xlink:href="#m38651ae3a0" y="480.956696"/>
      </g>
     </g>
     <g id="text_73">
      <!-- 10 -->
      <g transform="translate(385.440625 484.755915)scale(0.1 -0.1)">
       <use xlink:href="#DejaVuSans-49"/>
       <use x="63.623047" xlink:href="#DejaVuSans-48"/>
      </g>
     </g>
    </g>
    <g id="ytick_31">
     <g id="line2d_55">
      <g>
       <use style="stroke:#000000;stroke-width:0.8;" x="405.165625" xlink:href="#m38651ae3a0" y="454.01317"/>
      </g>
     </g>
     <g id="text_74">
      <!-- 15 -->
      <g transform="translate(385.440625 457.812388)scale(0.1 -0.1)">
       <use xlink:href="#DejaVuSans-49"/>
       <use x="63.623047" xlink:href="#DejaVuSans-53"/>
      </g>
     </g>
    </g>
    <g id="ytick_32">
     <g id="line2d_56">
      <g>
       <use style="stroke:#000000;stroke-width:0.8;" x="405.165625" xlink:href="#m38651ae3a0" y="427.069643"/>
      </g>
     </g>
     <g id="text_75">
      <!-- 20 -->
      <g transform="translate(385.440625 430.868862)scale(0.1 -0.1)">
       <use xlink:href="#DejaVuSans-50"/>
       <use x="63.623047" xlink:href="#DejaVuSans-48"/>
      </g>
     </g>
    </g>
    <g id="ytick_33">
     <g id="line2d_57">
      <g>
       <use style="stroke:#000000;stroke-width:0.8;" x="405.165625" xlink:href="#m38651ae3a0" y="400.126116"/>
      </g>
     </g>
     <g id="text_76">
      <!-- 25 -->
      <g transform="translate(385.440625 403.925335)scale(0.1 -0.1)">
       <use xlink:href="#DejaVuSans-50"/>
       <use x="63.623047" xlink:href="#DejaVuSans-53"/>
      </g>
     </g>
    </g>
    <g id="ytick_34">
     <g id="line2d_58">
      <g>
       <use style="stroke:#000000;stroke-width:0.8;" x="405.165625" xlink:href="#m38651ae3a0" y="373.182589"/>
      </g>
     </g>
     <g id="text_77">
      <!-- 30 -->
      <g transform="translate(385.440625 376.981808)scale(0.1 -0.1)">
       <use xlink:href="#DejaVuSans-51"/>
       <use x="63.623047" xlink:href="#DejaVuSans-48"/>
      </g>
     </g>
    </g>
    <g id="ytick_35">
     <g id="line2d_59">
      <g>
       <use style="stroke:#000000;stroke-width:0.8;" x="405.165625" xlink:href="#m38651ae3a0" y="346.239063"/>
      </g>
     </g>
     <g id="text_78">
      <!-- 35 -->
      <g transform="translate(385.440625 350.038281)scale(0.1 -0.1)">
       <use xlink:href="#DejaVuSans-51"/>
       <use x="63.623047" xlink:href="#DejaVuSans-53"/>
      </g>
     </g>
    </g>
    <g id="ytick_36">
     <g id="line2d_60">
      <g>
       <use style="stroke:#000000;stroke-width:0.8;" x="405.165625" xlink:href="#m38651ae3a0" y="319.295536"/>
      </g>
     </g>
     <g id="text_79">
      <!-- 40 -->
      <g transform="translate(385.440625 323.094754)scale(0.1 -0.1)">
       <use xlink:href="#DejaVuSans-52"/>
       <use x="63.623047" xlink:href="#DejaVuSans-48"/>
      </g>
     </g>
    </g>
    <g id="text_80">
     <!-- Count -->
     <g transform="translate(379.360938 436.529375)rotate(-90)scale(0.1 -0.1)">
      <use xlink:href="#DejaVuSans-67"/>
      <use x="69.824219" xlink:href="#DejaVuSans-111"/>
      <use x="131.005859" xlink:href="#DejaVuSans-117"/>
      <use x="194.384766" xlink:href="#DejaVuSans-110"/>
      <use x="257.763672" xlink:href="#DejaVuSans-116"/>
     </g>
    </g>
   </g>
   <g id="patch_42">
    <path d="M 405.165625 534.84375 
L 405.165625 308.518125 
" style="fill:none;stroke:#000000;stroke-linecap:square;stroke-linejoin:miter;stroke-width:0.8;"/>
   </g>
   <g id="patch_43">
    <path d="M 709.2 534.84375 
L 709.2 308.518125 
" style="fill:none;stroke:#000000;stroke-linecap:square;stroke-linejoin:miter;stroke-width:0.8;"/>
   </g>
   <g id="patch_44">
    <path d="M 405.165625 534.84375 
L 709.2 534.84375 
" style="fill:none;stroke:#000000;stroke-linecap:square;stroke-linejoin:miter;stroke-width:0.8;"/>
   </g>
   <g id="patch_45">
    <path d="M 405.165625 308.518125 
L 709.2 308.518125 
" style="fill:none;stroke:#000000;stroke-linecap:square;stroke-linejoin:miter;stroke-width:0.8;"/>
   </g>
   <g id="text_81">
    <!-- Level 20, DC 19, CR 13-27 -->
    <g transform="translate(478.121563 302.518125)scale(0.12 -0.12)">
     <use xlink:href="#DejaVuSans-76"/>
     <use x="53.962891" xlink:href="#DejaVuSans-101"/>
     <use x="115.486328" xlink:href="#DejaVuSans-118"/>
     <use x="174.666016" xlink:href="#DejaVuSans-101"/>
     <use x="236.189453" xlink:href="#DejaVuSans-108"/>
     <use x="263.972656" xlink:href="#DejaVuSans-32"/>
     <use x="295.759766" xlink:href="#DejaVuSans-50"/>
     <use x="359.382812" xlink:href="#DejaVuSans-48"/>
     <use x="423.005859" xlink:href="#DejaVuSans-44"/>
     <use x="454.792969" xlink:href="#DejaVuSans-32"/>
     <use x="486.580078" xlink:href="#DejaVuSans-68"/>
     <use x="563.582031" xlink:href="#DejaVuSans-67"/>
     <use x="633.40625" xlink:href="#DejaVuSans-32"/>
     <use x="665.193359" xlink:href="#DejaVuSans-49"/>
     <use x="728.816406" xlink:href="#DejaVuSans-57"/>
     <use x="792.439453" xlink:href="#DejaVuSans-44"/>
     <use x="824.226562" xlink:href="#DejaVuSans-32"/>
     <use x="856.013672" xlink:href="#DejaVuSans-67"/>
     <use x="925.837891" xlink:href="#DejaVuSans-82"/>
     <use x="995.320312" xlink:href="#DejaVuSans-32"/>
     <use x="1027.107422" xlink:href="#DejaVuSans-49"/>
     <use x="1090.730469" xlink:href="#DejaVuSans-51"/>
     <use x="1154.353516" xlink:href="#DejaVuSans-45"/>
     <use x="1190.4375" xlink:href="#DejaVuSans-50"/>
     <use x="1254.060547" xlink:href="#DejaVuSans-55"/>
    </g>
   </g>
   <g id="legend_4">
    <g id="patch_46">
     <path d="M 617.304688 360.5525 
L 702.2 360.5525 
Q 704.2 360.5525 704.2 358.5525 
L 704.2 315.518125 
Q 704.2 313.518125 702.2 313.518125 
L 617.304688 313.518125 
Q 615.304688 313.518125 615.304688 315.518125 
L 615.304688 358.5525 
Q 615.304688 360.5525 617.304688 360.5525 
z
" style="fill:#ffffff;opacity:0.8;stroke:#cccccc;stroke-linejoin:miter;"/>
    </g>
    <g id="patch_47">
     <path d="M 619.304688 325.116562 
L 639.304688 325.116562 
L 639.304688 318.116562 
L 619.304688 318.116562 
z
" style="fill:#2ca02c;"/>
    </g>
    <g id="text_82">
     <!-- Unique -->
     <g transform="translate(647.304688 325.116562)scale(0.1 -0.1)">
      <use xlink:href="#DejaVuSans-85"/>
      <use x="73.193359" xlink:href="#DejaVuSans-110"/>
      <use x="136.572266" xlink:href="#DejaVuSans-105"/>
      <use x="164.355469" xlink:href="#DejaVuSans-113"/>
      <use x="227.832031" xlink:href="#DejaVuSans-117"/>
      <use x="291.210938" xlink:href="#DejaVuSans-101"/>
     </g>
    </g>
    <g id="patch_48">
     <path d="M 619.304688 339.794688 
L 639.304688 339.794688 
L 639.304688 332.794688 
L 619.304688 332.794688 
z
" style="fill:#ff7f0e;"/>
    </g>
    <g id="text_83">
     <!-- Legendary -->
     <g transform="translate(647.304688 339.794688)scale(0.1 -0.1)">
      <use xlink:href="#DejaVuSans-76"/>
      <use x="53.962891" xlink:href="#DejaVuSans-101"/>
      <use x="115.486328" xlink:href="#DejaVuSans-103"/>
      <use x="178.962891" xlink:href="#DejaVuSans-101"/>
      <use x="240.486328" xlink:href="#DejaVuSans-110"/>
      <use x="303.865234" xlink:href="#DejaVuSans-100"/>
      <use x="367.341797" xlink:href="#DejaVuSans-97"/>
      <use x="428.621094" xlink:href="#DejaVuSans-114"/>
      <use x="469.734375" xlink:href="#DejaVuSans-121"/>
     </g>
    </g>
    <g id="patch_49">
     <path d="M 619.304688 354.472813 
L 639.304688 354.472813 
L 639.304688 347.472813 
L 619.304688 347.472813 
z
" style="fill:#1f77b4;"/>
    </g>
    <g id="text_84">
     <!-- Generic -->
     <g transform="translate(647.304688 354.472813)scale(0.1 -0.1)">
      <use xlink:href="#DejaVuSans-71"/>
      <use x="77.490234" xlink:href="#DejaVuSans-101"/>
      <use x="139.013672" xlink:href="#DejaVuSans-110"/>
      <use x="202.392578" xlink:href="#DejaVuSans-101"/>
      <use x="263.916016" xlink:href="#DejaVuSans-114"/>
      <use x="305.029297" xlink:href="#DejaVuSans-105"/>
      <use x="332.8125" xlink:href="#DejaVuSans-99"/>
     </g>
    </g>
   </g>
  </g>
 </g>
 <defs>
  <clipPath id="pd06b7d67b4">
   <rect height="226.325625" width="304.034375" x="50.565625" y="25.918125"/>
  </clipPath>
  <clipPath id="pd00a3dade2">
   <rect height="226.325625" width="304.034375" x="405.165625" y="25.918125"/>
  </clipPath>
  <clipPath id="p79cda12167">
   <rect height="226.325625" width="304.034375" x="50.565625" y="308.518125"/>
  </clipPath>
  <clipPath id="pea51579e15">
   <rect height="226.325625" width="304.034375" x="405.165625" y="308.518125"/>
  </clipPath>
 </defs>
</svg>
