<?xml version="1.0" encoding="utf-8" standalone="no"?>
<!DOCTYPE svg PUBLIC "-//W3C//DTD SVG 1.1//EN"
  "http://www.w3.org/Graphics/SVG/1.1/DTD/svg11.dtd">
<!-- Created with matplotlib (https://matplotlib.org/) -->
<svg height="576pt" version="1.1" viewBox="0 0 720 576" width="720pt" xmlns="http://www.w3.org/2000/svg" xmlns:xlink="http://www.w3.org/1999/xlink">
 <metadata>
  <rdf:RDF xmlns:cc="http://creativecommons.org/ns#" xmlns:dc="http://purl.org/dc/elements/1.1/" xmlns:rdf="http://www.w3.org/1999/02/22-rdf-syntax-ns#">
   <cc:Work>
    <dc:type rdf:resource="http://purl.org/dc/dcmitype/StillImage"/>
    <dc:date>2021-11-18T21:05:40.354969</dc:date>
    <dc:format>image/svg+xml</dc:format>
    <dc:creator>
     <cc:Agent>
      <dc:title>Matplotlib v3.3.4, https://matplotlib.org/</dc:title>
     </cc:Agent>
    </dc:creator>
    <dc:contributor>
     <cc:Agent>
      <dc:title>T. Dunn</dc:title>
     </cc:Agent>
    </dc:contributor>
   </cc:Work>
  </rdf:RDF>
 </metadata>
 <defs>
  <style type="text/css">*{stroke-linecap:butt;stroke-linejoin:round;}</style>
 </defs>
 <g id="figure_1">
  <g id="patch_1">
   <path d="M 0 576 
L 720 576 
L 720 0 
L 0 0 
z
" style="fill:none;"/>
  </g>
  <g id="axes_1">
   <g id="patch_2">
    <path d="M 50.565625 252.24375 
L 353.010937 252.24375 
L 353.010937 25.918125 
L 50.565625 25.918125 
z
" style="fill:#ffffff;"/>
   </g>
   <g id="patch_3">
    <path clip-path="url(#pa5601e978d)" d="M 64.313139 252.24375 
L 64.313139 252.24375 
L 77.40601 252.24375 
L 77.40601 252.24375 
L 90.498881 252.24375 
L 90.498881 252.24375 
L 103.591751 252.24375 
L 103.591751 249.84877 
L 116.684622 249.84877 
L 116.684622 247.45379 
L 129.777493 247.45379 
L 129.777493 235.478889 
L 142.870363 235.478889 
L 142.870363 236.676379 
L 155.963234 236.676379 
L 155.963234 204.344147 
L 169.056105 204.344147 
L 169.056105 194.764226 
L 182.148975 194.764226 
L 182.148975 160.037014 
L 195.241846 160.037014 
L 195.241846 40.288006 
L 208.334717 40.288006 
L 208.334717 36.695536 
L 221.427587 36.695536 
L 221.427587 73.817728 
L 234.520458 73.817728 
L 234.520458 197.159206 
L 247.613329 197.159206 
L 247.613329 249.84877 
L 260.706199 249.84877 
L 260.706199 252.24375 
L 273.79907 252.24375 
L 273.79907 252.24375 
L 286.891941 252.24375 
L 286.891941 252.24375 
L 299.984811 252.24375 
L 299.984811 252.24375 
L 313.077682 252.24375 
L 313.077682 252.24375 
L 326.170553 252.24375 
L 326.170553 252.24375 
L 339.263423 252.24375 
L 339.263423 252.24375 
L 326.170553 252.24375 
L 326.170553 252.24375 
L 313.077682 252.24375 
L 313.077682 252.24375 
L 299.984811 252.24375 
L 299.984811 252.24375 
L 286.891941 252.24375 
L 286.891941 252.24375 
L 273.79907 252.24375 
L 273.79907 252.24375 
L 260.706199 252.24375 
L 260.706199 252.24375 
L 247.613329 252.24375 
L 247.613329 252.24375 
L 234.520458 252.24375 
L 234.520458 252.24375 
L 221.427587 252.24375 
L 221.427587 252.24375 
L 208.334717 252.24375 
L 208.334717 246.2563 
L 195.241846 246.2563 
L 195.241846 225.898968 
L 182.148975 225.898968 
L 182.148975 228.293948 
L 169.056105 228.293948 
L 169.056105 212.726577 
L 155.963234 212.726577 
L 155.963234 237.873869 
L 142.870363 237.873869 
L 142.870363 235.478889 
L 129.777493 235.478889 
L 129.777493 247.45379 
L 116.684622 247.45379 
L 116.684622 249.84877 
L 103.591751 249.84877 
L 103.591751 252.24375 
L 90.498881 252.24375 
L 90.498881 252.24375 
L 77.40601 252.24375 
L 77.40601 252.24375 
z
" style="fill:#ff7f0e;"/>
   </g>
   <g id="patch_4">
    <path clip-path="url(#pa5601e978d)" d="M 64.313139 252.24375 
L 64.313139 252.24375 
L 77.40601 252.24375 
L 77.40601 252.24375 
L 90.498881 252.24375 
L 90.498881 252.24375 
L 103.591751 252.24375 
L 103.591751 249.84877 
L 116.684622 249.84877 
L 116.684622 247.45379 
L 129.777493 247.45379 
L 129.777493 235.478889 
L 142.870363 235.478889 
L 142.870363 237.873869 
L 155.963234 237.873869 
L 155.963234 212.726577 
L 169.056105 212.726577 
L 169.056105 228.293948 
L 182.148975 228.293948 
L 182.148975 225.898968 
L 195.241846 225.898968 
L 195.241846 246.2563 
L 208.334717 246.2563 
L 208.334717 252.24375 
L 221.427587 252.24375 
L 221.427587 252.24375 
L 234.520458 252.24375 
L 234.520458 252.24375 
L 247.613329 252.24375 
L 247.613329 252.24375 
L 260.706199 252.24375 
L 260.706199 252.24375 
L 273.79907 252.24375 
L 273.79907 252.24375 
L 286.891941 252.24375 
L 286.891941 252.24375 
L 299.984811 252.24375 
L 299.984811 252.24375 
L 313.077682 252.24375 
L 313.077682 252.24375 
L 326.170553 252.24375 
L 326.170553 252.24375 
L 339.263423 252.24375 
L 339.263423 252.24375 
L 326.170553 252.24375 
L 326.170553 252.24375 
L 313.077682 252.24375 
L 313.077682 252.24375 
L 299.984811 252.24375 
L 299.984811 252.24375 
L 286.891941 252.24375 
L 286.891941 252.24375 
L 273.79907 252.24375 
L 273.79907 252.24375 
L 260.706199 252.24375 
L 260.706199 252.24375 
L 247.613329 252.24375 
L 247.613329 252.24375 
L 234.520458 252.24375 
L 234.520458 252.24375 
L 221.427587 252.24375 
L 221.427587 252.24375 
L 208.334717 252.24375 
L 208.334717 252.24375 
L 195.241846 252.24375 
L 195.241846 252.24375 
L 182.148975 252.24375 
L 182.148975 252.24375 
L 169.056105 252.24375 
L 169.056105 252.24375 
L 155.963234 252.24375 
L 155.963234 252.24375 
L 142.870363 252.24375 
L 142.870363 252.24375 
L 129.777493 252.24375 
L 129.777493 252.24375 
L 116.684622 252.24375 
L 116.684622 252.24375 
L 103.591751 252.24375 
L 103.591751 252.24375 
L 90.498881 252.24375 
L 90.498881 252.24375 
L 77.40601 252.24375 
L 77.40601 252.24375 
z
" style="fill:#1f77b4;"/>
   </g>
   <g id="matplotlib.axis_1">
    <g id="xtick_1">
     <g id="line2d_1">
      <defs>
       <path d="M 0 0 
L 0 3.5 
" id="m662415fb1f" style="stroke:#000000;stroke-width:0.8;"/>
      </defs>
      <g>
       <use style="stroke:#000000;stroke-width:0.8;" x="70.859575" xlink:href="#m662415fb1f" y="252.24375"/>
      </g>
     </g>
     <g id="text_1">
      <!-- 0.0 -->
      <g transform="translate(62.908012 266.842187)scale(0.1 -0.1)">
       <defs>
        <path d="M 31.78125 66.40625 
Q 24.171875 66.40625 20.328125 58.90625 
Q 16.5 51.421875 16.5 36.375 
Q 16.5 21.390625 20.328125 13.890625 
Q 24.171875 6.390625 31.78125 6.390625 
Q 39.453125 6.390625 43.28125 13.890625 
Q 47.125 21.390625 47.125 36.375 
Q 47.125 51.421875 43.28125 58.90625 
Q 39.453125 66.40625 31.78125 66.40625 
z
M 31.78125 74.21875 
Q 44.046875 74.21875 50.515625 64.515625 
Q 56.984375 54.828125 56.984375 36.375 
Q 56.984375 17.96875 50.515625 8.265625 
Q 44.046875 -1.421875 31.78125 -1.421875 
Q 19.53125 -1.421875 13.0625 8.265625 
Q 6.59375 17.96875 6.59375 36.375 
Q 6.59375 54.828125 13.0625 64.515625 
Q 19.53125 74.21875 31.78125 74.21875 
z
" id="DejaVuSans-48"/>
        <path d="M 10.6875 12.40625 
L 21 12.40625 
L 21 0 
L 10.6875 0 
z
" id="DejaVuSans-46"/>
       </defs>
       <use xlink:href="#DejaVuSans-48"/>
       <use x="63.623047" xlink:href="#DejaVuSans-46"/>
       <use x="95.410156" xlink:href="#DejaVuSans-48"/>
      </g>
     </g>
    </g>
    <g id="xtick_2">
     <g id="line2d_2">
      <g>
       <use style="stroke:#000000;stroke-width:0.8;" x="123.231057" xlink:href="#m662415fb1f" y="252.24375"/>
      </g>
     </g>
     <g id="text_2">
      <!-- 0.2 -->
      <g transform="translate(115.279495 266.842187)scale(0.1 -0.1)">
       <defs>
        <path d="M 19.1875 8.296875 
L 53.609375 8.296875 
L 53.609375 0 
L 7.328125 0 
L 7.328125 8.296875 
Q 12.9375 14.109375 22.625 23.890625 
Q 32.328125 33.6875 34.8125 36.53125 
Q 39.546875 41.84375 41.421875 45.53125 
Q 43.3125 49.21875 43.3125 52.78125 
Q 43.3125 58.59375 39.234375 62.25 
Q 35.15625 65.921875 28.609375 65.921875 
Q 23.96875 65.921875 18.8125 64.3125 
Q 13.671875 62.703125 7.8125 59.421875 
L 7.8125 69.390625 
Q 13.765625 71.78125 18.9375 73 
Q 24.125 74.21875 28.421875 74.21875 
Q 39.75 74.21875 46.484375 68.546875 
Q 53.21875 62.890625 53.21875 53.421875 
Q 53.21875 48.921875 51.53125 44.890625 
Q 49.859375 40.875 45.40625 35.40625 
Q 44.1875 33.984375 37.640625 27.21875 
Q 31.109375 20.453125 19.1875 8.296875 
z
" id="DejaVuSans-50"/>
       </defs>
       <use xlink:href="#DejaVuSans-48"/>
       <use x="63.623047" xlink:href="#DejaVuSans-46"/>
       <use x="95.410156" xlink:href="#DejaVuSans-50"/>
      </g>
     </g>
    </g>
    <g id="xtick_3">
     <g id="line2d_3">
      <g>
       <use style="stroke:#000000;stroke-width:0.8;" x="175.60254" xlink:href="#m662415fb1f" y="252.24375"/>
      </g>
     </g>
     <g id="text_3">
      <!-- 0.4 -->
      <g transform="translate(167.650977 266.842187)scale(0.1 -0.1)">
       <defs>
        <path d="M 37.796875 64.3125 
L 12.890625 25.390625 
L 37.796875 25.390625 
z
M 35.203125 72.90625 
L 47.609375 72.90625 
L 47.609375 25.390625 
L 58.015625 25.390625 
L 58.015625 17.1875 
L 47.609375 17.1875 
L 47.609375 0 
L 37.796875 0 
L 37.796875 17.1875 
L 4.890625 17.1875 
L 4.890625 26.703125 
z
" id="DejaVuSans-52"/>
       </defs>
       <use xlink:href="#DejaVuSans-48"/>
       <use x="63.623047" xlink:href="#DejaVuSans-46"/>
       <use x="95.410156" xlink:href="#DejaVuSans-52"/>
      </g>
     </g>
    </g>
    <g id="xtick_4">
     <g id="line2d_4">
      <g>
       <use style="stroke:#000000;stroke-width:0.8;" x="227.974023" xlink:href="#m662415fb1f" y="252.24375"/>
      </g>
     </g>
     <g id="text_4">
      <!-- 0.6 -->
      <g transform="translate(220.02246 266.842187)scale(0.1 -0.1)">
       <defs>
        <path d="M 33.015625 40.375 
Q 26.375 40.375 22.484375 35.828125 
Q 18.609375 31.296875 18.609375 23.390625 
Q 18.609375 15.53125 22.484375 10.953125 
Q 26.375 6.390625 33.015625 6.390625 
Q 39.65625 6.390625 43.53125 10.953125 
Q 47.40625 15.53125 47.40625 23.390625 
Q 47.40625 31.296875 43.53125 35.828125 
Q 39.65625 40.375 33.015625 40.375 
z
M 52.59375 71.296875 
L 52.59375 62.3125 
Q 48.875 64.0625 45.09375 64.984375 
Q 41.3125 65.921875 37.59375 65.921875 
Q 27.828125 65.921875 22.671875 59.328125 
Q 17.53125 52.734375 16.796875 39.40625 
Q 19.671875 43.65625 24.015625 45.921875 
Q 28.375 48.1875 33.59375 48.1875 
Q 44.578125 48.1875 50.953125 41.515625 
Q 57.328125 34.859375 57.328125 23.390625 
Q 57.328125 12.15625 50.6875 5.359375 
Q 44.046875 -1.421875 33.015625 -1.421875 
Q 20.359375 -1.421875 13.671875 8.265625 
Q 6.984375 17.96875 6.984375 36.375 
Q 6.984375 53.65625 15.1875 63.9375 
Q 23.390625 74.21875 37.203125 74.21875 
Q 40.921875 74.21875 44.703125 73.484375 
Q 48.484375 72.75 52.59375 71.296875 
z
" id="DejaVuSans-54"/>
       </defs>
       <use xlink:href="#DejaVuSans-48"/>
       <use x="63.623047" xlink:href="#DejaVuSans-46"/>
       <use x="95.410156" xlink:href="#DejaVuSans-54"/>
      </g>
     </g>
    </g>
    <g id="xtick_5">
     <g id="line2d_5">
      <g>
       <use style="stroke:#000000;stroke-width:0.8;" x="280.345505" xlink:href="#m662415fb1f" y="252.24375"/>
      </g>
     </g>
     <g id="text_5">
      <!-- 0.8 -->
      <g transform="translate(272.393943 266.842187)scale(0.1 -0.1)">
       <defs>
        <path d="M 31.78125 34.625 
Q 24.75 34.625 20.71875 30.859375 
Q 16.703125 27.09375 16.703125 20.515625 
Q 16.703125 13.921875 20.71875 10.15625 
Q 24.75 6.390625 31.78125 6.390625 
Q 38.8125 6.390625 42.859375 10.171875 
Q 46.921875 13.96875 46.921875 20.515625 
Q 46.921875 27.09375 42.890625 30.859375 
Q 38.875 34.625 31.78125 34.625 
z
M 21.921875 38.8125 
Q 15.578125 40.375 12.03125 44.71875 
Q 8.5 49.078125 8.5 55.328125 
Q 8.5 64.0625 14.71875 69.140625 
Q 20.953125 74.21875 31.78125 74.21875 
Q 42.671875 74.21875 48.875 69.140625 
Q 55.078125 64.0625 55.078125 55.328125 
Q 55.078125 49.078125 51.53125 44.71875 
Q 48 40.375 41.703125 38.8125 
Q 48.828125 37.15625 52.796875 32.3125 
Q 56.78125 27.484375 56.78125 20.515625 
Q 56.78125 9.90625 50.3125 4.234375 
Q 43.84375 -1.421875 31.78125 -1.421875 
Q 19.734375 -1.421875 13.25 4.234375 
Q 6.78125 9.90625 6.78125 20.515625 
Q 6.78125 27.484375 10.78125 32.3125 
Q 14.796875 37.15625 21.921875 38.8125 
z
M 18.3125 54.390625 
Q 18.3125 48.734375 21.84375 45.5625 
Q 25.390625 42.390625 31.78125 42.390625 
Q 38.140625 42.390625 41.71875 45.5625 
Q 45.3125 48.734375 45.3125 54.390625 
Q 45.3125 60.0625 41.71875 63.234375 
Q 38.140625 66.40625 31.78125 66.40625 
Q 25.390625 66.40625 21.84375 63.234375 
Q 18.3125 60.0625 18.3125 54.390625 
z
" id="DejaVuSans-56"/>
       </defs>
       <use xlink:href="#DejaVuSans-48"/>
       <use x="63.623047" xlink:href="#DejaVuSans-46"/>
       <use x="95.410156" xlink:href="#DejaVuSans-56"/>
      </g>
     </g>
    </g>
    <g id="xtick_6">
     <g id="line2d_6">
      <g>
       <use style="stroke:#000000;stroke-width:0.8;" x="332.716988" xlink:href="#m662415fb1f" y="252.24375"/>
      </g>
     </g>
     <g id="text_6">
      <!-- 1.0 -->
      <g transform="translate(324.765425 266.842187)scale(0.1 -0.1)">
       <defs>
        <path d="M 12.40625 8.296875 
L 28.515625 8.296875 
L 28.515625 63.921875 
L 10.984375 60.40625 
L 10.984375 69.390625 
L 28.421875 72.90625 
L 38.28125 72.90625 
L 38.28125 8.296875 
L 54.390625 8.296875 
L 54.390625 0 
L 12.40625 0 
z
" id="DejaVuSans-49"/>
       </defs>
       <use xlink:href="#DejaVuSans-49"/>
       <use x="63.623047" xlink:href="#DejaVuSans-46"/>
       <use x="95.410156" xlink:href="#DejaVuSans-48"/>
      </g>
     </g>
    </g>
    <g id="text_7">
     <!-- Stun Probability -->
     <g transform="translate(162.298437 280.520312)scale(0.1 -0.1)">
      <defs>
       <path d="M 53.515625 70.515625 
L 53.515625 60.890625 
Q 47.90625 63.578125 42.921875 64.890625 
Q 37.9375 66.21875 33.296875 66.21875 
Q 25.25 66.21875 20.875 63.09375 
Q 16.5 59.96875 16.5 54.203125 
Q 16.5 49.359375 19.40625 46.890625 
Q 22.3125 44.4375 30.421875 42.921875 
L 36.375 41.703125 
Q 47.40625 39.59375 52.65625 34.296875 
Q 57.90625 29 57.90625 20.125 
Q 57.90625 9.515625 50.796875 4.046875 
Q 43.703125 -1.421875 29.984375 -1.421875 
Q 24.8125 -1.421875 18.96875 -0.25 
Q 13.140625 0.921875 6.890625 3.21875 
L 6.890625 13.375 
Q 12.890625 10.015625 18.65625 8.296875 
Q 24.421875 6.59375 29.984375 6.59375 
Q 38.421875 6.59375 43.015625 9.90625 
Q 47.609375 13.234375 47.609375 19.390625 
Q 47.609375 24.75 44.3125 27.78125 
Q 41.015625 30.8125 33.5 32.328125 
L 27.484375 33.5 
Q 16.453125 35.6875 11.515625 40.375 
Q 6.59375 45.0625 6.59375 53.421875 
Q 6.59375 63.09375 13.40625 68.65625 
Q 20.21875 74.21875 32.171875 74.21875 
Q 37.3125 74.21875 42.625 73.28125 
Q 47.953125 72.359375 53.515625 70.515625 
z
" id="DejaVuSans-83"/>
       <path d="M 18.3125 70.21875 
L 18.3125 54.6875 
L 36.8125 54.6875 
L 36.8125 47.703125 
L 18.3125 47.703125 
L 18.3125 18.015625 
Q 18.3125 11.328125 20.140625 9.421875 
Q 21.96875 7.515625 27.59375 7.515625 
L 36.8125 7.515625 
L 36.8125 0 
L 27.59375 0 
Q 17.1875 0 13.234375 3.875 
Q 9.28125 7.765625 9.28125 18.015625 
L 9.28125 47.703125 
L 2.6875 47.703125 
L 2.6875 54.6875 
L 9.28125 54.6875 
L 9.28125 70.21875 
z
" id="DejaVuSans-116"/>
       <path d="M 8.5 21.578125 
L 8.5 54.6875 
L 17.484375 54.6875 
L 17.484375 21.921875 
Q 17.484375 14.15625 20.5 10.265625 
Q 23.53125 6.390625 29.59375 6.390625 
Q 36.859375 6.390625 41.078125 11.03125 
Q 45.3125 15.671875 45.3125 23.6875 
L 45.3125 54.6875 
L 54.296875 54.6875 
L 54.296875 0 
L 45.3125 0 
L 45.3125 8.40625 
Q 42.046875 3.421875 37.71875 1 
Q 33.40625 -1.421875 27.6875 -1.421875 
Q 18.265625 -1.421875 13.375 4.4375 
Q 8.5 10.296875 8.5 21.578125 
z
M 31.109375 56 
z
" id="DejaVuSans-117"/>
       <path d="M 54.890625 33.015625 
L 54.890625 0 
L 45.90625 0 
L 45.90625 32.71875 
Q 45.90625 40.484375 42.875 44.328125 
Q 39.84375 48.1875 33.796875 48.1875 
Q 26.515625 48.1875 22.3125 43.546875 
Q 18.109375 38.921875 18.109375 30.90625 
L 18.109375 0 
L 9.078125 0 
L 9.078125 54.6875 
L 18.109375 54.6875 
L 18.109375 46.1875 
Q 21.34375 51.125 25.703125 53.5625 
Q 30.078125 56 35.796875 56 
Q 45.21875 56 50.046875 50.171875 
Q 54.890625 44.34375 54.890625 33.015625 
z
" id="DejaVuSans-110"/>
       <path id="DejaVuSans-32"/>
       <path d="M 19.671875 64.796875 
L 19.671875 37.40625 
L 32.078125 37.40625 
Q 38.96875 37.40625 42.71875 40.96875 
Q 46.484375 44.53125 46.484375 51.125 
Q 46.484375 57.671875 42.71875 61.234375 
Q 38.96875 64.796875 32.078125 64.796875 
z
M 9.8125 72.90625 
L 32.078125 72.90625 
Q 44.34375 72.90625 50.609375 67.359375 
Q 56.890625 61.8125 56.890625 51.125 
Q 56.890625 40.328125 50.609375 34.8125 
Q 44.34375 29.296875 32.078125 29.296875 
L 19.671875 29.296875 
L 19.671875 0 
L 9.8125 0 
z
" id="DejaVuSans-80"/>
       <path d="M 41.109375 46.296875 
Q 39.59375 47.171875 37.8125 47.578125 
Q 36.03125 48 33.890625 48 
Q 26.265625 48 22.1875 43.046875 
Q 18.109375 38.09375 18.109375 28.8125 
L 18.109375 0 
L 9.078125 0 
L 9.078125 54.6875 
L 18.109375 54.6875 
L 18.109375 46.1875 
Q 20.953125 51.171875 25.484375 53.578125 
Q 30.03125 56 36.53125 56 
Q 37.453125 56 38.578125 55.875 
Q 39.703125 55.765625 41.0625 55.515625 
z
" id="DejaVuSans-114"/>
       <path d="M 30.609375 48.390625 
Q 23.390625 48.390625 19.1875 42.75 
Q 14.984375 37.109375 14.984375 27.296875 
Q 14.984375 17.484375 19.15625 11.84375 
Q 23.34375 6.203125 30.609375 6.203125 
Q 37.796875 6.203125 41.984375 11.859375 
Q 46.1875 17.53125 46.1875 27.296875 
Q 46.1875 37.015625 41.984375 42.703125 
Q 37.796875 48.390625 30.609375 48.390625 
z
M 30.609375 56 
Q 42.328125 56 49.015625 48.375 
Q 55.71875 40.765625 55.71875 27.296875 
Q 55.71875 13.875 49.015625 6.21875 
Q 42.328125 -1.421875 30.609375 -1.421875 
Q 18.84375 -1.421875 12.171875 6.21875 
Q 5.515625 13.875 5.515625 27.296875 
Q 5.515625 40.765625 12.171875 48.375 
Q 18.84375 56 30.609375 56 
z
" id="DejaVuSans-111"/>
       <path d="M 48.6875 27.296875 
Q 48.6875 37.203125 44.609375 42.84375 
Q 40.53125 48.484375 33.40625 48.484375 
Q 26.265625 48.484375 22.1875 42.84375 
Q 18.109375 37.203125 18.109375 27.296875 
Q 18.109375 17.390625 22.1875 11.75 
Q 26.265625 6.109375 33.40625 6.109375 
Q 40.53125 6.109375 44.609375 11.75 
Q 48.6875 17.390625 48.6875 27.296875 
z
M 18.109375 46.390625 
Q 20.953125 51.265625 25.265625 53.625 
Q 29.59375 56 35.59375 56 
Q 45.5625 56 51.78125 48.09375 
Q 58.015625 40.1875 58.015625 27.296875 
Q 58.015625 14.40625 51.78125 6.484375 
Q 45.5625 -1.421875 35.59375 -1.421875 
Q 29.59375 -1.421875 25.265625 0.953125 
Q 20.953125 3.328125 18.109375 8.203125 
L 18.109375 0 
L 9.078125 0 
L 9.078125 75.984375 
L 18.109375 75.984375 
z
" id="DejaVuSans-98"/>
       <path d="M 34.28125 27.484375 
Q 23.390625 27.484375 19.1875 25 
Q 14.984375 22.515625 14.984375 16.5 
Q 14.984375 11.71875 18.140625 8.90625 
Q 21.296875 6.109375 26.703125 6.109375 
Q 34.1875 6.109375 38.703125 11.40625 
Q 43.21875 16.703125 43.21875 25.484375 
L 43.21875 27.484375 
z
M 52.203125 31.203125 
L 52.203125 0 
L 43.21875 0 
L 43.21875 8.296875 
Q 40.140625 3.328125 35.546875 0.953125 
Q 30.953125 -1.421875 24.3125 -1.421875 
Q 15.921875 -1.421875 10.953125 3.296875 
Q 6 8.015625 6 15.921875 
Q 6 25.140625 12.171875 29.828125 
Q 18.359375 34.515625 30.609375 34.515625 
L 43.21875 34.515625 
L 43.21875 35.40625 
Q 43.21875 41.609375 39.140625 45 
Q 35.0625 48.390625 27.6875 48.390625 
Q 23 48.390625 18.546875 47.265625 
Q 14.109375 46.140625 10.015625 43.890625 
L 10.015625 52.203125 
Q 14.9375 54.109375 19.578125 55.046875 
Q 24.21875 56 28.609375 56 
Q 40.484375 56 46.34375 49.84375 
Q 52.203125 43.703125 52.203125 31.203125 
z
" id="DejaVuSans-97"/>
       <path d="M 9.421875 54.6875 
L 18.40625 54.6875 
L 18.40625 0 
L 9.421875 0 
z
M 9.421875 75.984375 
L 18.40625 75.984375 
L 18.40625 64.59375 
L 9.421875 64.59375 
z
" id="DejaVuSans-105"/>
       <path d="M 9.421875 75.984375 
L 18.40625 75.984375 
L 18.40625 0 
L 9.421875 0 
z
" id="DejaVuSans-108"/>
       <path d="M 32.171875 -5.078125 
Q 28.375 -14.84375 24.75 -17.8125 
Q 21.140625 -20.796875 15.09375 -20.796875 
L 7.90625 -20.796875 
L 7.90625 -13.28125 
L 13.1875 -13.28125 
Q 16.890625 -13.28125 18.9375 -11.515625 
Q 21 -9.765625 23.484375 -3.21875 
L 25.09375 0.875 
L 2.984375 54.6875 
L 12.5 54.6875 
L 29.59375 11.921875 
L 46.6875 54.6875 
L 56.203125 54.6875 
z
" id="DejaVuSans-121"/>
      </defs>
      <use xlink:href="#DejaVuSans-83"/>
      <use x="63.476562" xlink:href="#DejaVuSans-116"/>
      <use x="102.685547" xlink:href="#DejaVuSans-117"/>
      <use x="166.064453" xlink:href="#DejaVuSans-110"/>
      <use x="229.443359" xlink:href="#DejaVuSans-32"/>
      <use x="261.230469" xlink:href="#DejaVuSans-80"/>
      <use x="319.783203" xlink:href="#DejaVuSans-114"/>
      <use x="358.646484" xlink:href="#DejaVuSans-111"/>
      <use x="419.828125" xlink:href="#DejaVuSans-98"/>
      <use x="483.304688" xlink:href="#DejaVuSans-97"/>
      <use x="544.583984" xlink:href="#DejaVuSans-98"/>
      <use x="608.060547" xlink:href="#DejaVuSans-105"/>
      <use x="635.84375" xlink:href="#DejaVuSans-108"/>
      <use x="663.626953" xlink:href="#DejaVuSans-105"/>
      <use x="691.410156" xlink:href="#DejaVuSans-116"/>
      <use x="730.619141" xlink:href="#DejaVuSans-121"/>
     </g>
    </g>
   </g>
   <g id="matplotlib.axis_2">
    <g id="ytick_1">
     <g id="line2d_7">
      <defs>
       <path d="M 0 0 
L -3.5 0 
" id="m6390a926b0" style="stroke:#000000;stroke-width:0.8;"/>
      </defs>
      <g>
       <use style="stroke:#000000;stroke-width:0.8;" x="50.565625" xlink:href="#m6390a926b0" y="252.24375"/>
      </g>
     </g>
     <g id="text_8">
      <!-- 0 -->
      <g transform="translate(37.203125 256.042969)scale(0.1 -0.1)">
       <use xlink:href="#DejaVuSans-48"/>
      </g>
     </g>
    </g>
    <g id="ytick_2">
     <g id="line2d_8">
      <g>
       <use style="stroke:#000000;stroke-width:0.8;" x="50.565625" xlink:href="#m6390a926b0" y="222.306498"/>
      </g>
     </g>
     <g id="text_9">
      <!-- 25 -->
      <g transform="translate(30.840625 226.105717)scale(0.1 -0.1)">
       <defs>
        <path d="M 10.796875 72.90625 
L 49.515625 72.90625 
L 49.515625 64.59375 
L 19.828125 64.59375 
L 19.828125 46.734375 
Q 21.96875 47.46875 24.109375 47.828125 
Q 26.265625 48.1875 28.421875 48.1875 
Q 40.625 48.1875 47.75 41.5 
Q 54.890625 34.8125 54.890625 23.390625 
Q 54.890625 11.625 47.5625 5.09375 
Q 40.234375 -1.421875 26.90625 -1.421875 
Q 22.3125 -1.421875 17.546875 -0.640625 
Q 12.796875 0.140625 7.71875 1.703125 
L 7.71875 11.625 
Q 12.109375 9.234375 16.796875 8.0625 
Q 21.484375 6.890625 26.703125 6.890625 
Q 35.15625 6.890625 40.078125 11.328125 
Q 45.015625 15.765625 45.015625 23.390625 
Q 45.015625 31 40.078125 35.4375 
Q 35.15625 39.890625 26.703125 39.890625 
Q 22.75 39.890625 18.8125 39.015625 
Q 14.890625 38.140625 10.796875 36.28125 
z
" id="DejaVuSans-53"/>
       </defs>
       <use xlink:href="#DejaVuSans-50"/>
       <use x="63.623047" xlink:href="#DejaVuSans-53"/>
      </g>
     </g>
    </g>
    <g id="ytick_3">
     <g id="line2d_9">
      <g>
       <use style="stroke:#000000;stroke-width:0.8;" x="50.565625" xlink:href="#m6390a926b0" y="192.369246"/>
      </g>
     </g>
     <g id="text_10">
      <!-- 50 -->
      <g transform="translate(30.840625 196.168465)scale(0.1 -0.1)">
       <use xlink:href="#DejaVuSans-53"/>
       <use x="63.623047" xlink:href="#DejaVuSans-48"/>
      </g>
     </g>
    </g>
    <g id="ytick_4">
     <g id="line2d_10">
      <g>
       <use style="stroke:#000000;stroke-width:0.8;" x="50.565625" xlink:href="#m6390a926b0" y="162.431994"/>
      </g>
     </g>
     <g id="text_11">
      <!-- 75 -->
      <g transform="translate(30.840625 166.231213)scale(0.1 -0.1)">
       <defs>
        <path d="M 8.203125 72.90625 
L 55.078125 72.90625 
L 55.078125 68.703125 
L 28.609375 0 
L 18.3125 0 
L 43.21875 64.59375 
L 8.203125 64.59375 
z
" id="DejaVuSans-55"/>
       </defs>
       <use xlink:href="#DejaVuSans-55"/>
       <use x="63.623047" xlink:href="#DejaVuSans-53"/>
      </g>
     </g>
    </g>
    <g id="ytick_5">
     <g id="line2d_11">
      <g>
       <use style="stroke:#000000;stroke-width:0.8;" x="50.565625" xlink:href="#m6390a926b0" y="132.494742"/>
      </g>
     </g>
     <g id="text_12">
      <!-- 100 -->
      <g transform="translate(24.478125 136.293961)scale(0.1 -0.1)">
       <use xlink:href="#DejaVuSans-49"/>
       <use x="63.623047" xlink:href="#DejaVuSans-48"/>
       <use x="127.246094" xlink:href="#DejaVuSans-48"/>
      </g>
     </g>
    </g>
    <g id="ytick_6">
     <g id="line2d_12">
      <g>
       <use style="stroke:#000000;stroke-width:0.8;" x="50.565625" xlink:href="#m6390a926b0" y="102.55749"/>
      </g>
     </g>
     <g id="text_13">
      <!-- 125 -->
      <g transform="translate(24.478125 106.356709)scale(0.1 -0.1)">
       <use xlink:href="#DejaVuSans-49"/>
       <use x="63.623047" xlink:href="#DejaVuSans-50"/>
       <use x="127.246094" xlink:href="#DejaVuSans-53"/>
      </g>
     </g>
    </g>
    <g id="ytick_7">
     <g id="line2d_13">
      <g>
       <use style="stroke:#000000;stroke-width:0.8;" x="50.565625" xlink:href="#m6390a926b0" y="72.620238"/>
      </g>
     </g>
     <g id="text_14">
      <!-- 150 -->
      <g transform="translate(24.478125 76.419457)scale(0.1 -0.1)">
       <use xlink:href="#DejaVuSans-49"/>
       <use x="63.623047" xlink:href="#DejaVuSans-53"/>
       <use x="127.246094" xlink:href="#DejaVuSans-48"/>
      </g>
     </g>
    </g>
    <g id="ytick_8">
     <g id="line2d_14">
      <g>
       <use style="stroke:#000000;stroke-width:0.8;" x="50.565625" xlink:href="#m6390a926b0" y="42.682986"/>
      </g>
     </g>
     <g id="text_15">
      <!-- 175 -->
      <g transform="translate(24.478125 46.482205)scale(0.1 -0.1)">
       <use xlink:href="#DejaVuSans-49"/>
       <use x="63.623047" xlink:href="#DejaVuSans-55"/>
       <use x="127.246094" xlink:href="#DejaVuSans-53"/>
      </g>
     </g>
    </g>
    <g id="text_16">
     <!-- Count -->
     <g transform="translate(18.398437 153.929375)rotate(-90)scale(0.1 -0.1)">
      <defs>
       <path d="M 64.40625 67.28125 
L 64.40625 56.890625 
Q 59.421875 61.53125 53.78125 63.8125 
Q 48.140625 66.109375 41.796875 66.109375 
Q 29.296875 66.109375 22.65625 58.46875 
Q 16.015625 50.828125 16.015625 36.375 
Q 16.015625 21.96875 22.65625 14.328125 
Q 29.296875 6.6875 41.796875 6.6875 
Q 48.140625 6.6875 53.78125 8.984375 
Q 59.421875 11.28125 64.40625 15.921875 
L 64.40625 5.609375 
Q 59.234375 2.09375 53.4375 0.328125 
Q 47.65625 -1.421875 41.21875 -1.421875 
Q 24.65625 -1.421875 15.125 8.703125 
Q 5.609375 18.84375 5.609375 36.375 
Q 5.609375 53.953125 15.125 64.078125 
Q 24.65625 74.21875 41.21875 74.21875 
Q 47.75 74.21875 53.53125 72.484375 
Q 59.328125 70.75 64.40625 67.28125 
z
" id="DejaVuSans-67"/>
      </defs>
      <use xlink:href="#DejaVuSans-67"/>
      <use x="69.824219" xlink:href="#DejaVuSans-111"/>
      <use x="131.005859" xlink:href="#DejaVuSans-117"/>
      <use x="194.384766" xlink:href="#DejaVuSans-110"/>
      <use x="257.763672" xlink:href="#DejaVuSans-116"/>
     </g>
    </g>
   </g>
   <g id="patch_5">
    <path d="M 50.565625 252.24375 
L 50.565625 25.918125 
" style="fill:none;stroke:#000000;stroke-linecap:square;stroke-linejoin:miter;stroke-width:0.8;"/>
   </g>
   <g id="patch_6">
    <path d="M 353.010937 252.24375 
L 353.010937 25.918125 
" style="fill:none;stroke:#000000;stroke-linecap:square;stroke-linejoin:miter;stroke-width:0.8;"/>
   </g>
   <g id="patch_7">
    <path d="M 50.565625 252.24375 
L 353.010937 252.24375 
" style="fill:none;stroke:#000000;stroke-linecap:square;stroke-linejoin:miter;stroke-width:0.8;"/>
   </g>
   <g id="patch_8">
    <path d="M 50.565625 25.918125 
L 353.010937 25.918125 
" style="fill:none;stroke:#000000;stroke-linecap:square;stroke-linejoin:miter;stroke-width:0.8;"/>
   </g>
   <g id="text_17">
    <!-- Level 5, AB 7, DC 14, CR 1-9 -->
    <g transform="translate(116.420469 19.918125)scale(0.12 -0.12)">
     <defs>
      <path d="M 9.8125 72.90625 
L 19.671875 72.90625 
L 19.671875 8.296875 
L 55.171875 8.296875 
L 55.171875 0 
L 9.8125 0 
z
" id="DejaVuSans-76"/>
      <path d="M 56.203125 29.59375 
L 56.203125 25.203125 
L 14.890625 25.203125 
Q 15.484375 15.921875 20.484375 11.0625 
Q 25.484375 6.203125 34.421875 6.203125 
Q 39.59375 6.203125 44.453125 7.46875 
Q 49.3125 8.734375 54.109375 11.28125 
L 54.109375 2.78125 
Q 49.265625 0.734375 44.1875 -0.34375 
Q 39.109375 -1.421875 33.890625 -1.421875 
Q 20.796875 -1.421875 13.15625 6.1875 
Q 5.515625 13.8125 5.515625 26.8125 
Q 5.515625 40.234375 12.765625 48.109375 
Q 20.015625 56 32.328125 56 
Q 43.359375 56 49.78125 48.890625 
Q 56.203125 41.796875 56.203125 29.59375 
z
M 47.21875 32.234375 
Q 47.125 39.59375 43.09375 43.984375 
Q 39.0625 48.390625 32.421875 48.390625 
Q 24.90625 48.390625 20.390625 44.140625 
Q 15.875 39.890625 15.1875 32.171875 
z
" id="DejaVuSans-101"/>
      <path d="M 2.984375 54.6875 
L 12.5 54.6875 
L 29.59375 8.796875 
L 46.6875 54.6875 
L 56.203125 54.6875 
L 35.6875 0 
L 23.484375 0 
z
" id="DejaVuSans-118"/>
      <path d="M 11.71875 12.40625 
L 22.015625 12.40625 
L 22.015625 4 
L 14.015625 -11.625 
L 7.71875 -11.625 
L 11.71875 4 
z
" id="DejaVuSans-44"/>
      <path d="M 34.1875 63.1875 
L 20.796875 26.90625 
L 47.609375 26.90625 
z
M 28.609375 72.90625 
L 39.796875 72.90625 
L 67.578125 0 
L 57.328125 0 
L 50.6875 18.703125 
L 17.828125 18.703125 
L 11.1875 0 
L 0.78125 0 
z
" id="DejaVuSans-65"/>
      <path d="M 19.671875 34.8125 
L 19.671875 8.109375 
L 35.5 8.109375 
Q 43.453125 8.109375 47.28125 11.40625 
Q 51.125 14.703125 51.125 21.484375 
Q 51.125 28.328125 47.28125 31.5625 
Q 43.453125 34.8125 35.5 34.8125 
z
M 19.671875 64.796875 
L 19.671875 42.828125 
L 34.28125 42.828125 
Q 41.5 42.828125 45.03125 45.53125 
Q 48.578125 48.25 48.578125 53.8125 
Q 48.578125 59.328125 45.03125 62.0625 
Q 41.5 64.796875 34.28125 64.796875 
z
M 9.8125 72.90625 
L 35.015625 72.90625 
Q 46.296875 72.90625 52.390625 68.21875 
Q 58.5 63.53125 58.5 54.890625 
Q 58.5 48.1875 55.375 44.234375 
Q 52.25 40.28125 46.1875 39.3125 
Q 53.46875 37.75 57.5 32.78125 
Q 61.53125 27.828125 61.53125 20.40625 
Q 61.53125 10.640625 54.890625 5.3125 
Q 48.25 0 35.984375 0 
L 9.8125 0 
z
" id="DejaVuSans-66"/>
      <path d="M 19.671875 64.796875 
L 19.671875 8.109375 
L 31.59375 8.109375 
Q 46.6875 8.109375 53.6875 14.9375 
Q 60.6875 21.78125 60.6875 36.53125 
Q 60.6875 51.171875 53.6875 57.984375 
Q 46.6875 64.796875 31.59375 64.796875 
z
M 9.8125 72.90625 
L 30.078125 72.90625 
Q 51.265625 72.90625 61.171875 64.09375 
Q 71.09375 55.28125 71.09375 36.53125 
Q 71.09375 17.671875 61.125 8.828125 
Q 51.171875 0 30.078125 0 
L 9.8125 0 
z
" id="DejaVuSans-68"/>
      <path d="M 44.390625 34.1875 
Q 47.5625 33.109375 50.5625 29.59375 
Q 53.5625 26.078125 56.59375 19.921875 
L 66.609375 0 
L 56 0 
L 46.6875 18.703125 
Q 43.0625 26.03125 39.671875 28.421875 
Q 36.28125 30.8125 30.421875 30.8125 
L 19.671875 30.8125 
L 19.671875 0 
L 9.8125 0 
L 9.8125 72.90625 
L 32.078125 72.90625 
Q 44.578125 72.90625 50.734375 67.671875 
Q 56.890625 62.453125 56.890625 51.90625 
Q 56.890625 45.015625 53.6875 40.46875 
Q 50.484375 35.9375 44.390625 34.1875 
z
M 19.671875 64.796875 
L 19.671875 38.921875 
L 32.078125 38.921875 
Q 39.203125 38.921875 42.84375 42.21875 
Q 46.484375 45.515625 46.484375 51.90625 
Q 46.484375 58.296875 42.84375 61.546875 
Q 39.203125 64.796875 32.078125 64.796875 
z
" id="DejaVuSans-82"/>
      <path d="M 4.890625 31.390625 
L 31.203125 31.390625 
L 31.203125 23.390625 
L 4.890625 23.390625 
z
" id="DejaVuSans-45"/>
      <path d="M 10.984375 1.515625 
L 10.984375 10.5 
Q 14.703125 8.734375 18.5 7.8125 
Q 22.3125 6.890625 25.984375 6.890625 
Q 35.75 6.890625 40.890625 13.453125 
Q 46.046875 20.015625 46.78125 33.40625 
Q 43.953125 29.203125 39.59375 26.953125 
Q 35.25 24.703125 29.984375 24.703125 
Q 19.046875 24.703125 12.671875 31.3125 
Q 6.296875 37.9375 6.296875 49.421875 
Q 6.296875 60.640625 12.9375 67.421875 
Q 19.578125 74.21875 30.609375 74.21875 
Q 43.265625 74.21875 49.921875 64.515625 
Q 56.59375 54.828125 56.59375 36.375 
Q 56.59375 19.140625 48.40625 8.859375 
Q 40.234375 -1.421875 26.421875 -1.421875 
Q 22.703125 -1.421875 18.890625 -0.6875 
Q 15.09375 0.046875 10.984375 1.515625 
z
M 30.609375 32.421875 
Q 37.25 32.421875 41.125 36.953125 
Q 45.015625 41.5 45.015625 49.421875 
Q 45.015625 57.28125 41.125 61.84375 
Q 37.25 66.40625 30.609375 66.40625 
Q 23.96875 66.40625 20.09375 61.84375 
Q 16.21875 57.28125 16.21875 49.421875 
Q 16.21875 41.5 20.09375 36.953125 
Q 23.96875 32.421875 30.609375 32.421875 
z
" id="DejaVuSans-57"/>
     </defs>
     <use xlink:href="#DejaVuSans-76"/>
     <use x="53.962891" xlink:href="#DejaVuSans-101"/>
     <use x="115.486328" xlink:href="#DejaVuSans-118"/>
     <use x="174.666016" xlink:href="#DejaVuSans-101"/>
     <use x="236.189453" xlink:href="#DejaVuSans-108"/>
     <use x="263.972656" xlink:href="#DejaVuSans-32"/>
     <use x="295.759766" xlink:href="#DejaVuSans-53"/>
     <use x="359.382812" xlink:href="#DejaVuSans-44"/>
     <use x="391.169922" xlink:href="#DejaVuSans-32"/>
     <use x="422.957031" xlink:href="#DejaVuSans-65"/>
     <use x="491.365234" xlink:href="#DejaVuSans-66"/>
     <use x="559.96875" xlink:href="#DejaVuSans-32"/>
     <use x="591.755859" xlink:href="#DejaVuSans-55"/>
     <use x="655.378906" xlink:href="#DejaVuSans-44"/>
     <use x="687.166016" xlink:href="#DejaVuSans-32"/>
     <use x="718.953125" xlink:href="#DejaVuSans-68"/>
     <use x="795.955078" xlink:href="#DejaVuSans-67"/>
     <use x="865.779297" xlink:href="#DejaVuSans-32"/>
     <use x="897.566406" xlink:href="#DejaVuSans-49"/>
     <use x="961.189453" xlink:href="#DejaVuSans-52"/>
     <use x="1024.8125" xlink:href="#DejaVuSans-44"/>
     <use x="1056.599609" xlink:href="#DejaVuSans-32"/>
     <use x="1088.386719" xlink:href="#DejaVuSans-67"/>
     <use x="1158.210938" xlink:href="#DejaVuSans-82"/>
     <use x="1227.693359" xlink:href="#DejaVuSans-32"/>
     <use x="1259.480469" xlink:href="#DejaVuSans-49"/>
     <use x="1323.103516" xlink:href="#DejaVuSans-45"/>
     <use x="1359.1875" xlink:href="#DejaVuSans-57"/>
    </g>
   </g>
   <g id="legend_1">
    <g id="patch_9">
     <path d="M 57.565625 63.274375 
L 157.109375 63.274375 
Q 159.109375 63.274375 159.109375 61.274375 
L 159.109375 32.918125 
Q 159.109375 30.918125 157.109375 30.918125 
L 57.565625 30.918125 
Q 55.565625 30.918125 55.565625 32.918125 
L 55.565625 61.274375 
Q 55.565625 63.274375 57.565625 63.274375 
z
" style="fill:#ffffff;opacity:0.8;stroke:#cccccc;stroke-linejoin:miter;"/>
    </g>
    <g id="patch_10">
     <path d="M 59.565625 42.516562 
L 79.565625 42.516562 
L 79.565625 35.516562 
L 59.565625 35.516562 
z
" style="fill:#ff7f0e;"/>
    </g>
    <g id="text_18">
     <!-- Not Proficient -->
     <g transform="translate(87.565625 42.516562)scale(0.1 -0.1)">
      <defs>
       <path d="M 9.8125 72.90625 
L 23.09375 72.90625 
L 55.421875 11.921875 
L 55.421875 72.90625 
L 64.984375 72.90625 
L 64.984375 0 
L 51.703125 0 
L 19.390625 60.984375 
L 19.390625 0 
L 9.8125 0 
z
" id="DejaVuSans-78"/>
       <path d="M 37.109375 75.984375 
L 37.109375 68.5 
L 28.515625 68.5 
Q 23.6875 68.5 21.796875 66.546875 
Q 19.921875 64.59375 19.921875 59.515625 
L 19.921875 54.6875 
L 34.71875 54.6875 
L 34.71875 47.703125 
L 19.921875 47.703125 
L 19.921875 0 
L 10.890625 0 
L 10.890625 47.703125 
L 2.296875 47.703125 
L 2.296875 54.6875 
L 10.890625 54.6875 
L 10.890625 58.5 
Q 10.890625 67.625 15.140625 71.796875 
Q 19.390625 75.984375 28.609375 75.984375 
z
" id="DejaVuSans-102"/>
       <path d="M 48.78125 52.59375 
L 48.78125 44.1875 
Q 44.96875 46.296875 41.140625 47.34375 
Q 37.3125 48.390625 33.40625 48.390625 
Q 24.65625 48.390625 19.8125 42.84375 
Q 14.984375 37.3125 14.984375 27.296875 
Q 14.984375 17.28125 19.8125 11.734375 
Q 24.65625 6.203125 33.40625 6.203125 
Q 37.3125 6.203125 41.140625 7.25 
Q 44.96875 8.296875 48.78125 10.40625 
L 48.78125 2.09375 
Q 45.015625 0.34375 40.984375 -0.53125 
Q 36.96875 -1.421875 32.421875 -1.421875 
Q 20.0625 -1.421875 12.78125 6.34375 
Q 5.515625 14.109375 5.515625 27.296875 
Q 5.515625 40.671875 12.859375 48.328125 
Q 20.21875 56 33.015625 56 
Q 37.15625 56 41.109375 55.140625 
Q 45.0625 54.296875 48.78125 52.59375 
z
" id="DejaVuSans-99"/>
      </defs>
      <use xlink:href="#DejaVuSans-78"/>
      <use x="74.804688" xlink:href="#DejaVuSans-111"/>
      <use x="135.986328" xlink:href="#DejaVuSans-116"/>
      <use x="175.195312" xlink:href="#DejaVuSans-32"/>
      <use x="206.982422" xlink:href="#DejaVuSans-80"/>
      <use x="265.535156" xlink:href="#DejaVuSans-114"/>
      <use x="304.398438" xlink:href="#DejaVuSans-111"/>
      <use x="365.580078" xlink:href="#DejaVuSans-102"/>
      <use x="400.785156" xlink:href="#DejaVuSans-105"/>
      <use x="428.568359" xlink:href="#DejaVuSans-99"/>
      <use x="483.548828" xlink:href="#DejaVuSans-105"/>
      <use x="511.332031" xlink:href="#DejaVuSans-101"/>
      <use x="572.855469" xlink:href="#DejaVuSans-110"/>
      <use x="636.234375" xlink:href="#DejaVuSans-116"/>
     </g>
    </g>
    <g id="patch_11">
     <path d="M 59.565625 57.194687 
L 79.565625 57.194687 
L 79.565625 50.194687 
L 59.565625 50.194687 
z
" style="fill:#1f77b4;"/>
    </g>
    <g id="text_19">
     <!-- Proficient -->
     <g transform="translate(87.565625 57.194687)scale(0.1 -0.1)">
      <use xlink:href="#DejaVuSans-80"/>
      <use x="58.552734" xlink:href="#DejaVuSans-114"/>
      <use x="97.416016" xlink:href="#DejaVuSans-111"/>
      <use x="158.597656" xlink:href="#DejaVuSans-102"/>
      <use x="193.802734" xlink:href="#DejaVuSans-105"/>
      <use x="221.585938" xlink:href="#DejaVuSans-99"/>
      <use x="276.566406" xlink:href="#DejaVuSans-105"/>
      <use x="304.349609" xlink:href="#DejaVuSans-101"/>
      <use x="365.873047" xlink:href="#DejaVuSans-110"/>
      <use x="429.251953" xlink:href="#DejaVuSans-116"/>
     </g>
    </g>
   </g>
  </g>
  <g id="axes_2">
   <g id="patch_12">
    <path d="M 406.754687 252.24375 
L 709.2 252.24375 
L 709.2 25.918125 
L 406.754687 25.918125 
z
" style="fill:#ffffff;"/>
   </g>
   <g id="patch_13">
    <path clip-path="url(#p3ef9aa9bc9)" d="M 420.502202 252.24375 
L 420.502202 252.24375 
L 433.595072 252.24375 
L 433.595072 252.24375 
L 446.687943 252.24375 
L 446.687943 252.24375 
L 459.780814 252.24375 
L 459.780814 247.39997 
L 472.873684 247.39997 
L 472.873684 228.02485 
L 485.966555 228.02485 
L 485.966555 208.649729 
L 499.059426 208.649729 
L 499.059426 203.805949 
L 512.152296 203.805949 
L 512.152296 174.743268 
L 525.245167 174.743268 
L 525.245167 189.274609 
L 538.338038 189.274609 
L 538.338038 143.258698 
L 551.430908 143.258698 
L 551.430908 116.617907 
L 564.523779 116.617907 
L 564.523779 92.399007 
L 577.61665 92.399007 
L 577.61665 36.695536 
L 590.70952 36.695536 
L 590.70952 116.617907 
L 603.802391 116.617907 
L 603.802391 167.477598 
L 616.895262 167.477598 
L 616.895262 220.759179 
L 629.988132 220.759179 
L 629.988132 249.82186 
L 643.081003 249.82186 
L 643.081003 252.24375 
L 656.173874 252.24375 
L 656.173874 252.24375 
L 669.266744 252.24375 
L 669.266744 252.24375 
L 682.359615 252.24375 
L 682.359615 252.24375 
L 695.452486 252.24375 
L 695.452486 252.24375 
L 682.359615 252.24375 
L 682.359615 252.24375 
L 669.266744 252.24375 
L 669.266744 252.24375 
L 656.173874 252.24375 
L 656.173874 252.24375 
L 643.081003 252.24375 
L 643.081003 252.24375 
L 629.988132 252.24375 
L 629.988132 252.24375 
L 616.895262 252.24375 
L 616.895262 252.24375 
L 603.802391 252.24375 
L 603.802391 252.24375 
L 590.70952 252.24375 
L 590.70952 252.24375 
L 577.61665 252.24375 
L 577.61665 240.1343 
L 564.523779 240.1343 
L 564.523779 223.181069 
L 551.430908 223.181069 
L 551.430908 167.477598 
L 538.338038 167.477598 
L 538.338038 196.540279 
L 525.245167 196.540279 
L 525.245167 177.165159 
L 512.152296 177.165159 
L 512.152296 203.805949 
L 499.059426 203.805949 
L 499.059426 208.649729 
L 485.966555 208.649729 
L 485.966555 228.02485 
L 472.873684 228.02485 
L 472.873684 247.39997 
L 459.780814 247.39997 
L 459.780814 252.24375 
L 446.687943 252.24375 
L 446.687943 252.24375 
L 433.595072 252.24375 
L 433.595072 252.24375 
z
" style="fill:#ff7f0e;"/>
   </g>
   <g id="patch_14">
    <path clip-path="url(#p3ef9aa9bc9)" d="M 420.502202 252.24375 
L 420.502202 252.24375 
L 433.595072 252.24375 
L 433.595072 252.24375 
L 446.687943 252.24375 
L 446.687943 252.24375 
L 459.780814 252.24375 
L 459.780814 247.39997 
L 472.873684 247.39997 
L 472.873684 228.02485 
L 485.966555 228.02485 
L 485.966555 208.649729 
L 499.059426 208.649729 
L 499.059426 203.805949 
L 512.152296 203.805949 
L 512.152296 177.165159 
L 525.245167 177.165159 
L 525.245167 196.540279 
L 538.338038 196.540279 
L 538.338038 167.477598 
L 551.430908 167.477598 
L 551.430908 223.181069 
L 564.523779 223.181069 
L 564.523779 240.1343 
L 577.61665 240.1343 
L 577.61665 252.24375 
L 590.70952 252.24375 
L 590.70952 252.24375 
L 603.802391 252.24375 
L 603.802391 252.24375 
L 616.895262 252.24375 
L 616.895262 252.24375 
L 629.988132 252.24375 
L 629.988132 252.24375 
L 643.081003 252.24375 
L 643.081003 252.24375 
L 656.173874 252.24375 
L 656.173874 252.24375 
L 669.266744 252.24375 
L 669.266744 252.24375 
L 682.359615 252.24375 
L 682.359615 252.24375 
L 695.452486 252.24375 
L 695.452486 252.24375 
L 682.359615 252.24375 
L 682.359615 252.24375 
L 669.266744 252.24375 
L 669.266744 252.24375 
L 656.173874 252.24375 
L 656.173874 252.24375 
L 643.081003 252.24375 
L 643.081003 252.24375 
L 629.988132 252.24375 
L 629.988132 252.24375 
L 616.895262 252.24375 
L 616.895262 252.24375 
L 603.802391 252.24375 
L 603.802391 252.24375 
L 590.70952 252.24375 
L 590.70952 252.24375 
L 577.61665 252.24375 
L 577.61665 252.24375 
L 564.523779 252.24375 
L 564.523779 252.24375 
L 551.430908 252.24375 
L 551.430908 252.24375 
L 538.338038 252.24375 
L 538.338038 252.24375 
L 525.245167 252.24375 
L 525.245167 252.24375 
L 512.152296 252.24375 
L 512.152296 252.24375 
L 499.059426 252.24375 
L 499.059426 252.24375 
L 485.966555 252.24375 
L 485.966555 252.24375 
L 472.873684 252.24375 
L 472.873684 252.24375 
L 459.780814 252.24375 
L 459.780814 252.24375 
L 446.687943 252.24375 
L 446.687943 252.24375 
L 433.595072 252.24375 
L 433.595072 252.24375 
z
" style="fill:#1f77b4;"/>
   </g>
   <g id="matplotlib.axis_3">
    <g id="xtick_7">
     <g id="line2d_15">
      <g>
       <use style="stroke:#000000;stroke-width:0.8;" x="427.048637" xlink:href="#m662415fb1f" y="252.24375"/>
      </g>
     </g>
     <g id="text_20">
      <!-- 0.0 -->
      <g transform="translate(419.097075 266.842187)scale(0.1 -0.1)">
       <use xlink:href="#DejaVuSans-48"/>
       <use x="63.623047" xlink:href="#DejaVuSans-46"/>
       <use x="95.410156" xlink:href="#DejaVuSans-48"/>
      </g>
     </g>
    </g>
    <g id="xtick_8">
     <g id="line2d_16">
      <g>
       <use style="stroke:#000000;stroke-width:0.8;" x="479.42012" xlink:href="#m662415fb1f" y="252.24375"/>
      </g>
     </g>
     <g id="text_21">
      <!-- 0.2 -->
      <g transform="translate(471.468557 266.842187)scale(0.1 -0.1)">
       <use xlink:href="#DejaVuSans-48"/>
       <use x="63.623047" xlink:href="#DejaVuSans-46"/>
       <use x="95.410156" xlink:href="#DejaVuSans-50"/>
      </g>
     </g>
    </g>
    <g id="xtick_9">
     <g id="line2d_17">
      <g>
       <use style="stroke:#000000;stroke-width:0.8;" x="531.791602" xlink:href="#m662415fb1f" y="252.24375"/>
      </g>
     </g>
     <g id="text_22">
      <!-- 0.4 -->
      <g transform="translate(523.84004 266.842187)scale(0.1 -0.1)">
       <use xlink:href="#DejaVuSans-48"/>
       <use x="63.623047" xlink:href="#DejaVuSans-46"/>
       <use x="95.410156" xlink:href="#DejaVuSans-52"/>
      </g>
     </g>
    </g>
    <g id="xtick_10">
     <g id="line2d_18">
      <g>
       <use style="stroke:#000000;stroke-width:0.8;" x="584.163085" xlink:href="#m662415fb1f" y="252.24375"/>
      </g>
     </g>
     <g id="text_23">
      <!-- 0.6 -->
      <g transform="translate(576.211523 266.842187)scale(0.1 -0.1)">
       <use xlink:href="#DejaVuSans-48"/>
       <use x="63.623047" xlink:href="#DejaVuSans-46"/>
       <use x="95.410156" xlink:href="#DejaVuSans-54"/>
      </g>
     </g>
    </g>
    <g id="xtick_11">
     <g id="line2d_19">
      <g>
       <use style="stroke:#000000;stroke-width:0.8;" x="636.534568" xlink:href="#m662415fb1f" y="252.24375"/>
      </g>
     </g>
     <g id="text_24">
      <!-- 0.8 -->
      <g transform="translate(628.583005 266.842187)scale(0.1 -0.1)">
       <use xlink:href="#DejaVuSans-48"/>
       <use x="63.623047" xlink:href="#DejaVuSans-46"/>
       <use x="95.410156" xlink:href="#DejaVuSans-56"/>
      </g>
     </g>
    </g>
    <g id="xtick_12">
     <g id="line2d_20">
      <g>
       <use style="stroke:#000000;stroke-width:0.8;" x="688.90605" xlink:href="#m662415fb1f" y="252.24375"/>
      </g>
     </g>
     <g id="text_25">
      <!-- 1.0 -->
      <g transform="translate(680.954488 266.842187)scale(0.1 -0.1)">
       <use xlink:href="#DejaVuSans-49"/>
       <use x="63.623047" xlink:href="#DejaVuSans-46"/>
       <use x="95.410156" xlink:href="#DejaVuSans-48"/>
      </g>
     </g>
    </g>
    <g id="text_26">
     <!-- Stun Probability -->
     <g transform="translate(518.4875 280.520312)scale(0.1 -0.1)">
      <use xlink:href="#DejaVuSans-83"/>
      <use x="63.476562" xlink:href="#DejaVuSans-116"/>
      <use x="102.685547" xlink:href="#DejaVuSans-117"/>
      <use x="166.064453" xlink:href="#DejaVuSans-110"/>
      <use x="229.443359" xlink:href="#DejaVuSans-32"/>
      <use x="261.230469" xlink:href="#DejaVuSans-80"/>
      <use x="319.783203" xlink:href="#DejaVuSans-114"/>
      <use x="358.646484" xlink:href="#DejaVuSans-111"/>
      <use x="419.828125" xlink:href="#DejaVuSans-98"/>
      <use x="483.304688" xlink:href="#DejaVuSans-97"/>
      <use x="544.583984" xlink:href="#DejaVuSans-98"/>
      <use x="608.060547" xlink:href="#DejaVuSans-105"/>
      <use x="635.84375" xlink:href="#DejaVuSans-108"/>
      <use x="663.626953" xlink:href="#DejaVuSans-105"/>
      <use x="691.410156" xlink:href="#DejaVuSans-116"/>
      <use x="730.619141" xlink:href="#DejaVuSans-121"/>
     </g>
    </g>
   </g>
   <g id="matplotlib.axis_4">
    <g id="ytick_9">
     <g id="line2d_21">
      <g>
       <use style="stroke:#000000;stroke-width:0.8;" x="406.754687" xlink:href="#m6390a926b0" y="252.24375"/>
      </g>
     </g>
     <g id="text_27">
      <!-- 0 -->
      <g transform="translate(393.392187 256.042969)scale(0.1 -0.1)">
       <use xlink:href="#DejaVuSans-48"/>
      </g>
     </g>
    </g>
    <g id="ytick_10">
     <g id="line2d_22">
      <g>
       <use style="stroke:#000000;stroke-width:0.8;" x="406.754687" xlink:href="#m6390a926b0" y="203.805949"/>
      </g>
     </g>
     <g id="text_28">
      <!-- 20 -->
      <g transform="translate(387.029687 207.605168)scale(0.1 -0.1)">
       <use xlink:href="#DejaVuSans-50"/>
       <use x="63.623047" xlink:href="#DejaVuSans-48"/>
      </g>
     </g>
    </g>
    <g id="ytick_11">
     <g id="line2d_23">
      <g>
       <use style="stroke:#000000;stroke-width:0.8;" x="406.754687" xlink:href="#m6390a926b0" y="155.368148"/>
      </g>
     </g>
     <g id="text_29">
      <!-- 40 -->
      <g transform="translate(387.029687 159.167367)scale(0.1 -0.1)">
       <use xlink:href="#DejaVuSans-52"/>
       <use x="63.623047" xlink:href="#DejaVuSans-48"/>
      </g>
     </g>
    </g>
    <g id="ytick_12">
     <g id="line2d_24">
      <g>
       <use style="stroke:#000000;stroke-width:0.8;" x="406.754687" xlink:href="#m6390a926b0" y="106.930347"/>
      </g>
     </g>
     <g id="text_30">
      <!-- 60 -->
      <g transform="translate(387.029687 110.729566)scale(0.1 -0.1)">
       <use xlink:href="#DejaVuSans-54"/>
       <use x="63.623047" xlink:href="#DejaVuSans-48"/>
      </g>
     </g>
    </g>
    <g id="ytick_13">
     <g id="line2d_25">
      <g>
       <use style="stroke:#000000;stroke-width:0.8;" x="406.754687" xlink:href="#m6390a926b0" y="58.492546"/>
      </g>
     </g>
     <g id="text_31">
      <!-- 80 -->
      <g transform="translate(387.029687 62.291765)scale(0.1 -0.1)">
       <use xlink:href="#DejaVuSans-56"/>
       <use x="63.623047" xlink:href="#DejaVuSans-48"/>
      </g>
     </g>
    </g>
    <g id="text_32">
     <!-- Count -->
     <g transform="translate(380.95 153.929375)rotate(-90)scale(0.1 -0.1)">
      <use xlink:href="#DejaVuSans-67"/>
      <use x="69.824219" xlink:href="#DejaVuSans-111"/>
      <use x="131.005859" xlink:href="#DejaVuSans-117"/>
      <use x="194.384766" xlink:href="#DejaVuSans-110"/>
      <use x="257.763672" xlink:href="#DejaVuSans-116"/>
     </g>
    </g>
   </g>
   <g id="patch_15">
    <path d="M 406.754687 252.24375 
L 406.754687 25.918125 
" style="fill:none;stroke:#000000;stroke-linecap:square;stroke-linejoin:miter;stroke-width:0.8;"/>
   </g>
   <g id="patch_16">
    <path d="M 709.2 252.24375 
L 709.2 25.918125 
" style="fill:none;stroke:#000000;stroke-linecap:square;stroke-linejoin:miter;stroke-width:0.8;"/>
   </g>
   <g id="patch_17">
    <path d="M 406.754687 252.24375 
L 709.2 252.24375 
" style="fill:none;stroke:#000000;stroke-linecap:square;stroke-linejoin:miter;stroke-width:0.8;"/>
   </g>
   <g id="patch_18">
    <path d="M 406.754687 25.918125 
L 709.2 25.918125 
" style="fill:none;stroke:#000000;stroke-linecap:square;stroke-linejoin:miter;stroke-width:0.8;"/>
   </g>
   <g id="text_33">
    <!-- Level 10, AB 8, DC 16, CR 5-15 -->
    <g transform="translate(464.974531 19.918125)scale(0.12 -0.12)">
     <use xlink:href="#DejaVuSans-76"/>
     <use x="53.962891" xlink:href="#DejaVuSans-101"/>
     <use x="115.486328" xlink:href="#DejaVuSans-118"/>
     <use x="174.666016" xlink:href="#DejaVuSans-101"/>
     <use x="236.189453" xlink:href="#DejaVuSans-108"/>
     <use x="263.972656" xlink:href="#DejaVuSans-32"/>
     <use x="295.759766" xlink:href="#DejaVuSans-49"/>
     <use x="359.382812" xlink:href="#DejaVuSans-48"/>
     <use x="423.005859" xlink:href="#DejaVuSans-44"/>
     <use x="454.792969" xlink:href="#DejaVuSans-32"/>
     <use x="486.580078" xlink:href="#DejaVuSans-65"/>
     <use x="554.988281" xlink:href="#DejaVuSans-66"/>
     <use x="623.591797" xlink:href="#DejaVuSans-32"/>
     <use x="655.378906" xlink:href="#DejaVuSans-56"/>
     <use x="719.001953" xlink:href="#DejaVuSans-44"/>
     <use x="750.789062" xlink:href="#DejaVuSans-32"/>
     <use x="782.576172" xlink:href="#DejaVuSans-68"/>
     <use x="859.578125" xlink:href="#DejaVuSans-67"/>
     <use x="929.402344" xlink:href="#DejaVuSans-32"/>
     <use x="961.189453" xlink:href="#DejaVuSans-49"/>
     <use x="1024.8125" xlink:href="#DejaVuSans-54"/>
     <use x="1088.435547" xlink:href="#DejaVuSans-44"/>
     <use x="1120.222656" xlink:href="#DejaVuSans-32"/>
     <use x="1152.009766" xlink:href="#DejaVuSans-67"/>
     <use x="1221.833984" xlink:href="#DejaVuSans-82"/>
     <use x="1291.316406" xlink:href="#DejaVuSans-32"/>
     <use x="1323.103516" xlink:href="#DejaVuSans-53"/>
     <use x="1386.726562" xlink:href="#DejaVuSans-45"/>
     <use x="1422.810547" xlink:href="#DejaVuSans-49"/>
     <use x="1486.433594" xlink:href="#DejaVuSans-53"/>
    </g>
   </g>
   <g id="legend_2">
    <g id="patch_19">
     <path d="M 413.754687 63.274375 
L 513.298437 63.274375 
Q 515.298437 63.274375 515.298437 61.274375 
L 515.298437 32.918125 
Q 515.298437 30.918125 513.298437 30.918125 
L 413.754687 30.918125 
Q 411.754687 30.918125 411.754687 32.918125 
L 411.754687 61.274375 
Q 411.754687 63.274375 413.754687 63.274375 
z
" style="fill:#ffffff;opacity:0.8;stroke:#cccccc;stroke-linejoin:miter;"/>
    </g>
    <g id="patch_20">
     <path d="M 415.754687 42.516562 
L 435.754687 42.516562 
L 435.754687 35.516562 
L 415.754687 35.516562 
z
" style="fill:#ff7f0e;"/>
    </g>
    <g id="text_34">
     <!-- Not Proficient -->
     <g transform="translate(443.754687 42.516562)scale(0.1 -0.1)">
      <use xlink:href="#DejaVuSans-78"/>
      <use x="74.804688" xlink:href="#DejaVuSans-111"/>
      <use x="135.986328" xlink:href="#DejaVuSans-116"/>
      <use x="175.195312" xlink:href="#DejaVuSans-32"/>
      <use x="206.982422" xlink:href="#DejaVuSans-80"/>
      <use x="265.535156" xlink:href="#DejaVuSans-114"/>
      <use x="304.398438" xlink:href="#DejaVuSans-111"/>
      <use x="365.580078" xlink:href="#DejaVuSans-102"/>
      <use x="400.785156" xlink:href="#DejaVuSans-105"/>
      <use x="428.568359" xlink:href="#DejaVuSans-99"/>
      <use x="483.548828" xlink:href="#DejaVuSans-105"/>
      <use x="511.332031" xlink:href="#DejaVuSans-101"/>
      <use x="572.855469" xlink:href="#DejaVuSans-110"/>
      <use x="636.234375" xlink:href="#DejaVuSans-116"/>
     </g>
    </g>
    <g id="patch_21">
     <path d="M 415.754687 57.194687 
L 435.754687 57.194687 
L 435.754687 50.194687 
L 415.754687 50.194687 
z
" style="fill:#1f77b4;"/>
    </g>
    <g id="text_35">
     <!-- Proficient -->
     <g transform="translate(443.754687 57.194687)scale(0.1 -0.1)">
      <use xlink:href="#DejaVuSans-80"/>
      <use x="58.552734" xlink:href="#DejaVuSans-114"/>
      <use x="97.416016" xlink:href="#DejaVuSans-111"/>
      <use x="158.597656" xlink:href="#DejaVuSans-102"/>
      <use x="193.802734" xlink:href="#DejaVuSans-105"/>
      <use x="221.585938" xlink:href="#DejaVuSans-99"/>
      <use x="276.566406" xlink:href="#DejaVuSans-105"/>
      <use x="304.349609" xlink:href="#DejaVuSans-101"/>
      <use x="365.873047" xlink:href="#DejaVuSans-110"/>
      <use x="429.251953" xlink:href="#DejaVuSans-116"/>
     </g>
    </g>
   </g>
  </g>
  <g id="axes_3">
   <g id="patch_22">
    <path d="M 50.565625 534.84375 
L 353.010937 534.84375 
L 353.010937 308.518125 
L 50.565625 308.518125 
z
" style="fill:#ffffff;"/>
   </g>
   <g id="patch_23">
    <path clip-path="url(#p9f99328c62)" d="M 64.313139 534.84375 
L 64.313139 534.84375 
L 77.40601 534.84375 
L 77.40601 518.877216 
L 90.498881 518.877216 
L 90.498881 502.910681 
L 103.591751 502.910681 
L 103.591751 455.011078 
L 116.684622 455.011078 
L 116.684622 478.96088 
L 129.777493 478.96088 
L 129.777493 399.128208 
L 142.870363 399.128208 
L 142.870363 335.26207 
L 155.963234 335.26207 
L 155.963234 351.228604 
L 169.056105 351.228604 
L 169.056105 327.278803 
L 182.148975 327.278803 
L 182.148975 383.161673 
L 195.241846 383.161673 
L 195.241846 383.161673 
L 208.334717 383.161673 
L 208.334717 335.26207 
L 221.427587 335.26207 
L 221.427587 335.26207 
L 234.520458 335.26207 
L 234.520458 319.295536 
L 247.613329 319.295536 
L 247.613329 462.994345 
L 260.706199 462.994345 
L 260.706199 447.027811 
L 273.79907 447.027811 
L 273.79907 526.860483 
L 286.891941 526.860483 
L 286.891941 526.860483 
L 299.984811 526.860483 
L 299.984811 534.84375 
L 313.077682 534.84375 
L 313.077682 534.84375 
L 326.170553 534.84375 
L 326.170553 534.84375 
L 339.263423 534.84375 
L 339.263423 534.84375 
L 326.170553 534.84375 
L 326.170553 534.84375 
L 313.077682 534.84375 
L 313.077682 534.84375 
L 299.984811 534.84375 
L 299.984811 534.84375 
L 286.891941 534.84375 
L 286.891941 534.84375 
L 273.79907 534.84375 
L 273.79907 534.84375 
L 260.706199 534.84375 
L 260.706199 534.84375 
L 247.613329 534.84375 
L 247.613329 534.84375 
L 234.520458 534.84375 
L 234.520458 534.84375 
L 221.427587 534.84375 
L 221.427587 534.84375 
L 208.334717 534.84375 
L 208.334717 439.044544 
L 195.241846 439.044544 
L 195.241846 423.078009 
L 182.148975 423.078009 
L 182.148975 343.245337 
L 169.056105 343.245337 
L 169.056105 351.228604 
L 155.963234 351.228604 
L 155.963234 335.26207 
L 142.870363 335.26207 
L 142.870363 399.128208 
L 129.777493 399.128208 
L 129.777493 478.96088 
L 116.684622 478.96088 
L 116.684622 455.011078 
L 103.591751 455.011078 
L 103.591751 502.910681 
L 90.498881 502.910681 
L 90.498881 518.877216 
L 77.40601 518.877216 
L 77.40601 534.84375 
z
" style="fill:#ff7f0e;"/>
   </g>
   <g id="patch_24">
    <path clip-path="url(#p9f99328c62)" d="M 64.313139 534.84375 
L 64.313139 534.84375 
L 77.40601 534.84375 
L 77.40601 518.877216 
L 90.498881 518.877216 
L 90.498881 502.910681 
L 103.591751 502.910681 
L 103.591751 455.011078 
L 116.684622 455.011078 
L 116.684622 478.96088 
L 129.777493 478.96088 
L 129.777493 399.128208 
L 142.870363 399.128208 
L 142.870363 335.26207 
L 155.963234 335.26207 
L 155.963234 351.228604 
L 169.056105 351.228604 
L 169.056105 343.245337 
L 182.148975 343.245337 
L 182.148975 423.078009 
L 195.241846 423.078009 
L 195.241846 439.044544 
L 208.334717 439.044544 
L 208.334717 534.84375 
L 221.427587 534.84375 
L 221.427587 534.84375 
L 234.520458 534.84375 
L 234.520458 534.84375 
L 247.613329 534.84375 
L 247.613329 534.84375 
L 260.706199 534.84375 
L 260.706199 534.84375 
L 273.79907 534.84375 
L 273.79907 534.84375 
L 286.891941 534.84375 
L 286.891941 534.84375 
L 299.984811 534.84375 
L 299.984811 534.84375 
L 313.077682 534.84375 
L 313.077682 534.84375 
L 326.170553 534.84375 
L 326.170553 534.84375 
L 339.263423 534.84375 
L 339.263423 534.84375 
L 326.170553 534.84375 
L 326.170553 534.84375 
L 313.077682 534.84375 
L 313.077682 534.84375 
L 299.984811 534.84375 
L 299.984811 534.84375 
L 286.891941 534.84375 
L 286.891941 534.84375 
L 273.79907 534.84375 
L 273.79907 534.84375 
L 260.706199 534.84375 
L 260.706199 534.84375 
L 247.613329 534.84375 
L 247.613329 534.84375 
L 234.520458 534.84375 
L 234.520458 534.84375 
L 221.427587 534.84375 
L 221.427587 534.84375 
L 208.334717 534.84375 
L 208.334717 534.84375 
L 195.241846 534.84375 
L 195.241846 534.84375 
L 182.148975 534.84375 
L 182.148975 534.84375 
L 169.056105 534.84375 
L 169.056105 534.84375 
L 155.963234 534.84375 
L 155.963234 534.84375 
L 142.870363 534.84375 
L 142.870363 534.84375 
L 129.777493 534.84375 
L 129.777493 534.84375 
L 116.684622 534.84375 
L 116.684622 534.84375 
L 103.591751 534.84375 
L 103.591751 534.84375 
L 90.498881 534.84375 
L 90.498881 534.84375 
L 77.40601 534.84375 
L 77.40601 534.84375 
z
" style="fill:#1f77b4;"/>
   </g>
   <g id="matplotlib.axis_5">
    <g id="xtick_13">
     <g id="line2d_26">
      <g>
       <use style="stroke:#000000;stroke-width:0.8;" x="70.859575" xlink:href="#m662415fb1f" y="534.84375"/>
      </g>
     </g>
     <g id="text_36">
      <!-- 0.0 -->
      <g transform="translate(62.908012 549.442187)scale(0.1 -0.1)">
       <use xlink:href="#DejaVuSans-48"/>
       <use x="63.623047" xlink:href="#DejaVuSans-46"/>
       <use x="95.410156" xlink:href="#DejaVuSans-48"/>
      </g>
     </g>
    </g>
    <g id="xtick_14">
     <g id="line2d_27">
      <g>
       <use style="stroke:#000000;stroke-width:0.8;" x="123.231057" xlink:href="#m662415fb1f" y="534.84375"/>
      </g>
     </g>
     <g id="text_37">
      <!-- 0.2 -->
      <g transform="translate(115.279495 549.442187)scale(0.1 -0.1)">
       <use xlink:href="#DejaVuSans-48"/>
       <use x="63.623047" xlink:href="#DejaVuSans-46"/>
       <use x="95.410156" xlink:href="#DejaVuSans-50"/>
      </g>
     </g>
    </g>
    <g id="xtick_15">
     <g id="line2d_28">
      <g>
       <use style="stroke:#000000;stroke-width:0.8;" x="175.60254" xlink:href="#m662415fb1f" y="534.84375"/>
      </g>
     </g>
     <g id="text_38">
      <!-- 0.4 -->
      <g transform="translate(167.650977 549.442187)scale(0.1 -0.1)">
       <use xlink:href="#DejaVuSans-48"/>
       <use x="63.623047" xlink:href="#DejaVuSans-46"/>
       <use x="95.410156" xlink:href="#DejaVuSans-52"/>
      </g>
     </g>
    </g>
    <g id="xtick_16">
     <g id="line2d_29">
      <g>
       <use style="stroke:#000000;stroke-width:0.8;" x="227.974023" xlink:href="#m662415fb1f" y="534.84375"/>
      </g>
     </g>
     <g id="text_39">
      <!-- 0.6 -->
      <g transform="translate(220.02246 549.442187)scale(0.1 -0.1)">
       <use xlink:href="#DejaVuSans-48"/>
       <use x="63.623047" xlink:href="#DejaVuSans-46"/>
       <use x="95.410156" xlink:href="#DejaVuSans-54"/>
      </g>
     </g>
    </g>
    <g id="xtick_17">
     <g id="line2d_30">
      <g>
       <use style="stroke:#000000;stroke-width:0.8;" x="280.345505" xlink:href="#m662415fb1f" y="534.84375"/>
      </g>
     </g>
     <g id="text_40">
      <!-- 0.8 -->
      <g transform="translate(272.393943 549.442187)scale(0.1 -0.1)">
       <use xlink:href="#DejaVuSans-48"/>
       <use x="63.623047" xlink:href="#DejaVuSans-46"/>
       <use x="95.410156" xlink:href="#DejaVuSans-56"/>
      </g>
     </g>
    </g>
    <g id="xtick_18">
     <g id="line2d_31">
      <g>
       <use style="stroke:#000000;stroke-width:0.8;" x="332.716988" xlink:href="#m662415fb1f" y="534.84375"/>
      </g>
     </g>
     <g id="text_41">
      <!-- 1.0 -->
      <g transform="translate(324.765425 549.442187)scale(0.1 -0.1)">
       <use xlink:href="#DejaVuSans-49"/>
       <use x="63.623047" xlink:href="#DejaVuSans-46"/>
       <use x="95.410156" xlink:href="#DejaVuSans-48"/>
      </g>
     </g>
    </g>
    <g id="text_42">
     <!-- Stun Probability -->
     <g transform="translate(162.298437 563.120312)scale(0.1 -0.1)">
      <use xlink:href="#DejaVuSans-83"/>
      <use x="63.476562" xlink:href="#DejaVuSans-116"/>
      <use x="102.685547" xlink:href="#DejaVuSans-117"/>
      <use x="166.064453" xlink:href="#DejaVuSans-110"/>
      <use x="229.443359" xlink:href="#DejaVuSans-32"/>
      <use x="261.230469" xlink:href="#DejaVuSans-80"/>
      <use x="319.783203" xlink:href="#DejaVuSans-114"/>
      <use x="358.646484" xlink:href="#DejaVuSans-111"/>
      <use x="419.828125" xlink:href="#DejaVuSans-98"/>
      <use x="483.304688" xlink:href="#DejaVuSans-97"/>
      <use x="544.583984" xlink:href="#DejaVuSans-98"/>
      <use x="608.060547" xlink:href="#DejaVuSans-105"/>
      <use x="635.84375" xlink:href="#DejaVuSans-108"/>
      <use x="663.626953" xlink:href="#DejaVuSans-105"/>
      <use x="691.410156" xlink:href="#DejaVuSans-116"/>
      <use x="730.619141" xlink:href="#DejaVuSans-121"/>
     </g>
    </g>
   </g>
   <g id="matplotlib.axis_6">
    <g id="ytick_14">
     <g id="line2d_32">
      <g>
       <use style="stroke:#000000;stroke-width:0.8;" x="50.565625" xlink:href="#m6390a926b0" y="534.84375"/>
      </g>
     </g>
     <g id="text_43">
      <!-- 0 -->
      <g transform="translate(37.203125 538.642969)scale(0.1 -0.1)">
       <use xlink:href="#DejaVuSans-48"/>
      </g>
     </g>
    </g>
    <g id="ytick_15">
     <g id="line2d_33">
      <g>
       <use style="stroke:#000000;stroke-width:0.8;" x="50.565625" xlink:href="#m6390a926b0" y="494.927414"/>
      </g>
     </g>
     <g id="text_44">
      <!-- 5 -->
      <g transform="translate(37.203125 498.726633)scale(0.1 -0.1)">
       <use xlink:href="#DejaVuSans-53"/>
      </g>
     </g>
    </g>
    <g id="ytick_16">
     <g id="line2d_34">
      <g>
       <use style="stroke:#000000;stroke-width:0.8;" x="50.565625" xlink:href="#m6390a926b0" y="455.011078"/>
      </g>
     </g>
     <g id="text_45">
      <!-- 10 -->
      <g transform="translate(30.840625 458.810297)scale(0.1 -0.1)">
       <use xlink:href="#DejaVuSans-49"/>
       <use x="63.623047" xlink:href="#DejaVuSans-48"/>
      </g>
     </g>
    </g>
    <g id="ytick_17">
     <g id="line2d_35">
      <g>
       <use style="stroke:#000000;stroke-width:0.8;" x="50.565625" xlink:href="#m6390a926b0" y="415.094742"/>
      </g>
     </g>
     <g id="text_46">
      <!-- 15 -->
      <g transform="translate(30.840625 418.893961)scale(0.1 -0.1)">
       <use xlink:href="#DejaVuSans-49"/>
       <use x="63.623047" xlink:href="#DejaVuSans-53"/>
      </g>
     </g>
    </g>
    <g id="ytick_18">
     <g id="line2d_36">
      <g>
       <use style="stroke:#000000;stroke-width:0.8;" x="50.565625" xlink:href="#m6390a926b0" y="375.178406"/>
      </g>
     </g>
     <g id="text_47">
      <!-- 20 -->
      <g transform="translate(30.840625 378.977625)scale(0.1 -0.1)">
       <use xlink:href="#DejaVuSans-50"/>
       <use x="63.623047" xlink:href="#DejaVuSans-48"/>
      </g>
     </g>
    </g>
    <g id="ytick_19">
     <g id="line2d_37">
      <g>
       <use style="stroke:#000000;stroke-width:0.8;" x="50.565625" xlink:href="#m6390a926b0" y="335.26207"/>
      </g>
     </g>
     <g id="text_48">
      <!-- 25 -->
      <g transform="translate(30.840625 339.061289)scale(0.1 -0.1)">
       <use xlink:href="#DejaVuSans-50"/>
       <use x="63.623047" xlink:href="#DejaVuSans-53"/>
      </g>
     </g>
    </g>
    <g id="text_49">
     <!-- Count -->
     <g transform="translate(24.760937 436.529375)rotate(-90)scale(0.1 -0.1)">
      <use xlink:href="#DejaVuSans-67"/>
      <use x="69.824219" xlink:href="#DejaVuSans-111"/>
      <use x="131.005859" xlink:href="#DejaVuSans-117"/>
      <use x="194.384766" xlink:href="#DejaVuSans-110"/>
      <use x="257.763672" xlink:href="#DejaVuSans-116"/>
     </g>
    </g>
   </g>
   <g id="patch_25">
    <path d="M 50.565625 534.84375 
L 50.565625 308.518125 
" style="fill:none;stroke:#000000;stroke-linecap:square;stroke-linejoin:miter;stroke-width:0.8;"/>
   </g>
   <g id="patch_26">
    <path d="M 353.010937 534.84375 
L 353.010937 308.518125 
" style="fill:none;stroke:#000000;stroke-linecap:square;stroke-linejoin:miter;stroke-width:0.8;"/>
   </g>
   <g id="patch_27">
    <path d="M 50.565625 534.84375 
L 353.010937 534.84375 
" style="fill:none;stroke:#000000;stroke-linecap:square;stroke-linejoin:miter;stroke-width:0.8;"/>
   </g>
   <g id="patch_28">
    <path d="M 50.565625 308.518125 
L 353.010937 308.518125 
" style="fill:none;stroke:#000000;stroke-linecap:square;stroke-linejoin:miter;stroke-width:0.8;"/>
   </g>
   <g id="text_50">
    <!-- Level 15, AB 10, DC 17, CR 9-21 -->
    <g transform="translate(104.967969 302.518125)scale(0.12 -0.12)">
     <use xlink:href="#DejaVuSans-76"/>
     <use x="53.962891" xlink:href="#DejaVuSans-101"/>
     <use x="115.486328" xlink:href="#DejaVuSans-118"/>
     <use x="174.666016" xlink:href="#DejaVuSans-101"/>
     <use x="236.189453" xlink:href="#DejaVuSans-108"/>
     <use x="263.972656" xlink:href="#DejaVuSans-32"/>
     <use x="295.759766" xlink:href="#DejaVuSans-49"/>
     <use x="359.382812" xlink:href="#DejaVuSans-53"/>
     <use x="423.005859" xlink:href="#DejaVuSans-44"/>
     <use x="454.792969" xlink:href="#DejaVuSans-32"/>
     <use x="486.580078" xlink:href="#DejaVuSans-65"/>
     <use x="554.988281" xlink:href="#DejaVuSans-66"/>
     <use x="623.591797" xlink:href="#DejaVuSans-32"/>
     <use x="655.378906" xlink:href="#DejaVuSans-49"/>
     <use x="719.001953" xlink:href="#DejaVuSans-48"/>
     <use x="782.625" xlink:href="#DejaVuSans-44"/>
     <use x="814.412109" xlink:href="#DejaVuSans-32"/>
     <use x="846.199219" xlink:href="#DejaVuSans-68"/>
     <use x="923.201172" xlink:href="#DejaVuSans-67"/>
     <use x="993.025391" xlink:href="#DejaVuSans-32"/>
     <use x="1024.8125" xlink:href="#DejaVuSans-49"/>
     <use x="1088.435547" xlink:href="#DejaVuSans-55"/>
     <use x="1152.058594" xlink:href="#DejaVuSans-44"/>
     <use x="1183.845703" xlink:href="#DejaVuSans-32"/>
     <use x="1215.632812" xlink:href="#DejaVuSans-67"/>
     <use x="1285.457031" xlink:href="#DejaVuSans-82"/>
     <use x="1354.939453" xlink:href="#DejaVuSans-32"/>
     <use x="1386.726562" xlink:href="#DejaVuSans-57"/>
     <use x="1450.349609" xlink:href="#DejaVuSans-45"/>
     <use x="1486.433594" xlink:href="#DejaVuSans-50"/>
     <use x="1550.056641" xlink:href="#DejaVuSans-49"/>
    </g>
   </g>
   <g id="legend_3">
    <g id="patch_29">
     <path d="M 57.565625 345.874375 
L 157.109375 345.874375 
Q 159.109375 345.874375 159.109375 343.874375 
L 159.109375 315.518125 
Q 159.109375 313.518125 157.109375 313.518125 
L 57.565625 313.518125 
Q 55.565625 313.518125 55.565625 315.518125 
L 55.565625 343.874375 
Q 55.565625 345.874375 57.565625 345.874375 
z
" style="fill:#ffffff;opacity:0.8;stroke:#cccccc;stroke-linejoin:miter;"/>
    </g>
    <g id="patch_30">
     <path d="M 59.565625 325.116562 
L 79.565625 325.116562 
L 79.565625 318.116562 
L 59.565625 318.116562 
z
" style="fill:#ff7f0e;"/>
    </g>
    <g id="text_51">
     <!-- Not Proficient -->
     <g transform="translate(87.565625 325.116562)scale(0.1 -0.1)">
      <use xlink:href="#DejaVuSans-78"/>
      <use x="74.804688" xlink:href="#DejaVuSans-111"/>
      <use x="135.986328" xlink:href="#DejaVuSans-116"/>
      <use x="175.195312" xlink:href="#DejaVuSans-32"/>
      <use x="206.982422" xlink:href="#DejaVuSans-80"/>
      <use x="265.535156" xlink:href="#DejaVuSans-114"/>
      <use x="304.398438" xlink:href="#DejaVuSans-111"/>
      <use x="365.580078" xlink:href="#DejaVuSans-102"/>
      <use x="400.785156" xlink:href="#DejaVuSans-105"/>
      <use x="428.568359" xlink:href="#DejaVuSans-99"/>
      <use x="483.548828" xlink:href="#DejaVuSans-105"/>
      <use x="511.332031" xlink:href="#DejaVuSans-101"/>
      <use x="572.855469" xlink:href="#DejaVuSans-110"/>
      <use x="636.234375" xlink:href="#DejaVuSans-116"/>
     </g>
    </g>
    <g id="patch_31">
     <path d="M 59.565625 339.794688 
L 79.565625 339.794688 
L 79.565625 332.794688 
L 59.565625 332.794688 
z
" style="fill:#1f77b4;"/>
    </g>
    <g id="text_52">
     <!-- Proficient -->
     <g transform="translate(87.565625 339.794688)scale(0.1 -0.1)">
      <use xlink:href="#DejaVuSans-80"/>
      <use x="58.552734" xlink:href="#DejaVuSans-114"/>
      <use x="97.416016" xlink:href="#DejaVuSans-111"/>
      <use x="158.597656" xlink:href="#DejaVuSans-102"/>
      <use x="193.802734" xlink:href="#DejaVuSans-105"/>
      <use x="221.585938" xlink:href="#DejaVuSans-99"/>
      <use x="276.566406" xlink:href="#DejaVuSans-105"/>
      <use x="304.349609" xlink:href="#DejaVuSans-101"/>
      <use x="365.873047" xlink:href="#DejaVuSans-110"/>
      <use x="429.251953" xlink:href="#DejaVuSans-116"/>
     </g>
    </g>
   </g>
  </g>
  <g id="axes_4">
   <g id="patch_32">
    <path d="M 406.754687 534.84375 
L 709.2 534.84375 
L 709.2 308.518125 
L 406.754687 308.518125 
z
" style="fill:#ffffff;"/>
   </g>
   <g id="patch_33">
    <path clip-path="url(#pe16b2bc2b4)" d="M 420.502202 534.84375 
L 420.502202 534.84375 
L 433.595072 534.84375 
L 433.595072 513.288929 
L 446.687943 513.288929 
L 446.687943 459.401875 
L 459.780814 459.401875 
L 459.780814 405.514821 
L 472.873684 405.514821 
L 472.873684 437.847054 
L 485.966555 437.847054 
L 485.966555 405.514821 
L 499.059426 405.514821 
L 499.059426 416.292232 
L 512.152296 416.292232 
L 512.152296 340.850357 
L 525.245167 340.850357 
L 525.245167 319.295536 
L 538.338038 319.295536 
L 538.338038 405.514821 
L 551.430908 405.514821 
L 551.430908 427.069643 
L 564.523779 427.069643 
L 564.523779 437.847054 
L 577.61665 437.847054 
L 577.61665 502.511518 
L 590.70952 502.511518 
L 590.70952 373.182589 
L 603.802391 373.182589 
L 603.802391 362.405179 
L 616.895262 362.405179 
L 616.895262 502.511518 
L 629.988132 502.511518 
L 629.988132 502.511518 
L 643.081003 502.511518 
L 643.081003 491.734107 
L 656.173874 491.734107 
L 656.173874 534.84375 
L 669.266744 534.84375 
L 669.266744 534.84375 
L 682.359615 534.84375 
L 682.359615 534.84375 
L 695.452486 534.84375 
L 695.452486 534.84375 
L 682.359615 534.84375 
L 682.359615 534.84375 
L 669.266744 534.84375 
L 669.266744 534.84375 
L 656.173874 534.84375 
L 656.173874 534.84375 
L 643.081003 534.84375 
L 643.081003 534.84375 
L 629.988132 534.84375 
L 629.988132 534.84375 
L 616.895262 534.84375 
L 616.895262 534.84375 
L 603.802391 534.84375 
L 603.802391 534.84375 
L 590.70952 534.84375 
L 590.70952 534.84375 
L 577.61665 534.84375 
L 577.61665 470.179286 
L 564.523779 470.179286 
L 564.523779 448.624464 
L 551.430908 448.624464 
L 551.430908 427.069643 
L 538.338038 427.069643 
L 538.338038 330.072946 
L 525.245167 330.072946 
L 525.245167 340.850357 
L 512.152296 340.850357 
L 512.152296 416.292232 
L 499.059426 416.292232 
L 499.059426 405.514821 
L 485.966555 405.514821 
L 485.966555 437.847054 
L 472.873684 437.847054 
L 472.873684 405.514821 
L 459.780814 405.514821 
L 459.780814 459.401875 
L 446.687943 459.401875 
L 446.687943 513.288929 
L 433.595072 513.288929 
L 433.595072 534.84375 
z
" style="fill:#ff7f0e;"/>
   </g>
   <g id="patch_34">
    <path clip-path="url(#pe16b2bc2b4)" d="M 420.502202 534.84375 
L 420.502202 534.84375 
L 433.595072 534.84375 
L 433.595072 513.288929 
L 446.687943 513.288929 
L 446.687943 459.401875 
L 459.780814 459.401875 
L 459.780814 405.514821 
L 472.873684 405.514821 
L 472.873684 437.847054 
L 485.966555 437.847054 
L 485.966555 405.514821 
L 499.059426 405.514821 
L 499.059426 416.292232 
L 512.152296 416.292232 
L 512.152296 340.850357 
L 525.245167 340.850357 
L 525.245167 330.072946 
L 538.338038 330.072946 
L 538.338038 427.069643 
L 551.430908 427.069643 
L 551.430908 448.624464 
L 564.523779 448.624464 
L 564.523779 470.179286 
L 577.61665 470.179286 
L 577.61665 534.84375 
L 590.70952 534.84375 
L 590.70952 534.84375 
L 603.802391 534.84375 
L 603.802391 534.84375 
L 616.895262 534.84375 
L 616.895262 534.84375 
L 629.988132 534.84375 
L 629.988132 534.84375 
L 643.081003 534.84375 
L 643.081003 534.84375 
L 656.173874 534.84375 
L 656.173874 534.84375 
L 669.266744 534.84375 
L 669.266744 534.84375 
L 682.359615 534.84375 
L 682.359615 534.84375 
L 695.452486 534.84375 
L 695.452486 534.84375 
L 682.359615 534.84375 
L 682.359615 534.84375 
L 669.266744 534.84375 
L 669.266744 534.84375 
L 656.173874 534.84375 
L 656.173874 534.84375 
L 643.081003 534.84375 
L 643.081003 534.84375 
L 629.988132 534.84375 
L 629.988132 534.84375 
L 616.895262 534.84375 
L 616.895262 534.84375 
L 603.802391 534.84375 
L 603.802391 534.84375 
L 590.70952 534.84375 
L 590.70952 534.84375 
L 577.61665 534.84375 
L 577.61665 534.84375 
L 564.523779 534.84375 
L 564.523779 534.84375 
L 551.430908 534.84375 
L 551.430908 534.84375 
L 538.338038 534.84375 
L 538.338038 534.84375 
L 525.245167 534.84375 
L 525.245167 534.84375 
L 512.152296 534.84375 
L 512.152296 534.84375 
L 499.059426 534.84375 
L 499.059426 534.84375 
L 485.966555 534.84375 
L 485.966555 534.84375 
L 472.873684 534.84375 
L 472.873684 534.84375 
L 459.780814 534.84375 
L 459.780814 534.84375 
L 446.687943 534.84375 
L 446.687943 534.84375 
L 433.595072 534.84375 
L 433.595072 534.84375 
z
" style="fill:#1f77b4;"/>
   </g>
   <g id="matplotlib.axis_7">
    <g id="xtick_19">
     <g id="line2d_38">
      <g>
       <use style="stroke:#000000;stroke-width:0.8;" x="427.048637" xlink:href="#m662415fb1f" y="534.84375"/>
      </g>
     </g>
     <g id="text_53">
      <!-- 0.0 -->
      <g transform="translate(419.097075 549.442187)scale(0.1 -0.1)">
       <use xlink:href="#DejaVuSans-48"/>
       <use x="63.623047" xlink:href="#DejaVuSans-46"/>
       <use x="95.410156" xlink:href="#DejaVuSans-48"/>
      </g>
     </g>
    </g>
    <g id="xtick_20">
     <g id="line2d_39">
      <g>
       <use style="stroke:#000000;stroke-width:0.8;" x="479.42012" xlink:href="#m662415fb1f" y="534.84375"/>
      </g>
     </g>
     <g id="text_54">
      <!-- 0.2 -->
      <g transform="translate(471.468557 549.442187)scale(0.1 -0.1)">
       <use xlink:href="#DejaVuSans-48"/>
       <use x="63.623047" xlink:href="#DejaVuSans-46"/>
       <use x="95.410156" xlink:href="#DejaVuSans-50"/>
      </g>
     </g>
    </g>
    <g id="xtick_21">
     <g id="line2d_40">
      <g>
       <use style="stroke:#000000;stroke-width:0.8;" x="531.791602" xlink:href="#m662415fb1f" y="534.84375"/>
      </g>
     </g>
     <g id="text_55">
      <!-- 0.4 -->
      <g transform="translate(523.84004 549.442187)scale(0.1 -0.1)">
       <use xlink:href="#DejaVuSans-48"/>
       <use x="63.623047" xlink:href="#DejaVuSans-46"/>
       <use x="95.410156" xlink:href="#DejaVuSans-52"/>
      </g>
     </g>
    </g>
    <g id="xtick_22">
     <g id="line2d_41">
      <g>
       <use style="stroke:#000000;stroke-width:0.8;" x="584.163085" xlink:href="#m662415fb1f" y="534.84375"/>
      </g>
     </g>
     <g id="text_56">
      <!-- 0.6 -->
      <g transform="translate(576.211523 549.442187)scale(0.1 -0.1)">
       <use xlink:href="#DejaVuSans-48"/>
       <use x="63.623047" xlink:href="#DejaVuSans-46"/>
       <use x="95.410156" xlink:href="#DejaVuSans-54"/>
      </g>
     </g>
    </g>
    <g id="xtick_23">
     <g id="line2d_42">
      <g>
       <use style="stroke:#000000;stroke-width:0.8;" x="636.534568" xlink:href="#m662415fb1f" y="534.84375"/>
      </g>
     </g>
     <g id="text_57">
      <!-- 0.8 -->
      <g transform="translate(628.583005 549.442187)scale(0.1 -0.1)">
       <use xlink:href="#DejaVuSans-48"/>
       <use x="63.623047" xlink:href="#DejaVuSans-46"/>
       <use x="95.410156" xlink:href="#DejaVuSans-56"/>
      </g>
     </g>
    </g>
    <g id="xtick_24">
     <g id="line2d_43">
      <g>
       <use style="stroke:#000000;stroke-width:0.8;" x="688.90605" xlink:href="#m662415fb1f" y="534.84375"/>
      </g>
     </g>
     <g id="text_58">
      <!-- 1.0 -->
      <g transform="translate(680.954488 549.442187)scale(0.1 -0.1)">
       <use xlink:href="#DejaVuSans-49"/>
       <use x="63.623047" xlink:href="#DejaVuSans-46"/>
       <use x="95.410156" xlink:href="#DejaVuSans-48"/>
      </g>
     </g>
    </g>
    <g id="text_59">
     <!-- Stun Probability -->
     <g transform="translate(518.4875 563.120312)scale(0.1 -0.1)">
      <use xlink:href="#DejaVuSans-83"/>
      <use x="63.476562" xlink:href="#DejaVuSans-116"/>
      <use x="102.685547" xlink:href="#DejaVuSans-117"/>
      <use x="166.064453" xlink:href="#DejaVuSans-110"/>
      <use x="229.443359" xlink:href="#DejaVuSans-32"/>
      <use x="261.230469" xlink:href="#DejaVuSans-80"/>
      <use x="319.783203" xlink:href="#DejaVuSans-114"/>
      <use x="358.646484" xlink:href="#DejaVuSans-111"/>
      <use x="419.828125" xlink:href="#DejaVuSans-98"/>
      <use x="483.304688" xlink:href="#DejaVuSans-97"/>
      <use x="544.583984" xlink:href="#DejaVuSans-98"/>
      <use x="608.060547" xlink:href="#DejaVuSans-105"/>
      <use x="635.84375" xlink:href="#DejaVuSans-108"/>
      <use x="663.626953" xlink:href="#DejaVuSans-105"/>
      <use x="691.410156" xlink:href="#DejaVuSans-116"/>
      <use x="730.619141" xlink:href="#DejaVuSans-121"/>
     </g>
    </g>
   </g>
   <g id="matplotlib.axis_8">
    <g id="ytick_20">
     <g id="line2d_44">
      <g>
       <use style="stroke:#000000;stroke-width:0.8;" x="406.754687" xlink:href="#m6390a926b0" y="534.84375"/>
      </g>
     </g>
     <g id="text_60">
      <!-- 0.0 -->
      <g transform="translate(383.851562 538.642969)scale(0.1 -0.1)">
       <use xlink:href="#DejaVuSans-48"/>
       <use x="63.623047" xlink:href="#DejaVuSans-46"/>
       <use x="95.410156" xlink:href="#DejaVuSans-48"/>
      </g>
     </g>
    </g>
    <g id="ytick_21">
     <g id="line2d_45">
      <g>
       <use style="stroke:#000000;stroke-width:0.8;" x="406.754687" xlink:href="#m6390a926b0" y="507.900223"/>
      </g>
     </g>
     <g id="text_61">
      <!-- 2.5 -->
      <g transform="translate(383.851562 511.699442)scale(0.1 -0.1)">
       <use xlink:href="#DejaVuSans-50"/>
       <use x="63.623047" xlink:href="#DejaVuSans-46"/>
       <use x="95.410156" xlink:href="#DejaVuSans-53"/>
      </g>
     </g>
    </g>
    <g id="ytick_22">
     <g id="line2d_46">
      <g>
       <use style="stroke:#000000;stroke-width:0.8;" x="406.754687" xlink:href="#m6390a926b0" y="480.956696"/>
      </g>
     </g>
     <g id="text_62">
      <!-- 5.0 -->
      <g transform="translate(383.851562 484.755915)scale(0.1 -0.1)">
       <use xlink:href="#DejaVuSans-53"/>
       <use x="63.623047" xlink:href="#DejaVuSans-46"/>
       <use x="95.410156" xlink:href="#DejaVuSans-48"/>
      </g>
     </g>
    </g>
    <g id="ytick_23">
     <g id="line2d_47">
      <g>
       <use style="stroke:#000000;stroke-width:0.8;" x="406.754687" xlink:href="#m6390a926b0" y="454.01317"/>
      </g>
     </g>
     <g id="text_63">
      <!-- 7.5 -->
      <g transform="translate(383.851562 457.812388)scale(0.1 -0.1)">
       <use xlink:href="#DejaVuSans-55"/>
       <use x="63.623047" xlink:href="#DejaVuSans-46"/>
       <use x="95.410156" xlink:href="#DejaVuSans-53"/>
      </g>
     </g>
    </g>
    <g id="ytick_24">
     <g id="line2d_48">
      <g>
       <use style="stroke:#000000;stroke-width:0.8;" x="406.754687" xlink:href="#m6390a926b0" y="427.069643"/>
      </g>
     </g>
     <g id="text_64">
      <!-- 10.0 -->
      <g transform="translate(377.489062 430.868862)scale(0.1 -0.1)">
       <use xlink:href="#DejaVuSans-49"/>
       <use x="63.623047" xlink:href="#DejaVuSans-48"/>
       <use x="127.246094" xlink:href="#DejaVuSans-46"/>
       <use x="159.033203" xlink:href="#DejaVuSans-48"/>
      </g>
     </g>
    </g>
    <g id="ytick_25">
     <g id="line2d_49">
      <g>
       <use style="stroke:#000000;stroke-width:0.8;" x="406.754687" xlink:href="#m6390a926b0" y="400.126116"/>
      </g>
     </g>
     <g id="text_65">
      <!-- 12.5 -->
      <g transform="translate(377.489062 403.925335)scale(0.1 -0.1)">
       <use xlink:href="#DejaVuSans-49"/>
       <use x="63.623047" xlink:href="#DejaVuSans-50"/>
       <use x="127.246094" xlink:href="#DejaVuSans-46"/>
       <use x="159.033203" xlink:href="#DejaVuSans-53"/>
      </g>
     </g>
    </g>
    <g id="ytick_26">
     <g id="line2d_50">
      <g>
       <use style="stroke:#000000;stroke-width:0.8;" x="406.754687" xlink:href="#m6390a926b0" y="373.182589"/>
      </g>
     </g>
     <g id="text_66">
      <!-- 15.0 -->
      <g transform="translate(377.489062 376.981808)scale(0.1 -0.1)">
       <use xlink:href="#DejaVuSans-49"/>
       <use x="63.623047" xlink:href="#DejaVuSans-53"/>
       <use x="127.246094" xlink:href="#DejaVuSans-46"/>
       <use x="159.033203" xlink:href="#DejaVuSans-48"/>
      </g>
     </g>
    </g>
    <g id="ytick_27">
     <g id="line2d_51">
      <g>
       <use style="stroke:#000000;stroke-width:0.8;" x="406.754687" xlink:href="#m6390a926b0" y="346.239063"/>
      </g>
     </g>
     <g id="text_67">
      <!-- 17.5 -->
      <g transform="translate(377.489062 350.038281)scale(0.1 -0.1)">
       <use xlink:href="#DejaVuSans-49"/>
       <use x="63.623047" xlink:href="#DejaVuSans-55"/>
       <use x="127.246094" xlink:href="#DejaVuSans-46"/>
       <use x="159.033203" xlink:href="#DejaVuSans-53"/>
      </g>
     </g>
    </g>
    <g id="ytick_28">
     <g id="line2d_52">
      <g>
       <use style="stroke:#000000;stroke-width:0.8;" x="406.754687" xlink:href="#m6390a926b0" y="319.295536"/>
      </g>
     </g>
     <g id="text_68">
      <!-- 20.0 -->
      <g transform="translate(377.489062 323.094754)scale(0.1 -0.1)">
       <use xlink:href="#DejaVuSans-50"/>
       <use x="63.623047" xlink:href="#DejaVuSans-48"/>
       <use x="127.246094" xlink:href="#DejaVuSans-46"/>
       <use x="159.033203" xlink:href="#DejaVuSans-48"/>
      </g>
     </g>
    </g>
    <g id="text_69">
     <!-- Count -->
     <g transform="translate(371.409375 436.529375)rotate(-90)scale(0.1 -0.1)">
      <use xlink:href="#DejaVuSans-67"/>
      <use x="69.824219" xlink:href="#DejaVuSans-111"/>
      <use x="131.005859" xlink:href="#DejaVuSans-117"/>
      <use x="194.384766" xlink:href="#DejaVuSans-110"/>
      <use x="257.763672" xlink:href="#DejaVuSans-116"/>
     </g>
    </g>
   </g>
   <g id="patch_35">
    <path d="M 406.754687 534.84375 
L 406.754687 308.518125 
" style="fill:none;stroke:#000000;stroke-linecap:square;stroke-linejoin:miter;stroke-width:0.8;"/>
   </g>
   <g id="patch_36">
    <path d="M 709.2 534.84375 
L 709.2 308.518125 
" style="fill:none;stroke:#000000;stroke-linecap:square;stroke-linejoin:miter;stroke-width:0.8;"/>
   </g>
   <g id="patch_37">
    <path d="M 406.754687 534.84375 
L 709.2 534.84375 
" style="fill:none;stroke:#000000;stroke-linecap:square;stroke-linejoin:miter;stroke-width:0.8;"/>
   </g>
   <g id="patch_38">
    <path d="M 406.754687 308.518125 
L 709.2 308.518125 
" style="fill:none;stroke:#000000;stroke-linecap:square;stroke-linejoin:miter;stroke-width:0.8;"/>
   </g>
   <g id="text_70">
    <!-- Level 20, AB 11, DC 19, CR 13-27 -->
    <g transform="translate(457.339531 302.518125)scale(0.12 -0.12)">
     <defs>
      <path d="M 40.578125 39.3125 
Q 47.65625 37.796875 51.625 33 
Q 55.609375 28.21875 55.609375 21.1875 
Q 55.609375 10.40625 48.1875 4.484375 
Q 40.765625 -1.421875 27.09375 -1.421875 
Q 22.515625 -1.421875 17.65625 -0.515625 
Q 12.796875 0.390625 7.625 2.203125 
L 7.625 11.71875 
Q 11.71875 9.328125 16.59375 8.109375 
Q 21.484375 6.890625 26.8125 6.890625 
Q 36.078125 6.890625 40.9375 10.546875 
Q 45.796875 14.203125 45.796875 21.1875 
Q 45.796875 27.640625 41.28125 31.265625 
Q 36.765625 34.90625 28.71875 34.90625 
L 20.21875 34.90625 
L 20.21875 43.015625 
L 29.109375 43.015625 
Q 36.375 43.015625 40.234375 45.921875 
Q 44.09375 48.828125 44.09375 54.296875 
Q 44.09375 59.90625 40.109375 62.90625 
Q 36.140625 65.921875 28.71875 65.921875 
Q 24.65625 65.921875 20.015625 65.03125 
Q 15.375 64.15625 9.8125 62.3125 
L 9.8125 71.09375 
Q 15.4375 72.65625 20.34375 73.4375 
Q 25.25 74.21875 29.59375 74.21875 
Q 40.828125 74.21875 47.359375 69.109375 
Q 53.90625 64.015625 53.90625 55.328125 
Q 53.90625 49.265625 50.4375 45.09375 
Q 46.96875 40.921875 40.578125 39.3125 
z
" id="DejaVuSans-51"/>
     </defs>
     <use xlink:href="#DejaVuSans-76"/>
     <use x="53.962891" xlink:href="#DejaVuSans-101"/>
     <use x="115.486328" xlink:href="#DejaVuSans-118"/>
     <use x="174.666016" xlink:href="#DejaVuSans-101"/>
     <use x="236.189453" xlink:href="#DejaVuSans-108"/>
     <use x="263.972656" xlink:href="#DejaVuSans-32"/>
     <use x="295.759766" xlink:href="#DejaVuSans-50"/>
     <use x="359.382812" xlink:href="#DejaVuSans-48"/>
     <use x="423.005859" xlink:href="#DejaVuSans-44"/>
     <use x="454.792969" xlink:href="#DejaVuSans-32"/>
     <use x="486.580078" xlink:href="#DejaVuSans-65"/>
     <use x="554.988281" xlink:href="#DejaVuSans-66"/>
     <use x="623.591797" xlink:href="#DejaVuSans-32"/>
     <use x="655.378906" xlink:href="#DejaVuSans-49"/>
     <use x="719.001953" xlink:href="#DejaVuSans-49"/>
     <use x="782.625" xlink:href="#DejaVuSans-44"/>
     <use x="814.412109" xlink:href="#DejaVuSans-32"/>
     <use x="846.199219" xlink:href="#DejaVuSans-68"/>
     <use x="923.201172" xlink:href="#DejaVuSans-67"/>
     <use x="993.025391" xlink:href="#DejaVuSans-32"/>
     <use x="1024.8125" xlink:href="#DejaVuSans-49"/>
     <use x="1088.435547" xlink:href="#DejaVuSans-57"/>
     <use x="1152.058594" xlink:href="#DejaVuSans-44"/>
     <use x="1183.845703" xlink:href="#DejaVuSans-32"/>
     <use x="1215.632812" xlink:href="#DejaVuSans-67"/>
     <use x="1285.457031" xlink:href="#DejaVuSans-82"/>
     <use x="1354.939453" xlink:href="#DejaVuSans-32"/>
     <use x="1386.726562" xlink:href="#DejaVuSans-49"/>
     <use x="1450.349609" xlink:href="#DejaVuSans-51"/>
     <use x="1513.972656" xlink:href="#DejaVuSans-45"/>
     <use x="1550.056641" xlink:href="#DejaVuSans-50"/>
     <use x="1613.679688" xlink:href="#DejaVuSans-55"/>
    </g>
   </g>
   <g id="legend_4">
    <g id="patch_39">
     <path d="M 413.754687 345.874375 
L 513.298437 345.874375 
Q 515.298437 345.874375 515.298437 343.874375 
L 515.298437 315.518125 
Q 515.298437 313.518125 513.298437 313.518125 
L 413.754687 313.518125 
Q 411.754687 313.518125 411.754687 315.518125 
L 411.754687 343.874375 
Q 411.754687 345.874375 413.754687 345.874375 
z
" style="fill:#ffffff;opacity:0.8;stroke:#cccccc;stroke-linejoin:miter;"/>
    </g>
    <g id="patch_40">
     <path d="M 415.754687 325.116562 
L 435.754687 325.116562 
L 435.754687 318.116562 
L 415.754687 318.116562 
z
" style="fill:#ff7f0e;"/>
    </g>
    <g id="text_71">
     <!-- Not Proficient -->
     <g transform="translate(443.754687 325.116562)scale(0.1 -0.1)">
      <use xlink:href="#DejaVuSans-78"/>
      <use x="74.804688" xlink:href="#DejaVuSans-111"/>
      <use x="135.986328" xlink:href="#DejaVuSans-116"/>
      <use x="175.195312" xlink:href="#DejaVuSans-32"/>
      <use x="206.982422" xlink:href="#DejaVuSans-80"/>
      <use x="265.535156" xlink:href="#DejaVuSans-114"/>
      <use x="304.398438" xlink:href="#DejaVuSans-111"/>
      <use x="365.580078" xlink:href="#DejaVuSans-102"/>
      <use x="400.785156" xlink:href="#DejaVuSans-105"/>
      <use x="428.568359" xlink:href="#DejaVuSans-99"/>
      <use x="483.548828" xlink:href="#DejaVuSans-105"/>
      <use x="511.332031" xlink:href="#DejaVuSans-101"/>
      <use x="572.855469" xlink:href="#DejaVuSans-110"/>
      <use x="636.234375" xlink:href="#DejaVuSans-116"/>
     </g>
    </g>
    <g id="patch_41">
     <path d="M 415.754687 339.794688 
L 435.754687 339.794688 
L 435.754687 332.794688 
L 415.754687 332.794688 
z
" style="fill:#1f77b4;"/>
    </g>
    <g id="text_72">
     <!-- Proficient -->
     <g transform="translate(443.754687 339.794688)scale(0.1 -0.1)">
      <use xlink:href="#DejaVuSans-80"/>
      <use x="58.552734" xlink:href="#DejaVuSans-114"/>
      <use x="97.416016" xlink:href="#DejaVuSans-111"/>
      <use x="158.597656" xlink:href="#DejaVuSans-102"/>
      <use x="193.802734" xlink:href="#DejaVuSans-105"/>
      <use x="221.585938" xlink:href="#DejaVuSans-99"/>
      <use x="276.566406" xlink:href="#DejaVuSans-105"/>
      <use x="304.349609" xlink:href="#DejaVuSans-101"/>
      <use x="365.873047" xlink:href="#DejaVuSans-110"/>
      <use x="429.251953" xlink:href="#DejaVuSans-116"/>
     </g>
    </g>
   </g>
  </g>
 </g>
 <defs>
  <clipPath id="pa5601e978d">
   <rect height="226.325625" width="302.445312" x="50.565625" y="25.918125"/>
  </clipPath>
  <clipPath id="p3ef9aa9bc9">
   <rect height="226.325625" width="302.445312" x="406.754687" y="25.918125"/>
  </clipPath>
  <clipPath id="p9f99328c62">
   <rect height="226.325625" width="302.445312" x="50.565625" y="308.518125"/>
  </clipPath>
  <clipPath id="pe16b2bc2b4">
   <rect height="226.325625" width="302.445312" x="406.754687" y="308.518125"/>
  </clipPath>
 </defs>
</svg>
