<?xml version="1.0" encoding="utf-8" standalone="no"?>
<!DOCTYPE svg PUBLIC "-//W3C//DTD SVG 1.1//EN"
  "http://www.w3.org/Graphics/SVG/1.1/DTD/svg11.dtd">
<!-- Created with matplotlib (https://matplotlib.org/) -->
<svg height="288pt" version="1.1" viewBox="0 0 360 288" width="360pt" xmlns="http://www.w3.org/2000/svg" xmlns:xlink="http://www.w3.org/1999/xlink">
 <metadata>
  <rdf:RDF xmlns:cc="http://creativecommons.org/ns#" xmlns:dc="http://purl.org/dc/elements/1.1/" xmlns:rdf="http://www.w3.org/1999/02/22-rdf-syntax-ns#">
   <cc:Work>
    <dc:type rdf:resource="http://purl.org/dc/dcmitype/StillImage"/>
    <dc:date>2021-12-19</dc:date>
    <dc:format>image/svg+xml</dc:format>
    <dc:creator>
     <cc:Agent>
      <dc:title>Matplotlib v3.3.4, https://matplotlib.org/</dc:title>
     </cc:Agent>
    </dc:creator>
    <dc:contributor>
     <cc:Agent>
      <dc:title>T. Dunn</dc:title>
     </cc:Agent>
    </dc:contributor>
   </cc:Work>
  </rdf:RDF>
 </metadata>
 <defs>
  <style type="text/css">*{stroke-linecap:butt;stroke-linejoin:round;}</style>
 </defs>
 <g id="figure_1">
  <g id="patch_1">
   <path d="M 0 288 
L 360 288 
L 360 0 
L 0 0 
z
" style="fill:none;"/>
  </g>
  <g id="axes_1">
   <g id="patch_2">
    <path d="M 47.38125 246.84375 
L 343.983732 246.84375 
L 343.983732 10.8 
L 47.38125 10.8 
z
" style="fill:#ffffff;"/>
   </g>
   <g id="matplotlib.axis_1">
    <g id="xtick_1">
     <g id="line2d_1">
      <defs>
       <path d="M 0 0 
L 0 3.5 
" id="mfe1f0237c6" style="stroke:#000000;stroke-width:0.8;"/>
      </defs>
      <g>
       <use style="stroke:#000000;stroke-width:0.8;" x="50.289117" xlink:href="#mfe1f0237c6" y="246.84375"/>
      </g>
     </g>
     <g id="text_1">
      <!-- 0.5 -->
      <g transform="translate(42.337555 261.442187)scale(0.1 -0.1)">
       <defs>
        <path d="M 31.78125 66.40625 
Q 24.171875 66.40625 20.328125 58.90625 
Q 16.5 51.421875 16.5 36.375 
Q 16.5 21.390625 20.328125 13.890625 
Q 24.171875 6.390625 31.78125 6.390625 
Q 39.453125 6.390625 43.28125 13.890625 
Q 47.125 21.390625 47.125 36.375 
Q 47.125 51.421875 43.28125 58.90625 
Q 39.453125 66.40625 31.78125 66.40625 
z
M 31.78125 74.21875 
Q 44.046875 74.21875 50.515625 64.515625 
Q 56.984375 54.828125 56.984375 36.375 
Q 56.984375 17.96875 50.515625 8.265625 
Q 44.046875 -1.421875 31.78125 -1.421875 
Q 19.53125 -1.421875 13.0625 8.265625 
Q 6.59375 17.96875 6.59375 36.375 
Q 6.59375 54.828125 13.0625 64.515625 
Q 19.53125 74.21875 31.78125 74.21875 
z
" id="DejaVuSans-48"/>
        <path d="M 10.6875 12.40625 
L 21 12.40625 
L 21 0 
L 10.6875 0 
z
" id="DejaVuSans-46"/>
        <path d="M 10.796875 72.90625 
L 49.515625 72.90625 
L 49.515625 64.59375 
L 19.828125 64.59375 
L 19.828125 46.734375 
Q 21.96875 47.46875 24.109375 47.828125 
Q 26.265625 48.1875 28.421875 48.1875 
Q 40.625 48.1875 47.75 41.5 
Q 54.890625 34.8125 54.890625 23.390625 
Q 54.890625 11.625 47.5625 5.09375 
Q 40.234375 -1.421875 26.90625 -1.421875 
Q 22.3125 -1.421875 17.546875 -0.640625 
Q 12.796875 0.140625 7.71875 1.703125 
L 7.71875 11.625 
Q 12.109375 9.234375 16.796875 8.0625 
Q 21.484375 6.890625 26.703125 6.890625 
Q 35.15625 6.890625 40.078125 11.328125 
Q 45.015625 15.765625 45.015625 23.390625 
Q 45.015625 31 40.078125 35.4375 
Q 35.15625 39.890625 26.703125 39.890625 
Q 22.75 39.890625 18.8125 39.015625 
Q 14.890625 38.140625 10.796875 36.28125 
z
" id="DejaVuSans-53"/>
       </defs>
       <use xlink:href="#DejaVuSans-48"/>
       <use x="63.623047" xlink:href="#DejaVuSans-46"/>
       <use x="95.410156" xlink:href="#DejaVuSans-53"/>
      </g>
     </g>
    </g>
    <g id="xtick_2">
     <g id="line2d_2">
      <g>
       <use style="stroke:#000000;stroke-width:0.8;" x="108.446467" xlink:href="#mfe1f0237c6" y="246.84375"/>
      </g>
     </g>
     <g id="text_2">
      <!-- 1.0 -->
      <g transform="translate(100.494904 261.442187)scale(0.1 -0.1)">
       <defs>
        <path d="M 12.40625 8.296875 
L 28.515625 8.296875 
L 28.515625 63.921875 
L 10.984375 60.40625 
L 10.984375 69.390625 
L 28.421875 72.90625 
L 38.28125 72.90625 
L 38.28125 8.296875 
L 54.390625 8.296875 
L 54.390625 0 
L 12.40625 0 
z
" id="DejaVuSans-49"/>
       </defs>
       <use xlink:href="#DejaVuSans-49"/>
       <use x="63.623047" xlink:href="#DejaVuSans-46"/>
       <use x="95.410156" xlink:href="#DejaVuSans-48"/>
      </g>
     </g>
    </g>
    <g id="xtick_3">
     <g id="line2d_3">
      <g>
       <use style="stroke:#000000;stroke-width:0.8;" x="166.603816" xlink:href="#mfe1f0237c6" y="246.84375"/>
      </g>
     </g>
     <g id="text_3">
      <!-- 1.5 -->
      <g transform="translate(158.652254 261.442187)scale(0.1 -0.1)">
       <use xlink:href="#DejaVuSans-49"/>
       <use x="63.623047" xlink:href="#DejaVuSans-46"/>
       <use x="95.410156" xlink:href="#DejaVuSans-53"/>
      </g>
     </g>
    </g>
    <g id="xtick_4">
     <g id="line2d_4">
      <g>
       <use style="stroke:#000000;stroke-width:0.8;" x="224.761165" xlink:href="#mfe1f0237c6" y="246.84375"/>
      </g>
     </g>
     <g id="text_4">
      <!-- 2.0 -->
      <g transform="translate(216.809603 261.442187)scale(0.1 -0.1)">
       <defs>
        <path d="M 19.1875 8.296875 
L 53.609375 8.296875 
L 53.609375 0 
L 7.328125 0 
L 7.328125 8.296875 
Q 12.9375 14.109375 22.625 23.890625 
Q 32.328125 33.6875 34.8125 36.53125 
Q 39.546875 41.84375 41.421875 45.53125 
Q 43.3125 49.21875 43.3125 52.78125 
Q 43.3125 58.59375 39.234375 62.25 
Q 35.15625 65.921875 28.609375 65.921875 
Q 23.96875 65.921875 18.8125 64.3125 
Q 13.671875 62.703125 7.8125 59.421875 
L 7.8125 69.390625 
Q 13.765625 71.78125 18.9375 73 
Q 24.125 74.21875 28.421875 74.21875 
Q 39.75 74.21875 46.484375 68.546875 
Q 53.21875 62.890625 53.21875 53.421875 
Q 53.21875 48.921875 51.53125 44.890625 
Q 49.859375 40.875 45.40625 35.40625 
Q 44.1875 33.984375 37.640625 27.21875 
Q 31.109375 20.453125 19.1875 8.296875 
z
" id="DejaVuSans-50"/>
       </defs>
       <use xlink:href="#DejaVuSans-50"/>
       <use x="63.623047" xlink:href="#DejaVuSans-46"/>
       <use x="95.410156" xlink:href="#DejaVuSans-48"/>
      </g>
     </g>
    </g>
    <g id="xtick_5">
     <g id="line2d_5">
      <g>
       <use style="stroke:#000000;stroke-width:0.8;" x="282.918515" xlink:href="#mfe1f0237c6" y="246.84375"/>
      </g>
     </g>
     <g id="text_5">
      <!-- 2.5 -->
      <g transform="translate(274.966952 261.442187)scale(0.1 -0.1)">
       <use xlink:href="#DejaVuSans-50"/>
       <use x="63.623047" xlink:href="#DejaVuSans-46"/>
       <use x="95.410156" xlink:href="#DejaVuSans-53"/>
      </g>
     </g>
    </g>
    <g id="xtick_6">
     <g id="line2d_6">
      <g>
       <use style="stroke:#000000;stroke-width:0.8;" x="341.075864" xlink:href="#mfe1f0237c6" y="246.84375"/>
      </g>
     </g>
     <g id="text_6">
      <!-- 3.0 -->
      <g transform="translate(333.124302 261.442187)scale(0.1 -0.1)">
       <defs>
        <path d="M 40.578125 39.3125 
Q 47.65625 37.796875 51.625 33 
Q 55.609375 28.21875 55.609375 21.1875 
Q 55.609375 10.40625 48.1875 4.484375 
Q 40.765625 -1.421875 27.09375 -1.421875 
Q 22.515625 -1.421875 17.65625 -0.515625 
Q 12.796875 0.390625 7.625 2.203125 
L 7.625 11.71875 
Q 11.71875 9.328125 16.59375 8.109375 
Q 21.484375 6.890625 26.8125 6.890625 
Q 36.078125 6.890625 40.9375 10.546875 
Q 45.796875 14.203125 45.796875 21.1875 
Q 45.796875 27.640625 41.28125 31.265625 
Q 36.765625 34.90625 28.71875 34.90625 
L 20.21875 34.90625 
L 20.21875 43.015625 
L 29.109375 43.015625 
Q 36.375 43.015625 40.234375 45.921875 
Q 44.09375 48.828125 44.09375 54.296875 
Q 44.09375 59.90625 40.109375 62.90625 
Q 36.140625 65.921875 28.71875 65.921875 
Q 24.65625 65.921875 20.015625 65.03125 
Q 15.375 64.15625 9.8125 62.3125 
L 9.8125 71.09375 
Q 15.4375 72.65625 20.34375 73.4375 
Q 25.25 74.21875 29.59375 74.21875 
Q 40.828125 74.21875 47.359375 69.109375 
Q 53.90625 64.015625 53.90625 55.328125 
Q 53.90625 49.265625 50.4375 45.09375 
Q 46.96875 40.921875 40.578125 39.3125 
z
" id="DejaVuSans-51"/>
       </defs>
       <use xlink:href="#DejaVuSans-51"/>
       <use x="63.623047" xlink:href="#DejaVuSans-46"/>
       <use x="95.410156" xlink:href="#DejaVuSans-48"/>
      </g>
     </g>
    </g>
    <g id="xtick_7">
     <g id="line2d_7">
      <defs>
       <path d="M 0 0 
L 0 2 
" id="m6aa2ea2339" style="stroke:#000000;stroke-width:0.6;"/>
      </defs>
      <g>
       <use style="stroke:#000000;stroke-width:0.6;" x="79.367792" xlink:href="#m6aa2ea2339" y="246.84375"/>
      </g>
     </g>
    </g>
    <g id="xtick_8">
     <g id="line2d_8">
      <g>
       <use style="stroke:#000000;stroke-width:0.6;" x="137.525141" xlink:href="#m6aa2ea2339" y="246.84375"/>
      </g>
     </g>
    </g>
    <g id="xtick_9">
     <g id="line2d_9">
      <g>
       <use style="stroke:#000000;stroke-width:0.6;" x="195.682491" xlink:href="#m6aa2ea2339" y="246.84375"/>
      </g>
     </g>
    </g>
    <g id="xtick_10">
     <g id="line2d_10">
      <g>
       <use style="stroke:#000000;stroke-width:0.6;" x="253.83984" xlink:href="#m6aa2ea2339" y="246.84375"/>
      </g>
     </g>
    </g>
    <g id="xtick_11">
     <g id="line2d_11">
      <g>
       <use style="stroke:#000000;stroke-width:0.6;" x="311.997189" xlink:href="#m6aa2ea2339" y="246.84375"/>
      </g>
     </g>
    </g>
    <g id="text_7">
     <!-- eXP Ratio -->
     <g transform="translate(171.742647 275.120313)scale(0.1 -0.1)">
      <defs>
       <path d="M 56.203125 29.59375 
L 56.203125 25.203125 
L 14.890625 25.203125 
Q 15.484375 15.921875 20.484375 11.0625 
Q 25.484375 6.203125 34.421875 6.203125 
Q 39.59375 6.203125 44.453125 7.46875 
Q 49.3125 8.734375 54.109375 11.28125 
L 54.109375 2.78125 
Q 49.265625 0.734375 44.1875 -0.34375 
Q 39.109375 -1.421875 33.890625 -1.421875 
Q 20.796875 -1.421875 13.15625 6.1875 
Q 5.515625 13.8125 5.515625 26.8125 
Q 5.515625 40.234375 12.765625 48.109375 
Q 20.015625 56 32.328125 56 
Q 43.359375 56 49.78125 48.890625 
Q 56.203125 41.796875 56.203125 29.59375 
z
M 47.21875 32.234375 
Q 47.125 39.59375 43.09375 43.984375 
Q 39.0625 48.390625 32.421875 48.390625 
Q 24.90625 48.390625 20.390625 44.140625 
Q 15.875 39.890625 15.1875 32.171875 
z
" id="DejaVuSans-101"/>
       <path d="M 6.296875 72.90625 
L 16.890625 72.90625 
L 35.015625 45.796875 
L 53.21875 72.90625 
L 63.8125 72.90625 
L 40.375 37.890625 
L 65.375 0 
L 54.78125 0 
L 34.28125 31 
L 13.625 0 
L 2.984375 0 
L 29 38.921875 
z
" id="DejaVuSans-88"/>
       <path d="M 19.671875 64.796875 
L 19.671875 37.40625 
L 32.078125 37.40625 
Q 38.96875 37.40625 42.71875 40.96875 
Q 46.484375 44.53125 46.484375 51.125 
Q 46.484375 57.671875 42.71875 61.234375 
Q 38.96875 64.796875 32.078125 64.796875 
z
M 9.8125 72.90625 
L 32.078125 72.90625 
Q 44.34375 72.90625 50.609375 67.359375 
Q 56.890625 61.8125 56.890625 51.125 
Q 56.890625 40.328125 50.609375 34.8125 
Q 44.34375 29.296875 32.078125 29.296875 
L 19.671875 29.296875 
L 19.671875 0 
L 9.8125 0 
z
" id="DejaVuSans-80"/>
       <path id="DejaVuSans-32"/>
       <path d="M 44.390625 34.1875 
Q 47.5625 33.109375 50.5625 29.59375 
Q 53.5625 26.078125 56.59375 19.921875 
L 66.609375 0 
L 56 0 
L 46.6875 18.703125 
Q 43.0625 26.03125 39.671875 28.421875 
Q 36.28125 30.8125 30.421875 30.8125 
L 19.671875 30.8125 
L 19.671875 0 
L 9.8125 0 
L 9.8125 72.90625 
L 32.078125 72.90625 
Q 44.578125 72.90625 50.734375 67.671875 
Q 56.890625 62.453125 56.890625 51.90625 
Q 56.890625 45.015625 53.6875 40.46875 
Q 50.484375 35.9375 44.390625 34.1875 
z
M 19.671875 64.796875 
L 19.671875 38.921875 
L 32.078125 38.921875 
Q 39.203125 38.921875 42.84375 42.21875 
Q 46.484375 45.515625 46.484375 51.90625 
Q 46.484375 58.296875 42.84375 61.546875 
Q 39.203125 64.796875 32.078125 64.796875 
z
" id="DejaVuSans-82"/>
       <path d="M 34.28125 27.484375 
Q 23.390625 27.484375 19.1875 25 
Q 14.984375 22.515625 14.984375 16.5 
Q 14.984375 11.71875 18.140625 8.90625 
Q 21.296875 6.109375 26.703125 6.109375 
Q 34.1875 6.109375 38.703125 11.40625 
Q 43.21875 16.703125 43.21875 25.484375 
L 43.21875 27.484375 
z
M 52.203125 31.203125 
L 52.203125 0 
L 43.21875 0 
L 43.21875 8.296875 
Q 40.140625 3.328125 35.546875 0.953125 
Q 30.953125 -1.421875 24.3125 -1.421875 
Q 15.921875 -1.421875 10.953125 3.296875 
Q 6 8.015625 6 15.921875 
Q 6 25.140625 12.171875 29.828125 
Q 18.359375 34.515625 30.609375 34.515625 
L 43.21875 34.515625 
L 43.21875 35.40625 
Q 43.21875 41.609375 39.140625 45 
Q 35.0625 48.390625 27.6875 48.390625 
Q 23 48.390625 18.546875 47.265625 
Q 14.109375 46.140625 10.015625 43.890625 
L 10.015625 52.203125 
Q 14.9375 54.109375 19.578125 55.046875 
Q 24.21875 56 28.609375 56 
Q 40.484375 56 46.34375 49.84375 
Q 52.203125 43.703125 52.203125 31.203125 
z
" id="DejaVuSans-97"/>
       <path d="M 18.3125 70.21875 
L 18.3125 54.6875 
L 36.8125 54.6875 
L 36.8125 47.703125 
L 18.3125 47.703125 
L 18.3125 18.015625 
Q 18.3125 11.328125 20.140625 9.421875 
Q 21.96875 7.515625 27.59375 7.515625 
L 36.8125 7.515625 
L 36.8125 0 
L 27.59375 0 
Q 17.1875 0 13.234375 3.875 
Q 9.28125 7.765625 9.28125 18.015625 
L 9.28125 47.703125 
L 2.6875 47.703125 
L 2.6875 54.6875 
L 9.28125 54.6875 
L 9.28125 70.21875 
z
" id="DejaVuSans-116"/>
       <path d="M 9.421875 54.6875 
L 18.40625 54.6875 
L 18.40625 0 
L 9.421875 0 
z
M 9.421875 75.984375 
L 18.40625 75.984375 
L 18.40625 64.59375 
L 9.421875 64.59375 
z
" id="DejaVuSans-105"/>
       <path d="M 30.609375 48.390625 
Q 23.390625 48.390625 19.1875 42.75 
Q 14.984375 37.109375 14.984375 27.296875 
Q 14.984375 17.484375 19.15625 11.84375 
Q 23.34375 6.203125 30.609375 6.203125 
Q 37.796875 6.203125 41.984375 11.859375 
Q 46.1875 17.53125 46.1875 27.296875 
Q 46.1875 37.015625 41.984375 42.703125 
Q 37.796875 48.390625 30.609375 48.390625 
z
M 30.609375 56 
Q 42.328125 56 49.015625 48.375 
Q 55.71875 40.765625 55.71875 27.296875 
Q 55.71875 13.875 49.015625 6.21875 
Q 42.328125 -1.421875 30.609375 -1.421875 
Q 18.84375 -1.421875 12.171875 6.21875 
Q 5.515625 13.875 5.515625 27.296875 
Q 5.515625 40.765625 12.171875 48.375 
Q 18.84375 56 30.609375 56 
z
" id="DejaVuSans-111"/>
      </defs>
      <use xlink:href="#DejaVuSans-101"/>
      <use x="61.523438" xlink:href="#DejaVuSans-88"/>
      <use x="130.029297" xlink:href="#DejaVuSans-80"/>
      <use x="190.332031" xlink:href="#DejaVuSans-32"/>
      <use x="222.119141" xlink:href="#DejaVuSans-82"/>
      <use x="289.351562" xlink:href="#DejaVuSans-97"/>
      <use x="350.630859" xlink:href="#DejaVuSans-116"/>
      <use x="389.839844" xlink:href="#DejaVuSans-105"/>
      <use x="417.623047" xlink:href="#DejaVuSans-111"/>
     </g>
    </g>
   </g>
   <g id="matplotlib.axis_2">
    <g id="ytick_1">
     <g id="line2d_12">
      <defs>
       <path d="M 0 0 
L -3.5 0 
" id="m9e399db81d" style="stroke:#000000;stroke-width:0.8;"/>
      </defs>
      <g>
       <use style="stroke:#000000;stroke-width:0.8;" x="47.38125" xlink:href="#m9e399db81d" y="246.84375"/>
      </g>
     </g>
     <g id="text_8">
      <!-- 0.0 -->
      <g transform="translate(24.478125 250.642969)scale(0.1 -0.1)">
       <use xlink:href="#DejaVuSans-48"/>
       <use x="63.623047" xlink:href="#DejaVuSans-46"/>
       <use x="95.410156" xlink:href="#DejaVuSans-48"/>
      </g>
     </g>
    </g>
    <g id="ytick_2">
     <g id="line2d_13">
      <g>
       <use style="stroke:#000000;stroke-width:0.8;" x="47.38125" xlink:href="#m9e399db81d" y="201.883036"/>
      </g>
     </g>
     <g id="text_9">
      <!-- 0.2 -->
      <g transform="translate(24.478125 205.682254)scale(0.1 -0.1)">
       <use xlink:href="#DejaVuSans-48"/>
       <use x="63.623047" xlink:href="#DejaVuSans-46"/>
       <use x="95.410156" xlink:href="#DejaVuSans-50"/>
      </g>
     </g>
    </g>
    <g id="ytick_3">
     <g id="line2d_14">
      <g>
       <use style="stroke:#000000;stroke-width:0.8;" x="47.38125" xlink:href="#m9e399db81d" y="156.922321"/>
      </g>
     </g>
     <g id="text_10">
      <!-- 0.4 -->
      <g transform="translate(24.478125 160.72154)scale(0.1 -0.1)">
       <defs>
        <path d="M 37.796875 64.3125 
L 12.890625 25.390625 
L 37.796875 25.390625 
z
M 35.203125 72.90625 
L 47.609375 72.90625 
L 47.609375 25.390625 
L 58.015625 25.390625 
L 58.015625 17.1875 
L 47.609375 17.1875 
L 47.609375 0 
L 37.796875 0 
L 37.796875 17.1875 
L 4.890625 17.1875 
L 4.890625 26.703125 
z
" id="DejaVuSans-52"/>
       </defs>
       <use xlink:href="#DejaVuSans-48"/>
       <use x="63.623047" xlink:href="#DejaVuSans-46"/>
       <use x="95.410156" xlink:href="#DejaVuSans-52"/>
      </g>
     </g>
    </g>
    <g id="ytick_4">
     <g id="line2d_15">
      <g>
       <use style="stroke:#000000;stroke-width:0.8;" x="47.38125" xlink:href="#m9e399db81d" y="111.961607"/>
      </g>
     </g>
     <g id="text_11">
      <!-- 0.6 -->
      <g transform="translate(24.478125 115.760826)scale(0.1 -0.1)">
       <defs>
        <path d="M 33.015625 40.375 
Q 26.375 40.375 22.484375 35.828125 
Q 18.609375 31.296875 18.609375 23.390625 
Q 18.609375 15.53125 22.484375 10.953125 
Q 26.375 6.390625 33.015625 6.390625 
Q 39.65625 6.390625 43.53125 10.953125 
Q 47.40625 15.53125 47.40625 23.390625 
Q 47.40625 31.296875 43.53125 35.828125 
Q 39.65625 40.375 33.015625 40.375 
z
M 52.59375 71.296875 
L 52.59375 62.3125 
Q 48.875 64.0625 45.09375 64.984375 
Q 41.3125 65.921875 37.59375 65.921875 
Q 27.828125 65.921875 22.671875 59.328125 
Q 17.53125 52.734375 16.796875 39.40625 
Q 19.671875 43.65625 24.015625 45.921875 
Q 28.375 48.1875 33.59375 48.1875 
Q 44.578125 48.1875 50.953125 41.515625 
Q 57.328125 34.859375 57.328125 23.390625 
Q 57.328125 12.15625 50.6875 5.359375 
Q 44.046875 -1.421875 33.015625 -1.421875 
Q 20.359375 -1.421875 13.671875 8.265625 
Q 6.984375 17.96875 6.984375 36.375 
Q 6.984375 53.65625 15.1875 63.9375 
Q 23.390625 74.21875 37.203125 74.21875 
Q 40.921875 74.21875 44.703125 73.484375 
Q 48.484375 72.75 52.59375 71.296875 
z
" id="DejaVuSans-54"/>
       </defs>
       <use xlink:href="#DejaVuSans-48"/>
       <use x="63.623047" xlink:href="#DejaVuSans-46"/>
       <use x="95.410156" xlink:href="#DejaVuSans-54"/>
      </g>
     </g>
    </g>
    <g id="ytick_5">
     <g id="line2d_16">
      <g>
       <use style="stroke:#000000;stroke-width:0.8;" x="47.38125" xlink:href="#m9e399db81d" y="67.000893"/>
      </g>
     </g>
     <g id="text_12">
      <!-- 0.8 -->
      <g transform="translate(24.478125 70.800112)scale(0.1 -0.1)">
       <defs>
        <path d="M 31.78125 34.625 
Q 24.75 34.625 20.71875 30.859375 
Q 16.703125 27.09375 16.703125 20.515625 
Q 16.703125 13.921875 20.71875 10.15625 
Q 24.75 6.390625 31.78125 6.390625 
Q 38.8125 6.390625 42.859375 10.171875 
Q 46.921875 13.96875 46.921875 20.515625 
Q 46.921875 27.09375 42.890625 30.859375 
Q 38.875 34.625 31.78125 34.625 
z
M 21.921875 38.8125 
Q 15.578125 40.375 12.03125 44.71875 
Q 8.5 49.078125 8.5 55.328125 
Q 8.5 64.0625 14.71875 69.140625 
Q 20.953125 74.21875 31.78125 74.21875 
Q 42.671875 74.21875 48.875 69.140625 
Q 55.078125 64.0625 55.078125 55.328125 
Q 55.078125 49.078125 51.53125 44.71875 
Q 48 40.375 41.703125 38.8125 
Q 48.828125 37.15625 52.796875 32.3125 
Q 56.78125 27.484375 56.78125 20.515625 
Q 56.78125 9.90625 50.3125 4.234375 
Q 43.84375 -1.421875 31.78125 -1.421875 
Q 19.734375 -1.421875 13.25 4.234375 
Q 6.78125 9.90625 6.78125 20.515625 
Q 6.78125 27.484375 10.78125 32.3125 
Q 14.796875 37.15625 21.921875 38.8125 
z
M 18.3125 54.390625 
Q 18.3125 48.734375 21.84375 45.5625 
Q 25.390625 42.390625 31.78125 42.390625 
Q 38.140625 42.390625 41.71875 45.5625 
Q 45.3125 48.734375 45.3125 54.390625 
Q 45.3125 60.0625 41.71875 63.234375 
Q 38.140625 66.40625 31.78125 66.40625 
Q 25.390625 66.40625 21.84375 63.234375 
Q 18.3125 60.0625 18.3125 54.390625 
z
" id="DejaVuSans-56"/>
       </defs>
       <use xlink:href="#DejaVuSans-48"/>
       <use x="63.623047" xlink:href="#DejaVuSans-46"/>
       <use x="95.410156" xlink:href="#DejaVuSans-56"/>
      </g>
     </g>
    </g>
    <g id="ytick_6">
     <g id="line2d_17">
      <g>
       <use style="stroke:#000000;stroke-width:0.8;" x="47.38125" xlink:href="#m9e399db81d" y="22.040179"/>
      </g>
     </g>
     <g id="text_13">
      <!-- 1.0 -->
      <g transform="translate(24.478125 25.839397)scale(0.1 -0.1)">
       <use xlink:href="#DejaVuSans-49"/>
       <use x="63.623047" xlink:href="#DejaVuSans-46"/>
       <use x="95.410156" xlink:href="#DejaVuSans-48"/>
      </g>
     </g>
    </g>
    <g id="text_14">
     <!-- CDF -->
     <g transform="translate(18.398438 139.039062)rotate(-90)scale(0.1 -0.1)">
      <defs>
       <path d="M 64.40625 67.28125 
L 64.40625 56.890625 
Q 59.421875 61.53125 53.78125 63.8125 
Q 48.140625 66.109375 41.796875 66.109375 
Q 29.296875 66.109375 22.65625 58.46875 
Q 16.015625 50.828125 16.015625 36.375 
Q 16.015625 21.96875 22.65625 14.328125 
Q 29.296875 6.6875 41.796875 6.6875 
Q 48.140625 6.6875 53.78125 8.984375 
Q 59.421875 11.28125 64.40625 15.921875 
L 64.40625 5.609375 
Q 59.234375 2.09375 53.4375 0.328125 
Q 47.65625 -1.421875 41.21875 -1.421875 
Q 24.65625 -1.421875 15.125 8.703125 
Q 5.609375 18.84375 5.609375 36.375 
Q 5.609375 53.953125 15.125 64.078125 
Q 24.65625 74.21875 41.21875 74.21875 
Q 47.75 74.21875 53.53125 72.484375 
Q 59.328125 70.75 64.40625 67.28125 
z
" id="DejaVuSans-67"/>
       <path d="M 19.671875 64.796875 
L 19.671875 8.109375 
L 31.59375 8.109375 
Q 46.6875 8.109375 53.6875 14.9375 
Q 60.6875 21.78125 60.6875 36.53125 
Q 60.6875 51.171875 53.6875 57.984375 
Q 46.6875 64.796875 31.59375 64.796875 
z
M 9.8125 72.90625 
L 30.078125 72.90625 
Q 51.265625 72.90625 61.171875 64.09375 
Q 71.09375 55.28125 71.09375 36.53125 
Q 71.09375 17.671875 61.125 8.828125 
Q 51.171875 0 30.078125 0 
L 9.8125 0 
z
" id="DejaVuSans-68"/>
       <path d="M 9.8125 72.90625 
L 51.703125 72.90625 
L 51.703125 64.59375 
L 19.671875 64.59375 
L 19.671875 43.109375 
L 48.578125 43.109375 
L 48.578125 34.8125 
L 19.671875 34.8125 
L 19.671875 0 
L 9.8125 0 
z
" id="DejaVuSans-70"/>
      </defs>
      <use xlink:href="#DejaVuSans-67"/>
      <use x="69.824219" xlink:href="#DejaVuSans-68"/>
      <use x="146.826172" xlink:href="#DejaVuSans-70"/>
     </g>
    </g>
   </g>
   <g id="patch_3">
    <path clip-path="url(#p16f47c6d99)" d="M 47.38125 246.84375 
L 47.38125 246.84375 
L 53.196985 246.84375 
L 53.196985 246.84375 
L 59.01272 246.84375 
L 59.01272 246.84375 
L 64.828455 246.84375 
L 64.828455 246.84375 
L 70.64419 246.84375 
L 70.64419 246.84375 
L 76.459925 246.84375 
L 76.459925 246.84375 
L 82.27566 246.84375 
L 82.27566 246.84375 
L 88.091395 246.84375 
L 88.091395 246.84375 
L 93.907129 246.84375 
L 93.907129 246.84375 
L 99.722864 246.84375 
L 99.722864 246.84375 
L 105.538599 246.84375 
L 105.538599 201.883036 
L 111.354334 201.883036 
L 111.354334 156.922321 
L 117.170069 156.922321 
L 117.170069 111.961607 
L 122.985804 111.961607 
L 122.985804 111.961607 
L 128.801539 111.961607 
L 128.801539 111.961607 
L 134.617274 111.961607 
L 134.617274 111.961607 
L 140.433009 111.961607 
L 140.433009 111.961607 
L 146.248744 111.961607 
L 146.248744 111.961607 
L 152.064479 111.961607 
L 152.064479 67.000893 
L 157.880214 67.000893 
L 157.880214 22.040179 
L 163.695949 22.040179 
L 163.695949 22.040179 
L 169.511684 22.040179 
L 169.511684 22.040179 
L 175.327419 22.040179 
L 175.327419 22.040179 
L 181.143153 22.040179 
L 181.143153 22.040179 
L 186.958888 22.040179 
L 186.958888 22.040179 
L 192.774623 22.040179 
L 192.774623 22.040179 
L 198.590358 22.040179 
L 198.590358 22.040179 
L 204.406093 22.040179 
L 204.406093 22.040179 
L 210.221828 22.040179 
L 210.221828 22.040179 
L 216.037563 22.040179 
L 216.037563 22.040179 
L 221.853298 22.040179 
L 221.853298 22.040179 
L 227.669033 22.040179 
L 227.669033 22.040179 
L 233.484768 22.040179 
L 233.484768 22.040179 
L 239.300503 22.040179 
L 239.300503 22.040179 
L 245.116238 22.040179 
L 245.116238 22.040179 
L 250.931973 22.040179 
L 250.931973 22.040179 
L 256.747708 22.040179 
L 256.747708 22.040179 
L 262.563443 22.040179 
L 262.563443 22.040179 
L 268.379177 22.040179 
L 268.379177 22.040179 
L 274.194912 22.040179 
L 274.194912 22.040179 
L 280.010647 22.040179 
L 280.010647 22.040179 
L 285.826382 22.040179 
L 285.826382 22.040179 
L 291.642117 22.040179 
L 291.642117 22.040179 
L 297.457852 22.040179 
L 297.457852 22.040179 
L 303.273587 22.040179 
L 303.273587 22.040179 
L 309.089322 22.040179 
L 309.089322 22.040179 
L 314.905057 22.040179 
L 314.905057 22.040179 
L 320.720792 22.040179 
L 320.720792 22.040179 
L 326.536527 22.040179 
L 326.536527 22.040179 
L 332.352262 22.040179 
L 332.352262 22.040179 
L 338.167997 22.040179 
L 338.167997 22.040179 
L 343.983732 22.040179 
L 343.983732 246.84375 
" style="fill:none;stroke:#ff7f0e;stroke-linejoin:miter;stroke-width:0.5;"/>
   </g>
   <g id="patch_4">
    <path clip-path="url(#p16f47c6d99)" d="M 47.38125 246.84375 
L 47.38125 246.84375 
L 53.196985 246.84375 
L 53.196985 246.84375 
L 59.01272 246.84375 
L 59.01272 246.84375 
L 64.828455 246.84375 
L 64.828455 238.517692 
L 70.64419 238.517692 
L 70.64419 238.517692 
L 76.459925 238.517692 
L 76.459925 238.517692 
L 82.27566 238.517692 
L 82.27566 230.191634 
L 88.091395 230.191634 
L 88.091395 230.191634 
L 93.907129 230.191634 
L 93.907129 221.865575 
L 99.722864 221.865575 
L 99.722864 188.561343 
L 105.538599 188.561343 
L 105.538599 180.235284 
L 111.354334 180.235284 
L 111.354334 163.583168 
L 117.170069 163.583168 
L 117.170069 138.604993 
L 122.985804 138.604993 
L 122.985804 113.626819 
L 128.801539 113.626819 
L 128.801539 88.648644 
L 134.617274 88.648644 
L 134.617274 80.322586 
L 140.433009 80.322586 
L 140.433009 63.67047 
L 146.248744 63.67047 
L 146.248744 55.344411 
L 152.064479 55.344411 
L 152.064479 47.018353 
L 157.880214 47.018353 
L 157.880214 38.692295 
L 163.695949 38.692295 
L 163.695949 38.692295 
L 169.511684 38.692295 
L 169.511684 38.692295 
L 175.327419 38.692295 
L 175.327419 38.692295 
L 181.143153 38.692295 
L 181.143153 38.692295 
L 186.958888 38.692295 
L 186.958888 30.366237 
L 192.774623 30.366237 
L 192.774623 30.366237 
L 198.590358 30.366237 
L 198.590358 30.366237 
L 204.406093 30.366237 
L 204.406093 30.366237 
L 210.221828 30.366237 
L 210.221828 22.040179 
L 216.037563 22.040179 
L 216.037563 22.040179 
L 221.853298 22.040179 
L 221.853298 22.040179 
L 227.669033 22.040179 
L 227.669033 22.040179 
L 233.484768 22.040179 
L 233.484768 22.040179 
L 239.300503 22.040179 
L 239.300503 22.040179 
L 245.116238 22.040179 
L 245.116238 22.040179 
L 250.931973 22.040179 
L 250.931973 22.040179 
L 256.747708 22.040179 
L 256.747708 22.040179 
L 262.563443 22.040179 
L 262.563443 22.040179 
L 268.379177 22.040179 
L 268.379177 22.040179 
L 274.194912 22.040179 
L 274.194912 22.040179 
L 280.010647 22.040179 
L 280.010647 22.040179 
L 285.826382 22.040179 
L 285.826382 22.040179 
L 291.642117 22.040179 
L 291.642117 22.040179 
L 297.457852 22.040179 
L 297.457852 22.040179 
L 303.273587 22.040179 
L 303.273587 22.040179 
L 309.089322 22.040179 
L 309.089322 22.040179 
L 314.905057 22.040179 
L 314.905057 22.040179 
L 320.720792 22.040179 
L 320.720792 22.040179 
L 326.536527 22.040179 
L 326.536527 22.040179 
L 332.352262 22.040179 
L 332.352262 22.040179 
L 338.167997 22.040179 
L 338.167997 22.040179 
L 343.983732 22.040179 
L 343.983732 246.84375 
" style="fill:none;stroke:#ff7f0e;stroke-linejoin:miter;stroke-width:0.5;"/>
   </g>
   <g id="patch_5">
    <path clip-path="url(#p16f47c6d99)" d="M 47.38125 246.84375 
L 47.38125 246.84375 
L 53.196985 246.84375 
L 53.196985 246.84375 
L 59.01272 246.84375 
L 59.01272 246.84375 
L 64.828455 246.84375 
L 64.828455 246.84375 
L 70.64419 246.84375 
L 70.64419 246.84375 
L 76.459925 246.84375 
L 76.459925 229.551168 
L 82.27566 229.551168 
L 82.27566 229.551168 
L 88.091395 229.551168 
L 88.091395 212.258585 
L 93.907129 212.258585 
L 93.907129 194.966003 
L 99.722864 194.966003 
L 99.722864 177.67342 
L 105.538599 177.67342 
L 105.538599 160.380838 
L 111.354334 160.380838 
L 111.354334 160.380838 
L 117.170069 160.380838 
L 117.170069 143.088255 
L 122.985804 143.088255 
L 122.985804 143.088255 
L 128.801539 143.088255 
L 128.801539 91.210508 
L 134.617274 91.210508 
L 134.617274 73.917926 
L 140.433009 73.917926 
L 140.433009 56.625343 
L 146.248744 56.625343 
L 146.248744 56.625343 
L 152.064479 56.625343 
L 152.064479 39.332761 
L 157.880214 39.332761 
L 157.880214 39.332761 
L 163.695949 39.332761 
L 163.695949 39.332761 
L 169.511684 39.332761 
L 169.511684 22.040179 
L 175.327419 22.040179 
L 175.327419 22.040179 
L 181.143153 22.040179 
L 181.143153 22.040179 
L 186.958888 22.040179 
L 186.958888 22.040179 
L 192.774623 22.040179 
L 192.774623 22.040179 
L 198.590358 22.040179 
L 198.590358 22.040179 
L 204.406093 22.040179 
L 204.406093 22.040179 
L 210.221828 22.040179 
L 210.221828 22.040179 
L 216.037563 22.040179 
L 216.037563 22.040179 
L 221.853298 22.040179 
L 221.853298 22.040179 
L 227.669033 22.040179 
L 227.669033 22.040179 
L 233.484768 22.040179 
L 233.484768 22.040179 
L 239.300503 22.040179 
L 239.300503 22.040179 
L 245.116238 22.040179 
L 245.116238 22.040179 
L 250.931973 22.040179 
L 250.931973 22.040179 
L 256.747708 22.040179 
L 256.747708 22.040179 
L 262.563443 22.040179 
L 262.563443 22.040179 
L 268.379177 22.040179 
L 268.379177 22.040179 
L 274.194912 22.040179 
L 274.194912 22.040179 
L 280.010647 22.040179 
L 280.010647 22.040179 
L 285.826382 22.040179 
L 285.826382 22.040179 
L 291.642117 22.040179 
L 291.642117 22.040179 
L 297.457852 22.040179 
L 297.457852 22.040179 
L 303.273587 22.040179 
L 303.273587 22.040179 
L 309.089322 22.040179 
L 309.089322 22.040179 
L 314.905057 22.040179 
L 314.905057 22.040179 
L 320.720792 22.040179 
L 320.720792 22.040179 
L 326.536527 22.040179 
L 326.536527 22.040179 
L 332.352262 22.040179 
L 332.352262 22.040179 
L 338.167997 22.040179 
L 338.167997 22.040179 
L 343.983732 22.040179 
L 343.983732 246.84375 
" style="fill:none;stroke:#ff7f0e;stroke-linejoin:miter;stroke-width:0.5;"/>
   </g>
   <g id="patch_6">
    <path clip-path="url(#p16f47c6d99)" d="M 47.38125 246.84375 
L 47.38125 246.84375 
L 53.196985 246.84375 
L 53.196985 246.84375 
L 59.01272 246.84375 
L 59.01272 246.84375 
L 64.828455 246.84375 
L 64.828455 246.84375 
L 70.64419 246.84375 
L 70.64419 246.84375 
L 76.459925 246.84375 
L 76.459925 246.84375 
L 82.27566 246.84375 
L 82.27566 246.84375 
L 88.091395 246.84375 
L 88.091395 246.84375 
L 93.907129 246.84375 
L 93.907129 246.84375 
L 99.722864 246.84375 
L 99.722864 218.743304 
L 105.538599 218.743304 
L 105.538599 190.642857 
L 111.354334 190.642857 
L 111.354334 190.642857 
L 117.170069 190.642857 
L 117.170069 190.642857 
L 122.985804 190.642857 
L 122.985804 162.542411 
L 128.801539 162.542411 
L 128.801539 162.542411 
L 134.617274 162.542411 
L 134.617274 162.542411 
L 140.433009 162.542411 
L 140.433009 162.542411 
L 146.248744 162.542411 
L 146.248744 134.441964 
L 152.064479 134.441964 
L 152.064479 78.241071 
L 157.880214 78.241071 
L 157.880214 50.140625 
L 163.695949 50.140625 
L 163.695949 50.140625 
L 169.511684 50.140625 
L 169.511684 50.140625 
L 175.327419 50.140625 
L 175.327419 50.140625 
L 181.143153 50.140625 
L 181.143153 50.140625 
L 186.958888 50.140625 
L 186.958888 50.140625 
L 192.774623 50.140625 
L 192.774623 50.140625 
L 198.590358 50.140625 
L 198.590358 50.140625 
L 204.406093 50.140625 
L 204.406093 50.140625 
L 210.221828 50.140625 
L 210.221828 50.140625 
L 216.037563 50.140625 
L 216.037563 22.040179 
L 221.853298 22.040179 
L 221.853298 22.040179 
L 227.669033 22.040179 
L 227.669033 22.040179 
L 233.484768 22.040179 
L 233.484768 22.040179 
L 239.300503 22.040179 
L 239.300503 22.040179 
L 245.116238 22.040179 
L 245.116238 22.040179 
L 250.931973 22.040179 
L 250.931973 22.040179 
L 256.747708 22.040179 
L 256.747708 22.040179 
L 262.563443 22.040179 
L 262.563443 22.040179 
L 268.379177 22.040179 
L 268.379177 22.040179 
L 274.194912 22.040179 
L 274.194912 22.040179 
L 280.010647 22.040179 
L 280.010647 22.040179 
L 285.826382 22.040179 
L 285.826382 22.040179 
L 291.642117 22.040179 
L 291.642117 22.040179 
L 297.457852 22.040179 
L 297.457852 22.040179 
L 303.273587 22.040179 
L 303.273587 22.040179 
L 309.089322 22.040179 
L 309.089322 22.040179 
L 314.905057 22.040179 
L 314.905057 22.040179 
L 320.720792 22.040179 
L 320.720792 22.040179 
L 326.536527 22.040179 
L 326.536527 22.040179 
L 332.352262 22.040179 
L 332.352262 22.040179 
L 338.167997 22.040179 
L 338.167997 22.040179 
L 343.983732 22.040179 
L 343.983732 246.84375 
" style="fill:none;stroke:#ff7f0e;stroke-linejoin:miter;stroke-width:0.5;"/>
   </g>
   <g id="patch_7">
    <path clip-path="url(#p16f47c6d99)" d="M 47.38125 246.84375 
L 47.38125 246.84375 
L 53.196985 246.84375 
L 53.196985 246.84375 
L 59.01272 246.84375 
L 59.01272 246.84375 
L 64.828455 246.84375 
L 64.828455 246.84375 
L 70.64419 246.84375 
L 70.64419 246.84375 
L 76.459925 246.84375 
L 76.459925 246.84375 
L 82.27566 246.84375 
L 82.27566 171.909226 
L 88.091395 171.909226 
L 88.091395 171.909226 
L 93.907129 171.909226 
L 93.907129 96.974702 
L 99.722864 96.974702 
L 99.722864 22.040179 
L 105.538599 22.040179 
L 105.538599 22.040179 
L 111.354334 22.040179 
L 111.354334 22.040179 
L 117.170069 22.040179 
L 117.170069 22.040179 
L 122.985804 22.040179 
L 122.985804 22.040179 
L 128.801539 22.040179 
L 128.801539 22.040179 
L 134.617274 22.040179 
L 134.617274 22.040179 
L 140.433009 22.040179 
L 140.433009 22.040179 
L 146.248744 22.040179 
L 146.248744 22.040179 
L 152.064479 22.040179 
L 152.064479 22.040179 
L 157.880214 22.040179 
L 157.880214 22.040179 
L 163.695949 22.040179 
L 163.695949 22.040179 
L 169.511684 22.040179 
L 169.511684 22.040179 
L 175.327419 22.040179 
L 175.327419 22.040179 
L 181.143153 22.040179 
L 181.143153 22.040179 
L 186.958888 22.040179 
L 186.958888 22.040179 
L 192.774623 22.040179 
L 192.774623 22.040179 
L 198.590358 22.040179 
L 198.590358 22.040179 
L 204.406093 22.040179 
L 204.406093 22.040179 
L 210.221828 22.040179 
L 210.221828 22.040179 
L 216.037563 22.040179 
L 216.037563 22.040179 
L 221.853298 22.040179 
L 221.853298 22.040179 
L 227.669033 22.040179 
L 227.669033 22.040179 
L 233.484768 22.040179 
L 233.484768 22.040179 
L 239.300503 22.040179 
L 239.300503 22.040179 
L 245.116238 22.040179 
L 245.116238 22.040179 
L 250.931973 22.040179 
L 250.931973 22.040179 
L 256.747708 22.040179 
L 256.747708 22.040179 
L 262.563443 22.040179 
L 262.563443 22.040179 
L 268.379177 22.040179 
L 268.379177 22.040179 
L 274.194912 22.040179 
L 274.194912 22.040179 
L 280.010647 22.040179 
L 280.010647 22.040179 
L 285.826382 22.040179 
L 285.826382 22.040179 
L 291.642117 22.040179 
L 291.642117 22.040179 
L 297.457852 22.040179 
L 297.457852 22.040179 
L 303.273587 22.040179 
L 303.273587 22.040179 
L 309.089322 22.040179 
L 309.089322 22.040179 
L 314.905057 22.040179 
L 314.905057 22.040179 
L 320.720792 22.040179 
L 320.720792 22.040179 
L 326.536527 22.040179 
L 326.536527 22.040179 
L 332.352262 22.040179 
L 332.352262 22.040179 
L 338.167997 22.040179 
L 338.167997 22.040179 
L 343.983732 22.040179 
L 343.983732 246.84375 
" style="fill:none;stroke:#ff7f0e;stroke-linejoin:miter;stroke-width:0.5;"/>
   </g>
   <g id="patch_8">
    <path clip-path="url(#p16f47c6d99)" d="M 47.38125 246.84375 
L 47.38125 246.84375 
L 53.196985 246.84375 
L 53.196985 246.84375 
L 59.01272 246.84375 
L 59.01272 246.84375 
L 64.828455 246.84375 
L 64.828455 246.84375 
L 70.64419 246.84375 
L 70.64419 246.84375 
L 76.459925 246.84375 
L 76.459925 246.84375 
L 82.27566 246.84375 
L 82.27566 246.84375 
L 88.091395 246.84375 
L 88.091395 246.84375 
L 93.907129 246.84375 
L 93.907129 246.84375 
L 99.722864 246.84375 
L 99.722864 246.84375 
L 105.538599 246.84375 
L 105.538599 246.84375 
L 111.354334 246.84375 
L 111.354334 182.614158 
L 117.170069 182.614158 
L 117.170069 182.614158 
L 122.985804 182.614158 
L 122.985804 182.614158 
L 128.801539 182.614158 
L 128.801539 150.499362 
L 134.617274 150.499362 
L 134.617274 150.499362 
L 140.433009 150.499362 
L 140.433009 118.384566 
L 146.248744 118.384566 
L 146.248744 118.384566 
L 152.064479 118.384566 
L 152.064479 54.154974 
L 157.880214 54.154974 
L 157.880214 54.154974 
L 163.695949 54.154974 
L 163.695949 54.154974 
L 169.511684 54.154974 
L 169.511684 54.154974 
L 175.327419 54.154974 
L 175.327419 54.154974 
L 181.143153 54.154974 
L 181.143153 54.154974 
L 186.958888 54.154974 
L 186.958888 54.154974 
L 192.774623 54.154974 
L 192.774623 54.154974 
L 198.590358 54.154974 
L 198.590358 54.154974 
L 204.406093 54.154974 
L 204.406093 54.154974 
L 210.221828 54.154974 
L 210.221828 54.154974 
L 216.037563 54.154974 
L 216.037563 54.154974 
L 221.853298 54.154974 
L 221.853298 22.040179 
L 227.669033 22.040179 
L 227.669033 22.040179 
L 233.484768 22.040179 
L 233.484768 22.040179 
L 239.300503 22.040179 
L 239.300503 22.040179 
L 245.116238 22.040179 
L 245.116238 22.040179 
L 250.931973 22.040179 
L 250.931973 22.040179 
L 256.747708 22.040179 
L 256.747708 22.040179 
L 262.563443 22.040179 
L 262.563443 22.040179 
L 268.379177 22.040179 
L 268.379177 22.040179 
L 274.194912 22.040179 
L 274.194912 22.040179 
L 280.010647 22.040179 
L 280.010647 22.040179 
L 285.826382 22.040179 
L 285.826382 22.040179 
L 291.642117 22.040179 
L 291.642117 22.040179 
L 297.457852 22.040179 
L 297.457852 22.040179 
L 303.273587 22.040179 
L 303.273587 22.040179 
L 309.089322 22.040179 
L 309.089322 22.040179 
L 314.905057 22.040179 
L 314.905057 22.040179 
L 320.720792 22.040179 
L 320.720792 22.040179 
L 326.536527 22.040179 
L 326.536527 22.040179 
L 332.352262 22.040179 
L 332.352262 22.040179 
L 338.167997 22.040179 
L 338.167997 22.040179 
L 343.983732 22.040179 
L 343.983732 246.84375 
" style="fill:none;stroke:#ff7f0e;stroke-linejoin:miter;stroke-width:0.5;"/>
   </g>
   <g id="patch_9">
    <path clip-path="url(#p16f47c6d99)" d="M 47.38125 246.84375 
L 47.38125 246.84375 
L 53.196985 246.84375 
L 53.196985 246.84375 
L 59.01272 246.84375 
L 59.01272 246.84375 
L 64.828455 246.84375 
L 64.828455 246.84375 
L 70.64419 246.84375 
L 70.64419 246.84375 
L 76.459925 246.84375 
L 76.459925 246.84375 
L 82.27566 246.84375 
L 82.27566 246.84375 
L 88.091395 246.84375 
L 88.091395 246.84375 
L 93.907129 246.84375 
L 93.907129 246.84375 
L 99.722864 246.84375 
L 99.722864 246.84375 
L 105.538599 246.84375 
L 105.538599 246.84375 
L 111.354334 246.84375 
L 111.354334 209.376488 
L 117.170069 209.376488 
L 117.170069 171.909226 
L 122.985804 171.909226 
L 122.985804 134.441964 
L 128.801539 134.441964 
L 128.801539 134.441964 
L 134.617274 134.441964 
L 134.617274 96.974702 
L 140.433009 96.974702 
L 140.433009 59.50744 
L 146.248744 59.50744 
L 146.248744 59.50744 
L 152.064479 59.50744 
L 152.064479 59.50744 
L 157.880214 59.50744 
L 157.880214 59.50744 
L 163.695949 59.50744 
L 163.695949 59.50744 
L 169.511684 59.50744 
L 169.511684 22.040179 
L 175.327419 22.040179 
L 175.327419 22.040179 
L 181.143153 22.040179 
L 181.143153 22.040179 
L 186.958888 22.040179 
L 186.958888 22.040179 
L 192.774623 22.040179 
L 192.774623 22.040179 
L 198.590358 22.040179 
L 198.590358 22.040179 
L 204.406093 22.040179 
L 204.406093 22.040179 
L 210.221828 22.040179 
L 210.221828 22.040179 
L 216.037563 22.040179 
L 216.037563 22.040179 
L 221.853298 22.040179 
L 221.853298 22.040179 
L 227.669033 22.040179 
L 227.669033 22.040179 
L 233.484768 22.040179 
L 233.484768 22.040179 
L 239.300503 22.040179 
L 239.300503 22.040179 
L 245.116238 22.040179 
L 245.116238 22.040179 
L 250.931973 22.040179 
L 250.931973 22.040179 
L 256.747708 22.040179 
L 256.747708 22.040179 
L 262.563443 22.040179 
L 262.563443 22.040179 
L 268.379177 22.040179 
L 268.379177 22.040179 
L 274.194912 22.040179 
L 274.194912 22.040179 
L 280.010647 22.040179 
L 280.010647 22.040179 
L 285.826382 22.040179 
L 285.826382 22.040179 
L 291.642117 22.040179 
L 291.642117 22.040179 
L 297.457852 22.040179 
L 297.457852 22.040179 
L 303.273587 22.040179 
L 303.273587 22.040179 
L 309.089322 22.040179 
L 309.089322 22.040179 
L 314.905057 22.040179 
L 314.905057 22.040179 
L 320.720792 22.040179 
L 320.720792 22.040179 
L 326.536527 22.040179 
L 326.536527 22.040179 
L 332.352262 22.040179 
L 332.352262 22.040179 
L 338.167997 22.040179 
L 338.167997 22.040179 
L 343.983732 22.040179 
L 343.983732 246.84375 
" style="fill:none;stroke:#ff7f0e;stroke-linejoin:miter;stroke-width:0.5;"/>
   </g>
   <g id="patch_10">
    <path clip-path="url(#p16f47c6d99)" d="M 47.38125 246.84375 
L 47.38125 246.84375 
L 53.196985 246.84375 
L 53.196985 246.84375 
L 59.01272 246.84375 
L 59.01272 246.84375 
L 64.828455 246.84375 
L 64.828455 246.84375 
L 70.64419 246.84375 
L 70.64419 246.84375 
L 76.459925 246.84375 
L 76.459925 246.84375 
L 82.27566 246.84375 
L 82.27566 246.84375 
L 88.091395 246.84375 
L 88.091395 242.255922 
L 93.907129 242.255922 
L 93.907129 242.255922 
L 99.722864 242.255922 
L 99.722864 233.080266 
L 105.538599 233.080266 
L 105.538599 228.492438 
L 111.354334 228.492438 
L 111.354334 214.728954 
L 117.170069 214.728954 
L 117.170069 132.14805 
L 122.985804 132.14805 
L 122.985804 109.20891 
L 128.801539 109.20891 
L 128.801539 95.445426 
L 134.617274 95.445426 
L 134.617274 81.681942 
L 140.433009 81.681942 
L 140.433009 67.918458 
L 146.248744 67.918458 
L 146.248744 58.742802 
L 152.064479 58.742802 
L 152.064479 40.391491 
L 157.880214 40.391491 
L 157.880214 40.391491 
L 163.695949 40.391491 
L 163.695949 35.803663 
L 169.511684 35.803663 
L 169.511684 35.803663 
L 175.327419 35.803663 
L 175.327419 35.803663 
L 181.143153 35.803663 
L 181.143153 31.215835 
L 186.958888 31.215835 
L 186.958888 31.215835 
L 192.774623 31.215835 
L 192.774623 31.215835 
L 198.590358 31.215835 
L 198.590358 26.628007 
L 204.406093 26.628007 
L 204.406093 26.628007 
L 210.221828 26.628007 
L 210.221828 22.040179 
L 216.037563 22.040179 
L 216.037563 22.040179 
L 221.853298 22.040179 
L 221.853298 22.040179 
L 227.669033 22.040179 
L 227.669033 22.040179 
L 233.484768 22.040179 
L 233.484768 22.040179 
L 239.300503 22.040179 
L 239.300503 22.040179 
L 245.116238 22.040179 
L 245.116238 22.040179 
L 250.931973 22.040179 
L 250.931973 22.040179 
L 256.747708 22.040179 
L 256.747708 22.040179 
L 262.563443 22.040179 
L 262.563443 22.040179 
L 268.379177 22.040179 
L 268.379177 22.040179 
L 274.194912 22.040179 
L 274.194912 22.040179 
L 280.010647 22.040179 
L 280.010647 22.040179 
L 285.826382 22.040179 
L 285.826382 22.040179 
L 291.642117 22.040179 
L 291.642117 22.040179 
L 297.457852 22.040179 
L 297.457852 22.040179 
L 303.273587 22.040179 
L 303.273587 22.040179 
L 309.089322 22.040179 
L 309.089322 22.040179 
L 314.905057 22.040179 
L 314.905057 22.040179 
L 320.720792 22.040179 
L 320.720792 22.040179 
L 326.536527 22.040179 
L 326.536527 22.040179 
L 332.352262 22.040179 
L 332.352262 22.040179 
L 338.167997 22.040179 
L 338.167997 22.040179 
L 343.983732 22.040179 
L 343.983732 246.84375 
" style="fill:none;stroke:#ff7f0e;stroke-linejoin:miter;stroke-width:0.5;"/>
   </g>
   <g id="patch_11">
    <path clip-path="url(#p16f47c6d99)" d="M 47.38125 246.84375 
L 47.38125 246.84375 
L 53.196985 246.84375 
L 53.196985 246.84375 
L 59.01272 246.84375 
L 59.01272 246.84375 
L 64.828455 246.84375 
L 64.828455 246.84375 
L 70.64419 246.84375 
L 70.64419 246.84375 
L 76.459925 246.84375 
L 76.459925 246.84375 
L 82.27566 246.84375 
L 82.27566 218.743304 
L 88.091395 218.743304 
L 88.091395 218.743304 
L 93.907129 218.743304 
L 93.907129 162.542411 
L 99.722864 162.542411 
L 99.722864 162.542411 
L 105.538599 162.542411 
L 105.538599 162.542411 
L 111.354334 162.542411 
L 111.354334 78.241071 
L 117.170069 78.241071 
L 117.170069 78.241071 
L 122.985804 78.241071 
L 122.985804 78.241071 
L 128.801539 78.241071 
L 128.801539 78.241071 
L 134.617274 78.241071 
L 134.617274 50.140625 
L 140.433009 50.140625 
L 140.433009 50.140625 
L 146.248744 50.140625 
L 146.248744 50.140625 
L 152.064479 50.140625 
L 152.064479 50.140625 
L 157.880214 50.140625 
L 157.880214 22.040179 
L 163.695949 22.040179 
L 163.695949 22.040179 
L 169.511684 22.040179 
L 169.511684 22.040179 
L 175.327419 22.040179 
L 175.327419 22.040179 
L 181.143153 22.040179 
L 181.143153 22.040179 
L 186.958888 22.040179 
L 186.958888 22.040179 
L 192.774623 22.040179 
L 192.774623 22.040179 
L 198.590358 22.040179 
L 198.590358 22.040179 
L 204.406093 22.040179 
L 204.406093 22.040179 
L 210.221828 22.040179 
L 210.221828 22.040179 
L 216.037563 22.040179 
L 216.037563 22.040179 
L 221.853298 22.040179 
L 221.853298 22.040179 
L 227.669033 22.040179 
L 227.669033 22.040179 
L 233.484768 22.040179 
L 233.484768 22.040179 
L 239.300503 22.040179 
L 239.300503 22.040179 
L 245.116238 22.040179 
L 245.116238 22.040179 
L 250.931973 22.040179 
L 250.931973 22.040179 
L 256.747708 22.040179 
L 256.747708 22.040179 
L 262.563443 22.040179 
L 262.563443 22.040179 
L 268.379177 22.040179 
L 268.379177 22.040179 
L 274.194912 22.040179 
L 274.194912 22.040179 
L 280.010647 22.040179 
L 280.010647 22.040179 
L 285.826382 22.040179 
L 285.826382 22.040179 
L 291.642117 22.040179 
L 291.642117 22.040179 
L 297.457852 22.040179 
L 297.457852 22.040179 
L 303.273587 22.040179 
L 303.273587 22.040179 
L 309.089322 22.040179 
L 309.089322 22.040179 
L 314.905057 22.040179 
L 314.905057 22.040179 
L 320.720792 22.040179 
L 320.720792 22.040179 
L 326.536527 22.040179 
L 326.536527 22.040179 
L 332.352262 22.040179 
L 332.352262 22.040179 
L 338.167997 22.040179 
L 338.167997 22.040179 
L 343.983732 22.040179 
L 343.983732 246.84375 
" style="fill:none;stroke:#ff7f0e;stroke-linejoin:miter;stroke-width:0.5;"/>
   </g>
   <g id="patch_12">
    <path clip-path="url(#p16f47c6d99)" d="M 47.38125 246.84375 
L 47.38125 246.84375 
L 53.196985 246.84375 
L 53.196985 246.84375 
L 59.01272 246.84375 
L 59.01272 246.84375 
L 64.828455 246.84375 
L 64.828455 246.84375 
L 70.64419 246.84375 
L 70.64419 241.079556 
L 76.459925 241.079556 
L 76.459925 241.079556 
L 82.27566 241.079556 
L 82.27566 235.315362 
L 88.091395 235.315362 
L 88.091395 212.258585 
L 93.907129 212.258585 
L 93.907129 212.258585 
L 99.722864 212.258585 
L 99.722864 200.730197 
L 105.538599 200.730197 
L 105.538599 200.730197 
L 111.354334 200.730197 
L 111.354334 200.730197 
L 117.170069 200.730197 
L 117.170069 189.201809 
L 122.985804 189.201809 
L 122.985804 189.201809 
L 128.801539 189.201809 
L 128.801539 183.437614 
L 134.617274 183.437614 
L 134.617274 177.67342 
L 140.433009 177.67342 
L 140.433009 177.67342 
L 146.248744 177.67342 
L 146.248744 171.909226 
L 152.064479 171.909226 
L 152.064479 171.909226 
L 157.880214 171.909226 
L 157.880214 171.909226 
L 163.695949 171.909226 
L 163.695949 154.616644 
L 169.511684 154.616644 
L 169.511684 143.088255 
L 175.327419 143.088255 
L 175.327419 120.031479 
L 181.143153 120.031479 
L 181.143153 108.503091 
L 186.958888 108.503091 
L 186.958888 85.446314 
L 192.774623 85.446314 
L 192.774623 73.917926 
L 198.590358 73.917926 
L 198.590358 45.096955 
L 204.406093 45.096955 
L 204.406093 33.568567 
L 210.221828 33.568567 
L 210.221828 27.804373 
L 216.037563 27.804373 
L 216.037563 27.804373 
L 221.853298 27.804373 
L 221.853298 27.804373 
L 227.669033 27.804373 
L 227.669033 27.804373 
L 233.484768 27.804373 
L 233.484768 27.804373 
L 239.300503 27.804373 
L 239.300503 27.804373 
L 245.116238 27.804373 
L 245.116238 27.804373 
L 250.931973 27.804373 
L 250.931973 27.804373 
L 256.747708 27.804373 
L 256.747708 27.804373 
L 262.563443 27.804373 
L 262.563443 27.804373 
L 268.379177 27.804373 
L 268.379177 27.804373 
L 274.194912 27.804373 
L 274.194912 27.804373 
L 280.010647 27.804373 
L 280.010647 27.804373 
L 285.826382 27.804373 
L 285.826382 22.040179 
L 291.642117 22.040179 
L 291.642117 22.040179 
L 297.457852 22.040179 
L 297.457852 22.040179 
L 303.273587 22.040179 
L 303.273587 22.040179 
L 309.089322 22.040179 
L 309.089322 22.040179 
L 314.905057 22.040179 
L 314.905057 22.040179 
L 320.720792 22.040179 
L 320.720792 22.040179 
L 326.536527 22.040179 
L 326.536527 22.040179 
L 332.352262 22.040179 
L 332.352262 22.040179 
L 338.167997 22.040179 
L 338.167997 22.040179 
L 343.983732 22.040179 
L 343.983732 246.84375 
" style="fill:none;stroke:#1f77b4;stroke-linejoin:miter;stroke-width:2;"/>
   </g>
   <g id="patch_13">
    <path clip-path="url(#p16f47c6d99)" d="M 47.38125 246.84375 
L 47.38125 246.84375 
L 53.196985 246.84375 
L 53.196985 246.84375 
L 59.01272 246.84375 
L 59.01272 246.84375 
L 64.828455 246.84375 
L 64.828455 245.059595 
L 70.64419 245.059595 
L 70.64419 245.059595 
L 76.459925 245.059595 
L 76.459925 243.275439 
L 82.27566 243.275439 
L 82.27566 237.922973 
L 88.091395 237.922973 
L 88.091395 234.354663 
L 93.907129 234.354663 
L 93.907129 225.433886 
L 99.722864 225.433886 
L 99.722864 209.376488 
L 105.538599 209.376488 
L 105.538599 200.455711 
L 111.354334 200.455711 
L 111.354334 179.045848 
L 117.170069 179.045848 
L 117.170069 136.22612 
L 122.985804 136.22612 
L 122.985804 118.384566 
L 128.801539 118.384566 
L 128.801539 100.543013 
L 134.617274 100.543013 
L 134.617274 88.053926 
L 140.433009 88.053926 
L 140.433009 73.780683 
L 146.248744 73.780683 
L 146.248744 66.644062 
L 152.064479 66.644062 
L 152.064479 47.018353 
L 157.880214 47.018353 
L 157.880214 39.881732 
L 163.695949 39.881732 
L 163.695949 38.097577 
L 169.511684 38.097577 
L 169.511684 34.529266 
L 175.327419 34.529266 
L 175.327419 34.529266 
L 181.143153 34.529266 
L 181.143153 32.745111 
L 186.958888 32.745111 
L 186.958888 30.960955 
L 192.774623 30.960955 
L 192.774623 30.960955 
L 198.590358 30.960955 
L 198.590358 29.1768 
L 204.406093 29.1768 
L 204.406093 29.1768 
L 210.221828 29.1768 
L 210.221828 25.608489 
L 216.037563 25.608489 
L 216.037563 23.824334 
L 221.853298 23.824334 
L 221.853298 22.040179 
L 227.669033 22.040179 
L 227.669033 22.040179 
L 233.484768 22.040179 
L 233.484768 22.040179 
L 239.300503 22.040179 
L 239.300503 22.040179 
L 245.116238 22.040179 
L 245.116238 22.040179 
L 250.931973 22.040179 
L 250.931973 22.040179 
L 256.747708 22.040179 
L 256.747708 22.040179 
L 262.563443 22.040179 
L 262.563443 22.040179 
L 268.379177 22.040179 
L 268.379177 22.040179 
L 274.194912 22.040179 
L 274.194912 22.040179 
L 280.010647 22.040179 
L 280.010647 22.040179 
L 285.826382 22.040179 
L 285.826382 22.040179 
L 291.642117 22.040179 
L 291.642117 22.040179 
L 297.457852 22.040179 
L 297.457852 22.040179 
L 303.273587 22.040179 
L 303.273587 22.040179 
L 309.089322 22.040179 
L 309.089322 22.040179 
L 314.905057 22.040179 
L 314.905057 22.040179 
L 320.720792 22.040179 
L 320.720792 22.040179 
L 326.536527 22.040179 
L 326.536527 22.040179 
L 332.352262 22.040179 
L 332.352262 22.040179 
L 338.167997 22.040179 
L 338.167997 22.040179 
L 343.983732 22.040179 
L 343.983732 246.84375 
" style="fill:none;stroke:#ff7f0e;stroke-linejoin:miter;stroke-width:2;"/>
   </g>
   <g id="patch_14">
    <path d="M 47.38125 246.84375 
L 47.38125 10.8 
" style="fill:none;stroke:#000000;stroke-linecap:square;stroke-linejoin:miter;stroke-width:0.8;"/>
   </g>
   <g id="patch_15">
    <path d="M 343.983732 246.84375 
L 343.983732 10.8 
" style="fill:none;stroke:#000000;stroke-linecap:square;stroke-linejoin:miter;stroke-width:0.8;"/>
   </g>
   <g id="patch_16">
    <path d="M 47.38125 246.84375 
L 343.983732 246.84375 
" style="fill:none;stroke:#000000;stroke-linecap:square;stroke-linejoin:miter;stroke-width:0.8;"/>
   </g>
   <g id="patch_17">
    <path d="M 47.38125 10.8 
L 343.983732 10.8 
" style="fill:none;stroke:#000000;stroke-linecap:square;stroke-linejoin:miter;stroke-width:0.8;"/>
   </g>
   <g id="legend_1">
    <g id="patch_18">
     <path d="M 265.325919 241.84375 
L 336.983732 241.84375 
Q 338.983732 241.84375 338.983732 239.84375 
L 338.983732 211.4875 
Q 338.983732 209.4875 336.983732 209.4875 
L 265.325919 209.4875 
Q 263.325919 209.4875 263.325919 211.4875 
L 263.325919 239.84375 
Q 263.325919 241.84375 265.325919 241.84375 
z
" style="fill:#ffffff;opacity:0.8;stroke:#cccccc;stroke-linejoin:miter;"/>
    </g>
    <g id="patch_19">
     <path d="M 267.325919 221.085938 
L 287.325919 221.085938 
L 287.325919 214.085938 
L 267.325919 214.085938 
z
" style="fill:none;stroke:#1f77b4;stroke-linejoin:miter;stroke-width:2;"/>
    </g>
    <g id="text_15">
     <!-- MM -->
     <g transform="translate(295.325919 221.085938)scale(0.1 -0.1)">
      <defs>
       <path d="M 9.8125 72.90625 
L 24.515625 72.90625 
L 43.109375 23.296875 
L 61.8125 72.90625 
L 76.515625 72.90625 
L 76.515625 0 
L 66.890625 0 
L 66.890625 64.015625 
L 48.09375 14.015625 
L 38.1875 14.015625 
L 19.390625 64.015625 
L 19.390625 0 
L 9.8125 0 
z
" id="DejaVuSans-77"/>
      </defs>
      <use xlink:href="#DejaVuSans-77"/>
      <use x="86.279297" xlink:href="#DejaVuSans-77"/>
     </g>
    </g>
    <g id="patch_20">
     <path d="M 267.325919 235.764062 
L 287.325919 235.764062 
L 287.325919 228.764062 
L 267.325919 228.764062 
z
" style="fill:none;stroke:#ff7f0e;stroke-linejoin:miter;stroke-width:2;"/>
    </g>
    <g id="text_16">
     <!-- non-MM -->
     <g transform="translate(295.325919 235.764062)scale(0.1 -0.1)">
      <defs>
       <path d="M 54.890625 33.015625 
L 54.890625 0 
L 45.90625 0 
L 45.90625 32.71875 
Q 45.90625 40.484375 42.875 44.328125 
Q 39.84375 48.1875 33.796875 48.1875 
Q 26.515625 48.1875 22.3125 43.546875 
Q 18.109375 38.921875 18.109375 30.90625 
L 18.109375 0 
L 9.078125 0 
L 9.078125 54.6875 
L 18.109375 54.6875 
L 18.109375 46.1875 
Q 21.34375 51.125 25.703125 53.5625 
Q 30.078125 56 35.796875 56 
Q 45.21875 56 50.046875 50.171875 
Q 54.890625 44.34375 54.890625 33.015625 
z
" id="DejaVuSans-110"/>
       <path d="M 4.890625 31.390625 
L 31.203125 31.390625 
L 31.203125 23.390625 
L 4.890625 23.390625 
z
" id="DejaVuSans-45"/>
      </defs>
      <use xlink:href="#DejaVuSans-110"/>
      <use x="63.378906" xlink:href="#DejaVuSans-111"/>
      <use x="124.560547" xlink:href="#DejaVuSans-110"/>
      <use x="187.939453" xlink:href="#DejaVuSans-45"/>
      <use x="224.023438" xlink:href="#DejaVuSans-77"/>
      <use x="310.302734" xlink:href="#DejaVuSans-77"/>
     </g>
    </g>
   </g>
  </g>
 </g>
 <defs>
  <clipPath id="p16f47c6d99">
   <rect height="236.04375" width="296.602482" x="47.38125" y="10.8"/>
  </clipPath>
 </defs>
</svg>
