<?xml version="1.0" encoding="utf-8" standalone="no"?>
<!DOCTYPE svg PUBLIC "-//W3C//DTD SVG 1.1//EN"
  "http://www.w3.org/Graphics/SVG/1.1/DTD/svg11.dtd">
<svg xmlns:xlink="http://www.w3.org/1999/xlink" width="360pt" height="288pt" viewBox="0 0 360 288" xmlns="http://www.w3.org/2000/svg" version="1.1">
 <metadata>
  <rdf:RDF xmlns:dc="http://purl.org/dc/elements/1.1/" xmlns:cc="http://creativecommons.org/ns#" xmlns:rdf="http://www.w3.org/1999/02/22-rdf-syntax-ns#">
   <cc:Work>
    <dc:type rdf:resource="http://purl.org/dc/dcmitype/StillImage"/>
    <dc:date>2021-12-27</dc:date>
    <dc:format>image/svg+xml</dc:format>
    <dc:creator>
     <cc:Agent>
      <dc:title>Matplotlib v3.6.3, https://matplotlib.org/</dc:title>
     </cc:Agent>
    </dc:creator>
    <dc:contributor>
     <cc:Agent>
      <dc:title>T. Dunn</dc:title>
     </cc:Agent>
    </dc:contributor>
   </cc:Work>
  </rdf:RDF>
 </metadata>
 <defs>
  <style type="text/css">*{stroke-linejoin: round; stroke-linecap: butt}</style>
 </defs>
 <g id="figure_1">
  <g id="patch_1">
   <path d="M 0 288 
L 360 288 
L 360 0 
L 0 0 
z
" style="fill: #ffffff"/>
  </g>
  <g id="axes_1">
   <g id="patch_2">
    <path d="M 47.38125 246.84375 
L 341.248437 246.84375 
L 341.248437 10.8 
L 47.38125 10.8 
z
" style="fill: #ffffff"/>
   </g>
   <g id="matplotlib.axis_1">
    <g id="xtick_1">
     <g id="line2d_1">
      <defs>
       <path id="m21cc90b556" d="M 0 0 
L 0 3.5 
" style="stroke: #000000; stroke-width: 0.8"/>
      </defs>
      <g>
       <use xlink:href="#m21cc90b556" x="47.38125" y="246.84375" style="stroke: #000000; stroke-width: 0.8"/>
      </g>
     </g>
     <g id="text_1">
      <!-- 0.5 -->
      <g transform="translate(39.429688 261.442187) scale(0.1 -0.1)">
       <defs>
        <path id="DejaVuSans-30" d="M 2034 4250 
Q 1547 4250 1301 3770 
Q 1056 3291 1056 2328 
Q 1056 1369 1301 889 
Q 1547 409 2034 409 
Q 2525 409 2770 889 
Q 3016 1369 3016 2328 
Q 3016 3291 2770 3770 
Q 2525 4250 2034 4250 
z
M 2034 4750 
Q 2819 4750 3233 4129 
Q 3647 3509 3647 2328 
Q 3647 1150 3233 529 
Q 2819 -91 2034 -91 
Q 1250 -91 836 529 
Q 422 1150 422 2328 
Q 422 3509 836 4129 
Q 1250 4750 2034 4750 
z
" transform="scale(0.015625)"/>
        <path id="DejaVuSans-2e" d="M 684 794 
L 1344 794 
L 1344 0 
L 684 0 
L 684 794 
z
" transform="scale(0.015625)"/>
        <path id="DejaVuSans-35" d="M 691 4666 
L 3169 4666 
L 3169 4134 
L 1269 4134 
L 1269 2991 
Q 1406 3038 1543 3061 
Q 1681 3084 1819 3084 
Q 2600 3084 3056 2656 
Q 3513 2228 3513 1497 
Q 3513 744 3044 326 
Q 2575 -91 1722 -91 
Q 1428 -91 1123 -41 
Q 819 9 494 109 
L 494 744 
Q 775 591 1075 516 
Q 1375 441 1709 441 
Q 2250 441 2565 725 
Q 2881 1009 2881 1497 
Q 2881 1984 2565 2268 
Q 2250 2553 1709 2553 
Q 1456 2553 1204 2497 
Q 953 2441 691 2322 
L 691 4666 
z
" transform="scale(0.015625)"/>
       </defs>
       <use xlink:href="#DejaVuSans-30"/>
       <use xlink:href="#DejaVuSans-2e" x="63.623047"/>
       <use xlink:href="#DejaVuSans-35" x="95.410156"/>
      </g>
     </g>
    </g>
    <g id="xtick_2">
     <g id="line2d_2">
      <g>
       <use xlink:href="#m21cc90b556" x="106.154687" y="246.84375" style="stroke: #000000; stroke-width: 0.8"/>
      </g>
     </g>
     <g id="text_2">
      <!-- 1.0 -->
      <g transform="translate(98.203125 261.442187) scale(0.1 -0.1)">
       <defs>
        <path id="DejaVuSans-31" d="M 794 531 
L 1825 531 
L 1825 4091 
L 703 3866 
L 703 4441 
L 1819 4666 
L 2450 4666 
L 2450 531 
L 3481 531 
L 3481 0 
L 794 0 
L 794 531 
z
" transform="scale(0.015625)"/>
       </defs>
       <use xlink:href="#DejaVuSans-31"/>
       <use xlink:href="#DejaVuSans-2e" x="63.623047"/>
       <use xlink:href="#DejaVuSans-30" x="95.410156"/>
      </g>
     </g>
    </g>
    <g id="xtick_3">
     <g id="line2d_3">
      <g>
       <use xlink:href="#m21cc90b556" x="164.928125" y="246.84375" style="stroke: #000000; stroke-width: 0.8"/>
      </g>
     </g>
     <g id="text_3">
      <!-- 1.5 -->
      <g transform="translate(156.976562 261.442187) scale(0.1 -0.1)">
       <use xlink:href="#DejaVuSans-31"/>
       <use xlink:href="#DejaVuSans-2e" x="63.623047"/>
       <use xlink:href="#DejaVuSans-35" x="95.410156"/>
      </g>
     </g>
    </g>
    <g id="xtick_4">
     <g id="line2d_4">
      <g>
       <use xlink:href="#m21cc90b556" x="223.701562" y="246.84375" style="stroke: #000000; stroke-width: 0.8"/>
      </g>
     </g>
     <g id="text_4">
      <!-- 2.0 -->
      <g transform="translate(215.75 261.442187) scale(0.1 -0.1)">
       <defs>
        <path id="DejaVuSans-32" d="M 1228 531 
L 3431 531 
L 3431 0 
L 469 0 
L 469 531 
Q 828 903 1448 1529 
Q 2069 2156 2228 2338 
Q 2531 2678 2651 2914 
Q 2772 3150 2772 3378 
Q 2772 3750 2511 3984 
Q 2250 4219 1831 4219 
Q 1534 4219 1204 4116 
Q 875 4013 500 3803 
L 500 4441 
Q 881 4594 1212 4672 
Q 1544 4750 1819 4750 
Q 2544 4750 2975 4387 
Q 3406 4025 3406 3419 
Q 3406 3131 3298 2873 
Q 3191 2616 2906 2266 
Q 2828 2175 2409 1742 
Q 1991 1309 1228 531 
z
" transform="scale(0.015625)"/>
       </defs>
       <use xlink:href="#DejaVuSans-32"/>
       <use xlink:href="#DejaVuSans-2e" x="63.623047"/>
       <use xlink:href="#DejaVuSans-30" x="95.410156"/>
      </g>
     </g>
    </g>
    <g id="xtick_5">
     <g id="line2d_5">
      <g>
       <use xlink:href="#m21cc90b556" x="282.475" y="246.84375" style="stroke: #000000; stroke-width: 0.8"/>
      </g>
     </g>
     <g id="text_5">
      <!-- 2.5 -->
      <g transform="translate(274.523437 261.442187) scale(0.1 -0.1)">
       <use xlink:href="#DejaVuSans-32"/>
       <use xlink:href="#DejaVuSans-2e" x="63.623047"/>
       <use xlink:href="#DejaVuSans-35" x="95.410156"/>
      </g>
     </g>
    </g>
    <g id="xtick_6">
     <g id="line2d_6">
      <g>
       <use xlink:href="#m21cc90b556" x="341.248437" y="246.84375" style="stroke: #000000; stroke-width: 0.8"/>
      </g>
     </g>
     <g id="text_6">
      <!-- 3.0 -->
      <g transform="translate(333.296875 261.442187) scale(0.1 -0.1)">
       <defs>
        <path id="DejaVuSans-33" d="M 2597 2516 
Q 3050 2419 3304 2112 
Q 3559 1806 3559 1356 
Q 3559 666 3084 287 
Q 2609 -91 1734 -91 
Q 1441 -91 1130 -33 
Q 819 25 488 141 
L 488 750 
Q 750 597 1062 519 
Q 1375 441 1716 441 
Q 2309 441 2620 675 
Q 2931 909 2931 1356 
Q 2931 1769 2642 2001 
Q 2353 2234 1838 2234 
L 1294 2234 
L 1294 2753 
L 1863 2753 
Q 2328 2753 2575 2939 
Q 2822 3125 2822 3475 
Q 2822 3834 2567 4026 
Q 2313 4219 1838 4219 
Q 1578 4219 1281 4162 
Q 984 4106 628 3988 
L 628 4550 
Q 988 4650 1302 4700 
Q 1616 4750 1894 4750 
Q 2613 4750 3031 4423 
Q 3450 4097 3450 3541 
Q 3450 3153 3228 2886 
Q 3006 2619 2597 2516 
z
" transform="scale(0.015625)"/>
       </defs>
       <use xlink:href="#DejaVuSans-33"/>
       <use xlink:href="#DejaVuSans-2e" x="63.623047"/>
       <use xlink:href="#DejaVuSans-30" x="95.410156"/>
      </g>
     </g>
    </g>
    <g id="xtick_7">
     <g id="line2d_7">
      <defs>
       <path id="mbca0e9c7e6" d="M 0 0 
L 0 2 
" style="stroke: #000000; stroke-width: 0.6"/>
      </defs>
      <g>
       <use xlink:href="#mbca0e9c7e6" x="76.767969" y="246.84375" style="stroke: #000000; stroke-width: 0.6"/>
      </g>
     </g>
    </g>
    <g id="xtick_8">
     <g id="line2d_8">
      <g>
       <use xlink:href="#mbca0e9c7e6" x="135.541406" y="246.84375" style="stroke: #000000; stroke-width: 0.6"/>
      </g>
     </g>
    </g>
    <g id="xtick_9">
     <g id="line2d_9">
      <g>
       <use xlink:href="#mbca0e9c7e6" x="194.314844" y="246.84375" style="stroke: #000000; stroke-width: 0.6"/>
      </g>
     </g>
    </g>
    <g id="xtick_10">
     <g id="line2d_10">
      <g>
       <use xlink:href="#mbca0e9c7e6" x="253.088281" y="246.84375" style="stroke: #000000; stroke-width: 0.6"/>
      </g>
     </g>
    </g>
    <g id="xtick_11">
     <g id="line2d_11">
      <g>
       <use xlink:href="#mbca0e9c7e6" x="311.861719" y="246.84375" style="stroke: #000000; stroke-width: 0.6"/>
      </g>
     </g>
    </g>
    <g id="text_7">
     <!-- calculated XP ratio -->
     <g transform="translate(147.384375 275.120313) scale(0.1 -0.1)">
      <defs>
       <path id="DejaVuSans-63" d="M 3122 3366 
L 3122 2828 
Q 2878 2963 2633 3030 
Q 2388 3097 2138 3097 
Q 1578 3097 1268 2742 
Q 959 2388 959 1747 
Q 959 1106 1268 751 
Q 1578 397 2138 397 
Q 2388 397 2633 464 
Q 2878 531 3122 666 
L 3122 134 
Q 2881 22 2623 -34 
Q 2366 -91 2075 -91 
Q 1284 -91 818 406 
Q 353 903 353 1747 
Q 353 2603 823 3093 
Q 1294 3584 2113 3584 
Q 2378 3584 2631 3529 
Q 2884 3475 3122 3366 
z
" transform="scale(0.015625)"/>
       <path id="DejaVuSans-61" d="M 2194 1759 
Q 1497 1759 1228 1600 
Q 959 1441 959 1056 
Q 959 750 1161 570 
Q 1363 391 1709 391 
Q 2188 391 2477 730 
Q 2766 1069 2766 1631 
L 2766 1759 
L 2194 1759 
z
M 3341 1997 
L 3341 0 
L 2766 0 
L 2766 531 
Q 2569 213 2275 61 
Q 1981 -91 1556 -91 
Q 1019 -91 701 211 
Q 384 513 384 1019 
Q 384 1609 779 1909 
Q 1175 2209 1959 2209 
L 2766 2209 
L 2766 2266 
Q 2766 2663 2505 2880 
Q 2244 3097 1772 3097 
Q 1472 3097 1187 3025 
Q 903 2953 641 2809 
L 641 3341 
Q 956 3463 1253 3523 
Q 1550 3584 1831 3584 
Q 2591 3584 2966 3190 
Q 3341 2797 3341 1997 
z
" transform="scale(0.015625)"/>
       <path id="DejaVuSans-6c" d="M 603 4863 
L 1178 4863 
L 1178 0 
L 603 0 
L 603 4863 
z
" transform="scale(0.015625)"/>
       <path id="DejaVuSans-75" d="M 544 1381 
L 544 3500 
L 1119 3500 
L 1119 1403 
Q 1119 906 1312 657 
Q 1506 409 1894 409 
Q 2359 409 2629 706 
Q 2900 1003 2900 1516 
L 2900 3500 
L 3475 3500 
L 3475 0 
L 2900 0 
L 2900 538 
Q 2691 219 2414 64 
Q 2138 -91 1772 -91 
Q 1169 -91 856 284 
Q 544 659 544 1381 
z
M 1991 3584 
L 1991 3584 
z
" transform="scale(0.015625)"/>
       <path id="DejaVuSans-74" d="M 1172 4494 
L 1172 3500 
L 2356 3500 
L 2356 3053 
L 1172 3053 
L 1172 1153 
Q 1172 725 1289 603 
Q 1406 481 1766 481 
L 2356 481 
L 2356 0 
L 1766 0 
Q 1100 0 847 248 
Q 594 497 594 1153 
L 594 3053 
L 172 3053 
L 172 3500 
L 594 3500 
L 594 4494 
L 1172 4494 
z
" transform="scale(0.015625)"/>
       <path id="DejaVuSans-65" d="M 3597 1894 
L 3597 1613 
L 953 1613 
Q 991 1019 1311 708 
Q 1631 397 2203 397 
Q 2534 397 2845 478 
Q 3156 559 3463 722 
L 3463 178 
Q 3153 47 2828 -22 
Q 2503 -91 2169 -91 
Q 1331 -91 842 396 
Q 353 884 353 1716 
Q 353 2575 817 3079 
Q 1281 3584 2069 3584 
Q 2775 3584 3186 3129 
Q 3597 2675 3597 1894 
z
M 3022 2063 
Q 3016 2534 2758 2815 
Q 2500 3097 2075 3097 
Q 1594 3097 1305 2825 
Q 1016 2553 972 2059 
L 3022 2063 
z
" transform="scale(0.015625)"/>
       <path id="DejaVuSans-64" d="M 2906 2969 
L 2906 4863 
L 3481 4863 
L 3481 0 
L 2906 0 
L 2906 525 
Q 2725 213 2448 61 
Q 2172 -91 1784 -91 
Q 1150 -91 751 415 
Q 353 922 353 1747 
Q 353 2572 751 3078 
Q 1150 3584 1784 3584 
Q 2172 3584 2448 3432 
Q 2725 3281 2906 2969 
z
M 947 1747 
Q 947 1113 1208 752 
Q 1469 391 1925 391 
Q 2381 391 2643 752 
Q 2906 1113 2906 1747 
Q 2906 2381 2643 2742 
Q 2381 3103 1925 3103 
Q 1469 3103 1208 2742 
Q 947 2381 947 1747 
z
" transform="scale(0.015625)"/>
       <path id="DejaVuSans-20" transform="scale(0.015625)"/>
       <path id="DejaVuSans-58" d="M 403 4666 
L 1081 4666 
L 2241 2931 
L 3406 4666 
L 4084 4666 
L 2584 2425 
L 4184 0 
L 3506 0 
L 2194 1984 
L 872 0 
L 191 0 
L 1856 2491 
L 403 4666 
z
" transform="scale(0.015625)"/>
       <path id="DejaVuSans-50" d="M 1259 4147 
L 1259 2394 
L 2053 2394 
Q 2494 2394 2734 2622 
Q 2975 2850 2975 3272 
Q 2975 3691 2734 3919 
Q 2494 4147 2053 4147 
L 1259 4147 
z
M 628 4666 
L 2053 4666 
Q 2838 4666 3239 4311 
Q 3641 3956 3641 3272 
Q 3641 2581 3239 2228 
Q 2838 1875 2053 1875 
L 1259 1875 
L 1259 0 
L 628 0 
L 628 4666 
z
" transform="scale(0.015625)"/>
       <path id="DejaVuSans-72" d="M 2631 2963 
Q 2534 3019 2420 3045 
Q 2306 3072 2169 3072 
Q 1681 3072 1420 2755 
Q 1159 2438 1159 1844 
L 1159 0 
L 581 0 
L 581 3500 
L 1159 3500 
L 1159 2956 
Q 1341 3275 1631 3429 
Q 1922 3584 2338 3584 
Q 2397 3584 2469 3576 
Q 2541 3569 2628 3553 
L 2631 2963 
z
" transform="scale(0.015625)"/>
       <path id="DejaVuSans-69" d="M 603 3500 
L 1178 3500 
L 1178 0 
L 603 0 
L 603 3500 
z
M 603 4863 
L 1178 4863 
L 1178 4134 
L 603 4134 
L 603 4863 
z
" transform="scale(0.015625)"/>
       <path id="DejaVuSans-6f" d="M 1959 3097 
Q 1497 3097 1228 2736 
Q 959 2375 959 1747 
Q 959 1119 1226 758 
Q 1494 397 1959 397 
Q 2419 397 2687 759 
Q 2956 1122 2956 1747 
Q 2956 2369 2687 2733 
Q 2419 3097 1959 3097 
z
M 1959 3584 
Q 2709 3584 3137 3096 
Q 3566 2609 3566 1747 
Q 3566 888 3137 398 
Q 2709 -91 1959 -91 
Q 1206 -91 779 398 
Q 353 888 353 1747 
Q 353 2609 779 3096 
Q 1206 3584 1959 3584 
z
" transform="scale(0.015625)"/>
      </defs>
      <use xlink:href="#DejaVuSans-63"/>
      <use xlink:href="#DejaVuSans-61" x="54.980469"/>
      <use xlink:href="#DejaVuSans-6c" x="116.259766"/>
      <use xlink:href="#DejaVuSans-63" x="144.042969"/>
      <use xlink:href="#DejaVuSans-75" x="199.023438"/>
      <use xlink:href="#DejaVuSans-6c" x="262.402344"/>
      <use xlink:href="#DejaVuSans-61" x="290.185547"/>
      <use xlink:href="#DejaVuSans-74" x="351.464844"/>
      <use xlink:href="#DejaVuSans-65" x="390.673828"/>
      <use xlink:href="#DejaVuSans-64" x="452.197266"/>
      <use xlink:href="#DejaVuSans-20" x="515.673828"/>
      <use xlink:href="#DejaVuSans-58" x="547.460938"/>
      <use xlink:href="#DejaVuSans-50" x="615.966797"/>
      <use xlink:href="#DejaVuSans-20" x="676.269531"/>
      <use xlink:href="#DejaVuSans-72" x="708.056641"/>
      <use xlink:href="#DejaVuSans-61" x="749.169922"/>
      <use xlink:href="#DejaVuSans-74" x="810.449219"/>
      <use xlink:href="#DejaVuSans-69" x="849.658203"/>
      <use xlink:href="#DejaVuSans-6f" x="877.441406"/>
     </g>
    </g>
   </g>
   <g id="matplotlib.axis_2">
    <g id="ytick_1">
     <g id="line2d_12">
      <defs>
       <path id="mc42949297a" d="M 0 0 
L -3.5 0 
" style="stroke: #000000; stroke-width: 0.8"/>
      </defs>
      <g>
       <use xlink:href="#mc42949297a" x="47.38125" y="246.84375" style="stroke: #000000; stroke-width: 0.8"/>
      </g>
     </g>
     <g id="text_8">
      <!-- 0.0 -->
      <g transform="translate(24.478125 250.642969) scale(0.1 -0.1)">
       <use xlink:href="#DejaVuSans-30"/>
       <use xlink:href="#DejaVuSans-2e" x="63.623047"/>
       <use xlink:href="#DejaVuSans-30" x="95.410156"/>
      </g>
     </g>
    </g>
    <g id="ytick_2">
     <g id="line2d_13">
      <g>
       <use xlink:href="#mc42949297a" x="47.38125" y="201.883036" style="stroke: #000000; stroke-width: 0.8"/>
      </g>
     </g>
     <g id="text_9">
      <!-- 0.2 -->
      <g transform="translate(24.478125 205.682254) scale(0.1 -0.1)">
       <use xlink:href="#DejaVuSans-30"/>
       <use xlink:href="#DejaVuSans-2e" x="63.623047"/>
       <use xlink:href="#DejaVuSans-32" x="95.410156"/>
      </g>
     </g>
    </g>
    <g id="ytick_3">
     <g id="line2d_14">
      <g>
       <use xlink:href="#mc42949297a" x="47.38125" y="156.922321" style="stroke: #000000; stroke-width: 0.8"/>
      </g>
     </g>
     <g id="text_10">
      <!-- 0.4 -->
      <g transform="translate(24.478125 160.72154) scale(0.1 -0.1)">
       <defs>
        <path id="DejaVuSans-34" d="M 2419 4116 
L 825 1625 
L 2419 1625 
L 2419 4116 
z
M 2253 4666 
L 3047 4666 
L 3047 1625 
L 3713 1625 
L 3713 1100 
L 3047 1100 
L 3047 0 
L 2419 0 
L 2419 1100 
L 313 1100 
L 313 1709 
L 2253 4666 
z
" transform="scale(0.015625)"/>
       </defs>
       <use xlink:href="#DejaVuSans-30"/>
       <use xlink:href="#DejaVuSans-2e" x="63.623047"/>
       <use xlink:href="#DejaVuSans-34" x="95.410156"/>
      </g>
     </g>
    </g>
    <g id="ytick_4">
     <g id="line2d_15">
      <g>
       <use xlink:href="#mc42949297a" x="47.38125" y="111.961607" style="stroke: #000000; stroke-width: 0.8"/>
      </g>
     </g>
     <g id="text_11">
      <!-- 0.6 -->
      <g transform="translate(24.478125 115.760826) scale(0.1 -0.1)">
       <defs>
        <path id="DejaVuSans-36" d="M 2113 2584 
Q 1688 2584 1439 2293 
Q 1191 2003 1191 1497 
Q 1191 994 1439 701 
Q 1688 409 2113 409 
Q 2538 409 2786 701 
Q 3034 994 3034 1497 
Q 3034 2003 2786 2293 
Q 2538 2584 2113 2584 
z
M 3366 4563 
L 3366 3988 
Q 3128 4100 2886 4159 
Q 2644 4219 2406 4219 
Q 1781 4219 1451 3797 
Q 1122 3375 1075 2522 
Q 1259 2794 1537 2939 
Q 1816 3084 2150 3084 
Q 2853 3084 3261 2657 
Q 3669 2231 3669 1497 
Q 3669 778 3244 343 
Q 2819 -91 2113 -91 
Q 1303 -91 875 529 
Q 447 1150 447 2328 
Q 447 3434 972 4092 
Q 1497 4750 2381 4750 
Q 2619 4750 2861 4703 
Q 3103 4656 3366 4563 
z
" transform="scale(0.015625)"/>
       </defs>
       <use xlink:href="#DejaVuSans-30"/>
       <use xlink:href="#DejaVuSans-2e" x="63.623047"/>
       <use xlink:href="#DejaVuSans-36" x="95.410156"/>
      </g>
     </g>
    </g>
    <g id="ytick_5">
     <g id="line2d_16">
      <g>
       <use xlink:href="#mc42949297a" x="47.38125" y="67.000893" style="stroke: #000000; stroke-width: 0.8"/>
      </g>
     </g>
     <g id="text_12">
      <!-- 0.8 -->
      <g transform="translate(24.478125 70.800112) scale(0.1 -0.1)">
       <defs>
        <path id="DejaVuSans-38" d="M 2034 2216 
Q 1584 2216 1326 1975 
Q 1069 1734 1069 1313 
Q 1069 891 1326 650 
Q 1584 409 2034 409 
Q 2484 409 2743 651 
Q 3003 894 3003 1313 
Q 3003 1734 2745 1975 
Q 2488 2216 2034 2216 
z
M 1403 2484 
Q 997 2584 770 2862 
Q 544 3141 544 3541 
Q 544 4100 942 4425 
Q 1341 4750 2034 4750 
Q 2731 4750 3128 4425 
Q 3525 4100 3525 3541 
Q 3525 3141 3298 2862 
Q 3072 2584 2669 2484 
Q 3125 2378 3379 2068 
Q 3634 1759 3634 1313 
Q 3634 634 3220 271 
Q 2806 -91 2034 -91 
Q 1263 -91 848 271 
Q 434 634 434 1313 
Q 434 1759 690 2068 
Q 947 2378 1403 2484 
z
M 1172 3481 
Q 1172 3119 1398 2916 
Q 1625 2713 2034 2713 
Q 2441 2713 2670 2916 
Q 2900 3119 2900 3481 
Q 2900 3844 2670 4047 
Q 2441 4250 2034 4250 
Q 1625 4250 1398 4047 
Q 1172 3844 1172 3481 
z
" transform="scale(0.015625)"/>
       </defs>
       <use xlink:href="#DejaVuSans-30"/>
       <use xlink:href="#DejaVuSans-2e" x="63.623047"/>
       <use xlink:href="#DejaVuSans-38" x="95.410156"/>
      </g>
     </g>
    </g>
    <g id="ytick_6">
     <g id="line2d_17">
      <g>
       <use xlink:href="#mc42949297a" x="47.38125" y="22.040179" style="stroke: #000000; stroke-width: 0.8"/>
      </g>
     </g>
     <g id="text_13">
      <!-- 1.0 -->
      <g transform="translate(24.478125 25.839397) scale(0.1 -0.1)">
       <use xlink:href="#DejaVuSans-31"/>
       <use xlink:href="#DejaVuSans-2e" x="63.623047"/>
       <use xlink:href="#DejaVuSans-30" x="95.410156"/>
      </g>
     </g>
    </g>
    <g id="text_14">
     <!-- CDF -->
     <g transform="translate(18.398438 139.039062) rotate(-90) scale(0.1 -0.1)">
      <defs>
       <path id="DejaVuSans-43" d="M 4122 4306 
L 4122 3641 
Q 3803 3938 3442 4084 
Q 3081 4231 2675 4231 
Q 1875 4231 1450 3742 
Q 1025 3253 1025 2328 
Q 1025 1406 1450 917 
Q 1875 428 2675 428 
Q 3081 428 3442 575 
Q 3803 722 4122 1019 
L 4122 359 
Q 3791 134 3420 21 
Q 3050 -91 2638 -91 
Q 1578 -91 968 557 
Q 359 1206 359 2328 
Q 359 3453 968 4101 
Q 1578 4750 2638 4750 
Q 3056 4750 3426 4639 
Q 3797 4528 4122 4306 
z
" transform="scale(0.015625)"/>
       <path id="DejaVuSans-44" d="M 1259 4147 
L 1259 519 
L 2022 519 
Q 2988 519 3436 956 
Q 3884 1394 3884 2338 
Q 3884 3275 3436 3711 
Q 2988 4147 2022 4147 
L 1259 4147 
z
M 628 4666 
L 1925 4666 
Q 3281 4666 3915 4102 
Q 4550 3538 4550 2338 
Q 4550 1131 3912 565 
Q 3275 0 1925 0 
L 628 0 
L 628 4666 
z
" transform="scale(0.015625)"/>
       <path id="DejaVuSans-46" d="M 628 4666 
L 3309 4666 
L 3309 4134 
L 1259 4134 
L 1259 2759 
L 3109 2759 
L 3109 2228 
L 1259 2228 
L 1259 0 
L 628 0 
L 628 4666 
z
" transform="scale(0.015625)"/>
      </defs>
      <use xlink:href="#DejaVuSans-43"/>
      <use xlink:href="#DejaVuSans-44" x="69.824219"/>
      <use xlink:href="#DejaVuSans-46" x="146.826172"/>
     </g>
    </g>
   </g>
   <g id="patch_3">
    <path d="M 44.442578 246.84375 
L 44.442578 246.84375 
L 50.319922 246.84375 
L 50.319922 246.84375 
L 56.197266 246.84375 
L 56.197266 246.84375 
L 62.074609 246.84375 
L 62.074609 246.84375 
L 67.951953 246.84375 
L 67.951953 235.315362 
L 73.829297 235.315362 
L 73.829297 235.315362 
L 79.706641 235.315362 
L 79.706641 235.315362 
L 85.583984 235.315362 
L 85.583984 212.258585 
L 91.461328 212.258585 
L 91.461328 200.730197 
L 97.338672 200.730197 
L 97.338672 194.966003 
L 103.216016 194.966003 
L 103.216016 194.966003 
L 109.093359 194.966003 
L 109.093359 189.201809 
L 114.970703 189.201809 
L 114.970703 177.67342 
L 120.848047 177.67342 
L 120.848047 171.909226 
L 126.725391 171.909226 
L 126.725391 171.909226 
L 132.602734 171.909226 
L 132.602734 160.380838 
L 138.480078 160.380838 
L 138.480078 148.85245 
L 144.357422 148.85245 
L 144.357422 131.559867 
L 150.234766 131.559867 
L 150.234766 125.795673 
L 156.112109 125.795673 
L 156.112109 102.738897 
L 161.989453 102.738897 
L 161.989453 73.917926 
L 167.866797 73.917926 
L 167.866797 62.389538 
L 173.744141 62.389538 
L 173.744141 50.861149 
L 179.621484 50.861149 
L 179.621484 45.096955 
L 185.498828 45.096955 
L 185.498828 39.332761 
L 191.376172 39.332761 
L 191.376172 33.568567 
L 197.253516 33.568567 
L 197.253516 27.804373 
L 203.130859 27.804373 
L 203.130859 27.804373 
L 209.008203 27.804373 
L 209.008203 27.804373 
L 214.885547 27.804373 
L 214.885547 27.804373 
L 220.762891 27.804373 
L 220.762891 27.804373 
L 226.640234 27.804373 
L 226.640234 27.804373 
L 232.517578 27.804373 
L 232.517578 27.804373 
L 238.394922 27.804373 
L 238.394922 27.804373 
L 244.272266 27.804373 
L 244.272266 27.804373 
L 250.149609 27.804373 
L 250.149609 22.040179 
L 256.026953 22.040179 
L 256.026953 22.040179 
L 261.904297 22.040179 
L 261.904297 22.040179 
L 267.781641 22.040179 
L 267.781641 22.040179 
L 273.658984 22.040179 
L 273.658984 22.040179 
L 279.536328 22.040179 
L 279.536328 22.040179 
L 285.413672 22.040179 
L 285.413672 22.040179 
L 291.291016 22.040179 
L 291.291016 22.040179 
L 297.168359 22.040179 
L 297.168359 22.040179 
L 303.045703 22.040179 
L 303.045703 22.040179 
L 308.923047 22.040179 
L 308.923047 22.040179 
L 314.800391 22.040179 
L 314.800391 22.040179 
L 320.677734 22.040179 
L 320.677734 22.040179 
L 326.555078 22.040179 
L 326.555078 22.040179 
L 332.432422 22.040179 
L 332.432422 22.040179 
L 338.309766 22.040179 
L 338.309766 22.040179 
L 344.187109 22.040179 
L 344.187109 246.84375 
" clip-path="url(#pcf825d1ccf)" style="fill: none; stroke: #1f77b4; stroke-linejoin: miter"/>
   </g>
   <g id="patch_4">
    <path d="M 44.442578 246.84375 
L 44.442578 246.84375 
L 50.319922 246.84375 
L 50.319922 246.84375 
L 56.197266 246.84375 
L 56.197266 244.970387 
L 62.074609 244.970387 
L 62.074609 243.097024 
L 67.951953 243.097024 
L 67.951953 243.097024 
L 73.829297 243.097024 
L 73.829297 241.223661 
L 79.706641 241.223661 
L 79.706641 231.856845 
L 85.583984 231.856845 
L 85.583984 209.376488 
L 91.461328 209.376488 
L 91.461328 175.655952 
L 97.338672 175.655952 
L 97.338672 153.175595 
L 103.216016 153.175595 
L 103.216016 136.315327 
L 109.093359 136.315327 
L 109.093359 111.961607 
L 114.970703 111.961607 
L 114.970703 96.974702 
L 120.848047 96.974702 
L 120.848047 83.861161 
L 126.725391 83.861161 
L 126.725391 80.114435 
L 132.602734 80.114435 
L 132.602734 57.634077 
L 138.480078 57.634077 
L 138.480078 50.140625 
L 144.357422 50.140625 
L 144.357422 42.647173 
L 150.234766 42.647173 
L 150.234766 38.900446 
L 156.112109 38.900446 
L 156.112109 33.280357 
L 161.989453 33.280357 
L 161.989453 31.406994 
L 167.866797 31.406994 
L 167.866797 27.660268 
L 173.744141 27.660268 
L 173.744141 27.660268 
L 179.621484 27.660268 
L 179.621484 25.786905 
L 185.498828 25.786905 
L 185.498828 25.786905 
L 191.376172 25.786905 
L 191.376172 25.786905 
L 197.253516 25.786905 
L 197.253516 25.786905 
L 203.130859 25.786905 
L 203.130859 23.913542 
L 209.008203 23.913542 
L 209.008203 22.040179 
L 214.885547 22.040179 
L 214.885547 22.040179 
L 220.762891 22.040179 
L 220.762891 22.040179 
L 226.640234 22.040179 
L 226.640234 22.040179 
L 232.517578 22.040179 
L 232.517578 22.040179 
L 238.394922 22.040179 
L 238.394922 22.040179 
L 244.272266 22.040179 
L 244.272266 22.040179 
L 250.149609 22.040179 
L 250.149609 22.040179 
L 256.026953 22.040179 
L 256.026953 22.040179 
L 261.904297 22.040179 
L 261.904297 22.040179 
L 267.781641 22.040179 
L 267.781641 22.040179 
L 273.658984 22.040179 
L 273.658984 22.040179 
L 279.536328 22.040179 
L 279.536328 22.040179 
L 285.413672 22.040179 
L 285.413672 22.040179 
L 291.291016 22.040179 
L 291.291016 22.040179 
L 297.168359 22.040179 
L 297.168359 22.040179 
L 303.045703 22.040179 
L 303.045703 22.040179 
L 308.923047 22.040179 
L 308.923047 22.040179 
L 314.800391 22.040179 
L 314.800391 22.040179 
L 320.677734 22.040179 
L 320.677734 22.040179 
L 326.555078 22.040179 
L 326.555078 22.040179 
L 332.432422 22.040179 
L 332.432422 22.040179 
L 338.309766 22.040179 
L 338.309766 22.040179 
L 344.187109 22.040179 
L 344.187109 246.84375 
" clip-path="url(#pcf825d1ccf)" style="fill: none; stroke: #ff7f0e; stroke-linejoin: miter"/>
   </g>
   <g id="patch_5">
    <path d="M 44.442578 246.84375 
L 44.442578 246.84375 
L 50.319922 246.84375 
L 50.319922 246.84375 
L 56.197266 246.84375 
L 56.197266 246.84375 
L 62.074609 246.84375 
L 62.074609 246.84375 
L 67.951953 246.84375 
L 67.951953 223.180216 
L 73.829297 223.180216 
L 73.829297 223.180216 
L 79.706641 223.180216 
L 79.706641 223.180216 
L 85.583984 223.180216 
L 85.583984 175.853148 
L 91.461328 175.853148 
L 91.461328 152.189615 
L 97.338672 152.189615 
L 97.338672 140.357848 
L 103.216016 140.357848 
L 103.216016 140.357848 
L 109.093359 140.357848 
L 109.093359 128.526081 
L 114.970703 128.526081 
L 114.970703 104.862547 
L 120.848047 104.862547 
L 120.848047 93.03078 
L 126.725391 93.03078 
L 126.725391 93.03078 
L 132.602734 93.03078 
L 132.602734 81.199013 
L 138.480078 81.199013 
L 138.480078 69.367246 
L 144.357422 69.367246 
L 144.357422 69.367246 
L 150.234766 69.367246 
L 150.234766 57.535479 
L 156.112109 57.535479 
L 156.112109 45.703712 
L 161.989453 45.703712 
L 161.989453 33.871945 
L 167.866797 33.871945 
L 167.866797 33.871945 
L 173.744141 33.871945 
L 173.744141 33.871945 
L 179.621484 33.871945 
L 179.621484 33.871945 
L 185.498828 33.871945 
L 185.498828 33.871945 
L 191.376172 33.871945 
L 191.376172 33.871945 
L 197.253516 33.871945 
L 197.253516 33.871945 
L 203.130859 33.871945 
L 203.130859 33.871945 
L 209.008203 33.871945 
L 209.008203 33.871945 
L 214.885547 33.871945 
L 214.885547 33.871945 
L 220.762891 33.871945 
L 220.762891 33.871945 
L 226.640234 33.871945 
L 226.640234 33.871945 
L 232.517578 33.871945 
L 232.517578 33.871945 
L 238.394922 33.871945 
L 238.394922 33.871945 
L 244.272266 33.871945 
L 244.272266 33.871945 
L 250.149609 33.871945 
L 250.149609 22.040179 
L 256.026953 22.040179 
L 256.026953 22.040179 
L 261.904297 22.040179 
L 261.904297 22.040179 
L 267.781641 22.040179 
L 267.781641 22.040179 
L 273.658984 22.040179 
L 273.658984 22.040179 
L 279.536328 22.040179 
L 279.536328 22.040179 
L 285.413672 22.040179 
L 285.413672 22.040179 
L 291.291016 22.040179 
L 291.291016 22.040179 
L 297.168359 22.040179 
L 297.168359 22.040179 
L 303.045703 22.040179 
L 303.045703 22.040179 
L 308.923047 22.040179 
L 308.923047 22.040179 
L 314.800391 22.040179 
L 314.800391 22.040179 
L 320.677734 22.040179 
L 320.677734 22.040179 
L 326.555078 22.040179 
L 326.555078 22.040179 
L 332.432422 22.040179 
L 332.432422 22.040179 
L 338.309766 22.040179 
L 338.309766 22.040179 
L 344.187109 22.040179 
L 344.187109 246.84375 
" clip-path="url(#pcf825d1ccf)" style="fill: none; stroke: #2ca02c; stroke-linejoin: miter"/>
   </g>
   <g id="patch_6">
    <path d="M 47.38125 246.84375 
L 47.38125 10.8 
" style="fill: none; stroke: #000000; stroke-width: 0.8; stroke-linejoin: miter; stroke-linecap: square"/>
   </g>
   <g id="patch_7">
    <path d="M 341.248437 246.84375 
L 341.248437 10.8 
" style="fill: none; stroke: #000000; stroke-width: 0.8; stroke-linejoin: miter; stroke-linecap: square"/>
   </g>
   <g id="patch_8">
    <path d="M 47.38125 246.84375 
L 341.248437 246.84375 
" style="fill: none; stroke: #000000; stroke-width: 0.8; stroke-linejoin: miter; stroke-linecap: square"/>
   </g>
   <g id="patch_9">
    <path d="M 47.38125 10.8 
L 341.248437 10.8 
" style="fill: none; stroke: #000000; stroke-width: 0.8; stroke-linejoin: miter; stroke-linecap: square"/>
   </g>
   <g id="legend_1">
    <g id="patch_10">
     <path d="M 218.792187 241.84375 
L 334.248437 241.84375 
Q 336.248437 241.84375 336.248437 239.84375 
L 336.248437 196.809375 
Q 336.248437 194.809375 334.248437 194.809375 
L 218.792187 194.809375 
Q 216.792187 194.809375 216.792187 196.809375 
L 216.792187 239.84375 
Q 216.792187 241.84375 218.792187 241.84375 
z
" style="fill: #ffffff; opacity: 0.8; stroke: #cccccc; stroke-linejoin: miter"/>
    </g>
    <g id="patch_11">
     <path d="M 220.792187 206.407812 
L 240.792187 206.407812 
L 240.792187 199.407812 
L 220.792187 199.407812 
L 220.792187 206.407812 
z
" style="fill: none; stroke: #1f77b4; stroke-linejoin: miter"/>
    </g>
    <g id="text_15">
     <!-- MM -->
     <g transform="translate(248.792187 206.407812) scale(0.1 -0.1)">
      <defs>
       <path id="DejaVuSans-4d" d="M 628 4666 
L 1569 4666 
L 2759 1491 
L 3956 4666 
L 4897 4666 
L 4897 0 
L 4281 0 
L 4281 4097 
L 3078 897 
L 2444 897 
L 1241 4097 
L 1241 0 
L 628 0 
L 628 4666 
z
" transform="scale(0.015625)"/>
      </defs>
      <use xlink:href="#DejaVuSans-4d"/>
      <use xlink:href="#DejaVuSans-4d" x="86.279297"/>
     </g>
    </g>
    <g id="patch_12">
     <path d="M 220.792187 221.085937 
L 240.792187 221.085937 
L 240.792187 214.085937 
L 220.792187 214.085937 
L 220.792187 221.085937 
z
" style="fill: none; stroke: #ff7f0e; stroke-linejoin: miter"/>
    </g>
    <g id="text_16">
     <!-- non-MM -->
     <g transform="translate(248.792187 221.085937) scale(0.1 -0.1)">
      <defs>
       <path id="DejaVuSans-6e" d="M 3513 2113 
L 3513 0 
L 2938 0 
L 2938 2094 
Q 2938 2591 2744 2837 
Q 2550 3084 2163 3084 
Q 1697 3084 1428 2787 
Q 1159 2491 1159 1978 
L 1159 0 
L 581 0 
L 581 3500 
L 1159 3500 
L 1159 2956 
Q 1366 3272 1645 3428 
Q 1925 3584 2291 3584 
Q 2894 3584 3203 3211 
Q 3513 2838 3513 2113 
z
" transform="scale(0.015625)"/>
       <path id="DejaVuSans-2d" d="M 313 2009 
L 1997 2009 
L 1997 1497 
L 313 1497 
L 313 2009 
z
" transform="scale(0.015625)"/>
      </defs>
      <use xlink:href="#DejaVuSans-6e"/>
      <use xlink:href="#DejaVuSans-6f" x="63.378906"/>
      <use xlink:href="#DejaVuSans-6e" x="124.560547"/>
      <use xlink:href="#DejaVuSans-2d" x="187.939453"/>
      <use xlink:href="#DejaVuSans-4d" x="224.023438"/>
      <use xlink:href="#DejaVuSans-4d" x="310.302734"/>
     </g>
    </g>
    <g id="patch_13">
     <path d="M 220.792187 235.764062 
L 240.792187 235.764062 
L 240.792187 228.764062 
L 220.792187 228.764062 
L 220.792187 235.764062 
z
" style="fill: none; stroke: #2ca02c; stroke-linejoin: miter"/>
    </g>
    <g id="text_17">
     <!-- MM - no dragons -->
     <g transform="translate(248.792187 235.764062) scale(0.1 -0.1)">
      <defs>
       <path id="DejaVuSans-67" d="M 2906 1791 
Q 2906 2416 2648 2759 
Q 2391 3103 1925 3103 
Q 1463 3103 1205 2759 
Q 947 2416 947 1791 
Q 947 1169 1205 825 
Q 1463 481 1925 481 
Q 2391 481 2648 825 
Q 2906 1169 2906 1791 
z
M 3481 434 
Q 3481 -459 3084 -895 
Q 2688 -1331 1869 -1331 
Q 1566 -1331 1297 -1286 
Q 1028 -1241 775 -1147 
L 775 -588 
Q 1028 -725 1275 -790 
Q 1522 -856 1778 -856 
Q 2344 -856 2625 -561 
Q 2906 -266 2906 331 
L 2906 616 
Q 2728 306 2450 153 
Q 2172 0 1784 0 
Q 1141 0 747 490 
Q 353 981 353 1791 
Q 353 2603 747 3093 
Q 1141 3584 1784 3584 
Q 2172 3584 2450 3431 
Q 2728 3278 2906 2969 
L 2906 3500 
L 3481 3500 
L 3481 434 
z
" transform="scale(0.015625)"/>
       <path id="DejaVuSans-73" d="M 2834 3397 
L 2834 2853 
Q 2591 2978 2328 3040 
Q 2066 3103 1784 3103 
Q 1356 3103 1142 2972 
Q 928 2841 928 2578 
Q 928 2378 1081 2264 
Q 1234 2150 1697 2047 
L 1894 2003 
Q 2506 1872 2764 1633 
Q 3022 1394 3022 966 
Q 3022 478 2636 193 
Q 2250 -91 1575 -91 
Q 1294 -91 989 -36 
Q 684 19 347 128 
L 347 722 
Q 666 556 975 473 
Q 1284 391 1588 391 
Q 1994 391 2212 530 
Q 2431 669 2431 922 
Q 2431 1156 2273 1281 
Q 2116 1406 1581 1522 
L 1381 1569 
Q 847 1681 609 1914 
Q 372 2147 372 2553 
Q 372 3047 722 3315 
Q 1072 3584 1716 3584 
Q 2034 3584 2315 3537 
Q 2597 3491 2834 3397 
z
" transform="scale(0.015625)"/>
      </defs>
      <use xlink:href="#DejaVuSans-4d"/>
      <use xlink:href="#DejaVuSans-4d" x="86.279297"/>
      <use xlink:href="#DejaVuSans-20" x="172.558594"/>
      <use xlink:href="#DejaVuSans-2d" x="204.345703"/>
      <use xlink:href="#DejaVuSans-20" x="240.429688"/>
      <use xlink:href="#DejaVuSans-6e" x="272.216797"/>
      <use xlink:href="#DejaVuSans-6f" x="335.595703"/>
      <use xlink:href="#DejaVuSans-20" x="396.777344"/>
      <use xlink:href="#DejaVuSans-64" x="428.564453"/>
      <use xlink:href="#DejaVuSans-72" x="492.041016"/>
      <use xlink:href="#DejaVuSans-61" x="533.154297"/>
      <use xlink:href="#DejaVuSans-67" x="594.433594"/>
      <use xlink:href="#DejaVuSans-6f" x="657.910156"/>
      <use xlink:href="#DejaVuSans-6e" x="719.091797"/>
      <use xlink:href="#DejaVuSans-73" x="782.470703"/>
     </g>
    </g>
   </g>
  </g>
 </g>
 <defs>
  <clipPath id="pcf825d1ccf">
   <rect x="47.38125" y="10.8" width="293.867187" height="236.04375"/>
  </clipPath>
 </defs>
</svg>
