<?xml version="1.0" encoding="utf-8" standalone="no"?>
<!DOCTYPE svg PUBLIC "-//W3C//DTD SVG 1.1//EN"
  "http://www.w3.org/Graphics/SVG/1.1/DTD/svg11.dtd">
<!-- Created with matplotlib (https://matplotlib.org/) -->
<svg height="288pt" version="1.1" viewBox="0 0 360 288" width="360pt" xmlns="http://www.w3.org/2000/svg" xmlns:xlink="http://www.w3.org/1999/xlink">
 <metadata>
  <rdf:RDF xmlns:cc="http://creativecommons.org/ns#" xmlns:dc="http://purl.org/dc/elements/1.1/" xmlns:rdf="http://www.w3.org/1999/02/22-rdf-syntax-ns#">
   <cc:Work>
    <dc:type rdf:resource="http://purl.org/dc/dcmitype/StillImage"/>
    <dc:date>2021-12-19</dc:date>
    <dc:format>image/svg+xml</dc:format>
    <dc:creator>
     <cc:Agent>
      <dc:title>Matplotlib v3.3.4, https://matplotlib.org/</dc:title>
     </cc:Agent>
    </dc:creator>
    <dc:contributor>
     <cc:Agent>
      <dc:title>T. Dunn</dc:title>
     </cc:Agent>
    </dc:contributor>
   </cc:Work>
  </rdf:RDF>
 </metadata>
 <defs>
  <style type="text/css">*{stroke-linecap:butt;stroke-linejoin:round;}</style>
 </defs>
 <g id="figure_1">
  <g id="patch_1">
   <path d="M 0 288 
L 360 288 
L 360 0 
L 0 0 
z
" style="fill:none;"/>
  </g>
  <g id="axes_1">
   <g id="patch_2">
    <path d="M 33.703125 260.521875 
L 349.2 260.521875 
L 349.2 14.599219 
L 33.703125 14.599219 
z
" style="fill:#ffffff;"/>
   </g>
   <g id="PathCollection_1">
    <defs>
     <path d="M 0 1.581139 
C 0.419323 1.581139 0.821528 1.41454 1.118034 1.118034 
C 1.41454 0.821528 1.581139 0.419323 1.581139 0 
C 1.581139 -0.419323 1.41454 -0.821528 1.118034 -1.118034 
C 0.821528 -1.41454 0.419323 -1.581139 0 -1.581139 
C -0.419323 -1.581139 -0.821528 -1.41454 -1.118034 -1.118034 
C -1.41454 -0.821528 -1.581139 -0.419323 -1.581139 0 
C -1.581139 0.419323 -1.41454 0.821528 -1.118034 1.118034 
C -0.821528 1.41454 -0.419323 1.581139 0 1.581139 
z
" id="mdb4f0745d4" style="stroke:#1f77b4;"/>
    </defs>
    <g clip-path="url(#p43cd5dfb6c)">
     <use style="fill:#1f77b4;stroke:#1f77b4;" x="105.40696" xlink:href="#mdb4f0745d4" y="59.45636"/>
     <use style="fill:#1f77b4;stroke:#1f77b4;" x="205.79233" xlink:href="#mdb4f0745d4" y="47.64633"/>
     <use style="fill:#1f77b4;stroke:#1f77b4;" x="134.088494" xlink:href="#mdb4f0745d4" y="54.982479"/>
     <use style="fill:#1f77b4;stroke:#1f77b4;" x="234.473864" xlink:href="#mdb4f0745d4" y="38.904378"/>
     <use style="fill:#1f77b4;stroke:#1f77b4;" x="91.066193" xlink:href="#mdb4f0745d4" y="69.154873"/>
     <use style="fill:#1f77b4;stroke:#1f77b4;" x="191.451562" xlink:href="#mdb4f0745d4" y="74.823519"/>
     <use style="fill:#1f77b4;stroke:#1f77b4;" x="119.747727" xlink:href="#mdb4f0745d4" y="32.56703"/>
     <use style="fill:#1f77b4;stroke:#1f77b4;" x="220.133097" xlink:href="#mdb4f0745d4" y="36.542275"/>
     <use style="fill:#1f77b4;stroke:#1f77b4;" x="105.40696" xlink:href="#mdb4f0745d4" y="76.421788"/>
     <use style="fill:#1f77b4;stroke:#1f77b4;" x="205.79233" xlink:href="#mdb4f0745d4" y="67.96871"/>
     <use style="fill:#1f77b4;stroke:#1f77b4;" x="148.429261" xlink:href="#mdb4f0745d4" y="50.354675"/>
     <use style="fill:#1f77b4;stroke:#1f77b4;" x="248.814631" xlink:href="#mdb4f0745d4" y="38.068007"/>
     <use style="fill:#1f77b4;stroke:#1f77b4;" x="119.747727" xlink:href="#mdb4f0745d4" y="65.026159"/>
     <use style="fill:#1f77b4;stroke:#1f77b4;" x="220.133097" xlink:href="#mdb4f0745d4" y="52.7779"/>
     <use style="fill:#1f77b4;stroke:#1f77b4;" x="148.429261" xlink:href="#mdb4f0745d4" y="45.964761"/>
     <use style="fill:#1f77b4;stroke:#1f77b4;" x="248.814631" xlink:href="#mdb4f0745d4" y="51.35591"/>
     <use style="fill:#1f77b4;stroke:#1f77b4;" x="134.088494" xlink:href="#mdb4f0745d4" y="39.012389"/>
     <use style="fill:#1f77b4;stroke:#1f77b4;" x="234.473864" xlink:href="#mdb4f0745d4" y="50.822187"/>
     <use style="fill:#1f77b4;stroke:#1f77b4;" x="91.066193" xlink:href="#mdb4f0745d4" y="30.995133"/>
     <use style="fill:#1f77b4;stroke:#1f77b4;" x="191.451562" xlink:href="#mdb4f0745d4" y="24.688541"/>
    </g>
   </g>
   <g id="PathCollection_2">
    <defs>
     <path d="M 0 1.581139 
C 0.419323 1.581139 0.821528 1.41454 1.118034 1.118034 
C 1.41454 0.821528 1.581139 0.419323 1.581139 0 
C 1.581139 -0.419323 1.41454 -0.821528 1.118034 -1.118034 
C 0.821528 -1.41454 0.419323 -1.581139 0 -1.581139 
C -0.419323 -1.581139 -0.821528 -1.41454 -1.118034 -1.118034 
C -1.41454 -0.821528 -1.581139 -0.419323 -1.581139 0 
C -1.581139 0.419323 -1.41454 0.821528 -1.118034 1.118034 
C -0.821528 1.41454 -0.419323 1.581139 0 1.581139 
z
" id="m3a7bf5aab3" style="stroke:#ff7f0e;"/>
    </defs>
    <g clip-path="url(#p43cd5dfb6c)">
     <use style="fill:#ff7f0e;stroke:#ff7f0e;" x="134.088494" xlink:href="#m3a7bf5aab3" y="98.649886"/>
     <use style="fill:#ff7f0e;stroke:#ff7f0e;" x="148.429261" xlink:href="#m3a7bf5aab3" y="93.963451"/>
     <use style="fill:#ff7f0e;stroke:#ff7f0e;" x="234.473864" xlink:href="#m3a7bf5aab3" y="130.774152"/>
     <use style="fill:#ff7f0e;stroke:#ff7f0e;" x="248.814631" xlink:href="#m3a7bf5aab3" y="141.190651"/>
     <use style="fill:#ff7f0e;stroke:#ff7f0e;" x="277.496165" xlink:href="#m3a7bf5aab3" y="128.152228"/>
     <use style="fill:#ff7f0e;stroke:#ff7f0e;" x="291.836932" xlink:href="#m3a7bf5aab3" y="123.375637"/>
     <use style="fill:#ff7f0e;stroke:#ff7f0e;" x="291.836932" xlink:href="#m3a7bf5aab3" y="123.375637"/>
     <use style="fill:#ff7f0e;stroke:#ff7f0e;" x="306.177699" xlink:href="#m3a7bf5aab3" y="126.285643"/>
     <use style="fill:#ff7f0e;stroke:#ff7f0e;" x="306.177699" xlink:href="#m3a7bf5aab3" y="126.285643"/>
     <use style="fill:#ff7f0e;stroke:#ff7f0e;" x="306.177699" xlink:href="#m3a7bf5aab3" y="126.285643"/>
     <use style="fill:#ff7f0e;stroke:#ff7f0e;" x="76.725426" xlink:href="#m3a7bf5aab3" y="98.071885"/>
     <use style="fill:#ff7f0e;stroke:#ff7f0e;" x="91.066193" xlink:href="#m3a7bf5aab3" y="87.299286"/>
     <use style="fill:#ff7f0e;stroke:#ff7f0e;" x="177.110795" xlink:href="#m3a7bf5aab3" y="114.029643"/>
     <use style="fill:#ff7f0e;stroke:#ff7f0e;" x="191.451562" xlink:href="#m3a7bf5aab3" y="104.96966"/>
     <use style="fill:#ff7f0e;stroke:#ff7f0e;" x="277.496165" xlink:href="#m3a7bf5aab3" y="128.152228"/>
     <use style="fill:#ff7f0e;stroke:#ff7f0e;" x="62.384659" xlink:href="#m3a7bf5aab3" y="56.94565"/>
     <use style="fill:#ff7f0e;stroke:#ff7f0e;" x="76.725426" xlink:href="#m3a7bf5aab3" y="24.126095"/>
     <use style="fill:#ff7f0e;stroke:#ff7f0e;" x="162.770028" xlink:href="#m3a7bf5aab3" y="132.529424"/>
     <use style="fill:#ff7f0e;stroke:#ff7f0e;" x="177.110795" xlink:href="#m3a7bf5aab3" y="102.915098"/>
     <use style="fill:#ff7f0e;stroke:#ff7f0e;" x="248.814631" xlink:href="#m3a7bf5aab3" y="111.702034"/>
     <use style="fill:#ff7f0e;stroke:#ff7f0e;" x="263.155398" xlink:href="#m3a7bf5aab3" y="117.114732"/>
     <use style="fill:#ff7f0e;stroke:#ff7f0e;" x="105.40696" xlink:href="#m3a7bf5aab3" y="89.521296"/>
     <use style="fill:#ff7f0e;stroke:#ff7f0e;" x="119.747727" xlink:href="#m3a7bf5aab3" y="41.196075"/>
     <use style="fill:#ff7f0e;stroke:#ff7f0e;" x="205.79233" xlink:href="#m3a7bf5aab3" y="112.013698"/>
     <use style="fill:#ff7f0e;stroke:#ff7f0e;" x="220.133097" xlink:href="#m3a7bf5aab3" y="90.298981"/>
     <use style="fill:#ff7f0e;stroke:#ff7f0e;" x="277.496165" xlink:href="#m3a7bf5aab3" y="128.152228"/>
     <use style="fill:#ff7f0e;stroke:#ff7f0e;" x="306.177699" xlink:href="#m3a7bf5aab3" y="126.285643"/>
     <use style="fill:#ff7f0e;stroke:#ff7f0e;" x="291.836932" xlink:href="#m3a7bf5aab3" y="123.375637"/>
     <use style="fill:#ff7f0e;stroke:#ff7f0e;" x="119.747727" xlink:href="#m3a7bf5aab3" y="116.875935"/>
     <use style="fill:#ff7f0e;stroke:#ff7f0e;" x="134.088494" xlink:href="#m3a7bf5aab3" y="116.406339"/>
     <use style="fill:#ff7f0e;stroke:#ff7f0e;" x="205.79233" xlink:href="#m3a7bf5aab3" y="142.985518"/>
     <use style="fill:#ff7f0e;stroke:#ff7f0e;" x="220.133097" xlink:href="#m3a7bf5aab3" y="155.783466"/>
     <use style="fill:#ff7f0e;stroke:#ff7f0e;" x="291.836932" xlink:href="#m3a7bf5aab3" y="123.375637"/>
     <use style="fill:#ff7f0e;stroke:#ff7f0e;" x="119.747727" xlink:href="#m3a7bf5aab3" y="92.548709"/>
     <use style="fill:#ff7f0e;stroke:#ff7f0e;" x="134.088494" xlink:href="#m3a7bf5aab3" y="77.637935"/>
     <use style="fill:#ff7f0e;stroke:#ff7f0e;" x="220.133097" xlink:href="#m3a7bf5aab3" y="123.229551"/>
     <use style="fill:#ff7f0e;stroke:#ff7f0e;" x="234.473864" xlink:href="#m3a7bf5aab3" y="127.500307"/>
     <use style="fill:#ff7f0e;stroke:#ff7f0e;" x="277.496165" xlink:href="#m3a7bf5aab3" y="128.152228"/>
     <use style="fill:#ff7f0e;stroke:#ff7f0e;" x="105.40696" xlink:href="#m3a7bf5aab3" y="104.47251"/>
     <use style="fill:#ff7f0e;stroke:#ff7f0e;" x="306.177699" xlink:href="#m3a7bf5aab3" y="126.285643"/>
     <use style="fill:#ff7f0e;stroke:#ff7f0e;" x="91.066193" xlink:href="#m3a7bf5aab3" y="109.541723"/>
     <use style="fill:#ff7f0e;stroke:#ff7f0e;" x="105.40696" xlink:href="#m3a7bf5aab3" y="88.751133"/>
     <use style="fill:#ff7f0e;stroke:#ff7f0e;" x="191.451562" xlink:href="#m3a7bf5aab3" y="123.777273"/>
     <use style="fill:#ff7f0e;stroke:#ff7f0e;" x="205.79233" xlink:href="#m3a7bf5aab3" y="134.239716"/>
     <use style="fill:#ff7f0e;stroke:#ff7f0e;" x="277.496165" xlink:href="#m3a7bf5aab3" y="128.152228"/>
     <use style="fill:#ff7f0e;stroke:#ff7f0e;" x="291.836932" xlink:href="#m3a7bf5aab3" y="123.375637"/>
    </g>
   </g>
   <g id="matplotlib.axis_1">
    <g id="xtick_1">
     <g id="line2d_1">
      <defs>
       <path d="M 0 0 
L 0 3.5 
" id="m297495ef16" style="stroke:#000000;stroke-width:0.8;"/>
      </defs>
      <g>
       <use style="stroke:#000000;stroke-width:0.8;" x="48.043892" xlink:href="#m297495ef16" y="260.521875"/>
      </g>
     </g>
     <g id="text_1">
      <!-- 10 -->
      <g transform="translate(41.681392 275.120313)scale(0.1 -0.1)">
       <defs>
        <path d="M 12.40625 8.296875 
L 28.515625 8.296875 
L 28.515625 63.921875 
L 10.984375 60.40625 
L 10.984375 69.390625 
L 28.421875 72.90625 
L 38.28125 72.90625 
L 38.28125 8.296875 
L 54.390625 8.296875 
L 54.390625 0 
L 12.40625 0 
z
" id="DejaVuSans-49"/>
        <path d="M 31.78125 66.40625 
Q 24.171875 66.40625 20.328125 58.90625 
Q 16.5 51.421875 16.5 36.375 
Q 16.5 21.390625 20.328125 13.890625 
Q 24.171875 6.390625 31.78125 6.390625 
Q 39.453125 6.390625 43.28125 13.890625 
Q 47.125 21.390625 47.125 36.375 
Q 47.125 51.421875 43.28125 58.90625 
Q 39.453125 66.40625 31.78125 66.40625 
z
M 31.78125 74.21875 
Q 44.046875 74.21875 50.515625 64.515625 
Q 56.984375 54.828125 56.984375 36.375 
Q 56.984375 17.96875 50.515625 8.265625 
Q 44.046875 -1.421875 31.78125 -1.421875 
Q 19.53125 -1.421875 13.0625 8.265625 
Q 6.59375 17.96875 6.59375 36.375 
Q 6.59375 54.828125 13.0625 64.515625 
Q 19.53125 74.21875 31.78125 74.21875 
z
" id="DejaVuSans-48"/>
       </defs>
       <use xlink:href="#DejaVuSans-49"/>
       <use x="63.623047" xlink:href="#DejaVuSans-48"/>
      </g>
     </g>
    </g>
    <g id="xtick_2">
     <g id="line2d_2">
      <g>
       <use style="stroke:#000000;stroke-width:0.8;" x="119.747727" xlink:href="#m297495ef16" y="260.521875"/>
      </g>
     </g>
     <g id="text_2">
      <!-- 15 -->
      <g transform="translate(113.385227 275.120313)scale(0.1 -0.1)">
       <defs>
        <path d="M 10.796875 72.90625 
L 49.515625 72.90625 
L 49.515625 64.59375 
L 19.828125 64.59375 
L 19.828125 46.734375 
Q 21.96875 47.46875 24.109375 47.828125 
Q 26.265625 48.1875 28.421875 48.1875 
Q 40.625 48.1875 47.75 41.5 
Q 54.890625 34.8125 54.890625 23.390625 
Q 54.890625 11.625 47.5625 5.09375 
Q 40.234375 -1.421875 26.90625 -1.421875 
Q 22.3125 -1.421875 17.546875 -0.640625 
Q 12.796875 0.140625 7.71875 1.703125 
L 7.71875 11.625 
Q 12.109375 9.234375 16.796875 8.0625 
Q 21.484375 6.890625 26.703125 6.890625 
Q 35.15625 6.890625 40.078125 11.328125 
Q 45.015625 15.765625 45.015625 23.390625 
Q 45.015625 31 40.078125 35.4375 
Q 35.15625 39.890625 26.703125 39.890625 
Q 22.75 39.890625 18.8125 39.015625 
Q 14.890625 38.140625 10.796875 36.28125 
z
" id="DejaVuSans-53"/>
       </defs>
       <use xlink:href="#DejaVuSans-49"/>
       <use x="63.623047" xlink:href="#DejaVuSans-53"/>
      </g>
     </g>
    </g>
    <g id="xtick_3">
     <g id="line2d_3">
      <g>
       <use style="stroke:#000000;stroke-width:0.8;" x="191.451562" xlink:href="#m297495ef16" y="260.521875"/>
      </g>
     </g>
     <g id="text_3">
      <!-- 20 -->
      <g transform="translate(185.089062 275.120313)scale(0.1 -0.1)">
       <defs>
        <path d="M 19.1875 8.296875 
L 53.609375 8.296875 
L 53.609375 0 
L 7.328125 0 
L 7.328125 8.296875 
Q 12.9375 14.109375 22.625 23.890625 
Q 32.328125 33.6875 34.8125 36.53125 
Q 39.546875 41.84375 41.421875 45.53125 
Q 43.3125 49.21875 43.3125 52.78125 
Q 43.3125 58.59375 39.234375 62.25 
Q 35.15625 65.921875 28.609375 65.921875 
Q 23.96875 65.921875 18.8125 64.3125 
Q 13.671875 62.703125 7.8125 59.421875 
L 7.8125 69.390625 
Q 13.765625 71.78125 18.9375 73 
Q 24.125 74.21875 28.421875 74.21875 
Q 39.75 74.21875 46.484375 68.546875 
Q 53.21875 62.890625 53.21875 53.421875 
Q 53.21875 48.921875 51.53125 44.890625 
Q 49.859375 40.875 45.40625 35.40625 
Q 44.1875 33.984375 37.640625 27.21875 
Q 31.109375 20.453125 19.1875 8.296875 
z
" id="DejaVuSans-50"/>
       </defs>
       <use xlink:href="#DejaVuSans-50"/>
       <use x="63.623047" xlink:href="#DejaVuSans-48"/>
      </g>
     </g>
    </g>
    <g id="xtick_4">
     <g id="line2d_4">
      <g>
       <use style="stroke:#000000;stroke-width:0.8;" x="263.155398" xlink:href="#m297495ef16" y="260.521875"/>
      </g>
     </g>
     <g id="text_4">
      <!-- 25 -->
      <g transform="translate(256.792898 275.120313)scale(0.1 -0.1)">
       <use xlink:href="#DejaVuSans-50"/>
       <use x="63.623047" xlink:href="#DejaVuSans-53"/>
      </g>
     </g>
    </g>
    <g id="xtick_5">
     <g id="line2d_5">
      <g>
       <use style="stroke:#000000;stroke-width:0.8;" x="334.859233" xlink:href="#m297495ef16" y="260.521875"/>
      </g>
     </g>
     <g id="text_5">
      <!-- 30 -->
      <g transform="translate(328.496733 275.120313)scale(0.1 -0.1)">
       <defs>
        <path d="M 40.578125 39.3125 
Q 47.65625 37.796875 51.625 33 
Q 55.609375 28.21875 55.609375 21.1875 
Q 55.609375 10.40625 48.1875 4.484375 
Q 40.765625 -1.421875 27.09375 -1.421875 
Q 22.515625 -1.421875 17.65625 -0.515625 
Q 12.796875 0.390625 7.625 2.203125 
L 7.625 11.71875 
Q 11.71875 9.328125 16.59375 8.109375 
Q 21.484375 6.890625 26.8125 6.890625 
Q 36.078125 6.890625 40.9375 10.546875 
Q 45.796875 14.203125 45.796875 21.1875 
Q 45.796875 27.640625 41.28125 31.265625 
Q 36.765625 34.90625 28.71875 34.90625 
L 20.21875 34.90625 
L 20.21875 43.015625 
L 29.109375 43.015625 
Q 36.375 43.015625 40.234375 45.921875 
Q 44.09375 48.828125 44.09375 54.296875 
Q 44.09375 59.90625 40.109375 62.90625 
Q 36.140625 65.921875 28.71875 65.921875 
Q 24.65625 65.921875 20.015625 65.03125 
Q 15.375 64.15625 9.8125 62.3125 
L 9.8125 71.09375 
Q 15.4375 72.65625 20.34375 73.4375 
Q 25.25 74.21875 29.59375 74.21875 
Q 40.828125 74.21875 47.359375 69.109375 
Q 53.90625 64.015625 53.90625 55.328125 
Q 53.90625 49.265625 50.4375 45.09375 
Q 46.96875 40.921875 40.578125 39.3125 
z
" id="DejaVuSans-51"/>
       </defs>
       <use xlink:href="#DejaVuSans-51"/>
       <use x="63.623047" xlink:href="#DejaVuSans-48"/>
      </g>
     </g>
    </g>
    <g id="xtick_6">
     <g id="line2d_6">
      <defs>
       <path d="M 0 0 
L 0 2 
" id="mabf9e9b3ff" style="stroke:#000000;stroke-width:0.6;"/>
      </defs>
      <g>
       <use style="stroke:#000000;stroke-width:0.6;" x="33.703125" xlink:href="#mabf9e9b3ff" y="260.521875"/>
      </g>
     </g>
    </g>
    <g id="xtick_7">
     <g id="line2d_7">
      <g>
       <use style="stroke:#000000;stroke-width:0.6;" x="62.384659" xlink:href="#mabf9e9b3ff" y="260.521875"/>
      </g>
     </g>
    </g>
    <g id="xtick_8">
     <g id="line2d_8">
      <g>
       <use style="stroke:#000000;stroke-width:0.6;" x="76.725426" xlink:href="#mabf9e9b3ff" y="260.521875"/>
      </g>
     </g>
    </g>
    <g id="xtick_9">
     <g id="line2d_9">
      <g>
       <use style="stroke:#000000;stroke-width:0.6;" x="91.066193" xlink:href="#mabf9e9b3ff" y="260.521875"/>
      </g>
     </g>
    </g>
    <g id="xtick_10">
     <g id="line2d_10">
      <g>
       <use style="stroke:#000000;stroke-width:0.6;" x="105.40696" xlink:href="#mabf9e9b3ff" y="260.521875"/>
      </g>
     </g>
    </g>
    <g id="xtick_11">
     <g id="line2d_11">
      <g>
       <use style="stroke:#000000;stroke-width:0.6;" x="134.088494" xlink:href="#mabf9e9b3ff" y="260.521875"/>
      </g>
     </g>
    </g>
    <g id="xtick_12">
     <g id="line2d_12">
      <g>
       <use style="stroke:#000000;stroke-width:0.6;" x="148.429261" xlink:href="#mabf9e9b3ff" y="260.521875"/>
      </g>
     </g>
    </g>
    <g id="xtick_13">
     <g id="line2d_13">
      <g>
       <use style="stroke:#000000;stroke-width:0.6;" x="162.770028" xlink:href="#mabf9e9b3ff" y="260.521875"/>
      </g>
     </g>
    </g>
    <g id="xtick_14">
     <g id="line2d_14">
      <g>
       <use style="stroke:#000000;stroke-width:0.6;" x="177.110795" xlink:href="#mabf9e9b3ff" y="260.521875"/>
      </g>
     </g>
    </g>
    <g id="xtick_15">
     <g id="line2d_15">
      <g>
       <use style="stroke:#000000;stroke-width:0.6;" x="205.79233" xlink:href="#mabf9e9b3ff" y="260.521875"/>
      </g>
     </g>
    </g>
    <g id="xtick_16">
     <g id="line2d_16">
      <g>
       <use style="stroke:#000000;stroke-width:0.6;" x="220.133097" xlink:href="#mabf9e9b3ff" y="260.521875"/>
      </g>
     </g>
    </g>
    <g id="xtick_17">
     <g id="line2d_17">
      <g>
       <use style="stroke:#000000;stroke-width:0.6;" x="234.473864" xlink:href="#mabf9e9b3ff" y="260.521875"/>
      </g>
     </g>
    </g>
    <g id="xtick_18">
     <g id="line2d_18">
      <g>
       <use style="stroke:#000000;stroke-width:0.6;" x="248.814631" xlink:href="#mabf9e9b3ff" y="260.521875"/>
      </g>
     </g>
    </g>
    <g id="xtick_19">
     <g id="line2d_19">
      <g>
       <use style="stroke:#000000;stroke-width:0.6;" x="277.496165" xlink:href="#mabf9e9b3ff" y="260.521875"/>
      </g>
     </g>
    </g>
    <g id="xtick_20">
     <g id="line2d_20">
      <g>
       <use style="stroke:#000000;stroke-width:0.6;" x="291.836932" xlink:href="#mabf9e9b3ff" y="260.521875"/>
      </g>
     </g>
    </g>
    <g id="xtick_21">
     <g id="line2d_21">
      <g>
       <use style="stroke:#000000;stroke-width:0.6;" x="306.177699" xlink:href="#mabf9e9b3ff" y="260.521875"/>
      </g>
     </g>
    </g>
    <g id="xtick_22">
     <g id="line2d_22">
      <g>
       <use style="stroke:#000000;stroke-width:0.6;" x="320.518466" xlink:href="#mabf9e9b3ff" y="260.521875"/>
      </g>
     </g>
    </g>
    <g id="xtick_23">
     <g id="line2d_23">
      <g>
       <use style="stroke:#000000;stroke-width:0.6;" x="349.2" xlink:href="#mabf9e9b3ff" y="260.521875"/>
      </g>
     </g>
    </g>
   </g>
   <g id="matplotlib.axis_2">
    <g id="ytick_1">
     <g id="line2d_24">
      <defs>
       <path d="M 0 0 
L -3.5 0 
" id="m387602ce9f" style="stroke:#000000;stroke-width:0.8;"/>
      </defs>
      <g>
       <use style="stroke:#000000;stroke-width:0.8;" x="33.703125" xlink:href="#m387602ce9f" y="260.521875"/>
      </g>
     </g>
     <g id="text_6">
      <!-- 0.0 -->
      <g transform="translate(10.8 264.321094)scale(0.1 -0.1)">
       <defs>
        <path d="M 10.6875 12.40625 
L 21 12.40625 
L 21 0 
L 10.6875 0 
z
" id="DejaVuSans-46"/>
       </defs>
       <use xlink:href="#DejaVuSans-48"/>
       <use x="63.623047" xlink:href="#DejaVuSans-46"/>
       <use x="95.410156" xlink:href="#DejaVuSans-48"/>
      </g>
     </g>
    </g>
    <g id="ytick_2">
     <g id="line2d_25">
      <g>
       <use style="stroke:#000000;stroke-width:0.8;" x="33.703125" xlink:href="#m387602ce9f" y="199.041211"/>
      </g>
     </g>
     <g id="text_7">
      <!-- 0.5 -->
      <g transform="translate(10.8 202.84043)scale(0.1 -0.1)">
       <use xlink:href="#DejaVuSans-48"/>
       <use x="63.623047" xlink:href="#DejaVuSans-46"/>
       <use x="95.410156" xlink:href="#DejaVuSans-53"/>
      </g>
     </g>
    </g>
    <g id="ytick_3">
     <g id="line2d_26">
      <g>
       <use style="stroke:#000000;stroke-width:0.8;" x="33.703125" xlink:href="#m387602ce9f" y="137.560547"/>
      </g>
     </g>
     <g id="text_8">
      <!-- 1.0 -->
      <g transform="translate(10.8 141.359766)scale(0.1 -0.1)">
       <use xlink:href="#DejaVuSans-49"/>
       <use x="63.623047" xlink:href="#DejaVuSans-46"/>
       <use x="95.410156" xlink:href="#DejaVuSans-48"/>
      </g>
     </g>
    </g>
    <g id="ytick_4">
     <g id="line2d_27">
      <g>
       <use style="stroke:#000000;stroke-width:0.8;" x="33.703125" xlink:href="#m387602ce9f" y="76.079883"/>
      </g>
     </g>
     <g id="text_9">
      <!-- 1.5 -->
      <g transform="translate(10.8 79.879102)scale(0.1 -0.1)">
       <use xlink:href="#DejaVuSans-49"/>
       <use x="63.623047" xlink:href="#DejaVuSans-46"/>
       <use x="95.410156" xlink:href="#DejaVuSans-53"/>
      </g>
     </g>
    </g>
    <g id="ytick_5">
     <g id="line2d_28">
      <g>
       <use style="stroke:#000000;stroke-width:0.8;" x="33.703125" xlink:href="#m387602ce9f" y="14.599219"/>
      </g>
     </g>
     <g id="text_10">
      <!-- 2.0 -->
      <g transform="translate(10.8 18.398438)scale(0.1 -0.1)">
       <use xlink:href="#DejaVuSans-50"/>
       <use x="63.623047" xlink:href="#DejaVuSans-46"/>
       <use x="95.410156" xlink:href="#DejaVuSans-48"/>
      </g>
     </g>
    </g>
    <g id="ytick_6">
     <g id="line2d_29">
      <defs>
       <path d="M 0 0 
L -2 0 
" id="m8dc2f528a0" style="stroke:#000000;stroke-width:0.6;"/>
      </defs>
      <g>
       <use style="stroke:#000000;stroke-width:0.6;" x="33.703125" xlink:href="#m8dc2f528a0" y="229.781543"/>
      </g>
     </g>
    </g>
    <g id="ytick_7">
     <g id="line2d_30">
      <g>
       <use style="stroke:#000000;stroke-width:0.6;" x="33.703125" xlink:href="#m8dc2f528a0" y="168.300879"/>
      </g>
     </g>
    </g>
    <g id="ytick_8">
     <g id="line2d_31">
      <g>
       <use style="stroke:#000000;stroke-width:0.6;" x="33.703125" xlink:href="#m8dc2f528a0" y="106.820215"/>
      </g>
     </g>
    </g>
    <g id="ytick_9">
     <g id="line2d_32">
      <g>
       <use style="stroke:#000000;stroke-width:0.6;" x="33.703125" xlink:href="#m8dc2f528a0" y="45.339551"/>
      </g>
     </g>
    </g>
   </g>
   <g id="line2d_33">
    <path clip-path="url(#p43cd5dfb6c)" d="M 48.043892 137.560547 
L 334.859233 137.560547 
" style="fill:none;stroke:#000000;stroke-dasharray:5.55,2.4;stroke-dashoffset:0;stroke-width:1.5;"/>
   </g>
   <g id="patch_3">
    <path d="M 33.703125 260.521875 
L 33.703125 14.599219 
" style="fill:none;stroke:#000000;stroke-linecap:square;stroke-linejoin:miter;stroke-width:0.8;"/>
   </g>
   <g id="patch_4">
    <path d="M 349.2 260.521875 
L 349.2 14.599219 
" style="fill:none;stroke:#000000;stroke-linecap:square;stroke-linejoin:miter;stroke-width:0.8;"/>
   </g>
   <g id="patch_5">
    <path d="M 33.703125 260.521875 
L 349.2 260.521875 
" style="fill:none;stroke:#000000;stroke-linecap:square;stroke-linejoin:miter;stroke-width:0.8;"/>
   </g>
   <g id="patch_6">
    <path d="M 33.703125 14.599219 
L 349.2 14.599219 
" style="fill:none;stroke:#000000;stroke-linecap:square;stroke-linejoin:miter;stroke-width:0.8;"/>
   </g>
   <g id="legend_1">
    <g id="patch_7">
     <path d="M 286.396875 51.955469 
L 342.2 51.955469 
Q 344.2 51.955469 344.2 49.955469 
L 344.2 21.599219 
Q 344.2 19.599219 342.2 19.599219 
L 286.396875 19.599219 
Q 284.396875 19.599219 284.396875 21.599219 
L 284.396875 49.955469 
Q 284.396875 51.955469 286.396875 51.955469 
z
" style="fill:#ffffff;opacity:0.8;stroke:#cccccc;stroke-linejoin:miter;"/>
    </g>
    <g id="PathCollection_3">
     <g>
      <use style="fill:#1f77b4;stroke:#1f77b4;" x="298.396875" xlink:href="#mdb4f0745d4" y="28.572656"/>
     </g>
    </g>
    <g id="text_11">
     <!-- MM -->
     <g transform="translate(316.396875 31.197656)scale(0.1 -0.1)">
      <defs>
       <path d="M 9.8125 72.90625 
L 24.515625 72.90625 
L 43.109375 23.296875 
L 61.8125 72.90625 
L 76.515625 72.90625 
L 76.515625 0 
L 66.890625 0 
L 66.890625 64.015625 
L 48.09375 14.015625 
L 38.1875 14.015625 
L 19.390625 64.015625 
L 19.390625 0 
L 9.8125 0 
z
" id="DejaVuSans-77"/>
      </defs>
      <use xlink:href="#DejaVuSans-77"/>
      <use x="86.279297" xlink:href="#DejaVuSans-77"/>
     </g>
    </g>
    <g id="PathCollection_4">
     <g>
      <use style="fill:#ff7f0e;stroke:#ff7f0e;" x="298.396875" xlink:href="#m3a7bf5aab3" y="43.250781"/>
     </g>
    </g>
    <g id="text_12">
     <!-- FToD -->
     <g transform="translate(316.396875 45.875781)scale(0.1 -0.1)">
      <defs>
       <path d="M 9.8125 72.90625 
L 51.703125 72.90625 
L 51.703125 64.59375 
L 19.671875 64.59375 
L 19.671875 43.109375 
L 48.578125 43.109375 
L 48.578125 34.8125 
L 19.671875 34.8125 
L 19.671875 0 
L 9.8125 0 
z
" id="DejaVuSans-70"/>
       <path d="M -0.296875 72.90625 
L 61.375 72.90625 
L 61.375 64.59375 
L 35.5 64.59375 
L 35.5 0 
L 25.59375 0 
L 25.59375 64.59375 
L -0.296875 64.59375 
z
" id="DejaVuSans-84"/>
       <path d="M 30.609375 48.390625 
Q 23.390625 48.390625 19.1875 42.75 
Q 14.984375 37.109375 14.984375 27.296875 
Q 14.984375 17.484375 19.15625 11.84375 
Q 23.34375 6.203125 30.609375 6.203125 
Q 37.796875 6.203125 41.984375 11.859375 
Q 46.1875 17.53125 46.1875 27.296875 
Q 46.1875 37.015625 41.984375 42.703125 
Q 37.796875 48.390625 30.609375 48.390625 
z
M 30.609375 56 
Q 42.328125 56 49.015625 48.375 
Q 55.71875 40.765625 55.71875 27.296875 
Q 55.71875 13.875 49.015625 6.21875 
Q 42.328125 -1.421875 30.609375 -1.421875 
Q 18.84375 -1.421875 12.171875 6.21875 
Q 5.515625 13.875 5.515625 27.296875 
Q 5.515625 40.765625 12.171875 48.375 
Q 18.84375 56 30.609375 56 
z
" id="DejaVuSans-111"/>
       <path d="M 19.671875 64.796875 
L 19.671875 8.109375 
L 31.59375 8.109375 
Q 46.6875 8.109375 53.6875 14.9375 
Q 60.6875 21.78125 60.6875 36.53125 
Q 60.6875 51.171875 53.6875 57.984375 
Q 46.6875 64.796875 31.59375 64.796875 
z
M 9.8125 72.90625 
L 30.078125 72.90625 
Q 51.265625 72.90625 61.171875 64.09375 
Q 71.09375 55.28125 71.09375 36.53125 
Q 71.09375 17.671875 61.125 8.828125 
Q 51.171875 0 30.078125 0 
L 9.8125 0 
z
" id="DejaVuSans-68"/>
      </defs>
      <use xlink:href="#DejaVuSans-70"/>
      <use x="55.769531" xlink:href="#DejaVuSans-84"/>
      <use x="99.853516" xlink:href="#DejaVuSans-111"/>
      <use x="161.035156" xlink:href="#DejaVuSans-68"/>
     </g>
    </g>
   </g>
  </g>
 </g>
 <defs>
  <clipPath id="p43cd5dfb6c">
   <rect height="245.922656" width="315.496875" x="33.703125" y="14.599219"/>
  </clipPath>
 </defs>
</svg>
