<?xml version="1.0" encoding="utf-8" standalone="no"?>
<!DOCTYPE svg PUBLIC "-//W3C//DTD SVG 1.1//EN"
  "http://www.w3.org/Graphics/SVG/1.1/DTD/svg11.dtd">
<!-- Created with matplotlib (https://matplotlib.org/) -->
<svg height="576pt" version="1.1" viewBox="0 0 360 576" width="360pt" xmlns="http://www.w3.org/2000/svg" xmlns:xlink="http://www.w3.org/1999/xlink">
 <metadata>
  <rdf:RDF xmlns:cc="http://creativecommons.org/ns#" xmlns:dc="http://purl.org/dc/elements/1.1/" xmlns:rdf="http://www.w3.org/1999/02/22-rdf-syntax-ns#">
   <cc:Work>
    <dc:type rdf:resource="http://purl.org/dc/dcmitype/StillImage"/>
    <dc:date>2021-12-03T21:43:59.134325</dc:date>
    <dc:format>image/svg+xml</dc:format>
    <dc:creator>
     <cc:Agent>
      <dc:title>Matplotlib v3.3.4, https://matplotlib.org/</dc:title>
     </cc:Agent>
    </dc:creator>
    <dc:contributor>
     <cc:Agent>
      <dc:title>T. Dunn</dc:title>
     </cc:Agent>
    </dc:contributor>
   </cc:Work>
  </rdf:RDF>
 </metadata>
 <defs>
  <style type="text/css">*{stroke-linecap:butt;stroke-linejoin:round;}</style>
 </defs>
 <g id="figure_1">
  <g id="patch_1">
   <path d="M 0 576 
L 360 576 
L 360 0 
L 0 0 
z
" style="fill:none;"/>
  </g>
  <g id="axes_1">
   <g id="patch_2">
    <path d="M 44.203125 280.380937 
L 349.2 280.380937 
L 349.2 25.918125 
L 44.203125 25.918125 
z
" style="fill:#ffffff;"/>
   </g>
   <g id="PathCollection_1">
    <defs>
     <path d="M 0 3 
C 0.795609 3 1.55874 2.683901 2.12132 2.12132 
C 2.683901 1.55874 3 0.795609 3 0 
C 3 -0.795609 2.683901 -1.55874 2.12132 -2.12132 
C 1.55874 -2.683901 0.795609 -3 0 -3 
C -0.795609 -3 -1.55874 -2.683901 -2.12132 -2.12132 
C -2.683901 -1.55874 -3 -0.795609 -3 0 
C -3 0.795609 -2.683901 1.55874 -2.12132 2.12132 
C -1.55874 2.683901 -0.795609 3 0 3 
z
" id="m5de6bdd73e" style="stroke:#d62728;"/>
    </defs>
    <g clip-path="url(#pec08ba676c)">
     <use style="fill:#d62728;stroke:#d62728;" x="72.796582" xlink:href="#m5de6bdd73e" y="201.626589"/>
     <use style="fill:#d62728;stroke:#d62728;" x="101.390039" xlink:href="#m5de6bdd73e" y="185.231251"/>
     <use style="fill:#d62728;stroke:#d62728;" x="129.983496" xlink:href="#m5de6bdd73e" y="166.632628"/>
     <use style="fill:#d62728;stroke:#d62728;" x="158.576953" xlink:href="#m5de6bdd73e" y="150.985732"/>
     <use style="fill:#d62728;stroke:#d62728;" x="187.17041" xlink:href="#m5de6bdd73e" y="144.384701"/>
     <use style="fill:#d62728;stroke:#d62728;" x="215.763867" xlink:href="#m5de6bdd73e" y="142.746963"/>
     <use style="fill:#d62728;stroke:#d62728;" x="244.357324" xlink:href="#m5de6bdd73e" y="103.670651"/>
     <use style="fill:#d62728;stroke:#d62728;" x="272.950781" xlink:href="#m5de6bdd73e" y="87.729127"/>
     <use style="fill:#d62728;stroke:#d62728;" x="301.544238" xlink:href="#m5de6bdd73e" y="40.938499"/>
    </g>
   </g>
   <g id="PathCollection_2">
    <defs>
     <path d="M 0 3 
C 0.795609 3 1.55874 2.683901 2.12132 2.12132 
C 2.683901 1.55874 3 0.795609 3 0 
C 3 -0.795609 2.683901 -1.55874 2.12132 -2.12132 
C 1.55874 -2.683901 0.795609 -3 0 -3 
C -0.795609 -3 -1.55874 -2.683901 -2.12132 -2.12132 
C -2.683901 -1.55874 -3 -0.795609 -3 0 
C -3 0.795609 -2.683901 1.55874 -2.12132 2.12132 
C -1.55874 2.683901 -0.795609 3 0 3 
z
" id="m28a70e99a9" style="stroke:#9467bd;"/>
    </defs>
    <g clip-path="url(#pec08ba676c)">
     <use style="fill:#9467bd;stroke:#9467bd;" x="72.796582" xlink:href="#m28a70e99a9" y="208.472374"/>
     <use style="fill:#9467bd;stroke:#9467bd;" x="101.390039" xlink:href="#m28a70e99a9" y="207.531959"/>
     <use style="fill:#9467bd;stroke:#9467bd;" x="129.983496" xlink:href="#m28a70e99a9" y="205.856183"/>
     <use style="fill:#9467bd;stroke:#9467bd;" x="158.576953" xlink:href="#m28a70e99a9" y="208.975556"/>
     <use style="fill:#9467bd;stroke:#9467bd;" x="187.17041" xlink:href="#m28a70e99a9" y="205.738512"/>
     <use style="fill:#9467bd;stroke:#9467bd;" x="215.763867" xlink:href="#m28a70e99a9" y="188.758321"/>
     <use style="fill:#9467bd;stroke:#9467bd;" x="244.357324" xlink:href="#m28a70e99a9" y="182.708343"/>
     <use style="fill:#9467bd;stroke:#9467bd;" x="272.950781" xlink:href="#m28a70e99a9" y="191.499423"/>
     <use style="fill:#9467bd;stroke:#9467bd;" x="301.544238" xlink:href="#m28a70e99a9" y="200.861309"/>
    </g>
   </g>
   <g id="PathCollection_3">
    <defs>
     <path d="M 0 3 
C 0.795609 3 1.55874 2.683901 2.12132 2.12132 
C 2.683901 1.55874 3 0.795609 3 0 
C 3 -0.795609 2.683901 -1.55874 2.12132 -2.12132 
C 1.55874 -2.683901 0.795609 -3 0 -3 
C -0.795609 -3 -1.55874 -2.683901 -2.12132 -2.12132 
C -2.683901 -1.55874 -3 -0.795609 -3 0 
C -3 0.795609 -2.683901 1.55874 -2.12132 2.12132 
C -1.55874 2.683901 -0.795609 3 0 3 
z
" id="m1c078ba6f6" style="stroke:#8c564b;"/>
    </defs>
    <g clip-path="url(#pec08ba676c)">
     <use style="fill:#8c564b;stroke:#8c564b;" x="72.796582" xlink:href="#m1c078ba6f6" y="200.40214"/>
     <use style="fill:#8c564b;stroke:#8c564b;" x="101.390039" xlink:href="#m1c078ba6f6" y="182.257823"/>
     <use style="fill:#8c564b;stroke:#8c564b;" x="129.983496" xlink:href="#m1c078ba6f6" y="168.71638"/>
     <use style="fill:#8c564b;stroke:#8c564b;" x="158.576953" xlink:href="#m1c078ba6f6" y="153.149531"/>
     <use style="fill:#8c564b;stroke:#8c564b;" x="187.17041" xlink:href="#m1c078ba6f6" y="147.494802"/>
     <use style="fill:#8c564b;stroke:#8c564b;" x="215.763867" xlink:href="#m1c078ba6f6" y="133.944791"/>
     <use style="fill:#8c564b;stroke:#8c564b;" x="244.357324" xlink:href="#m1c078ba6f6" y="104.955817"/>
     <use style="fill:#8c564b;stroke:#8c564b;" x="272.950781" xlink:href="#m1c078ba6f6" y="100.362033"/>
     <use style="fill:#8c564b;stroke:#8c564b;" x="301.544238" xlink:href="#m1c078ba6f6" y="51.541117"/>
    </g>
   </g>
   <g id="PathCollection_4">
    <defs>
     <path d="M 0 3 
C 0.795609 3 1.55874 2.683901 2.12132 2.12132 
C 2.683901 1.55874 3 0.795609 3 0 
C 3 -0.795609 2.683901 -1.55874 2.12132 -2.12132 
C 1.55874 -2.683901 0.795609 -3 0 -3 
C -0.795609 -3 -1.55874 -2.683901 -2.12132 -2.12132 
C -2.683901 -1.55874 -3 -0.795609 -3 0 
C -3 0.795609 -2.683901 1.55874 -2.12132 2.12132 
C -1.55874 2.683901 -0.795609 3 0 3 
z
" id="m7556cbe103" style="stroke:#1f77b4;"/>
    </defs>
    <g clip-path="url(#pec08ba676c)">
     <use style="fill:#1f77b4;stroke:#1f77b4;" x="72.796582" xlink:href="#m7556cbe103" y="258.285195"/>
     <use style="fill:#1f77b4;stroke:#1f77b4;" x="101.390039" xlink:href="#m7556cbe103" y="238.361709"/>
     <use style="fill:#1f77b4;stroke:#1f77b4;" x="129.983496" xlink:href="#m7556cbe103" y="230.125758"/>
     <use style="fill:#1f77b4;stroke:#1f77b4;" x="158.576953" xlink:href="#m7556cbe103" y="214.601435"/>
     <use style="fill:#1f77b4;stroke:#1f77b4;" x="187.17041" xlink:href="#m7556cbe103" y="196.690946"/>
     <use style="fill:#1f77b4;stroke:#1f77b4;" x="215.763867" xlink:href="#m7556cbe103" y="190.758815"/>
     <use style="fill:#1f77b4;stroke:#1f77b4;" x="244.357324" xlink:href="#m7556cbe103" y="162.145691"/>
     <use style="fill:#1f77b4;stroke:#1f77b4;" x="272.950781" xlink:href="#m7556cbe103" y="142.772502"/>
     <use style="fill:#1f77b4;stroke:#1f77b4;" x="301.544238" xlink:href="#m7556cbe103" y="112.506165"/>
    </g>
   </g>
   <g id="PathCollection_5">
    <defs>
     <path d="M 0 3 
C 0.795609 3 1.55874 2.683901 2.12132 2.12132 
C 2.683901 1.55874 3 0.795609 3 0 
C 3 -0.795609 2.683901 -1.55874 2.12132 -2.12132 
C 1.55874 -2.683901 0.795609 -3 0 -3 
C -0.795609 -3 -1.55874 -2.683901 -2.12132 -2.12132 
C -2.683901 -1.55874 -3 -0.795609 -3 0 
C -3 0.795609 -2.683901 1.55874 -2.12132 2.12132 
C -1.55874 2.683901 -0.795609 3 0 3 
z
" id="mb11530b9f2" style="stroke:#2ca02c;"/>
    </defs>
    <g clip-path="url(#pec08ba676c)">
     <use style="fill:#2ca02c;stroke:#2ca02c;" x="72.796582" xlink:href="#mb11530b9f2" y="228.564472"/>
     <use style="fill:#2ca02c;stroke:#2ca02c;" x="101.390039" xlink:href="#mb11530b9f2" y="216.608738"/>
     <use style="fill:#2ca02c;stroke:#2ca02c;" x="129.983496" xlink:href="#mb11530b9f2" y="210.023686"/>
     <use style="fill:#2ca02c;stroke:#2ca02c;" x="158.576953" xlink:href="#mb11530b9f2" y="196.6419"/>
     <use style="fill:#2ca02c;stroke:#2ca02c;" x="187.17041" xlink:href="#mb11530b9f2" y="196.125473"/>
     <use style="fill:#2ca02c;stroke:#2ca02c;" x="215.763867" xlink:href="#mb11530b9f2" y="175.955161"/>
     <use style="fill:#2ca02c;stroke:#2ca02c;" x="244.357324" xlink:href="#mb11530b9f2" y="156.362446"/>
     <use style="fill:#2ca02c;stroke:#2ca02c;" x="272.950781" xlink:href="#mb11530b9f2" y="147.284254"/>
     <use style="fill:#2ca02c;stroke:#2ca02c;" x="301.544238" xlink:href="#mb11530b9f2" y="141.663363"/>
    </g>
   </g>
   <g id="PathCollection_6">
    <defs>
     <path d="M 0 3 
C 0.795609 3 1.55874 2.683901 2.12132 2.12132 
C 2.683901 1.55874 3 0.795609 3 0 
C 3 -0.795609 2.683901 -1.55874 2.12132 -2.12132 
C 1.55874 -2.683901 0.795609 -3 0 -3 
C -0.795609 -3 -1.55874 -2.683901 -2.12132 -2.12132 
C -2.683901 -1.55874 -3 -0.795609 -3 0 
C -3 0.795609 -2.683901 1.55874 -2.12132 2.12132 
C -1.55874 2.683901 -0.795609 3 0 3 
z
" id="m956a75c2ae" style="stroke:#ff7f0e;"/>
    </defs>
    <g clip-path="url(#pec08ba676c)">
     <use style="fill:#ff7f0e;stroke:#ff7f0e;" x="72.796582" xlink:href="#m956a75c2ae" y="246.931211"/>
     <use style="fill:#ff7f0e;stroke:#ff7f0e;" x="101.390039" xlink:href="#m956a75c2ae" y="229.910915"/>
     <use style="fill:#ff7f0e;stroke:#ff7f0e;" x="129.983496" xlink:href="#m956a75c2ae" y="217.868397"/>
     <use style="fill:#ff7f0e;stroke:#ff7f0e;" x="158.576953" xlink:href="#m956a75c2ae" y="196.6419"/>
     <use style="fill:#ff7f0e;stroke:#ff7f0e;" x="187.17041" xlink:href="#m956a75c2ae" y="183.685069"/>
     <use style="fill:#ff7f0e;stroke:#ff7f0e;" x="215.763867" xlink:href="#m956a75c2ae" y="165.952692"/>
     <use style="fill:#ff7f0e;stroke:#ff7f0e;" x="244.357324" xlink:href="#m956a75c2ae" y="132.58688"/>
     <use style="fill:#ff7f0e;stroke:#ff7f0e;" x="272.950781" xlink:href="#m956a75c2ae" y="131.493122"/>
     <use style="fill:#ff7f0e;stroke:#ff7f0e;" x="301.544238" xlink:href="#m956a75c2ae" y="107.204857"/>
    </g>
   </g>
   <g id="matplotlib.axis_1">
    <g id="xtick_1">
     <g id="line2d_1">
      <path clip-path="url(#pec08ba676c)" d="M 53.734277 280.380937 
L 53.734277 25.918125 
" style="fill:none;stroke:#b0b0b0;stroke-linecap:square;stroke-opacity:0.4;stroke-width:0.8;"/>
     </g>
     <g id="line2d_2">
      <defs>
       <path d="M 0 0 
L 0 3.5 
" id="mefef332d6d" style="stroke:#000000;stroke-width:0.8;"/>
      </defs>
      <g>
       <use style="stroke:#000000;stroke-width:0.8;" x="53.734277" xlink:href="#mefef332d6d" y="280.380937"/>
      </g>
     </g>
    </g>
    <g id="xtick_2">
     <g id="line2d_3">
      <path clip-path="url(#pec08ba676c)" d="M 101.390039 280.380937 
L 101.390039 25.918125 
" style="fill:none;stroke:#b0b0b0;stroke-linecap:square;stroke-opacity:0.4;stroke-width:0.8;"/>
     </g>
     <g id="line2d_4">
      <g>
       <use style="stroke:#000000;stroke-width:0.8;" x="101.390039" xlink:href="#mefef332d6d" y="280.380937"/>
      </g>
     </g>
    </g>
    <g id="xtick_3">
     <g id="line2d_5">
      <path clip-path="url(#pec08ba676c)" d="M 149.045801 280.380937 
L 149.045801 25.918125 
" style="fill:none;stroke:#b0b0b0;stroke-linecap:square;stroke-opacity:0.4;stroke-width:0.8;"/>
     </g>
     <g id="line2d_6">
      <g>
       <use style="stroke:#000000;stroke-width:0.8;" x="149.045801" xlink:href="#mefef332d6d" y="280.380937"/>
      </g>
     </g>
    </g>
    <g id="xtick_4">
     <g id="line2d_7">
      <path clip-path="url(#pec08ba676c)" d="M 196.701563 280.380937 
L 196.701563 25.918125 
" style="fill:none;stroke:#b0b0b0;stroke-linecap:square;stroke-opacity:0.4;stroke-width:0.8;"/>
     </g>
     <g id="line2d_8">
      <g>
       <use style="stroke:#000000;stroke-width:0.8;" x="196.701563" xlink:href="#mefef332d6d" y="280.380937"/>
      </g>
     </g>
    </g>
    <g id="xtick_5">
     <g id="line2d_9">
      <path clip-path="url(#pec08ba676c)" d="M 244.357324 280.380937 
L 244.357324 25.918125 
" style="fill:none;stroke:#b0b0b0;stroke-linecap:square;stroke-opacity:0.4;stroke-width:0.8;"/>
     </g>
     <g id="line2d_10">
      <g>
       <use style="stroke:#000000;stroke-width:0.8;" x="244.357324" xlink:href="#mefef332d6d" y="280.380937"/>
      </g>
     </g>
    </g>
    <g id="xtick_6">
     <g id="line2d_11">
      <path clip-path="url(#pec08ba676c)" d="M 292.013086 280.380937 
L 292.013086 25.918125 
" style="fill:none;stroke:#b0b0b0;stroke-linecap:square;stroke-opacity:0.4;stroke-width:0.8;"/>
     </g>
     <g id="line2d_12">
      <g>
       <use style="stroke:#000000;stroke-width:0.8;" x="292.013086" xlink:href="#mefef332d6d" y="280.380937"/>
      </g>
     </g>
    </g>
    <g id="xtick_7">
     <g id="line2d_13">
      <path clip-path="url(#pec08ba676c)" d="M 339.668848 280.380937 
L 339.668848 25.918125 
" style="fill:none;stroke:#b0b0b0;stroke-linecap:square;stroke-opacity:0.4;stroke-width:0.8;"/>
     </g>
     <g id="line2d_14">
      <g>
       <use style="stroke:#000000;stroke-width:0.8;" x="339.668848" xlink:href="#mefef332d6d" y="280.380937"/>
      </g>
     </g>
    </g>
    <g id="xtick_8">
     <g id="line2d_15">
      <defs>
       <path d="M 0 0 
L 0 2 
" id="mc9f73350a2" style="stroke:#000000;stroke-width:0.6;"/>
      </defs>
      <g>
       <use style="stroke:#000000;stroke-width:0.6;" x="44.203125" xlink:href="#mc9f73350a2" y="280.380937"/>
      </g>
     </g>
    </g>
    <g id="xtick_9">
     <g id="line2d_16">
      <g>
       <use style="stroke:#000000;stroke-width:0.6;" x="63.26543" xlink:href="#mc9f73350a2" y="280.380937"/>
      </g>
     </g>
    </g>
    <g id="xtick_10">
     <g id="line2d_17">
      <g>
       <use style="stroke:#000000;stroke-width:0.6;" x="72.796582" xlink:href="#mc9f73350a2" y="280.380937"/>
      </g>
     </g>
    </g>
    <g id="xtick_11">
     <g id="line2d_18">
      <g>
       <use style="stroke:#000000;stroke-width:0.6;" x="82.327734" xlink:href="#mc9f73350a2" y="280.380937"/>
      </g>
     </g>
    </g>
    <g id="xtick_12">
     <g id="line2d_19">
      <g>
       <use style="stroke:#000000;stroke-width:0.6;" x="91.858887" xlink:href="#mc9f73350a2" y="280.380937"/>
      </g>
     </g>
    </g>
    <g id="xtick_13">
     <g id="line2d_20">
      <g>
       <use style="stroke:#000000;stroke-width:0.6;" x="110.921191" xlink:href="#mc9f73350a2" y="280.380937"/>
      </g>
     </g>
    </g>
    <g id="xtick_14">
     <g id="line2d_21">
      <g>
       <use style="stroke:#000000;stroke-width:0.6;" x="120.452344" xlink:href="#mc9f73350a2" y="280.380937"/>
      </g>
     </g>
    </g>
    <g id="xtick_15">
     <g id="line2d_22">
      <g>
       <use style="stroke:#000000;stroke-width:0.6;" x="129.983496" xlink:href="#mc9f73350a2" y="280.380937"/>
      </g>
     </g>
    </g>
    <g id="xtick_16">
     <g id="line2d_23">
      <g>
       <use style="stroke:#000000;stroke-width:0.6;" x="139.514648" xlink:href="#mc9f73350a2" y="280.380937"/>
      </g>
     </g>
    </g>
    <g id="xtick_17">
     <g id="line2d_24">
      <g>
       <use style="stroke:#000000;stroke-width:0.6;" x="158.576953" xlink:href="#mc9f73350a2" y="280.380937"/>
      </g>
     </g>
    </g>
    <g id="xtick_18">
     <g id="line2d_25">
      <g>
       <use style="stroke:#000000;stroke-width:0.6;" x="168.108105" xlink:href="#mc9f73350a2" y="280.380937"/>
      </g>
     </g>
    </g>
    <g id="xtick_19">
     <g id="line2d_26">
      <g>
       <use style="stroke:#000000;stroke-width:0.6;" x="177.639258" xlink:href="#mc9f73350a2" y="280.380937"/>
      </g>
     </g>
    </g>
    <g id="xtick_20">
     <g id="line2d_27">
      <g>
       <use style="stroke:#000000;stroke-width:0.6;" x="187.17041" xlink:href="#mc9f73350a2" y="280.380937"/>
      </g>
     </g>
    </g>
    <g id="xtick_21">
     <g id="line2d_28">
      <g>
       <use style="stroke:#000000;stroke-width:0.6;" x="206.232715" xlink:href="#mc9f73350a2" y="280.380937"/>
      </g>
     </g>
    </g>
    <g id="xtick_22">
     <g id="line2d_29">
      <g>
       <use style="stroke:#000000;stroke-width:0.6;" x="215.763867" xlink:href="#mc9f73350a2" y="280.380937"/>
      </g>
     </g>
    </g>
    <g id="xtick_23">
     <g id="line2d_30">
      <g>
       <use style="stroke:#000000;stroke-width:0.6;" x="225.29502" xlink:href="#mc9f73350a2" y="280.380937"/>
      </g>
     </g>
    </g>
    <g id="xtick_24">
     <g id="line2d_31">
      <g>
       <use style="stroke:#000000;stroke-width:0.6;" x="234.826172" xlink:href="#mc9f73350a2" y="280.380937"/>
      </g>
     </g>
    </g>
    <g id="xtick_25">
     <g id="line2d_32">
      <g>
       <use style="stroke:#000000;stroke-width:0.6;" x="253.888477" xlink:href="#mc9f73350a2" y="280.380937"/>
      </g>
     </g>
    </g>
    <g id="xtick_26">
     <g id="line2d_33">
      <g>
       <use style="stroke:#000000;stroke-width:0.6;" x="263.419629" xlink:href="#mc9f73350a2" y="280.380937"/>
      </g>
     </g>
    </g>
    <g id="xtick_27">
     <g id="line2d_34">
      <g>
       <use style="stroke:#000000;stroke-width:0.6;" x="272.950781" xlink:href="#mc9f73350a2" y="280.380937"/>
      </g>
     </g>
    </g>
    <g id="xtick_28">
     <g id="line2d_35">
      <g>
       <use style="stroke:#000000;stroke-width:0.6;" x="282.481934" xlink:href="#mc9f73350a2" y="280.380937"/>
      </g>
     </g>
    </g>
    <g id="xtick_29">
     <g id="line2d_36">
      <g>
       <use style="stroke:#000000;stroke-width:0.6;" x="301.544238" xlink:href="#mc9f73350a2" y="280.380937"/>
      </g>
     </g>
    </g>
    <g id="xtick_30">
     <g id="line2d_37">
      <g>
       <use style="stroke:#000000;stroke-width:0.6;" x="311.075391" xlink:href="#mc9f73350a2" y="280.380937"/>
      </g>
     </g>
    </g>
    <g id="xtick_31">
     <g id="line2d_38">
      <g>
       <use style="stroke:#000000;stroke-width:0.6;" x="320.606543" xlink:href="#mc9f73350a2" y="280.380937"/>
      </g>
     </g>
    </g>
    <g id="xtick_32">
     <g id="line2d_39">
      <g>
       <use style="stroke:#000000;stroke-width:0.6;" x="330.137695" xlink:href="#mc9f73350a2" y="280.380937"/>
      </g>
     </g>
    </g>
    <g id="xtick_33">
     <g id="line2d_40">
      <g>
       <use style="stroke:#000000;stroke-width:0.6;" x="349.2" xlink:href="#mc9f73350a2" y="280.380937"/>
      </g>
     </g>
    </g>
   </g>
   <g id="matplotlib.axis_2">
    <g id="ytick_1">
     <g id="line2d_41">
      <path clip-path="url(#pec08ba676c)" d="M 44.203125 237.970469 
L 349.2 237.970469 
" style="fill:none;stroke:#b0b0b0;stroke-linecap:square;stroke-opacity:0.4;stroke-width:0.8;"/>
     </g>
     <g id="line2d_42">
      <defs>
       <path d="M 0 0 
L -3.5 0 
" id="meae5063413" style="stroke:#000000;stroke-width:0.8;"/>
      </defs>
      <g>
       <use style="stroke:#000000;stroke-width:0.8;" x="44.203125" xlink:href="#meae5063413" y="237.970469"/>
      </g>
     </g>
     <g id="text_1">
      <!-- 0 -->
      <g transform="translate(30.840625 241.769687)scale(0.1 -0.1)">
       <defs>
        <path d="M 31.78125 66.40625 
Q 24.171875 66.40625 20.328125 58.90625 
Q 16.5 51.421875 16.5 36.375 
Q 16.5 21.390625 20.328125 13.890625 
Q 24.171875 6.390625 31.78125 6.390625 
Q 39.453125 6.390625 43.28125 13.890625 
Q 47.125 21.390625 47.125 36.375 
Q 47.125 51.421875 43.28125 58.90625 
Q 39.453125 66.40625 31.78125 66.40625 
z
M 31.78125 74.21875 
Q 44.046875 74.21875 50.515625 64.515625 
Q 56.984375 54.828125 56.984375 36.375 
Q 56.984375 17.96875 50.515625 8.265625 
Q 44.046875 -1.421875 31.78125 -1.421875 
Q 19.53125 -1.421875 13.0625 8.265625 
Q 6.59375 17.96875 6.59375 36.375 
Q 6.59375 54.828125 13.0625 64.515625 
Q 19.53125 74.21875 31.78125 74.21875 
z
" id="DejaVuSans-48"/>
       </defs>
       <use xlink:href="#DejaVuSans-48"/>
      </g>
     </g>
    </g>
    <g id="ytick_2">
     <g id="line2d_43">
      <path clip-path="url(#pec08ba676c)" d="M 44.203125 131.944297 
L 349.2 131.944297 
" style="fill:none;stroke:#b0b0b0;stroke-linecap:square;stroke-opacity:0.4;stroke-width:0.8;"/>
     </g>
     <g id="line2d_44">
      <g>
       <use style="stroke:#000000;stroke-width:0.8;" x="44.203125" xlink:href="#meae5063413" y="131.944297"/>
      </g>
     </g>
     <g id="text_2">
      <!-- 5 -->
      <g transform="translate(30.840625 135.743516)scale(0.1 -0.1)">
       <defs>
        <path d="M 10.796875 72.90625 
L 49.515625 72.90625 
L 49.515625 64.59375 
L 19.828125 64.59375 
L 19.828125 46.734375 
Q 21.96875 47.46875 24.109375 47.828125 
Q 26.265625 48.1875 28.421875 48.1875 
Q 40.625 48.1875 47.75 41.5 
Q 54.890625 34.8125 54.890625 23.390625 
Q 54.890625 11.625 47.5625 5.09375 
Q 40.234375 -1.421875 26.90625 -1.421875 
Q 22.3125 -1.421875 17.546875 -0.640625 
Q 12.796875 0.140625 7.71875 1.703125 
L 7.71875 11.625 
Q 12.109375 9.234375 16.796875 8.0625 
Q 21.484375 6.890625 26.703125 6.890625 
Q 35.15625 6.890625 40.078125 11.328125 
Q 45.015625 15.765625 45.015625 23.390625 
Q 45.015625 31 40.078125 35.4375 
Q 35.15625 39.890625 26.703125 39.890625 
Q 22.75 39.890625 18.8125 39.015625 
Q 14.890625 38.140625 10.796875 36.28125 
z
" id="DejaVuSans-53"/>
       </defs>
       <use xlink:href="#DejaVuSans-53"/>
      </g>
     </g>
    </g>
    <g id="ytick_3">
     <g id="line2d_45">
      <path clip-path="url(#pec08ba676c)" d="M 44.203125 25.918125 
L 349.2 25.918125 
" style="fill:none;stroke:#b0b0b0;stroke-linecap:square;stroke-opacity:0.4;stroke-width:0.8;"/>
     </g>
     <g id="line2d_46">
      <g>
       <use style="stroke:#000000;stroke-width:0.8;" x="44.203125" xlink:href="#meae5063413" y="25.918125"/>
      </g>
     </g>
     <g id="text_3">
      <!-- 10 -->
      <g transform="translate(24.478125 29.717344)scale(0.1 -0.1)">
       <defs>
        <path d="M 12.40625 8.296875 
L 28.515625 8.296875 
L 28.515625 63.921875 
L 10.984375 60.40625 
L 10.984375 69.390625 
L 28.421875 72.90625 
L 38.28125 72.90625 
L 38.28125 8.296875 
L 54.390625 8.296875 
L 54.390625 0 
L 12.40625 0 
z
" id="DejaVuSans-49"/>
       </defs>
       <use xlink:href="#DejaVuSans-49"/>
       <use x="63.623047" xlink:href="#DejaVuSans-48"/>
      </g>
     </g>
    </g>
    <g id="ytick_4">
     <g id="line2d_47">
      <defs>
       <path d="M 0 0 
L -2 0 
" id="mfc8bcbe255" style="stroke:#000000;stroke-width:0.6;"/>
      </defs>
      <g>
       <use style="stroke:#000000;stroke-width:0.6;" x="44.203125" xlink:href="#mfc8bcbe255" y="280.380937"/>
      </g>
     </g>
    </g>
    <g id="ytick_5">
     <g id="line2d_48">
      <g>
       <use style="stroke:#000000;stroke-width:0.6;" x="44.203125" xlink:href="#mfc8bcbe255" y="259.175703"/>
      </g>
     </g>
    </g>
    <g id="ytick_6">
     <g id="line2d_49">
      <g>
       <use style="stroke:#000000;stroke-width:0.6;" x="44.203125" xlink:href="#mfc8bcbe255" y="216.765234"/>
      </g>
     </g>
    </g>
    <g id="ytick_7">
     <g id="line2d_50">
      <g>
       <use style="stroke:#000000;stroke-width:0.6;" x="44.203125" xlink:href="#mfc8bcbe255" y="195.56"/>
      </g>
     </g>
    </g>
    <g id="ytick_8">
     <g id="line2d_51">
      <g>
       <use style="stroke:#000000;stroke-width:0.6;" x="44.203125" xlink:href="#mfc8bcbe255" y="174.354766"/>
      </g>
     </g>
    </g>
    <g id="ytick_9">
     <g id="line2d_52">
      <g>
       <use style="stroke:#000000;stroke-width:0.6;" x="44.203125" xlink:href="#mfc8bcbe255" y="153.149531"/>
      </g>
     </g>
    </g>
    <g id="ytick_10">
     <g id="line2d_53">
      <g>
       <use style="stroke:#000000;stroke-width:0.6;" x="44.203125" xlink:href="#mfc8bcbe255" y="110.739062"/>
      </g>
     </g>
    </g>
    <g id="ytick_11">
     <g id="line2d_54">
      <g>
       <use style="stroke:#000000;stroke-width:0.6;" x="44.203125" xlink:href="#mfc8bcbe255" y="89.533828"/>
      </g>
     </g>
    </g>
    <g id="ytick_12">
     <g id="line2d_55">
      <g>
       <use style="stroke:#000000;stroke-width:0.6;" x="44.203125" xlink:href="#mfc8bcbe255" y="68.328594"/>
      </g>
     </g>
    </g>
    <g id="ytick_13">
     <g id="line2d_56">
      <g>
       <use style="stroke:#000000;stroke-width:0.6;" x="44.203125" xlink:href="#mfc8bcbe255" y="47.123359"/>
      </g>
     </g>
    </g>
    <g id="text_4">
     <!-- Saving Throw Ability Score Modifier -->
     <g transform="translate(18.398438 241.651094)rotate(-90)scale(0.1 -0.1)">
      <defs>
       <path d="M 53.515625 70.515625 
L 53.515625 60.890625 
Q 47.90625 63.578125 42.921875 64.890625 
Q 37.9375 66.21875 33.296875 66.21875 
Q 25.25 66.21875 20.875 63.09375 
Q 16.5 59.96875 16.5 54.203125 
Q 16.5 49.359375 19.40625 46.890625 
Q 22.3125 44.4375 30.421875 42.921875 
L 36.375 41.703125 
Q 47.40625 39.59375 52.65625 34.296875 
Q 57.90625 29 57.90625 20.125 
Q 57.90625 9.515625 50.796875 4.046875 
Q 43.703125 -1.421875 29.984375 -1.421875 
Q 24.8125 -1.421875 18.96875 -0.25 
Q 13.140625 0.921875 6.890625 3.21875 
L 6.890625 13.375 
Q 12.890625 10.015625 18.65625 8.296875 
Q 24.421875 6.59375 29.984375 6.59375 
Q 38.421875 6.59375 43.015625 9.90625 
Q 47.609375 13.234375 47.609375 19.390625 
Q 47.609375 24.75 44.3125 27.78125 
Q 41.015625 30.8125 33.5 32.328125 
L 27.484375 33.5 
Q 16.453125 35.6875 11.515625 40.375 
Q 6.59375 45.0625 6.59375 53.421875 
Q 6.59375 63.09375 13.40625 68.65625 
Q 20.21875 74.21875 32.171875 74.21875 
Q 37.3125 74.21875 42.625 73.28125 
Q 47.953125 72.359375 53.515625 70.515625 
z
" id="DejaVuSans-83"/>
       <path d="M 34.28125 27.484375 
Q 23.390625 27.484375 19.1875 25 
Q 14.984375 22.515625 14.984375 16.5 
Q 14.984375 11.71875 18.140625 8.90625 
Q 21.296875 6.109375 26.703125 6.109375 
Q 34.1875 6.109375 38.703125 11.40625 
Q 43.21875 16.703125 43.21875 25.484375 
L 43.21875 27.484375 
z
M 52.203125 31.203125 
L 52.203125 0 
L 43.21875 0 
L 43.21875 8.296875 
Q 40.140625 3.328125 35.546875 0.953125 
Q 30.953125 -1.421875 24.3125 -1.421875 
Q 15.921875 -1.421875 10.953125 3.296875 
Q 6 8.015625 6 15.921875 
Q 6 25.140625 12.171875 29.828125 
Q 18.359375 34.515625 30.609375 34.515625 
L 43.21875 34.515625 
L 43.21875 35.40625 
Q 43.21875 41.609375 39.140625 45 
Q 35.0625 48.390625 27.6875 48.390625 
Q 23 48.390625 18.546875 47.265625 
Q 14.109375 46.140625 10.015625 43.890625 
L 10.015625 52.203125 
Q 14.9375 54.109375 19.578125 55.046875 
Q 24.21875 56 28.609375 56 
Q 40.484375 56 46.34375 49.84375 
Q 52.203125 43.703125 52.203125 31.203125 
z
" id="DejaVuSans-97"/>
       <path d="M 2.984375 54.6875 
L 12.5 54.6875 
L 29.59375 8.796875 
L 46.6875 54.6875 
L 56.203125 54.6875 
L 35.6875 0 
L 23.484375 0 
z
" id="DejaVuSans-118"/>
       <path d="M 9.421875 54.6875 
L 18.40625 54.6875 
L 18.40625 0 
L 9.421875 0 
z
M 9.421875 75.984375 
L 18.40625 75.984375 
L 18.40625 64.59375 
L 9.421875 64.59375 
z
" id="DejaVuSans-105"/>
       <path d="M 54.890625 33.015625 
L 54.890625 0 
L 45.90625 0 
L 45.90625 32.71875 
Q 45.90625 40.484375 42.875 44.328125 
Q 39.84375 48.1875 33.796875 48.1875 
Q 26.515625 48.1875 22.3125 43.546875 
Q 18.109375 38.921875 18.109375 30.90625 
L 18.109375 0 
L 9.078125 0 
L 9.078125 54.6875 
L 18.109375 54.6875 
L 18.109375 46.1875 
Q 21.34375 51.125 25.703125 53.5625 
Q 30.078125 56 35.796875 56 
Q 45.21875 56 50.046875 50.171875 
Q 54.890625 44.34375 54.890625 33.015625 
z
" id="DejaVuSans-110"/>
       <path d="M 45.40625 27.984375 
Q 45.40625 37.75 41.375 43.109375 
Q 37.359375 48.484375 30.078125 48.484375 
Q 22.859375 48.484375 18.828125 43.109375 
Q 14.796875 37.75 14.796875 27.984375 
Q 14.796875 18.265625 18.828125 12.890625 
Q 22.859375 7.515625 30.078125 7.515625 
Q 37.359375 7.515625 41.375 12.890625 
Q 45.40625 18.265625 45.40625 27.984375 
z
M 54.390625 6.78125 
Q 54.390625 -7.171875 48.1875 -13.984375 
Q 42 -20.796875 29.203125 -20.796875 
Q 24.46875 -20.796875 20.265625 -20.09375 
Q 16.0625 -19.390625 12.109375 -17.921875 
L 12.109375 -9.1875 
Q 16.0625 -11.328125 19.921875 -12.34375 
Q 23.78125 -13.375 27.78125 -13.375 
Q 36.625 -13.375 41.015625 -8.765625 
Q 45.40625 -4.15625 45.40625 5.171875 
L 45.40625 9.625 
Q 42.625 4.78125 38.28125 2.390625 
Q 33.9375 0 27.875 0 
Q 17.828125 0 11.671875 7.65625 
Q 5.515625 15.328125 5.515625 27.984375 
Q 5.515625 40.671875 11.671875 48.328125 
Q 17.828125 56 27.875 56 
Q 33.9375 56 38.28125 53.609375 
Q 42.625 51.21875 45.40625 46.390625 
L 45.40625 54.6875 
L 54.390625 54.6875 
z
" id="DejaVuSans-103"/>
       <path id="DejaVuSans-32"/>
       <path d="M -0.296875 72.90625 
L 61.375 72.90625 
L 61.375 64.59375 
L 35.5 64.59375 
L 35.5 0 
L 25.59375 0 
L 25.59375 64.59375 
L -0.296875 64.59375 
z
" id="DejaVuSans-84"/>
       <path d="M 54.890625 33.015625 
L 54.890625 0 
L 45.90625 0 
L 45.90625 32.71875 
Q 45.90625 40.484375 42.875 44.328125 
Q 39.84375 48.1875 33.796875 48.1875 
Q 26.515625 48.1875 22.3125 43.546875 
Q 18.109375 38.921875 18.109375 30.90625 
L 18.109375 0 
L 9.078125 0 
L 9.078125 75.984375 
L 18.109375 75.984375 
L 18.109375 46.1875 
Q 21.34375 51.125 25.703125 53.5625 
Q 30.078125 56 35.796875 56 
Q 45.21875 56 50.046875 50.171875 
Q 54.890625 44.34375 54.890625 33.015625 
z
" id="DejaVuSans-104"/>
       <path d="M 41.109375 46.296875 
Q 39.59375 47.171875 37.8125 47.578125 
Q 36.03125 48 33.890625 48 
Q 26.265625 48 22.1875 43.046875 
Q 18.109375 38.09375 18.109375 28.8125 
L 18.109375 0 
L 9.078125 0 
L 9.078125 54.6875 
L 18.109375 54.6875 
L 18.109375 46.1875 
Q 20.953125 51.171875 25.484375 53.578125 
Q 30.03125 56 36.53125 56 
Q 37.453125 56 38.578125 55.875 
Q 39.703125 55.765625 41.0625 55.515625 
z
" id="DejaVuSans-114"/>
       <path d="M 30.609375 48.390625 
Q 23.390625 48.390625 19.1875 42.75 
Q 14.984375 37.109375 14.984375 27.296875 
Q 14.984375 17.484375 19.15625 11.84375 
Q 23.34375 6.203125 30.609375 6.203125 
Q 37.796875 6.203125 41.984375 11.859375 
Q 46.1875 17.53125 46.1875 27.296875 
Q 46.1875 37.015625 41.984375 42.703125 
Q 37.796875 48.390625 30.609375 48.390625 
z
M 30.609375 56 
Q 42.328125 56 49.015625 48.375 
Q 55.71875 40.765625 55.71875 27.296875 
Q 55.71875 13.875 49.015625 6.21875 
Q 42.328125 -1.421875 30.609375 -1.421875 
Q 18.84375 -1.421875 12.171875 6.21875 
Q 5.515625 13.875 5.515625 27.296875 
Q 5.515625 40.765625 12.171875 48.375 
Q 18.84375 56 30.609375 56 
z
" id="DejaVuSans-111"/>
       <path d="M 4.203125 54.6875 
L 13.1875 54.6875 
L 24.421875 12.015625 
L 35.59375 54.6875 
L 46.1875 54.6875 
L 57.421875 12.015625 
L 68.609375 54.6875 
L 77.59375 54.6875 
L 63.28125 0 
L 52.6875 0 
L 40.921875 44.828125 
L 29.109375 0 
L 18.5 0 
z
" id="DejaVuSans-119"/>
       <path d="M 34.1875 63.1875 
L 20.796875 26.90625 
L 47.609375 26.90625 
z
M 28.609375 72.90625 
L 39.796875 72.90625 
L 67.578125 0 
L 57.328125 0 
L 50.6875 18.703125 
L 17.828125 18.703125 
L 11.1875 0 
L 0.78125 0 
z
" id="DejaVuSans-65"/>
       <path d="M 48.6875 27.296875 
Q 48.6875 37.203125 44.609375 42.84375 
Q 40.53125 48.484375 33.40625 48.484375 
Q 26.265625 48.484375 22.1875 42.84375 
Q 18.109375 37.203125 18.109375 27.296875 
Q 18.109375 17.390625 22.1875 11.75 
Q 26.265625 6.109375 33.40625 6.109375 
Q 40.53125 6.109375 44.609375 11.75 
Q 48.6875 17.390625 48.6875 27.296875 
z
M 18.109375 46.390625 
Q 20.953125 51.265625 25.265625 53.625 
Q 29.59375 56 35.59375 56 
Q 45.5625 56 51.78125 48.09375 
Q 58.015625 40.1875 58.015625 27.296875 
Q 58.015625 14.40625 51.78125 6.484375 
Q 45.5625 -1.421875 35.59375 -1.421875 
Q 29.59375 -1.421875 25.265625 0.953125 
Q 20.953125 3.328125 18.109375 8.203125 
L 18.109375 0 
L 9.078125 0 
L 9.078125 75.984375 
L 18.109375 75.984375 
z
" id="DejaVuSans-98"/>
       <path d="M 9.421875 75.984375 
L 18.40625 75.984375 
L 18.40625 0 
L 9.421875 0 
z
" id="DejaVuSans-108"/>
       <path d="M 18.3125 70.21875 
L 18.3125 54.6875 
L 36.8125 54.6875 
L 36.8125 47.703125 
L 18.3125 47.703125 
L 18.3125 18.015625 
Q 18.3125 11.328125 20.140625 9.421875 
Q 21.96875 7.515625 27.59375 7.515625 
L 36.8125 7.515625 
L 36.8125 0 
L 27.59375 0 
Q 17.1875 0 13.234375 3.875 
Q 9.28125 7.765625 9.28125 18.015625 
L 9.28125 47.703125 
L 2.6875 47.703125 
L 2.6875 54.6875 
L 9.28125 54.6875 
L 9.28125 70.21875 
z
" id="DejaVuSans-116"/>
       <path d="M 32.171875 -5.078125 
Q 28.375 -14.84375 24.75 -17.8125 
Q 21.140625 -20.796875 15.09375 -20.796875 
L 7.90625 -20.796875 
L 7.90625 -13.28125 
L 13.1875 -13.28125 
Q 16.890625 -13.28125 18.9375 -11.515625 
Q 21 -9.765625 23.484375 -3.21875 
L 25.09375 0.875 
L 2.984375 54.6875 
L 12.5 54.6875 
L 29.59375 11.921875 
L 46.6875 54.6875 
L 56.203125 54.6875 
z
" id="DejaVuSans-121"/>
       <path d="M 48.78125 52.59375 
L 48.78125 44.1875 
Q 44.96875 46.296875 41.140625 47.34375 
Q 37.3125 48.390625 33.40625 48.390625 
Q 24.65625 48.390625 19.8125 42.84375 
Q 14.984375 37.3125 14.984375 27.296875 
Q 14.984375 17.28125 19.8125 11.734375 
Q 24.65625 6.203125 33.40625 6.203125 
Q 37.3125 6.203125 41.140625 7.25 
Q 44.96875 8.296875 48.78125 10.40625 
L 48.78125 2.09375 
Q 45.015625 0.34375 40.984375 -0.53125 
Q 36.96875 -1.421875 32.421875 -1.421875 
Q 20.0625 -1.421875 12.78125 6.34375 
Q 5.515625 14.109375 5.515625 27.296875 
Q 5.515625 40.671875 12.859375 48.328125 
Q 20.21875 56 33.015625 56 
Q 37.15625 56 41.109375 55.140625 
Q 45.0625 54.296875 48.78125 52.59375 
z
" id="DejaVuSans-99"/>
       <path d="M 56.203125 29.59375 
L 56.203125 25.203125 
L 14.890625 25.203125 
Q 15.484375 15.921875 20.484375 11.0625 
Q 25.484375 6.203125 34.421875 6.203125 
Q 39.59375 6.203125 44.453125 7.46875 
Q 49.3125 8.734375 54.109375 11.28125 
L 54.109375 2.78125 
Q 49.265625 0.734375 44.1875 -0.34375 
Q 39.109375 -1.421875 33.890625 -1.421875 
Q 20.796875 -1.421875 13.15625 6.1875 
Q 5.515625 13.8125 5.515625 26.8125 
Q 5.515625 40.234375 12.765625 48.109375 
Q 20.015625 56 32.328125 56 
Q 43.359375 56 49.78125 48.890625 
Q 56.203125 41.796875 56.203125 29.59375 
z
M 47.21875 32.234375 
Q 47.125 39.59375 43.09375 43.984375 
Q 39.0625 48.390625 32.421875 48.390625 
Q 24.90625 48.390625 20.390625 44.140625 
Q 15.875 39.890625 15.1875 32.171875 
z
" id="DejaVuSans-101"/>
       <path d="M 9.8125 72.90625 
L 24.515625 72.90625 
L 43.109375 23.296875 
L 61.8125 72.90625 
L 76.515625 72.90625 
L 76.515625 0 
L 66.890625 0 
L 66.890625 64.015625 
L 48.09375 14.015625 
L 38.1875 14.015625 
L 19.390625 64.015625 
L 19.390625 0 
L 9.8125 0 
z
" id="DejaVuSans-77"/>
       <path d="M 45.40625 46.390625 
L 45.40625 75.984375 
L 54.390625 75.984375 
L 54.390625 0 
L 45.40625 0 
L 45.40625 8.203125 
Q 42.578125 3.328125 38.25 0.953125 
Q 33.9375 -1.421875 27.875 -1.421875 
Q 17.96875 -1.421875 11.734375 6.484375 
Q 5.515625 14.40625 5.515625 27.296875 
Q 5.515625 40.1875 11.734375 48.09375 
Q 17.96875 56 27.875 56 
Q 33.9375 56 38.25 53.625 
Q 42.578125 51.265625 45.40625 46.390625 
z
M 14.796875 27.296875 
Q 14.796875 17.390625 18.875 11.75 
Q 22.953125 6.109375 30.078125 6.109375 
Q 37.203125 6.109375 41.296875 11.75 
Q 45.40625 17.390625 45.40625 27.296875 
Q 45.40625 37.203125 41.296875 42.84375 
Q 37.203125 48.484375 30.078125 48.484375 
Q 22.953125 48.484375 18.875 42.84375 
Q 14.796875 37.203125 14.796875 27.296875 
z
" id="DejaVuSans-100"/>
       <path d="M 37.109375 75.984375 
L 37.109375 68.5 
L 28.515625 68.5 
Q 23.6875 68.5 21.796875 66.546875 
Q 19.921875 64.59375 19.921875 59.515625 
L 19.921875 54.6875 
L 34.71875 54.6875 
L 34.71875 47.703125 
L 19.921875 47.703125 
L 19.921875 0 
L 10.890625 0 
L 10.890625 47.703125 
L 2.296875 47.703125 
L 2.296875 54.6875 
L 10.890625 54.6875 
L 10.890625 58.5 
Q 10.890625 67.625 15.140625 71.796875 
Q 19.390625 75.984375 28.609375 75.984375 
z
" id="DejaVuSans-102"/>
      </defs>
      <use xlink:href="#DejaVuSans-83"/>
      <use x="63.476562" xlink:href="#DejaVuSans-97"/>
      <use x="124.755859" xlink:href="#DejaVuSans-118"/>
      <use x="183.935547" xlink:href="#DejaVuSans-105"/>
      <use x="211.71875" xlink:href="#DejaVuSans-110"/>
      <use x="275.097656" xlink:href="#DejaVuSans-103"/>
      <use x="338.574219" xlink:href="#DejaVuSans-32"/>
      <use x="370.361328" xlink:href="#DejaVuSans-84"/>
      <use x="431.445312" xlink:href="#DejaVuSans-104"/>
      <use x="494.824219" xlink:href="#DejaVuSans-114"/>
      <use x="533.6875" xlink:href="#DejaVuSans-111"/>
      <use x="594.869141" xlink:href="#DejaVuSans-119"/>
      <use x="676.65625" xlink:href="#DejaVuSans-32"/>
      <use x="708.443359" xlink:href="#DejaVuSans-65"/>
      <use x="776.851562" xlink:href="#DejaVuSans-98"/>
      <use x="840.328125" xlink:href="#DejaVuSans-105"/>
      <use x="868.111328" xlink:href="#DejaVuSans-108"/>
      <use x="895.894531" xlink:href="#DejaVuSans-105"/>
      <use x="923.677734" xlink:href="#DejaVuSans-116"/>
      <use x="962.886719" xlink:href="#DejaVuSans-121"/>
      <use x="1022.066406" xlink:href="#DejaVuSans-32"/>
      <use x="1053.853516" xlink:href="#DejaVuSans-83"/>
      <use x="1117.330078" xlink:href="#DejaVuSans-99"/>
      <use x="1172.310547" xlink:href="#DejaVuSans-111"/>
      <use x="1233.492188" xlink:href="#DejaVuSans-114"/>
      <use x="1272.355469" xlink:href="#DejaVuSans-101"/>
      <use x="1333.878906" xlink:href="#DejaVuSans-32"/>
      <use x="1365.666016" xlink:href="#DejaVuSans-77"/>
      <use x="1451.945312" xlink:href="#DejaVuSans-111"/>
      <use x="1513.126953" xlink:href="#DejaVuSans-100"/>
      <use x="1576.603516" xlink:href="#DejaVuSans-105"/>
      <use x="1604.386719" xlink:href="#DejaVuSans-102"/>
      <use x="1639.591797" xlink:href="#DejaVuSans-105"/>
      <use x="1667.375" xlink:href="#DejaVuSans-101"/>
      <use x="1728.898438" xlink:href="#DejaVuSans-114"/>
     </g>
    </g>
   </g>
   <g id="line2d_57">
    <path clip-path="url(#pec08ba676c)" d="M 72.796582 207.288779 
L 101.390039 189.465089 
L 129.983496 171.641398 
L 158.576953 153.817707 
L 187.17041 135.994016 
L 215.763867 118.170325 
L 244.357324 100.346634 
L 272.950781 82.522943 
L 301.544238 64.699252 
" style="fill:none;stroke:#d62728;stroke-linecap:square;stroke-width:1.5;"/>
   </g>
   <g id="line2d_58">
    <path clip-path="url(#pec08ba676c)" d="M 72.796582 209.714983 
L 101.390039 207.297404 
L 129.983496 204.879824 
L 158.576953 202.462244 
L 187.17041 200.044664 
L 215.763867 197.627085 
L 244.357324 195.209505 
L 272.950781 192.791925 
L 301.544238 190.374346 
" style="fill:none;stroke:#9467bd;stroke-linecap:square;stroke-width:1.5;"/>
   </g>
   <g id="line2d_59">
    <path clip-path="url(#pec08ba676c)" d="M 72.796582 203.948759 
L 101.390039 187.48447 
L 129.983496 171.020181 
L 158.576953 154.555893 
L 187.17041 138.091604 
L 215.763867 121.627315 
L 244.357324 105.163026 
L 272.950781 88.698737 
L 301.544238 72.234448 
" style="fill:none;stroke:#8c564b;stroke-linecap:square;stroke-width:1.5;"/>
   </g>
   <g id="line2d_60">
    <path clip-path="url(#pec08ba676c)" d="M 72.796582 262.673346 
L 101.390039 245.511904 
L 129.983496 228.350463 
L 158.576953 211.189021 
L 187.17041 194.02758 
L 215.763867 176.866138 
L 244.357324 159.704696 
L 272.950781 142.543255 
L 301.544238 125.381813 
" style="fill:none;stroke:#1f77b4;stroke-linecap:square;stroke-width:1.5;"/>
   </g>
   <g id="line2d_61">
    <path clip-path="url(#pec08ba676c)" d="M 72.796582 231.042418 
L 101.390039 219.649299 
L 129.983496 208.256181 
L 158.576953 196.863062 
L 187.17041 185.469944 
L 215.763867 174.076825 
L 244.357324 162.683706 
L 272.950781 151.290588 
L 301.544238 139.897469 
" style="fill:none;stroke:#2ca02c;stroke-linecap:square;stroke-width:1.5;"/>
   </g>
   <g id="line2d_62">
    <path clip-path="url(#pec08ba676c)" d="M 72.796582 249.502407 
L 101.390039 231.912223 
L 129.983496 214.322039 
L 158.576953 196.731855 
L 187.17041 179.141671 
L 215.763867 161.551487 
L 244.357324 143.961303 
L 272.950781 126.371119 
L 301.544238 108.780935 
" style="fill:none;stroke:#ff7f0e;stroke-linecap:square;stroke-width:1.5;"/>
   </g>
   <g id="patch_3">
    <path d="M 44.203125 280.380937 
L 44.203125 25.918125 
" style="fill:none;stroke:#000000;stroke-linecap:square;stroke-linejoin:miter;stroke-width:0.8;"/>
   </g>
   <g id="patch_4">
    <path d="M 349.2 280.380937 
L 349.2 25.918125 
" style="fill:none;stroke:#000000;stroke-linecap:square;stroke-linejoin:miter;stroke-width:0.8;"/>
   </g>
   <g id="patch_5">
    <path d="M 44.203125 280.380937 
L 349.2 280.380937 
" style="fill:none;stroke:#000000;stroke-linecap:square;stroke-linejoin:miter;stroke-width:0.8;"/>
   </g>
   <g id="patch_6">
    <path d="M 44.203125 25.918125 
L 349.2 25.918125 
" style="fill:none;stroke:#000000;stroke-linecap:square;stroke-linejoin:miter;stroke-width:0.8;"/>
   </g>
   <g id="text_5">
    <!-- Saving Throw Bonus -->
    <g transform="translate(135.676875 19.918125)scale(0.12 -0.12)">
     <defs>
      <path d="M 19.671875 34.8125 
L 19.671875 8.109375 
L 35.5 8.109375 
Q 43.453125 8.109375 47.28125 11.40625 
Q 51.125 14.703125 51.125 21.484375 
Q 51.125 28.328125 47.28125 31.5625 
Q 43.453125 34.8125 35.5 34.8125 
z
M 19.671875 64.796875 
L 19.671875 42.828125 
L 34.28125 42.828125 
Q 41.5 42.828125 45.03125 45.53125 
Q 48.578125 48.25 48.578125 53.8125 
Q 48.578125 59.328125 45.03125 62.0625 
Q 41.5 64.796875 34.28125 64.796875 
z
M 9.8125 72.90625 
L 35.015625 72.90625 
Q 46.296875 72.90625 52.390625 68.21875 
Q 58.5 63.53125 58.5 54.890625 
Q 58.5 48.1875 55.375 44.234375 
Q 52.25 40.28125 46.1875 39.3125 
Q 53.46875 37.75 57.5 32.78125 
Q 61.53125 27.828125 61.53125 20.40625 
Q 61.53125 10.640625 54.890625 5.3125 
Q 48.25 0 35.984375 0 
L 9.8125 0 
z
" id="DejaVuSans-66"/>
      <path d="M 8.5 21.578125 
L 8.5 54.6875 
L 17.484375 54.6875 
L 17.484375 21.921875 
Q 17.484375 14.15625 20.5 10.265625 
Q 23.53125 6.390625 29.59375 6.390625 
Q 36.859375 6.390625 41.078125 11.03125 
Q 45.3125 15.671875 45.3125 23.6875 
L 45.3125 54.6875 
L 54.296875 54.6875 
L 54.296875 0 
L 45.3125 0 
L 45.3125 8.40625 
Q 42.046875 3.421875 37.71875 1 
Q 33.40625 -1.421875 27.6875 -1.421875 
Q 18.265625 -1.421875 13.375 4.4375 
Q 8.5 10.296875 8.5 21.578125 
z
M 31.109375 56 
z
" id="DejaVuSans-117"/>
      <path d="M 44.28125 53.078125 
L 44.28125 44.578125 
Q 40.484375 46.53125 36.375 47.5 
Q 32.28125 48.484375 27.875 48.484375 
Q 21.1875 48.484375 17.84375 46.4375 
Q 14.5 44.390625 14.5 40.28125 
Q 14.5 37.15625 16.890625 35.375 
Q 19.28125 33.59375 26.515625 31.984375 
L 29.59375 31.296875 
Q 39.15625 29.25 43.1875 25.515625 
Q 47.21875 21.78125 47.21875 15.09375 
Q 47.21875 7.46875 41.1875 3.015625 
Q 35.15625 -1.421875 24.609375 -1.421875 
Q 20.21875 -1.421875 15.453125 -0.5625 
Q 10.6875 0.296875 5.421875 2 
L 5.421875 11.28125 
Q 10.40625 8.6875 15.234375 7.390625 
Q 20.0625 6.109375 24.8125 6.109375 
Q 31.15625 6.109375 34.5625 8.28125 
Q 37.984375 10.453125 37.984375 14.40625 
Q 37.984375 18.0625 35.515625 20.015625 
Q 33.0625 21.96875 24.703125 23.78125 
L 21.578125 24.515625 
Q 13.234375 26.265625 9.515625 29.90625 
Q 5.8125 33.546875 5.8125 39.890625 
Q 5.8125 47.609375 11.28125 51.796875 
Q 16.75 56 26.8125 56 
Q 31.78125 56 36.171875 55.265625 
Q 40.578125 54.546875 44.28125 53.078125 
z
" id="DejaVuSans-115"/>
     </defs>
     <use xlink:href="#DejaVuSans-83"/>
     <use x="63.476562" xlink:href="#DejaVuSans-97"/>
     <use x="124.755859" xlink:href="#DejaVuSans-118"/>
     <use x="183.935547" xlink:href="#DejaVuSans-105"/>
     <use x="211.71875" xlink:href="#DejaVuSans-110"/>
     <use x="275.097656" xlink:href="#DejaVuSans-103"/>
     <use x="338.574219" xlink:href="#DejaVuSans-32"/>
     <use x="370.361328" xlink:href="#DejaVuSans-84"/>
     <use x="431.445312" xlink:href="#DejaVuSans-104"/>
     <use x="494.824219" xlink:href="#DejaVuSans-114"/>
     <use x="533.6875" xlink:href="#DejaVuSans-111"/>
     <use x="594.869141" xlink:href="#DejaVuSans-119"/>
     <use x="676.65625" xlink:href="#DejaVuSans-32"/>
     <use x="708.443359" xlink:href="#DejaVuSans-66"/>
     <use x="777.046875" xlink:href="#DejaVuSans-111"/>
     <use x="838.228516" xlink:href="#DejaVuSans-110"/>
     <use x="901.607422" xlink:href="#DejaVuSans-117"/>
     <use x="964.986328" xlink:href="#DejaVuSans-115"/>
    </g>
   </g>
   <g id="legend_1">
    <g id="patch_7">
     <path d="M 51.203125 121.986875 
L 127.073438 121.986875 
Q 129.073438 121.986875 129.073438 119.986875 
L 129.073438 32.918125 
Q 129.073438 30.918125 127.073438 30.918125 
L 51.203125 30.918125 
Q 49.203125 30.918125 49.203125 32.918125 
L 49.203125 119.986875 
Q 49.203125 121.986875 51.203125 121.986875 
z
" style="fill:#ffffff;opacity:0.8;stroke:#cccccc;stroke-linejoin:miter;"/>
    </g>
    <g id="line2d_63">
     <path d="M 53.203125 39.016562 
L 73.203125 39.016562 
" style="fill:none;stroke:#d62728;stroke-linecap:square;stroke-width:1.5;"/>
    </g>
    <g id="line2d_64"/>
    <g id="text_6">
     <!-- Str Mod -->
     <g transform="translate(81.203125 42.516562)scale(0.1 -0.1)">
      <use xlink:href="#DejaVuSans-83"/>
      <use x="63.476562" xlink:href="#DejaVuSans-116"/>
      <use x="102.685547" xlink:href="#DejaVuSans-114"/>
      <use x="143.798828" xlink:href="#DejaVuSans-32"/>
      <use x="175.585938" xlink:href="#DejaVuSans-77"/>
      <use x="261.865234" xlink:href="#DejaVuSans-111"/>
      <use x="323.046875" xlink:href="#DejaVuSans-100"/>
     </g>
    </g>
    <g id="line2d_65">
     <path d="M 53.203125 53.694687 
L 73.203125 53.694687 
" style="fill:none;stroke:#9467bd;stroke-linecap:square;stroke-width:1.5;"/>
    </g>
    <g id="line2d_66"/>
    <g id="text_7">
     <!-- Dex Mod -->
     <g transform="translate(81.203125 57.194687)scale(0.1 -0.1)">
      <defs>
       <path d="M 19.671875 64.796875 
L 19.671875 8.109375 
L 31.59375 8.109375 
Q 46.6875 8.109375 53.6875 14.9375 
Q 60.6875 21.78125 60.6875 36.53125 
Q 60.6875 51.171875 53.6875 57.984375 
Q 46.6875 64.796875 31.59375 64.796875 
z
M 9.8125 72.90625 
L 30.078125 72.90625 
Q 51.265625 72.90625 61.171875 64.09375 
Q 71.09375 55.28125 71.09375 36.53125 
Q 71.09375 17.671875 61.125 8.828125 
Q 51.171875 0 30.078125 0 
L 9.8125 0 
z
" id="DejaVuSans-68"/>
       <path d="M 54.890625 54.6875 
L 35.109375 28.078125 
L 55.90625 0 
L 45.3125 0 
L 29.390625 21.484375 
L 13.484375 0 
L 2.875 0 
L 24.125 28.609375 
L 4.6875 54.6875 
L 15.28125 54.6875 
L 29.78125 35.203125 
L 44.28125 54.6875 
z
" id="DejaVuSans-120"/>
      </defs>
      <use xlink:href="#DejaVuSans-68"/>
      <use x="77.001953" xlink:href="#DejaVuSans-101"/>
      <use x="136.775391" xlink:href="#DejaVuSans-120"/>
      <use x="195.955078" xlink:href="#DejaVuSans-32"/>
      <use x="227.742188" xlink:href="#DejaVuSans-77"/>
      <use x="314.021484" xlink:href="#DejaVuSans-111"/>
      <use x="375.203125" xlink:href="#DejaVuSans-100"/>
     </g>
    </g>
    <g id="line2d_67">
     <path d="M 53.203125 68.372812 
L 73.203125 68.372812 
" style="fill:none;stroke:#8c564b;stroke-linecap:square;stroke-width:1.5;"/>
    </g>
    <g id="line2d_68"/>
    <g id="text_8">
     <!-- Con Mod -->
     <g transform="translate(81.203125 71.872812)scale(0.1 -0.1)">
      <defs>
       <path d="M 64.40625 67.28125 
L 64.40625 56.890625 
Q 59.421875 61.53125 53.78125 63.8125 
Q 48.140625 66.109375 41.796875 66.109375 
Q 29.296875 66.109375 22.65625 58.46875 
Q 16.015625 50.828125 16.015625 36.375 
Q 16.015625 21.96875 22.65625 14.328125 
Q 29.296875 6.6875 41.796875 6.6875 
Q 48.140625 6.6875 53.78125 8.984375 
Q 59.421875 11.28125 64.40625 15.921875 
L 64.40625 5.609375 
Q 59.234375 2.09375 53.4375 0.328125 
Q 47.65625 -1.421875 41.21875 -1.421875 
Q 24.65625 -1.421875 15.125 8.703125 
Q 5.609375 18.84375 5.609375 36.375 
Q 5.609375 53.953125 15.125 64.078125 
Q 24.65625 74.21875 41.21875 74.21875 
Q 47.75 74.21875 53.53125 72.484375 
Q 59.328125 70.75 64.40625 67.28125 
z
" id="DejaVuSans-67"/>
      </defs>
      <use xlink:href="#DejaVuSans-67"/>
      <use x="69.824219" xlink:href="#DejaVuSans-111"/>
      <use x="131.005859" xlink:href="#DejaVuSans-110"/>
      <use x="194.384766" xlink:href="#DejaVuSans-32"/>
      <use x="226.171875" xlink:href="#DejaVuSans-77"/>
      <use x="312.451172" xlink:href="#DejaVuSans-111"/>
      <use x="373.632812" xlink:href="#DejaVuSans-100"/>
     </g>
    </g>
    <g id="line2d_69">
     <path d="M 53.203125 83.050937 
L 73.203125 83.050937 
" style="fill:none;stroke:#1f77b4;stroke-linecap:square;stroke-width:1.5;"/>
    </g>
    <g id="line2d_70"/>
    <g id="text_9">
     <!-- Int Mod -->
     <g transform="translate(81.203125 86.550937)scale(0.1 -0.1)">
      <defs>
       <path d="M 9.8125 72.90625 
L 19.671875 72.90625 
L 19.671875 0 
L 9.8125 0 
z
" id="DejaVuSans-73"/>
      </defs>
      <use xlink:href="#DejaVuSans-73"/>
      <use x="29.492188" xlink:href="#DejaVuSans-110"/>
      <use x="92.871094" xlink:href="#DejaVuSans-116"/>
      <use x="132.080078" xlink:href="#DejaVuSans-32"/>
      <use x="163.867188" xlink:href="#DejaVuSans-77"/>
      <use x="250.146484" xlink:href="#DejaVuSans-111"/>
      <use x="311.328125" xlink:href="#DejaVuSans-100"/>
     </g>
    </g>
    <g id="line2d_71">
     <path d="M 53.203125 97.729062 
L 73.203125 97.729062 
" style="fill:none;stroke:#2ca02c;stroke-linecap:square;stroke-width:1.5;"/>
    </g>
    <g id="line2d_72"/>
    <g id="text_10">
     <!-- Wis Mod -->
     <g transform="translate(81.203125 101.229062)scale(0.1 -0.1)">
      <defs>
       <path d="M 3.328125 72.90625 
L 13.28125 72.90625 
L 28.609375 11.28125 
L 43.890625 72.90625 
L 54.984375 72.90625 
L 70.3125 11.28125 
L 85.59375 72.90625 
L 95.609375 72.90625 
L 77.296875 0 
L 64.890625 0 
L 49.515625 63.28125 
L 33.984375 0 
L 21.578125 0 
z
" id="DejaVuSans-87"/>
      </defs>
      <use xlink:href="#DejaVuSans-87"/>
      <use x="96.626953" xlink:href="#DejaVuSans-105"/>
      <use x="124.410156" xlink:href="#DejaVuSans-115"/>
      <use x="176.509766" xlink:href="#DejaVuSans-32"/>
      <use x="208.296875" xlink:href="#DejaVuSans-77"/>
      <use x="294.576172" xlink:href="#DejaVuSans-111"/>
      <use x="355.757812" xlink:href="#DejaVuSans-100"/>
     </g>
    </g>
    <g id="line2d_73">
     <path d="M 53.203125 112.407187 
L 73.203125 112.407187 
" style="fill:none;stroke:#ff7f0e;stroke-linecap:square;stroke-width:1.5;"/>
    </g>
    <g id="line2d_74"/>
    <g id="text_11">
     <!-- Cha Mod -->
     <g transform="translate(81.203125 115.907187)scale(0.1 -0.1)">
      <use xlink:href="#DejaVuSans-67"/>
      <use x="69.824219" xlink:href="#DejaVuSans-104"/>
      <use x="133.203125" xlink:href="#DejaVuSans-97"/>
      <use x="194.482422" xlink:href="#DejaVuSans-32"/>
      <use x="226.269531" xlink:href="#DejaVuSans-77"/>
      <use x="312.548828" xlink:href="#DejaVuSans-111"/>
      <use x="373.730469" xlink:href="#DejaVuSans-100"/>
     </g>
    </g>
   </g>
  </g>
  <g id="axes_2">
   <g id="patch_8">
    <path d="M 44.203125 534.84375 
L 349.2 534.84375 
L 349.2 280.380938 
L 44.203125 280.380938 
z
" style="fill:#ffffff;"/>
   </g>
   <g id="PathCollection_7">
    <g clip-path="url(#paa7646b449)">
     <use style="fill:#d62728;stroke:#d62728;" x="72.796582" xlink:href="#m5de6bdd73e" y="491.097518"/>
     <use style="fill:#d62728;stroke:#d62728;" x="101.390039" xlink:href="#m5de6bdd73e" y="488.246575"/>
     <use style="fill:#d62728;stroke:#d62728;" x="129.983496" xlink:href="#m5de6bdd73e" y="486.039615"/>
     <use style="fill:#d62728;stroke:#d62728;" x="158.576953" xlink:href="#m5de6bdd73e" y="482.912564"/>
     <use style="fill:#d62728;stroke:#d62728;" x="187.17041" xlink:href="#m5de6bdd73e" y="479.710141"/>
     <use style="fill:#d62728;stroke:#d62728;" x="215.763867" xlink:href="#m5de6bdd73e" y="463.482739"/>
     <use style="fill:#d62728;stroke:#d62728;" x="244.357324" xlink:href="#m5de6bdd73e" y="475.84296"/>
     <use style="fill:#d62728;stroke:#d62728;" x="272.950781" xlink:href="#m5de6bdd73e" y="479.800376"/>
     <use style="fill:#d62728;stroke:#d62728;" x="301.544238" xlink:href="#m5de6bdd73e" y="485.36487"/>
    </g>
   </g>
   <g id="PathCollection_8">
    <g clip-path="url(#paa7646b449)">
     <use style="fill:#9467bd;stroke:#9467bd;" x="72.796582" xlink:href="#m28a70e99a9" y="487.758111"/>
     <use style="fill:#9467bd;stroke:#9467bd;" x="101.390039" xlink:href="#m28a70e99a9" y="482.803857"/>
     <use style="fill:#9467bd;stroke:#9467bd;" x="129.983496" xlink:href="#m28a70e99a9" y="478.047532"/>
     <use style="fill:#9467bd;stroke:#9467bd;" x="158.576953" xlink:href="#m28a70e99a9" y="465.602168"/>
     <use style="fill:#9467bd;stroke:#9467bd;" x="187.17041" xlink:href="#m28a70e99a9" y="452.850177"/>
     <use style="fill:#9467bd;stroke:#9467bd;" x="215.763867" xlink:href="#m28a70e99a9" y="438.986126"/>
     <use style="fill:#9467bd;stroke:#9467bd;" x="244.357324" xlink:href="#m28a70e99a9" y="417.776836"/>
     <use style="fill:#9467bd;stroke:#9467bd;" x="272.950781" xlink:href="#m28a70e99a9" y="400.844716"/>
     <use style="fill:#9467bd;stroke:#9467bd;" x="301.544238" xlink:href="#m28a70e99a9" y="358.133464"/>
    </g>
   </g>
   <g id="PathCollection_9">
    <g clip-path="url(#paa7646b449)">
     <use style="fill:#8c564b;stroke:#8c564b;" x="72.796582" xlink:href="#m1c078ba6f6" y="489.539129"/>
     <use style="fill:#8c564b;stroke:#8c564b;" x="101.390039" xlink:href="#m1c078ba6f6" y="481.33851"/>
     <use style="fill:#8c564b;stroke:#8c564b;" x="129.983496" xlink:href="#m1c078ba6f6" y="466.459012"/>
     <use style="fill:#8c564b;stroke:#8c564b;" x="158.576953" xlink:href="#m1c078ba6f6" y="454.350411"/>
     <use style="fill:#8c564b;stroke:#8c564b;" x="187.17041" xlink:href="#m1c078ba6f6" y="427.403896"/>
     <use style="fill:#8c564b;stroke:#8c564b;" x="215.763867" xlink:href="#m1c078ba6f6" y="416.716478"/>
     <use style="fill:#8c564b;stroke:#8c564b;" x="244.357324" xlink:href="#m1c078ba6f6" y="384.596194"/>
     <use style="fill:#8c564b;stroke:#8c564b;" x="272.950781" xlink:href="#m1c078ba6f6" y="372.420678"/>
     <use style="fill:#8c564b;stroke:#8c564b;" x="301.544238" xlink:href="#m1c078ba6f6" y="351.065052"/>
    </g>
   </g>
   <g id="PathCollection_10">
    <g clip-path="url(#paa7646b449)">
     <use style="fill:#1f77b4;stroke:#1f77b4;" x="72.796582" xlink:href="#m7556cbe103" y="490.874891"/>
     <use style="fill:#1f77b4;stroke:#1f77b4;" x="101.390039" xlink:href="#m7556cbe103" y="484.059869"/>
     <use style="fill:#1f77b4;stroke:#1f77b4;" x="129.983496" xlink:href="#m7556cbe103" y="480.045553"/>
     <use style="fill:#1f77b4;stroke:#1f77b4;" x="158.576953" xlink:href="#m7556cbe103" y="475.988406"/>
     <use style="fill:#1f77b4;stroke:#1f77b4;" x="187.17041" xlink:href="#m7556cbe103" y="458.504906"/>
     <use style="fill:#1f77b4;stroke:#1f77b4;" x="215.763867" xlink:href="#m7556cbe103" y="459.028809"/>
     <use style="fill:#1f77b4;stroke:#1f77b4;" x="244.357324" xlink:href="#m7556cbe103" y="455.105059"/>
     <use style="fill:#1f77b4;stroke:#1f77b4;" x="272.950781" xlink:href="#m7556cbe103" y="445.059885"/>
     <use style="fill:#1f77b4;stroke:#1f77b4;" x="301.544238" xlink:href="#m7556cbe103" y="450.022812"/>
    </g>
   </g>
   <g id="PathCollection_11">
    <g clip-path="url(#paa7646b449)">
     <use style="fill:#2ca02c;stroke:#2ca02c;" x="72.796582" xlink:href="#mb11530b9f2" y="486.422349"/>
     <use style="fill:#2ca02c;stroke:#2ca02c;" x="101.390039" xlink:href="#mb11530b9f2" y="472.127756"/>
     <use style="fill:#2ca02c;stroke:#2ca02c;" x="129.983496" xlink:href="#mb11530b9f2" y="457.667721"/>
     <use style="fill:#2ca02c;stroke:#2ca02c;" x="158.576953" xlink:href="#mb11530b9f2" y="437.905536"/>
     <use style="fill:#2ca02c;stroke:#2ca02c;" x="187.17041" xlink:href="#mb11530b9f2" y="414.680755"/>
     <use style="fill:#2ca02c;stroke:#2ca02c;" x="215.763867" xlink:href="#mb11530b9f2" y="394.44683"/>
     <use style="fill:#2ca02c;stroke:#2ca02c;" x="244.357324" xlink:href="#mb11530b9f2" y="372.153453"/>
     <use style="fill:#2ca02c;stroke:#2ca02c;" x="272.950781" xlink:href="#mb11530b9f2" y="353.47132"/>
     <use style="fill:#2ca02c;stroke:#2ca02c;" x="301.544238" xlink:href="#mb11530b9f2" y="322.791406"/>
    </g>
   </g>
   <g id="PathCollection_12">
    <g clip-path="url(#paa7646b449)">
     <use style="fill:#ff7f0e;stroke:#ff7f0e;" x="72.796582" xlink:href="#m956a75c2ae" y="489.761756"/>
     <use style="fill:#ff7f0e;stroke:#ff7f0e;" x="101.390039" xlink:href="#m956a75c2ae" y="482.594521"/>
     <use style="fill:#ff7f0e;stroke:#ff7f0e;" x="129.983496" xlink:href="#m956a75c2ae" y="473.651887"/>
     <use style="fill:#ff7f0e;stroke:#ff7f0e;" x="158.576953" xlink:href="#m956a75c2ae" y="463.871129"/>
     <use style="fill:#ff7f0e;stroke:#ff7f0e;" x="187.17041" xlink:href="#m956a75c2ae" y="428.817578"/>
     <use style="fill:#ff7f0e;stroke:#ff7f0e;" x="215.763867" xlink:href="#m956a75c2ae" y="416.716478"/>
     <use style="fill:#ff7f0e;stroke:#ff7f0e;" x="244.357324" xlink:href="#m956a75c2ae" y="401.186515"/>
     <use style="fill:#ff7f0e;stroke:#ff7f0e;" x="272.950781" xlink:href="#m956a75c2ae" y="410.319395"/>
     <use style="fill:#ff7f0e;stroke:#ff7f0e;" x="301.544238" xlink:href="#m956a75c2ae" y="379.338698"/>
    </g>
   </g>
   <g id="matplotlib.axis_3">
    <g id="xtick_34">
     <g id="line2d_75">
      <path clip-path="url(#paa7646b449)" d="M 53.734277 534.84375 
L 53.734277 280.380938 
" style="fill:none;stroke:#b0b0b0;stroke-linecap:square;stroke-opacity:0.4;stroke-width:0.8;"/>
     </g>
     <g id="line2d_76">
      <g>
       <use style="stroke:#000000;stroke-width:0.8;" x="53.734277" xlink:href="#mefef332d6d" y="534.84375"/>
      </g>
     </g>
     <g id="text_12">
      <!-- 0 -->
      <g transform="translate(50.553027 549.442187)scale(0.1 -0.1)">
       <use xlink:href="#DejaVuSans-48"/>
      </g>
     </g>
    </g>
    <g id="xtick_35">
     <g id="line2d_77">
      <path clip-path="url(#paa7646b449)" d="M 101.390039 534.84375 
L 101.390039 280.380938 
" style="fill:none;stroke:#b0b0b0;stroke-linecap:square;stroke-opacity:0.4;stroke-width:0.8;"/>
     </g>
     <g id="line2d_78">
      <g>
       <use style="stroke:#000000;stroke-width:0.8;" x="101.390039" xlink:href="#mefef332d6d" y="534.84375"/>
      </g>
     </g>
     <g id="text_13">
      <!-- 5 -->
      <g transform="translate(98.208789 549.442187)scale(0.1 -0.1)">
       <use xlink:href="#DejaVuSans-53"/>
      </g>
     </g>
    </g>
    <g id="xtick_36">
     <g id="line2d_79">
      <path clip-path="url(#paa7646b449)" d="M 149.045801 534.84375 
L 149.045801 280.380938 
" style="fill:none;stroke:#b0b0b0;stroke-linecap:square;stroke-opacity:0.4;stroke-width:0.8;"/>
     </g>
     <g id="line2d_80">
      <g>
       <use style="stroke:#000000;stroke-width:0.8;" x="149.045801" xlink:href="#mefef332d6d" y="534.84375"/>
      </g>
     </g>
     <g id="text_14">
      <!-- 10 -->
      <g transform="translate(142.683301 549.442187)scale(0.1 -0.1)">
       <use xlink:href="#DejaVuSans-49"/>
       <use x="63.623047" xlink:href="#DejaVuSans-48"/>
      </g>
     </g>
    </g>
    <g id="xtick_37">
     <g id="line2d_81">
      <path clip-path="url(#paa7646b449)" d="M 196.701563 534.84375 
L 196.701563 280.380938 
" style="fill:none;stroke:#b0b0b0;stroke-linecap:square;stroke-opacity:0.4;stroke-width:0.8;"/>
     </g>
     <g id="line2d_82">
      <g>
       <use style="stroke:#000000;stroke-width:0.8;" x="196.701563" xlink:href="#mefef332d6d" y="534.84375"/>
      </g>
     </g>
     <g id="text_15">
      <!-- 15 -->
      <g transform="translate(190.339063 549.442187)scale(0.1 -0.1)">
       <use xlink:href="#DejaVuSans-49"/>
       <use x="63.623047" xlink:href="#DejaVuSans-53"/>
      </g>
     </g>
    </g>
    <g id="xtick_38">
     <g id="line2d_83">
      <path clip-path="url(#paa7646b449)" d="M 244.357324 534.84375 
L 244.357324 280.380938 
" style="fill:none;stroke:#b0b0b0;stroke-linecap:square;stroke-opacity:0.4;stroke-width:0.8;"/>
     </g>
     <g id="line2d_84">
      <g>
       <use style="stroke:#000000;stroke-width:0.8;" x="244.357324" xlink:href="#mefef332d6d" y="534.84375"/>
      </g>
     </g>
     <g id="text_16">
      <!-- 20 -->
      <g transform="translate(237.994824 549.442187)scale(0.1 -0.1)">
       <defs>
        <path d="M 19.1875 8.296875 
L 53.609375 8.296875 
L 53.609375 0 
L 7.328125 0 
L 7.328125 8.296875 
Q 12.9375 14.109375 22.625 23.890625 
Q 32.328125 33.6875 34.8125 36.53125 
Q 39.546875 41.84375 41.421875 45.53125 
Q 43.3125 49.21875 43.3125 52.78125 
Q 43.3125 58.59375 39.234375 62.25 
Q 35.15625 65.921875 28.609375 65.921875 
Q 23.96875 65.921875 18.8125 64.3125 
Q 13.671875 62.703125 7.8125 59.421875 
L 7.8125 69.390625 
Q 13.765625 71.78125 18.9375 73 
Q 24.125 74.21875 28.421875 74.21875 
Q 39.75 74.21875 46.484375 68.546875 
Q 53.21875 62.890625 53.21875 53.421875 
Q 53.21875 48.921875 51.53125 44.890625 
Q 49.859375 40.875 45.40625 35.40625 
Q 44.1875 33.984375 37.640625 27.21875 
Q 31.109375 20.453125 19.1875 8.296875 
z
" id="DejaVuSans-50"/>
       </defs>
       <use xlink:href="#DejaVuSans-50"/>
       <use x="63.623047" xlink:href="#DejaVuSans-48"/>
      </g>
     </g>
    </g>
    <g id="xtick_39">
     <g id="line2d_85">
      <path clip-path="url(#paa7646b449)" d="M 292.013086 534.84375 
L 292.013086 280.380938 
" style="fill:none;stroke:#b0b0b0;stroke-linecap:square;stroke-opacity:0.4;stroke-width:0.8;"/>
     </g>
     <g id="line2d_86">
      <g>
       <use style="stroke:#000000;stroke-width:0.8;" x="292.013086" xlink:href="#mefef332d6d" y="534.84375"/>
      </g>
     </g>
     <g id="text_17">
      <!-- 25 -->
      <g transform="translate(285.650586 549.442187)scale(0.1 -0.1)">
       <use xlink:href="#DejaVuSans-50"/>
       <use x="63.623047" xlink:href="#DejaVuSans-53"/>
      </g>
     </g>
    </g>
    <g id="xtick_40">
     <g id="line2d_87">
      <path clip-path="url(#paa7646b449)" d="M 339.668848 534.84375 
L 339.668848 280.380938 
" style="fill:none;stroke:#b0b0b0;stroke-linecap:square;stroke-opacity:0.4;stroke-width:0.8;"/>
     </g>
     <g id="line2d_88">
      <g>
       <use style="stroke:#000000;stroke-width:0.8;" x="339.668848" xlink:href="#mefef332d6d" y="534.84375"/>
      </g>
     </g>
     <g id="text_18">
      <!-- 30 -->
      <g transform="translate(333.306348 549.442187)scale(0.1 -0.1)">
       <defs>
        <path d="M 40.578125 39.3125 
Q 47.65625 37.796875 51.625 33 
Q 55.609375 28.21875 55.609375 21.1875 
Q 55.609375 10.40625 48.1875 4.484375 
Q 40.765625 -1.421875 27.09375 -1.421875 
Q 22.515625 -1.421875 17.65625 -0.515625 
Q 12.796875 0.390625 7.625 2.203125 
L 7.625 11.71875 
Q 11.71875 9.328125 16.59375 8.109375 
Q 21.484375 6.890625 26.8125 6.890625 
Q 36.078125 6.890625 40.9375 10.546875 
Q 45.796875 14.203125 45.796875 21.1875 
Q 45.796875 27.640625 41.28125 31.265625 
Q 36.765625 34.90625 28.71875 34.90625 
L 20.21875 34.90625 
L 20.21875 43.015625 
L 29.109375 43.015625 
Q 36.375 43.015625 40.234375 45.921875 
Q 44.09375 48.828125 44.09375 54.296875 
Q 44.09375 59.90625 40.109375 62.90625 
Q 36.140625 65.921875 28.71875 65.921875 
Q 24.65625 65.921875 20.015625 65.03125 
Q 15.375 64.15625 9.8125 62.3125 
L 9.8125 71.09375 
Q 15.4375 72.65625 20.34375 73.4375 
Q 25.25 74.21875 29.59375 74.21875 
Q 40.828125 74.21875 47.359375 69.109375 
Q 53.90625 64.015625 53.90625 55.328125 
Q 53.90625 49.265625 50.4375 45.09375 
Q 46.96875 40.921875 40.578125 39.3125 
z
" id="DejaVuSans-51"/>
       </defs>
       <use xlink:href="#DejaVuSans-51"/>
       <use x="63.623047" xlink:href="#DejaVuSans-48"/>
      </g>
     </g>
    </g>
    <g id="xtick_41">
     <g id="line2d_89">
      <g>
       <use style="stroke:#000000;stroke-width:0.6;" x="44.203125" xlink:href="#mc9f73350a2" y="534.84375"/>
      </g>
     </g>
    </g>
    <g id="xtick_42">
     <g id="line2d_90">
      <g>
       <use style="stroke:#000000;stroke-width:0.6;" x="63.26543" xlink:href="#mc9f73350a2" y="534.84375"/>
      </g>
     </g>
    </g>
    <g id="xtick_43">
     <g id="line2d_91">
      <g>
       <use style="stroke:#000000;stroke-width:0.6;" x="72.796582" xlink:href="#mc9f73350a2" y="534.84375"/>
      </g>
     </g>
    </g>
    <g id="xtick_44">
     <g id="line2d_92">
      <g>
       <use style="stroke:#000000;stroke-width:0.6;" x="82.327734" xlink:href="#mc9f73350a2" y="534.84375"/>
      </g>
     </g>
    </g>
    <g id="xtick_45">
     <g id="line2d_93">
      <g>
       <use style="stroke:#000000;stroke-width:0.6;" x="91.858887" xlink:href="#mc9f73350a2" y="534.84375"/>
      </g>
     </g>
    </g>
    <g id="xtick_46">
     <g id="line2d_94">
      <g>
       <use style="stroke:#000000;stroke-width:0.6;" x="110.921191" xlink:href="#mc9f73350a2" y="534.84375"/>
      </g>
     </g>
    </g>
    <g id="xtick_47">
     <g id="line2d_95">
      <g>
       <use style="stroke:#000000;stroke-width:0.6;" x="120.452344" xlink:href="#mc9f73350a2" y="534.84375"/>
      </g>
     </g>
    </g>
    <g id="xtick_48">
     <g id="line2d_96">
      <g>
       <use style="stroke:#000000;stroke-width:0.6;" x="129.983496" xlink:href="#mc9f73350a2" y="534.84375"/>
      </g>
     </g>
    </g>
    <g id="xtick_49">
     <g id="line2d_97">
      <g>
       <use style="stroke:#000000;stroke-width:0.6;" x="139.514648" xlink:href="#mc9f73350a2" y="534.84375"/>
      </g>
     </g>
    </g>
    <g id="xtick_50">
     <g id="line2d_98">
      <g>
       <use style="stroke:#000000;stroke-width:0.6;" x="158.576953" xlink:href="#mc9f73350a2" y="534.84375"/>
      </g>
     </g>
    </g>
    <g id="xtick_51">
     <g id="line2d_99">
      <g>
       <use style="stroke:#000000;stroke-width:0.6;" x="168.108105" xlink:href="#mc9f73350a2" y="534.84375"/>
      </g>
     </g>
    </g>
    <g id="xtick_52">
     <g id="line2d_100">
      <g>
       <use style="stroke:#000000;stroke-width:0.6;" x="177.639258" xlink:href="#mc9f73350a2" y="534.84375"/>
      </g>
     </g>
    </g>
    <g id="xtick_53">
     <g id="line2d_101">
      <g>
       <use style="stroke:#000000;stroke-width:0.6;" x="187.17041" xlink:href="#mc9f73350a2" y="534.84375"/>
      </g>
     </g>
    </g>
    <g id="xtick_54">
     <g id="line2d_102">
      <g>
       <use style="stroke:#000000;stroke-width:0.6;" x="206.232715" xlink:href="#mc9f73350a2" y="534.84375"/>
      </g>
     </g>
    </g>
    <g id="xtick_55">
     <g id="line2d_103">
      <g>
       <use style="stroke:#000000;stroke-width:0.6;" x="215.763867" xlink:href="#mc9f73350a2" y="534.84375"/>
      </g>
     </g>
    </g>
    <g id="xtick_56">
     <g id="line2d_104">
      <g>
       <use style="stroke:#000000;stroke-width:0.6;" x="225.29502" xlink:href="#mc9f73350a2" y="534.84375"/>
      </g>
     </g>
    </g>
    <g id="xtick_57">
     <g id="line2d_105">
      <g>
       <use style="stroke:#000000;stroke-width:0.6;" x="234.826172" xlink:href="#mc9f73350a2" y="534.84375"/>
      </g>
     </g>
    </g>
    <g id="xtick_58">
     <g id="line2d_106">
      <g>
       <use style="stroke:#000000;stroke-width:0.6;" x="253.888477" xlink:href="#mc9f73350a2" y="534.84375"/>
      </g>
     </g>
    </g>
    <g id="xtick_59">
     <g id="line2d_107">
      <g>
       <use style="stroke:#000000;stroke-width:0.6;" x="263.419629" xlink:href="#mc9f73350a2" y="534.84375"/>
      </g>
     </g>
    </g>
    <g id="xtick_60">
     <g id="line2d_108">
      <g>
       <use style="stroke:#000000;stroke-width:0.6;" x="272.950781" xlink:href="#mc9f73350a2" y="534.84375"/>
      </g>
     </g>
    </g>
    <g id="xtick_61">
     <g id="line2d_109">
      <g>
       <use style="stroke:#000000;stroke-width:0.6;" x="282.481934" xlink:href="#mc9f73350a2" y="534.84375"/>
      </g>
     </g>
    </g>
    <g id="xtick_62">
     <g id="line2d_110">
      <g>
       <use style="stroke:#000000;stroke-width:0.6;" x="301.544238" xlink:href="#mc9f73350a2" y="534.84375"/>
      </g>
     </g>
    </g>
    <g id="xtick_63">
     <g id="line2d_111">
      <g>
       <use style="stroke:#000000;stroke-width:0.6;" x="311.075391" xlink:href="#mc9f73350a2" y="534.84375"/>
      </g>
     </g>
    </g>
    <g id="xtick_64">
     <g id="line2d_112">
      <g>
       <use style="stroke:#000000;stroke-width:0.6;" x="320.606543" xlink:href="#mc9f73350a2" y="534.84375"/>
      </g>
     </g>
    </g>
    <g id="xtick_65">
     <g id="line2d_113">
      <g>
       <use style="stroke:#000000;stroke-width:0.6;" x="330.137695" xlink:href="#mc9f73350a2" y="534.84375"/>
      </g>
     </g>
    </g>
    <g id="xtick_66">
     <g id="line2d_114">
      <g>
       <use style="stroke:#000000;stroke-width:0.6;" x="349.2" xlink:href="#mc9f73350a2" y="534.84375"/>
      </g>
     </g>
    </g>
    <g id="text_19">
     <!-- CR -->
     <g transform="translate(189.735938 563.120312)scale(0.1 -0.1)">
      <defs>
       <path d="M 44.390625 34.1875 
Q 47.5625 33.109375 50.5625 29.59375 
Q 53.5625 26.078125 56.59375 19.921875 
L 66.609375 0 
L 56 0 
L 46.6875 18.703125 
Q 43.0625 26.03125 39.671875 28.421875 
Q 36.28125 30.8125 30.421875 30.8125 
L 19.671875 30.8125 
L 19.671875 0 
L 9.8125 0 
L 9.8125 72.90625 
L 32.078125 72.90625 
Q 44.578125 72.90625 50.734375 67.671875 
Q 56.890625 62.453125 56.890625 51.90625 
Q 56.890625 45.015625 53.6875 40.46875 
Q 50.484375 35.9375 44.390625 34.1875 
z
M 19.671875 64.796875 
L 19.671875 38.921875 
L 32.078125 38.921875 
Q 39.203125 38.921875 42.84375 42.21875 
Q 46.484375 45.515625 46.484375 51.90625 
Q 46.484375 58.296875 42.84375 61.546875 
Q 39.203125 64.796875 32.078125 64.796875 
z
" id="DejaVuSans-82"/>
      </defs>
      <use xlink:href="#DejaVuSans-67"/>
      <use x="69.824219" xlink:href="#DejaVuSans-82"/>
     </g>
    </g>
   </g>
   <g id="matplotlib.axis_4">
    <g id="ytick_14">
     <g id="line2d_115">
      <path clip-path="url(#paa7646b449)" d="M 44.203125 492.433281 
L 349.2 492.433281 
" style="fill:none;stroke:#b0b0b0;stroke-linecap:square;stroke-opacity:0.4;stroke-width:0.8;"/>
     </g>
     <g id="line2d_116">
      <g>
       <use style="stroke:#000000;stroke-width:0.8;" x="44.203125" xlink:href="#meae5063413" y="492.433281"/>
      </g>
     </g>
     <g id="text_20">
      <!-- 0 -->
      <g transform="translate(30.840625 496.2325)scale(0.1 -0.1)">
       <use xlink:href="#DejaVuSans-48"/>
      </g>
     </g>
    </g>
    <g id="ytick_15">
     <g id="line2d_117">
      <path clip-path="url(#paa7646b449)" d="M 44.203125 386.407109 
L 349.2 386.407109 
" style="fill:none;stroke:#b0b0b0;stroke-linecap:square;stroke-opacity:0.4;stroke-width:0.8;"/>
     </g>
     <g id="line2d_118">
      <g>
       <use style="stroke:#000000;stroke-width:0.8;" x="44.203125" xlink:href="#meae5063413" y="386.407109"/>
      </g>
     </g>
     <g id="text_21">
      <!-- 5 -->
      <g transform="translate(30.840625 390.206328)scale(0.1 -0.1)">
       <use xlink:href="#DejaVuSans-53"/>
      </g>
     </g>
    </g>
    <g id="ytick_16">
     <g id="line2d_119">
      <path clip-path="url(#paa7646b449)" d="M 44.203125 280.380937 
L 349.2 280.380937 
" style="fill:none;stroke:#b0b0b0;stroke-linecap:square;stroke-opacity:0.4;stroke-width:0.8;"/>
     </g>
     <g id="line2d_120">
      <g>
       <use style="stroke:#000000;stroke-width:0.8;" x="44.203125" xlink:href="#meae5063413" y="280.380937"/>
      </g>
     </g>
     <g id="text_22">
      <!-- 10 -->
      <g transform="translate(24.478125 284.180156)scale(0.1 -0.1)">
       <use xlink:href="#DejaVuSans-49"/>
       <use x="63.623047" xlink:href="#DejaVuSans-48"/>
      </g>
     </g>
    </g>
    <g id="ytick_17">
     <g id="line2d_121">
      <g>
       <use style="stroke:#000000;stroke-width:0.6;" x="44.203125" xlink:href="#mfc8bcbe255" y="534.84375"/>
      </g>
     </g>
    </g>
    <g id="ytick_18">
     <g id="line2d_122">
      <g>
       <use style="stroke:#000000;stroke-width:0.6;" x="44.203125" xlink:href="#mfc8bcbe255" y="513.638516"/>
      </g>
     </g>
    </g>
    <g id="ytick_19">
     <g id="line2d_123">
      <g>
       <use style="stroke:#000000;stroke-width:0.6;" x="44.203125" xlink:href="#mfc8bcbe255" y="471.228047"/>
      </g>
     </g>
    </g>
    <g id="ytick_20">
     <g id="line2d_124">
      <g>
       <use style="stroke:#000000;stroke-width:0.6;" x="44.203125" xlink:href="#mfc8bcbe255" y="450.022812"/>
      </g>
     </g>
    </g>
    <g id="ytick_21">
     <g id="line2d_125">
      <g>
       <use style="stroke:#000000;stroke-width:0.6;" x="44.203125" xlink:href="#mfc8bcbe255" y="428.817578"/>
      </g>
     </g>
    </g>
    <g id="ytick_22">
     <g id="line2d_126">
      <g>
       <use style="stroke:#000000;stroke-width:0.6;" x="44.203125" xlink:href="#mfc8bcbe255" y="407.612344"/>
      </g>
     </g>
    </g>
    <g id="ytick_23">
     <g id="line2d_127">
      <g>
       <use style="stroke:#000000;stroke-width:0.6;" x="44.203125" xlink:href="#mfc8bcbe255" y="365.201875"/>
      </g>
     </g>
    </g>
    <g id="ytick_24">
     <g id="line2d_128">
      <g>
       <use style="stroke:#000000;stroke-width:0.6;" x="44.203125" xlink:href="#mfc8bcbe255" y="343.996641"/>
      </g>
     </g>
    </g>
    <g id="ytick_25">
     <g id="line2d_129">
      <g>
       <use style="stroke:#000000;stroke-width:0.6;" x="44.203125" xlink:href="#mfc8bcbe255" y="322.791406"/>
      </g>
     </g>
    </g>
    <g id="ytick_26">
     <g id="line2d_130">
      <g>
       <use style="stroke:#000000;stroke-width:0.6;" x="44.203125" xlink:href="#mfc8bcbe255" y="301.586172"/>
      </g>
     </g>
    </g>
    <g id="text_23">
     <!-- Saving Throw Proficiency Bonus -->
     <g transform="translate(18.398438 487.226406)rotate(-90)scale(0.1 -0.1)">
      <defs>
       <path d="M 19.671875 64.796875 
L 19.671875 37.40625 
L 32.078125 37.40625 
Q 38.96875 37.40625 42.71875 40.96875 
Q 46.484375 44.53125 46.484375 51.125 
Q 46.484375 57.671875 42.71875 61.234375 
Q 38.96875 64.796875 32.078125 64.796875 
z
M 9.8125 72.90625 
L 32.078125 72.90625 
Q 44.34375 72.90625 50.609375 67.359375 
Q 56.890625 61.8125 56.890625 51.125 
Q 56.890625 40.328125 50.609375 34.8125 
Q 44.34375 29.296875 32.078125 29.296875 
L 19.671875 29.296875 
L 19.671875 0 
L 9.8125 0 
z
" id="DejaVuSans-80"/>
      </defs>
      <use xlink:href="#DejaVuSans-83"/>
      <use x="63.476562" xlink:href="#DejaVuSans-97"/>
      <use x="124.755859" xlink:href="#DejaVuSans-118"/>
      <use x="183.935547" xlink:href="#DejaVuSans-105"/>
      <use x="211.71875" xlink:href="#DejaVuSans-110"/>
      <use x="275.097656" xlink:href="#DejaVuSans-103"/>
      <use x="338.574219" xlink:href="#DejaVuSans-32"/>
      <use x="370.361328" xlink:href="#DejaVuSans-84"/>
      <use x="431.445312" xlink:href="#DejaVuSans-104"/>
      <use x="494.824219" xlink:href="#DejaVuSans-114"/>
      <use x="533.6875" xlink:href="#DejaVuSans-111"/>
      <use x="594.869141" xlink:href="#DejaVuSans-119"/>
      <use x="676.65625" xlink:href="#DejaVuSans-32"/>
      <use x="708.443359" xlink:href="#DejaVuSans-80"/>
      <use x="766.996094" xlink:href="#DejaVuSans-114"/>
      <use x="805.859375" xlink:href="#DejaVuSans-111"/>
      <use x="867.041016" xlink:href="#DejaVuSans-102"/>
      <use x="902.246094" xlink:href="#DejaVuSans-105"/>
      <use x="930.029297" xlink:href="#DejaVuSans-99"/>
      <use x="985.009766" xlink:href="#DejaVuSans-105"/>
      <use x="1012.792969" xlink:href="#DejaVuSans-101"/>
      <use x="1074.316406" xlink:href="#DejaVuSans-110"/>
      <use x="1137.695312" xlink:href="#DejaVuSans-99"/>
      <use x="1192.675781" xlink:href="#DejaVuSans-121"/>
      <use x="1251.855469" xlink:href="#DejaVuSans-32"/>
      <use x="1283.642578" xlink:href="#DejaVuSans-66"/>
      <use x="1352.246094" xlink:href="#DejaVuSans-111"/>
      <use x="1413.427734" xlink:href="#DejaVuSans-110"/>
      <use x="1476.806641" xlink:href="#DejaVuSans-117"/>
      <use x="1540.185547" xlink:href="#DejaVuSans-115"/>
     </g>
    </g>
   </g>
   <g id="line2d_131">
    <path clip-path="url(#paa7646b449)" d="M 72.796582 487.261417 
L 101.390039 485.793212 
L 129.983496 484.325006 
L 158.576953 482.856801 
L 187.17041 481.388595 
L 215.763867 479.92039 
L 244.357324 478.452184 
L 272.950781 476.983979 
L 301.544238 475.515773 
" style="fill:none;stroke:#d62728;stroke-linecap:square;stroke-width:1.5;"/>
   </g>
   <g id="line2d_132">
    <path clip-path="url(#paa7646b449)" d="M 72.796582 503.302562 
L 101.390039 488.110338 
L 129.983496 472.918114 
L 158.576953 457.725889 
L 187.17041 442.533665 
L 215.763867 427.341441 
L 244.357324 412.149217 
L 272.950781 396.956993 
L 301.544238 381.764769 
" style="fill:none;stroke:#9467bd;stroke-linecap:square;stroke-width:1.5;"/>
   </g>
   <g id="line2d_133">
    <path clip-path="url(#paa7646b449)" d="M 72.796582 499.232776 
L 101.390039 481.199286 
L 129.983496 463.165797 
L 158.576953 445.132307 
L 187.17041 427.098818 
L 215.763867 409.065328 
L 244.357324 391.031839 
L 272.950781 372.998349 
L 301.544238 354.96486 
" style="fill:none;stroke:#8c564b;stroke-linecap:square;stroke-width:1.5;"/>
   </g>
   <g id="line2d_134">
    <path clip-path="url(#paa7646b449)" d="M 72.796582 489.671056 
L 101.390039 483.883575 
L 129.983496 478.096094 
L 158.576953 472.308613 
L 187.17041 466.521132 
L 215.763867 460.733651 
L 244.357324 454.946171 
L 272.950781 449.15869 
L 301.544238 443.371209 
" style="fill:none;stroke:#1f77b4;stroke-linecap:square;stroke-width:1.5;"/>
   </g>
   <g id="line2d_135">
    <path clip-path="url(#paa7646b449)" d="M 72.796582 494.072813 
L 101.390039 473.656474 
L 129.983496 453.240136 
L 158.576953 432.823797 
L 187.17041 412.407458 
L 215.763867 391.99112 
L 244.357324 371.574781 
L 272.950781 351.158442 
L 301.544238 330.742104 
" style="fill:none;stroke:#2ca02c;stroke-linecap:square;stroke-width:1.5;"/>
   </g>
   <g id="line2d_136">
    <path clip-path="url(#paa7646b449)" d="M 72.796582 495.179973 
L 101.390039 481.003257 
L 129.983496 466.82654 
L 158.576953 452.649823 
L 187.17041 438.473106 
L 215.763867 424.29639 
L 244.357324 410.119673 
L 272.950781 395.942956 
L 301.544238 381.766239 
" style="fill:none;stroke:#ff7f0e;stroke-linecap:square;stroke-width:1.5;"/>
   </g>
   <g id="patch_9">
    <path d="M 44.203125 534.84375 
L 44.203125 280.380937 
" style="fill:none;stroke:#000000;stroke-linecap:square;stroke-linejoin:miter;stroke-width:0.8;"/>
   </g>
   <g id="patch_10">
    <path d="M 349.2 534.84375 
L 349.2 280.380937 
" style="fill:none;stroke:#000000;stroke-linecap:square;stroke-linejoin:miter;stroke-width:0.8;"/>
   </g>
   <g id="patch_11">
    <path d="M 44.203125 534.84375 
L 349.2 534.84375 
" style="fill:none;stroke:#000000;stroke-linecap:square;stroke-linejoin:miter;stroke-width:0.8;"/>
   </g>
   <g id="patch_12">
    <path d="M 44.203125 280.380938 
L 349.2 280.380938 
" style="fill:none;stroke:#000000;stroke-linecap:square;stroke-linejoin:miter;stroke-width:0.8;"/>
   </g>
   <g id="legend_2">
    <g id="patch_13">
     <path d="M 51.203125 376.449687 
L 125.357812 376.449687 
Q 127.357812 376.449687 127.357812 374.449687 
L 127.357812 287.380937 
Q 127.357812 285.380937 125.357812 285.380937 
L 51.203125 285.380937 
Q 49.203125 285.380937 49.203125 287.380937 
L 49.203125 374.449687 
Q 49.203125 376.449687 51.203125 376.449687 
z
" style="fill:#ffffff;opacity:0.8;stroke:#cccccc;stroke-linejoin:miter;"/>
    </g>
    <g id="line2d_137">
     <path d="M 53.203125 293.479375 
L 73.203125 293.479375 
" style="fill:none;stroke:#d62728;stroke-linecap:square;stroke-width:1.5;"/>
    </g>
    <g id="line2d_138"/>
    <g id="text_24">
     <!-- Str Prof -->
     <g transform="translate(81.203125 296.979375)scale(0.1 -0.1)">
      <use xlink:href="#DejaVuSans-83"/>
      <use x="63.476562" xlink:href="#DejaVuSans-116"/>
      <use x="102.685547" xlink:href="#DejaVuSans-114"/>
      <use x="143.798828" xlink:href="#DejaVuSans-32"/>
      <use x="175.585938" xlink:href="#DejaVuSans-80"/>
      <use x="234.138672" xlink:href="#DejaVuSans-114"/>
      <use x="273.001953" xlink:href="#DejaVuSans-111"/>
      <use x="334.183594" xlink:href="#DejaVuSans-102"/>
     </g>
    </g>
    <g id="line2d_139">
     <path d="M 53.203125 308.1575 
L 73.203125 308.1575 
" style="fill:none;stroke:#9467bd;stroke-linecap:square;stroke-width:1.5;"/>
    </g>
    <g id="line2d_140"/>
    <g id="text_25">
     <!-- Dex Prof -->
     <g transform="translate(81.203125 311.6575)scale(0.1 -0.1)">
      <use xlink:href="#DejaVuSans-68"/>
      <use x="77.001953" xlink:href="#DejaVuSans-101"/>
      <use x="136.775391" xlink:href="#DejaVuSans-120"/>
      <use x="195.955078" xlink:href="#DejaVuSans-32"/>
      <use x="227.742188" xlink:href="#DejaVuSans-80"/>
      <use x="286.294922" xlink:href="#DejaVuSans-114"/>
      <use x="325.158203" xlink:href="#DejaVuSans-111"/>
      <use x="386.339844" xlink:href="#DejaVuSans-102"/>
     </g>
    </g>
    <g id="line2d_141">
     <path d="M 53.203125 322.835625 
L 73.203125 322.835625 
" style="fill:none;stroke:#8c564b;stroke-linecap:square;stroke-width:1.5;"/>
    </g>
    <g id="line2d_142"/>
    <g id="text_26">
     <!-- Con Prof -->
     <g transform="translate(81.203125 326.335625)scale(0.1 -0.1)">
      <use xlink:href="#DejaVuSans-67"/>
      <use x="69.824219" xlink:href="#DejaVuSans-111"/>
      <use x="131.005859" xlink:href="#DejaVuSans-110"/>
      <use x="194.384766" xlink:href="#DejaVuSans-32"/>
      <use x="226.171875" xlink:href="#DejaVuSans-80"/>
      <use x="284.724609" xlink:href="#DejaVuSans-114"/>
      <use x="323.587891" xlink:href="#DejaVuSans-111"/>
      <use x="384.769531" xlink:href="#DejaVuSans-102"/>
     </g>
    </g>
    <g id="line2d_143">
     <path d="M 53.203125 337.51375 
L 73.203125 337.51375 
" style="fill:none;stroke:#1f77b4;stroke-linecap:square;stroke-width:1.5;"/>
    </g>
    <g id="line2d_144"/>
    <g id="text_27">
     <!-- Int Prof -->
     <g transform="translate(81.203125 341.01375)scale(0.1 -0.1)">
      <use xlink:href="#DejaVuSans-73"/>
      <use x="29.492188" xlink:href="#DejaVuSans-110"/>
      <use x="92.871094" xlink:href="#DejaVuSans-116"/>
      <use x="132.080078" xlink:href="#DejaVuSans-32"/>
      <use x="163.867188" xlink:href="#DejaVuSans-80"/>
      <use x="222.419922" xlink:href="#DejaVuSans-114"/>
      <use x="261.283203" xlink:href="#DejaVuSans-111"/>
      <use x="322.464844" xlink:href="#DejaVuSans-102"/>
     </g>
    </g>
    <g id="line2d_145">
     <path d="M 53.203125 352.191875 
L 73.203125 352.191875 
" style="fill:none;stroke:#2ca02c;stroke-linecap:square;stroke-width:1.5;"/>
    </g>
    <g id="line2d_146"/>
    <g id="text_28">
     <!-- Wis Prof -->
     <g transform="translate(81.203125 355.691875)scale(0.1 -0.1)">
      <use xlink:href="#DejaVuSans-87"/>
      <use x="96.626953" xlink:href="#DejaVuSans-105"/>
      <use x="124.410156" xlink:href="#DejaVuSans-115"/>
      <use x="176.509766" xlink:href="#DejaVuSans-32"/>
      <use x="208.296875" xlink:href="#DejaVuSans-80"/>
      <use x="266.849609" xlink:href="#DejaVuSans-114"/>
      <use x="305.712891" xlink:href="#DejaVuSans-111"/>
      <use x="366.894531" xlink:href="#DejaVuSans-102"/>
     </g>
    </g>
    <g id="line2d_147">
     <path d="M 53.203125 366.87 
L 73.203125 366.87 
" style="fill:none;stroke:#ff7f0e;stroke-linecap:square;stroke-width:1.5;"/>
    </g>
    <g id="line2d_148"/>
    <g id="text_29">
     <!-- Cha Prof -->
     <g transform="translate(81.203125 370.37)scale(0.1 -0.1)">
      <use xlink:href="#DejaVuSans-67"/>
      <use x="69.824219" xlink:href="#DejaVuSans-104"/>
      <use x="133.203125" xlink:href="#DejaVuSans-97"/>
      <use x="194.482422" xlink:href="#DejaVuSans-32"/>
      <use x="226.269531" xlink:href="#DejaVuSans-80"/>
      <use x="284.822266" xlink:href="#DejaVuSans-114"/>
      <use x="323.685547" xlink:href="#DejaVuSans-111"/>
      <use x="384.867188" xlink:href="#DejaVuSans-102"/>
     </g>
    </g>
   </g>
  </g>
 </g>
 <defs>
  <clipPath id="pec08ba676c">
   <rect height="254.462813" width="304.996875" x="44.203125" y="25.918125"/>
  </clipPath>
  <clipPath id="paa7646b449">
   <rect height="254.462812" width="304.996875" x="44.203125" y="280.380937"/>
  </clipPath>
 </defs>
</svg>
