<?xml version="1.0" encoding="utf-8" standalone="no"?>
<!DOCTYPE svg PUBLIC "-//W3C//DTD SVG 1.1//EN"
  "http://www.w3.org/Graphics/SVG/1.1/DTD/svg11.dtd">
<!-- Created with matplotlib (https://matplotlib.org/) -->
<svg height="288pt" version="1.1" viewBox="0 0 360 288" width="360pt" xmlns="http://www.w3.org/2000/svg" xmlns:xlink="http://www.w3.org/1999/xlink">
 <metadata>
  <rdf:RDF xmlns:cc="http://creativecommons.org/ns#" xmlns:dc="http://purl.org/dc/elements/1.1/" xmlns:rdf="http://www.w3.org/1999/02/22-rdf-syntax-ns#">
   <cc:Work>
    <dc:type rdf:resource="http://purl.org/dc/dcmitype/StillImage"/>
    <dc:date>2022-02-21T22:10:55.848196</dc:date>
    <dc:format>image/svg+xml</dc:format>
    <dc:creator>
     <cc:Agent>
      <dc:title>Matplotlib v3.3.4, https://matplotlib.org/</dc:title>
     </cc:Agent>
    </dc:creator>
    <dc:contributor>
     <cc:Agent>
      <dc:title>T. Dunn</dc:title>
     </cc:Agent>
    </dc:contributor>
   </cc:Work>
  </rdf:RDF>
 </metadata>
 <defs>
  <style type="text/css">*{stroke-linecap:butt;stroke-linejoin:round;}</style>
 </defs>
 <g id="figure_1">
  <g id="patch_1">
   <path d="M 0 288 
L 360 288 
L 360 0 
L 0 0 
z
" style="fill:none;"/>
  </g>
  <g id="axes_1">
   <g id="patch_2">
    <path clip-path="url(#p97bc88989c)" d="M 60.360174 262.043634 
L 194.954978 262.043634 
L 194.954978 157.358786 
L 60.360174 157.358786 
z
" style="fill:#ffffff;opacity:0.3;"/>
   </g>
   <g id="patch_3">
    <path clip-path="url(#p97bc88989c)" d="M 60.360174 262.043634 
L 194.954978 262.043634 
L 194.954978 157.358786 
L 60.360174 157.358786 
z
" style="fill:none;stroke:#000000;stroke-linejoin:miter;"/>
   </g>
   <g id="patch_4">
    <path clip-path="url(#p97bc88989c)" d="M 60.360174 157.358786 
L 194.954978 157.358786 
L 194.954978 67.628917 
L 60.360174 67.628917 
z
" style="fill:#0000ff;opacity:0.3;"/>
   </g>
   <g id="patch_5">
    <path clip-path="url(#p97bc88989c)" d="M 60.360174 157.358786 
L 194.954978 157.358786 
L 194.954978 67.628917 
L 60.360174 67.628917 
z
" style="fill:none;stroke:#000000;stroke-dasharray:3.7,1.6;stroke-dashoffset:0;stroke-linejoin:miter;"/>
   </g>
   <g id="patch_6">
    <path clip-path="url(#p97bc88989c)" d="M 60.360174 67.628917 
L 194.954978 67.628917 
L 194.954978 22.763983 
L 60.360174 22.763983 
z
" style="fill:#0000ff;opacity:0.3;"/>
   </g>
   <g id="patch_7">
    <path clip-path="url(#p97bc88989c)" d="M 60.360174 67.628917 
L 194.954978 67.628917 
L 194.954978 22.763983 
L 60.360174 22.763983 
z
" style="fill:none;stroke:#000000;stroke-dasharray:3.7,1.6;stroke-dashoffset:0;stroke-linejoin:miter;"/>
   </g>
   <g id="patch_8">
    <path clip-path="url(#p97bc88989c)" d="M 194.954978 262.043634 
L 254.774891 262.043634 
L 254.774891 157.358786 
L 194.954978 157.358786 
z
" style="fill:#ff0000;opacity:0.3;"/>
   </g>
   <g id="patch_9">
    <path clip-path="url(#p97bc88989c)" d="M 194.954978 262.043634 
L 254.774891 262.043634 
L 254.774891 157.358786 
L 194.954978 157.358786 
z
" style="fill:none;stroke:#000000;stroke-dasharray:3.7,1.6;stroke-dashoffset:0;stroke-linejoin:miter;"/>
   </g>
   <g id="patch_10">
    <path clip-path="url(#p97bc88989c)" d="M 194.954978 157.358786 
L 254.774891 157.358786 
L 254.774891 67.628917 
L 194.954978 67.628917 
z
" style="fill:#ffffff;opacity:0.3;"/>
   </g>
   <g id="patch_11">
    <path clip-path="url(#p97bc88989c)" d="M 194.954978 157.358786 
L 254.774891 157.358786 
L 254.774891 67.628917 
L 194.954978 67.628917 
z
" style="fill:none;stroke:#000000;stroke-linejoin:miter;"/>
   </g>
   <g id="patch_12">
    <path clip-path="url(#p97bc88989c)" d="M 194.954978 67.628917 
L 254.774891 67.628917 
L 254.774891 22.763983 
L 194.954978 22.763983 
z
" style="fill:#0000ff;opacity:0.3;"/>
   </g>
   <g id="patch_13">
    <path clip-path="url(#p97bc88989c)" d="M 194.954978 67.628917 
L 254.774891 67.628917 
L 254.774891 22.763983 
L 194.954978 22.763983 
z
" style="fill:none;stroke:#000000;stroke-dasharray:3.7,1.6;stroke-dashoffset:0;stroke-linejoin:miter;"/>
   </g>
   <g id="patch_14">
    <path clip-path="url(#p97bc88989c)" d="M 254.774891 262.043634 
L 299.639826 262.043634 
L 299.639826 157.358786 
L 254.774891 157.358786 
z
" style="fill:#ff0000;opacity:0.3;"/>
   </g>
   <g id="patch_15">
    <path clip-path="url(#p97bc88989c)" d="M 254.774891 262.043634 
L 299.639826 262.043634 
L 299.639826 157.358786 
L 254.774891 157.358786 
z
" style="fill:none;stroke:#000000;stroke-dasharray:3.7,1.6;stroke-dashoffset:0;stroke-linejoin:miter;"/>
   </g>
   <g id="patch_16">
    <path clip-path="url(#p97bc88989c)" d="M 254.774891 157.358786 
L 299.639826 157.358786 
L 299.639826 67.628917 
L 254.774891 67.628917 
z
" style="fill:#ff0000;opacity:0.3;"/>
   </g>
   <g id="patch_17">
    <path clip-path="url(#p97bc88989c)" d="M 254.774891 157.358786 
L 299.639826 157.358786 
L 299.639826 67.628917 
L 254.774891 67.628917 
z
" style="fill:none;stroke:#000000;stroke-dasharray:3.7,1.6;stroke-dashoffset:0;stroke-linejoin:miter;"/>
   </g>
   <g id="patch_18">
    <path clip-path="url(#p97bc88989c)" d="M 254.774891 67.628917 
L 299.639826 67.628917 
L 299.639826 22.763983 
L 254.774891 22.763983 
z
" style="fill:#ffffff;opacity:0.3;"/>
   </g>
   <g id="patch_19">
    <path clip-path="url(#p97bc88989c)" d="M 254.774891 67.628917 
L 299.639826 67.628917 
L 299.639826 22.763983 
L 254.774891 22.763983 
z
" style="fill:none;stroke:#000000;stroke-linejoin:miter;"/>
   </g>
   <g id="text_1">
    <!-- $\mathit{XP}_{1,1}$ -->
    <g transform="translate(114.910608 209.70121)scale(0.1 -0.1)">
     <defs>
      <path d="M 48.09375 37.953125 
L 64.796875 57.171875 
C 71.40625 64.6875 76.40625 65.09375 80 65.09375 
C 80.796875 65.1875 81.09375 66.09375 81.09375 67 
C 81.09375 67.90625 80.203125 68 79.90625 68 
C 77.296875 68 74.296875 68 71.59375 68 
C 69.59375 68 64.40625 68 62.40625 68 
C 61.796875 68 60.59375 68 60.59375 66.203125 
C 60.59375 65.21875 61.203125 65.21875 61.90625 65.125 
C 64 64.828125 64.796875 63.53125 64.796875 62.328125 
C 64.796875 60.734375 63.59375 59.15625 62.59375 58.046875 
L 47.09375 40.53125 
L 39 62.296875 
C 40 64.171875 41.90625 64.953125 44.09375 65.15625 
C 44.90625 65.25 45.796875 65.34375 45.796875 67.015625 
C 45.796875 68 44.796875 68 44.40625 68 
C 41 68 37.40625 68 34 68 
C 30.796875 68 27.296875 68 24.203125 68 
C 23.5 68 22.40625 68 22.40625 66.09375 
C 22.40625 65.09375 23.09375 65.09375 24.796875 65.09375 
C 29.796875 65.09375 30.203125 63.890625 30.90625 62.015625 
L 41.40625 34.046875 
L 20.296875 10.078125 
C 14.40625 3.40625 8.90625 3 6.703125 2.796875 
C 5.703125 2.703125 4.796875 2.703125 4.796875 1.0625 
C 4.796875 0.09375 5.5 0 6 0 
C 8.59375 0 11.59375 0 14.296875 0 
C 17.296875 0 20.59375 0 23.5 0 
C 24.203125 0 25.296875 0 25.296875 1.890625 
C 25.296875 2.796875 24.5 2.890625 24.296875 2.890625 
C 23.5 3 21.09375 3.28125 21.09375 5.765625 
C 21.09375 7.375 22.59375 9.0625 23.296875 9.84375 
L 42.296875 31.453125 
L 51.5 7.0625 
C 51.59375 6.875 51.796875 6.171875 51.796875 5.875 
C 51.796875 5.375 50.90625 3.375 46.5 2.890625 
C 45.5 2.796875 45.203125 1.890625 45.203125 1 
C 45.203125 0 46.203125 0 46.59375 0 
C 49.90625 0 53.5 0 56.90625 0 
C 60.09375 0 63.59375 0 66.796875 0 
C 67.40625 0 68.5 0 68.5 1.765625 
C 68.5 2.703125 67.59375 2.703125 66.59375 2.703125 
C 61.203125 2.703125 60.796875 3.703125 60.09375 5.71875 
z
" id="CMTI12-88"/>
      <path d="M 30.59375 31.609375 
L 45.90625 31.609375 
C 58.40625 31.609375 71.59375 41.671875 71.59375 53.4375 
C 71.59375 61.71875 65 68 54.296875 68 
L 25.703125 68 
C 23.90625 68 23 68 23 66.109375 
C 23 65.109375 23.703125 65.109375 25.59375 65.109375 
C 28.09375 65.109375 30.90625 65.109375 30.90625 63.515625 
C 30.90625 62.90625 30.90625 62.609375 30.703125 62.015625 
L 17 7.09375 
C 16.09375 3.59375 15.5 2.796875 9.40625 2.796875 
C 7.59375 2.796875 6.703125 2.796875 6.703125 0.96875 
C 6.703125 0 7.703125 0 8.09375 0 
C 11.59375 0 15.296875 0 18.90625 0 
C 22.5 0 26.40625 0 29.90625 0 
C 30.703125 0 31.796875 0 31.796875 1.828125 
C 31.796875 2.796875 31 2.796875 29.5 2.796875 
C 23.90625 2.796875 23.90625 3.59375 23.90625 4.484375 
L 24.09375 5.984375 
z
M 37.796875 61.3125 
C 38.703125 65.109375 39.40625 65.109375 42.703125 65.109375 
L 51.40625 65.109375 
C 59.59375 65.109375 63.5 61.8125 63.5 55.84375 
C 63.5 54.046875 62.59375 44.65625 57.5 39.09375 
C 57.09375 38.796875 52.703125 34 43.59375 34 
L 31 34 
z
" id="CMTI12-80"/>
      <path d="M 26.59375 63.40625 
C 26.59375 65.5 26.5 65.5 25.09375 65.5 
C 21.203125 61.1875 15.296875 59.796875 9.703125 59.796875 
C 9.40625 59.796875 8.90625 59.796875 8.796875 59.5 
C 8.703125 59.296875 8.703125 59.09375 8.703125 57 
C 11.796875 57 17 57.59375 21 59.984375 
L 21 7.203125 
C 21 3.6875 20.796875 2.5 12.203125 2.5 
L 9.203125 2.5 
L 9.203125 0 
C 14 0 19 0 23.796875 0 
C 28.59375 0 33.59375 0 38.40625 0 
L 38.40625 2.5 
L 35.40625 2.5 
C 26.796875 2.5 26.59375 3.59375 26.59375 7.15625 
z
" id="CMR17-49"/>
      <path d="M 19.5 -0.484375 
C 19.5 5.359375 17.59375 9.671875 13.5 9.671875 
C 10.296875 9.671875 8.703125 7.078125 8.703125 4.890625 
C 8.703125 2.6875 10.203125 0 13.59375 0 
C 14.90625 0 16 0.40625 16.90625 1.296875 
C 17.09375 1.5 17.203125 1.5 17.296875 1.5 
C 17.5 1.5 17.5 0.078125 17.5 -0.421875 
C 17.5 -3.75 16.90625 -10.296875 11.09375 -16.875 
C 10 -18.078125 10 -18.28125 10 -18.484375 
C 10 -19 10.5 -19.5 11 -19.5 
C 11.796875 -19.5 19.5 -12.046875 19.5 -0.484375 
z
" id="CMMI12-59"/>
     </defs>
     <use transform="scale(0.996264)" xlink:href="#CMTI12-88"/>
     <use transform="translate(72.41445 0)scale(0.996264)" xlink:href="#CMTI12-80"/>
     <use transform="translate(148.783918 -14.943915)scale(0.697382)" xlink:href="#CMR17-49"/>
     <use transform="translate(180.7671 -14.943915)scale(0.697382)" xlink:href="#CMMI12-59"/>
     <use transform="translate(199.735033 -14.943915)scale(0.697382)" xlink:href="#CMR17-49"/>
    </g>
   </g>
   <g id="text_2">
    <!-- $\mathit{XP}_{2,1}$ -->
    <g transform="translate(114.910608 112.493852)scale(0.1 -0.1)">
     <defs>
      <path d="M 41.703125 15.453125 
L 39.90625 15.453125 
C 38.90625 8.375 38.09375 7.171875 37.703125 6.5625 
C 37.203125 5.765625 30 5.765625 28.59375 5.765625 
L 9.40625 5.765625 
C 13 9.671875 20 16.75 28.5 24.953125 
C 34.59375 30.734375 41.703125 37.53125 41.703125 47.421875 
C 41.703125 59.21875 32.296875 66 21.796875 66 
C 10.796875 66 4.09375 56.3125 4.09375 47.34375 
C 4.09375 43.4375 7 42.9375 8.203125 42.9375 
C 9.203125 42.9375 12.203125 43.546875 12.203125 47.03125 
C 12.203125 50.109375 9.59375 51 8.203125 51 
C 7.59375 51 7 50.90625 6.59375 50.703125 
C 8.5 59.21875 14.296875 63.40625 20.40625 63.40625 
C 29.09375 63.40625 34.796875 56.515625 34.796875 47.421875 
C 34.796875 38.734375 29.703125 31.25 24 24.75 
L 4.09375 2.28125 
L 4.09375 0 
L 39.296875 0 
z
" id="CMR17-50"/>
     </defs>
     <use transform="scale(0.996264)" xlink:href="#CMTI12-88"/>
     <use transform="translate(72.41445 0)scale(0.996264)" xlink:href="#CMTI12-80"/>
     <use transform="translate(148.783918 -14.943915)scale(0.697382)" xlink:href="#CMR17-50"/>
     <use transform="translate(180.7671 -14.943915)scale(0.697382)" xlink:href="#CMMI12-59"/>
     <use transform="translate(199.735033 -14.943915)scale(0.697382)" xlink:href="#CMR17-49"/>
    </g>
   </g>
   <g id="text_3">
    <!-- $\mathit{XP}_{3,1}$ -->
    <g transform="translate(114.910608 45.19645)scale(0.1 -0.1)">
     <defs>
      <path d="M 22.09375 33.703125 
C 31 33.703125 34.90625 25.96875 34.90625 17.03125 
C 34.90625 5 28.5 0.390625 22.703125 0.390625 
C 17.40625 0.390625 8.796875 3.03125 6.09375 10.828125 
C 6.59375 10.625 7.09375 10.625 7.59375 10.625 
C 10 10.625 11.796875 12.21875 11.796875 14.8125 
C 11.796875 17.703125 9.59375 19 7.59375 19 
C 5.90625 19 3.296875 18.203125 3.296875 14.46875 
C 3.296875 5.234375 12.296875 -2 22.90625 -2 
C 34 -2 42.5 6.71875 42.5 16.953125 
C 42.5 26.671875 34.5 33.703125 25 34.796875 
C 32.59375 36.375 39.90625 43.0625 39.90625 52.015625 
C 39.90625 59.6875 32 65.296875 23 65.296875 
C 13.90625 65.296875 5.90625 59.828125 5.90625 52.015625 
C 5.90625 48.59375 8.5 48 9.796875 48 
C 11.90625 48 13.703125 49.296875 13.703125 51.890625 
C 13.703125 54.46875 11.90625 55.765625 9.796875 55.765625 
C 9.40625 55.765625 8.90625 55.765625 8.5 55.578125 
C 11.40625 61.859375 19.296875 63 22.796875 63 
C 26.296875 63 32.90625 61.328125 32.90625 51.875 
C 32.90625 49.109375 32.5 44.1875 29.09375 39.84375 
C 26.09375 36 22.703125 36 19.40625 35.6875 
C 18.90625 35.6875 16.59375 35.453125 16.203125 35.453125 
C 15.5 35.359375 15.09375 35.265625 15.09375 34.5 
C 15.09375 33.796875 15.203125 33.703125 17.203125 33.703125 
z
" id="CMR17-51"/>
     </defs>
     <use transform="scale(0.996264)" xlink:href="#CMTI12-88"/>
     <use transform="translate(72.41445 0)scale(0.996264)" xlink:href="#CMTI12-80"/>
     <use transform="translate(148.783918 -14.943915)scale(0.697382)" xlink:href="#CMR17-51"/>
     <use transform="translate(180.7671 -14.943915)scale(0.697382)" xlink:href="#CMMI12-59"/>
     <use transform="translate(199.735033 -14.943915)scale(0.697382)" xlink:href="#CMR17-49"/>
    </g>
   </g>
   <g id="text_4">
    <!-- $\mathit{XP}_{1,2}$ -->
    <g transform="translate(212.117966 209.70121)scale(0.1 -0.1)">
     <use transform="scale(0.996264)" xlink:href="#CMTI12-88"/>
     <use transform="translate(72.41445 0)scale(0.996264)" xlink:href="#CMTI12-80"/>
     <use transform="translate(148.783918 -14.943915)scale(0.697382)" xlink:href="#CMR17-49"/>
     <use transform="translate(180.7671 -14.943915)scale(0.697382)" xlink:href="#CMMI12-59"/>
     <use transform="translate(199.735033 -14.943915)scale(0.697382)" xlink:href="#CMR17-50"/>
    </g>
   </g>
   <g id="text_5">
    <!-- $\mathit{XP}_{2,2}$ -->
    <g transform="translate(212.117966 112.493852)scale(0.1 -0.1)">
     <use transform="scale(0.996264)" xlink:href="#CMTI12-88"/>
     <use transform="translate(72.41445 0)scale(0.996264)" xlink:href="#CMTI12-80"/>
     <use transform="translate(148.783918 -14.943915)scale(0.697382)" xlink:href="#CMR17-50"/>
     <use transform="translate(180.7671 -14.943915)scale(0.697382)" xlink:href="#CMMI12-59"/>
     <use transform="translate(199.735033 -14.943915)scale(0.697382)" xlink:href="#CMR17-50"/>
    </g>
   </g>
   <g id="text_6">
    <!-- $\mathit{XP}_{3,2}$ -->
    <g transform="translate(212.117966 45.19645)scale(0.1 -0.1)">
     <use transform="scale(0.996264)" xlink:href="#CMTI12-88"/>
     <use transform="translate(72.41445 0)scale(0.996264)" xlink:href="#CMTI12-80"/>
     <use transform="translate(148.783918 -14.943915)scale(0.697382)" xlink:href="#CMR17-51"/>
     <use transform="translate(180.7671 -14.943915)scale(0.697382)" xlink:href="#CMMI12-59"/>
     <use transform="translate(199.735033 -14.943915)scale(0.697382)" xlink:href="#CMR17-50"/>
    </g>
   </g>
   <g id="text_7">
    <!-- $\mathit{XP}_{1,3}$ -->
    <g transform="translate(264.46039 209.70121)scale(0.1 -0.1)">
     <use transform="scale(0.996264)" xlink:href="#CMTI12-88"/>
     <use transform="translate(72.41445 0)scale(0.996264)" xlink:href="#CMTI12-80"/>
     <use transform="translate(148.783918 -14.943915)scale(0.697382)" xlink:href="#CMR17-49"/>
     <use transform="translate(180.7671 -14.943915)scale(0.697382)" xlink:href="#CMMI12-59"/>
     <use transform="translate(199.735033 -14.943915)scale(0.697382)" xlink:href="#CMR17-51"/>
    </g>
   </g>
   <g id="text_8">
    <!-- $\mathit{XP}_{2,3}$ -->
    <g transform="translate(264.46039 112.493852)scale(0.1 -0.1)">
     <use transform="scale(0.996264)" xlink:href="#CMTI12-88"/>
     <use transform="translate(72.41445 0)scale(0.996264)" xlink:href="#CMTI12-80"/>
     <use transform="translate(148.783918 -14.943915)scale(0.697382)" xlink:href="#CMR17-50"/>
     <use transform="translate(180.7671 -14.943915)scale(0.697382)" xlink:href="#CMMI12-59"/>
     <use transform="translate(199.735033 -14.943915)scale(0.697382)" xlink:href="#CMR17-51"/>
    </g>
   </g>
   <g id="text_9">
    <!-- $\mathit{XP}_{3,3}$ -->
    <g transform="translate(264.46039 45.19645)scale(0.1 -0.1)">
     <use transform="scale(0.996264)" xlink:href="#CMTI12-88"/>
     <use transform="translate(72.41445 0)scale(0.996264)" xlink:href="#CMTI12-80"/>
     <use transform="translate(148.783918 -14.943915)scale(0.697382)" xlink:href="#CMR17-51"/>
     <use transform="translate(180.7671 -14.943915)scale(0.697382)" xlink:href="#CMMI12-59"/>
     <use transform="translate(199.735033 -14.943915)scale(0.697382)" xlink:href="#CMR17-51"/>
    </g>
   </g>
   <g id="text_10">
    <!-- $\mathit{eDPR}_{1}$ -->
    <g transform="translate(112.414468 275.002778)scale(0.1 -0.1)">
     <defs>
      <path d="M 23 23.015625 
C 26.5 23.015625 45.296875 23.015625 45.296875 35.65625 
C 45.296875 40.1875 41.59375 44 35.703125 44 
C 25.296875 44 11.40625 33.828125 11.40625 16.265625 
C 11.40625 6.1875 16.59375 -1 25.09375 -1 
C 37.5 -1 45.703125 9.015625 45.703125 10.421875 
C 45.703125 11.109375 44.90625 11.90625 44.296875 11.90625 
C 44 11.90625 43.90625 11.8125 43.09375 10.921875 
C 37.796875 3.78125 30.296875 1 25.203125 1 
C 18.59375 1 17.703125 8.828125 17.703125 12 
C 17.703125 16.375 18.40625 19.15625 19.40625 23.015625 
z
M 20 25 
C 24 41 33.796875 42.015625 35.59375 42.015625 
C 39.59375 42.015625 41.90625 39.203125 41.90625 35.78125 
C 41.90625 25 25.296875 25 22.09375 25 
z
" id="CMTI12-101"/>
      <path d="M 25.703125 68 
C 23.90625 68 23 68 23 66.109375 
C 23 65.109375 23.703125 65.109375 25.59375 65.109375 
C 28.09375 65.109375 30.90625 65.109375 30.90625 63.515625 
C 30.90625 62.90625 30.90625 62.609375 30.703125 62.03125 
L 17 7.171875 
C 16.09375 3.6875 15.5 2.890625 9.40625 2.890625 
C 7.59375 2.890625 6.703125 2.890625 6.703125 1 
C 6.703125 0 7.5 0 9.09375 0 
L 38.5 0 
C 57 0 75.90625 21.109375 75.90625 43.8125 
C 75.90625 58.53125 67.703125 68 55.5 68 
z
M 37.796875 61.328125 
C 38.703125 65.109375 39.296875 65.109375 42.703125 65.109375 
L 52.5 65.109375 
C 63.40625 65.109375 68.40625 57.140625 68.40625 47.484375 
C 68.40625 41.71875 65.59375 25.6875 59.296875 16.140625 
C 54.203125 8.46875 46.203125 2.890625 36.90625 2.890625 
L 26.59375 2.890625 
C 23.703125 2.890625 23.59375 3 23.59375 4.09375 
C 23.59375 4.890625 23.796875 5.6875 24 6.375 
z
" id="CMTI12-68"/>
      <path d="M 49.59375 33.890625 
C 62 36.78125 70.40625 45.03125 70.40625 53.375 
C 70.40625 61.34375 63 68 50.796875 68 
L 25.703125 68 
C 23.90625 68 23 68 23 66.109375 
C 23 65.109375 23.703125 65.109375 25.59375 65.109375 
C 28.09375 65.109375 30.90625 65.109375 30.90625 63.515625 
C 30.90625 62.921875 30.90625 62.625 30.703125 62.03125 
L 17 7.28125 
C 16.09375 3.796875 15.5 3 9.40625 3 
C 7.59375 3 6.703125 3 6.703125 1.171875 
C 6.703125 0.203125 7.703125 0.203125 8.09375 0.203125 
C 11.5 0.203125 15.296875 0.203125 18.796875 0.203125 
C 22.40625 0.203125 26.203125 0.203125 29.703125 0.203125 
C 30.5 0.203125 31.59375 0.203125 31.59375 2.03125 
C 31.59375 3 30.796875 3 29.296875 3 
C 23.703125 3 23.703125 3.796875 23.703125 4.6875 
L 23.90625 6.171875 
L 30.703125 33 
L 41.5 33 
C 49.40625 33 51.09375 27.75 51.09375 24.09375 
C 51.09375 22.484375 50.296875 19.125 49.59375 16.65625 
C 48.90625 13.875 48 10.1875 48 8.21875 
C 48 0.484375 54.296875 -2 59.703125 -2 
C 67.703125 -2 70.703125 8.328125 70.703125 9.234375 
C 70.703125 10.21875 69.703125 10.21875 69.296875 10.21875 
C 68.203125 10.21875 68.09375 10.03125 67.703125 8.625 
C 66.09375 3.46875 63.296875 0 60 0 
C 56.796875 0 56.59375 2.875 56.59375 5.671875 
C 56.59375 8.640625 57.296875 13.921875 57.703125 17 
C 57.703125 17.1875 58.203125 20.875 58.203125 22.265625 
C 58.203125 28.625 54.09375 32.09375 49.59375 33.890625 
z
M 41.40625 35 
L 31.203125 35 
L 37.796875 61.3125 
C 38.59375 64.5 39.296875 64.8125 40.203125 64.90625 
C 40.90625 65.109375 43.90625 65.109375 45.796875 65.109375 
C 52 65.109375 62.203125 65.109375 62.203125 55.546875 
C 62.203125 53.75 61.703125 35 41.40625 35 
z
" id="CMTI12-82"/>
     </defs>
     <use transform="scale(0.996264)" xlink:href="#CMTI12-101"/>
     <use transform="translate(44.832337 0)scale(0.996264)" xlink:href="#CMTI12-68"/>
     <use transform="translate(118.399842 0)scale(0.996264)" xlink:href="#CMTI12-80"/>
     <use transform="translate(184.495292 0)scale(0.996264)" xlink:href="#CMTI12-82"/>
     <use transform="translate(259.619262 -14.943915)scale(0.697382)" xlink:href="#CMR17-49"/>
    </g>
   </g>
   <g id="text_11">
    <!-- $\mathit{eDPR}_{2}$ -->
    <g transform="translate(209.621826 275.002778)scale(0.1 -0.1)">
     <use transform="scale(0.996264)" xlink:href="#CMTI12-101"/>
     <use transform="translate(44.832337 0)scale(0.996264)" xlink:href="#CMTI12-68"/>
     <use transform="translate(118.399842 0)scale(0.996264)" xlink:href="#CMTI12-80"/>
     <use transform="translate(184.495292 0)scale(0.996264)" xlink:href="#CMTI12-82"/>
     <use transform="translate(259.619262 -14.943915)scale(0.697382)" xlink:href="#CMR17-50"/>
    </g>
   </g>
   <g id="text_12">
    <!-- $\mathit{eDPR}_{3}$ -->
    <g transform="translate(261.96425 275.002778)scale(0.1 -0.1)">
     <use transform="scale(0.996264)" xlink:href="#CMTI12-101"/>
     <use transform="translate(44.832337 0)scale(0.996264)" xlink:href="#CMTI12-68"/>
     <use transform="translate(118.399842 0)scale(0.996264)" xlink:href="#CMTI12-80"/>
     <use transform="translate(184.495292 0)scale(0.996264)" xlink:href="#CMTI12-82"/>
     <use transform="translate(259.619262 -14.943915)scale(0.697382)" xlink:href="#CMR17-51"/>
    </g>
   </g>
   <g id="text_13">
    <!-- $\mathit{eHP}_{1}$ -->
    <g transform="translate(52.38235 221.570883)rotate(-90)scale(0.1 -0.1)">
     <defs>
      <path d="M 72.796875 61 
C 73.703125 64.40625 74.296875 65.203125 80.5 65.203125 
C 82.203125 65.203125 83.09375 65.203125 83.09375 66.9375 
C 83.09375 68 82.203125 68 81.703125 68 
C 78.203125 68 74.5 68 70.90625 68 
C 67.203125 68 63.40625 68 59.796875 68 
C 59 68 57.90625 68 57.90625 66.171875 
C 57.90625 65.203125 58.59375 65.203125 60.5 65.203125 
C 63 65.203125 65.796875 65.203125 65.796875 63.609375 
C 65.796875 63 65.796875 62.703125 65.59375 62.109375 
L 59.296875 36.890625 
L 31.796875 36.890625 
L 37.796875 61 
C 38.703125 64.40625 39.296875 65.203125 45.5 65.203125 
C 47.203125 65.203125 48.09375 65.203125 48.09375 66.9375 
C 48.09375 68 47.203125 68 46.703125 68 
C 43.203125 68 39.5 68 35.90625 68 
C 32.203125 68 28.40625 68 24.796875 68 
C 24 68 22.90625 68 22.90625 66.171875 
C 22.90625 65.203125 23.59375 65.203125 25.5 65.203125 
C 28 65.203125 30.796875 65.203125 30.796875 63.609375 
C 30.796875 63 30.796875 62.703125 30.59375 62.109375 
L 16.90625 7.09375 
C 16 3.59375 15.40625 2.796875 9.296875 2.796875 
C 7.5 2.796875 6.59375 2.796875 6.59375 0.96875 
C 6.59375 0 7.59375 0 8 0 
C 11.5 0 15.203125 0 18.796875 0 
C 22.40625 0 26.296875 0 29.796875 0 
C 30.59375 0 31.703125 0 31.703125 1.828125 
C 31.703125 2.796875 30.90625 2.796875 29.40625 2.796875 
C 23.796875 2.796875 23.796875 3.59375 23.796875 4.5 
L 24 6 
L 31.09375 34 
L 58.59375 34 
L 51.90625 7.109375 
C 51 3.59375 50.40625 2.796875 44.296875 2.796875 
C 42.5 2.796875 41.59375 2.796875 41.59375 0.96875 
C 41.59375 0 42.59375 0 43 0 
C 46.5 0 50.203125 0 53.796875 0 
C 57.40625 0 61.296875 0 64.796875 0 
C 65.59375 0 66.703125 0 66.703125 1.828125 
C 66.703125 2.796875 65.90625 2.796875 64.40625 2.796875 
C 58.796875 2.796875 58.796875 3.59375 58.796875 4.5 
C 58.796875 5.296875 58.90625 5.796875 59 6 
z
" id="CMTI12-72"/>
     </defs>
     <use transform="scale(0.996264)" xlink:href="#CMTI12-101"/>
     <use transform="translate(44.832337 0)scale(0.996264)" xlink:href="#CMTI12-72"/>
     <use transform="translate(117.246787 0)scale(0.996264)" xlink:href="#CMTI12-80"/>
     <use transform="translate(193.616255 -14.943915)scale(0.697382)" xlink:href="#CMR17-49"/>
    </g>
   </g>
   <g id="text_14">
    <!-- $\mathit{eHP}_{2}$ -->
    <g transform="translate(52.38235 124.363525)rotate(-90)scale(0.1 -0.1)">
     <use transform="scale(0.996264)" xlink:href="#CMTI12-101"/>
     <use transform="translate(44.832337 0)scale(0.996264)" xlink:href="#CMTI12-72"/>
     <use transform="translate(117.246787 0)scale(0.996264)" xlink:href="#CMTI12-80"/>
     <use transform="translate(193.616255 -14.943915)scale(0.697382)" xlink:href="#CMR17-50"/>
    </g>
   </g>
   <g id="text_15">
    <!-- $\mathit{eHP}_{3}$ -->
    <g transform="translate(52.38235 57.066123)rotate(-90)scale(0.1 -0.1)">
     <use transform="scale(0.996264)" xlink:href="#CMTI12-101"/>
     <use transform="translate(44.832337 0)scale(0.996264)" xlink:href="#CMTI12-72"/>
     <use transform="translate(117.246787 0)scale(0.996264)" xlink:href="#CMTI12-80"/>
     <use transform="translate(193.616255 -14.943915)scale(0.697382)" xlink:href="#CMR17-51"/>
    </g>
   </g>
  </g>
 </g>
 <defs>
  <clipPath id="p97bc88989c">
   <rect height="263.207616" width="263.207616" x="48.396192" y="10.8"/>
  </clipPath>
 </defs>
</svg>
