<?xml version="1.0" encoding="utf-8" standalone="no"?>
<!DOCTYPE svg PUBLIC "-//W3C//DTD SVG 1.1//EN"
  "http://www.w3.org/Graphics/SVG/1.1/DTD/svg11.dtd">
<!-- Created with matplotlib (https://matplotlib.org/) -->
<svg height="288pt" version="1.1" viewBox="0 0 360 288" width="360pt" xmlns="http://www.w3.org/2000/svg" xmlns:xlink="http://www.w3.org/1999/xlink">
 <metadata>
  <rdf:RDF xmlns:cc="http://creativecommons.org/ns#" xmlns:dc="http://purl.org/dc/elements/1.1/" xmlns:rdf="http://www.w3.org/1999/02/22-rdf-syntax-ns#">
   <cc:Work>
    <dc:type rdf:resource="http://purl.org/dc/dcmitype/StillImage"/>
    <dc:date>2021-11-18T21:00:08.315963</dc:date>
    <dc:format>image/svg+xml</dc:format>
    <dc:creator>
     <cc:Agent>
      <dc:title>Matplotlib v3.3.4, https://matplotlib.org/</dc:title>
     </cc:Agent>
    </dc:creator>
    <dc:contributor>
     <cc:Agent>
      <dc:title>T. Dunn</dc:title>
     </cc:Agent>
    </dc:contributor>
   </cc:Work>
  </rdf:RDF>
 </metadata>
 <defs>
  <style type="text/css">*{stroke-linecap:butt;stroke-linejoin:round;}</style>
 </defs>
 <g id="figure_1">
  <g id="patch_1">
   <path d="M 0 288 
L 360 288 
L 360 0 
L 0 0 
z
" style="fill:none;"/>
  </g>
  <g id="axes_1">
   <g id="patch_2">
    <path d="M 50.565625 246.84375 
L 347.3375 246.84375 
L 347.3375 10.8 
L 50.565625 10.8 
z
" style="fill:#ffffff;"/>
   </g>
   <g id="patch_3">
    <path clip-path="url(#p93aaa18d85)" d="M 50.565625 110.712698 
L 50.565625 101.970337 
L 60.138911 101.970337 
L 60.138911 22.040179 
L 69.712198 22.040179 
L 69.712198 64.503075 
L 79.285484 64.503075 
L 79.285484 105.717063 
L 88.85877 105.717063 
L 88.85877 141.935417 
L 98.432056 141.935417 
L 98.432056 109.46379 
L 108.005343 109.46379 
L 108.005343 176.904861 
L 117.578629 176.904861 
L 117.578629 179.402679 
L 127.151915 179.402679 
L 127.151915 168.1625 
L 136.725202 168.1625 
L 136.725202 191.891766 
L 146.298488 191.891766 
L 146.298488 206.878671 
L 155.871774 206.878671 
L 155.871774 203.131944 
L 165.44506 203.131944 
L 165.44506 220.616667 
L 175.018347 220.616667 
L 175.018347 210.625397 
L 184.591633 210.625397 
L 184.591633 223.114484 
L 194.164919 223.114484 
L 194.164919 226.86121 
L 203.738206 226.86121 
L 203.738206 223.114484 
L 213.311492 223.114484 
L 213.311492 231.856845 
L 222.884778 231.856845 
L 222.884778 231.856845 
L 232.458065 231.856845 
L 232.458065 238.101389 
L 242.031351 238.101389 
L 242.031351 238.101389 
L 251.604637 238.101389 
L 251.604637 231.856845 
L 261.177923 231.856845 
L 261.177923 231.856845 
L 270.75121 231.856845 
L 270.75121 223.114484 
L 280.324496 223.114484 
L 280.324496 236.85248 
L 289.897782 236.85248 
L 289.897782 239.350298 
L 299.471069 239.350298 
L 299.471069 238.101389 
L 309.044355 238.101389 
L 309.044355 246.84375 
L 318.617641 246.84375 
L 318.617641 244.345933 
L 328.190927 244.345933 
L 328.190927 246.84375 
L 337.764214 246.84375 
L 337.764214 243.097024 
L 347.3375 243.097024 
L 347.3375 246.84375 
L 337.764214 246.84375 
L 337.764214 246.84375 
L 328.190927 246.84375 
L 328.190927 246.84375 
L 318.617641 246.84375 
L 318.617641 246.84375 
L 309.044355 246.84375 
L 309.044355 246.84375 
L 299.471069 246.84375 
L 299.471069 244.345933 
L 289.897782 244.345933 
L 289.897782 244.345933 
L 280.324496 244.345933 
L 280.324496 239.350298 
L 270.75121 239.350298 
L 270.75121 241.848115 
L 261.177923 241.848115 
L 261.177923 238.101389 
L 251.604637 238.101389 
L 251.604637 239.350298 
L 242.031351 239.350298 
L 242.031351 241.848115 
L 232.458065 241.848115 
L 232.458065 238.101389 
L 222.884778 238.101389 
L 222.884778 235.603571 
L 213.311492 235.603571 
L 213.311492 230.607937 
L 203.738206 230.607937 
L 203.738206 229.359028 
L 194.164919 229.359028 
L 194.164919 226.86121 
L 184.591633 226.86121 
L 184.591633 218.118849 
L 175.018347 218.118849 
L 175.018347 221.865575 
L 165.44506 221.865575 
L 165.44506 218.118849 
L 155.871774 218.118849 
L 155.871774 218.118849 
L 146.298488 218.118849 
L 146.298488 209.376488 
L 136.725202 209.376488 
L 136.725202 190.642857 
L 127.151915 190.642857 
L 127.151915 194.389583 
L 117.578629 194.389583 
L 117.578629 189.393948 
L 108.005343 189.393948 
L 108.005343 133.193056 
L 98.432056 133.193056 
L 98.432056 159.420139 
L 88.85877 159.420139 
L 88.85877 119.45506 
L 79.285484 119.45506 
L 79.285484 79.48998 
L 69.712198 79.48998 
L 69.712198 40.77381 
L 60.138911 40.77381 
L 60.138911 110.712698 
z
" style="fill:#2ca02c;"/>
   </g>
   <g id="patch_4">
    <path clip-path="url(#p93aaa18d85)" d="M 50.565625 110.712698 
L 50.565625 110.712698 
L 60.138911 110.712698 
L 60.138911 40.77381 
L 69.712198 40.77381 
L 69.712198 79.48998 
L 79.285484 79.48998 
L 79.285484 119.45506 
L 88.85877 119.45506 
L 88.85877 159.420139 
L 98.432056 159.420139 
L 98.432056 133.193056 
L 108.005343 133.193056 
L 108.005343 189.393948 
L 117.578629 189.393948 
L 117.578629 194.389583 
L 127.151915 194.389583 
L 127.151915 190.642857 
L 136.725202 190.642857 
L 136.725202 209.376488 
L 146.298488 209.376488 
L 146.298488 218.118849 
L 155.871774 218.118849 
L 155.871774 218.118849 
L 165.44506 218.118849 
L 165.44506 221.865575 
L 175.018347 221.865575 
L 175.018347 218.118849 
L 184.591633 218.118849 
L 184.591633 226.86121 
L 194.164919 226.86121 
L 194.164919 229.359028 
L 203.738206 229.359028 
L 203.738206 230.607937 
L 213.311492 230.607937 
L 213.311492 235.603571 
L 222.884778 235.603571 
L 222.884778 238.101389 
L 232.458065 238.101389 
L 232.458065 241.848115 
L 242.031351 241.848115 
L 242.031351 239.350298 
L 251.604637 239.350298 
L 251.604637 238.101389 
L 261.177923 238.101389 
L 261.177923 241.848115 
L 270.75121 241.848115 
L 270.75121 239.350298 
L 280.324496 239.350298 
L 280.324496 244.345933 
L 289.897782 244.345933 
L 289.897782 244.345933 
L 299.471069 244.345933 
L 299.471069 246.84375 
L 309.044355 246.84375 
L 309.044355 246.84375 
L 318.617641 246.84375 
L 318.617641 246.84375 
L 328.190927 246.84375 
L 328.190927 246.84375 
L 337.764214 246.84375 
L 337.764214 246.84375 
L 347.3375 246.84375 
L 347.3375 246.84375 
L 337.764214 246.84375 
L 337.764214 246.84375 
L 328.190927 246.84375 
L 328.190927 246.84375 
L 318.617641 246.84375 
L 318.617641 246.84375 
L 309.044355 246.84375 
L 309.044355 246.84375 
L 299.471069 246.84375 
L 299.471069 246.84375 
L 289.897782 246.84375 
L 289.897782 246.84375 
L 280.324496 246.84375 
L 280.324496 246.84375 
L 270.75121 246.84375 
L 270.75121 246.84375 
L 261.177923 246.84375 
L 261.177923 245.594841 
L 251.604637 245.594841 
L 251.604637 244.345933 
L 242.031351 244.345933 
L 242.031351 243.097024 
L 232.458065 243.097024 
L 232.458065 243.097024 
L 222.884778 243.097024 
L 222.884778 240.599206 
L 213.311492 240.599206 
L 213.311492 239.350298 
L 203.738206 239.350298 
L 203.738206 239.350298 
L 194.164919 239.350298 
L 194.164919 238.101389 
L 184.591633 238.101389 
L 184.591633 226.86121 
L 175.018347 226.86121 
L 175.018347 226.86121 
L 165.44506 226.86121 
L 165.44506 221.865575 
L 155.871774 221.865575 
L 155.871774 220.616667 
L 146.298488 220.616667 
L 146.298488 209.376488 
L 136.725202 209.376488 
L 136.725202 191.891766 
L 127.151915 191.891766 
L 127.151915 195.638492 
L 117.578629 195.638492 
L 117.578629 189.393948 
L 108.005343 189.393948 
L 108.005343 134.441964 
L 98.432056 134.441964 
L 98.432056 159.420139 
L 88.85877 159.420139 
L 88.85877 120.703968 
L 79.285484 120.703968 
L 79.285484 79.48998 
L 69.712198 79.48998 
L 69.712198 40.77381 
L 60.138911 40.77381 
L 60.138911 110.712698 
z
" style="fill:#ff7f0e;"/>
   </g>
   <g id="patch_5">
    <path clip-path="url(#p93aaa18d85)" d="M 50.565625 246.84375 
L 50.565625 110.712698 
L 60.138911 110.712698 
L 60.138911 40.77381 
L 69.712198 40.77381 
L 69.712198 79.48998 
L 79.285484 79.48998 
L 79.285484 120.703968 
L 88.85877 120.703968 
L 88.85877 159.420139 
L 98.432056 159.420139 
L 98.432056 134.441964 
L 108.005343 134.441964 
L 108.005343 189.393948 
L 117.578629 189.393948 
L 117.578629 195.638492 
L 127.151915 195.638492 
L 127.151915 191.891766 
L 136.725202 191.891766 
L 136.725202 209.376488 
L 146.298488 209.376488 
L 146.298488 220.616667 
L 155.871774 220.616667 
L 155.871774 221.865575 
L 165.44506 221.865575 
L 165.44506 226.86121 
L 175.018347 226.86121 
L 175.018347 226.86121 
L 184.591633 226.86121 
L 184.591633 238.101389 
L 194.164919 238.101389 
L 194.164919 239.350298 
L 203.738206 239.350298 
L 203.738206 239.350298 
L 213.311492 239.350298 
L 213.311492 240.599206 
L 222.884778 240.599206 
L 222.884778 243.097024 
L 232.458065 243.097024 
L 232.458065 243.097024 
L 242.031351 243.097024 
L 242.031351 244.345933 
L 251.604637 244.345933 
L 251.604637 245.594841 
L 261.177923 245.594841 
L 261.177923 246.84375 
L 270.75121 246.84375 
L 270.75121 246.84375 
L 280.324496 246.84375 
L 280.324496 246.84375 
L 289.897782 246.84375 
L 289.897782 246.84375 
L 299.471069 246.84375 
L 299.471069 246.84375 
L 309.044355 246.84375 
L 309.044355 246.84375 
L 318.617641 246.84375 
L 318.617641 246.84375 
L 328.190927 246.84375 
L 328.190927 246.84375 
L 337.764214 246.84375 
L 337.764214 246.84375 
L 347.3375 246.84375 
L 347.3375 246.84375 
L 337.764214 246.84375 
L 337.764214 246.84375 
L 328.190927 246.84375 
L 328.190927 246.84375 
L 318.617641 246.84375 
L 318.617641 246.84375 
L 309.044355 246.84375 
L 309.044355 246.84375 
L 299.471069 246.84375 
L 299.471069 246.84375 
L 289.897782 246.84375 
L 289.897782 246.84375 
L 280.324496 246.84375 
L 280.324496 246.84375 
L 270.75121 246.84375 
L 270.75121 246.84375 
L 261.177923 246.84375 
L 261.177923 246.84375 
L 251.604637 246.84375 
L 251.604637 246.84375 
L 242.031351 246.84375 
L 242.031351 246.84375 
L 232.458065 246.84375 
L 232.458065 246.84375 
L 222.884778 246.84375 
L 222.884778 246.84375 
L 213.311492 246.84375 
L 213.311492 246.84375 
L 203.738206 246.84375 
L 203.738206 246.84375 
L 194.164919 246.84375 
L 194.164919 246.84375 
L 184.591633 246.84375 
L 184.591633 246.84375 
L 175.018347 246.84375 
L 175.018347 246.84375 
L 165.44506 246.84375 
L 165.44506 246.84375 
L 155.871774 246.84375 
L 155.871774 246.84375 
L 146.298488 246.84375 
L 146.298488 246.84375 
L 136.725202 246.84375 
L 136.725202 246.84375 
L 127.151915 246.84375 
L 127.151915 246.84375 
L 117.578629 246.84375 
L 117.578629 246.84375 
L 108.005343 246.84375 
L 108.005343 246.84375 
L 98.432056 246.84375 
L 98.432056 246.84375 
L 88.85877 246.84375 
L 88.85877 246.84375 
L 79.285484 246.84375 
L 79.285484 246.84375 
L 69.712198 246.84375 
L 69.712198 246.84375 
L 60.138911 246.84375 
L 60.138911 246.84375 
z
" style="fill:#1f77b4;"/>
   </g>
   <g id="matplotlib.axis_1">
    <g id="xtick_1">
     <g id="line2d_1">
      <defs>
       <path d="M 0 0 
L 0 3.5 
" id="mb613a61bd1" style="stroke:#000000;stroke-width:0.8;"/>
      </defs>
      <g>
       <use style="stroke:#000000;stroke-width:0.8;" x="55.352268" xlink:href="#mb613a61bd1" y="246.84375"/>
      </g>
     </g>
     <g id="text_1">
      <!-- 0 -->
      <g transform="translate(52.171018 261.442187)scale(0.1 -0.1)">
       <defs>
        <path d="M 31.78125 66.40625 
Q 24.171875 66.40625 20.328125 58.90625 
Q 16.5 51.421875 16.5 36.375 
Q 16.5 21.390625 20.328125 13.890625 
Q 24.171875 6.390625 31.78125 6.390625 
Q 39.453125 6.390625 43.28125 13.890625 
Q 47.125 21.390625 47.125 36.375 
Q 47.125 51.421875 43.28125 58.90625 
Q 39.453125 66.40625 31.78125 66.40625 
z
M 31.78125 74.21875 
Q 44.046875 74.21875 50.515625 64.515625 
Q 56.984375 54.828125 56.984375 36.375 
Q 56.984375 17.96875 50.515625 8.265625 
Q 44.046875 -1.421875 31.78125 -1.421875 
Q 19.53125 -1.421875 13.0625 8.265625 
Q 6.59375 17.96875 6.59375 36.375 
Q 6.59375 54.828125 13.0625 64.515625 
Q 19.53125 74.21875 31.78125 74.21875 
z
" id="DejaVuSans-48"/>
       </defs>
       <use xlink:href="#DejaVuSans-48"/>
      </g>
     </g>
    </g>
    <g id="xtick_2">
     <g id="line2d_2">
      <g>
       <use style="stroke:#000000;stroke-width:0.8;" x="103.2187" xlink:href="#mb613a61bd1" y="246.84375"/>
      </g>
     </g>
     <g id="text_2">
      <!-- 5 -->
      <g transform="translate(100.03745 261.442187)scale(0.1 -0.1)">
       <defs>
        <path d="M 10.796875 72.90625 
L 49.515625 72.90625 
L 49.515625 64.59375 
L 19.828125 64.59375 
L 19.828125 46.734375 
Q 21.96875 47.46875 24.109375 47.828125 
Q 26.265625 48.1875 28.421875 48.1875 
Q 40.625 48.1875 47.75 41.5 
Q 54.890625 34.8125 54.890625 23.390625 
Q 54.890625 11.625 47.5625 5.09375 
Q 40.234375 -1.421875 26.90625 -1.421875 
Q 22.3125 -1.421875 17.546875 -0.640625 
Q 12.796875 0.140625 7.71875 1.703125 
L 7.71875 11.625 
Q 12.109375 9.234375 16.796875 8.0625 
Q 21.484375 6.890625 26.703125 6.890625 
Q 35.15625 6.890625 40.078125 11.328125 
Q 45.015625 15.765625 45.015625 23.390625 
Q 45.015625 31 40.078125 35.4375 
Q 35.15625 39.890625 26.703125 39.890625 
Q 22.75 39.890625 18.8125 39.015625 
Q 14.890625 38.140625 10.796875 36.28125 
z
" id="DejaVuSans-53"/>
       </defs>
       <use xlink:href="#DejaVuSans-53"/>
      </g>
     </g>
    </g>
    <g id="xtick_3">
     <g id="line2d_3">
      <g>
       <use style="stroke:#000000;stroke-width:0.8;" x="151.085131" xlink:href="#mb613a61bd1" y="246.84375"/>
      </g>
     </g>
     <g id="text_3">
      <!-- 10 -->
      <g transform="translate(144.722631 261.442187)scale(0.1 -0.1)">
       <defs>
        <path d="M 12.40625 8.296875 
L 28.515625 8.296875 
L 28.515625 63.921875 
L 10.984375 60.40625 
L 10.984375 69.390625 
L 28.421875 72.90625 
L 38.28125 72.90625 
L 38.28125 8.296875 
L 54.390625 8.296875 
L 54.390625 0 
L 12.40625 0 
z
" id="DejaVuSans-49"/>
       </defs>
       <use xlink:href="#DejaVuSans-49"/>
       <use x="63.623047" xlink:href="#DejaVuSans-48"/>
      </g>
     </g>
    </g>
    <g id="xtick_4">
     <g id="line2d_4">
      <g>
       <use style="stroke:#000000;stroke-width:0.8;" x="198.951562" xlink:href="#mb613a61bd1" y="246.84375"/>
      </g>
     </g>
     <g id="text_4">
      <!-- 15 -->
      <g transform="translate(192.589062 261.442187)scale(0.1 -0.1)">
       <use xlink:href="#DejaVuSans-49"/>
       <use x="63.623047" xlink:href="#DejaVuSans-53"/>
      </g>
     </g>
    </g>
    <g id="xtick_5">
     <g id="line2d_5">
      <g>
       <use style="stroke:#000000;stroke-width:0.8;" x="246.817994" xlink:href="#mb613a61bd1" y="246.84375"/>
      </g>
     </g>
     <g id="text_5">
      <!-- 20 -->
      <g transform="translate(240.455494 261.442187)scale(0.1 -0.1)">
       <defs>
        <path d="M 19.1875 8.296875 
L 53.609375 8.296875 
L 53.609375 0 
L 7.328125 0 
L 7.328125 8.296875 
Q 12.9375 14.109375 22.625 23.890625 
Q 32.328125 33.6875 34.8125 36.53125 
Q 39.546875 41.84375 41.421875 45.53125 
Q 43.3125 49.21875 43.3125 52.78125 
Q 43.3125 58.59375 39.234375 62.25 
Q 35.15625 65.921875 28.609375 65.921875 
Q 23.96875 65.921875 18.8125 64.3125 
Q 13.671875 62.703125 7.8125 59.421875 
L 7.8125 69.390625 
Q 13.765625 71.78125 18.9375 73 
Q 24.125 74.21875 28.421875 74.21875 
Q 39.75 74.21875 46.484375 68.546875 
Q 53.21875 62.890625 53.21875 53.421875 
Q 53.21875 48.921875 51.53125 44.890625 
Q 49.859375 40.875 45.40625 35.40625 
Q 44.1875 33.984375 37.640625 27.21875 
Q 31.109375 20.453125 19.1875 8.296875 
z
" id="DejaVuSans-50"/>
       </defs>
       <use xlink:href="#DejaVuSans-50"/>
       <use x="63.623047" xlink:href="#DejaVuSans-48"/>
      </g>
     </g>
    </g>
    <g id="xtick_6">
     <g id="line2d_6">
      <g>
       <use style="stroke:#000000;stroke-width:0.8;" x="294.684425" xlink:href="#mb613a61bd1" y="246.84375"/>
      </g>
     </g>
     <g id="text_6">
      <!-- 25 -->
      <g transform="translate(288.321925 261.442187)scale(0.1 -0.1)">
       <use xlink:href="#DejaVuSans-50"/>
       <use x="63.623047" xlink:href="#DejaVuSans-53"/>
      </g>
     </g>
    </g>
    <g id="xtick_7">
     <g id="line2d_7">
      <g>
       <use style="stroke:#000000;stroke-width:0.8;" x="342.550857" xlink:href="#mb613a61bd1" y="246.84375"/>
      </g>
     </g>
     <g id="text_7">
      <!-- 30 -->
      <g transform="translate(336.188357 261.442187)scale(0.1 -0.1)">
       <defs>
        <path d="M 40.578125 39.3125 
Q 47.65625 37.796875 51.625 33 
Q 55.609375 28.21875 55.609375 21.1875 
Q 55.609375 10.40625 48.1875 4.484375 
Q 40.765625 -1.421875 27.09375 -1.421875 
Q 22.515625 -1.421875 17.65625 -0.515625 
Q 12.796875 0.390625 7.625 2.203125 
L 7.625 11.71875 
Q 11.71875 9.328125 16.59375 8.109375 
Q 21.484375 6.890625 26.8125 6.890625 
Q 36.078125 6.890625 40.9375 10.546875 
Q 45.796875 14.203125 45.796875 21.1875 
Q 45.796875 27.640625 41.28125 31.265625 
Q 36.765625 34.90625 28.71875 34.90625 
L 20.21875 34.90625 
L 20.21875 43.015625 
L 29.109375 43.015625 
Q 36.375 43.015625 40.234375 45.921875 
Q 44.09375 48.828125 44.09375 54.296875 
Q 44.09375 59.90625 40.109375 62.90625 
Q 36.140625 65.921875 28.71875 65.921875 
Q 24.65625 65.921875 20.015625 65.03125 
Q 15.375 64.15625 9.8125 62.3125 
L 9.8125 71.09375 
Q 15.4375 72.65625 20.34375 73.4375 
Q 25.25 74.21875 29.59375 74.21875 
Q 40.828125 74.21875 47.359375 69.109375 
Q 53.90625 64.015625 53.90625 55.328125 
Q 53.90625 49.265625 50.4375 45.09375 
Q 46.96875 40.921875 40.578125 39.3125 
z
" id="DejaVuSans-51"/>
       </defs>
       <use xlink:href="#DejaVuSans-51"/>
       <use x="63.623047" xlink:href="#DejaVuSans-48"/>
      </g>
     </g>
    </g>
    <g id="text_8">
     <!-- CR -->
     <g transform="translate(191.985938 275.120313)scale(0.1 -0.1)">
      <defs>
       <path d="M 64.40625 67.28125 
L 64.40625 56.890625 
Q 59.421875 61.53125 53.78125 63.8125 
Q 48.140625 66.109375 41.796875 66.109375 
Q 29.296875 66.109375 22.65625 58.46875 
Q 16.015625 50.828125 16.015625 36.375 
Q 16.015625 21.96875 22.65625 14.328125 
Q 29.296875 6.6875 41.796875 6.6875 
Q 48.140625 6.6875 53.78125 8.984375 
Q 59.421875 11.28125 64.40625 15.921875 
L 64.40625 5.609375 
Q 59.234375 2.09375 53.4375 0.328125 
Q 47.65625 -1.421875 41.21875 -1.421875 
Q 24.65625 -1.421875 15.125 8.703125 
Q 5.609375 18.84375 5.609375 36.375 
Q 5.609375 53.953125 15.125 64.078125 
Q 24.65625 74.21875 41.21875 74.21875 
Q 47.75 74.21875 53.53125 72.484375 
Q 59.328125 70.75 64.40625 67.28125 
z
" id="DejaVuSans-67"/>
       <path d="M 44.390625 34.1875 
Q 47.5625 33.109375 50.5625 29.59375 
Q 53.5625 26.078125 56.59375 19.921875 
L 66.609375 0 
L 56 0 
L 46.6875 18.703125 
Q 43.0625 26.03125 39.671875 28.421875 
Q 36.28125 30.8125 30.421875 30.8125 
L 19.671875 30.8125 
L 19.671875 0 
L 9.8125 0 
L 9.8125 72.90625 
L 32.078125 72.90625 
Q 44.578125 72.90625 50.734375 67.671875 
Q 56.890625 62.453125 56.890625 51.90625 
Q 56.890625 45.015625 53.6875 40.46875 
Q 50.484375 35.9375 44.390625 34.1875 
z
M 19.671875 64.796875 
L 19.671875 38.921875 
L 32.078125 38.921875 
Q 39.203125 38.921875 42.84375 42.21875 
Q 46.484375 45.515625 46.484375 51.90625 
Q 46.484375 58.296875 42.84375 61.546875 
Q 39.203125 64.796875 32.078125 64.796875 
z
" id="DejaVuSans-82"/>
      </defs>
      <use xlink:href="#DejaVuSans-67"/>
      <use x="69.824219" xlink:href="#DejaVuSans-82"/>
     </g>
    </g>
   </g>
   <g id="matplotlib.axis_2">
    <g id="ytick_1">
     <g id="line2d_8">
      <defs>
       <path d="M 0 0 
L -3.5 0 
" id="m5339eefbca" style="stroke:#000000;stroke-width:0.8;"/>
      </defs>
      <g>
       <use style="stroke:#000000;stroke-width:0.8;" x="50.565625" xlink:href="#m5339eefbca" y="246.84375"/>
      </g>
     </g>
     <g id="text_9">
      <!-- 0 -->
      <g transform="translate(37.203125 250.642969)scale(0.1 -0.1)">
       <use xlink:href="#DejaVuSans-48"/>
      </g>
     </g>
    </g>
    <g id="ytick_2">
     <g id="line2d_9">
      <g>
       <use style="stroke:#000000;stroke-width:0.8;" x="50.565625" xlink:href="#m5339eefbca" y="215.621032"/>
      </g>
     </g>
     <g id="text_10">
      <!-- 25 -->
      <g transform="translate(30.840625 219.42025)scale(0.1 -0.1)">
       <use xlink:href="#DejaVuSans-50"/>
       <use x="63.623047" xlink:href="#DejaVuSans-53"/>
      </g>
     </g>
    </g>
    <g id="ytick_3">
     <g id="line2d_10">
      <g>
       <use style="stroke:#000000;stroke-width:0.8;" x="50.565625" xlink:href="#m5339eefbca" y="184.398313"/>
      </g>
     </g>
     <g id="text_11">
      <!-- 50 -->
      <g transform="translate(30.840625 188.197532)scale(0.1 -0.1)">
       <use xlink:href="#DejaVuSans-53"/>
       <use x="63.623047" xlink:href="#DejaVuSans-48"/>
      </g>
     </g>
    </g>
    <g id="ytick_4">
     <g id="line2d_11">
      <g>
       <use style="stroke:#000000;stroke-width:0.8;" x="50.565625" xlink:href="#m5339eefbca" y="153.175595"/>
      </g>
     </g>
     <g id="text_12">
      <!-- 75 -->
      <g transform="translate(30.840625 156.974814)scale(0.1 -0.1)">
       <defs>
        <path d="M 8.203125 72.90625 
L 55.078125 72.90625 
L 55.078125 68.703125 
L 28.609375 0 
L 18.3125 0 
L 43.21875 64.59375 
L 8.203125 64.59375 
z
" id="DejaVuSans-55"/>
       </defs>
       <use xlink:href="#DejaVuSans-55"/>
       <use x="63.623047" xlink:href="#DejaVuSans-53"/>
      </g>
     </g>
    </g>
    <g id="ytick_5">
     <g id="line2d_12">
      <g>
       <use style="stroke:#000000;stroke-width:0.8;" x="50.565625" xlink:href="#m5339eefbca" y="121.952877"/>
      </g>
     </g>
     <g id="text_13">
      <!-- 100 -->
      <g transform="translate(24.478125 125.752096)scale(0.1 -0.1)">
       <use xlink:href="#DejaVuSans-49"/>
       <use x="63.623047" xlink:href="#DejaVuSans-48"/>
       <use x="127.246094" xlink:href="#DejaVuSans-48"/>
      </g>
     </g>
    </g>
    <g id="ytick_6">
     <g id="line2d_13">
      <g>
       <use style="stroke:#000000;stroke-width:0.8;" x="50.565625" xlink:href="#m5339eefbca" y="90.730159"/>
      </g>
     </g>
     <g id="text_14">
      <!-- 125 -->
      <g transform="translate(24.478125 94.529377)scale(0.1 -0.1)">
       <use xlink:href="#DejaVuSans-49"/>
       <use x="63.623047" xlink:href="#DejaVuSans-50"/>
       <use x="127.246094" xlink:href="#DejaVuSans-53"/>
      </g>
     </g>
    </g>
    <g id="ytick_7">
     <g id="line2d_14">
      <g>
       <use style="stroke:#000000;stroke-width:0.8;" x="50.565625" xlink:href="#m5339eefbca" y="59.50744"/>
      </g>
     </g>
     <g id="text_15">
      <!-- 150 -->
      <g transform="translate(24.478125 63.306659)scale(0.1 -0.1)">
       <use xlink:href="#DejaVuSans-49"/>
       <use x="63.623047" xlink:href="#DejaVuSans-53"/>
       <use x="127.246094" xlink:href="#DejaVuSans-48"/>
      </g>
     </g>
    </g>
    <g id="ytick_8">
     <g id="line2d_15">
      <g>
       <use style="stroke:#000000;stroke-width:0.8;" x="50.565625" xlink:href="#m5339eefbca" y="28.284722"/>
      </g>
     </g>
     <g id="text_16">
      <!-- 175 -->
      <g transform="translate(24.478125 32.083941)scale(0.1 -0.1)">
       <use xlink:href="#DejaVuSans-49"/>
       <use x="63.623047" xlink:href="#DejaVuSans-55"/>
       <use x="127.246094" xlink:href="#DejaVuSans-53"/>
      </g>
     </g>
    </g>
    <g id="text_17">
     <!-- Count -->
     <g transform="translate(18.398438 143.670312)rotate(-90)scale(0.1 -0.1)">
      <defs>
       <path d="M 30.609375 48.390625 
Q 23.390625 48.390625 19.1875 42.75 
Q 14.984375 37.109375 14.984375 27.296875 
Q 14.984375 17.484375 19.15625 11.84375 
Q 23.34375 6.203125 30.609375 6.203125 
Q 37.796875 6.203125 41.984375 11.859375 
Q 46.1875 17.53125 46.1875 27.296875 
Q 46.1875 37.015625 41.984375 42.703125 
Q 37.796875 48.390625 30.609375 48.390625 
z
M 30.609375 56 
Q 42.328125 56 49.015625 48.375 
Q 55.71875 40.765625 55.71875 27.296875 
Q 55.71875 13.875 49.015625 6.21875 
Q 42.328125 -1.421875 30.609375 -1.421875 
Q 18.84375 -1.421875 12.171875 6.21875 
Q 5.515625 13.875 5.515625 27.296875 
Q 5.515625 40.765625 12.171875 48.375 
Q 18.84375 56 30.609375 56 
z
" id="DejaVuSans-111"/>
       <path d="M 8.5 21.578125 
L 8.5 54.6875 
L 17.484375 54.6875 
L 17.484375 21.921875 
Q 17.484375 14.15625 20.5 10.265625 
Q 23.53125 6.390625 29.59375 6.390625 
Q 36.859375 6.390625 41.078125 11.03125 
Q 45.3125 15.671875 45.3125 23.6875 
L 45.3125 54.6875 
L 54.296875 54.6875 
L 54.296875 0 
L 45.3125 0 
L 45.3125 8.40625 
Q 42.046875 3.421875 37.71875 1 
Q 33.40625 -1.421875 27.6875 -1.421875 
Q 18.265625 -1.421875 13.375 4.4375 
Q 8.5 10.296875 8.5 21.578125 
z
M 31.109375 56 
z
" id="DejaVuSans-117"/>
       <path d="M 54.890625 33.015625 
L 54.890625 0 
L 45.90625 0 
L 45.90625 32.71875 
Q 45.90625 40.484375 42.875 44.328125 
Q 39.84375 48.1875 33.796875 48.1875 
Q 26.515625 48.1875 22.3125 43.546875 
Q 18.109375 38.921875 18.109375 30.90625 
L 18.109375 0 
L 9.078125 0 
L 9.078125 54.6875 
L 18.109375 54.6875 
L 18.109375 46.1875 
Q 21.34375 51.125 25.703125 53.5625 
Q 30.078125 56 35.796875 56 
Q 45.21875 56 50.046875 50.171875 
Q 54.890625 44.34375 54.890625 33.015625 
z
" id="DejaVuSans-110"/>
       <path d="M 18.3125 70.21875 
L 18.3125 54.6875 
L 36.8125 54.6875 
L 36.8125 47.703125 
L 18.3125 47.703125 
L 18.3125 18.015625 
Q 18.3125 11.328125 20.140625 9.421875 
Q 21.96875 7.515625 27.59375 7.515625 
L 36.8125 7.515625 
L 36.8125 0 
L 27.59375 0 
Q 17.1875 0 13.234375 3.875 
Q 9.28125 7.765625 9.28125 18.015625 
L 9.28125 47.703125 
L 2.6875 47.703125 
L 2.6875 54.6875 
L 9.28125 54.6875 
L 9.28125 70.21875 
z
" id="DejaVuSans-116"/>
      </defs>
      <use xlink:href="#DejaVuSans-67"/>
      <use x="69.824219" xlink:href="#DejaVuSans-111"/>
      <use x="131.005859" xlink:href="#DejaVuSans-117"/>
      <use x="194.384766" xlink:href="#DejaVuSans-110"/>
      <use x="257.763672" xlink:href="#DejaVuSans-116"/>
     </g>
    </g>
   </g>
   <g id="patch_6">
    <path d="M 50.565625 246.84375 
L 50.565625 10.8 
" style="fill:none;stroke:#000000;stroke-linecap:square;stroke-linejoin:miter;stroke-width:0.8;"/>
   </g>
   <g id="patch_7">
    <path d="M 347.3375 246.84375 
L 347.3375 10.8 
" style="fill:none;stroke:#000000;stroke-linecap:square;stroke-linejoin:miter;stroke-width:0.8;"/>
   </g>
   <g id="patch_8">
    <path d="M 50.565625 246.84375 
L 347.3375 246.84375 
" style="fill:none;stroke:#000000;stroke-linecap:square;stroke-linejoin:miter;stroke-width:0.8;"/>
   </g>
   <g id="patch_9">
    <path d="M 50.565625 10.8 
L 347.3375 10.8 
" style="fill:none;stroke:#000000;stroke-linecap:square;stroke-linejoin:miter;stroke-width:0.8;"/>
   </g>
   <g id="legend_1">
    <g id="patch_10">
     <path d="M 255.442187 62.834375 
L 340.3375 62.834375 
Q 342.3375 62.834375 342.3375 60.834375 
L 342.3375 17.8 
Q 342.3375 15.8 340.3375 15.8 
L 255.442187 15.8 
Q 253.442187 15.8 253.442187 17.8 
L 253.442187 60.834375 
Q 253.442187 62.834375 255.442187 62.834375 
z
" style="fill:#ffffff;opacity:0.8;stroke:#cccccc;stroke-linejoin:miter;"/>
    </g>
    <g id="patch_11">
     <path d="M 257.442187 27.398438 
L 277.442187 27.398438 
L 277.442187 20.398438 
L 257.442187 20.398438 
z
" style="fill:#2ca02c;"/>
    </g>
    <g id="text_18">
     <!-- Unique -->
     <g transform="translate(285.442187 27.398438)scale(0.1 -0.1)">
      <defs>
       <path d="M 8.6875 72.90625 
L 18.609375 72.90625 
L 18.609375 28.609375 
Q 18.609375 16.890625 22.84375 11.734375 
Q 27.09375 6.59375 36.625 6.59375 
Q 46.09375 6.59375 50.34375 11.734375 
Q 54.59375 16.890625 54.59375 28.609375 
L 54.59375 72.90625 
L 64.5 72.90625 
L 64.5 27.390625 
Q 64.5 13.140625 57.4375 5.859375 
Q 50.390625 -1.421875 36.625 -1.421875 
Q 22.796875 -1.421875 15.734375 5.859375 
Q 8.6875 13.140625 8.6875 27.390625 
z
" id="DejaVuSans-85"/>
       <path d="M 9.421875 54.6875 
L 18.40625 54.6875 
L 18.40625 0 
L 9.421875 0 
z
M 9.421875 75.984375 
L 18.40625 75.984375 
L 18.40625 64.59375 
L 9.421875 64.59375 
z
" id="DejaVuSans-105"/>
       <path d="M 14.796875 27.296875 
Q 14.796875 17.390625 18.875 11.75 
Q 22.953125 6.109375 30.078125 6.109375 
Q 37.203125 6.109375 41.296875 11.75 
Q 45.40625 17.390625 45.40625 27.296875 
Q 45.40625 37.203125 41.296875 42.84375 
Q 37.203125 48.484375 30.078125 48.484375 
Q 22.953125 48.484375 18.875 42.84375 
Q 14.796875 37.203125 14.796875 27.296875 
z
M 45.40625 8.203125 
Q 42.578125 3.328125 38.25 0.953125 
Q 33.9375 -1.421875 27.875 -1.421875 
Q 17.96875 -1.421875 11.734375 6.484375 
Q 5.515625 14.40625 5.515625 27.296875 
Q 5.515625 40.1875 11.734375 48.09375 
Q 17.96875 56 27.875 56 
Q 33.9375 56 38.25 53.625 
Q 42.578125 51.265625 45.40625 46.390625 
L 45.40625 54.6875 
L 54.390625 54.6875 
L 54.390625 -20.796875 
L 45.40625 -20.796875 
z
" id="DejaVuSans-113"/>
       <path d="M 56.203125 29.59375 
L 56.203125 25.203125 
L 14.890625 25.203125 
Q 15.484375 15.921875 20.484375 11.0625 
Q 25.484375 6.203125 34.421875 6.203125 
Q 39.59375 6.203125 44.453125 7.46875 
Q 49.3125 8.734375 54.109375 11.28125 
L 54.109375 2.78125 
Q 49.265625 0.734375 44.1875 -0.34375 
Q 39.109375 -1.421875 33.890625 -1.421875 
Q 20.796875 -1.421875 13.15625 6.1875 
Q 5.515625 13.8125 5.515625 26.8125 
Q 5.515625 40.234375 12.765625 48.109375 
Q 20.015625 56 32.328125 56 
Q 43.359375 56 49.78125 48.890625 
Q 56.203125 41.796875 56.203125 29.59375 
z
M 47.21875 32.234375 
Q 47.125 39.59375 43.09375 43.984375 
Q 39.0625 48.390625 32.421875 48.390625 
Q 24.90625 48.390625 20.390625 44.140625 
Q 15.875 39.890625 15.1875 32.171875 
z
" id="DejaVuSans-101"/>
      </defs>
      <use xlink:href="#DejaVuSans-85"/>
      <use x="73.193359" xlink:href="#DejaVuSans-110"/>
      <use x="136.572266" xlink:href="#DejaVuSans-105"/>
      <use x="164.355469" xlink:href="#DejaVuSans-113"/>
      <use x="227.832031" xlink:href="#DejaVuSans-117"/>
      <use x="291.210938" xlink:href="#DejaVuSans-101"/>
     </g>
    </g>
    <g id="patch_12">
     <path d="M 257.442187 42.076562 
L 277.442187 42.076562 
L 277.442187 35.076562 
L 257.442187 35.076562 
z
" style="fill:#ff7f0e;"/>
    </g>
    <g id="text_19">
     <!-- Legendary -->
     <g transform="translate(285.442187 42.076562)scale(0.1 -0.1)">
      <defs>
       <path d="M 9.8125 72.90625 
L 19.671875 72.90625 
L 19.671875 8.296875 
L 55.171875 8.296875 
L 55.171875 0 
L 9.8125 0 
z
" id="DejaVuSans-76"/>
       <path d="M 45.40625 27.984375 
Q 45.40625 37.75 41.375 43.109375 
Q 37.359375 48.484375 30.078125 48.484375 
Q 22.859375 48.484375 18.828125 43.109375 
Q 14.796875 37.75 14.796875 27.984375 
Q 14.796875 18.265625 18.828125 12.890625 
Q 22.859375 7.515625 30.078125 7.515625 
Q 37.359375 7.515625 41.375 12.890625 
Q 45.40625 18.265625 45.40625 27.984375 
z
M 54.390625 6.78125 
Q 54.390625 -7.171875 48.1875 -13.984375 
Q 42 -20.796875 29.203125 -20.796875 
Q 24.46875 -20.796875 20.265625 -20.09375 
Q 16.0625 -19.390625 12.109375 -17.921875 
L 12.109375 -9.1875 
Q 16.0625 -11.328125 19.921875 -12.34375 
Q 23.78125 -13.375 27.78125 -13.375 
Q 36.625 -13.375 41.015625 -8.765625 
Q 45.40625 -4.15625 45.40625 5.171875 
L 45.40625 9.625 
Q 42.625 4.78125 38.28125 2.390625 
Q 33.9375 0 27.875 0 
Q 17.828125 0 11.671875 7.65625 
Q 5.515625 15.328125 5.515625 27.984375 
Q 5.515625 40.671875 11.671875 48.328125 
Q 17.828125 56 27.875 56 
Q 33.9375 56 38.28125 53.609375 
Q 42.625 51.21875 45.40625 46.390625 
L 45.40625 54.6875 
L 54.390625 54.6875 
z
" id="DejaVuSans-103"/>
       <path d="M 45.40625 46.390625 
L 45.40625 75.984375 
L 54.390625 75.984375 
L 54.390625 0 
L 45.40625 0 
L 45.40625 8.203125 
Q 42.578125 3.328125 38.25 0.953125 
Q 33.9375 -1.421875 27.875 -1.421875 
Q 17.96875 -1.421875 11.734375 6.484375 
Q 5.515625 14.40625 5.515625 27.296875 
Q 5.515625 40.1875 11.734375 48.09375 
Q 17.96875 56 27.875 56 
Q 33.9375 56 38.25 53.625 
Q 42.578125 51.265625 45.40625 46.390625 
z
M 14.796875 27.296875 
Q 14.796875 17.390625 18.875 11.75 
Q 22.953125 6.109375 30.078125 6.109375 
Q 37.203125 6.109375 41.296875 11.75 
Q 45.40625 17.390625 45.40625 27.296875 
Q 45.40625 37.203125 41.296875 42.84375 
Q 37.203125 48.484375 30.078125 48.484375 
Q 22.953125 48.484375 18.875 42.84375 
Q 14.796875 37.203125 14.796875 27.296875 
z
" id="DejaVuSans-100"/>
       <path d="M 34.28125 27.484375 
Q 23.390625 27.484375 19.1875 25 
Q 14.984375 22.515625 14.984375 16.5 
Q 14.984375 11.71875 18.140625 8.90625 
Q 21.296875 6.109375 26.703125 6.109375 
Q 34.1875 6.109375 38.703125 11.40625 
Q 43.21875 16.703125 43.21875 25.484375 
L 43.21875 27.484375 
z
M 52.203125 31.203125 
L 52.203125 0 
L 43.21875 0 
L 43.21875 8.296875 
Q 40.140625 3.328125 35.546875 0.953125 
Q 30.953125 -1.421875 24.3125 -1.421875 
Q 15.921875 -1.421875 10.953125 3.296875 
Q 6 8.015625 6 15.921875 
Q 6 25.140625 12.171875 29.828125 
Q 18.359375 34.515625 30.609375 34.515625 
L 43.21875 34.515625 
L 43.21875 35.40625 
Q 43.21875 41.609375 39.140625 45 
Q 35.0625 48.390625 27.6875 48.390625 
Q 23 48.390625 18.546875 47.265625 
Q 14.109375 46.140625 10.015625 43.890625 
L 10.015625 52.203125 
Q 14.9375 54.109375 19.578125 55.046875 
Q 24.21875 56 28.609375 56 
Q 40.484375 56 46.34375 49.84375 
Q 52.203125 43.703125 52.203125 31.203125 
z
" id="DejaVuSans-97"/>
       <path d="M 41.109375 46.296875 
Q 39.59375 47.171875 37.8125 47.578125 
Q 36.03125 48 33.890625 48 
Q 26.265625 48 22.1875 43.046875 
Q 18.109375 38.09375 18.109375 28.8125 
L 18.109375 0 
L 9.078125 0 
L 9.078125 54.6875 
L 18.109375 54.6875 
L 18.109375 46.1875 
Q 20.953125 51.171875 25.484375 53.578125 
Q 30.03125 56 36.53125 56 
Q 37.453125 56 38.578125 55.875 
Q 39.703125 55.765625 41.0625 55.515625 
z
" id="DejaVuSans-114"/>
       <path d="M 32.171875 -5.078125 
Q 28.375 -14.84375 24.75 -17.8125 
Q 21.140625 -20.796875 15.09375 -20.796875 
L 7.90625 -20.796875 
L 7.90625 -13.28125 
L 13.1875 -13.28125 
Q 16.890625 -13.28125 18.9375 -11.515625 
Q 21 -9.765625 23.484375 -3.21875 
L 25.09375 0.875 
L 2.984375 54.6875 
L 12.5 54.6875 
L 29.59375 11.921875 
L 46.6875 54.6875 
L 56.203125 54.6875 
z
" id="DejaVuSans-121"/>
      </defs>
      <use xlink:href="#DejaVuSans-76"/>
      <use x="53.962891" xlink:href="#DejaVuSans-101"/>
      <use x="115.486328" xlink:href="#DejaVuSans-103"/>
      <use x="178.962891" xlink:href="#DejaVuSans-101"/>
      <use x="240.486328" xlink:href="#DejaVuSans-110"/>
      <use x="303.865234" xlink:href="#DejaVuSans-100"/>
      <use x="367.341797" xlink:href="#DejaVuSans-97"/>
      <use x="428.621094" xlink:href="#DejaVuSans-114"/>
      <use x="469.734375" xlink:href="#DejaVuSans-121"/>
     </g>
    </g>
    <g id="patch_13">
     <path d="M 257.442187 56.754687 
L 277.442187 56.754687 
L 277.442187 49.754687 
L 257.442187 49.754687 
z
" style="fill:#1f77b4;"/>
    </g>
    <g id="text_20">
     <!-- Generic -->
     <g transform="translate(285.442187 56.754687)scale(0.1 -0.1)">
      <defs>
       <path d="M 59.515625 10.40625 
L 59.515625 29.984375 
L 43.40625 29.984375 
L 43.40625 38.09375 
L 69.28125 38.09375 
L 69.28125 6.78125 
Q 63.578125 2.734375 56.6875 0.65625 
Q 49.8125 -1.421875 42 -1.421875 
Q 24.90625 -1.421875 15.25 8.5625 
Q 5.609375 18.5625 5.609375 36.375 
Q 5.609375 54.25 15.25 64.234375 
Q 24.90625 74.21875 42 74.21875 
Q 49.125 74.21875 55.546875 72.453125 
Q 61.96875 70.703125 67.390625 67.28125 
L 67.390625 56.78125 
Q 61.921875 61.421875 55.765625 63.765625 
Q 49.609375 66.109375 42.828125 66.109375 
Q 29.4375 66.109375 22.71875 58.640625 
Q 16.015625 51.171875 16.015625 36.375 
Q 16.015625 21.625 22.71875 14.15625 
Q 29.4375 6.6875 42.828125 6.6875 
Q 48.046875 6.6875 52.140625 7.59375 
Q 56.25 8.5 59.515625 10.40625 
z
" id="DejaVuSans-71"/>
       <path d="M 48.78125 52.59375 
L 48.78125 44.1875 
Q 44.96875 46.296875 41.140625 47.34375 
Q 37.3125 48.390625 33.40625 48.390625 
Q 24.65625 48.390625 19.8125 42.84375 
Q 14.984375 37.3125 14.984375 27.296875 
Q 14.984375 17.28125 19.8125 11.734375 
Q 24.65625 6.203125 33.40625 6.203125 
Q 37.3125 6.203125 41.140625 7.25 
Q 44.96875 8.296875 48.78125 10.40625 
L 48.78125 2.09375 
Q 45.015625 0.34375 40.984375 -0.53125 
Q 36.96875 -1.421875 32.421875 -1.421875 
Q 20.0625 -1.421875 12.78125 6.34375 
Q 5.515625 14.109375 5.515625 27.296875 
Q 5.515625 40.671875 12.859375 48.328125 
Q 20.21875 56 33.015625 56 
Q 37.15625 56 41.109375 55.140625 
Q 45.0625 54.296875 48.78125 52.59375 
z
" id="DejaVuSans-99"/>
      </defs>
      <use xlink:href="#DejaVuSans-71"/>
      <use x="77.490234" xlink:href="#DejaVuSans-101"/>
      <use x="139.013672" xlink:href="#DejaVuSans-110"/>
      <use x="202.392578" xlink:href="#DejaVuSans-101"/>
      <use x="263.916016" xlink:href="#DejaVuSans-114"/>
      <use x="305.029297" xlink:href="#DejaVuSans-105"/>
      <use x="332.8125" xlink:href="#DejaVuSans-99"/>
     </g>
    </g>
   </g>
  </g>
 </g>
 <defs>
  <clipPath id="p93aaa18d85">
   <rect height="236.04375" width="296.771875" x="50.565625" y="10.8"/>
  </clipPath>
 </defs>
</svg>
